<?xml version="1.0" encoding="UTF-8" standalone="no"?><svg xmlns="http://www.w3.org/2000/svg" xmlns:xlink="http://www.w3.org/1999/xlink" contentScriptType="application/ecmascript" contentStyleType="text/css" height="1771px" preserveAspectRatio="none" style="width:1244px;height:1771px;" version="1.1" viewBox="0 0 1244 1771" width="1244px" zoomAndPan="magnify"><defs><filter height="300%" id="fo0wi8djapjgm" width="300%" x="-1" y="-1"><feGaussianBlur result="blurOut" stdDeviation="2.0"/><feColorMatrix in="blurOut" result="blurOut2" type="matrix" values="0 0 0 0 0 0 0 0 0 0 0 0 0 0 0 0 0 0 .4 0"/><feOffset dx="4.0" dy="4.0" in="blurOut2" result="blurOut3"/><feBlend in="SourceGraphic" in2="blurOut3" mode="normal"/></filter></defs><g><text fill="#000000" font-family="sans-serif" font-size="18" lengthAdjust="spacingAndGlyphs" textLength="90" x="583" y="18.6855">手配フロー</text><!--cluster 手配データ作成excel--><polygon fill="#FFFFFF" filter="url(#fo0wi8djapjgm)" points="304,116.6406,453,116.6406,460,140.25,588,140.25,588,751.6406,304,751.6406,304,116.6406" style="stroke: #000000; stroke-width: 2.0;"/><line style="stroke: #000000; stroke-width: 2.0;" x1="304" x2="460" y1="140.25" y2="140.25"/><text fill="#000000" font-family="sans-serif" font-size="14" font-weight="bold" lengthAdjust="spacingAndGlyphs" textLength="143" x="308" y="133.1738">手配データ作成excel</text><!--cluster 発注システム--><polygon fill="#FFFFFF" filter="url(#fo0wi8djapjgm)" points="132,784.6406,228,784.6406,235,808.25,1062,808.25,1062,1161.6406,132,1161.6406,132,784.6406" style="stroke: #000000; stroke-width: 2.0;"/><line style="stroke: #000000; stroke-width: 2.0;" x1="132" x2="235" y1="808.25" y2="808.25"/><text fill="#000000" font-family="sans-serif" font-size="14" font-weight="bold" lengthAdjust="spacingAndGlyphs" textLength="90" x="136" y="801.1738">発注システム</text><!--cluster 商魂--><polygon fill="#FFFFFF" filter="url(#fo0wi8djapjgm)" points="22,224.6406,58,224.6406,65,248.25,246,248.25,246,425.6406,22,425.6406,22,224.6406" style="stroke: #000000; stroke-width: 2.0;"/><line style="stroke: #000000; stroke-width: 2.0;" x1="22" x2="65" y1="248.25" y2="248.25"/><text fill="#000000" font-family="sans-serif" font-size="14" font-weight="bold" lengthAdjust="spacingAndGlyphs" textLength="30" x="26" y="241.1738">商魂</text><!--cluster 起案サブシステム--><polygon fill="#FFFFFF" filter="url(#fo0wi8djapjgm)" points="144,472.6406,270,472.6406,277,496.25,280,496.25,280,649.6406,144,649.6406,144,472.6406" style="stroke: #000000; stroke-width: 2.0;"/><line style="stroke: #000000; stroke-width: 2.0;" x1="144" x2="277" y1="496.25" y2="496.25"/><text fill="#000000" font-family="sans-serif" font-size="14" font-weight="bold" lengthAdjust="spacingAndGlyphs" textLength="120" x="148" y="489.1738">起案サブシステム</text><!--cluster 発注用商品情報ブック--><polygon fill="#FFFFFF" filter="url(#fo0wi8djapjgm)" points="612,224.6406,768,224.6406,775,248.25,778,248.25,778,311.6406,612,311.6406,612,224.6406" style="stroke: #000000; stroke-width: 2.0;"/><line style="stroke: #000000; stroke-width: 2.0;" x1="612" x2="775" y1="248.25" y2="248.25"/><text fill="#000000" font-family="sans-serif" font-size="14" font-weight="bold" lengthAdjust="spacingAndGlyphs" textLength="150" x="616" y="241.1738">発注用商品情報ブック</text><!--cluster 入庫データベース--><polygon fill="#FFFFFF" filter="url(#fo0wi8djapjgm)" points="1086,1074.6406,1212,1074.6406,1219,1098.25,1222,1098.25,1222,1161.6406,1086,1161.6406,1086,1074.6406" style="stroke: #000000; stroke-width: 2.0;"/><line style="stroke: #000000; stroke-width: 2.0;" x1="1086" x2="1219" y1="1098.25" y2="1098.25"/><text fill="#000000" font-family="sans-serif" font-size="14" font-weight="bold" lengthAdjust="spacingAndGlyphs" textLength="120" x="1090" y="1091.1738">入庫データベース</text><!--cluster Faxサーバ--><polygon fill="#FFFFFF" filter="url(#fo0wi8djapjgm)" points="540,1208.6406,616,1208.6406,623,1232.25,722,1232.25,722,1295.6406,540,1295.6406,540,1208.6406" style="stroke: #000000; stroke-width: 2.0;"/><line style="stroke: #000000; stroke-width: 2.0;" x1="540" x2="623" y1="1232.25" y2="1232.25"/><text fill="#000000" font-family="sans-serif" font-size="14" font-weight="bold" lengthAdjust="spacingAndGlyphs" textLength="70" x="544" y="1225.1738">Faxサーバ</text><!--cluster 仕入先 企業--><polygon fill="#FFFFFF" filter="url(#fo0wi8djapjgm)" points="602,1328.6406,687,1328.6406,694,1352.25,702,1352.25,702,1625.6406,602,1625.6406,602,1328.6406" style="stroke: #000000; stroke-width: 2.0;"/><line style="stroke: #000000; stroke-width: 2.0;" x1="602" x2="694" y1="1352.25" y2="1352.25"/><text fill="#000000" font-family="sans-serif" font-size="14" font-weight="bold" lengthAdjust="spacingAndGlyphs" textLength="79" x="606" y="1345.1738">仕入先 企業</text><!--cluster 第三倉庫--><polygon fill="#FFFFFF" filter="url(#fo0wi8djapjgm)" points="746,1208.6406,812,1208.6406,819,1232.25,1036,1232.25,1036,1415.6406,746,1415.6406,746,1208.6406" style="stroke: #000000; stroke-width: 2.0;"/><line style="stroke: #000000; stroke-width: 2.0;" x1="746" x2="819" y1="1232.25" y2="1232.25"/><text fill="#000000" font-family="sans-serif" font-size="14" font-weight="bold" lengthAdjust="spacingAndGlyphs" textLength="60" x="750" y="1225.1738">第三倉庫</text><!--cluster 管理部--><polygon fill="#FFFFFF" filter="url(#fo0wi8djapjgm)" points="726,1448.6406,777,1448.6406,784,1472.25,866,1472.25,866,1759.6406,726,1759.6406,726,1448.6406" style="stroke: #000000; stroke-width: 2.0;"/><line style="stroke: #000000; stroke-width: 2.0;" x1="726" x2="784" y1="1472.25" y2="1472.25"/><text fill="#000000" font-family="sans-serif" font-size="14" font-weight="bold" lengthAdjust="spacingAndGlyphs" textLength="45" x="730" y="1465.1738">管理部</text><!--cluster 物流部--><polygon fill="#FFFFFF" filter="url(#fo0wi8djapjgm)" points="890,1672.6406,941,1672.6406,948,1696.25,966,1696.25,966,1759.6406,890,1759.6406,890,1672.6406" style="stroke: #000000; stroke-width: 2.0;"/><line style="stroke: #000000; stroke-width: 2.0;" x1="890" x2="948" y1="1696.25" y2="1696.25"/><text fill="#000000" font-family="sans-serif" font-size="14" font-weight="bold" lengthAdjust="spacingAndGlyphs" textLength="45" x="894" y="1689.1738">物流部</text><rect fill="#F8F8F8" filter="url(#fo0wi8djapjgm)" height="35.0938" rx="12.5" ry="12.5" style="stroke: #383838; stroke-width: 1.5;" width="80" x="468" y="152.6406"/><text fill="#000000" font-family="sans-serif" font-size="12" lengthAdjust="spacingAndGlyphs" textLength="60" x="478" y="175.0977">データ読込</text><rect fill="#F8F8F8" filter="url(#fo0wi8djapjgm)" height="35.0938" rx="12.5" ry="12.5" style="stroke: #383838; stroke-width: 1.5;" width="122" x="447" y="260.6406"/><text fill="#000000" font-family="sans-serif" font-size="12" lengthAdjust="spacingAndGlyphs" textLength="102" x="457" y="283.0977">商品別 依頼数 集計</text><rect fill="#F8F8F8" filter="url(#fo0wi8djapjgm)" height="35.0938" rx="12.5" ry="12.5" style="stroke: #383838; stroke-width: 1.5;" width="128" x="444" y="374.6406"/><text fill="#000000" font-family="sans-serif" font-size="12" lengthAdjust="spacingAndGlyphs" textLength="108" x="454" y="397.0977">発注数量決定シート</text><polygon fill="#F8F8F8" filter="url(#fo0wi8djapjgm)" points="508,514.1406,520,526.1406,508,538.1406,496,526.1406,508,514.1406" style="stroke: #383838; stroke-width: 1.5;"/><rect fill="#F8F8F8" filter="url(#fo0wi8djapjgm)" height="35.0938" rx="12.5" ry="12.5" style="stroke: #383838; stroke-width: 1.5;" width="104" x="465" y="598.6406"/><text fill="#000000" font-family="sans-serif" font-size="12" lengthAdjust="spacingAndGlyphs" textLength="84" x="475" y="621.0977">手配保留リスト</text><polygon fill="#F8F8F8" filter="url(#fo0wi8djapjgm)" points="433,604.1406,445,616.1406,433,628.1406,421,616.1406,433,604.1406" style="stroke: #383838; stroke-width: 1.5;"/><rect fill="#F8F8F8" filter="url(#fo0wi8djapjgm)" height="35.0938" rx="12.5" ry="12.5" style="stroke: #383838; stroke-width: 1.5;" width="128" x="444" y="700.6406"/><text fill="#000000" font-family="sans-serif" font-size="12" lengthAdjust="spacingAndGlyphs" textLength="108" x="454" y="723.0977">一括読込用ファイル</text><rect fill="#F8F8F8" filter="url(#fo0wi8djapjgm)" height="35.0938" rx="12.5" ry="12.5" style="stroke: #383838; stroke-width: 1.5;" width="104" x="320" y="700.6406"/><text fill="#000000" font-family="sans-serif" font-size="12" lengthAdjust="spacingAndGlyphs" textLength="84" x="330" y="723.0977">手入力用リスト</text><rect fill="#F8F8F8" filter="url(#fo0wi8djapjgm)" height="35.0938" rx="12.5" ry="12.5" style="stroke: #383838; stroke-width: 1.5;" width="116" x="654" y="873.6406"/><text fill="#000000" font-family="sans-serif" font-size="12" lengthAdjust="spacingAndGlyphs" textLength="96" x="664" y="896.0977">発注システム読込</text><polygon fill="#ECECEC" filter="url(#fo0wi8djapjgm)" points="790.5,820.6406,790.5,961.4531,1045.5,961.4531,1045.5,830.6406,1035.5,820.6406,790.5,820.6406" style="stroke: #383838; stroke-width: 1.0;"/><polygon fill="#ECECEC" points="790.5,820.6406,790.5,887.1406,770.34,891.1406,790.5,895.1406,790.5,961.4531,1045.5,961.4531,1045.5,830.6406,1035.5,820.6406,790.5,820.6406" style="stroke: #383838; stroke-width: 1.0;"/><line style="stroke: #383838; stroke-width: 1.0;" x1="1035.5" x2="1035.5" y1="820.6406" y2="830.6406"/><line style="stroke: #383838; stroke-width: 1.0;" x1="1045.5" x2="1035.5" y1="830.6406" y2="830.6406"/><text fill="#000000" font-family="sans-serif" font-size="13" lengthAdjust="spacingAndGlyphs" textLength="52" x="796.5" y="839.1357">必要項目</text><text fill="#000000" font-family="sans-serif" font-size="13" lengthAdjust="spacingAndGlyphs" textLength="102" x="812.5" y="855.4873">倉庫番号 180/187</text><text fill="#000000" font-family="sans-serif" font-size="13" lengthAdjust="spacingAndGlyphs" textLength="33" x="812.5" y="871.8389">6ケタ</text><text fill="#000000" font-family="sans-serif" font-size="13" lengthAdjust="spacingAndGlyphs" textLength="26" x="812.5" y="888.1904">数量</text><text fill="#000000" font-family="sans-serif" font-size="13" lengthAdjust="spacingAndGlyphs" textLength="91" x="812.5" y="904.542">配達・引取区分</text><text fill="#000000" font-family="sans-serif" font-size="13" lengthAdjust="spacingAndGlyphs" textLength="78" x="812.5" y="920.8936">担当者コード</text><text fill="#000000" font-family="sans-serif" font-size="13" lengthAdjust="spacingAndGlyphs" textLength="225" x="796.5" y="937.2451">※ 他に必要なデータは発注システムが</text><text fill="#000000" font-family="sans-serif" font-size="13" lengthAdjust="spacingAndGlyphs" textLength="234" x="796.5" y="953.5967">商品マスタ・仕入先マスタから引っ張る</text><rect fill="#F8F8F8" filter="url(#fo0wi8djapjgm)" height="35.0938" rx="12.5" ry="12.5" style="stroke: #383838; stroke-width: 1.5;" width="104" x="308" y="1002.6406"/><text fill="#000000" font-family="sans-serif" font-size="12" lengthAdjust="spacingAndGlyphs" textLength="84" x="318" y="1025.0977">発注データ作成</text><rect fill="#F8F8F8" filter="url(#fo0wi8djapjgm)" height="35.0938" rx="12.5" ry="12.5" style="stroke: #383838; stroke-width: 1.5;" width="128" x="296" y="873.6406"/><text fill="#000000" font-family="sans-serif" font-size="12" lengthAdjust="spacingAndGlyphs" textLength="108" x="306" y="896.0977">発注システム手入力</text><polygon fill="#ECECEC" filter="url(#fo0wi8djapjgm)" points="444,837.1406,444,945.25,634,945.25,634,847.1406,624,837.1406,444,837.1406" style="stroke: #383838; stroke-width: 1.0;"/><polygon fill="#ECECEC" points="444,837.1406,444,887.1406,424.328,891.1406,444,895.1406,444,945.25,634,945.25,634,847.1406,624,837.1406,444,837.1406" style="stroke: #383838; stroke-width: 1.0;"/><line style="stroke: #383838; stroke-width: 1.0;" x1="624" x2="624" y1="837.1406" y2="847.1406"/><line style="stroke: #383838; stroke-width: 1.0;" x1="634" x2="624" y1="847.1406" y2="847.1406"/><text fill="#000000" font-family="sans-serif" font-size="13" lengthAdjust="spacingAndGlyphs" textLength="169" x="450" y="855.6357">手入力で発注システムへ入力</text><text fill="#000000" font-family="sans-serif" font-size="13" lengthAdjust="spacingAndGlyphs" textLength="39" x="466" y="871.9873">仕入先</text><text fill="#000000" font-family="sans-serif" font-size="13" lengthAdjust="spacingAndGlyphs" textLength="39" x="466" y="888.3389">商品名</text><text fill="#000000" font-family="sans-serif" font-size="13" lengthAdjust="spacingAndGlyphs" textLength="24" x="466" y="904.6904">JAN</text><text fill="#000000" font-family="sans-serif" font-size="13" lengthAdjust="spacingAndGlyphs" textLength="26" x="466" y="921.042">数量</text><text fill="#000000" font-family="sans-serif" font-size="13" lengthAdjust="spacingAndGlyphs" textLength="26" x="466" y="937.3936">原価</text><rect fill="#F8F8F8" filter="url(#fo0wi8djapjgm)" height="35.0938" rx="12.5" ry="12.5" style="stroke: #383838; stroke-width: 1.5;" width="128" x="148" y="873.6406"/><text fill="#000000" font-family="sans-serif" font-size="12" lengthAdjust="spacingAndGlyphs" textLength="108" x="158" y="896.0977">定期発注データ読込</text><rect fill="#F8F8F8" filter="url(#fo0wi8djapjgm)" height="35.0938" rx="12.5" ry="12.5" style="stroke: #383838; stroke-width: 1.5;" width="80" x="591" y="1110.6406"/><text fill="#000000" font-family="sans-serif" font-size="12" lengthAdjust="spacingAndGlyphs" textLength="60" x="601" y="1133.0977">手配書起票</text><rect fill="#F8F8F8" filter="url(#fo0wi8djapjgm)" height="35.0938" rx="12.5" ry="12.5" style="stroke: #383838; stroke-width: 1.5;" width="128" x="691" y="1110.6406"/><text fill="#000000" font-family="sans-serif" font-size="12" lengthAdjust="spacingAndGlyphs" textLength="108" x="701" y="1133.0977">手配書テンプレート</text><rect fill="#F8F8F8" filter="url(#fo0wi8djapjgm)" height="35.0938" rx="12.5" ry="12.5" style="stroke: #383838; stroke-width: 1.5;" width="80" x="150" y="260.6406"/><text fill="#000000" font-family="sans-serif" font-size="12" lengthAdjust="spacingAndGlyphs" textLength="60" x="160" y="283.0977">商品マスタ</text><rect fill="#F8F8F8" filter="url(#fo0wi8djapjgm)" height="35.0938" rx="12.5" ry="12.5" style="stroke: #383838; stroke-width: 1.5;" width="92" x="38" y="260.6406"/><text fill="#000000" font-family="sans-serif" font-size="12" lengthAdjust="spacingAndGlyphs" textLength="72" x="48" y="283.0977">仕入先マスタ</text><rect fill="#F8F8F8" filter="url(#fo0wi8djapjgm)" height="35.0938" rx="12.5" ry="12.5" style="stroke: #383838; stroke-width: 1.5;" width="80" x="150" y="374.6406"/><text fill="#000000" font-family="sans-serif" font-size="12" lengthAdjust="spacingAndGlyphs" textLength="60" x="160" y="397.0977">在庫マスタ</text><rect fill="#F8F8F8" filter="url(#fo0wi8djapjgm)" height="35.0938" rx="12.5" ry="12.5" style="stroke: #383838; stroke-width: 1.5;" width="68" x="161" y="508.6406"/><text fill="#000000" font-family="sans-serif" font-size="12" lengthAdjust="spacingAndGlyphs" textLength="48" x="171" y="531.0977">在庫監視</text><rect fill="#F8F8F8" filter="url(#fo0wi8djapjgm)" height="35.0938" rx="12.5" ry="12.5" style="stroke: #383838; stroke-width: 1.5;" width="44" x="175" y="598.6406"/><text fill="#000000" font-family="sans-serif" font-size="12" lengthAdjust="spacingAndGlyphs" textLength="24" x="185" y="621.0977">起案</text><rect fill="#F8F8F8" filter="url(#fo0wi8djapjgm)" height="35.0938" rx="12.5" ry="12.5" style="stroke: #383838; stroke-width: 1.5;" width="68" x="628" y="260.6406"/><text fill="#000000" font-family="sans-serif" font-size="12" lengthAdjust="spacingAndGlyphs" textLength="48" x="638" y="283.0977">商品情報</text><rect fill="#F8F8F8" filter="url(#fo0wi8djapjgm)" height="35.0938" rx="12.5" ry="12.5" style="stroke: #383838; stroke-width: 1.5;" width="104" x="1102" y="1110.6406"/><text fill="#000000" font-family="sans-serif" font-size="12" lengthAdjust="spacingAndGlyphs" textLength="84" x="1112" y="1133.0977">入庫待ちデータ</text><rect fill="#F8F8F8" filter="url(#fo0wi8djapjgm)" height="35.0938" rx="12.5" ry="12.5" style="stroke: #383838; stroke-width: 1.5;" width="149" x="556.5" y="1244.6406"/><text fill="#000000" font-family="sans-serif" font-size="12" lengthAdjust="spacingAndGlyphs" textLength="129" x="566.5" y="1267.0977">FAX手配書ファイル出力</text><rect fill="#F8F8F8" filter="url(#fo0wi8djapjgm)" height="35.0938" rx="12.5" ry="12.5" style="stroke: #383838; stroke-width: 1.5;" width="44" x="630" y="1364.6406"/><text fill="#000000" font-family="sans-serif" font-size="12" lengthAdjust="spacingAndGlyphs" textLength="24" x="640" y="1387.0977">受注</text><rect fill="#F8F8F8" filter="url(#fo0wi8djapjgm)" height="35.0938" rx="12.5" ry="12.5" style="stroke: #383838; stroke-width: 1.5;" width="68" x="618" y="1484.6406"/><text fill="#000000" font-family="sans-serif" font-size="12" lengthAdjust="spacingAndGlyphs" textLength="48" x="628" y="1507.0977">商品準備</text><rect fill="#F8F8F8" filter="url(#fo0wi8djapjgm)" height="35.0938" rx="12.5" ry="12.5" style="stroke: #383838; stroke-width: 1.5;" width="44" x="633" y="1574.6406"/><text fill="#000000" font-family="sans-serif" font-size="12" lengthAdjust="spacingAndGlyphs" textLength="24" x="643" y="1597.0977">出荷</text><rect fill="#F8F8F8" filter="url(#fo0wi8djapjgm)" height="35.0938" rx="12.5" ry="12.5" style="stroke: #383838; stroke-width: 1.5;" width="193" x="826.5" y="1244.6406"/><text fill="#000000" font-family="sans-serif" font-size="12" lengthAdjust="spacingAndGlyphs" textLength="173" x="836.5" y="1267.0977">FAX用手配書 Excelファイル出力</text><rect fill="#F8F8F8" filter="url(#fo0wi8djapjgm)" height="35.0938" rx="12.5" ry="12.5" style="stroke: #383838; stroke-width: 1.5;" width="44" x="762" y="1244.6406"/><text fill="#000000" font-family="sans-serif" font-size="12" lengthAdjust="spacingAndGlyphs" textLength="24" x="772" y="1267.0977">印刷</text><rect fill="#F8F8F8" filter="url(#fo0wi8djapjgm)" height="35.0938" rx="12.5" ry="12.5" style="stroke: #383838; stroke-width: 1.5;" width="41" x="763.5" y="1364.6406"/><text fill="#000000" font-family="sans-serif" font-size="12" lengthAdjust="spacingAndGlyphs" textLength="21" x="773.5" y="1387.0977">FAX</text><rect fill="#F8F8F8" filter="url(#fo0wi8djapjgm)" height="35.0938" rx="12.5" ry="12.5" style="stroke: #383838; stroke-width: 1.5;" width="68" x="763" y="1484.6406"/><text fill="#000000" font-family="sans-serif" font-size="12" lengthAdjust="spacingAndGlyphs" textLength="48" x="773" y="1507.0977">引取依頼</text><rect fill="#F8F8F8" filter="url(#fo0wi8djapjgm)" height="35.0938" rx="12.5" ry="12.5" style="stroke: #383838; stroke-width: 1.5;" width="44" x="760" y="1574.6406"/><text fill="#000000" font-family="sans-serif" font-size="12" lengthAdjust="spacingAndGlyphs" textLength="24" x="770" y="1597.0977">引取</text><rect fill="#F8F8F8" filter="url(#fo0wi8djapjgm)" height="35.0938" rx="12.5" ry="12.5" style="stroke: #383838; stroke-width: 1.5;" width="44" x="806" y="1708.6406"/><text fill="#000000" font-family="sans-serif" font-size="12" lengthAdjust="spacingAndGlyphs" textLength="24" x="816" y="1731.0977">検品</text><rect fill="#F8F8F8" filter="url(#fo0wi8djapjgm)" height="35.0938" rx="12.5" ry="12.5" style="stroke: #383838; stroke-width: 1.5;" width="44" x="742" y="1708.6406"/><text fill="#000000" font-family="sans-serif" font-size="12" lengthAdjust="spacingAndGlyphs" textLength="24" x="752" y="1731.0977">荷受</text><rect fill="#F8F8F8" filter="url(#fo0wi8djapjgm)" height="35.0938" rx="12.5" ry="12.5" style="stroke: #383838; stroke-width: 1.5;" width="44" x="906" y="1708.6406"/><text fill="#000000" font-family="sans-serif" font-size="12" lengthAdjust="spacingAndGlyphs" textLength="24" x="916" y="1731.0977">格納</text><rect fill="#F8F8F8" filter="url(#fo0wi8djapjgm)" height="35.0938" rx="12.5" ry="12.5" style="stroke: #383838; stroke-width: 1.5;" width="203" x="89.5" y="30.6406"/><text fill="#000000" font-family="sans-serif" font-size="12" lengthAdjust="spacingAndGlyphs" textLength="183" x="99.5" y="53.0977">Amazon_棚なしピッキングシート</text><rect fill="#F8F8F8" filter="url(#fo0wi8djapjgm)" height="35.0938" rx="12.5" ry="12.5" style="stroke: #383838; stroke-width: 1.5;" width="183" x="312.5" y="30.6406"/><text fill="#000000" font-family="sans-serif" font-size="12" lengthAdjust="spacingAndGlyphs" textLength="163" x="322.5" y="53.0977">楽天_棚なしピッキングシート</text><rect fill="#F8F8F8" filter="url(#fo0wi8djapjgm)" height="35.0938" rx="12.5" ry="12.5" style="stroke: #383838; stroke-width: 1.5;" width="194" x="516" y="30.6406"/><text fill="#000000" font-family="sans-serif" font-size="12" lengthAdjust="spacingAndGlyphs" textLength="174" x="526" y="53.0977">Yahoo_棚なしピッキングシート</text><rect fill="#F8F8F8" filter="url(#fo0wi8djapjgm)" height="35.0938" rx="12.5" ry="12.5" style="stroke: #383838; stroke-width: 1.5;" width="172" x="730" y="30.6406"/><text fill="#000000" font-family="sans-serif" font-size="12" lengthAdjust="spacingAndGlyphs" textLength="152" x="740" y="53.0977">Amazon卸ピッキングシート</text><rect fill="#F8F8F8" filter="url(#fo0wi8djapjgm)" height="35.0938" rx="12.5" ry="12.5" style="stroke: #383838; stroke-width: 1.5;" width="83" x="159.5" y="700.6406"/><text fill="#000000" font-family="sans-serif" font-size="12" lengthAdjust="spacingAndGlyphs" textLength="63" x="169.5" y="723.0977">商品部 手配</text><polygon fill="#ECECEC" filter="url(#fo0wi8djapjgm)" points="604.5,362.6406,604.5,421.6953,859.5,421.6953,859.5,372.6406,849.5,362.6406,604.5,362.6406" style="stroke: #383838; stroke-width: 1.0;"/><polygon fill="#ECECEC" points="604.5,362.6406,604.5,388.1406,572.313,392.1406,604.5,396.1406,604.5,421.6953,859.5,421.6953,859.5,372.6406,849.5,362.6406,604.5,362.6406" style="stroke: #383838; stroke-width: 1.0;"/><line style="stroke: #383838; stroke-width: 1.0;" x1="849.5" x2="849.5" y1="362.6406" y2="372.6406"/><line style="stroke: #383838; stroke-width: 1.0;" x1="859.5" x2="849.5" y1="372.6406" y2="372.6406"/><text fill="#000000" font-family="sans-serif" font-size="13" lengthAdjust="spacingAndGlyphs" textLength="169" x="610.5" y="381.1357">商魂のロット数を参考に表示</text><text fill="#000000" font-family="sans-serif" font-size="13" lengthAdjust="spacingAndGlyphs" textLength="234" x="610.5" y="397.4873">廃番、手配済未入荷など発注保留を判定</text><text fill="#000000" font-family="sans-serif" font-size="13" lengthAdjust="spacingAndGlyphs" textLength="143" x="610.5" y="413.8389">手配数量を決定して入力</text><!--link データ読込 to 商品別 依頼数 集計--><path d="M508,187.7006 C508,205.8806 508,235.1306 508,255.2006 " fill="none" id="データ読込-商品別 依頼数 集計" style="stroke: #383838; stroke-width: 1.0;"/><polygon fill="#383838" points="508,260.3406,512,251.3406,508,255.3406,504,251.3406,508,260.3406" style="stroke: #383838; stroke-width: 1.0;"/><!--link 商品別 依頼数 集計 to 発注数量決定シート--><path d="M508,295.6706 C508,315.1906 508,347.7306 508,369.3106 " fill="none" id="商品別 依頼数 集計-発注数量決定シート" style="stroke: #383838; stroke-width: 1.0;"/><polygon fill="#383838" points="508,374.5506,512,365.5506,508,369.5506,504,365.5506,508,374.5506" style="stroke: #383838; stroke-width: 1.0;"/><!--link 発注数量決定シート to #8--><path d="M508,409.8606 C508,435.3806 508,483.7306 508,508.9406 " fill="none" id="発注数量決定シート-#8" style="stroke: #383838; stroke-width: 1.0;"/><polygon fill="#383838" points="508,513.9506,512,504.9506,508,508.9506,504,504.9506,508,513.9506" style="stroke: #383838; stroke-width: 1.0;"/><text fill="#000000" font-family="sans-serif" font-size="11" lengthAdjust="spacingAndGlyphs" textLength="66" x="426.7375" y="503.9188">手配不可事由</text><!--link #8 to 手配保留リスト--><path d="M509.032,537.2306 C510.422,550.8206 512.93,575.3406 514.762,593.2506 " fill="none" id="#8-手配保留リスト" style="stroke: #383838; stroke-width: 1.0;"/><polygon fill="#383838" points="515.307,598.5806,518.3602,589.217,514.7928,593.6071,510.4026,590.0397,515.307,598.5806" style="stroke: #383838; stroke-width: 1.0;"/><text fill="#000000" font-family="sans-serif" font-size="11" lengthAdjust="spacingAndGlyphs" textLength="22" x="515" y="576.0596">あり</text><!--link #8 to #13--><path d="M502.845,533.1906 C490.169,548.0606 457.369,586.5506 441.649,604.9906 " fill="none" id="#8-#13" style="stroke: #383838; stroke-width: 1.0;"/><polygon fill="#383838" points="438.392,608.8106,447.2738,604.5546,441.6349,605.0049,441.1846,599.366,438.392,608.8106" style="stroke: #383838; stroke-width: 1.0;"/><text fill="#000000" font-family="sans-serif" font-size="11" lengthAdjust="spacingAndGlyphs" textLength="53" x="363.7563" y="593.4822">6ケタ 登録</text><!--link #13 to 一括読込用ファイル--><path d="M436.558,624.9106 C440.547,633.3006 447.454,646.9006 455,657.6406 C464.72,671.4706 477.235,685.6506 487.663,696.7006 " fill="none" id="#13-一括読込用ファイル" style="stroke: #383838; stroke-width: 1.0;"/><polygon fill="#383838" points="491.113,700.3206,487.7899,691.0493,487.6597,696.7047,482.0044,696.5746,491.113,700.3206" style="stroke: #383838; stroke-width: 1.0;"/><text fill="#000000" font-family="sans-serif" font-size="11" lengthAdjust="spacingAndGlyphs" textLength="22" x="474" y="678.0596">あり</text><!--link #13 to 手入力用リスト--><path d="M428.807,624.0106 C419.874,638.6606 398.654,673.4506 384.829,696.1106 " fill="none" id="#13-手入力用リスト" style="stroke: #383838; stroke-width: 1.0;"/><polygon fill="#383838" points="382.168,700.4706,390.266,694.865,384.769,696.2004,383.4336,690.7034,382.168,700.4706" style="stroke: #383838; stroke-width: 1.0;"/><text fill="#000000" font-family="sans-serif" font-size="11" lengthAdjust="spacingAndGlyphs" textLength="22" x="404" y="678.0596">なし</text><!--link Amazon_棚なしピッキングシート to データ読込--><path d="M234.745,65.7006 C294.713,88.4006 401.919,128.9806 462.694,151.9906 " fill="none" id="Amazon_棚なしピッキングシート-データ読込" style="stroke: #383838; stroke-width: 1.0;"/><polygon fill="#383838" points="467.708,153.8906,460.7091,146.9613,463.0324,152.119,457.8746,154.4423,467.708,153.8906" style="stroke: #383838; stroke-width: 1.0;"/><text fill="#000000" font-family="sans-serif" font-size="11" lengthAdjust="spacingAndGlyphs" textLength="66" x="323" y="98.0596">ファイル読込</text><!--link 楽天_棚なしピッキングシート to データ読込--><path d="M418.461,65.8306 C437.244,87.5006 470.018,125.3206 490.277,148.6906 " fill="none" id="楽天_棚なしピッキングシート-データ読込" style="stroke: #383838; stroke-width: 1.0;"/><polygon fill="#383838" points="493.662,152.6006,490.7951,143.1783,490.3893,148.8205,484.747,148.4147,493.662,152.6006" style="stroke: #383838; stroke-width: 1.0;"/><text fill="#000000" font-family="sans-serif" font-size="11" lengthAdjust="spacingAndGlyphs" textLength="66" x="448" y="98.0596">ファイル読込</text><!--link Yahoo_棚なしピッキングシート to データ読込--><path d="M598.4,65.8306 C579.437,87.5006 546.347,125.3206 525.893,148.6906 " fill="none" id="Yahoo_棚なしピッキングシート-データ読込" style="stroke: #383838; stroke-width: 1.0;"/><polygon fill="#383838" points="522.476,152.6006,531.4175,148.4715,525.7728,148.8415,525.4028,143.1967,522.476,152.6006" style="stroke: #383838; stroke-width: 1.0;"/><text fill="#000000" font-family="sans-serif" font-size="11" lengthAdjust="spacingAndGlyphs" textLength="66" x="581" y="98.0596">ファイル読込</text><!--link Amazon卸ピッキングシート to データ読込--><path d="M773.497,65.7006 C715.552,88.2806 612.216,128.5406 553,151.6106 " fill="none" id="Amazon卸ピッキングシート-データ読込" style="stroke: #383838; stroke-width: 1.0;"/><polygon fill="#383838" points="548.112,153.5106,557.9501,153.9708,552.7709,151.6956,555.0461,146.5165,548.112,153.5106" style="stroke: #383838; stroke-width: 1.0;"/><text fill="#000000" font-family="sans-serif" font-size="11" lengthAdjust="spacingAndGlyphs" textLength="66" x="717" y="98.0596">ファイル読込</text><!--link 一括読込用ファイル to 発注システム読込--><path d="M569.14,735.7406 C594.359,744.8006 622.62,758.0606 644,776.6406 C673.257,802.0696 693.49,843.2916 703.883,868.4366 " fill="none" id="一括読込用ファイル-発注システム読込" style="stroke: #383838; stroke-width: 1.0;"/><polygon fill="#383838" points="705.83,873.2416,706.156,863.3982,703.9516,868.6079,698.7419,866.4035,705.83,873.2416" style="stroke: #383838; stroke-width: 1.0;"/><!--link 発注システム読込 to 発注データ作成--><path d="M700.495,908.6876 C688.359,924.8156 667.728,948.7386 644,961.6406 C572.249,1000.6556 477.284,1013.3106 417.406,1017.3496 " fill="none" id="発注システム読込-発注データ作成" style="stroke: #383838; stroke-width: 1.0;"/><polygon fill="#383838" points="412.081,1017.6916,421.3196,1021.1047,417.0707,1017.3701,420.8052,1013.1212,412.081,1017.6916" style="stroke: #383838; stroke-width: 1.0;"/><!--link 手入力用リスト to 発注システム手入力--><path d="M370.828,735.8506 C368.644,766.9606 363.958,833.7426 361.529,868.3496 " fill="none" id="手入力用リスト-発注システム手入力" style="stroke: #383838; stroke-width: 1.0;"/><polygon fill="#383838" points="361.16,873.6166,365.7803,864.9187,361.51,868.6289,357.7999,864.3587,361.16,873.6166" style="stroke: #383838; stroke-width: 1.0;"/><!--link 発注システム手入力 to 発注データ作成--><path d="M360,908.7436 C360,931.4666 360,972.2926 360,997.4216 " fill="none" id="発注システム手入力-発注データ作成" style="stroke: #383838; stroke-width: 1.0;"/><polygon fill="#383838" points="360,1002.5336,364,993.5336,360,997.5336,356,993.5336,360,1002.5336" style="stroke: #383838; stroke-width: 1.0;"/><!--link 定期発注データ読込 to 発注データ作成--><path d="M228.925,908.8976 C243.66,923.2746 265.771,944.3476 286,961.6406 C301.242,974.6706 318.96,988.4816 333.237,999.3026 " fill="none" id="定期発注データ読込-発注データ作成" style="stroke: #383838; stroke-width: 1.0;"/><polygon fill="#383838" points="337.551,1002.5596,332.781,993.9429,333.5615,999.5457,327.9587,1000.3262,337.551,1002.5596" style="stroke: #383838; stroke-width: 1.0;"/><!--link 発注データ作成 to 手配書起票--><path d="M402.344,1037.7026 C452.241,1057.2206 534.805,1089.5146 585.879,1109.4916 " fill="none" id="発注データ作成-手配書起票" style="stroke: #383838; stroke-width: 1.0;"/><polygon fill="#383838" points="590.721,1111.3856,583.7962,1104.3823,586.0645,1109.5644,580.8823,1111.8327,590.721,1111.3856" style="stroke: #383838; stroke-width: 1.0;"/><!--link 手配書起票 to 手配書テンプレート--><path d="M676.42,1128.1406 C681.228,1128.1406 686.035,1128.1406 690.843,1128.1406 " fill="none" id="手配書起票-手配書テンプレート" style="stroke: #383838; stroke-width: 1.0;"/><polygon fill="#383838" points="671.203,1128.1406,680.203,1132.1406,676.203,1128.1406,680.203,1124.1406,671.203,1128.1406" style="stroke: #383838; stroke-width: 1.0;"/><!--link 商品マスタ to 発注データ作成--><path d="M170.052,295.9206 C148.438,316.1006 117,352.1506 117,391.1406 C117,391.1406 117,391.1406 117,892.1406 C117,924.4086 114.731,939.2846 138,961.6406 C181.994,1003.9096 252.863,1016.1776 302.67,1019.2166 " fill="none" id="商品マスタ-発注データ作成" style="stroke: #383838; stroke-width: 1.0;"/><polygon fill="#383838" points="307.725,1019.4976,298.9619,1015.0023,302.7328,1019.219,298.5161,1022.9899,307.725,1019.4976" style="stroke: #383838; stroke-width: 1.0;"/><!--link 仕入先マスタ to 発注データ作成--><path d="M81.8214,295.8006 C79.1578,317.6506 75,357.2006 75,391.1406 C75,391.1406 75,391.1406 75,892.1406 C75,925.1206 77.4937,938.5086 101,961.6406 C129.076,989.2706 235.255,1005.6476 302.636,1013.4746 " fill="none" id="仕入先マスタ-発注データ作成" style="stroke: #383838; stroke-width: 1.0;"/><polygon fill="#383838" points="307.822,1014.0696,299.3351,1009.0723,302.8544,1013.5012,298.4256,1017.0205,307.822,1014.0696" style="stroke: #383838; stroke-width: 1.0;"/><!--link 商品マスタ to 在庫マスタ--><path d="M190,295.6706 C190,315.1906 190,347.7306 190,369.3106 " fill="none" id="商品マスタ-在庫マスタ" style="stroke: #383838; stroke-width: 1.0;"/><polygon fill="#383838" points="190,374.5506,194,365.5506,190,369.5506,186,365.5506,190,374.5506" style="stroke: #383838; stroke-width: 1.0;"/><!--link 在庫マスタ to 在庫監視--><path d="M190.823,414.8706 C191.819,441.1606 193.473,484.8306 194.372,508.5606 " fill="none" id="在庫マスタ-在庫監視" style="stroke: #383838; stroke-width: 1.0;"/><polygon fill="#383838" points="190.633,409.8606,186.9701,419.003,190.8187,414.8572,194.9646,418.7058,190.633,409.8606" style="stroke: #383838; stroke-width: 1.0;"/><text fill="#000000" font-family="sans-serif" font-size="11" lengthAdjust="spacingAndGlyphs" textLength="58" x="194" y="454.0596">在庫数 参照</text><!--link 在庫監視 to 起案--><path d="M195.376,543.6906 C195.695,557.7406 196.156,578.0006 196.505,593.3606 " fill="none" id="在庫監視-起案" style="stroke: #383838; stroke-width: 1.0;"/><polygon fill="#383838" points="196.619,598.3606,200.4123,589.2716,196.5047,593.3619,192.4144,589.4544,196.619,598.3606" style="stroke: #383838; stroke-width: 1.0;"/><!--link 起案 to 商品部 手配--><path d="M197.661,633.6506 C198.338,650.5906 199.395,677.0106 200.138,695.5906 " fill="none" id="起案-商品部 手配" style="stroke: #383838; stroke-width: 1.0;"/><polygon fill="#383838" points="200.339,700.6006,203.9758,691.4478,200.139,695.6046,195.9822,691.7678,200.339,700.6006" style="stroke: #383838; stroke-width: 1.0;"/><!--link 商品部 手配 to 定期発注データ読込--><path d="M202.075,735.8506 C204.076,766.9606 208.372,833.7426 210.598,868.3496 " fill="none" id="商品部 手配-定期発注データ読込" style="stroke: #383838; stroke-width: 1.0;"/><polygon fill="#383838" points="210.937,873.6166,214.35,864.3781,210.6155,868.627,206.3666,864.8924,210.937,873.6166" style="stroke: #383838; stroke-width: 1.0;"/><!--link 商品マスタ to 仕入先マスタ--><path d="M144.743,278.1406 C139.953,278.1406 135.164,278.1406 130.375,278.1406 " fill="none" id="商品マスタ-仕入先マスタ" style="stroke: #383838; stroke-width: 1.0;"/><polygon fill="#383838" points="149.939,278.1406,140.939,274.1406,144.939,278.1406,140.939,282.1406,149.939,278.1406" style="stroke: #383838; stroke-width: 1.0;"/><!--link 商品マスタ to 発注数量決定シート--><path d="M230.275,293.3206 C287.692,313.5506 393.097,350.6706 456.24,372.9106 " fill="none" id="商品マスタ-発注数量決定シート" style="stroke: #383838; stroke-width: 1.0;"/><polygon fill="#383838" points="461.087,374.6206,453.9283,367.8566,456.3713,372.9587,451.2692,375.4017,461.087,374.6206" style="stroke: #383838; stroke-width: 1.0;"/><text fill="#000000" font-family="sans-serif" font-size="11" lengthAdjust="spacingAndGlyphs" textLength="83" x="370" y="340.0596">6ケタ・ロット数</text><!--link 商品情報 to 発注数量決定シート--><path d="M639.277,295.6706 C611.525,315.8506 564.636,349.9506 535.051,371.4706 " fill="none" id="商品情報-発注数量決定シート" style="stroke: #383838; stroke-width: 1.0;"/><polygon fill="#383838" points="530.816,374.5506,540.4474,372.4924,534.8598,371.6099,535.7423,366.0223,530.816,374.5506" style="stroke: #383838; stroke-width: 1.0;"/><text fill="#000000" font-family="sans-serif" font-size="11" lengthAdjust="spacingAndGlyphs" textLength="66" x="596" y="340.0596">登なし仕入先</text><!--link 発注データ作成 to 入庫待ちデータ--><path d="M412.083,1021.1946 C552.936,1021.8696 938.861,1027.3556 1059,1066.6406 C1085.61,1075.3416 1112.17,1093.2336 1130.41,1107.3146 " fill="none" id="発注データ作成-入庫待ちデータ" style="stroke: #383838; stroke-width: 1.0;"/><polygon fill="#383838" points="1134.4,1110.4376,1129.7627,1101.7488,1130.4572,1107.3629,1124.8431,1108.0573,1134.4,1110.4376" style="stroke: #383838; stroke-width: 1.0;"/><!--link 手配書起票 to FAX手配書ファイル出力--><path d="M631,1145.8586 C631,1169.6626 631,1213.3366 631,1239.5576 " fill="none" id="手配書起票-FAX手配書ファイル出力" style="stroke: #383838; stroke-width: 1.0;"/><polygon fill="#383838" points="631,1244.5586,635,1235.5586,631,1239.5586,627,1235.5586,631,1244.5586" style="stroke: #383838; stroke-width: 1.0;"/><text fill="#000000" font-family="sans-serif" font-size="11" lengthAdjust="spacingAndGlyphs" textLength="58" x="632" y="1190.0596">HC定番のみ</text><!--link FAX手配書ファイル出力 to 受注--><path d="M633.964,1279.7966 C637.685,1300.7046 644.075,1336.6076 648.164,1359.5886 " fill="none" id="FAX手配書ファイル出力-受注" style="stroke: #383838; stroke-width: 1.0;"/><polygon fill="#383838" points="649.051,1364.5686,651.4129,1355.0072,648.1753,1359.6459,643.5366,1356.4083,649.051,1364.5686" style="stroke: #383838; stroke-width: 1.0;"/><!--link 受注 to 商品準備--><path d="M652,1399.7966 C652,1420.6166 652,1456.3056 652,1479.2986 " fill="none" id="受注-商品準備" style="stroke: #383838; stroke-width: 1.0;"/><polygon fill="#383838" points="652,1484.5686,656,1475.5686,652,1479.5686,648,1475.5686,652,1484.5686" style="stroke: #383838; stroke-width: 1.0;"/><!--link 商品準備 to 出荷--><path d="M651.654,1519.8466 C651.531,1529.9276 651.524,1543.0276 652,1554.6406 C652.195,1559.3996 652.533,1564.4986 652.913,1569.3306 " fill="none" id="商品準備-出荷" style="stroke: #383838; stroke-width: 1.0;"/><polygon fill="#383838" points="653.338,1574.4416,656.5785,1565.1411,652.9237,1569.4588,648.606,1565.804,653.338,1574.4416" style="stroke: #383838; stroke-width: 1.0;"/><!--link 手配書起票 to FAX用手配書 Excelファイル出力--><path d="M647.686,1145.9076 C656.818,1154.1946 668.748,1163.6726 681,1169.6406 C736.345,1196.5986 758.608,1178.3696 816,1200.6406 C843.861,1211.4516 873.259,1228.5386 894.175,1241.8006 " fill="none" id="手配書起票-FAX用手配書 Excelファイル出力" style="stroke: #383838; stroke-width: 1.0;"/><polygon fill="#383838" points="898.506,1244.5686,893.0771,1236.3511,894.2931,1241.8757,888.7685,1243.0918,898.506,1244.5686" style="stroke: #383838; stroke-width: 1.0;"/><!--link 印刷 to FAX用手配書 Excelファイル出力--><path d="M811.278,1262.1406 C816.294,1262.1406 821.31,1262.1406 826.326,1262.1406 " fill="none" id="印刷-FAX用手配書 Excelファイル出力" style="stroke: #383838; stroke-width: 1.0;"/><polygon fill="#383838" points="806.262,1262.1406,815.262,1266.1406,811.262,1262.1406,815.262,1258.1406,806.262,1262.1406" style="stroke: #383838; stroke-width: 1.0;"/><!--link 印刷 to FAX--><path d="M784,1279.7966 C784,1300.6166 784,1336.3056 784,1359.2986 " fill="none" id="印刷-FAX" style="stroke: #383838; stroke-width: 1.0;"/><polygon fill="#383838" points="784,1364.5686,788,1355.5686,784,1359.5686,780,1355.5686,784,1364.5686" style="stroke: #383838; stroke-width: 1.0;"/><!--link 受注 to FAX--><path d="M679.401,1382.1406 C707.403,1382.1406 735.405,1382.1406 763.407,1382.1406 " fill="none" id="受注-FAX" style="stroke: #383838; stroke-width: 1.0;"/><polygon fill="#383838" points="674.172,1382.1406,683.172,1386.1406,679.172,1382.1406,683.172,1378.1406,674.172,1382.1406" style="stroke: #383838; stroke-width: 1.0;"/><!--link FAX to 引取依頼--><path d="M785.835,1399.7966 C788.138,1420.7046 792.094,1456.6076 794.626,1479.5886 " fill="none" id="FAX-引取依頼" style="stroke: #383838; stroke-width: 1.0;"/><polygon fill="#383838" points="795.174,1484.5686,798.1651,1475.185,794.6269,1479.5987,790.2132,1476.0604,795.174,1484.5686" style="stroke: #383838; stroke-width: 1.0;"/><!--link 引取依頼 to 引取--><path d="M797.116,1519.9746 C796.915,1530.1006 796.175,1543.2026 794,1554.6406 C793.085,1559.4526 791.707,1564.5076 790.208,1569.2706 " fill="none" id="引取依頼-引取" style="stroke: #383838; stroke-width: 1.0;"/><polygon fill="#383838" points="788.549,1574.2976,795.1681,1567.0046,790.116,1569.5495,787.5711,1564.4974,788.549,1574.2976" style="stroke: #383838; stroke-width: 1.0;"/><!--link 商品準備 to 引取--><path d="M666.277,1524.0456 C674.11,1534.3116 684.548,1546.2456 696,1554.6406 C715.491,1568.9286 741.427,1578.9496 759.702,1584.8296 " fill="none" id="商品準備-引取" style="stroke: #383838; stroke-width: 1.0;"/><polygon fill="#383838" points="663.085,1519.7636,665.2576,1529.3699,666.0736,1523.7722,671.6713,1524.5882,663.085,1519.7636" style="stroke: #383838; stroke-width: 1.0;"/><text fill="#000000" font-family="sans-serif" font-size="11" lengthAdjust="spacingAndGlyphs" textLength="91" x="697" y="1552.0596">市内メーカー 引取</text><!--link 商品準備 to 引取--><path d="M657.212,1520.0626 C661.45,1531.2626 668.474,1545.5146 679,1554.6406 C700.589,1573.3576 732.426,1582.6846 754.98,1587.1916 " fill="none" id="商品準備-引取" style="stroke: #383838; stroke-width: 1.0;"/><polygon fill="#383838" points="759.93,1588.1336,751.8358,1582.5226,755.018,1587.1995,750.3412,1590.3818,759.93,1588.1336" style="stroke: #383838; stroke-width: 1.0;"/><!--link 引取 to 検品--><path d="M787.826,1609.8586 C796.121,1633.6626 811.341,1677.3369 820.479,1703.558 " fill="none" id="引取-検品" style="stroke: #383838; stroke-width: 1.0;"/><polygon fill="#383838" points="822.221,1708.5585,823.0364,1698.7435,820.5755,1703.837,815.482,1701.3762,822.221,1708.5585" style="stroke: #383838; stroke-width: 1.0;"/><!--link 出荷 to 荷受--><path d="M668.805,1609.8586 C688.707,1633.9596 725.43,1678.4319 746.983,1704.533 " fill="none" id="出荷-荷受" style="stroke: #383838; stroke-width: 1.0;"/><polygon fill="#383838" points="750.307,1708.5585,747.661,1699.0718,747.1234,1704.703,741.4922,1704.1654,750.307,1708.5585" style="stroke: #383838; stroke-width: 1.0;"/><text fill="#000000" font-family="sans-serif" font-size="11" lengthAdjust="spacingAndGlyphs" textLength="66" x="707" y="1654.0596">配達・運送便</text><!--link 荷受 to 検品--><path d="M786.5,1726.1406 C791.262,1726.1406 796.024,1726.1406 800.786,1726.1406 " fill="none" id="荷受-検品" style="stroke: #383838; stroke-width: 1.0;"/><polygon fill="#383838" points="805.953,1726.1406,796.953,1722.1406,800.953,1726.1406,796.953,1730.1406,805.953,1726.1406" style="stroke: #383838; stroke-width: 1.0;"/><!--link 入庫待ちデータ to 検品--><path d="M1141.55,1150.5246 C1127.93,1175.9946 1108,1220.2456 1108,1261.1406 C1108,1261.1406 1108,1261.1406 1108,1593.1406 C1108,1693.8416 979.614,1613.2726 893,1664.6406 C873.243,1676.358 854.465,1694.9306 842.219,1708.4091 " fill="none" id="入庫待ちデータ-検品" style="stroke: #383838; stroke-width: 1.0;"/><polygon fill="#383838" points="1144.02,1145.9926,1136.2108,1151.9939,1141.6345,1150.3869,1143.2416,1155.8107,1144.02,1145.9926" style="stroke: #383838; stroke-width: 1.0;"/><!--link 検品 to 格納--><path d="M850.266,1735.2273 C867.052,1740.1156 883.838,1740.566 900.624,1736.5784 " fill="none" id="検品-格納" style="stroke: #383838; stroke-width: 1.0;"/><polygon fill="#383838" points="905.834,1735.1984,896.1099,1733.6358,901.0006,1736.4784,898.1579,1741.3692,905.834,1735.1984" style="stroke: #383838; stroke-width: 1.0;"/><!--
@startuml build_purchase_data

title 手配フロー

skinparam monochrome true

partition 手配データ作成excel {
    "データ読込" - -> "商品別 依頼数 集計"

    "商品別 依頼数 集計" - -> "発注数量決定シート"

    if "手配不可事由"
            - -> [あり]"手配保留リスト"
    else
            if "6ケタ 登録"
                - -> [あり] "一括読込用ファイル"
            else
                - -> [なし] "手入力用リスト"
        end if 
    end if
    
}

"Amazon_棚なしピッキングシート" - -> [ファイル読込]"データ読込"
"楽天_棚なしピッキングシート" - -> [ファイル読込]"データ読込"
"Yahoo_棚なしピッキングシート" - -> [ファイル読込]"データ読込"
"Amazon卸ピッキングシート"- -> [ファイル読込]"データ読込"

Partition "発注システム" {

    "一括読込用ファイル" -down-> "発注システム読込"
    note right
        必要項目
            倉庫番号 180/187
            6ケタ
            数量
            配達・引取区分
            担当者コード
        ※ 他に必要なデータは発注システムが
        商品マスタ・仕入先マスタから引っ張る
    end note

    "発注システム読込" -down-> "発注データ作成"
        
    "手入力用リスト" - -> "発注システム手入力"
    note right
            手入力で発注システムへ入力
                仕入先
                商品名
                JAN
                数量
                原価
    end note


    "発注システム手入力" - -> "発注データ作成"

    "定期発注データ読込" - -> "発注データ作成"

    "発注データ作成" - -> "手配書起票"
    "手配書テンプレート" -left-> "手配書起票"

}

partition 商魂 {

    "商品マスタ" - -> "発注データ作成"
    "仕入先マスタ" - -> "発注データ作成"
    商品マスタ - -> 在庫マスタ
}


Partition "起案サブシステム" {
    "在庫監視" -up-> [在庫数 参照] "在庫マスタ" 
    "在庫監視" - ->  "起案"
}

    "起案" - -> "商品部 手配"
    - -> 定期発注データ読込

"仕入先マスタ" -left-> "商品マスタ"
- -> [6ケタ・ロット数]"発注数量決定シート"

note Left
     商魂のロット数を参考に表示
     廃番、手配済未入荷など発注保留を判定
     手配数量を決定して入力
end note

partition 発注用商品情報ブック {
    
    "商品情報" -down-> [登なし仕入先]"発注数量決定シート" 
}

Partition "入庫データベース" {
    発注データ作成 - -> 入庫待ちデータ
}

Partition "Faxサーバ" {

    "手配書起票" - -> [HC定番のみ]"FAX手配書ファイル出力"
}

Partition "仕入先 企業" {

    "FAX手配書ファイル出力" - ->  "受注"
    '"手配書起票" - -> [EDIでデータ発注]"受注"'
    - -> 商品準備
    - -> 出荷
}

Partition "第三倉庫" {
    手配書起票 - -> FAX用手配書 Excelファイル出力
    -left-> 印刷
    -down-> FAX
    -left-> 受注
}

Partition "管理部" {
    FAX - -> 引取依頼
    - -> 引取
    -left-> [市内メーカー 引取]商品準備
    -right-> 引取
    引取 - -> 検品
    出荷 - -> [配達・運送便]荷受
}

-> 検品
検品 -up-> 入庫待ちデータ

Partition "物流部" {

    検品 -> 格納

}

@enduml

PlantUML version 1.2017.15(Tue Jul 04 01:45:34 JST 2017)
(GPL source distribution)
Java Runtime: Java(TM) SE Runtime Environment
JVM: Java HotSpot(TM) Client VM
Java Version: 1.8.0_121-b13
Operating System: Windows 7
OS Version: 6.1
Default Encoding: MS932
Language: ja
Country: JP
--></g></svg>