<?xml version="1.0" encoding="UTF-8" standalone="no"?><svg xmlns="http://www.w3.org/2000/svg" xmlns:xlink="http://www.w3.org/1999/xlink" contentScriptType="application/ecmascript" contentStyleType="text/css" height="1518px" preserveAspectRatio="none" style="width:1257px;height:1518px;" version="1.1" viewBox="0 0 1257 1518" width="1257px" zoomAndPan="magnify"><defs><filter height="300%" id="f1u6o5pqq5mvwh" width="300%" x="-1" y="-1"><feGaussianBlur result="blurOut" stdDeviation="2.0"/><feColorMatrix in="blurOut" result="blurOut2" type="matrix" values="0 0 0 0 0 0 0 0 0 0 0 0 0 0 0 0 0 0 .4 0"/><feOffset dx="4.0" dy="4.0" in="blurOut2" result="blurOut3"/><feBlend in="SourceGraphic" in2="blurOut3" mode="normal"/></filter></defs><g><text fill="#000000" font-family="sans-serif" font-size="18" lengthAdjust="spacingAndGlyphs" textLength="180" x="544.5" y="18.6855">手配データ作成フロー</text><!--cluster 手配データ作成excel--><polygon fill="#FFFFFF" filter="url(#f1u6o5pqq5mvwh)" points="515,116.6406,664,116.6406,671,140.25,799,140.25,799,711.6406,515,711.6406,515,116.6406" style="stroke: #000000; stroke-width: 2.0;"/><line style="stroke: #000000; stroke-width: 2.0;" x1="515" x2="671" y1="140.25" y2="140.25"/><text fill="#000000" font-family="sans-serif" font-size="14" font-weight="bold" lengthAdjust="spacingAndGlyphs" textLength="143" x="519" y="133.1738">手配データ作成excel</text><!--cluster 新 発注システム--><polygon fill="#FFFFFF" filter="url(#f1u6o5pqq5mvwh)" points="141,744.6406,256,744.6406,263,768.25,1075,768.25,1075,1056.6406,141,1056.6406,141,744.6406" style="stroke: #000000; stroke-width: 2.0;"/><line style="stroke: #000000; stroke-width: 2.0;" x1="141" x2="263" y1="768.25" y2="768.25"/><text fill="#000000" font-family="sans-serif" font-size="14" font-weight="bold" lengthAdjust="spacingAndGlyphs" textLength="109" x="145" y="761.1738">新 発注システム</text><!--cluster 起案サブシステム--><polygon fill="#FFFFFF" filter="url(#f1u6o5pqq5mvwh)" points="169,624.6406,295,624.6406,302,648.25,305,648.25,305,711.6406,169,711.6406,169,624.6406" style="stroke: #000000; stroke-width: 2.0;"/><line style="stroke: #000000; stroke-width: 2.0;" x1="169" x2="302" y1="648.25" y2="648.25"/><text fill="#000000" font-family="sans-serif" font-size="14" font-weight="bold" lengthAdjust="spacingAndGlyphs" textLength="120" x="173" y="641.1738">起案サブシステム</text><!--cluster 商魂--><polygon fill="#FFFFFF" filter="url(#f1u6o5pqq5mvwh)" points="22,300.6406,58,300.6406,65,324.25,246,324.25,246,387.6406,22,387.6406,22,300.6406" style="stroke: #000000; stroke-width: 2.0;"/><line style="stroke: #000000; stroke-width: 2.0;" x1="22" x2="65" y1="324.25" y2="324.25"/><text fill="#000000" font-family="sans-serif" font-size="14" font-weight="bold" lengthAdjust="spacingAndGlyphs" textLength="30" x="26" y="317.1738">商魂</text><!--cluster 発注用商品情報ブック--><polygon fill="#FFFFFF" filter="url(#f1u6o5pqq5mvwh)" points="825,300.6406,981,300.6406,988,324.25,991,324.25,991,387.6406,825,387.6406,825,300.6406" style="stroke: #000000; stroke-width: 2.0;"/><line style="stroke: #000000; stroke-width: 2.0;" x1="825" x2="988" y1="324.25" y2="324.25"/><text fill="#000000" font-family="sans-serif" font-size="14" font-weight="bold" lengthAdjust="spacingAndGlyphs" textLength="150" x="829" y="317.1738">発注用商品情報ブック</text><!--cluster 入庫データベース--><polygon fill="#FFFFFF" filter="url(#f1u6o5pqq5mvwh)" points="1099,781.1406,1225,781.1406,1232,804.75,1235,804.75,1235,868.1406,1099,868.1406,1099,781.1406" style="stroke: #000000; stroke-width: 2.0;"/><line style="stroke: #000000; stroke-width: 2.0;" x1="1099" x2="1232" y1="804.75" y2="804.75"/><text fill="#000000" font-family="sans-serif" font-size="14" font-weight="bold" lengthAdjust="spacingAndGlyphs" textLength="120" x="1103" y="797.6738">入庫データベース</text><!--cluster Faxサーバ--><polygon fill="#FFFFFF" filter="url(#f1u6o5pqq5mvwh)" points="520,1103.6406,596,1103.6406,603,1127.25,702,1127.25,702,1190.6406,520,1190.6406,520,1103.6406" style="stroke: #000000; stroke-width: 2.0;"/><line style="stroke: #000000; stroke-width: 2.0;" x1="520" x2="603" y1="1127.25" y2="1127.25"/><text fill="#000000" font-family="sans-serif" font-size="14" font-weight="bold" lengthAdjust="spacingAndGlyphs" textLength="70" x="524" y="1120.1738">Faxサーバ</text><!--cluster 仕入先 企業--><polygon fill="#FFFFFF" filter="url(#f1u6o5pqq5mvwh)" points="602,1223.6406,687,1223.6406,694,1247.25,702,1247.25,702,1506.6406,602,1506.6406,602,1223.6406" style="stroke: #000000; stroke-width: 2.0;"/><line style="stroke: #000000; stroke-width: 2.0;" x1="602" x2="694" y1="1247.25" y2="1247.25"/><text fill="#000000" font-family="sans-serif" font-size="14" font-weight="bold" lengthAdjust="spacingAndGlyphs" textLength="79" x="606" y="1240.1738">仕入先 企業</text><!--cluster 第三倉庫--><polygon fill="#FFFFFF" filter="url(#f1u6o5pqq5mvwh)" points="726,1103.6406,792,1103.6406,799,1127.25,952,1127.25,952,1310.6406,726,1310.6406,726,1103.6406" style="stroke: #000000; stroke-width: 2.0;"/><line style="stroke: #000000; stroke-width: 2.0;" x1="726" x2="799" y1="1127.25" y2="1127.25"/><text fill="#000000" font-family="sans-serif" font-size="14" font-weight="bold" lengthAdjust="spacingAndGlyphs" textLength="60" x="730" y="1120.1738">第三倉庫</text><!--cluster 管理部--><polygon fill="#FFFFFF" filter="url(#f1u6o5pqq5mvwh)" points="976,1223.6406,1027,1223.6406,1034,1247.25,1116,1247.25,1116,1506.6406,976,1506.6406,976,1223.6406" style="stroke: #000000; stroke-width: 2.0;"/><line style="stroke: #000000; stroke-width: 2.0;" x1="976" x2="1034" y1="1247.25" y2="1247.25"/><text fill="#000000" font-family="sans-serif" font-size="14" font-weight="bold" lengthAdjust="spacingAndGlyphs" textLength="45" x="980" y="1240.1738">管理部</text><!--cluster 物流部--><polygon fill="#FFFFFF" filter="url(#f1u6o5pqq5mvwh)" points="1140,1419.6406,1191,1419.6406,1198,1443.25,1216,1443.25,1216,1506.6406,1140,1506.6406,1140,1419.6406" style="stroke: #000000; stroke-width: 2.0;"/><line style="stroke: #000000; stroke-width: 2.0;" x1="1140" x2="1198" y1="1443.25" y2="1443.25"/><text fill="#000000" font-family="sans-serif" font-size="14" font-weight="bold" lengthAdjust="spacingAndGlyphs" textLength="45" x="1144" y="1436.1738">物流部</text><rect fill="#F8F8F8" filter="url(#f1u6o5pqq5mvwh)" height="35.0938" rx="12.5" ry="12.5" style="stroke: #383838; stroke-width: 1.5;" width="80" x="650" y="152.6406"/><text fill="#000000" font-family="sans-serif" font-size="12" lengthAdjust="spacingAndGlyphs" textLength="60" x="660" y="175.0977">データ読込</text><rect fill="#F8F8F8" filter="url(#f1u6o5pqq5mvwh)" height="35.0938" rx="12.5" ry="12.5" style="stroke: #383838; stroke-width: 1.5;" width="122" x="629" y="228.6406"/><text fill="#000000" font-family="sans-serif" font-size="12" lengthAdjust="spacingAndGlyphs" textLength="102" x="639" y="251.0977">商品別 依頼数 集計</text><rect fill="#F8F8F8" filter="url(#f1u6o5pqq5mvwh)" height="35.0938" rx="12.5" ry="12.5" style="stroke: #383838; stroke-width: 1.5;" width="128" x="626" y="336.6406"/><text fill="#000000" font-family="sans-serif" font-size="12" lengthAdjust="spacingAndGlyphs" textLength="108" x="636" y="359.0977">発注数量決定シート</text><polygon fill="#F8F8F8" filter="url(#f1u6o5pqq5mvwh)" points="690,442.1406,702,454.1406,690,466.1406,678,454.1406,690,442.1406" style="stroke: #383838; stroke-width: 1.5;"/><rect fill="#F8F8F8" filter="url(#f1u6o5pqq5mvwh)" height="35.0938" rx="12.5" ry="12.5" style="stroke: #383838; stroke-width: 1.5;" width="104" x="578" y="538.6406"/><text fill="#000000" font-family="sans-serif" font-size="12" lengthAdjust="spacingAndGlyphs" textLength="84" x="588" y="561.0977">手配保留リスト</text><polygon fill="#F8F8F8" filter="url(#f1u6o5pqq5mvwh)" points="714,544.1406,726,556.1406,714,568.1406,702,556.1406,714,544.1406" style="stroke: #383838; stroke-width: 1.5;"/><rect fill="#F8F8F8" filter="url(#f1u6o5pqq5mvwh)" height="35.0938" rx="12.5" ry="12.5" style="stroke: #383838; stroke-width: 1.5;" width="128" x="655" y="660.6406"/><text fill="#000000" font-family="sans-serif" font-size="12" lengthAdjust="spacingAndGlyphs" textLength="108" x="665" y="683.0977">一括読込用ファイル</text><rect fill="#F8F8F8" filter="url(#f1u6o5pqq5mvwh)" height="35.0938" rx="12.5" ry="12.5" style="stroke: #383838; stroke-width: 1.5;" width="104" x="531" y="660.6406"/><text fill="#000000" font-family="sans-serif" font-size="12" lengthAdjust="spacingAndGlyphs" textLength="84" x="541" y="683.0977">手入力用リスト</text><rect fill="#F8F8F8" filter="url(#f1u6o5pqq5mvwh)" height="35.0938" rx="12.5" ry="12.5" style="stroke: #383838; stroke-width: 1.5;" width="116" x="667" y="817.1406"/><text fill="#000000" font-family="sans-serif" font-size="12" lengthAdjust="spacingAndGlyphs" textLength="96" x="677" y="839.5977">発注システム読込</text><polygon fill="#ECECEC" filter="url(#f1u6o5pqq5mvwh)" points="803.5,780.6406,803.5,888.75,1058.5,888.75,1058.5,790.6406,1048.5,780.6406,803.5,780.6406" style="stroke: #383838; stroke-width: 1.0;"/><polygon fill="#ECECEC" points="803.5,780.6406,803.5,830.6406,783.34,834.6406,803.5,838.6406,803.5,888.75,1058.5,888.75,1058.5,790.6406,1048.5,780.6406,803.5,780.6406" style="stroke: #383838; stroke-width: 1.0;"/><line style="stroke: #383838; stroke-width: 1.0;" x1="1048.5" x2="1048.5" y1="780.6406" y2="790.6406"/><line style="stroke: #383838; stroke-width: 1.0;" x1="1058.5" x2="1048.5" y1="790.6406" y2="790.6406"/><text fill="#000000" font-family="sans-serif" font-size="13" lengthAdjust="spacingAndGlyphs" textLength="52" x="809.5" y="799.1357">必要項目</text><text fill="#000000" font-family="sans-serif" font-size="13" lengthAdjust="spacingAndGlyphs" textLength="102" x="825.5" y="815.4873">倉庫番号 180/187</text><text fill="#000000" font-family="sans-serif" font-size="13" lengthAdjust="spacingAndGlyphs" textLength="33" x="825.5" y="831.8389">6ケタ</text><text fill="#000000" font-family="sans-serif" font-size="13" lengthAdjust="spacingAndGlyphs" textLength="26" x="825.5" y="848.1904">数量</text><text fill="#000000" font-family="sans-serif" font-size="13" lengthAdjust="spacingAndGlyphs" textLength="225" x="809.5" y="864.542">※ 他に必要なデータは発注システムが</text><text fill="#000000" font-family="sans-serif" font-size="13" lengthAdjust="spacingAndGlyphs" textLength="234" x="809.5" y="880.8936">商品マスタ・仕入先マスタから引っ張る</text><rect fill="#F8F8F8" filter="url(#f1u6o5pqq5mvwh)" height="35.0938" rx="12.5" ry="12.5" style="stroke: #383838; stroke-width: 1.5;" width="104" x="531" y="929.6406"/><text fill="#000000" font-family="sans-serif" font-size="12" lengthAdjust="spacingAndGlyphs" textLength="84" x="541" y="952.0977">発注データ作成</text><rect fill="#F8F8F8" filter="url(#f1u6o5pqq5mvwh)" height="35.0938" rx="12.5" ry="12.5" style="stroke: #383838; stroke-width: 1.5;" width="128" x="519" y="817.1406"/><text fill="#000000" font-family="sans-serif" font-size="12" lengthAdjust="spacingAndGlyphs" textLength="108" x="529" y="839.5977">発注システム手入力</text><polygon fill="#ECECEC" filter="url(#f1u6o5pqq5mvwh)" points="309,780.6406,309,888.75,499,888.75,499,790.6406,489,780.6406,309,780.6406" style="stroke: #383838; stroke-width: 1.0;"/><polygon fill="#ECECEC" points="309,780.6406,309,888.75,499,888.75,499,838.6406,518.759,834.6406,499,830.6406,499,790.6406,489,780.6406,309,780.6406" style="stroke: #383838; stroke-width: 1.0;"/><line style="stroke: #383838; stroke-width: 1.0;" x1="489" x2="489" y1="780.6406" y2="790.6406"/><line style="stroke: #383838; stroke-width: 1.0;" x1="499" x2="489" y1="790.6406" y2="790.6406"/><text fill="#000000" font-family="sans-serif" font-size="13" lengthAdjust="spacingAndGlyphs" textLength="169" x="315" y="799.1357">手入力で発注システムへ入力</text><text fill="#000000" font-family="sans-serif" font-size="13" lengthAdjust="spacingAndGlyphs" textLength="39" x="331" y="815.4873">仕入先</text><text fill="#000000" font-family="sans-serif" font-size="13" lengthAdjust="spacingAndGlyphs" textLength="39" x="331" y="831.8389">商品名</text><text fill="#000000" font-family="sans-serif" font-size="13" lengthAdjust="spacingAndGlyphs" textLength="24" x="331" y="848.1904">JAN</text><text fill="#000000" font-family="sans-serif" font-size="13" lengthAdjust="spacingAndGlyphs" textLength="26" x="331" y="864.542">数量</text><text fill="#000000" font-family="sans-serif" font-size="13" lengthAdjust="spacingAndGlyphs" textLength="26" x="331" y="880.8936">原価</text><rect fill="#F8F8F8" filter="url(#f1u6o5pqq5mvwh)" height="35.0938" rx="12.5" ry="12.5" style="stroke: #383838; stroke-width: 1.5;" width="131" x="157.5" y="817.1406"/><text fill="#000000" font-family="sans-serif" font-size="12" lengthAdjust="spacingAndGlyphs" textLength="111" x="167.5" y="839.5977">定期発注 データ読込</text><rect fill="#F8F8F8" filter="url(#f1u6o5pqq5mvwh)" height="35.0938" rx="12.5" ry="12.5" style="stroke: #383838; stroke-width: 1.5;" width="80" x="571" y="1005.6406"/><text fill="#000000" font-family="sans-serif" font-size="12" lengthAdjust="spacingAndGlyphs" textLength="60" x="581" y="1028.0977">手配書起票</text><rect fill="#F8F8F8" filter="url(#f1u6o5pqq5mvwh)" height="35.0938" rx="12.5" ry="12.5" style="stroke: #383838; stroke-width: 1.5;" width="128" x="671" y="1005.6406"/><text fill="#000000" font-family="sans-serif" font-size="12" lengthAdjust="spacingAndGlyphs" textLength="108" x="681" y="1028.0977">手配書テンプレート</text><rect fill="#F8F8F8" filter="url(#f1u6o5pqq5mvwh)" height="35.0938" rx="12.5" ry="12.5" style="stroke: #383838; stroke-width: 1.5;" width="44" x="201" y="660.6406"/><text fill="#000000" font-family="sans-serif" font-size="12" lengthAdjust="spacingAndGlyphs" textLength="24" x="211" y="683.0977">起案</text><rect fill="#F8F8F8" filter="url(#f1u6o5pqq5mvwh)" height="35.0938" rx="12.5" ry="12.5" style="stroke: #383838; stroke-width: 1.5;" width="80" x="150" y="336.6406"/><text fill="#000000" font-family="sans-serif" font-size="12" lengthAdjust="spacingAndGlyphs" textLength="60" x="160" y="359.0977">商品マスタ</text><rect fill="#F8F8F8" filter="url(#f1u6o5pqq5mvwh)" height="35.0938" rx="12.5" ry="12.5" style="stroke: #383838; stroke-width: 1.5;" width="92" x="38" y="336.6406"/><text fill="#000000" font-family="sans-serif" font-size="12" lengthAdjust="spacingAndGlyphs" textLength="72" x="48" y="359.0977">仕入先マスタ</text><rect fill="#F8F8F8" filter="url(#f1u6o5pqq5mvwh)" height="35.0938" rx="12.5" ry="12.5" style="stroke: #383838; stroke-width: 1.5;" width="68" x="842" y="336.6406"/><text fill="#000000" font-family="sans-serif" font-size="12" lengthAdjust="spacingAndGlyphs" textLength="48" x="852" y="359.0977">商品情報</text><rect fill="#F8F8F8" filter="url(#f1u6o5pqq5mvwh)" height="35.0938" rx="12.5" ry="12.5" style="stroke: #383838; stroke-width: 1.5;" width="104" x="1115" y="817.1406"/><text fill="#000000" font-family="sans-serif" font-size="12" lengthAdjust="spacingAndGlyphs" textLength="84" x="1125" y="839.5977">入庫待ちデータ</text><rect fill="#F8F8F8" filter="url(#f1u6o5pqq5mvwh)" height="35.0938" rx="12.5" ry="12.5" style="stroke: #383838; stroke-width: 1.5;" width="149" x="536.5" y="1139.6406"/><text fill="#000000" font-family="sans-serif" font-size="12" lengthAdjust="spacingAndGlyphs" textLength="129" x="546.5" y="1162.0977">FAX手配書ファイル出力</text><rect fill="#F8F8F8" filter="url(#f1u6o5pqq5mvwh)" height="35.0938" rx="12.5" ry="12.5" style="stroke: #383838; stroke-width: 1.5;" width="44" x="630" y="1259.6406"/><text fill="#000000" font-family="sans-serif" font-size="12" lengthAdjust="spacingAndGlyphs" textLength="24" x="640" y="1282.0977">受注</text><rect fill="#F8F8F8" filter="url(#f1u6o5pqq5mvwh)" height="35.0938" rx="12.5" ry="12.5" style="stroke: #383838; stroke-width: 1.5;" width="68" x="618" y="1347.6406"/><text fill="#000000" font-family="sans-serif" font-size="12" lengthAdjust="spacingAndGlyphs" textLength="48" x="628" y="1370.0977">商品準備</text><rect fill="#F8F8F8" filter="url(#f1u6o5pqq5mvwh)" height="35.0938" rx="12.5" ry="12.5" style="stroke: #383838; stroke-width: 1.5;" width="44" x="639" y="1455.6406"/><text fill="#000000" font-family="sans-serif" font-size="12" lengthAdjust="spacingAndGlyphs" textLength="24" x="649" y="1478.0977">出荷</text><rect fill="#F8F8F8" filter="url(#f1u6o5pqq5mvwh)" height="35.0938" rx="12.5" ry="12.5" style="stroke: #383838; stroke-width: 1.5;" width="193" x="742.5" y="1139.6406"/><text fill="#000000" font-family="sans-serif" font-size="12" lengthAdjust="spacingAndGlyphs" textLength="173" x="752.5" y="1162.0977">FAX用手配書 Excelファイル出力</text><rect fill="#F8F8F8" filter="url(#f1u6o5pqq5mvwh)" height="35.0938" rx="12.5" ry="12.5" style="stroke: #383838; stroke-width: 1.5;" width="44" x="817" y="1259.6406"/><text fill="#000000" font-family="sans-serif" font-size="12" lengthAdjust="spacingAndGlyphs" textLength="24" x="827" y="1282.0977">印刷</text><rect fill="#F8F8F8" filter="url(#f1u6o5pqq5mvwh)" height="35.0938" rx="12.5" ry="12.5" style="stroke: #383838; stroke-width: 1.5;" width="41" x="749.5" y="1259.6406"/><text fill="#000000" font-family="sans-serif" font-size="12" lengthAdjust="spacingAndGlyphs" textLength="21" x="759.5" y="1282.0977">FAX</text><rect fill="#F8F8F8" filter="url(#f1u6o5pqq5mvwh)" height="35.0938" rx="12.5" ry="12.5" style="stroke: #383838; stroke-width: 1.5;" width="80" x="992" y="1259.6406"/><text fill="#000000" font-family="sans-serif" font-size="12" lengthAdjust="spacingAndGlyphs" textLength="60" x="1002" y="1282.0977">手配書提出</text><rect fill="#F8F8F8" filter="url(#f1u6o5pqq5mvwh)" height="35.0938" rx="12.5" ry="12.5" style="stroke: #383838; stroke-width: 1.5;" width="44" x="997" y="1347.6406"/><text fill="#000000" font-family="sans-serif" font-size="12" lengthAdjust="spacingAndGlyphs" textLength="24" x="1007" y="1370.0977">引取</text><rect fill="#F8F8F8" filter="url(#f1u6o5pqq5mvwh)" height="35.0938" rx="12.5" ry="12.5" style="stroke: #383838; stroke-width: 1.5;" width="44" x="1056" y="1455.6406"/><text fill="#000000" font-family="sans-serif" font-size="12" lengthAdjust="spacingAndGlyphs" textLength="24" x="1066" y="1478.0977">検品</text><rect fill="#F8F8F8" filter="url(#f1u6o5pqq5mvwh)" height="35.0938" rx="12.5" ry="12.5" style="stroke: #383838; stroke-width: 1.5;" width="44" x="992" y="1455.6406"/><text fill="#000000" font-family="sans-serif" font-size="12" lengthAdjust="spacingAndGlyphs" textLength="24" x="1002" y="1478.0977">荷受</text><rect fill="#F8F8F8" filter="url(#f1u6o5pqq5mvwh)" height="35.0938" rx="12.5" ry="12.5" style="stroke: #383838; stroke-width: 1.5;" width="44" x="1156" y="1455.6406"/><text fill="#000000" font-family="sans-serif" font-size="12" lengthAdjust="spacingAndGlyphs" textLength="24" x="1166" y="1478.0977">格納</text><rect fill="#F8F8F8" filter="url(#f1u6o5pqq5mvwh)" height="35.0938" rx="12.5" ry="12.5" style="stroke: #383838; stroke-width: 1.5;" width="203" x="271.5" y="30.6406"/><text fill="#000000" font-family="sans-serif" font-size="12" lengthAdjust="spacingAndGlyphs" textLength="183" x="281.5" y="53.0977">Amazon_棚なしピッキングシート</text><rect fill="#F8F8F8" filter="url(#f1u6o5pqq5mvwh)" height="35.0938" rx="12.5" ry="12.5" style="stroke: #383838; stroke-width: 1.5;" width="183" x="494.5" y="30.6406"/><text fill="#000000" font-family="sans-serif" font-size="12" lengthAdjust="spacingAndGlyphs" textLength="163" x="504.5" y="53.0977">楽天_棚なしピッキングシート</text><rect fill="#F8F8F8" filter="url(#f1u6o5pqq5mvwh)" height="35.0938" rx="12.5" ry="12.5" style="stroke: #383838; stroke-width: 1.5;" width="194" x="698" y="30.6406"/><text fill="#000000" font-family="sans-serif" font-size="12" lengthAdjust="spacingAndGlyphs" textLength="174" x="708" y="53.0977">Yahoo_棚なしピッキングシート</text><rect fill="#F8F8F8" filter="url(#f1u6o5pqq5mvwh)" height="35.0938" rx="12.5" ry="12.5" style="stroke: #383838; stroke-width: 1.5;" width="172" x="912" y="30.6406"/><text fill="#000000" font-family="sans-serif" font-size="12" lengthAdjust="spacingAndGlyphs" textLength="152" x="922" y="53.0977">Amazon卸ピッキングシート</text><rect fill="#F8F8F8" filter="url(#f1u6o5pqq5mvwh)" height="35.0938" rx="12.5" ry="12.5" style="stroke: #383838; stroke-width: 1.5;" width="80" x="186" y="538.6406"/><text fill="#000000" font-family="sans-serif" font-size="12" lengthAdjust="spacingAndGlyphs" textLength="60" x="196" y="561.0977">在庫マスタ</text><polygon fill="#ECECEC" filter="url(#f1u6o5pqq5mvwh)" points="815,424.6406,815,483.6953,1005,483.6953,1005,434.6406,995,424.6406,815,424.6406" style="stroke: #383838; stroke-width: 1.0;"/><polygon fill="#ECECEC" points="815,424.6406,815,483.6953,1005,483.6953,1005,434.6406,995,424.6406,849.72,424.6406,727.32,371.7606,841.72,424.6406,815,424.6406" style="stroke: #383838; stroke-width: 1.0;"/><line style="stroke: #383838; stroke-width: 1.0;" x1="995" x2="995" y1="424.6406" y2="434.6406"/><line style="stroke: #383838; stroke-width: 1.0;" x1="1005" x2="995" y1="434.6406" y2="434.6406"/><text fill="#000000" font-family="sans-serif" font-size="13" lengthAdjust="spacingAndGlyphs" textLength="169" x="821" y="443.1357">商魂のロット数を参考に表示</text><text fill="#000000" font-family="sans-serif" font-size="13" lengthAdjust="spacingAndGlyphs" textLength="130" x="821" y="459.4873">発注保留かどうか判定</text><text fill="#000000" font-family="sans-serif" font-size="13" lengthAdjust="spacingAndGlyphs" textLength="143" x="821" y="475.8389">手配数量を決定して入力</text><!--link データ読込 to 商品別 依頼数 集計--><path d="M690,187.9306 C690,198.4306 690,212.0706 690,223.3906 " fill="none" id="データ読込-商品別 依頼数 集計" style="stroke: #383838; stroke-width: 1.0;"/><polygon fill="#383838" points="690,228.4106,694,219.4106,690,223.4106,686,219.4106,690,228.4106" style="stroke: #383838; stroke-width: 1.0;"/><!--link 商品別 依頼数 集計 to 発注数量決定シート--><path d="M690,263.7006 C690,281.8806 690,311.1306 690,331.2006 " fill="none" id="商品別 依頼数 集計-発注数量決定シート" style="stroke: #383838; stroke-width: 1.0;"/><polygon fill="#383838" points="690,336.3406,694,327.3406,690,331.3406,686,327.3406,690,336.3406" style="stroke: #383838; stroke-width: 1.0;"/><!--link 発注数量決定シート to #8--><path d="M690,371.7606 C690,389.8806 690,418.6706 690,436.7106 " fill="none" id="発注数量決定シート-#8" style="stroke: #383838; stroke-width: 1.0;"/><polygon fill="#383838" points="690,441.9406,694,432.9406,690,436.9406,686,432.9406,690,441.9406" style="stroke: #383838; stroke-width: 1.0;"/><text fill="#000000" font-family="sans-serif" font-size="11" lengthAdjust="spacingAndGlyphs" textLength="66" x="608.7375" y="431.9041">手配不可事由</text><!--link #8 to 手配保留リスト--><path d="M685.685,462.3306 C676.767,477.1906 656.014,511.7806 642.516,534.2816 " fill="none" id="#8-手配保留リスト" style="stroke: #383838; stroke-width: 1.0;"/><polygon fill="#383838" points="639.918,538.6106,647.9776,532.95,642.4898,534.3228,641.1171,528.835,639.918,538.6106" style="stroke: #383838; stroke-width: 1.0;"/><text fill="#000000" font-family="sans-serif" font-size="11" lengthAdjust="spacingAndGlyphs" textLength="22" x="661" y="516.0596">あり</text><!--link #8 to #13--><path d="M692.13,464.0106 C696.318,481.4606 705.652,520.3606 710.665,541.2446 " fill="none" id="#8-#13" style="stroke: #383838; stroke-width: 1.0;"/><polygon fill="#383838" points="711.84,546.1426,713.6284,536.4575,710.6728,541.2808,705.8495,538.3251,711.84,546.1426" style="stroke: #383838; stroke-width: 1.0;"/><text fill="#000000" font-family="sans-serif" font-size="11" lengthAdjust="spacingAndGlyphs" textLength="53" x="727.9653" y="533.9085">6ケタ 登録</text><!--link #13 to 一括読込用ファイル--><path d="M714.444,567.7896 C715.256,587.2826 716.997,629.0726 718.076,654.9736 " fill="none" id="#13-一括読込用ファイル" style="stroke: #383838; stroke-width: 1.0;"/><polygon fill="#383838" points="718.296,660.2456,721.9171,651.0866,718.0874,655.25,713.9241,651.4203,718.296,660.2456" style="stroke: #383838; stroke-width: 1.0;"/><text fill="#000000" font-family="sans-serif" font-size="11" lengthAdjust="spacingAndGlyphs" textLength="22" x="718" y="606.0596">あり</text><!--link #13 to 手入力用リスト--><path d="M707.798,562.2696 C695.578,572.4226 667.612,595.8946 645,616.6406 C630.739,629.7246 615.149,644.9426 603.169,656.8426 " fill="none" id="#13-手入力用リスト" style="stroke: #383838; stroke-width: 1.0;"/><polygon fill="#383838" points="599.573,660.4226,608.7732,656.9075,603.1164,656.895,603.1289,651.2381,599.573,660.4226" style="stroke: #383838; stroke-width: 1.0;"/><text fill="#000000" font-family="sans-serif" font-size="11" lengthAdjust="spacingAndGlyphs" textLength="22" x="671" y="606.0596">なし</text><!--link Amazon_棚なしピッキングシート to データ読込--><path d="M416.745,65.7006 C476.713,88.4006 583.919,128.9806 644.694,151.9906 " fill="none" id="Amazon_棚なしピッキングシート-データ読込" style="stroke: #383838; stroke-width: 1.0;"/><polygon fill="#383838" points="649.708,153.8906,642.7091,146.9613,645.0324,152.119,639.8746,154.4423,649.708,153.8906" style="stroke: #383838; stroke-width: 1.0;"/><text fill="#000000" font-family="sans-serif" font-size="11" lengthAdjust="spacingAndGlyphs" textLength="66" x="505" y="98.0596">ファイル読込</text><!--link 楽天_棚なしピッキングシート to データ読込--><path d="M600.461,65.8306 C619.244,87.5006 652.018,125.3206 672.277,148.6906 " fill="none" id="楽天_棚なしピッキングシート-データ読込" style="stroke: #383838; stroke-width: 1.0;"/><polygon fill="#383838" points="675.662,152.6006,672.7951,143.1783,672.3893,148.8205,666.747,148.4147,675.662,152.6006" style="stroke: #383838; stroke-width: 1.0;"/><text fill="#000000" font-family="sans-serif" font-size="11" lengthAdjust="spacingAndGlyphs" textLength="66" x="630" y="98.0596">ファイル読込</text><!--link Yahoo_棚なしピッキングシート to データ読込--><path d="M780.4,65.8306 C761.437,87.5006 728.347,125.3206 707.893,148.6906 " fill="none" id="Yahoo_棚なしピッキングシート-データ読込" style="stroke: #383838; stroke-width: 1.0;"/><polygon fill="#383838" points="704.476,152.6006,713.4175,148.4715,707.7728,148.8415,707.4028,143.1967,704.476,152.6006" style="stroke: #383838; stroke-width: 1.0;"/><text fill="#000000" font-family="sans-serif" font-size="11" lengthAdjust="spacingAndGlyphs" textLength="66" x="763" y="98.0596">ファイル読込</text><!--link Amazon卸ピッキングシート to データ読込--><path d="M955.497,65.7006 C897.552,88.2806 794.216,128.5406 735,151.6106 " fill="none" id="Amazon卸ピッキングシート-データ読込" style="stroke: #383838; stroke-width: 1.0;"/><polygon fill="#383838" points="730.112,153.5106,739.9501,153.9708,734.7709,151.6956,737.0461,146.5165,730.112,153.5106" style="stroke: #383838; stroke-width: 1.0;"/><text fill="#000000" font-family="sans-serif" font-size="11" lengthAdjust="spacingAndGlyphs" textLength="66" x="900" y="98.0596">ファイル読込</text><!--link 一括読込用ファイル to 発注システム読込--><path d="M719.642,695.6746 C720.728,723.6386 722.928,780.2756 724.144,811.5876 " fill="none" id="一括読込用ファイル-発注システム読込" style="stroke: #383838; stroke-width: 1.0;"/><polygon fill="#383838" points="724.344,816.7566,727.9912,807.608,724.1497,811.7604,719.9973,807.9189,724.344,816.7566" style="stroke: #383838; stroke-width: 1.0;"/><!--link 発注システム読込 to 発注データ作成--><path d="M703.568,852.3576 C690.184,862.7946 672.592,876.5066 657,888.6406 C640.942,901.1366 622.913,915.1466 608.671,926.2086 " fill="none" id="発注システム読込-発注データ作成" style="stroke: #383838; stroke-width: 1.0;"/><polygon fill="#383838" points="604.379,929.5416,613.9408,927.1812,608.3282,926.4751,609.0344,920.8625,604.379,929.5416" style="stroke: #383838; stroke-width: 1.0;"/><!--link 手入力用リスト to 発注システム手入力--><path d="M583,695.6746 C583,723.6386 583,780.2756 583,811.5876 " fill="none" id="手入力用リスト-発注システム手入力" style="stroke: #383838; stroke-width: 1.0;"/><polygon fill="#383838" points="583,816.7566,587,807.7566,583,811.7566,579,807.7566,583,816.7566" style="stroke: #383838; stroke-width: 1.0;"/><!--link 発注システム手入力 to 発注データ作成--><path d="M583,852.4236 C583,871.6806 583,903.3166 583,924.4336 " fill="none" id="発注システム手入力-発注データ作成" style="stroke: #383838; stroke-width: 1.0;"/><polygon fill="#383838" points="583,929.5626,587,920.5626,583,924.5626,579,920.5626,583,929.5626" style="stroke: #383838; stroke-width: 1.0;"/><!--link 定期発注 データ読込 to 発注データ作成--><path d="M241.99,852.2136 C256.616,864.1136 277.852,879.5906 299,888.6406 C373.524,920.5326 466.751,935.0576 525.609,941.4436 " fill="none" id="定期発注 データ読込-発注データ作成" style="stroke: #383838; stroke-width: 1.0;"/><polygon fill="#383838" points="530.843,941.9996,522.3162,937.0708,525.871,941.4711,521.4706,945.026,530.843,941.9996" style="stroke: #383838; stroke-width: 1.0;"/><!--link 発注データ作成 to 手配書起票--><path d="M589.354,964.9326 C593.363,975.5286 598.58,989.3156 602.887,1000.6996 " fill="none" id="発注データ作成-手配書起票" style="stroke: #383838; stroke-width: 1.0;"/><polygon fill="#383838" points="604.672,1005.4156,605.2276,995.5825,602.9023,1000.7393,597.7455,998.414,604.672,1005.4156" style="stroke: #383838; stroke-width: 1.0;"/><!--link 手配書起票 to 手配書テンプレート--><path d="M656.42,1023.1406 C661.228,1023.1406 666.035,1023.1406 670.843,1023.1406 " fill="none" id="手配書起票-手配書テンプレート" style="stroke: #383838; stroke-width: 1.0;"/><polygon fill="#383838" points="651.203,1023.1406,660.203,1027.1406,656.203,1023.1406,660.203,1019.1406,651.203,1023.1406" style="stroke: #383838; stroke-width: 1.0;"/><!--link 起案 to 定期発注 データ読込--><path d="M223,695.6746 C223,723.6386 223,780.2756 223,811.5876 " fill="none" id="起案-定期発注 データ読込" style="stroke: #383838; stroke-width: 1.0;"/><polygon fill="#383838" points="223,816.7566,227,807.7566,223,811.7566,219,807.7566,223,816.7566" style="stroke: #383838; stroke-width: 1.0;"/><!--link 在庫マスタ to 起案--><path d="M191.935,577.2956 C186.705,581.9706 182.041,587.4296 179,593.6406 C167.545,617.0406 187.292,643.5846 203.902,660.3396 " fill="none" id="在庫マスタ-起案" style="stroke: #383838; stroke-width: 1.0;"/><polygon fill="#383838" points="196.027,573.8746,186.5562,576.5773,192.1906,577.0812,191.6867,582.7155,196.027,573.8746" style="stroke: #383838; stroke-width: 1.0;"/><text fill="#000000" font-family="sans-serif" font-size="11" lengthAdjust="spacingAndGlyphs" textLength="58" x="180" y="606.0596">在庫数 参照</text><!--link 在庫マスタ to 起案--><path d="M233.883,573.8486 C236.357,579.9376 238.764,586.9676 240,593.6406 C243.906,614.7326 237.934,638.7196 232.02,655.5556 " fill="none" id="在庫マスタ-起案" style="stroke: #383838; stroke-width: 1.0;"/><polygon fill="#383838" points="230.197,660.5396,237.0447,653.4608,231.9142,655.8438,229.5313,650.7133,230.197,660.5396" style="stroke: #383838; stroke-width: 1.0;"/><!--link 商品マスタ to 発注データ作成--><path d="M170.45,371.7606 C151.629,389.7206 126,420.2206 126,453.1406 C126,453.1406 126,453.1406 126,835.6406 C126,860.9776 127.02,873.0596 147,888.6406 C204.801,933.7166 421.168,943.5226 525.726,945.6076 " fill="none" id="商品マスタ-発注データ作成" style="stroke: #383838; stroke-width: 1.0;"/><polygon fill="#383838" points="530.925,945.7066,522.0032,941.5351,525.9259,945.6109,521.8501,949.5336,530.925,945.7066" style="stroke: #383838; stroke-width: 1.0;"/><!--link 仕入先マスタ to 発注データ作成--><path d="M84,371.7906 C84,391.2806 84,424.5606 84,453.1406 C84,453.1406 84,453.1406 84,835.6406 C84,861.8776 89.8293,871.8616 110,888.6406 C136.612,910.7776 150.958,903.3676 185,909.6406 C305.023,931.7576 447.997,940.7136 525.728,944.1526 " fill="none" id="仕入先マスタ-発注データ作成" style="stroke: #383838; stroke-width: 1.0;"/><polygon fill="#383838" points="530.752,944.3706,521.9342,939.9836,525.7567,944.1535,521.5868,947.976,530.752,944.3706" style="stroke: #383838; stroke-width: 1.0;"/><!--link 仕入先マスタ to 商品マスタ--><path d="M130.375,354.1406 C135.164,354.1406 139.953,354.1406 144.743,354.1406 " fill="none" id="仕入先マスタ-商品マスタ" style="stroke: #383838; stroke-width: 1.0;"/><polygon fill="#383838" points="149.939,354.1406,140.939,350.1406,144.939,354.1406,140.939,358.1406,149.939,354.1406" style="stroke: #383838; stroke-width: 1.0;"/><!--link 商品マスタ to 発注数量決定シート--><path d="M230.072,354.1406 C315.074,354.1406 514.344,354.1406 620.526,354.1406 " fill="none" id="商品マスタ-発注数量決定シート" style="stroke: #383838; stroke-width: 1.0;"/><polygon fill="#383838" points="625.823,354.1406,616.823,350.1406,620.823,354.1406,616.823,358.1406,625.823,354.1406" style="stroke: #383838; stroke-width: 1.0;"/><text fill="#000000" font-family="sans-serif" font-size="11" lengthAdjust="spacingAndGlyphs" textLength="83" x="386.5" y="348.5596">6ケタ・ロット数</text><!--link 発注数量決定シート to 商品情報--><path d="M759.243,354.1406 C787.475,354.1406 818.838,354.1406 841.944,354.1406 " fill="none" id="発注数量決定シート-商品情報" style="stroke: #383838; stroke-width: 1.0;"/><polygon fill="#383838" points="754.011,354.1406,763.011,358.1406,759.011,354.1406,763.011,350.1406,754.011,354.1406" style="stroke: #383838; stroke-width: 1.0;"/><text fill="#000000" font-family="sans-serif" font-size="11" lengthAdjust="spacingAndGlyphs" textLength="66" x="765" y="348.5596">登なし仕入先</text><!--link 入庫待ちデータ to 発注データ作成--><path d="M1138.73,855.2986 C1120.51,866.9566 1095.85,880.9216 1072,888.6406 C918.696,938.2506 726.03,945.9776 635.088,946.6026 " fill="none" id="入庫待ちデータ-発注データ作成" style="stroke: #383838; stroke-width: 1.0;"/><polygon fill="#383838" points="1143.22,852.3896,1133.4907,853.9196,1139.0219,855.1055,1137.8361,860.6366,1143.22,852.3896" style="stroke: #383838; stroke-width: 1.0;"/><!--link 手配書起票 to FAX手配書ファイル出力--><path d="M611,1040.8586 C611,1064.6626 611,1108.3366 611,1134.5576 " fill="none" id="手配書起票-FAX手配書ファイル出力" style="stroke: #383838; stroke-width: 1.0;"/><polygon fill="#383838" points="611,1139.5586,615,1130.5586,611,1134.5586,607,1130.5586,611,1139.5586" style="stroke: #383838; stroke-width: 1.0;"/><text fill="#000000" font-family="sans-serif" font-size="11" lengthAdjust="spacingAndGlyphs" textLength="58" x="612" y="1085.0596">HC定番のみ</text><!--link FAX手配書ファイル出力 to 受注--><path d="M616.787,1174.7966 C624.052,1195.7046 636.527,1231.6076 644.512,1254.5886 " fill="none" id="FAX手配書ファイル出力-受注" style="stroke: #383838; stroke-width: 1.0;"/><polygon fill="#383838" points="646.242,1259.5686,647.0657,1249.7543,644.6006,1254.8457,639.5091,1252.3806,646.242,1259.5686" style="stroke: #383838; stroke-width: 1.0;"/><!--link 受注 to 商品準備--><path d="M652,1294.7226 C652,1308.2856 652,1327.5736 652,1342.3776 " fill="none" id="受注-商品準備" style="stroke: #383838; stroke-width: 1.0;"/><polygon fill="#383838" points="652,1347.6096,656,1338.6096,652,1342.6096,648,1338.6096,652,1347.6096" style="stroke: #383838; stroke-width: 1.0;"/><!--link 商品準備 to 出荷--><path d="M653.406,1382.7026 C654.949,1400.8766 657.433,1430.1281 659.137,1450.1984 " fill="none" id="商品準備-出荷" style="stroke: #383838; stroke-width: 1.0;"/><polygon fill="#383838" points="659.574,1455.3446,662.7981,1446.0384,659.1509,1450.3626,654.8268,1446.7154,659.574,1455.3446" style="stroke: #383838; stroke-width: 1.0;"/><!--link 手配書起票 to FAX用手配書 Excelファイル出力--><path d="M629.766,1040.8796 C638.862,1048.5836 650.145,1057.5626 661,1064.6406 C664.267,1066.7706 750.541,1110.9376 801.758,1137.1166 " fill="none" id="手配書起票-FAX用手配書 Excelファイル出力" style="stroke: #383838; stroke-width: 1.0;"/><polygon fill="#383838" points="806.296,1139.4366,800.1023,1131.7791,801.8437,1137.1612,796.4616,1138.9027,806.296,1139.4366" style="stroke: #383838; stroke-width: 1.0;"/><!--link FAX用手配書 Excelファイル出力 to 印刷--><path d="M839,1174.7966 C839,1195.6166 839,1231.3056 839,1254.2986 " fill="none" id="FAX用手配書 Excelファイル出力-印刷" style="stroke: #383838; stroke-width: 1.0;"/><polygon fill="#383838" points="839,1259.5686,843,1250.5686,839,1254.5686,835,1250.5686,839,1259.5686" style="stroke: #383838; stroke-width: 1.0;"/><!--link FAX to 印刷--><path d="M796.037,1277.1406 C802.945,1277.1406 809.853,1277.1406 816.762,1277.1406 " fill="none" id="FAX-印刷" style="stroke: #383838; stroke-width: 1.0;"/><polygon fill="#383838" points="790.754,1277.1406,799.754,1281.1406,795.754,1277.1406,799.754,1273.1406,790.754,1277.1406" style="stroke: #383838; stroke-width: 1.0;"/><!--link FAX to 受注--><path d="M749.402,1277.1406 C726.074,1277.1406 702.746,1277.1406 679.418,1277.1406 " fill="none" id="FAX-受注" style="stroke: #383838; stroke-width: 1.0;"/><polygon fill="#383838" points="674.125,1277.1406,683.125,1281.1406,679.125,1277.1406,683.125,1273.1406,674.125,1277.1406" style="stroke: #383838; stroke-width: 1.0;"/><!--link 手配書提出 to 印刷--><path d="M986.46,1277.1406 C946.985,1277.1406 891.557,1277.1406 861.14,1277.1406 " fill="none" id="手配書提出-印刷" style="stroke: #383838; stroke-width: 1.0;"/><polygon fill="#383838" points="991.677,1277.1406,982.677,1273.1406,986.677,1277.1406,982.677,1281.1406,991.677,1277.1406" style="stroke: #383838; stroke-width: 1.0;"/><text fill="#000000" font-family="sans-serif" font-size="11" lengthAdjust="spacingAndGlyphs" textLength="99" x="877" y="1271.5596">本日引取分の手配書</text><!--link 手配書提出 to 引取--><path d="M1029.49,1294.7226 C1027.44,1308.2856 1024.53,1327.5736 1022.29,1342.3776 " fill="none" id="手配書提出-引取" style="stroke: #383838; stroke-width: 1.0;"/><polygon fill="#383838" points="1021.5,1347.6096,1026.8002,1339.3085,1022.2473,1342.6658,1018.8901,1338.1129,1021.5,1347.6096" style="stroke: #383838; stroke-width: 1.0;"/><!--link 引取 to 商品準備--><path d="M996.987,1365.1406 C936.773,1365.1406 768.707,1365.1406 691.589,1365.1406 " fill="none" id="引取-商品準備" style="stroke: #383838; stroke-width: 1.0;"/><polygon fill="#383838" points="686.197,1365.1406,695.197,1369.1406,691.197,1365.1406,695.197,1361.1406,686.197,1365.1406" style="stroke: #383838; stroke-width: 1.0;"/><text fill="#000000" font-family="sans-serif" font-size="11" lengthAdjust="spacingAndGlyphs" textLength="91" x="796" y="1359.5596">市内メーカー 引取</text><!--link 商品準備 to 引取--><path d="M686.225,1366.0936 C714.077,1366.8186 754.407,1367.7566 789.667,1368.1406 C835.738,1368.6426 847.263,1368.6906 893.333,1368.1406 C927.152,1367.7366 966.079,1366.7226 991.536,1365.9846 " fill="none" id="商品準備-引取" style="stroke: #383838; stroke-width: 1.0;"/><polygon fill="#383838" points="996.757,1365.8316,987.6442,1362.0956,991.7591,1365.9774,987.8774,1370.0922,996.757,1365.8316" style="stroke: #383838; stroke-width: 1.0;"/><!--link 引取 to 検品--><path d="M1029.2,1382.8806 C1034.34,1391.4276 1040.61,1402.0266 1046,1411.6406 C1053.29,1424.633 1061.11,1439.4084 1067.2,1451.1051 " fill="none" id="引取-検品" style="stroke: #383838; stroke-width: 1.0;"/><polygon fill="#383838" points="1069.52,1455.589,1068.9157,1445.7587,1067.2128,1451.1532,1061.8183,1449.4503,1069.52,1455.589" style="stroke: #383838; stroke-width: 1.0;"/><!--link 出荷 to 荷受--><path d="M683.082,1473.1406 C744.866,1473.1406 919.374,1473.1406 986.873,1473.1406 " fill="none" id="出荷-荷受" style="stroke: #383838; stroke-width: 1.0;"/><polygon fill="#383838" points="991.927,1473.1406,982.927,1469.1406,986.927,1473.1406,982.927,1477.1406,991.927,1473.1406" style="stroke: #383838; stroke-width: 1.0;"/><text fill="#000000" font-family="sans-serif" font-size="11" lengthAdjust="spacingAndGlyphs" textLength="66" x="804.5" y="1467.5596">配達・運送便</text><!--link 荷受 to 検品--><path d="M1036.5,1473.1406 C1041.26,1473.1406 1046.02,1473.1406 1050.79,1473.1406 " fill="none" id="荷受-検品" style="stroke: #383838; stroke-width: 1.0;"/><polygon fill="#383838" points="1055.95,1473.1406,1046.95,1469.1406,1050.95,1473.1406,1046.95,1477.1406,1055.95,1473.1406" style="stroke: #383838; stroke-width: 1.0;"/><!--link 入庫待ちデータ to 検品--><path d="M1149.41,856.3866 C1133.32,877.5316 1112,911.9876 1112,946.1406 C1112,946.1406 1112,946.1406 1112,1366.1406 C1112,1398.9956 1097.01,1434.9586 1086.93,1455.4137 " fill="none" id="入庫待ちデータ-検品" style="stroke: #383838; stroke-width: 1.0;"/><polygon fill="#383838" points="1152.55,852.3396,1143.876,857.0045,1149.4878,856.2922,1150.2001,861.904,1152.55,852.3396" style="stroke: #383838; stroke-width: 1.0;"/><!--link 検品 to 格納--><path d="M1100.27,1482.2273 C1117.05,1487.1156 1133.84,1487.566 1150.62,1483.5784 " fill="none" id="検品-格納" style="stroke: #383838; stroke-width: 1.0;"/><polygon fill="#383838" points="1155.83,1482.1984,1146.1042,1480.6465,1150.998,1483.4838,1148.1608,1488.3776,1155.83,1482.1984" style="stroke: #383838; stroke-width: 1.0;"/><!--
@startuml 手配データ作成フロー

title 手配データ作成フロー
skinparam monochrome true

partition 手配データ作成excel {
    "データ読込" - -> "商品別 依頼数 集計"

    "商品別 依頼数 集計" - -> "発注数量決定シート"

    if "手配不可事由"
            - -> [あり]"手配保留リスト"
    else
            if "6ケタ 登録"
                - -> [あり] "一括読込用ファイル"
            else
                - -> [なし] "手入力用リスト"
        end if 
    end if
    
}

"Amazon_棚なしピッキングシート" - -> [ファイル読込]"データ読込"
"楽天_棚なしピッキングシート" - -> [ファイル読込]"データ読込"
"Yahoo_棚なしピッキングシート" - -> [ファイル読込]"データ読込"
"Amazon卸ピッキングシート"- -> [ファイル読込]"データ読込"

Partition "新 発注システム" {

    "一括読込用ファイル" -down-> "発注システム読込"
    note right
        必要項目
            倉庫番号 180/187
            6ケタ
            数量
        ※ 他に必要なデータは発注システムが
        商品マスタ・仕入先マスタから引っ張る
    end note

    "発注システム読込" -down-> "発注データ作成"
        
    "手入力用リスト" - -> "発注システム手入力"
    note left
            手入力で発注システムへ入力
                仕入先
                商品名
                JAN
                数量
                原価
    end note


    "発注システム手入力" - -> "発注データ作成"

    "定期発注 データ読込" - -> "発注データ作成"

    "発注データ作成" - -> "手配書起票"
    "手配書テンプレート" -left-> "手配書起票"

}

Partition "起案サブシステム" {
    "起案" - -> "定期発注 データ読込"
}

"起案" -up-> [在庫数 参照] "在庫マスタ"
"在庫マスタ" - -> "起案"

partition 商魂 {

    "商品マスタ" - -> "発注データ作成"
    "仕入先マスタ" - -> "発注データ作成"

}

"仕入先マスタ" -right-> "商品マスタ"
-right-> [6ケタ・ロット数]"発注数量決定シート"

note bottom
     商魂のロット数を参考に表示
     発注保留かどうか判定
     手配数量を決定して入力
end note

partition 発注用商品情報ブック {
    
    "商品情報" -left-> [登なし仕入先]"発注数量決定シート" 

}

Partition "入庫データベース" {
    発注データ作成 -up-> 入庫待ちデータ
}

Partition "Faxサーバ" {

    "手配書起票" - -> [HC定番のみ]"FAX手配書ファイル出力"
}

Partition "仕入先 企業" {

    "FAX手配書ファイル出力" - ->  "受注"
    '"手配書起票" - -> [EDIでデータ発注]"受注"'
    - -> 商品準備
    - -> 出荷
}

Partition "第三倉庫" {
    手配書起票 - -> FAX用手配書 Excelファイル出力
    - -> 印刷
    -left-> FAX
    - -> 受注
}




Partition "管理部" {
    印刷 -left-> [本日引取分の手配書]手配書提出
    - -> 引取
    - -> [市内メーカー 引取]商品準備
    - -> 引取
    引取 - -> 検品
    出荷 - -> [配達・運送便]荷受
}


-> 検品
検品 -up-> 入庫待ちデータ

Partition "物流部" {

    検品 -> 格納

}

@enduml

PlantUML version 1.2017.15beta3(Unknown compile time)
(GPL source distribution)
Java Runtime: Java(TM) SE Runtime Environment
JVM: Java HotSpot(TM) Client VM
Java Version: 1.8.0_121-b13
Operating System: Windows 7
OS Version: 6.1
Default Encoding: MS932
Language: ja
Country: JP
--></g></svg>