<?xml version="1.0" encoding="UTF-8" standalone="no"?><svg xmlns="http://www.w3.org/2000/svg" xmlns:xlink="http://www.w3.org/1999/xlink" contentScriptType="application/ecmascript" contentStyleType="text/css" height="1815px" preserveAspectRatio="none" style="width:1324px;height:1815px;" version="1.1" viewBox="0 0 1324 1815" width="1324px" zoomAndPan="magnify"><defs><filter height="300%" id="fx7w9u0" width="300%" x="-1" y="-1"><feGaussianBlur result="blurOut" stdDeviation="2.0"/><feColorMatrix in="blurOut" result="blurOut2" type="matrix" values="0 0 0 0 0 0 0 0 0 0 0 0 0 0 0 0 0 0 .4 0"/><feOffset dx="4.0" dy="4.0" in="blurOut2" result="blurOut3"/><feBlend in="SourceGraphic" in2="blurOut3" mode="normal"/></filter></defs><g><text fill="#000000" font-family="sans-serif" font-size="14" font-weight="bold" lengthAdjust="spacingAndGlyphs" textLength="193" x="567.75" y="24.5332">ピッキングテンプレートVBA</text><rect fill="#FFFFFF" filter="url(#fx7w9u0)" height="1583.3789" style="stroke: #383838; stroke-width: 1.0;" width="10" x="240" y="144.457"/><rect fill="#FFFFFF" filter="url(#fx7w9u0)" height="280.1641" style="stroke: #383838; stroke-width: 1.0;" width="10" x="311" y="181.6953"/><rect fill="#FFFFFF" filter="url(#fx7w9u0)" height="116.0547" style="stroke: #383838; stroke-width: 1.0;" width="10" x="525" y="315.4531"/><rect fill="#FFFFFF" filter="url(#fx7w9u0)" height="91.0547" style="stroke: #383838; stroke-width: 1.0;" width="10" x="525" y="461.8594"/><rect fill="#FFFFFF" filter="url(#fx7w9u0)" height="91.0547" style="stroke: #383838; stroke-width: 1.0;" width="10" x="620.5" y="583.2656"/><rect fill="#FFFFFF" filter="url(#fx7w9u0)" height="85.7031" style="stroke: #383838; stroke-width: 1.0;" width="10" x="725" y="704.6719"/><rect fill="#FFFFFF" filter="url(#fx7w9u0)" height="403.7031" style="stroke: #383838; stroke-width: 1.0;" width="10" x="834" y="845.7266"/><rect fill="#FFFFFF" filter="url(#fx7w9u0)" height="365.3516" style="stroke: #383838; stroke-width: 1.0;" width="10" x="834" y="1279.7813"/><rect fill="#FFFFFF" filter="url(#fx7w9u0)" height="777.0547" style="stroke: #000000; stroke-width: 2.0;" width="1104.5" x="211" y="861.0781"/><rect fill="#FFFFFF" filter="url(#fx7w9u0)" height="303.6484" style="stroke: #000000; stroke-width: 2.0;" width="764.5" x="360" y="886.4297"/><text fill="#000000" font-family="sans-serif" font-size="14" lengthAdjust="spacingAndGlyphs" textLength="77" x="954.5" y="951.3145">Picking_2_3</text><ellipse cx="996" cy="920.7813" fill="#F8F8F8" filter="url(#fx7w9u0)" rx="12" ry="12" style="stroke: #383838; stroke-width: 2.0;"/><line style="stroke: #383838; stroke-width: 2.0;" x1="984" x2="1008" y1="934.7813" y2="934.7813"/><text fill="#000000" font-family="sans-serif" font-size="14" lengthAdjust="spacingAndGlyphs" textLength="61" x="1047.5" y="1010.9238">Picking_a</text><ellipse cx="1081" cy="980.3906" fill="#F8F8F8" filter="url(#fx7w9u0)" rx="12" ry="12" style="stroke: #383838; stroke-width: 2.0;"/><line style="stroke: #383838; stroke-width: 2.0;" x1="1069" x2="1093" y1="994.3906" y2="994.3906"/><rect fill="#FFFFFF" height="46.1875" style="stroke: none; stroke-width: 1.0;" width="764.5" x="360" y="1097.7031"/><rect fill="#FFFFFF" height="46.1875" style="stroke: none; stroke-width: 1.0;" width="764.5" x="360" y="1143.8906"/><rect fill="#FFFFFF" filter="url(#fx7w9u0)" height="336" style="stroke: #000000; stroke-width: 2.0;" width="945.5" x="360" y="1295.1328"/><text fill="#000000" font-family="sans-serif" font-size="14" lengthAdjust="spacingAndGlyphs" textLength="61" x="1124.5" y="1360.0176">ForSorter</text><ellipse cx="1158" cy="1329.4844" fill="#F8F8F8" filter="url(#fx7w9u0)" rx="12" ry="12" style="stroke: #383838; stroke-width: 2.0;"/><line style="stroke: #383838; stroke-width: 2.0;" x1="1146" x2="1170" y1="1343.4844" y2="1343.4844"/><text fill="#000000" font-family="sans-serif" font-size="14" lengthAdjust="spacingAndGlyphs" textLength="88" x="1201.5" y="1419.627">ForSorter_set</text><ellipse cx="1248.5" cy="1389.0938" fill="#F8F8F8" filter="url(#fx7w9u0)" rx="12" ry="12" style="stroke: #383838; stroke-width: 2.0;"/><line style="stroke: #383838; stroke-width: 2.0;" x1="1236.5" x2="1260.5" y1="1403.0938" y2="1403.0938"/><rect fill="#FFFFFF" height="46.1875" style="stroke: none; stroke-width: 1.0;" width="945.5" x="360" y="1506.4063"/><rect fill="#FFFFFF" height="46.1875" style="stroke: none; stroke-width: 1.0;" width="945.5" x="360" y="1552.5938"/><rect fill="#FFFFFF" height="32.3516" style="stroke: none; stroke-width: 1.0;" width="945.5" x="360" y="1598.7813"/><rect fill="#FFFFFF" height="1777.1875" style="stroke: #383838; stroke-width: 1.0;" width="148" x="67" y="35.6094"/><text fill="#000000" font-family="sans-serif" font-size="13" font-weight="bold" lengthAdjust="spacingAndGlyphs" textLength="84" x="99" y="49.1045">外部ファイル</text><line style="stroke: #383838; stroke-width: 1.0; stroke-dasharray: 5.0,5.0;" x1="34" x2="34" y1="105.5703" y2="1746.1875"/><line style="stroke: #383838; stroke-width: 1.0; stroke-dasharray: 5.0,5.0;" x1="88" x2="88" y1="105.5703" y2="1746.1875"/><line style="stroke: #383838; stroke-width: 1.0; stroke-dasharray: 5.0,5.0;" x1="163" x2="163" y1="105.5703" y2="1746.1875"/><line style="stroke: #383838; stroke-width: 1.0; stroke-dasharray: 5.0,5.0;" x1="245" x2="245" y1="105.5703" y2="1746.1875"/><line style="stroke: #383838; stroke-width: 1.0; stroke-dasharray: 5.0,5.0;" x1="316" x2="316" y1="105.5703" y2="1746.1875"/><line style="stroke: #383838; stroke-width: 1.0; stroke-dasharray: 5.0,5.0;" x1="410" x2="410" y1="105.5703" y2="1746.1875"/><line style="stroke: #383838; stroke-width: 1.0; stroke-dasharray: 5.0,5.0;" x1="529.5" x2="529.5" y1="105.5703" y2="1746.1875"/><line style="stroke: #383838; stroke-width: 1.0; stroke-dasharray: 5.0,5.0;" x1="625.5" x2="625.5" y1="105.5703" y2="1746.1875"/><line style="stroke: #383838; stroke-width: 1.0; stroke-dasharray: 5.0,5.0;" x1="729.5" x2="729.5" y1="105.5703" y2="1746.1875"/><line style="stroke: #383838; stroke-width: 1.0; stroke-dasharray: 5.0,5.0;" x1="838.5" x2="838.5" y1="105.5703" y2="1746.1875"/><line style="stroke: #383838; stroke-width: 1.0; stroke-dasharray: 5.0,5.0;" x1="995.5" x2="995.5" y1="944.5859" y2="1746.1875"/><line style="stroke: #383838; stroke-width: 1.0; stroke-dasharray: 5.0,5.0;" x1="1080.5" x2="1080.5" y1="1004.1953" y2="1746.1875"/><line style="stroke: #383838; stroke-width: 1.0; stroke-dasharray: 5.0,5.0;" x1="1157.5" x2="1157.5" y1="1353.2891" y2="1746.1875"/><line style="stroke: #383838; stroke-width: 1.0; stroke-dasharray: 5.0,5.0;" x1="1248.5" x2="1248.5" y1="1412.8984" y2="1746.1875"/><text fill="#000000" font-family="sans-serif" font-size="14" lengthAdjust="spacingAndGlyphs" textLength="47" x="8" y="102.4941">社内DB</text><path d="M16.5,51.9609 C16.5,41.9609 34.5,41.9609 34.5,41.9609 C34.5,41.9609 52.5,41.9609 52.5,51.9609 L52.5,77.9609 C52.5,87.9609 34.5,87.9609 34.5,87.9609 C34.5,87.9609 16.5,87.9609 16.5,77.9609 L16.5,51.9609 " fill="#F8F8F8" filter="url(#fx7w9u0)" style="stroke: #000000; stroke-width: 1.5;"/><path d="M16.5,51.9609 C16.5,61.9609 34.5,61.9609 34.5,61.9609 C34.5,61.9609 52.5,61.9609 52.5,51.9609 " fill="none" style="stroke: #000000; stroke-width: 1.5;"/><text fill="#000000" font-family="sans-serif" font-size="14" lengthAdjust="spacingAndGlyphs" textLength="47" x="8" y="1759.7207">社内DB</text><path d="M16.5,1772.7969 C16.5,1762.7969 34.5,1762.7969 34.5,1762.7969 C34.5,1762.7969 52.5,1762.7969 52.5,1772.7969 L52.5,1798.7969 C52.5,1808.7969 34.5,1808.7969 34.5,1808.7969 C34.5,1808.7969 16.5,1808.7969 16.5,1798.7969 L16.5,1772.7969 " fill="#F8F8F8" filter="url(#fx7w9u0)" style="stroke: #000000; stroke-width: 1.5;"/><path d="M16.5,1772.7969 C16.5,1782.7969 34.5,1782.7969 34.5,1782.7969 C34.5,1782.7969 52.5,1782.7969 52.5,1772.7969 " fill="none" style="stroke: #000000; stroke-width: 1.5;"/><text fill="#000000" font-family="sans-serif" font-size="14" lengthAdjust="spacingAndGlyphs" textLength="28" x="71" y="102.4941">CSV</text><ellipse cx="88" cy="71.9609" fill="#F8F8F8" filter="url(#fx7w9u0)" rx="12" ry="12" style="stroke: #383838; stroke-width: 2.0;"/><line style="stroke: #383838; stroke-width: 2.0;" x1="76" x2="100" y1="85.9609" y2="85.9609"/><text fill="#000000" font-family="sans-serif" font-size="14" lengthAdjust="spacingAndGlyphs" textLength="28" x="71" y="1759.7207">CSV</text><ellipse cx="88" cy="1778.7969" fill="#F8F8F8" filter="url(#fx7w9u0)" rx="12" ry="12" style="stroke: #383838; stroke-width: 2.0;"/><line style="stroke: #383838; stroke-width: 2.0;" x1="76" x2="100" y1="1792.7969" y2="1792.7969"/><text fill="#000000" font-family="sans-serif" font-size="14" lengthAdjust="spacingAndGlyphs" textLength="90" x="115" y="102.4941">ｾｯﾄ商品ﾘｽﾄ.xls</text><ellipse cx="163" cy="71.9609" fill="#F8F8F8" filter="url(#fx7w9u0)" rx="12" ry="12" style="stroke: #383838; stroke-width: 2.0;"/><line style="stroke: #383838; stroke-width: 2.0;" x1="151" x2="175" y1="85.9609" y2="85.9609"/><text fill="#000000" font-family="sans-serif" font-size="14" lengthAdjust="spacingAndGlyphs" textLength="90" x="115" y="1759.7207">ｾｯﾄ商品ﾘｽﾄ.xls</text><ellipse cx="163" cy="1778.7969" fill="#F8F8F8" filter="url(#fx7w9u0)" rx="12" ry="12" style="stroke: #383838; stroke-width: 2.0;"/><line style="stroke: #383838; stroke-width: 2.0;" x1="151" x2="175" y1="1792.7969" y2="1792.7969"/><rect fill="#F8F8F8" filter="url(#fx7w9u0)" height="31.6094" style="stroke: #383838; stroke-width: 1.5;" width="44" x="221" y="68.9609"/><text fill="#000000" font-family="sans-serif" font-size="14" lengthAdjust="spacingAndGlyphs" textLength="30" x="228" y="90.4941">Main</text><rect fill="#F8F8F8" filter="url(#fx7w9u0)" height="31.6094" style="stroke: #383838; stroke-width: 1.5;" width="44" x="221" y="1745.1875"/><text fill="#000000" font-family="sans-serif" font-size="14" lengthAdjust="spacingAndGlyphs" textLength="30" x="228" y="1766.7207">Main</text><rect fill="#F8F8F8" filter="url(#fx7w9u0)" height="31.6094" style="stroke: #383838; stroke-width: 1.5;" width="70" x="279" y="68.9609"/><text fill="#000000" font-family="sans-serif" font-size="14" lengthAdjust="spacingAndGlyphs" textLength="56" x="286" y="90.4941">LoadCsv</text><rect fill="#F8F8F8" filter="url(#fx7w9u0)" height="31.6094" style="stroke: #383838; stroke-width: 1.5;" width="70" x="279" y="1745.1875"/><text fill="#000000" font-family="sans-serif" font-size="14" lengthAdjust="spacingAndGlyphs" textLength="56" x="286" y="1766.7207">LoadCsv</text><text fill="#000000" font-family="sans-serif" font-size="14" lengthAdjust="spacingAndGlyphs" textLength="74" x="370" y="102.4941">OrderSheet</text><ellipse cx="410" cy="71.9609" fill="#F8F8F8" filter="url(#fx7w9u0)" rx="12" ry="12" style="stroke: #383838; stroke-width: 2.0;"/><line style="stroke: #383838; stroke-width: 2.0;" x1="398" x2="422" y1="85.9609" y2="85.9609"/><text fill="#000000" font-family="sans-serif" font-size="14" lengthAdjust="spacingAndGlyphs" textLength="74" x="370" y="1759.7207">OrderSheet</text><ellipse cx="410" cy="1778.7969" fill="#F8F8F8" filter="url(#fx7w9u0)" rx="12" ry="12" style="stroke: #383838; stroke-width: 2.0;"/><line style="stroke: #383838; stroke-width: 2.0;" x1="398" x2="422" y1="1792.7969" y2="1792.7969"/><rect fill="#F8F8F8" filter="url(#fx7w9u0)" height="31.6094" style="stroke: #383838; stroke-width: 1.5;" width="77" x="489.5" y="68.9609"/><text fill="#000000" font-family="sans-serif" font-size="14" lengthAdjust="spacingAndGlyphs" textLength="63" x="496.5" y="90.4941">SetParser</text><rect fill="#F8F8F8" filter="url(#fx7w9u0)" height="31.6094" style="stroke: #383838; stroke-width: 1.5;" width="77" x="489.5" y="1745.1875"/><text fill="#000000" font-family="sans-serif" font-size="14" lengthAdjust="spacingAndGlyphs" textLength="63" x="496.5" y="1766.7207">SetParser</text><rect fill="#F8F8F8" filter="url(#fx7w9u0)" height="31.6094" style="stroke: #383838; stroke-width: 1.5;" width="86" x="580.5" y="68.9609"/><text fill="#000000" font-family="sans-serif" font-size="14" lengthAdjust="spacingAndGlyphs" textLength="72" x="587.5" y="90.4941">ConnectDB</text><rect fill="#F8F8F8" filter="url(#fx7w9u0)" height="31.6094" style="stroke: #383838; stroke-width: 1.5;" width="86" x="580.5" y="1745.1875"/><text fill="#000000" font-family="sans-serif" font-size="14" lengthAdjust="spacingAndGlyphs" textLength="72" x="587.5" y="1766.7207">ConnectDB</text><rect fill="#F8F8F8" filter="url(#fx7w9u0)" height="31.6094" style="stroke: #383838; stroke-width: 1.5;" width="95" x="680.5" y="68.9609"/><text fill="#000000" font-family="sans-serif" font-size="14" lengthAdjust="spacingAndGlyphs" textLength="81" x="687.5" y="90.4941">DataValidate</text><rect fill="#F8F8F8" filter="url(#fx7w9u0)" height="31.6094" style="stroke: #383838; stroke-width: 1.5;" width="95" x="680.5" y="1745.1875"/><text fill="#000000" font-family="sans-serif" font-size="14" lengthAdjust="spacingAndGlyphs" textLength="81" x="687.5" y="1766.7207">DataValidate</text><rect fill="#F8F8F8" filter="url(#fx7w9u0)" height="31.6094" style="stroke: #383838; stroke-width: 1.5;" width="95" x="789.5" y="68.9609"/><text fill="#000000" font-family="sans-serif" font-size="14" lengthAdjust="spacingAndGlyphs" textLength="81" x="796.5" y="90.4941">SheetBuilder</text><rect fill="#F8F8F8" filter="url(#fx7w9u0)" height="31.6094" style="stroke: #383838; stroke-width: 1.5;" width="95" x="789.5" y="1745.1875"/><text fill="#000000" font-family="sans-serif" font-size="14" lengthAdjust="spacingAndGlyphs" textLength="81" x="796.5" y="1766.7207">SheetBuilder</text><text fill="#000000" font-family="sans-serif" font-size="14" lengthAdjust="spacingAndGlyphs" textLength="77" x="954.5" y="1759.7207">Picking_2_3</text><ellipse cx="996" cy="1778.7969" fill="#F8F8F8" filter="url(#fx7w9u0)" rx="12" ry="12" style="stroke: #383838; stroke-width: 2.0;"/><line style="stroke: #383838; stroke-width: 2.0;" x1="984" x2="1008" y1="1792.7969" y2="1792.7969"/><text fill="#000000" font-family="sans-serif" font-size="14" lengthAdjust="spacingAndGlyphs" textLength="61" x="1047.5" y="1759.7207">Picking_a</text><ellipse cx="1081" cy="1778.7969" fill="#F8F8F8" filter="url(#fx7w9u0)" rx="12" ry="12" style="stroke: #383838; stroke-width: 2.0;"/><line style="stroke: #383838; stroke-width: 2.0;" x1="1069" x2="1093" y1="1792.7969" y2="1792.7969"/><text fill="#000000" font-family="sans-serif" font-size="14" lengthAdjust="spacingAndGlyphs" textLength="61" x="1124.5" y="1759.7207">ForSorter</text><ellipse cx="1158" cy="1778.7969" fill="#F8F8F8" filter="url(#fx7w9u0)" rx="12" ry="12" style="stroke: #383838; stroke-width: 2.0;"/><line style="stroke: #383838; stroke-width: 2.0;" x1="1146" x2="1170" y1="1792.7969" y2="1792.7969"/><text fill="#000000" font-family="sans-serif" font-size="14" lengthAdjust="spacingAndGlyphs" textLength="88" x="1201.5" y="1759.7207">ForSorter_set</text><ellipse cx="1248.5" cy="1778.7969" fill="#F8F8F8" filter="url(#fx7w9u0)" rx="12" ry="12" style="stroke: #383838; stroke-width: 2.0;"/><line style="stroke: #383838; stroke-width: 2.0;" x1="1236.5" x2="1260.5" y1="1792.7969" y2="1792.7969"/><rect fill="#FFFFFF" filter="url(#fx7w9u0)" height="1583.3789" style="stroke: #383838; stroke-width: 1.0;" width="10" x="240" y="144.457"/><rect fill="#FFFFFF" filter="url(#fx7w9u0)" height="280.1641" style="stroke: #383838; stroke-width: 1.0;" width="10" x="311" y="181.6953"/><rect fill="#FFFFFF" filter="url(#fx7w9u0)" height="116.0547" style="stroke: #383838; stroke-width: 1.0;" width="10" x="525" y="315.4531"/><rect fill="#FFFFFF" filter="url(#fx7w9u0)" height="91.0547" style="stroke: #383838; stroke-width: 1.0;" width="10" x="525" y="461.8594"/><rect fill="#FFFFFF" filter="url(#fx7w9u0)" height="91.0547" style="stroke: #383838; stroke-width: 1.0;" width="10" x="620.5" y="583.2656"/><rect fill="#FFFFFF" filter="url(#fx7w9u0)" height="85.7031" style="stroke: #383838; stroke-width: 1.0;" width="10" x="725" y="704.6719"/><rect fill="#FFFFFF" filter="url(#fx7w9u0)" height="403.7031" style="stroke: #383838; stroke-width: 1.0;" width="10" x="834" y="845.7266"/><rect fill="#FFFFFF" filter="url(#fx7w9u0)" height="365.3516" style="stroke: #383838; stroke-width: 1.0;" width="10" x="834" y="1279.7813"/><polygon fill="#383838" points="228,140.457,238,144.457,228,148.457,232,144.457" style="stroke: #383838; stroke-width: 1.0;"/><line style="stroke: #383838; stroke-width: 1.0;" x1="3" x2="234" y1="144.457" y2="144.457"/><text fill="#000000" font-family="sans-serif" font-size="13" lengthAdjust="spacingAndGlyphs" textLength="65" x="10" y="139.9521">マクロ起動</text><polygon fill="#ECECEC" filter="url(#fx7w9u0)" points="255,120.5703,255,150.5703,468,150.5703,468,130.5703,458,120.5703,255,120.5703" style="stroke: #383838; stroke-width: 1.0;"/><line style="stroke: #383838; stroke-width: 1.0;" x1="458" x2="458" y1="120.5703" y2="130.5703"/><line style="stroke: #383838; stroke-width: 1.0;" x1="468" x2="458" y1="130.5703" y2="130.5703"/><text fill="#000000" font-family="sans-serif" font-size="16" lengthAdjust="spacingAndGlyphs" textLength="192" x="261" y="142.1797">進捗表示ダイアログを実装</text><polygon fill="#383838" points="299,177.6953,309,181.6953,299,185.6953,303,181.6953" style="stroke: #383838; stroke-width: 1.0;"/><line style="stroke: #383838; stroke-width: 1.0;" x1="250" x2="305" y1="181.6953" y2="181.6953"/><text fill="#000000" font-family="sans-serif" font-size="13" lengthAdjust="spacingAndGlyphs" textLength="26" x="257" y="177.1904">呼出</text><polygon fill="#383838" points="99,208.0469,89,212.0469,99,216.0469,95,212.0469" style="stroke: #383838; stroke-width: 1.0;"/><line style="stroke: #383838; stroke-width: 1.0;" x1="93" x2="310" y1="212.0469" y2="212.0469"/><text fill="#000000" font-family="sans-serif" font-size="13" lengthAdjust="spacingAndGlyphs" textLength="65" x="105" y="207.542">データ接続</text><polygon fill="#383838" points="398,259.75,408,263.75,398,267.75,402,263.75" style="stroke: #383838; stroke-width: 1.0;"/><line style="stroke: #383838; stroke-width: 1.0;" x1="321" x2="404" y1="263.75" y2="263.75"/><text fill="#000000" font-family="sans-serif" font-size="13" lengthAdjust="spacingAndGlyphs" textLength="65" x="328" y="259.2451">データ書込</text><polygon fill="#ECECEC" filter="url(#fx7w9u0)" points="415,225.3984,415,284.3984,656,284.3984,656,235.3984,646,225.3984,415,225.3984" style="stroke: #383838; stroke-width: 1.0;"/><line style="stroke: #383838; stroke-width: 1.0;" x1="646" x2="646" y1="225.3984" y2="235.3984"/><line style="stroke: #383838; stroke-width: 1.0;" x1="656" x2="646" y1="235.3984" y2="235.3984"/><text fill="#000000" font-family="sans-serif" font-size="13" lengthAdjust="spacingAndGlyphs" textLength="182" x="421" y="243.8936">商品名変更が必要な可能性アリ</text><text fill="#000000" font-family="sans-serif" font-size="13" lengthAdjust="spacingAndGlyphs" textLength="161" x="425" y="260.2451">≪SS≫を中身ごと削除する</text><text fill="#000000" font-family="sans-serif" font-size="13" lengthAdjust="spacingAndGlyphs" textLength="216" x="425" y="276.5967">冒頭○文字以内の[]を削除する、など</text><polygon fill="#383838" points="513,311.4531,523,315.4531,513,319.4531,517,315.4531" style="stroke: #383838; stroke-width: 1.0;"/><line style="stroke: #383838; stroke-width: 1.0;" x1="321" x2="519" y1="315.4531" y2="315.4531"/><text fill="#000000" font-family="sans-serif" font-size="13" lengthAdjust="spacingAndGlyphs" textLength="95" x="328" y="310.9482">セット分解 呼出</text><polygon fill="#383838" points="513,366.8047,523,370.8047,513,374.8047,517,370.8047" style="stroke: #383838; stroke-width: 1.0;"/><line style="stroke: #383838; stroke-width: 1.0;" x1="410" x2="519" y1="370.8047" y2="370.8047"/><text fill="#000000" font-family="sans-serif" font-size="13" lengthAdjust="spacingAndGlyphs" textLength="65" x="417" y="366.2998">○個組分解</text><polygon fill="#383838" points="421,397.1563,411,401.1563,421,405.1563,417,401.1563" style="stroke: #383838; stroke-width: 1.0;"/><line style="stroke: #383838; stroke-width: 1.0;" x1="415" x2="524" y1="401.1563" y2="401.1563"/><text fill="#000000" font-family="sans-serif" font-size="13" lengthAdjust="spacingAndGlyphs" textLength="78" x="427" y="396.6514">単体数量上書</text><polygon fill="#383838" points="421,427.5078,411,431.5078,421,435.5078,417,431.5078" style="stroke: #383838; stroke-width: 1.0;"/><line style="stroke: #383838; stroke-width: 1.0;" x1="415" x2="529" y1="431.5078" y2="431.5078"/><text fill="#000000" font-family="sans-serif" font-size="13" lengthAdjust="spacingAndGlyphs" textLength="91" x="427" y="427.0029">単体コード上書</text><polygon fill="#383838" points="513,457.8594,523,461.8594,513,465.8594,517,461.8594" style="stroke: #383838; stroke-width: 1.0;"/><line style="stroke: #383838; stroke-width: 1.0;" x1="316" x2="519" y1="461.8594" y2="461.8594"/><text fill="#000000" font-family="sans-serif" font-size="13" lengthAdjust="spacingAndGlyphs" textLength="95" x="323" y="457.3545">セット分解 呼出</text><polygon fill="#383838" points="174,488.2109,164,492.2109,174,496.2109,170,492.2109" style="stroke: #383838; stroke-width: 1.0;"/><line style="stroke: #383838; stroke-width: 1.0;" x1="168" x2="524" y1="492.2109" y2="492.2109"/><text fill="#000000" font-family="sans-serif" font-size="13" lengthAdjust="spacingAndGlyphs" textLength="127" x="180" y="487.7061">GetComponentItems()</text><polygon fill="#383838" points="513,518.5625,523,522.5625,513,526.5625,517,522.5625" style="stroke: #383838; stroke-width: 1.0;"/><line style="stroke: #383838; stroke-width: 1.0; stroke-dasharray: 2.0,2.0;" x1="163" x2="519" y1="522.5625" y2="522.5625"/><text fill="#000000" font-family="sans-serif" font-size="13" lengthAdjust="spacingAndGlyphs" textLength="82" x="170" y="518.0576">ItemCollection</text><polygon fill="#383838" points="421,548.9141,411,552.9141,421,556.9141,417,552.9141" style="stroke: #383838; stroke-width: 1.0;"/><line style="stroke: #383838; stroke-width: 1.0;" x1="415" x2="529" y1="552.9141" y2="552.9141"/><text fill="#000000" font-family="sans-serif" font-size="13" lengthAdjust="spacingAndGlyphs" textLength="91" x="427" y="548.4092">アイテム行挿入</text><polygon fill="#383838" points="608.5,579.2656,618.5,583.2656,608.5,587.2656,612.5,583.2656" style="stroke: #383838; stroke-width: 1.0;"/><line style="stroke: #383838; stroke-width: 1.0;" x1="250" x2="614.5" y1="583.2656" y2="583.2656"/><text fill="#000000" font-family="sans-serif" font-size="13" lengthAdjust="spacingAndGlyphs" textLength="26" x="257" y="578.7607">呼出</text><polygon fill="#383838" points="45.5,609.6172,35.5,613.6172,45.5,617.6172,41.5,613.6172" style="stroke: #383838; stroke-width: 1.0;"/><line style="stroke: #383838; stroke-width: 1.0;" x1="39.5" x2="619.5" y1="613.6172" y2="613.6172"/><text fill="#000000" font-family="sans-serif" font-size="13" lengthAdjust="spacingAndGlyphs" textLength="117" x="51.5" y="609.1123">ロケーション問合せ</text><polygon fill="#383838" points="608.5,639.9688,618.5,643.9688,608.5,647.9688,612.5,643.9688" style="stroke: #383838; stroke-width: 1.0;"/><line style="stroke: #383838; stroke-width: 1.0;" x1="34.5" x2="614.5" y1="643.9688" y2="643.9688"/><text fill="#000000" font-family="sans-serif" font-size="13" lengthAdjust="spacingAndGlyphs" textLength="104" x="41.5" y="639.4639">ロケーション取得</text><polygon fill="#383838" points="421,670.3203,411,674.3203,421,678.3203,417,674.3203" style="stroke: #383838; stroke-width: 1.0;"/><line style="stroke: #383838; stroke-width: 1.0;" x1="415" x2="624.5" y1="674.3203" y2="674.3203"/><text fill="#000000" font-family="sans-serif" font-size="13" lengthAdjust="spacingAndGlyphs" textLength="104" x="427" y="669.8154">ロケーション書込</text><polygon fill="#383838" points="713,700.6719,723,704.6719,713,708.6719,717,704.6719" style="stroke: #383838; stroke-width: 1.0;"/><line style="stroke: #383838; stroke-width: 1.0;" x1="250" x2="719" y1="704.6719" y2="704.6719"/><text fill="#000000" font-family="sans-serif" font-size="13" lengthAdjust="spacingAndGlyphs" textLength="110" x="257" y="700.167">呼出LocationCutter</text><polygon fill="#383838" points="713,756.0234,723,760.0234,713,764.0234,717,760.0234" style="stroke: #383838; stroke-width: 1.0;"/><line style="stroke: #383838; stroke-width: 1.0;" x1="410" x2="719" y1="760.0234" y2="760.0234"/><text fill="#000000" font-family="sans-serif" font-size="13" lengthAdjust="spacingAndGlyphs" textLength="91" x="417" y="755.5186">ロケ文字列取得</text><polygon fill="#383838" points="421,786.375,411,790.375,421,794.375,417,790.375" style="stroke: #383838; stroke-width: 1.0;"/><line style="stroke: #383838; stroke-width: 1.0;" x1="415" x2="729" y1="790.375" y2="790.375"/><text fill="#000000" font-family="sans-serif" font-size="13" lengthAdjust="spacingAndGlyphs" textLength="78" x="427" y="785.8701">無効ロケ削除</text><polygon fill="#383838" points="822,841.7266,832,845.7266,822,849.7266,826,845.7266" style="stroke: #383838; stroke-width: 1.0;"/><line style="stroke: #383838; stroke-width: 1.0;" x1="250" x2="828" y1="845.7266" y2="845.7266"/><text fill="#000000" font-family="sans-serif" font-size="13" lengthAdjust="spacingAndGlyphs" textLength="116" x="257" y="841.2217">Sub CreatePicking()</text><rect fill="none" height="777.0547" style="stroke: #000000; stroke-width: 2.0;" width="1104.5" x="211" y="861.0781"/><polygon fill="#EEEEEE" points="211,861.0781,284,861.0781,284,869.0781,274,879.0781,211,879.0781,211,861.0781" style="stroke: #000000; stroke-width: 2.0;"/><text fill="#000000" font-family="sans-serif" font-size="13" font-weight="bold" lengthAdjust="spacingAndGlyphs" textLength="28" x="226" y="875.5732">loop</text><text fill="#000000" font-family="sans-serif" font-size="11" font-weight="bold" lengthAdjust="spacingAndGlyphs" textLength="86" x="299" y="874.4971">[3モール分実行]</text><rect fill="none" height="303.6484" style="stroke: #000000; stroke-width: 2.0;" width="764.5" x="360" y="886.4297"/><polygon fill="#EEEEEE" points="360,886.4297,545,886.4297,545,894.4297,535,904.4297,360,904.4297,360,886.4297" style="stroke: #000000; stroke-width: 2.0;"/><text fill="#000000" font-family="sans-serif" font-size="13" font-weight="bold" lengthAdjust="spacingAndGlyphs" textLength="140" x="375" y="900.9248">ピッキングデータ作成</text><polygon fill="#383838" points="942.5,922.7813,952.5,926.7813,942.5,930.7813,946.5,926.7813" style="stroke: #383838; stroke-width: 1.0;"/><line style="stroke: #383838; stroke-width: 1.0;" x1="844" x2="948.5" y1="926.7813" y2="926.7813"/><text fill="#000000" font-family="sans-serif" font-size="13" lengthAdjust="spacingAndGlyphs" textLength="65" x="851" y="922.2764">ブック作成</text><text fill="#000000" font-family="sans-serif" font-size="14" lengthAdjust="spacingAndGlyphs" textLength="77" x="954.5" y="951.3145">Picking_2_3</text><ellipse cx="996" cy="920.7813" fill="#F8F8F8" filter="url(#fx7w9u0)" rx="12" ry="12" style="stroke: #383838; stroke-width: 2.0;"/><line style="stroke: #383838; stroke-width: 2.0;" x1="984" x2="1008" y1="934.7813" y2="934.7813"/><polygon fill="#383838" points="1035.5,982.3906,1045.5,986.3906,1035.5,990.3906,1039.5,986.3906" style="stroke: #383838; stroke-width: 1.0;"/><line style="stroke: #383838; stroke-width: 1.0;" x1="844" x2="1041.5" y1="986.3906" y2="986.3906"/><text fill="#000000" font-family="sans-serif" font-size="13" lengthAdjust="spacingAndGlyphs" textLength="65" x="851" y="981.8857">ブック作成</text><text fill="#000000" font-family="sans-serif" font-size="14" lengthAdjust="spacingAndGlyphs" textLength="61" x="1047.5" y="1010.9238">Picking_a</text><ellipse cx="1081" cy="980.3906" fill="#F8F8F8" filter="url(#fx7w9u0)" rx="12" ry="12" style="stroke: #383838; stroke-width: 2.0;"/><line style="stroke: #383838; stroke-width: 2.0;" x1="1069" x2="1093" y1="994.3906" y2="994.3906"/><polygon fill="#383838" points="421,1042,411,1046,421,1050,417,1046" style="stroke: #383838; stroke-width: 1.0;"/><line style="stroke: #383838; stroke-width: 1.0;" x1="415" x2="833" y1="1046" y2="1046"/><text fill="#000000" font-family="sans-serif" font-size="13" lengthAdjust="spacingAndGlyphs" textLength="91" x="427" y="1041.4951">受注データ取得</text><line style="stroke: #383838; stroke-width: 1.0;" x1="844" x2="886" y1="1076.7031" y2="1076.7031"/><line style="stroke: #383838; stroke-width: 1.0;" x1="886" x2="886" y1="1076.7031" y2="1089.7031"/><line style="stroke: #383838; stroke-width: 1.0;" x1="845" x2="886" y1="1089.7031" y2="1089.7031"/><polygon fill="#383838" points="855,1085.7031,845,1089.7031,855,1093.7031,851,1089.7031" style="stroke: #383838; stroke-width: 1.0;"/><text fill="#000000" font-family="sans-serif" font-size="13" lengthAdjust="spacingAndGlyphs" textLength="91" x="851" y="1071.8467">受注モール判定</text><line style="stroke: #000000; stroke-width: 1.0; stroke-dasharray: 2.0,2.0;" x1="360" x2="1124.5" y1="1098.7031" y2="1098.7031"/><text fill="#000000" font-family="sans-serif" font-size="11" font-weight="bold" lengthAdjust="spacingAndGlyphs" textLength="44" x="365" y="1110.1221">[棚有り]</text><polygon fill="#383838" points="984,1131.5391,994,1135.5391,984,1139.5391,988,1135.5391" style="stroke: #383838; stroke-width: 1.0;"/><line style="stroke: #383838; stroke-width: 1.0;" x1="844" x2="990" y1="1135.5391" y2="1135.5391"/><text fill="#000000" font-family="sans-serif" font-size="13" lengthAdjust="spacingAndGlyphs" textLength="128" x="851" y="1131.0342">6ケタ振替 データ転記</text><line style="stroke: #000000; stroke-width: 1.0; stroke-dasharray: 2.0,2.0;" x1="360" x2="1124.5" y1="1144.8906" y2="1144.8906"/><text fill="#000000" font-family="sans-serif" font-size="11" font-weight="bold" lengthAdjust="spacingAndGlyphs" textLength="44" x="365" y="1156.3096">[棚無し]</text><polygon fill="#383838" points="1069,1177.7266,1079,1181.7266,1069,1185.7266,1073,1181.7266" style="stroke: #383838; stroke-width: 1.0;"/><line style="stroke: #383838; stroke-width: 1.0;" x1="844" x2="1075" y1="1181.7266" y2="1181.7266"/><text fill="#000000" font-family="sans-serif" font-size="13" lengthAdjust="spacingAndGlyphs" textLength="65" x="851" y="1177.2217">データ転記</text><polygon fill="#383838" points="984,1215.0781,994,1219.0781,984,1223.0781,988,1219.0781" style="stroke: #383838; stroke-width: 1.0;"/><line style="stroke: #383838; stroke-width: 1.0;" x1="844" x2="990" y1="1219.0781" y2="1219.0781"/><text fill="#000000" font-family="sans-serif" font-size="13" lengthAdjust="spacingAndGlyphs" textLength="78" x="851" y="1214.5732">ファイル保存</text><line style="stroke: #383838; stroke-width: 2.0;" x1="987" x2="1005" y1="1210.0781" y2="1228.0781"/><line style="stroke: #383838; stroke-width: 2.0;" x1="987" x2="1005" y1="1228.0781" y2="1210.0781"/><polygon fill="#383838" points="1069,1245.4297,1079,1249.4297,1069,1253.4297,1073,1249.4297" style="stroke: #383838; stroke-width: 1.0;"/><line style="stroke: #383838; stroke-width: 1.0;" x1="839" x2="1075" y1="1249.4297" y2="1249.4297"/><text fill="#000000" font-family="sans-serif" font-size="13" lengthAdjust="spacingAndGlyphs" textLength="78" x="846" y="1244.9248">ファイル保存</text><line style="stroke: #383838; stroke-width: 2.0;" x1="1072" x2="1090" y1="1240.4297" y2="1258.4297"/><line style="stroke: #383838; stroke-width: 2.0;" x1="1072" x2="1090" y1="1258.4297" y2="1240.4297"/><polygon fill="#383838" points="822,1275.7813,832,1279.7813,822,1283.7813,826,1279.7813" style="stroke: #383838; stroke-width: 1.0;"/><line style="stroke: #383838; stroke-width: 1.0;" x1="250" x2="828" y1="1279.7813" y2="1279.7813"/><text fill="#000000" font-family="sans-serif" font-size="13" lengthAdjust="spacingAndGlyphs" textLength="161" x="257" y="1275.2764">Sub CreateForSorterSheet()</text><rect fill="none" height="336" style="stroke: #000000; stroke-width: 2.0;" width="945.5" x="360" y="1295.1328"/><polygon fill="#EEEEEE" points="360,1295.1328,503,1295.1328,503,1303.1328,493,1313.1328,360,1313.1328,360,1295.1328" style="stroke: #000000; stroke-width: 2.0;"/><text fill="#000000" font-family="sans-serif" font-size="13" font-weight="bold" lengthAdjust="spacingAndGlyphs" textLength="98" x="375" y="1309.6279">振分シート作成</text><polygon fill="#383838" points="1112.5,1331.4844,1122.5,1335.4844,1112.5,1339.4844,1116.5,1335.4844" style="stroke: #383838; stroke-width: 1.0;"/><line style="stroke: #383838; stroke-width: 1.0;" x1="844" x2="1118.5" y1="1335.4844" y2="1335.4844"/><text fill="#000000" font-family="sans-serif" font-size="13" lengthAdjust="spacingAndGlyphs" textLength="65" x="851" y="1330.9795">シート作成</text><text fill="#000000" font-family="sans-serif" font-size="14" lengthAdjust="spacingAndGlyphs" textLength="61" x="1124.5" y="1360.0176">ForSorter</text><ellipse cx="1158" cy="1329.4844" fill="#F8F8F8" filter="url(#fx7w9u0)" rx="12" ry="12" style="stroke: #383838; stroke-width: 2.0;"/><line style="stroke: #383838; stroke-width: 2.0;" x1="1146" x2="1170" y1="1343.4844" y2="1343.4844"/><polygon fill="#383838" points="1189.5,1391.0938,1199.5,1395.0938,1189.5,1399.0938,1193.5,1395.0938" style="stroke: #383838; stroke-width: 1.0;"/><line style="stroke: #383838; stroke-width: 1.0;" x1="844" x2="1195.5" y1="1395.0938" y2="1395.0938"/><text fill="#000000" font-family="sans-serif" font-size="13" lengthAdjust="spacingAndGlyphs" textLength="65" x="851" y="1390.5889">シート作成</text><text fill="#000000" font-family="sans-serif" font-size="14" lengthAdjust="spacingAndGlyphs" textLength="88" x="1201.5" y="1419.627">ForSorter_set</text><ellipse cx="1248.5" cy="1389.0938" fill="#F8F8F8" filter="url(#fx7w9u0)" rx="12" ry="12" style="stroke: #383838; stroke-width: 2.0;"/><line style="stroke: #383838; stroke-width: 2.0;" x1="1236.5" x2="1260.5" y1="1403.0938" y2="1403.0938"/><polygon fill="#383838" points="421,1450.7031,411,1454.7031,421,1458.7031,417,1454.7031" style="stroke: #383838; stroke-width: 1.0;"/><line style="stroke: #383838; stroke-width: 1.0;" x1="415" x2="833" y1="1454.7031" y2="1454.7031"/><text fill="#000000" font-family="sans-serif" font-size="13" lengthAdjust="spacingAndGlyphs" textLength="91" x="427" y="1450.1982">受注データ取得</text><line style="stroke: #383838; stroke-width: 1.0;" x1="844" x2="886" y1="1485.4063" y2="1485.4063"/><line style="stroke: #383838; stroke-width: 1.0;" x1="886" x2="886" y1="1485.4063" y2="1498.4063"/><line style="stroke: #383838; stroke-width: 1.0;" x1="845" x2="886" y1="1498.4063" y2="1498.4063"/><polygon fill="#383838" points="855,1494.4063,845,1498.4063,855,1502.4063,851,1498.4063" style="stroke: #383838; stroke-width: 1.0;"/><text fill="#000000" font-family="sans-serif" font-size="13" lengthAdjust="spacingAndGlyphs" textLength="91" x="851" y="1480.5498">受注モール判定</text><line style="stroke: #000000; stroke-width: 1.0; stroke-dasharray: 2.0,2.0;" x1="360" x2="1305.5" y1="1507.4063" y2="1507.4063"/><text fill="#000000" font-family="sans-serif" font-size="11" font-weight="bold" lengthAdjust="spacingAndGlyphs" textLength="68" x="365" y="1518.8252">[単体受注品]</text><polygon fill="#383838" points="1146,1540.2422,1156,1544.2422,1146,1548.2422,1150,1544.2422" style="stroke: #383838; stroke-width: 1.0;"/><line style="stroke: #383838; stroke-width: 1.0;" x1="844" x2="1152" y1="1544.2422" y2="1544.2422"/><text fill="#000000" font-family="sans-serif" font-size="13" lengthAdjust="spacingAndGlyphs" textLength="91" x="851" y="1539.7373">受注データ転記</text><line style="stroke: #000000; stroke-width: 1.0; stroke-dasharray: 2.0,2.0;" x1="360" x2="1305.5" y1="1553.5938" y2="1553.5938"/><text fill="#000000" font-family="sans-serif" font-size="11" font-weight="bold" lengthAdjust="spacingAndGlyphs" textLength="68" x="365" y="1565.0127">[セット商品]</text><polygon fill="#383838" points="1236.5,1586.4297,1246.5,1590.4297,1236.5,1594.4297,1240.5,1590.4297" style="stroke: #383838; stroke-width: 1.0;"/><line style="stroke: #383838; stroke-width: 1.0;" x1="844" x2="1242.5" y1="1590.4297" y2="1590.4297"/><text fill="#000000" font-family="sans-serif" font-size="13" lengthAdjust="spacingAndGlyphs" textLength="91" x="851" y="1585.9248">受注データ転記</text><line style="stroke: #000000; stroke-width: 1.0; stroke-dasharray: 2.0,2.0;" x1="360" x2="1305.5" y1="1599.7813" y2="1599.7813"/><polygon fill="#383838" points="1146,1618.7813,1156,1622.7813,1146,1626.7813,1150,1622.7813" style="stroke: #383838; stroke-width: 1.0;"/><line style="stroke: #383838; stroke-width: 1.0;" x1="844" x2="1152" y1="1622.7813" y2="1622.7813"/><text fill="#000000" font-family="sans-serif" font-size="13" lengthAdjust="spacingAndGlyphs" textLength="117" x="851" y="1618.2764">商品コードでソート</text><polygon fill="#383838" points="1146,1663.1328,1156,1667.1328,1146,1671.1328,1150,1667.1328" style="stroke: #383838; stroke-width: 1.0;"/><line style="stroke: #383838; stroke-width: 1.0; stroke-dasharray: 2.0,2.0;" x1="250" x2="1152" y1="1667.1328" y2="1667.1328"/><text fill="#000000" font-family="sans-serif" font-size="13" lengthAdjust="spacingAndGlyphs" textLength="79" x="257" y="1662.6279">VBA:PrintOut</text><polygon fill="#383838" points="1236.5,1693.4844,1246.5,1697.4844,1236.5,1701.4844,1240.5,1697.4844" style="stroke: #383838; stroke-width: 1.0;"/><line style="stroke: #383838; stroke-width: 1.0; stroke-dasharray: 2.0,2.0;" x1="250" x2="1242.5" y1="1697.4844" y2="1697.4844"/><text fill="#000000" font-family="sans-serif" font-size="13" lengthAdjust="spacingAndGlyphs" textLength="79" x="257" y="1692.9795">VBA:PrintOut</text><polygon fill="#383838" points="14,1723.8359,4,1727.8359,14,1731.8359,10,1727.8359" style="stroke: #383838; stroke-width: 1.0;"/><line style="stroke: #383838; stroke-width: 1.0;" x1="8" x2="244" y1="1727.8359" y2="1727.8359"/><text fill="#000000" font-family="sans-serif" font-size="13" lengthAdjust="spacingAndGlyphs" textLength="91" x="20" y="1723.3311">終了メッセージ</text></g></svg>