<?xml version="1.0" encoding="UTF-8" standalone="no"?><svg xmlns="http://www.w3.org/2000/svg" xmlns:xlink="http://www.w3.org/1999/xlink" contentScriptType="application/ecmascript" contentStyleType="text/css" height="2136px" preserveAspectRatio="none" style="width:1482px;height:2136px;" version="1.1" viewBox="0 0 1482 2136" width="1482px" zoomAndPan="magnify"><defs><filter height="300%" id="facfyne" width="300%" x="-1" y="-1"><feGaussianBlur result="blurOut" stdDeviation="2.0"/><feColorMatrix in="blurOut" result="blurOut2" type="matrix" values="0 0 0 0 0 0 0 0 0 0 0 0 0 0 0 0 0 0 .4 0"/><feOffset dx="4.0" dy="4.0" in="blurOut2" result="blurOut3"/><feBlend in="SourceGraphic" in2="blurOut3" mode="normal"/></filter></defs><g><text fill="#000000" font-family="sans-serif" font-size="14" font-weight="bold" lengthAdjust="spacingAndGlyphs" textLength="193" x="646.5" y="24.5332">ピッキングテンプレートVBA</text><rect fill="#FFFFFF" filter="url(#facfyne)" height="1903.8945" style="stroke: #383838; stroke-width: 1.0;" width="10" x="240" y="144.457"/><rect fill="#FFFFFF" filter="url(#facfyne)" height="120.4063" style="stroke: #383838; stroke-width: 1.0;" width="10" x="353" y="181.6953"/><rect fill="#FFFFFF" filter="url(#facfyne)" height="116.0547" style="stroke: #383838; stroke-width: 1.0;" width="10" x="619" y="393.1563"/><rect fill="#FFFFFF" filter="url(#facfyne)" height="91.0547" style="stroke: #383838; stroke-width: 1.0;" width="10" x="619" y="539.5625"/><rect fill="#FFFFFF" filter="url(#facfyne)" height="91.0547" style="stroke: #383838; stroke-width: 1.0;" width="10" x="714.5" y="660.9688"/><rect fill="#FFFFFF" filter="url(#facfyne)" height="60.7031" style="stroke: #383838; stroke-width: 1.0;" width="10" x="854" y="332.4531"/><rect fill="#FFFFFF" filter="url(#facfyne)" height="85.7031" style="stroke: #383838; stroke-width: 1.0;" width="10" x="854" y="782.375"/><rect fill="#FFFFFF" filter="url(#facfyne)" height="469.4063" style="stroke: #383838; stroke-width: 1.0;" width="10" x="1013" y="948.7813"/><rect fill="#FFFFFF" filter="url(#facfyne)" height="408.7031" style="stroke: #383838; stroke-width: 1.0;" width="10" x="1013" y="1511.2422"/><rect fill="#FFFFFF" filter="url(#facfyne)" height="518.1094" style="stroke: #000000; stroke-width: 2.0;" width="1081" x="211" y="908.4297"/><text fill="#000000" font-family="sans-serif" font-size="14" lengthAdjust="spacingAndGlyphs" textLength="77" x="1112" y="1034.0176">Picking_2_3</text><ellipse cx="1153.5" cy="1003.4844" fill="#F8F8F8" filter="url(#facfyne)" rx="12" ry="12" style="stroke: #383838; stroke-width: 2.0;"/><line style="stroke: #383838; stroke-width: 2.0;" x1="1141.5" x2="1165.5" y1="1017.4844" y2="1017.4844"/><text fill="#000000" font-family="sans-serif" font-size="14" lengthAdjust="spacingAndGlyphs" textLength="61" x="1205" y="1093.627">Picking_a</text><ellipse cx="1238.5" cy="1063.0938" fill="#F8F8F8" filter="url(#facfyne)" rx="12" ry="12" style="stroke: #383838; stroke-width: 2.0;"/><line style="stroke: #383838; stroke-width: 2.0;" x1="1226.5" x2="1250.5" y1="1077.0938" y2="1077.0938"/><rect fill="#FFFFFF" filter="url(#facfyne)" height="110.7266" style="stroke: #000000; stroke-width: 2.0;" width="323.5" x="958.5" y="1248.1094"/><rect fill="#FFFFFF" height="46.1875" style="stroke: none; stroke-width: 1.0;" width="323.5" x="958.5" y="1266.4609"/><rect fill="#FFFFFF" height="46.1875" style="stroke: none; stroke-width: 1.0;" width="323.5" x="958.5" y="1312.6484"/><rect fill="#FFFFFF" filter="url(#facfyne)" height="457.4063" style="stroke: #000000; stroke-width: 2.0;" width="1262" x="211" y="1470.8906"/><text fill="#000000" font-family="sans-serif" font-size="14" lengthAdjust="spacingAndGlyphs" textLength="61" x="1282" y="1566.127">ForSorter</text><ellipse cx="1315.5" cy="1535.5938" fill="#F8F8F8" filter="url(#facfyne)" rx="12" ry="12" style="stroke: #383838; stroke-width: 2.0;"/><line style="stroke: #383838; stroke-width: 2.0;" x1="1303.5" x2="1327.5" y1="1549.5938" y2="1549.5938"/><text fill="#000000" font-family="sans-serif" font-size="14" lengthAdjust="spacingAndGlyphs" textLength="88" x="1359" y="1625.7363">ForSorter_set</text><ellipse cx="1406" cy="1595.2031" fill="#F8F8F8" filter="url(#facfyne)" rx="12" ry="12" style="stroke: #383838; stroke-width: 2.0;"/><line style="stroke: #383838; stroke-width: 2.0;" x1="1394" x2="1418" y1="1609.2031" y2="1609.2031"/><rect fill="#FFFFFF" filter="url(#facfyne)" height="110.7266" style="stroke: #000000; stroke-width: 2.0;" width="504.5" x="958.5" y="1780.2188"/><rect fill="#FFFFFF" height="46.1875" style="stroke: none; stroke-width: 1.0;" width="504.5" x="958.5" y="1798.5703"/><rect fill="#FFFFFF" height="46.1875" style="stroke: none; stroke-width: 1.0;" width="504.5" x="958.5" y="1844.7578"/><rect fill="#FFFFFF" height="2097.7031" style="stroke: #383838; stroke-width: 1.0;" width="148" x="67" y="35.6094"/><text fill="#000000" font-family="sans-serif" font-size="13" font-weight="bold" lengthAdjust="spacingAndGlyphs" textLength="84" x="99" y="49.1045">外部ファイル</text><line style="stroke: #383838; stroke-width: 1.0; stroke-dasharray: 5.0,5.0;" x1="34" x2="34" y1="105.5703" y2="2066.7031"/><line style="stroke: #383838; stroke-width: 1.0; stroke-dasharray: 5.0,5.0;" x1="88" x2="88" y1="105.5703" y2="2066.7031"/><line style="stroke: #383838; stroke-width: 1.0; stroke-dasharray: 5.0,5.0;" x1="163" x2="163" y1="105.5703" y2="2066.7031"/><line style="stroke: #383838; stroke-width: 1.0; stroke-dasharray: 5.0,5.0;" x1="245" x2="245" y1="105.5703" y2="2066.7031"/><line style="stroke: #383838; stroke-width: 1.0; stroke-dasharray: 5.0,5.0;" x1="358" x2="358" y1="105.5703" y2="2066.7031"/><line style="stroke: #383838; stroke-width: 1.0; stroke-dasharray: 5.0,5.0;" x1="478" x2="478" y1="105.5703" y2="2066.7031"/><line style="stroke: #383838; stroke-width: 1.0; stroke-dasharray: 5.0,5.0;" x1="623.5" x2="623.5" y1="105.5703" y2="2066.7031"/><line style="stroke: #383838; stroke-width: 1.0; stroke-dasharray: 5.0,5.0;" x1="719.5" x2="719.5" y1="105.5703" y2="2066.7031"/><line style="stroke: #383838; stroke-width: 1.0; stroke-dasharray: 5.0,5.0;" x1="858.5" x2="858.5" y1="105.5703" y2="2066.7031"/><line style="stroke: #383838; stroke-width: 1.0; stroke-dasharray: 5.0,5.0;" x1="1017.5" x2="1017.5" y1="105.5703" y2="2066.7031"/><line style="stroke: #383838; stroke-width: 1.0; stroke-dasharray: 5.0,5.0;" x1="1153" x2="1153" y1="1027.2891" y2="2066.7031"/><line style="stroke: #383838; stroke-width: 1.0; stroke-dasharray: 5.0,5.0;" x1="1238" x2="1238" y1="1086.8984" y2="2066.7031"/><line style="stroke: #383838; stroke-width: 1.0; stroke-dasharray: 5.0,5.0;" x1="1315" x2="1315" y1="1559.3984" y2="2066.7031"/><line style="stroke: #383838; stroke-width: 1.0; stroke-dasharray: 5.0,5.0;" x1="1406" x2="1406" y1="1619.0078" y2="2066.7031"/><text fill="#000000" font-family="sans-serif" font-size="14" lengthAdjust="spacingAndGlyphs" textLength="47" x="8" y="102.4941">社内DB</text><path d="M16.5,51.9609 C16.5,41.9609 34.5,41.9609 34.5,41.9609 C34.5,41.9609 52.5,41.9609 52.5,51.9609 L52.5,77.9609 C52.5,87.9609 34.5,87.9609 34.5,87.9609 C34.5,87.9609 16.5,87.9609 16.5,77.9609 L16.5,51.9609 " fill="#F8F8F8" filter="url(#facfyne)" style="stroke: #000000; stroke-width: 1.5;"/><path d="M16.5,51.9609 C16.5,61.9609 34.5,61.9609 34.5,61.9609 C34.5,61.9609 52.5,61.9609 52.5,51.9609 " fill="none" style="stroke: #000000; stroke-width: 1.5;"/><text fill="#000000" font-family="sans-serif" font-size="14" lengthAdjust="spacingAndGlyphs" textLength="47" x="8" y="2080.2363">社内DB</text><path d="M16.5,2093.3125 C16.5,2083.3125 34.5,2083.3125 34.5,2083.3125 C34.5,2083.3125 52.5,2083.3125 52.5,2093.3125 L52.5,2119.3125 C52.5,2129.3125 34.5,2129.3125 34.5,2129.3125 C34.5,2129.3125 16.5,2129.3125 16.5,2119.3125 L16.5,2093.3125 " fill="#F8F8F8" filter="url(#facfyne)" style="stroke: #000000; stroke-width: 1.5;"/><path d="M16.5,2093.3125 C16.5,2103.3125 34.5,2103.3125 34.5,2103.3125 C34.5,2103.3125 52.5,2103.3125 52.5,2093.3125 " fill="none" style="stroke: #000000; stroke-width: 1.5;"/><text fill="#000000" font-family="sans-serif" font-size="14" lengthAdjust="spacingAndGlyphs" textLength="28" x="71" y="102.4941">CSV</text><ellipse cx="88" cy="71.9609" fill="#F8F8F8" filter="url(#facfyne)" rx="12" ry="12" style="stroke: #383838; stroke-width: 2.0;"/><line style="stroke: #383838; stroke-width: 2.0;" x1="76" x2="100" y1="85.9609" y2="85.9609"/><text fill="#000000" font-family="sans-serif" font-size="14" lengthAdjust="spacingAndGlyphs" textLength="28" x="71" y="2080.2363">CSV</text><ellipse cx="88" cy="2099.3125" fill="#F8F8F8" filter="url(#facfyne)" rx="12" ry="12" style="stroke: #383838; stroke-width: 2.0;"/><line style="stroke: #383838; stroke-width: 2.0;" x1="76" x2="100" y1="2113.3125" y2="2113.3125"/><text fill="#000000" font-family="sans-serif" font-size="14" lengthAdjust="spacingAndGlyphs" textLength="90" x="115" y="102.4941">ｾｯﾄ商品ﾘｽﾄ.xls</text><ellipse cx="163" cy="71.9609" fill="#F8F8F8" filter="url(#facfyne)" rx="12" ry="12" style="stroke: #383838; stroke-width: 2.0;"/><line style="stroke: #383838; stroke-width: 2.0;" x1="151" x2="175" y1="85.9609" y2="85.9609"/><text fill="#000000" font-family="sans-serif" font-size="14" lengthAdjust="spacingAndGlyphs" textLength="90" x="115" y="2080.2363">ｾｯﾄ商品ﾘｽﾄ.xls</text><ellipse cx="163" cy="2099.3125" fill="#F8F8F8" filter="url(#facfyne)" rx="12" ry="12" style="stroke: #383838; stroke-width: 2.0;"/><line style="stroke: #383838; stroke-width: 2.0;" x1="151" x2="175" y1="2113.3125" y2="2113.3125"/><rect fill="#F8F8F8" filter="url(#facfyne)" height="31.6094" style="stroke: #383838; stroke-width: 1.5;" width="44" x="221" y="68.9609"/><text fill="#000000" font-family="sans-serif" font-size="14" lengthAdjust="spacingAndGlyphs" textLength="30" x="228" y="90.4941">Main</text><rect fill="#F8F8F8" filter="url(#facfyne)" height="31.6094" style="stroke: #383838; stroke-width: 1.5;" width="44" x="221" y="2065.7031"/><text fill="#000000" font-family="sans-serif" font-size="14" lengthAdjust="spacingAndGlyphs" textLength="30" x="228" y="2087.2363">Main</text><rect fill="#F8F8F8" filter="url(#facfyne)" height="31.6094" style="stroke: #383838; stroke-width: 1.5;" width="70" x="321" y="68.9609"/><text fill="#000000" font-family="sans-serif" font-size="14" lengthAdjust="spacingAndGlyphs" textLength="56" x="328" y="90.4941">LoadCsv</text><rect fill="#F8F8F8" filter="url(#facfyne)" height="31.6094" style="stroke: #383838; stroke-width: 1.5;" width="70" x="321" y="2065.7031"/><text fill="#000000" font-family="sans-serif" font-size="14" lengthAdjust="spacingAndGlyphs" textLength="56" x="328" y="2087.2363">LoadCsv</text><text fill="#000000" font-family="sans-serif" font-size="14" lengthAdjust="spacingAndGlyphs" textLength="74" x="438" y="102.4941">OrderSheet</text><ellipse cx="478" cy="71.9609" fill="#F8F8F8" filter="url(#facfyne)" rx="12" ry="12" style="stroke: #383838; stroke-width: 2.0;"/><line style="stroke: #383838; stroke-width: 2.0;" x1="466" x2="490" y1="85.9609" y2="85.9609"/><text fill="#000000" font-family="sans-serif" font-size="14" lengthAdjust="spacingAndGlyphs" textLength="74" x="438" y="2080.2363">OrderSheet</text><ellipse cx="478" cy="2099.3125" fill="#F8F8F8" filter="url(#facfyne)" rx="12" ry="12" style="stroke: #383838; stroke-width: 2.0;"/><line style="stroke: #383838; stroke-width: 2.0;" x1="466" x2="490" y1="2113.3125" y2="2113.3125"/><rect fill="#F8F8F8" filter="url(#facfyne)" height="31.6094" style="stroke: #383838; stroke-width: 1.5;" width="77" x="583.5" y="68.9609"/><text fill="#000000" font-family="sans-serif" font-size="14" lengthAdjust="spacingAndGlyphs" textLength="63" x="590.5" y="90.4941">SetParser</text><rect fill="#F8F8F8" filter="url(#facfyne)" height="31.6094" style="stroke: #383838; stroke-width: 1.5;" width="77" x="583.5" y="2065.7031"/><text fill="#000000" font-family="sans-serif" font-size="14" lengthAdjust="spacingAndGlyphs" textLength="63" x="590.5" y="2087.2363">SetParser</text><rect fill="#F8F8F8" filter="url(#facfyne)" height="31.6094" style="stroke: #383838; stroke-width: 1.5;" width="86" x="674.5" y="68.9609"/><text fill="#000000" font-family="sans-serif" font-size="14" lengthAdjust="spacingAndGlyphs" textLength="72" x="681.5" y="90.4941">ConnectDB</text><rect fill="#F8F8F8" filter="url(#facfyne)" height="31.6094" style="stroke: #383838; stroke-width: 1.5;" width="86" x="674.5" y="2065.7031"/><text fill="#000000" font-family="sans-serif" font-size="14" lengthAdjust="spacingAndGlyphs" textLength="72" x="681.5" y="2087.2363">ConnectDB</text><rect fill="#F8F8F8" filter="url(#facfyne)" height="31.6094" style="stroke: #383838; stroke-width: 1.5;" width="95" x="809.5" y="68.9609"/><text fill="#000000" font-family="sans-serif" font-size="14" lengthAdjust="spacingAndGlyphs" textLength="81" x="816.5" y="90.4941">DataValidate</text><rect fill="#F8F8F8" filter="url(#facfyne)" height="31.6094" style="stroke: #383838; stroke-width: 1.5;" width="95" x="809.5" y="2065.7031"/><text fill="#000000" font-family="sans-serif" font-size="14" lengthAdjust="spacingAndGlyphs" textLength="81" x="816.5" y="2087.2363">DataValidate</text><rect fill="#F8F8F8" filter="url(#facfyne)" height="31.6094" style="stroke: #383838; stroke-width: 1.5;" width="95" x="968.5" y="68.9609"/><text fill="#000000" font-family="sans-serif" font-size="14" lengthAdjust="spacingAndGlyphs" textLength="81" x="975.5" y="90.4941">SheetBuilder</text><rect fill="#F8F8F8" filter="url(#facfyne)" height="31.6094" style="stroke: #383838; stroke-width: 1.5;" width="95" x="968.5" y="2065.7031"/><text fill="#000000" font-family="sans-serif" font-size="14" lengthAdjust="spacingAndGlyphs" textLength="81" x="975.5" y="2087.2363">SheetBuilder</text><text fill="#000000" font-family="sans-serif" font-size="14" lengthAdjust="spacingAndGlyphs" textLength="77" x="1112" y="2080.2363">Picking_2_3</text><ellipse cx="1153.5" cy="2099.3125" fill="#F8F8F8" filter="url(#facfyne)" rx="12" ry="12" style="stroke: #383838; stroke-width: 2.0;"/><line style="stroke: #383838; stroke-width: 2.0;" x1="1141.5" x2="1165.5" y1="2113.3125" y2="2113.3125"/><text fill="#000000" font-family="sans-serif" font-size="14" lengthAdjust="spacingAndGlyphs" textLength="61" x="1205" y="2080.2363">Picking_a</text><ellipse cx="1238.5" cy="2099.3125" fill="#F8F8F8" filter="url(#facfyne)" rx="12" ry="12" style="stroke: #383838; stroke-width: 2.0;"/><line style="stroke: #383838; stroke-width: 2.0;" x1="1226.5" x2="1250.5" y1="2113.3125" y2="2113.3125"/><text fill="#000000" font-family="sans-serif" font-size="14" lengthAdjust="spacingAndGlyphs" textLength="61" x="1282" y="2080.2363">ForSorter</text><ellipse cx="1315.5" cy="2099.3125" fill="#F8F8F8" filter="url(#facfyne)" rx="12" ry="12" style="stroke: #383838; stroke-width: 2.0;"/><line style="stroke: #383838; stroke-width: 2.0;" x1="1303.5" x2="1327.5" y1="2113.3125" y2="2113.3125"/><text fill="#000000" font-family="sans-serif" font-size="14" lengthAdjust="spacingAndGlyphs" textLength="88" x="1359" y="2080.2363">ForSorter_set</text><ellipse cx="1406" cy="2099.3125" fill="#F8F8F8" filter="url(#facfyne)" rx="12" ry="12" style="stroke: #383838; stroke-width: 2.0;"/><line style="stroke: #383838; stroke-width: 2.0;" x1="1394" x2="1418" y1="2113.3125" y2="2113.3125"/><rect fill="#FFFFFF" filter="url(#facfyne)" height="1903.8945" style="stroke: #383838; stroke-width: 1.0;" width="10" x="240" y="144.457"/><rect fill="#FFFFFF" filter="url(#facfyne)" height="120.4063" style="stroke: #383838; stroke-width: 1.0;" width="10" x="353" y="181.6953"/><rect fill="#FFFFFF" filter="url(#facfyne)" height="116.0547" style="stroke: #383838; stroke-width: 1.0;" width="10" x="619" y="393.1563"/><rect fill="#FFFFFF" filter="url(#facfyne)" height="91.0547" style="stroke: #383838; stroke-width: 1.0;" width="10" x="619" y="539.5625"/><rect fill="#FFFFFF" filter="url(#facfyne)" height="91.0547" style="stroke: #383838; stroke-width: 1.0;" width="10" x="714.5" y="660.9688"/><rect fill="#FFFFFF" filter="url(#facfyne)" height="60.7031" style="stroke: #383838; stroke-width: 1.0;" width="10" x="854" y="332.4531"/><rect fill="#FFFFFF" filter="url(#facfyne)" height="85.7031" style="stroke: #383838; stroke-width: 1.0;" width="10" x="854" y="782.375"/><rect fill="#FFFFFF" filter="url(#facfyne)" height="469.4063" style="stroke: #383838; stroke-width: 1.0;" width="10" x="1013" y="948.7813"/><rect fill="#FFFFFF" filter="url(#facfyne)" height="408.7031" style="stroke: #383838; stroke-width: 1.0;" width="10" x="1013" y="1511.2422"/><polygon fill="#383838" points="228,140.457,238,144.457,228,148.457,232,144.457" style="stroke: #383838; stroke-width: 1.0;"/><line style="stroke: #383838; stroke-width: 1.0;" x1="3" x2="234" y1="144.457" y2="144.457"/><text fill="#000000" font-family="sans-serif" font-size="13" lengthAdjust="spacingAndGlyphs" textLength="65" x="10" y="139.9521">マクロ起動</text><polygon fill="#ECECEC" filter="url(#facfyne)" points="255,120.5703,255,150.5703,468,150.5703,468,130.5703,458,120.5703,255,120.5703" style="stroke: #383838; stroke-width: 1.0;"/><line style="stroke: #383838; stroke-width: 1.0;" x1="458" x2="458" y1="120.5703" y2="130.5703"/><line style="stroke: #383838; stroke-width: 1.0;" x1="468" x2="458" y1="130.5703" y2="130.5703"/><text fill="#000000" font-family="sans-serif" font-size="16" lengthAdjust="spacingAndGlyphs" textLength="192" x="261" y="142.1797">進捗表示ダイアログを実装</text><polygon fill="#383838" points="341,177.6953,351,181.6953,341,185.6953,345,181.6953" style="stroke: #383838; stroke-width: 1.0;"/><line style="stroke: #383838; stroke-width: 1.0;" x1="250" x2="347" y1="181.6953" y2="181.6953"/><text fill="#000000" font-family="sans-serif" font-size="13" lengthAdjust="spacingAndGlyphs" textLength="84" x="257" y="177.1904">Sub LoadCsv()</text><line style="stroke: #383838; stroke-width: 1.0;" x1="363" x2="405" y1="228.75" y2="228.75"/><line style="stroke: #383838; stroke-width: 1.0;" x1="405" x2="405" y1="228.75" y2="241.75"/><line style="stroke: #383838; stroke-width: 1.0;" x1="364" x2="405" y1="241.75" y2="241.75"/><polygon fill="#383838" points="374,237.75,364,241.75,374,245.75,370,241.75" style="stroke: #383838; stroke-width: 1.0;"/><text fill="#000000" font-family="sans-serif" font-size="13" lengthAdjust="spacingAndGlyphs" textLength="53" x="370" y="207.542">CSV指定</text><text fill="#000000" font-family="sans-serif" font-size="13" lengthAdjust="spacingAndGlyphs" textLength="78" x="370" y="223.8936">日付チェック</text><polygon fill="#383838" points="99,267.75,89,271.75,99,275.75,95,271.75" style="stroke: #383838; stroke-width: 1.0;"/><line style="stroke: #383838; stroke-width: 1.0;" x1="93" x2="352" y1="271.75" y2="271.75"/><text fill="#000000" font-family="sans-serif" font-size="13" lengthAdjust="spacingAndGlyphs" textLength="65" x="105" y="267.2451">データ接続</text><polygon fill="#383838" points="466,298.1016,476,302.1016,466,306.1016,470,302.1016" style="stroke: #383838; stroke-width: 1.0;"/><line style="stroke: #383838; stroke-width: 1.0;" x1="358" x2="472" y1="302.1016" y2="302.1016"/><text fill="#000000" font-family="sans-serif" font-size="13" lengthAdjust="spacingAndGlyphs" textLength="91" x="365" y="297.5967">受注データ取込</text><polygon fill="#383838" points="842,328.4531,852,332.4531,842,336.4531,846,332.4531" style="stroke: #383838; stroke-width: 1.0;"/><line style="stroke: #383838; stroke-width: 1.0;" x1="250" x2="848" y1="332.4531" y2="332.4531"/><text fill="#000000" font-family="sans-serif" font-size="13" lengthAdjust="spacingAndGlyphs" textLength="282" x="257" y="327.9482">FixForAddin() 社内DBと照合のためにコード修正</text><polygon fill="#383838" points="489,358.8047,479,362.8047,489,366.8047,485,362.8047" style="stroke: #383838; stroke-width: 1.0;"/><line style="stroke: #383838; stroke-width: 1.0;" x1="483" x2="853" y1="362.8047" y2="362.8047"/><text fill="#000000" font-family="sans-serif" font-size="13" lengthAdjust="spacingAndGlyphs" textLength="104" x="495" y="358.2998">照合用コード書込</text><polygon fill="#383838" points="640,389.1563,630,393.1563,640,397.1563,636,393.1563" style="stroke: #383838; stroke-width: 1.0;"/><line style="stroke: #383838; stroke-width: 1.0;" x1="634" x2="858" y1="393.1563" y2="393.1563"/><text fill="#000000" font-family="sans-serif" font-size="13" lengthAdjust="spacingAndGlyphs" textLength="206" x="646" y="388.6514">○個組分解 Sub ParseScalingItem()</text><polygon fill="#383838" points="607,444.5078,617,448.5078,607,452.5078,611,448.5078" style="stroke: #383838; stroke-width: 1.0;"/><line style="stroke: #383838; stroke-width: 1.0;" x1="478" x2="613" y1="448.5078" y2="448.5078"/><text fill="#000000" font-family="sans-serif" font-size="13" lengthAdjust="spacingAndGlyphs" textLength="117" x="485" y="444.0029">ハイフン入りコード</text><polygon fill="#383838" points="489,474.8594,479,478.8594,489,482.8594,485,478.8594" style="stroke: #383838; stroke-width: 1.0;"/><line style="stroke: #383838; stroke-width: 1.0;" x1="483" x2="618" y1="478.8594" y2="478.8594"/><text fill="#000000" font-family="sans-serif" font-size="13" lengthAdjust="spacingAndGlyphs" textLength="78" x="495" y="474.3545">単体数量上書</text><polygon fill="#383838" points="489,505.2109,479,509.2109,489,513.2109,485,509.2109" style="stroke: #383838; stroke-width: 1.0;"/><line style="stroke: #383838; stroke-width: 1.0;" x1="483" x2="623" y1="509.2109" y2="509.2109"/><text fill="#000000" font-family="sans-serif" font-size="13" lengthAdjust="spacingAndGlyphs" textLength="91" x="495" y="504.7061">単体コード上書</text><polygon fill="#383838" points="607,535.5625,617,539.5625,607,543.5625,611,539.5625" style="stroke: #383838; stroke-width: 1.0;"/><line style="stroke: #383838; stroke-width: 1.0;" x1="250" x2="613" y1="539.5625" y2="539.5625"/><text fill="#000000" font-family="sans-serif" font-size="13" lengthAdjust="spacingAndGlyphs" textLength="202" x="257" y="535.0576">7777 セット分解 Sub ParseItems()</text><polygon fill="#383838" points="174,565.9141,164,569.9141,174,573.9141,170,569.9141" style="stroke: #383838; stroke-width: 1.0;"/><line style="stroke: #383838; stroke-width: 1.0; stroke-dasharray: 2.0,2.0;" x1="168" x2="618" y1="569.9141" y2="569.9141"/><text fill="#000000" font-family="sans-serif" font-size="13" lengthAdjust="spacingAndGlyphs" textLength="139" x="180" y="565.4092">77777xxxxxコード 検索</text><polygon fill="#383838" points="607,596.2656,617,600.2656,607,604.2656,611,600.2656" style="stroke: #383838; stroke-width: 1.0;"/><line style="stroke: #383838; stroke-width: 1.0; stroke-dasharray: 2.0,2.0;" x1="163" x2="613" y1="600.2656" y2="600.2656"/><text fill="#000000" font-family="sans-serif" font-size="13" lengthAdjust="spacingAndGlyphs" textLength="130" x="170" y="595.7607">構成商品コレクション</text><polygon fill="#383838" points="489,626.6172,479,630.6172,489,634.6172,485,630.6172" style="stroke: #383838; stroke-width: 1.0;"/><line style="stroke: #383838; stroke-width: 1.0;" x1="483" x2="623" y1="630.6172" y2="630.6172"/><text fill="#000000" font-family="sans-serif" font-size="13" lengthAdjust="spacingAndGlyphs" textLength="91" x="495" y="626.1123">アイテム行挿入</text><polygon fill="#383838" points="702.5,656.9688,712.5,660.9688,702.5,664.9688,706.5,660.9688" style="stroke: #383838; stroke-width: 1.0;"/><line style="stroke: #383838; stroke-width: 1.0;" x1="250" x2="708.5" y1="660.9688" y2="660.9688"/><text fill="#000000" font-family="sans-serif" font-size="13" lengthAdjust="spacingAndGlyphs" textLength="95" x="257" y="656.4639">Sub Make_List()</text><polygon fill="#383838" points="45.5,687.3203,35.5,691.3203,45.5,695.3203,41.5,691.3203" style="stroke: #383838; stroke-width: 1.0;"/><line style="stroke: #383838; stroke-width: 1.0;" x1="39.5" x2="713.5" y1="691.3203" y2="691.3203"/><text fill="#000000" font-family="sans-serif" font-size="13" lengthAdjust="spacingAndGlyphs" textLength="117" x="51.5" y="686.8154">ロケーション問合せ</text><polygon fill="#383838" points="702.5,717.6719,712.5,721.6719,702.5,725.6719,706.5,721.6719" style="stroke: #383838; stroke-width: 1.0;"/><line style="stroke: #383838; stroke-width: 1.0;" x1="34.5" x2="708.5" y1="721.6719" y2="721.6719"/><text fill="#000000" font-family="sans-serif" font-size="13" lengthAdjust="spacingAndGlyphs" textLength="104" x="41.5" y="717.167">ロケーション取得</text><polygon fill="#383838" points="489,748.0234,479,752.0234,489,756.0234,485,752.0234" style="stroke: #383838; stroke-width: 1.0;"/><line style="stroke: #383838; stroke-width: 1.0;" x1="483" x2="718.5" y1="752.0234" y2="752.0234"/><text fill="#000000" font-family="sans-serif" font-size="13" lengthAdjust="spacingAndGlyphs" textLength="104" x="495" y="747.5186">ロケーション書込</text><polygon fill="#383838" points="842,778.375,852,782.375,842,786.375,846,782.375" style="stroke: #383838; stroke-width: 1.0;"/><line style="stroke: #383838; stroke-width: 1.0;" x1="250" x2="848" y1="782.375" y2="782.375"/><text fill="#000000" font-family="sans-serif" font-size="13" lengthAdjust="spacingAndGlyphs" textLength="119" x="257" y="777.8701">Sub LocationCutter()</text><polygon fill="#383838" points="842,833.7266,852,837.7266,842,841.7266,846,837.7266" style="stroke: #383838; stroke-width: 1.0;"/><line style="stroke: #383838; stroke-width: 1.0;" x1="478" x2="848" y1="837.7266" y2="837.7266"/><text fill="#000000" font-family="sans-serif" font-size="13" lengthAdjust="spacingAndGlyphs" textLength="91" x="485" y="833.2217">ロケ文字列取得</text><polygon fill="#383838" points="489,864.0781,479,868.0781,489,872.0781,485,868.0781" style="stroke: #383838; stroke-width: 1.0;"/><line style="stroke: #383838; stroke-width: 1.0;" x1="483" x2="858" y1="868.0781" y2="868.0781"/><text fill="#000000" font-family="sans-serif" font-size="13" lengthAdjust="spacingAndGlyphs" textLength="78" x="495" y="863.5732">無効ロケ削除</text><rect fill="none" height="518.1094" style="stroke: #000000; stroke-width: 2.0;" width="1081" x="211" y="908.4297"/><polygon fill="#EEEEEE" points="211,908.4297,284,908.4297,284,916.4297,274,926.4297,211,926.4297,211,908.4297" style="stroke: #000000; stroke-width: 2.0;"/><text fill="#000000" font-family="sans-serif" font-size="13" font-weight="bold" lengthAdjust="spacingAndGlyphs" textLength="28" x="226" y="922.9248">loop</text><text fill="#000000" font-family="sans-serif" font-size="11" font-weight="bold" lengthAdjust="spacingAndGlyphs" textLength="185" x="299" y="921.8486">[3モール分 ピッキングシート作成]</text><polygon fill="#383838" points="1001,944.7813,1011,948.7813,1001,952.7813,1005,948.7813" style="stroke: #383838; stroke-width: 1.0;"/><line style="stroke: #383838; stroke-width: 1.0;" x1="250" x2="1007" y1="948.7813" y2="948.7813"/><text fill="#000000" font-family="sans-serif" font-size="13" lengthAdjust="spacingAndGlyphs" textLength="116" x="257" y="944.2764">Sub CreatePicking()</text><polygon fill="#383838" points="489,975.1328,479,979.1328,489,983.1328,485,979.1328" style="stroke: #383838; stroke-width: 1.0;"/><line style="stroke: #383838; stroke-width: 1.0; stroke-dasharray: 2.0,2.0;" x1="483" x2="1012" y1="979.1328" y2="979.1328"/><text fill="#000000" font-family="sans-serif" font-size="13" lengthAdjust="spacingAndGlyphs" textLength="160" x="495" y="974.6279">モール別 受注件数チェック</text><polygon fill="#383838" points="1100,1005.4844,1110,1009.4844,1100,1013.4844,1104,1009.4844" style="stroke: #383838; stroke-width: 1.0;"/><line style="stroke: #383838; stroke-width: 1.0;" x1="1023" x2="1106" y1="1009.4844" y2="1009.4844"/><text fill="#000000" font-family="sans-serif" font-size="13" lengthAdjust="spacingAndGlyphs" textLength="65" x="1030" y="1004.9795">ブック作成</text><text fill="#000000" font-family="sans-serif" font-size="14" lengthAdjust="spacingAndGlyphs" textLength="77" x="1112" y="1034.0176">Picking_2_3</text><ellipse cx="1153.5" cy="1003.4844" fill="#F8F8F8" filter="url(#facfyne)" rx="12" ry="12" style="stroke: #383838; stroke-width: 2.0;"/><line style="stroke: #383838; stroke-width: 2.0;" x1="1141.5" x2="1165.5" y1="1017.4844" y2="1017.4844"/><polygon fill="#383838" points="1193,1065.0938,1203,1069.0938,1193,1073.0938,1197,1069.0938" style="stroke: #383838; stroke-width: 1.0;"/><line style="stroke: #383838; stroke-width: 1.0;" x1="1023" x2="1199" y1="1069.0938" y2="1069.0938"/><text fill="#000000" font-family="sans-serif" font-size="13" lengthAdjust="spacingAndGlyphs" textLength="65" x="1030" y="1064.5889">ブック作成</text><text fill="#000000" font-family="sans-serif" font-size="14" lengthAdjust="spacingAndGlyphs" textLength="61" x="1205" y="1093.627">Picking_a</text><ellipse cx="1238.5" cy="1063.0938" fill="#F8F8F8" filter="url(#facfyne)" rx="12" ry="12" style="stroke: #383838; stroke-width: 2.0;"/><line style="stroke: #383838; stroke-width: 2.0;" x1="1226.5" x2="1250.5" y1="1077.0938" y2="1077.0938"/><polygon fill="#383838" points="489,1124.7031,479,1128.7031,489,1132.7031,485,1128.7031" style="stroke: #383838; stroke-width: 1.0;"/><line style="stroke: #383838; stroke-width: 1.0;" x1="483" x2="1012" y1="1128.7031" y2="1128.7031"/><text fill="#000000" font-family="sans-serif" font-size="13" lengthAdjust="spacingAndGlyphs" textLength="91" x="495" y="1124.1982">受注データ取得</text><line style="stroke: #383838; stroke-width: 1.0; stroke-dasharray: 2.0,2.0;" x1="1023" x2="1065" y1="1159.4063" y2="1159.4063"/><line style="stroke: #383838; stroke-width: 1.0; stroke-dasharray: 2.0,2.0;" x1="1065" x2="1065" y1="1159.4063" y2="1172.4063"/><line style="stroke: #383838; stroke-width: 1.0; stroke-dasharray: 2.0,2.0;" x1="1024" x2="1065" y1="1172.4063" y2="1172.4063"/><polygon fill="#383838" points="1034,1168.4063,1024,1172.4063,1034,1176.4063,1030,1172.4063" style="stroke: #383838; stroke-width: 1.0;"/><text fill="#000000" font-family="sans-serif" font-size="13" lengthAdjust="spacingAndGlyphs" textLength="91" x="1030" y="1154.5498">受注モール判定</text><polygon fill="#383838" points="870,1198.4063,860,1202.4063,870,1206.4063,866,1202.4063" style="stroke: #383838; stroke-width: 1.0;"/><line style="stroke: #383838; stroke-width: 1.0;" x1="864" x2="1012" y1="1202.4063" y2="1202.4063"/><text fill="#000000" font-family="sans-serif" font-size="13" lengthAdjust="spacingAndGlyphs" textLength="89" x="876" y="1197.9014">ValidateName()</text><polygon fill="#383838" points="1001,1228.7578,1011,1232.7578,1001,1236.7578,1005,1232.7578" style="stroke: #383838; stroke-width: 1.0;"/><line style="stroke: #383838; stroke-width: 1.0;" x1="859" x2="1007" y1="1232.7578" y2="1232.7578"/><text fill="#000000" font-family="sans-serif" font-size="13" lengthAdjust="spacingAndGlyphs" textLength="130" x="866" y="1228.2529">キャンペーン文言削除</text><rect fill="none" height="110.7266" style="stroke: #000000; stroke-width: 2.0;" width="323.5" x="958.5" y="1248.1094"/><polygon fill="#EEEEEE" points="958.5,1248.1094,1119.5,1248.1094,1119.5,1256.1094,1109.5,1266.1094,958.5,1266.1094,958.5,1248.1094" style="stroke: #000000; stroke-width: 2.0;"/><text fill="#000000" font-family="sans-serif" font-size="13" font-weight="bold" lengthAdjust="spacingAndGlyphs" textLength="116" x="973.5" y="1262.6045">棚有り・なし 判定</text><line style="stroke: #000000; stroke-width: 1.0; stroke-dasharray: 2.0,2.0;" x1="958.5" x2="1282" y1="1267.4609" y2="1267.4609"/><text fill="#000000" font-family="sans-serif" font-size="11" font-weight="bold" lengthAdjust="spacingAndGlyphs" textLength="44" x="963.5" y="1278.8799">[棚有り]</text><polygon fill="#383838" points="1141.5,1300.2969,1151.5,1304.2969,1141.5,1308.2969,1145.5,1304.2969" style="stroke: #383838; stroke-width: 1.0;"/><line style="stroke: #383838; stroke-width: 1.0;" x1="1023" x2="1147.5" y1="1304.2969" y2="1304.2969"/><text fill="#000000" font-family="sans-serif" font-size="13" lengthAdjust="spacingAndGlyphs" textLength="65" x="1030" y="1299.792">データ転記</text><line style="stroke: #000000; stroke-width: 1.0; stroke-dasharray: 2.0,2.0;" x1="958.5" x2="1282" y1="1313.6484" y2="1313.6484"/><text fill="#000000" font-family="sans-serif" font-size="11" font-weight="bold" lengthAdjust="spacingAndGlyphs" textLength="44" x="963.5" y="1325.0674">[棚無し]</text><polygon fill="#383838" points="1226.5,1346.4844,1236.5,1350.4844,1226.5,1354.4844,1230.5,1350.4844" style="stroke: #383838; stroke-width: 1.0;"/><line style="stroke: #383838; stroke-width: 1.0;" x1="1023" x2="1232.5" y1="1350.4844" y2="1350.4844"/><text fill="#000000" font-family="sans-serif" font-size="13" lengthAdjust="spacingAndGlyphs" textLength="65" x="1030" y="1345.9795">データ転記</text><polygon fill="#383838" points="1141.5,1383.8359,1151.5,1387.8359,1141.5,1391.8359,1145.5,1387.8359" style="stroke: #383838; stroke-width: 1.0;"/><line style="stroke: #383838; stroke-width: 1.0;" x1="1023" x2="1147.5" y1="1387.8359" y2="1387.8359"/><text fill="#000000" font-family="sans-serif" font-size="13" lengthAdjust="spacingAndGlyphs" textLength="78" x="1030" y="1383.3311">ファイル保存</text><line style="stroke: #383838; stroke-width: 2.0;" x1="1144.5" x2="1162.5" y1="1378.8359" y2="1396.8359"/><line style="stroke: #383838; stroke-width: 2.0;" x1="1144.5" x2="1162.5" y1="1396.8359" y2="1378.8359"/><polygon fill="#383838" points="1226.5,1414.1875,1236.5,1418.1875,1226.5,1422.1875,1230.5,1418.1875" style="stroke: #383838; stroke-width: 1.0;"/><line style="stroke: #383838; stroke-width: 1.0;" x1="1018" x2="1232.5" y1="1418.1875" y2="1418.1875"/><text fill="#000000" font-family="sans-serif" font-size="13" lengthAdjust="spacingAndGlyphs" textLength="78" x="1025" y="1413.6826">ファイル保存</text><line style="stroke: #383838; stroke-width: 2.0;" x1="1229.5" x2="1247.5" y1="1409.1875" y2="1427.1875"/><line style="stroke: #383838; stroke-width: 2.0;" x1="1229.5" x2="1247.5" y1="1427.1875" y2="1409.1875"/><polygon fill="#383838" points="466,1451.5391,476,1455.5391,466,1459.5391,470,1455.5391" style="stroke: #383838; stroke-width: 1.0;"/><line style="stroke: #383838; stroke-width: 1.0;" x1="250" x2="472" y1="1455.5391" y2="1455.5391"/><text fill="#000000" font-family="sans-serif" font-size="13" lengthAdjust="spacingAndGlyphs" textLength="182" x="257" y="1451.0342">受注時商品コード昇順にソート</text><rect fill="none" height="457.4063" style="stroke: #000000; stroke-width: 2.0;" width="1262" x="211" y="1470.8906"/><polygon fill="#EEEEEE" points="211,1470.8906,284,1470.8906,284,1478.8906,274,1488.8906,211,1488.8906,211,1470.8906" style="stroke: #000000; stroke-width: 2.0;"/><text fill="#000000" font-family="sans-serif" font-size="13" font-weight="bold" lengthAdjust="spacingAndGlyphs" textLength="28" x="226" y="1485.3857">loop</text><text fill="#000000" font-family="sans-serif" font-size="11" font-weight="bold" lengthAdjust="spacingAndGlyphs" textLength="149" x="299" y="1484.3096">[3モール分 振分シート作成]</text><polygon fill="#383838" points="1001,1507.2422,1011,1511.2422,1001,1515.2422,1005,1511.2422" style="stroke: #383838; stroke-width: 1.0;"/><line style="stroke: #383838; stroke-width: 1.0;" x1="250" x2="1007" y1="1511.2422" y2="1511.2422"/><text fill="#000000" font-family="sans-serif" font-size="13" lengthAdjust="spacingAndGlyphs" textLength="161" x="257" y="1506.7373">Sub CreateForSorterSheet()</text><polygon fill="#383838" points="1270,1537.5938,1280,1541.5938,1270,1545.5938,1274,1541.5938" style="stroke: #383838; stroke-width: 1.0;"/><line style="stroke: #383838; stroke-width: 1.0;" x1="1023" x2="1276" y1="1541.5938" y2="1541.5938"/><text fill="#000000" font-family="sans-serif" font-size="13" lengthAdjust="spacingAndGlyphs" textLength="65" x="1030" y="1537.0889">シート作成</text><text fill="#000000" font-family="sans-serif" font-size="14" lengthAdjust="spacingAndGlyphs" textLength="61" x="1282" y="1566.127">ForSorter</text><ellipse cx="1315.5" cy="1535.5938" fill="#F8F8F8" filter="url(#facfyne)" rx="12" ry="12" style="stroke: #383838; stroke-width: 2.0;"/><line style="stroke: #383838; stroke-width: 2.0;" x1="1303.5" x2="1327.5" y1="1549.5938" y2="1549.5938"/><polygon fill="#383838" points="1347,1597.2031,1357,1601.2031,1347,1605.2031,1351,1601.2031" style="stroke: #383838; stroke-width: 1.0;"/><line style="stroke: #383838; stroke-width: 1.0;" x1="1023" x2="1353" y1="1601.2031" y2="1601.2031"/><text fill="#000000" font-family="sans-serif" font-size="13" lengthAdjust="spacingAndGlyphs" textLength="65" x="1030" y="1596.6982">シート作成</text><text fill="#000000" font-family="sans-serif" font-size="14" lengthAdjust="spacingAndGlyphs" textLength="88" x="1359" y="1625.7363">ForSorter_set</text><ellipse cx="1406" cy="1595.2031" fill="#F8F8F8" filter="url(#facfyne)" rx="12" ry="12" style="stroke: #383838; stroke-width: 2.0;"/><line style="stroke: #383838; stroke-width: 2.0;" x1="1394" x2="1418" y1="1609.2031" y2="1609.2031"/><polygon fill="#383838" points="489,1656.8125,479,1660.8125,489,1664.8125,485,1660.8125" style="stroke: #383838; stroke-width: 1.0;"/><line style="stroke: #383838; stroke-width: 1.0; stroke-dasharray: 2.0,2.0;" x1="483" x2="1012" y1="1660.8125" y2="1660.8125"/><text fill="#000000" font-family="sans-serif" font-size="13" lengthAdjust="spacingAndGlyphs" textLength="91" x="495" y="1656.3076">受注データ取得</text><polygon fill="#383838" points="870,1687.1641,860,1691.1641,870,1695.1641,866,1691.1641" style="stroke: #383838; stroke-width: 1.0;"/><line style="stroke: #383838; stroke-width: 1.0;" x1="864" x2="1012" y1="1691.1641" y2="1691.1641"/><text fill="#000000" font-family="sans-serif" font-size="13" lengthAdjust="spacingAndGlyphs" textLength="89" x="876" y="1686.6592">ValidateName()</text><polygon fill="#383838" points="1001,1717.5156,1011,1721.5156,1001,1725.5156,1005,1721.5156" style="stroke: #383838; stroke-width: 1.0;"/><line style="stroke: #383838; stroke-width: 1.0;" x1="859" x2="1007" y1="1721.5156" y2="1721.5156"/><text fill="#000000" font-family="sans-serif" font-size="13" lengthAdjust="spacingAndGlyphs" textLength="130" x="866" y="1717.0107">キャンペーン文言削除</text><line style="stroke: #383838; stroke-width: 1.0;" x1="1023" x2="1065" y1="1752.2188" y2="1752.2188"/><line style="stroke: #383838; stroke-width: 1.0;" x1="1065" x2="1065" y1="1752.2188" y2="1765.2188"/><line style="stroke: #383838; stroke-width: 1.0;" x1="1024" x2="1065" y1="1765.2188" y2="1765.2188"/><polygon fill="#383838" points="1034,1761.2188,1024,1765.2188,1034,1769.2188,1030,1765.2188" style="stroke: #383838; stroke-width: 1.0;"/><text fill="#000000" font-family="sans-serif" font-size="13" lengthAdjust="spacingAndGlyphs" textLength="91" x="1030" y="1747.3623">受注モール判定</text><rect fill="none" height="110.7266" style="stroke: #000000; stroke-width: 2.0;" width="504.5" x="958.5" y="1780.2188"/><polygon fill="#EEEEEE" points="958.5,1780.2188,1115.5,1780.2188,1115.5,1788.2188,1105.5,1798.2188,958.5,1798.2188,958.5,1780.2188" style="stroke: #000000; stroke-width: 2.0;"/><text fill="#000000" font-family="sans-serif" font-size="13" font-weight="bold" lengthAdjust="spacingAndGlyphs" textLength="112" x="973.5" y="1794.7139">単体・セット判定</text><line style="stroke: #000000; stroke-width: 1.0; stroke-dasharray: 2.0,2.0;" x1="958.5" x2="1463" y1="1799.5703" y2="1799.5703"/><text fill="#000000" font-family="sans-serif" font-size="11" font-weight="bold" lengthAdjust="spacingAndGlyphs" textLength="68" x="963.5" y="1810.9893">[単体受注品]</text><polygon fill="#383838" points="1303.5,1832.4063,1313.5,1836.4063,1303.5,1840.4063,1307.5,1836.4063" style="stroke: #383838; stroke-width: 1.0;"/><line style="stroke: #383838; stroke-width: 1.0;" x1="1023" x2="1309.5" y1="1836.4063" y2="1836.4063"/><text fill="#000000" font-family="sans-serif" font-size="13" lengthAdjust="spacingAndGlyphs" textLength="91" x="1030" y="1831.9014">受注データ転記</text><line style="stroke: #000000; stroke-width: 1.0; stroke-dasharray: 2.0,2.0;" x1="958.5" x2="1463" y1="1845.7578" y2="1845.7578"/><text fill="#000000" font-family="sans-serif" font-size="11" font-weight="bold" lengthAdjust="spacingAndGlyphs" textLength="68" x="963.5" y="1857.1768">[セット商品]</text><polygon fill="#383838" points="1394,1878.5938,1404,1882.5938,1394,1886.5938,1398,1882.5938" style="stroke: #383838; stroke-width: 1.0;"/><line style="stroke: #383838; stroke-width: 1.0;" x1="1023" x2="1400" y1="1882.5938" y2="1882.5938"/><text fill="#000000" font-family="sans-serif" font-size="13" lengthAdjust="spacingAndGlyphs" textLength="91" x="1030" y="1878.0889">受注データ転記</text><polygon fill="#383838" points="1303.5,1915.9453,1313.5,1919.9453,1303.5,1923.9453,1307.5,1919.9453" style="stroke: #383838; stroke-width: 1.0;"/><line style="stroke: #383838; stroke-width: 1.0;" x1="1018" x2="1309.5" y1="1919.9453" y2="1919.9453"/><text fill="#000000" font-family="sans-serif" font-size="13" lengthAdjust="spacingAndGlyphs" textLength="169" x="1025" y="1915.4404">背景色・商品コードでソート</text><polygon fill="#383838" points="466,1953.2969,476,1957.2969,466,1961.2969,470,1957.2969" style="stroke: #383838; stroke-width: 1.0;"/><line style="stroke: #383838; stroke-width: 1.0;" x1="250" x2="472" y1="1957.2969" y2="1957.2969"/><text fill="#000000" font-family="sans-serif" font-size="13" lengthAdjust="spacingAndGlyphs" textLength="147" x="257" y="1952.792">管理コード 昇順にソート</text><polygon fill="#383838" points="1303.5,1983.6484,1313.5,1987.6484,1303.5,1991.6484,1307.5,1987.6484" style="stroke: #383838; stroke-width: 1.0;"/><line style="stroke: #383838; stroke-width: 1.0; stroke-dasharray: 2.0,2.0;" x1="250" x2="1309.5" y1="1987.6484" y2="1987.6484"/><text fill="#000000" font-family="sans-serif" font-size="13" lengthAdjust="spacingAndGlyphs" textLength="79" x="257" y="1983.1436">VBA:PrintOut</text><polygon fill="#383838" points="1394,2014,1404,2018,1394,2022,1398,2018" style="stroke: #383838; stroke-width: 1.0;"/><line style="stroke: #383838; stroke-width: 1.0; stroke-dasharray: 2.0,2.0;" x1="250" x2="1400" y1="2018" y2="2018"/><text fill="#000000" font-family="sans-serif" font-size="13" lengthAdjust="spacingAndGlyphs" textLength="79" x="257" y="2013.4951">VBA:PrintOut</text><polygon fill="#383838" points="14,2044.3516,4,2048.3516,14,2052.3516,10,2048.3516" style="stroke: #383838; stroke-width: 1.0;"/><line style="stroke: #383838; stroke-width: 1.0;" x1="8" x2="244" y1="2048.3516" y2="2048.3516"/><text fill="#000000" font-family="sans-serif" font-size="13" lengthAdjust="spacingAndGlyphs" textLength="91" x="20" y="2043.8467">終了メッセージ</text></g></svg>