<?xml version="1.0" encoding="UTF-8" standalone="no"?><svg xmlns="http://www.w3.org/2000/svg" xmlns:xlink="http://www.w3.org/1999/xlink" contentScriptType="application/ecmascript" contentStyleType="text/css" height="1923px" preserveAspectRatio="none" style="width:1453px;height:1923px;" version="1.1" viewBox="0 0 1453 1923" width="1453px" zoomAndPan="magnify"><defs><filter height="300%" id="fqujpsh" width="300%" x="-1" y="-1"><feGaussianBlur result="blurOut" stdDeviation="2.0"/><feColorMatrix in="blurOut" result="blurOut2" type="matrix" values="0 0 0 0 0 0 0 0 0 0 0 0 0 0 0 0 0 0 .4 0"/><feOffset dx="4.0" dy="4.0" in="blurOut2" result="blurOut3"/><feBlend in="SourceGraphic" in2="blurOut3" mode="normal"/></filter></defs><g><text fill="#000000" font-family="sans-serif" font-size="14" font-weight="bold" lengthAdjust="spacingAndGlyphs" textLength="193" x="632.25" y="24.5332">ピッキングテンプレートVBA</text><rect fill="#FFFFFF" filter="url(#fqujpsh)" height="1691.4336" style="stroke: #383838; stroke-width: 1.0;" width="10" x="240" y="144.457"/><rect fill="#FFFFFF" filter="url(#fqujpsh)" height="120.4063" style="stroke: #383838; stroke-width: 1.0;" width="10" x="353" y="181.6953"/><rect fill="#FFFFFF" filter="url(#fqujpsh)" height="116.0547" style="stroke: #383838; stroke-width: 1.0;" width="10" x="619" y="393.1563"/><rect fill="#FFFFFF" filter="url(#fqujpsh)" height="91.0547" style="stroke: #383838; stroke-width: 1.0;" width="10" x="619" y="539.5625"/><rect fill="#FFFFFF" filter="url(#fqujpsh)" height="91.0547" style="stroke: #383838; stroke-width: 1.0;" width="10" x="714.5" y="660.9688"/><rect fill="#FFFFFF" filter="url(#fqujpsh)" height="60.7031" style="stroke: #383838; stroke-width: 1.0;" width="10" x="854" y="332.4531"/><rect fill="#FFFFFF" filter="url(#fqujpsh)" height="85.7031" style="stroke: #383838; stroke-width: 1.0;" width="10" x="854" y="782.375"/><rect fill="#FFFFFF" filter="url(#fqujpsh)" height="434.0547" style="stroke: #383838; stroke-width: 1.0;" width="10" x="963" y="923.4297"/><rect fill="#FFFFFF" filter="url(#fqujpsh)" height="365.3516" style="stroke: #383838; stroke-width: 1.0;" width="10" x="963" y="1387.8359"/><rect fill="#FFFFFF" filter="url(#fqujpsh)" height="807.4063" style="stroke: #000000; stroke-width: 2.0;" width="1233.5" x="211" y="938.7813"/><rect fill="#FFFFFF" filter="url(#fqujpsh)" height="303.6484" style="stroke: #000000; stroke-width: 2.0;" width="825.5" x="428" y="994.4844"/><text fill="#000000" font-family="sans-serif" font-size="14" lengthAdjust="spacingAndGlyphs" textLength="77" x="1083.5" y="1059.3691">Picking_2_3</text><ellipse cx="1125" cy="1028.8359" fill="#F8F8F8" filter="url(#fqujpsh)" rx="12" ry="12" style="stroke: #383838; stroke-width: 2.0;"/><line style="stroke: #383838; stroke-width: 2.0;" x1="1113" x2="1137" y1="1042.8359" y2="1042.8359"/><text fill="#000000" font-family="sans-serif" font-size="14" lengthAdjust="spacingAndGlyphs" textLength="61" x="1176.5" y="1118.9785">Picking_a</text><ellipse cx="1210" cy="1088.4453" fill="#F8F8F8" filter="url(#fqujpsh)" rx="12" ry="12" style="stroke: #383838; stroke-width: 2.0;"/><line style="stroke: #383838; stroke-width: 2.0;" x1="1198" x2="1222" y1="1102.4453" y2="1102.4453"/><rect fill="#FFFFFF" height="46.1875" style="stroke: none; stroke-width: 1.0;" width="825.5" x="428" y="1205.7578"/><rect fill="#FFFFFF" height="46.1875" style="stroke: none; stroke-width: 1.0;" width="825.5" x="428" y="1251.9453"/><rect fill="#FFFFFF" filter="url(#fqujpsh)" height="336" style="stroke: #000000; stroke-width: 2.0;" width="1006.5" x="428" y="1403.1875"/><text fill="#000000" font-family="sans-serif" font-size="14" lengthAdjust="spacingAndGlyphs" textLength="61" x="1253.5" y="1468.0723">ForSorter</text><ellipse cx="1287" cy="1437.5391" fill="#F8F8F8" filter="url(#fqujpsh)" rx="12" ry="12" style="stroke: #383838; stroke-width: 2.0;"/><line style="stroke: #383838; stroke-width: 2.0;" x1="1275" x2="1299" y1="1451.5391" y2="1451.5391"/><text fill="#000000" font-family="sans-serif" font-size="14" lengthAdjust="spacingAndGlyphs" textLength="88" x="1330.5" y="1527.6816">ForSorter_set</text><ellipse cx="1377.5" cy="1497.1484" fill="#F8F8F8" filter="url(#fqujpsh)" rx="12" ry="12" style="stroke: #383838; stroke-width: 2.0;"/><line style="stroke: #383838; stroke-width: 2.0;" x1="1365.5" x2="1389.5" y1="1511.1484" y2="1511.1484"/><rect fill="#FFFFFF" height="46.1875" style="stroke: none; stroke-width: 1.0;" width="1006.5" x="428" y="1614.4609"/><rect fill="#FFFFFF" height="46.1875" style="stroke: none; stroke-width: 1.0;" width="1006.5" x="428" y="1660.6484"/><rect fill="#FFFFFF" height="32.3516" style="stroke: none; stroke-width: 1.0;" width="1006.5" x="428" y="1706.8359"/><rect fill="#FFFFFF" height="1885.2422" style="stroke: #383838; stroke-width: 1.0;" width="148" x="67" y="35.6094"/><text fill="#000000" font-family="sans-serif" font-size="13" font-weight="bold" lengthAdjust="spacingAndGlyphs" textLength="84" x="99" y="49.1045">外部ファイル</text><line style="stroke: #383838; stroke-width: 1.0; stroke-dasharray: 5.0,5.0;" x1="34" x2="34" y1="105.5703" y2="1854.2422"/><line style="stroke: #383838; stroke-width: 1.0; stroke-dasharray: 5.0,5.0;" x1="88" x2="88" y1="105.5703" y2="1854.2422"/><line style="stroke: #383838; stroke-width: 1.0; stroke-dasharray: 5.0,5.0;" x1="163" x2="163" y1="105.5703" y2="1854.2422"/><line style="stroke: #383838; stroke-width: 1.0; stroke-dasharray: 5.0,5.0;" x1="245" x2="245" y1="105.5703" y2="1854.2422"/><line style="stroke: #383838; stroke-width: 1.0; stroke-dasharray: 5.0,5.0;" x1="358" x2="358" y1="105.5703" y2="1854.2422"/><line style="stroke: #383838; stroke-width: 1.0; stroke-dasharray: 5.0,5.0;" x1="478" x2="478" y1="105.5703" y2="1854.2422"/><line style="stroke: #383838; stroke-width: 1.0; stroke-dasharray: 5.0,5.0;" x1="623.5" x2="623.5" y1="105.5703" y2="1854.2422"/><line style="stroke: #383838; stroke-width: 1.0; stroke-dasharray: 5.0,5.0;" x1="719.5" x2="719.5" y1="105.5703" y2="1854.2422"/><line style="stroke: #383838; stroke-width: 1.0; stroke-dasharray: 5.0,5.0;" x1="858.5" x2="858.5" y1="105.5703" y2="1854.2422"/><line style="stroke: #383838; stroke-width: 1.0; stroke-dasharray: 5.0,5.0;" x1="967.5" x2="967.5" y1="105.5703" y2="1854.2422"/><line style="stroke: #383838; stroke-width: 1.0; stroke-dasharray: 5.0,5.0;" x1="1124.5" x2="1124.5" y1="1052.6406" y2="1854.2422"/><line style="stroke: #383838; stroke-width: 1.0; stroke-dasharray: 5.0,5.0;" x1="1209.5" x2="1209.5" y1="1112.25" y2="1854.2422"/><line style="stroke: #383838; stroke-width: 1.0; stroke-dasharray: 5.0,5.0;" x1="1286.5" x2="1286.5" y1="1461.3438" y2="1854.2422"/><line style="stroke: #383838; stroke-width: 1.0; stroke-dasharray: 5.0,5.0;" x1="1377.5" x2="1377.5" y1="1520.9531" y2="1854.2422"/><text fill="#000000" font-family="sans-serif" font-size="14" lengthAdjust="spacingAndGlyphs" textLength="47" x="8" y="102.4941">社内DB</text><path d="M16.5,51.9609 C16.5,41.9609 34.5,41.9609 34.5,41.9609 C34.5,41.9609 52.5,41.9609 52.5,51.9609 L52.5,77.9609 C52.5,87.9609 34.5,87.9609 34.5,87.9609 C34.5,87.9609 16.5,87.9609 16.5,77.9609 L16.5,51.9609 " fill="#F8F8F8" filter="url(#fqujpsh)" style="stroke: #000000; stroke-width: 1.5;"/><path d="M16.5,51.9609 C16.5,61.9609 34.5,61.9609 34.5,61.9609 C34.5,61.9609 52.5,61.9609 52.5,51.9609 " fill="none" style="stroke: #000000; stroke-width: 1.5;"/><text fill="#000000" font-family="sans-serif" font-size="14" lengthAdjust="spacingAndGlyphs" textLength="47" x="8" y="1867.7754">社内DB</text><path d="M16.5,1880.8516 C16.5,1870.8516 34.5,1870.8516 34.5,1870.8516 C34.5,1870.8516 52.5,1870.8516 52.5,1880.8516 L52.5,1906.8516 C52.5,1916.8516 34.5,1916.8516 34.5,1916.8516 C34.5,1916.8516 16.5,1916.8516 16.5,1906.8516 L16.5,1880.8516 " fill="#F8F8F8" filter="url(#fqujpsh)" style="stroke: #000000; stroke-width: 1.5;"/><path d="M16.5,1880.8516 C16.5,1890.8516 34.5,1890.8516 34.5,1890.8516 C34.5,1890.8516 52.5,1890.8516 52.5,1880.8516 " fill="none" style="stroke: #000000; stroke-width: 1.5;"/><text fill="#000000" font-family="sans-serif" font-size="14" lengthAdjust="spacingAndGlyphs" textLength="28" x="71" y="102.4941">CSV</text><ellipse cx="88" cy="71.9609" fill="#F8F8F8" filter="url(#fqujpsh)" rx="12" ry="12" style="stroke: #383838; stroke-width: 2.0;"/><line style="stroke: #383838; stroke-width: 2.0;" x1="76" x2="100" y1="85.9609" y2="85.9609"/><text fill="#000000" font-family="sans-serif" font-size="14" lengthAdjust="spacingAndGlyphs" textLength="28" x="71" y="1867.7754">CSV</text><ellipse cx="88" cy="1886.8516" fill="#F8F8F8" filter="url(#fqujpsh)" rx="12" ry="12" style="stroke: #383838; stroke-width: 2.0;"/><line style="stroke: #383838; stroke-width: 2.0;" x1="76" x2="100" y1="1900.8516" y2="1900.8516"/><text fill="#000000" font-family="sans-serif" font-size="14" lengthAdjust="spacingAndGlyphs" textLength="90" x="115" y="102.4941">ｾｯﾄ商品ﾘｽﾄ.xls</text><ellipse cx="163" cy="71.9609" fill="#F8F8F8" filter="url(#fqujpsh)" rx="12" ry="12" style="stroke: #383838; stroke-width: 2.0;"/><line style="stroke: #383838; stroke-width: 2.0;" x1="151" x2="175" y1="85.9609" y2="85.9609"/><text fill="#000000" font-family="sans-serif" font-size="14" lengthAdjust="spacingAndGlyphs" textLength="90" x="115" y="1867.7754">ｾｯﾄ商品ﾘｽﾄ.xls</text><ellipse cx="163" cy="1886.8516" fill="#F8F8F8" filter="url(#fqujpsh)" rx="12" ry="12" style="stroke: #383838; stroke-width: 2.0;"/><line style="stroke: #383838; stroke-width: 2.0;" x1="151" x2="175" y1="1900.8516" y2="1900.8516"/><rect fill="#F8F8F8" filter="url(#fqujpsh)" height="31.6094" style="stroke: #383838; stroke-width: 1.5;" width="44" x="221" y="68.9609"/><text fill="#000000" font-family="sans-serif" font-size="14" lengthAdjust="spacingAndGlyphs" textLength="30" x="228" y="90.4941">Main</text><rect fill="#F8F8F8" filter="url(#fqujpsh)" height="31.6094" style="stroke: #383838; stroke-width: 1.5;" width="44" x="221" y="1853.2422"/><text fill="#000000" font-family="sans-serif" font-size="14" lengthAdjust="spacingAndGlyphs" textLength="30" x="228" y="1874.7754">Main</text><rect fill="#F8F8F8" filter="url(#fqujpsh)" height="31.6094" style="stroke: #383838; stroke-width: 1.5;" width="70" x="321" y="68.9609"/><text fill="#000000" font-family="sans-serif" font-size="14" lengthAdjust="spacingAndGlyphs" textLength="56" x="328" y="90.4941">LoadCsv</text><rect fill="#F8F8F8" filter="url(#fqujpsh)" height="31.6094" style="stroke: #383838; stroke-width: 1.5;" width="70" x="321" y="1853.2422"/><text fill="#000000" font-family="sans-serif" font-size="14" lengthAdjust="spacingAndGlyphs" textLength="56" x="328" y="1874.7754">LoadCsv</text><text fill="#000000" font-family="sans-serif" font-size="14" lengthAdjust="spacingAndGlyphs" textLength="74" x="438" y="102.4941">OrderSheet</text><ellipse cx="478" cy="71.9609" fill="#F8F8F8" filter="url(#fqujpsh)" rx="12" ry="12" style="stroke: #383838; stroke-width: 2.0;"/><line style="stroke: #383838; stroke-width: 2.0;" x1="466" x2="490" y1="85.9609" y2="85.9609"/><text fill="#000000" font-family="sans-serif" font-size="14" lengthAdjust="spacingAndGlyphs" textLength="74" x="438" y="1867.7754">OrderSheet</text><ellipse cx="478" cy="1886.8516" fill="#F8F8F8" filter="url(#fqujpsh)" rx="12" ry="12" style="stroke: #383838; stroke-width: 2.0;"/><line style="stroke: #383838; stroke-width: 2.0;" x1="466" x2="490" y1="1900.8516" y2="1900.8516"/><rect fill="#F8F8F8" filter="url(#fqujpsh)" height="31.6094" style="stroke: #383838; stroke-width: 1.5;" width="77" x="583.5" y="68.9609"/><text fill="#000000" font-family="sans-serif" font-size="14" lengthAdjust="spacingAndGlyphs" textLength="63" x="590.5" y="90.4941">SetParser</text><rect fill="#F8F8F8" filter="url(#fqujpsh)" height="31.6094" style="stroke: #383838; stroke-width: 1.5;" width="77" x="583.5" y="1853.2422"/><text fill="#000000" font-family="sans-serif" font-size="14" lengthAdjust="spacingAndGlyphs" textLength="63" x="590.5" y="1874.7754">SetParser</text><rect fill="#F8F8F8" filter="url(#fqujpsh)" height="31.6094" style="stroke: #383838; stroke-width: 1.5;" width="86" x="674.5" y="68.9609"/><text fill="#000000" font-family="sans-serif" font-size="14" lengthAdjust="spacingAndGlyphs" textLength="72" x="681.5" y="90.4941">ConnectDB</text><rect fill="#F8F8F8" filter="url(#fqujpsh)" height="31.6094" style="stroke: #383838; stroke-width: 1.5;" width="86" x="674.5" y="1853.2422"/><text fill="#000000" font-family="sans-serif" font-size="14" lengthAdjust="spacingAndGlyphs" textLength="72" x="681.5" y="1874.7754">ConnectDB</text><rect fill="#F8F8F8" filter="url(#fqujpsh)" height="31.6094" style="stroke: #383838; stroke-width: 1.5;" width="95" x="809.5" y="68.9609"/><text fill="#000000" font-family="sans-serif" font-size="14" lengthAdjust="spacingAndGlyphs" textLength="81" x="816.5" y="90.4941">DataValidate</text><rect fill="#F8F8F8" filter="url(#fqujpsh)" height="31.6094" style="stroke: #383838; stroke-width: 1.5;" width="95" x="809.5" y="1853.2422"/><text fill="#000000" font-family="sans-serif" font-size="14" lengthAdjust="spacingAndGlyphs" textLength="81" x="816.5" y="1874.7754">DataValidate</text><rect fill="#F8F8F8" filter="url(#fqujpsh)" height="31.6094" style="stroke: #383838; stroke-width: 1.5;" width="95" x="918.5" y="68.9609"/><text fill="#000000" font-family="sans-serif" font-size="14" lengthAdjust="spacingAndGlyphs" textLength="81" x="925.5" y="90.4941">SheetBuilder</text><rect fill="#F8F8F8" filter="url(#fqujpsh)" height="31.6094" style="stroke: #383838; stroke-width: 1.5;" width="95" x="918.5" y="1853.2422"/><text fill="#000000" font-family="sans-serif" font-size="14" lengthAdjust="spacingAndGlyphs" textLength="81" x="925.5" y="1874.7754">SheetBuilder</text><text fill="#000000" font-family="sans-serif" font-size="14" lengthAdjust="spacingAndGlyphs" textLength="77" x="1083.5" y="1867.7754">Picking_2_3</text><ellipse cx="1125" cy="1886.8516" fill="#F8F8F8" filter="url(#fqujpsh)" rx="12" ry="12" style="stroke: #383838; stroke-width: 2.0;"/><line style="stroke: #383838; stroke-width: 2.0;" x1="1113" x2="1137" y1="1900.8516" y2="1900.8516"/><text fill="#000000" font-family="sans-serif" font-size="14" lengthAdjust="spacingAndGlyphs" textLength="61" x="1176.5" y="1867.7754">Picking_a</text><ellipse cx="1210" cy="1886.8516" fill="#F8F8F8" filter="url(#fqujpsh)" rx="12" ry="12" style="stroke: #383838; stroke-width: 2.0;"/><line style="stroke: #383838; stroke-width: 2.0;" x1="1198" x2="1222" y1="1900.8516" y2="1900.8516"/><text fill="#000000" font-family="sans-serif" font-size="14" lengthAdjust="spacingAndGlyphs" textLength="61" x="1253.5" y="1867.7754">ForSorter</text><ellipse cx="1287" cy="1886.8516" fill="#F8F8F8" filter="url(#fqujpsh)" rx="12" ry="12" style="stroke: #383838; stroke-width: 2.0;"/><line style="stroke: #383838; stroke-width: 2.0;" x1="1275" x2="1299" y1="1900.8516" y2="1900.8516"/><text fill="#000000" font-family="sans-serif" font-size="14" lengthAdjust="spacingAndGlyphs" textLength="88" x="1330.5" y="1867.7754">ForSorter_set</text><ellipse cx="1377.5" cy="1886.8516" fill="#F8F8F8" filter="url(#fqujpsh)" rx="12" ry="12" style="stroke: #383838; stroke-width: 2.0;"/><line style="stroke: #383838; stroke-width: 2.0;" x1="1365.5" x2="1389.5" y1="1900.8516" y2="1900.8516"/><rect fill="#FFFFFF" filter="url(#fqujpsh)" height="1691.4336" style="stroke: #383838; stroke-width: 1.0;" width="10" x="240" y="144.457"/><rect fill="#FFFFFF" filter="url(#fqujpsh)" height="120.4063" style="stroke: #383838; stroke-width: 1.0;" width="10" x="353" y="181.6953"/><rect fill="#FFFFFF" filter="url(#fqujpsh)" height="116.0547" style="stroke: #383838; stroke-width: 1.0;" width="10" x="619" y="393.1563"/><rect fill="#FFFFFF" filter="url(#fqujpsh)" height="91.0547" style="stroke: #383838; stroke-width: 1.0;" width="10" x="619" y="539.5625"/><rect fill="#FFFFFF" filter="url(#fqujpsh)" height="91.0547" style="stroke: #383838; stroke-width: 1.0;" width="10" x="714.5" y="660.9688"/><rect fill="#FFFFFF" filter="url(#fqujpsh)" height="60.7031" style="stroke: #383838; stroke-width: 1.0;" width="10" x="854" y="332.4531"/><rect fill="#FFFFFF" filter="url(#fqujpsh)" height="85.7031" style="stroke: #383838; stroke-width: 1.0;" width="10" x="854" y="782.375"/><rect fill="#FFFFFF" filter="url(#fqujpsh)" height="434.0547" style="stroke: #383838; stroke-width: 1.0;" width="10" x="963" y="923.4297"/><rect fill="#FFFFFF" filter="url(#fqujpsh)" height="365.3516" style="stroke: #383838; stroke-width: 1.0;" width="10" x="963" y="1387.8359"/><polygon fill="#383838" points="228,140.457,238,144.457,228,148.457,232,144.457" style="stroke: #383838; stroke-width: 1.0;"/><line style="stroke: #383838; stroke-width: 1.0;" x1="3" x2="234" y1="144.457" y2="144.457"/><text fill="#000000" font-family="sans-serif" font-size="13" lengthAdjust="spacingAndGlyphs" textLength="65" x="10" y="139.9521">マクロ起動</text><polygon fill="#ECECEC" filter="url(#fqujpsh)" points="255,120.5703,255,150.5703,468,150.5703,468,130.5703,458,120.5703,255,120.5703" style="stroke: #383838; stroke-width: 1.0;"/><line style="stroke: #383838; stroke-width: 1.0;" x1="458" x2="458" y1="120.5703" y2="130.5703"/><line style="stroke: #383838; stroke-width: 1.0;" x1="468" x2="458" y1="130.5703" y2="130.5703"/><text fill="#000000" font-family="sans-serif" font-size="16" lengthAdjust="spacingAndGlyphs" textLength="192" x="261" y="142.1797">進捗表示ダイアログを実装</text><polygon fill="#383838" points="341,177.6953,351,181.6953,341,185.6953,345,181.6953" style="stroke: #383838; stroke-width: 1.0;"/><line style="stroke: #383838; stroke-width: 1.0;" x1="250" x2="347" y1="181.6953" y2="181.6953"/><text fill="#000000" font-family="sans-serif" font-size="13" lengthAdjust="spacingAndGlyphs" textLength="84" x="257" y="177.1904">Sub LoadCsv()</text><line style="stroke: #383838; stroke-width: 1.0;" x1="363" x2="405" y1="228.75" y2="228.75"/><line style="stroke: #383838; stroke-width: 1.0;" x1="405" x2="405" y1="228.75" y2="241.75"/><line style="stroke: #383838; stroke-width: 1.0;" x1="364" x2="405" y1="241.75" y2="241.75"/><polygon fill="#383838" points="374,237.75,364,241.75,374,245.75,370,241.75" style="stroke: #383838; stroke-width: 1.0;"/><text fill="#000000" font-family="sans-serif" font-size="13" lengthAdjust="spacingAndGlyphs" textLength="53" x="370" y="207.542">CSV指定</text><text fill="#000000" font-family="sans-serif" font-size="13" lengthAdjust="spacingAndGlyphs" textLength="78" x="370" y="223.8936">日付チェック</text><polygon fill="#383838" points="99,267.75,89,271.75,99,275.75,95,271.75" style="stroke: #383838; stroke-width: 1.0;"/><line style="stroke: #383838; stroke-width: 1.0;" x1="93" x2="352" y1="271.75" y2="271.75"/><text fill="#000000" font-family="sans-serif" font-size="13" lengthAdjust="spacingAndGlyphs" textLength="65" x="105" y="267.2451">データ接続</text><polygon fill="#383838" points="466,298.1016,476,302.1016,466,306.1016,470,302.1016" style="stroke: #383838; stroke-width: 1.0;"/><line style="stroke: #383838; stroke-width: 1.0;" x1="358" x2="472" y1="302.1016" y2="302.1016"/><text fill="#000000" font-family="sans-serif" font-size="13" lengthAdjust="spacingAndGlyphs" textLength="91" x="365" y="297.5967">受注データ取込</text><polygon fill="#383838" points="842,328.4531,852,332.4531,842,336.4531,846,332.4531" style="stroke: #383838; stroke-width: 1.0;"/><line style="stroke: #383838; stroke-width: 1.0;" x1="250" x2="848" y1="332.4531" y2="332.4531"/><text fill="#000000" font-family="sans-serif" font-size="13" lengthAdjust="spacingAndGlyphs" textLength="282" x="257" y="327.9482">FixForAddin() 社内DBと照合のためにコード修正</text><polygon fill="#383838" points="489,358.8047,479,362.8047,489,366.8047,485,362.8047" style="stroke: #383838; stroke-width: 1.0;"/><line style="stroke: #383838; stroke-width: 1.0;" x1="483" x2="853" y1="362.8047" y2="362.8047"/><text fill="#000000" font-family="sans-serif" font-size="13" lengthAdjust="spacingAndGlyphs" textLength="104" x="495" y="358.2998">照合用コード書込</text><polygon fill="#383838" points="640,389.1563,630,393.1563,640,397.1563,636,393.1563" style="stroke: #383838; stroke-width: 1.0;"/><line style="stroke: #383838; stroke-width: 1.0;" x1="634" x2="858" y1="393.1563" y2="393.1563"/><text fill="#000000" font-family="sans-serif" font-size="13" lengthAdjust="spacingAndGlyphs" textLength="206" x="646" y="388.6514">○個組分解 Sub ParseScalingItem()</text><polygon fill="#383838" points="607,444.5078,617,448.5078,607,452.5078,611,448.5078" style="stroke: #383838; stroke-width: 1.0;"/><line style="stroke: #383838; stroke-width: 1.0;" x1="478" x2="613" y1="448.5078" y2="448.5078"/><text fill="#000000" font-family="sans-serif" font-size="13" lengthAdjust="spacingAndGlyphs" textLength="117" x="485" y="444.0029">ハイフン入りコード</text><polygon fill="#383838" points="489,474.8594,479,478.8594,489,482.8594,485,478.8594" style="stroke: #383838; stroke-width: 1.0;"/><line style="stroke: #383838; stroke-width: 1.0;" x1="483" x2="618" y1="478.8594" y2="478.8594"/><text fill="#000000" font-family="sans-serif" font-size="13" lengthAdjust="spacingAndGlyphs" textLength="78" x="495" y="474.3545">単体数量上書</text><polygon fill="#383838" points="489,505.2109,479,509.2109,489,513.2109,485,509.2109" style="stroke: #383838; stroke-width: 1.0;"/><line style="stroke: #383838; stroke-width: 1.0;" x1="483" x2="623" y1="509.2109" y2="509.2109"/><text fill="#000000" font-family="sans-serif" font-size="13" lengthAdjust="spacingAndGlyphs" textLength="91" x="495" y="504.7061">単体コード上書</text><polygon fill="#383838" points="607,535.5625,617,539.5625,607,543.5625,611,539.5625" style="stroke: #383838; stroke-width: 1.0;"/><line style="stroke: #383838; stroke-width: 1.0;" x1="250" x2="613" y1="539.5625" y2="539.5625"/><text fill="#000000" font-family="sans-serif" font-size="13" lengthAdjust="spacingAndGlyphs" textLength="202" x="257" y="535.0576">7777 セット分解 Sub ParseItems()</text><polygon fill="#383838" points="174,565.9141,164,569.9141,174,573.9141,170,569.9141" style="stroke: #383838; stroke-width: 1.0;"/><line style="stroke: #383838; stroke-width: 1.0; stroke-dasharray: 2.0,2.0;" x1="168" x2="618" y1="569.9141" y2="569.9141"/><text fill="#000000" font-family="sans-serif" font-size="13" lengthAdjust="spacingAndGlyphs" textLength="139" x="180" y="565.4092">77777xxxxxコード 検索</text><polygon fill="#383838" points="607,596.2656,617,600.2656,607,604.2656,611,600.2656" style="stroke: #383838; stroke-width: 1.0;"/><line style="stroke: #383838; stroke-width: 1.0; stroke-dasharray: 2.0,2.0;" x1="163" x2="613" y1="600.2656" y2="600.2656"/><text fill="#000000" font-family="sans-serif" font-size="13" lengthAdjust="spacingAndGlyphs" textLength="130" x="170" y="595.7607">構成商品コレクション</text><polygon fill="#383838" points="489,626.6172,479,630.6172,489,634.6172,485,630.6172" style="stroke: #383838; stroke-width: 1.0;"/><line style="stroke: #383838; stroke-width: 1.0;" x1="483" x2="623" y1="630.6172" y2="630.6172"/><text fill="#000000" font-family="sans-serif" font-size="13" lengthAdjust="spacingAndGlyphs" textLength="91" x="495" y="626.1123">アイテム行挿入</text><polygon fill="#383838" points="702.5,656.9688,712.5,660.9688,702.5,664.9688,706.5,660.9688" style="stroke: #383838; stroke-width: 1.0;"/><line style="stroke: #383838; stroke-width: 1.0;" x1="250" x2="708.5" y1="660.9688" y2="660.9688"/><text fill="#000000" font-family="sans-serif" font-size="13" lengthAdjust="spacingAndGlyphs" textLength="95" x="257" y="656.4639">Sub Make_List()</text><polygon fill="#383838" points="45.5,687.3203,35.5,691.3203,45.5,695.3203,41.5,691.3203" style="stroke: #383838; stroke-width: 1.0;"/><line style="stroke: #383838; stroke-width: 1.0;" x1="39.5" x2="713.5" y1="691.3203" y2="691.3203"/><text fill="#000000" font-family="sans-serif" font-size="13" lengthAdjust="spacingAndGlyphs" textLength="117" x="51.5" y="686.8154">ロケーション問合せ</text><polygon fill="#383838" points="702.5,717.6719,712.5,721.6719,702.5,725.6719,706.5,721.6719" style="stroke: #383838; stroke-width: 1.0;"/><line style="stroke: #383838; stroke-width: 1.0;" x1="34.5" x2="708.5" y1="721.6719" y2="721.6719"/><text fill="#000000" font-family="sans-serif" font-size="13" lengthAdjust="spacingAndGlyphs" textLength="104" x="41.5" y="717.167">ロケーション取得</text><polygon fill="#383838" points="489,748.0234,479,752.0234,489,756.0234,485,752.0234" style="stroke: #383838; stroke-width: 1.0;"/><line style="stroke: #383838; stroke-width: 1.0;" x1="483" x2="718.5" y1="752.0234" y2="752.0234"/><text fill="#000000" font-family="sans-serif" font-size="13" lengthAdjust="spacingAndGlyphs" textLength="104" x="495" y="747.5186">ロケーション書込</text><polygon fill="#383838" points="842,778.375,852,782.375,842,786.375,846,782.375" style="stroke: #383838; stroke-width: 1.0;"/><line style="stroke: #383838; stroke-width: 1.0;" x1="250" x2="848" y1="782.375" y2="782.375"/><text fill="#000000" font-family="sans-serif" font-size="13" lengthAdjust="spacingAndGlyphs" textLength="119" x="257" y="777.8701">Sub LocationCutter()</text><polygon fill="#383838" points="842,833.7266,852,837.7266,842,841.7266,846,837.7266" style="stroke: #383838; stroke-width: 1.0;"/><line style="stroke: #383838; stroke-width: 1.0;" x1="478" x2="848" y1="837.7266" y2="837.7266"/><text fill="#000000" font-family="sans-serif" font-size="13" lengthAdjust="spacingAndGlyphs" textLength="91" x="485" y="833.2217">ロケ文字列取得</text><polygon fill="#383838" points="489,864.0781,479,868.0781,489,872.0781,485,868.0781" style="stroke: #383838; stroke-width: 1.0;"/><line style="stroke: #383838; stroke-width: 1.0;" x1="483" x2="858" y1="868.0781" y2="868.0781"/><text fill="#000000" font-family="sans-serif" font-size="13" lengthAdjust="spacingAndGlyphs" textLength="78" x="495" y="863.5732">無効ロケ削除</text><polygon fill="#383838" points="951,919.4297,961,923.4297,951,927.4297,955,923.4297" style="stroke: #383838; stroke-width: 1.0;"/><line style="stroke: #383838; stroke-width: 1.0;" x1="250" x2="957" y1="923.4297" y2="923.4297"/><text fill="#000000" font-family="sans-serif" font-size="13" lengthAdjust="spacingAndGlyphs" textLength="116" x="257" y="918.9248">Sub CreatePicking()</text><rect fill="none" height="807.4063" style="stroke: #000000; stroke-width: 2.0;" width="1233.5" x="211" y="938.7813"/><polygon fill="#EEEEEE" points="211,938.7813,284,938.7813,284,946.7813,274,956.7813,211,956.7813,211,938.7813" style="stroke: #000000; stroke-width: 2.0;"/><text fill="#000000" font-family="sans-serif" font-size="13" font-weight="bold" lengthAdjust="spacingAndGlyphs" textLength="28" x="226" y="953.2764">loop</text><text fill="#000000" font-family="sans-serif" font-size="11" font-weight="bold" lengthAdjust="spacingAndGlyphs" textLength="86" x="299" y="952.2002">[3モール分実行]</text><polygon fill="#383838" points="489,975.1328,479,979.1328,489,983.1328,485,979.1328" style="stroke: #383838; stroke-width: 1.0;"/><line style="stroke: #383838; stroke-width: 1.0; stroke-dasharray: 2.0,2.0;" x1="483" x2="962" y1="979.1328" y2="979.1328"/><text fill="#000000" font-family="sans-serif" font-size="13" lengthAdjust="spacingAndGlyphs" textLength="160" x="495" y="974.6279">モール別 受注件数チェック</text><rect fill="none" height="303.6484" style="stroke: #000000; stroke-width: 2.0;" width="825.5" x="428" y="994.4844"/><polygon fill="#EEEEEE" points="428,994.4844,613,994.4844,613,1002.4844,603,1012.4844,428,1012.4844,428,994.4844" style="stroke: #000000; stroke-width: 2.0;"/><text fill="#000000" font-family="sans-serif" font-size="13" font-weight="bold" lengthAdjust="spacingAndGlyphs" textLength="140" x="443" y="1008.9795">ピッキングデータ作成</text><polygon fill="#383838" points="1071.5,1030.8359,1081.5,1034.8359,1071.5,1038.8359,1075.5,1034.8359" style="stroke: #383838; stroke-width: 1.0;"/><line style="stroke: #383838; stroke-width: 1.0;" x1="973" x2="1077.5" y1="1034.8359" y2="1034.8359"/><text fill="#000000" font-family="sans-serif" font-size="13" lengthAdjust="spacingAndGlyphs" textLength="65" x="980" y="1030.3311">ブック作成</text><text fill="#000000" font-family="sans-serif" font-size="14" lengthAdjust="spacingAndGlyphs" textLength="77" x="1083.5" y="1059.3691">Picking_2_3</text><ellipse cx="1125" cy="1028.8359" fill="#F8F8F8" filter="url(#fqujpsh)" rx="12" ry="12" style="stroke: #383838; stroke-width: 2.0;"/><line style="stroke: #383838; stroke-width: 2.0;" x1="1113" x2="1137" y1="1042.8359" y2="1042.8359"/><polygon fill="#383838" points="1164.5,1090.4453,1174.5,1094.4453,1164.5,1098.4453,1168.5,1094.4453" style="stroke: #383838; stroke-width: 1.0;"/><line style="stroke: #383838; stroke-width: 1.0;" x1="973" x2="1170.5" y1="1094.4453" y2="1094.4453"/><text fill="#000000" font-family="sans-serif" font-size="13" lengthAdjust="spacingAndGlyphs" textLength="65" x="980" y="1089.9404">ブック作成</text><text fill="#000000" font-family="sans-serif" font-size="14" lengthAdjust="spacingAndGlyphs" textLength="61" x="1176.5" y="1118.9785">Picking_a</text><ellipse cx="1210" cy="1088.4453" fill="#F8F8F8" filter="url(#fqujpsh)" rx="12" ry="12" style="stroke: #383838; stroke-width: 2.0;"/><line style="stroke: #383838; stroke-width: 2.0;" x1="1198" x2="1222" y1="1102.4453" y2="1102.4453"/><polygon fill="#383838" points="489,1150.0547,479,1154.0547,489,1158.0547,485,1154.0547" style="stroke: #383838; stroke-width: 1.0;"/><line style="stroke: #383838; stroke-width: 1.0;" x1="483" x2="962" y1="1154.0547" y2="1154.0547"/><text fill="#000000" font-family="sans-serif" font-size="13" lengthAdjust="spacingAndGlyphs" textLength="91" x="495" y="1149.5498">受注データ取得</text><line style="stroke: #383838; stroke-width: 1.0; stroke-dasharray: 2.0,2.0;" x1="973" x2="1015" y1="1184.7578" y2="1184.7578"/><line style="stroke: #383838; stroke-width: 1.0; stroke-dasharray: 2.0,2.0;" x1="1015" x2="1015" y1="1184.7578" y2="1197.7578"/><line style="stroke: #383838; stroke-width: 1.0; stroke-dasharray: 2.0,2.0;" x1="974" x2="1015" y1="1197.7578" y2="1197.7578"/><polygon fill="#383838" points="984,1193.7578,974,1197.7578,984,1201.7578,980,1197.7578" style="stroke: #383838; stroke-width: 1.0;"/><text fill="#000000" font-family="sans-serif" font-size="13" lengthAdjust="spacingAndGlyphs" textLength="91" x="980" y="1179.9014">受注モール判定</text><line style="stroke: #000000; stroke-width: 1.0; stroke-dasharray: 2.0,2.0;" x1="428" x2="1253.5" y1="1206.7578" y2="1206.7578"/><text fill="#000000" font-family="sans-serif" font-size="11" font-weight="bold" lengthAdjust="spacingAndGlyphs" textLength="44" x="433" y="1218.1768">[棚有り]</text><polygon fill="#383838" points="1113,1239.5938,1123,1243.5938,1113,1247.5938,1117,1243.5938" style="stroke: #383838; stroke-width: 1.0;"/><line style="stroke: #383838; stroke-width: 1.0;" x1="973" x2="1119" y1="1243.5938" y2="1243.5938"/><text fill="#000000" font-family="sans-serif" font-size="13" lengthAdjust="spacingAndGlyphs" textLength="128" x="980" y="1239.0889">6ケタ振替 データ転記</text><line style="stroke: #000000; stroke-width: 1.0; stroke-dasharray: 2.0,2.0;" x1="428" x2="1253.5" y1="1252.9453" y2="1252.9453"/><text fill="#000000" font-family="sans-serif" font-size="11" font-weight="bold" lengthAdjust="spacingAndGlyphs" textLength="44" x="433" y="1264.3643">[棚無し]</text><polygon fill="#383838" points="1198,1285.7813,1208,1289.7813,1198,1293.7813,1202,1289.7813" style="stroke: #383838; stroke-width: 1.0;"/><line style="stroke: #383838; stroke-width: 1.0;" x1="973" x2="1204" y1="1289.7813" y2="1289.7813"/><text fill="#000000" font-family="sans-serif" font-size="13" lengthAdjust="spacingAndGlyphs" textLength="65" x="980" y="1285.2764">データ転記</text><polygon fill="#383838" points="1113,1323.1328,1123,1327.1328,1113,1331.1328,1117,1327.1328" style="stroke: #383838; stroke-width: 1.0;"/><line style="stroke: #383838; stroke-width: 1.0;" x1="973" x2="1119" y1="1327.1328" y2="1327.1328"/><text fill="#000000" font-family="sans-serif" font-size="13" lengthAdjust="spacingAndGlyphs" textLength="78" x="980" y="1322.6279">ファイル保存</text><line style="stroke: #383838; stroke-width: 2.0;" x1="1116" x2="1134" y1="1318.1328" y2="1336.1328"/><line style="stroke: #383838; stroke-width: 2.0;" x1="1116" x2="1134" y1="1336.1328" y2="1318.1328"/><polygon fill="#383838" points="1198,1353.4844,1208,1357.4844,1198,1361.4844,1202,1357.4844" style="stroke: #383838; stroke-width: 1.0;"/><line style="stroke: #383838; stroke-width: 1.0;" x1="968" x2="1204" y1="1357.4844" y2="1357.4844"/><text fill="#000000" font-family="sans-serif" font-size="13" lengthAdjust="spacingAndGlyphs" textLength="78" x="975" y="1352.9795">ファイル保存</text><line style="stroke: #383838; stroke-width: 2.0;" x1="1201" x2="1219" y1="1348.4844" y2="1366.4844"/><line style="stroke: #383838; stroke-width: 2.0;" x1="1201" x2="1219" y1="1366.4844" y2="1348.4844"/><polygon fill="#383838" points="951,1383.8359,961,1387.8359,951,1391.8359,955,1387.8359" style="stroke: #383838; stroke-width: 1.0;"/><line style="stroke: #383838; stroke-width: 1.0;" x1="250" x2="957" y1="1387.8359" y2="1387.8359"/><text fill="#000000" font-family="sans-serif" font-size="13" lengthAdjust="spacingAndGlyphs" textLength="161" x="257" y="1383.3311">Sub CreateForSorterSheet()</text><rect fill="none" height="336" style="stroke: #000000; stroke-width: 2.0;" width="1006.5" x="428" y="1403.1875"/><polygon fill="#EEEEEE" points="428,1403.1875,571,1403.1875,571,1411.1875,561,1421.1875,428,1421.1875,428,1403.1875" style="stroke: #000000; stroke-width: 2.0;"/><text fill="#000000" font-family="sans-serif" font-size="13" font-weight="bold" lengthAdjust="spacingAndGlyphs" textLength="98" x="443" y="1417.6826">振分シート作成</text><polygon fill="#383838" points="1241.5,1439.5391,1251.5,1443.5391,1241.5,1447.5391,1245.5,1443.5391" style="stroke: #383838; stroke-width: 1.0;"/><line style="stroke: #383838; stroke-width: 1.0;" x1="973" x2="1247.5" y1="1443.5391" y2="1443.5391"/><text fill="#000000" font-family="sans-serif" font-size="13" lengthAdjust="spacingAndGlyphs" textLength="65" x="980" y="1439.0342">シート作成</text><text fill="#000000" font-family="sans-serif" font-size="14" lengthAdjust="spacingAndGlyphs" textLength="61" x="1253.5" y="1468.0723">ForSorter</text><ellipse cx="1287" cy="1437.5391" fill="#F8F8F8" filter="url(#fqujpsh)" rx="12" ry="12" style="stroke: #383838; stroke-width: 2.0;"/><line style="stroke: #383838; stroke-width: 2.0;" x1="1275" x2="1299" y1="1451.5391" y2="1451.5391"/><polygon fill="#383838" points="1318.5,1499.1484,1328.5,1503.1484,1318.5,1507.1484,1322.5,1503.1484" style="stroke: #383838; stroke-width: 1.0;"/><line style="stroke: #383838; stroke-width: 1.0;" x1="973" x2="1324.5" y1="1503.1484" y2="1503.1484"/><text fill="#000000" font-family="sans-serif" font-size="13" lengthAdjust="spacingAndGlyphs" textLength="65" x="980" y="1498.6436">シート作成</text><text fill="#000000" font-family="sans-serif" font-size="14" lengthAdjust="spacingAndGlyphs" textLength="88" x="1330.5" y="1527.6816">ForSorter_set</text><ellipse cx="1377.5" cy="1497.1484" fill="#F8F8F8" filter="url(#fqujpsh)" rx="12" ry="12" style="stroke: #383838; stroke-width: 2.0;"/><line style="stroke: #383838; stroke-width: 2.0;" x1="1365.5" x2="1389.5" y1="1511.1484" y2="1511.1484"/><polygon fill="#383838" points="489,1558.7578,479,1562.7578,489,1566.7578,485,1562.7578" style="stroke: #383838; stroke-width: 1.0;"/><line style="stroke: #383838; stroke-width: 1.0; stroke-dasharray: 2.0,2.0;" x1="483" x2="962" y1="1562.7578" y2="1562.7578"/><text fill="#000000" font-family="sans-serif" font-size="13" lengthAdjust="spacingAndGlyphs" textLength="91" x="495" y="1558.2529">受注データ取得</text><line style="stroke: #383838; stroke-width: 1.0;" x1="973" x2="1015" y1="1593.4609" y2="1593.4609"/><line style="stroke: #383838; stroke-width: 1.0;" x1="1015" x2="1015" y1="1593.4609" y2="1606.4609"/><line style="stroke: #383838; stroke-width: 1.0;" x1="974" x2="1015" y1="1606.4609" y2="1606.4609"/><polygon fill="#383838" points="984,1602.4609,974,1606.4609,984,1610.4609,980,1606.4609" style="stroke: #383838; stroke-width: 1.0;"/><text fill="#000000" font-family="sans-serif" font-size="13" lengthAdjust="spacingAndGlyphs" textLength="91" x="980" y="1588.6045">受注モール判定</text><line style="stroke: #000000; stroke-width: 1.0; stroke-dasharray: 2.0,2.0;" x1="428" x2="1434.5" y1="1615.4609" y2="1615.4609"/><text fill="#000000" font-family="sans-serif" font-size="11" font-weight="bold" lengthAdjust="spacingAndGlyphs" textLength="68" x="433" y="1626.8799">[単体受注品]</text><polygon fill="#383838" points="1275,1648.2969,1285,1652.2969,1275,1656.2969,1279,1652.2969" style="stroke: #383838; stroke-width: 1.0;"/><line style="stroke: #383838; stroke-width: 1.0;" x1="973" x2="1281" y1="1652.2969" y2="1652.2969"/><text fill="#000000" font-family="sans-serif" font-size="13" lengthAdjust="spacingAndGlyphs" textLength="91" x="980" y="1647.792">受注データ転記</text><line style="stroke: #000000; stroke-width: 1.0; stroke-dasharray: 2.0,2.0;" x1="428" x2="1434.5" y1="1661.6484" y2="1661.6484"/><text fill="#000000" font-family="sans-serif" font-size="11" font-weight="bold" lengthAdjust="spacingAndGlyphs" textLength="68" x="433" y="1673.0674">[セット商品]</text><polygon fill="#383838" points="1365.5,1694.4844,1375.5,1698.4844,1365.5,1702.4844,1369.5,1698.4844" style="stroke: #383838; stroke-width: 1.0;"/><line style="stroke: #383838; stroke-width: 1.0;" x1="973" x2="1371.5" y1="1698.4844" y2="1698.4844"/><text fill="#000000" font-family="sans-serif" font-size="13" lengthAdjust="spacingAndGlyphs" textLength="91" x="980" y="1693.9795">受注データ転記</text><line style="stroke: #000000; stroke-width: 1.0; stroke-dasharray: 2.0,2.0;" x1="428" x2="1434.5" y1="1707.8359" y2="1707.8359"/><polygon fill="#383838" points="1275,1726.8359,1285,1730.8359,1275,1734.8359,1279,1730.8359" style="stroke: #383838; stroke-width: 1.0;"/><line style="stroke: #383838; stroke-width: 1.0;" x1="973" x2="1281" y1="1730.8359" y2="1730.8359"/><text fill="#000000" font-family="sans-serif" font-size="13" lengthAdjust="spacingAndGlyphs" textLength="117" x="980" y="1726.3311">商品コードでソート</text><polygon fill="#383838" points="1275,1771.1875,1285,1775.1875,1275,1779.1875,1279,1775.1875" style="stroke: #383838; stroke-width: 1.0;"/><line style="stroke: #383838; stroke-width: 1.0; stroke-dasharray: 2.0,2.0;" x1="250" x2="1281" y1="1775.1875" y2="1775.1875"/><text fill="#000000" font-family="sans-serif" font-size="13" lengthAdjust="spacingAndGlyphs" textLength="79" x="257" y="1770.6826">VBA:PrintOut</text><polygon fill="#383838" points="1365.5,1801.5391,1375.5,1805.5391,1365.5,1809.5391,1369.5,1805.5391" style="stroke: #383838; stroke-width: 1.0;"/><line style="stroke: #383838; stroke-width: 1.0; stroke-dasharray: 2.0,2.0;" x1="250" x2="1371.5" y1="1805.5391" y2="1805.5391"/><text fill="#000000" font-family="sans-serif" font-size="13" lengthAdjust="spacingAndGlyphs" textLength="79" x="257" y="1801.0342">VBA:PrintOut</text><polygon fill="#383838" points="14,1831.8906,4,1835.8906,14,1839.8906,10,1835.8906" style="stroke: #383838; stroke-width: 1.0;"/><line style="stroke: #383838; stroke-width: 1.0;" x1="8" x2="244" y1="1835.8906" y2="1835.8906"/><text fill="#000000" font-family="sans-serif" font-size="13" lengthAdjust="spacingAndGlyphs" textLength="91" x="20" y="1831.3857">終了メッセージ</text></g></svg>