<?xml version="1.0" encoding="UTF-8" standalone="no"?><svg xmlns="http://www.w3.org/2000/svg" xmlns:xlink="http://www.w3.org/1999/xlink" contentScriptType="application/ecmascript" contentStyleType="text/css" height="1949px" preserveAspectRatio="none" style="width:1413px;height:1949px;" version="1.1" viewBox="0 0 1413 1949" width="1413px" zoomAndPan="magnify"><defs><filter height="300%" id="fwdmd6u" width="300%" x="-1" y="-1"><feGaussianBlur result="blurOut" stdDeviation="2.0"/><feColorMatrix in="blurOut" result="blurOut2" type="matrix" values="0 0 0 0 0 0 0 0 0 0 0 0 0 0 0 0 0 0 .4 0"/><feOffset dx="4.0" dy="4.0" in="blurOut2" result="blurOut3"/><feBlend in="SourceGraphic" in2="blurOut3" mode="normal"/></filter></defs><g><text fill="#000000" font-family="sans-serif" font-size="14" font-weight="bold" lengthAdjust="spacingAndGlyphs" textLength="193" x="612.25" y="24.5332">ピッキングテンプレートVBA</text><rect fill="#FFFFFF" filter="url(#fwdmd6u)" height="1716.7852" style="stroke: #383838; stroke-width: 1.0;" width="10" x="240" y="144.457"/><rect fill="#FFFFFF" filter="url(#fwdmd6u)" height="370.2188" style="stroke: #383838; stroke-width: 1.0;" width="10" x="334" y="181.6953"/><rect fill="#FFFFFF" filter="url(#fwdmd6u)" height="116.0547" style="stroke: #383838; stroke-width: 1.0;" width="10" x="587" y="405.5078"/><rect fill="#FFFFFF" filter="url(#fwdmd6u)" height="91.0547" style="stroke: #383838; stroke-width: 1.0;" width="10" x="587" y="551.9141"/><rect fill="#FFFFFF" filter="url(#fwdmd6u)" height="91.0547" style="stroke: #383838; stroke-width: 1.0;" width="10" x="682.5" y="673.3203"/><rect fill="#FFFFFF" filter="url(#fwdmd6u)" height="85.7031" style="stroke: #383838; stroke-width: 1.0;" width="10" x="787" y="794.7266"/><rect fill="#FFFFFF" filter="url(#fwdmd6u)" height="447.0547" style="stroke: #383838; stroke-width: 1.0;" width="10" x="896" y="935.7813"/><rect fill="#FFFFFF" filter="url(#fwdmd6u)" height="365.3516" style="stroke: #383838; stroke-width: 1.0;" width="10" x="896" y="1413.1875"/><rect fill="#FFFFFF" filter="url(#fwdmd6u)" height="820.4063" style="stroke: #000000; stroke-width: 2.0;" width="1193.5" x="211" y="951.1328"/><rect fill="#FFFFFF" filter="url(#fwdmd6u)" height="303.6484" style="stroke: #000000; stroke-width: 2.0;" width="791.5" x="422" y="1019.8359"/><text fill="#000000" font-family="sans-serif" font-size="14" lengthAdjust="spacingAndGlyphs" textLength="77" x="1043.5" y="1084.7207">Picking_2_3</text><ellipse cx="1085" cy="1054.1875" fill="#F8F8F8" filter="url(#fwdmd6u)" rx="12" ry="12" style="stroke: #383838; stroke-width: 2.0;"/><line style="stroke: #383838; stroke-width: 2.0;" x1="1073" x2="1097" y1="1068.1875" y2="1068.1875"/><text fill="#000000" font-family="sans-serif" font-size="14" lengthAdjust="spacingAndGlyphs" textLength="61" x="1136.5" y="1144.3301">Picking_a</text><ellipse cx="1170" cy="1113.7969" fill="#F8F8F8" filter="url(#fwdmd6u)" rx="12" ry="12" style="stroke: #383838; stroke-width: 2.0;"/><line style="stroke: #383838; stroke-width: 2.0;" x1="1158" x2="1182" y1="1127.7969" y2="1127.7969"/><rect fill="#FFFFFF" height="46.1875" style="stroke: none; stroke-width: 1.0;" width="791.5" x="422" y="1231.1094"/><rect fill="#FFFFFF" height="46.1875" style="stroke: none; stroke-width: 1.0;" width="791.5" x="422" y="1277.2969"/><rect fill="#FFFFFF" filter="url(#fwdmd6u)" height="336" style="stroke: #000000; stroke-width: 2.0;" width="972.5" x="422" y="1428.5391"/><text fill="#000000" font-family="sans-serif" font-size="14" lengthAdjust="spacingAndGlyphs" textLength="61" x="1213.5" y="1493.4238">ForSorter</text><ellipse cx="1247" cy="1462.8906" fill="#F8F8F8" filter="url(#fwdmd6u)" rx="12" ry="12" style="stroke: #383838; stroke-width: 2.0;"/><line style="stroke: #383838; stroke-width: 2.0;" x1="1235" x2="1259" y1="1476.8906" y2="1476.8906"/><text fill="#000000" font-family="sans-serif" font-size="14" lengthAdjust="spacingAndGlyphs" textLength="88" x="1290.5" y="1553.0332">ForSorter_set</text><ellipse cx="1337.5" cy="1522.5" fill="#F8F8F8" filter="url(#fwdmd6u)" rx="12" ry="12" style="stroke: #383838; stroke-width: 2.0;"/><line style="stroke: #383838; stroke-width: 2.0;" x1="1325.5" x2="1349.5" y1="1536.5" y2="1536.5"/><rect fill="#FFFFFF" height="46.1875" style="stroke: none; stroke-width: 1.0;" width="972.5" x="422" y="1639.8125"/><rect fill="#FFFFFF" height="46.1875" style="stroke: none; stroke-width: 1.0;" width="972.5" x="422" y="1686"/><rect fill="#FFFFFF" height="32.3516" style="stroke: none; stroke-width: 1.0;" width="972.5" x="422" y="1732.1875"/><rect fill="#FFFFFF" height="1910.5938" style="stroke: #383838; stroke-width: 1.0;" width="148" x="67" y="35.6094"/><text fill="#000000" font-family="sans-serif" font-size="13" font-weight="bold" lengthAdjust="spacingAndGlyphs" textLength="84" x="99" y="49.1045">外部ファイル</text><line style="stroke: #383838; stroke-width: 1.0; stroke-dasharray: 5.0,5.0;" x1="34" x2="34" y1="105.5703" y2="1879.5938"/><line style="stroke: #383838; stroke-width: 1.0; stroke-dasharray: 5.0,5.0;" x1="88" x2="88" y1="105.5703" y2="1879.5938"/><line style="stroke: #383838; stroke-width: 1.0; stroke-dasharray: 5.0,5.0;" x1="163" x2="163" y1="105.5703" y2="1879.5938"/><line style="stroke: #383838; stroke-width: 1.0; stroke-dasharray: 5.0,5.0;" x1="245" x2="245" y1="105.5703" y2="1879.5938"/><line style="stroke: #383838; stroke-width: 1.0; stroke-dasharray: 5.0,5.0;" x1="339" x2="339" y1="105.5703" y2="1879.5938"/><line style="stroke: #383838; stroke-width: 1.0; stroke-dasharray: 5.0,5.0;" x1="472" x2="472" y1="105.5703" y2="1879.5938"/><line style="stroke: #383838; stroke-width: 1.0; stroke-dasharray: 5.0,5.0;" x1="591.5" x2="591.5" y1="105.5703" y2="1879.5938"/><line style="stroke: #383838; stroke-width: 1.0; stroke-dasharray: 5.0,5.0;" x1="687.5" x2="687.5" y1="105.5703" y2="1879.5938"/><line style="stroke: #383838; stroke-width: 1.0; stroke-dasharray: 5.0,5.0;" x1="791.5" x2="791.5" y1="105.5703" y2="1879.5938"/><line style="stroke: #383838; stroke-width: 1.0; stroke-dasharray: 5.0,5.0;" x1="900.5" x2="900.5" y1="105.5703" y2="1879.5938"/><line style="stroke: #383838; stroke-width: 1.0; stroke-dasharray: 5.0,5.0;" x1="1084.5" x2="1084.5" y1="1077.9922" y2="1879.5938"/><line style="stroke: #383838; stroke-width: 1.0; stroke-dasharray: 5.0,5.0;" x1="1169.5" x2="1169.5" y1="1137.6016" y2="1879.5938"/><line style="stroke: #383838; stroke-width: 1.0; stroke-dasharray: 5.0,5.0;" x1="1246.5" x2="1246.5" y1="1486.6953" y2="1879.5938"/><line style="stroke: #383838; stroke-width: 1.0; stroke-dasharray: 5.0,5.0;" x1="1337.5" x2="1337.5" y1="1546.3047" y2="1879.5938"/><text fill="#000000" font-family="sans-serif" font-size="14" lengthAdjust="spacingAndGlyphs" textLength="47" x="8" y="102.4941">社内DB</text><path d="M16.5,51.9609 C16.5,41.9609 34.5,41.9609 34.5,41.9609 C34.5,41.9609 52.5,41.9609 52.5,51.9609 L52.5,77.9609 C52.5,87.9609 34.5,87.9609 34.5,87.9609 C34.5,87.9609 16.5,87.9609 16.5,77.9609 L16.5,51.9609 " fill="#F8F8F8" filter="url(#fwdmd6u)" style="stroke: #000000; stroke-width: 1.5;"/><path d="M16.5,51.9609 C16.5,61.9609 34.5,61.9609 34.5,61.9609 C34.5,61.9609 52.5,61.9609 52.5,51.9609 " fill="none" style="stroke: #000000; stroke-width: 1.5;"/><text fill="#000000" font-family="sans-serif" font-size="14" lengthAdjust="spacingAndGlyphs" textLength="47" x="8" y="1893.127">社内DB</text><path d="M16.5,1906.2031 C16.5,1896.2031 34.5,1896.2031 34.5,1896.2031 C34.5,1896.2031 52.5,1896.2031 52.5,1906.2031 L52.5,1932.2031 C52.5,1942.2031 34.5,1942.2031 34.5,1942.2031 C34.5,1942.2031 16.5,1942.2031 16.5,1932.2031 L16.5,1906.2031 " fill="#F8F8F8" filter="url(#fwdmd6u)" style="stroke: #000000; stroke-width: 1.5;"/><path d="M16.5,1906.2031 C16.5,1916.2031 34.5,1916.2031 34.5,1916.2031 C34.5,1916.2031 52.5,1916.2031 52.5,1906.2031 " fill="none" style="stroke: #000000; stroke-width: 1.5;"/><text fill="#000000" font-family="sans-serif" font-size="14" lengthAdjust="spacingAndGlyphs" textLength="28" x="71" y="102.4941">CSV</text><ellipse cx="88" cy="71.9609" fill="#F8F8F8" filter="url(#fwdmd6u)" rx="12" ry="12" style="stroke: #383838; stroke-width: 2.0;"/><line style="stroke: #383838; stroke-width: 2.0;" x1="76" x2="100" y1="85.9609" y2="85.9609"/><text fill="#000000" font-family="sans-serif" font-size="14" lengthAdjust="spacingAndGlyphs" textLength="28" x="71" y="1893.127">CSV</text><ellipse cx="88" cy="1912.2031" fill="#F8F8F8" filter="url(#fwdmd6u)" rx="12" ry="12" style="stroke: #383838; stroke-width: 2.0;"/><line style="stroke: #383838; stroke-width: 2.0;" x1="76" x2="100" y1="1926.2031" y2="1926.2031"/><text fill="#000000" font-family="sans-serif" font-size="14" lengthAdjust="spacingAndGlyphs" textLength="90" x="115" y="102.4941">ｾｯﾄ商品ﾘｽﾄ.xls</text><ellipse cx="163" cy="71.9609" fill="#F8F8F8" filter="url(#fwdmd6u)" rx="12" ry="12" style="stroke: #383838; stroke-width: 2.0;"/><line style="stroke: #383838; stroke-width: 2.0;" x1="151" x2="175" y1="85.9609" y2="85.9609"/><text fill="#000000" font-family="sans-serif" font-size="14" lengthAdjust="spacingAndGlyphs" textLength="90" x="115" y="1893.127">ｾｯﾄ商品ﾘｽﾄ.xls</text><ellipse cx="163" cy="1912.2031" fill="#F8F8F8" filter="url(#fwdmd6u)" rx="12" ry="12" style="stroke: #383838; stroke-width: 2.0;"/><line style="stroke: #383838; stroke-width: 2.0;" x1="151" x2="175" y1="1926.2031" y2="1926.2031"/><rect fill="#F8F8F8" filter="url(#fwdmd6u)" height="31.6094" style="stroke: #383838; stroke-width: 1.5;" width="44" x="221" y="68.9609"/><text fill="#000000" font-family="sans-serif" font-size="14" lengthAdjust="spacingAndGlyphs" textLength="30" x="228" y="90.4941">Main</text><rect fill="#F8F8F8" filter="url(#fwdmd6u)" height="31.6094" style="stroke: #383838; stroke-width: 1.5;" width="44" x="221" y="1878.5938"/><text fill="#000000" font-family="sans-serif" font-size="14" lengthAdjust="spacingAndGlyphs" textLength="30" x="228" y="1900.127">Main</text><rect fill="#F8F8F8" filter="url(#fwdmd6u)" height="31.6094" style="stroke: #383838; stroke-width: 1.5;" width="70" x="302" y="68.9609"/><text fill="#000000" font-family="sans-serif" font-size="14" lengthAdjust="spacingAndGlyphs" textLength="56" x="309" y="90.4941">LoadCsv</text><rect fill="#F8F8F8" filter="url(#fwdmd6u)" height="31.6094" style="stroke: #383838; stroke-width: 1.5;" width="70" x="302" y="1878.5938"/><text fill="#000000" font-family="sans-serif" font-size="14" lengthAdjust="spacingAndGlyphs" textLength="56" x="309" y="1900.127">LoadCsv</text><text fill="#000000" font-family="sans-serif" font-size="14" lengthAdjust="spacingAndGlyphs" textLength="74" x="432" y="102.4941">OrderSheet</text><ellipse cx="472" cy="71.9609" fill="#F8F8F8" filter="url(#fwdmd6u)" rx="12" ry="12" style="stroke: #383838; stroke-width: 2.0;"/><line style="stroke: #383838; stroke-width: 2.0;" x1="460" x2="484" y1="85.9609" y2="85.9609"/><text fill="#000000" font-family="sans-serif" font-size="14" lengthAdjust="spacingAndGlyphs" textLength="74" x="432" y="1893.127">OrderSheet</text><ellipse cx="472" cy="1912.2031" fill="#F8F8F8" filter="url(#fwdmd6u)" rx="12" ry="12" style="stroke: #383838; stroke-width: 2.0;"/><line style="stroke: #383838; stroke-width: 2.0;" x1="460" x2="484" y1="1926.2031" y2="1926.2031"/><rect fill="#F8F8F8" filter="url(#fwdmd6u)" height="31.6094" style="stroke: #383838; stroke-width: 1.5;" width="77" x="551.5" y="68.9609"/><text fill="#000000" font-family="sans-serif" font-size="14" lengthAdjust="spacingAndGlyphs" textLength="63" x="558.5" y="90.4941">SetParser</text><rect fill="#F8F8F8" filter="url(#fwdmd6u)" height="31.6094" style="stroke: #383838; stroke-width: 1.5;" width="77" x="551.5" y="1878.5938"/><text fill="#000000" font-family="sans-serif" font-size="14" lengthAdjust="spacingAndGlyphs" textLength="63" x="558.5" y="1900.127">SetParser</text><rect fill="#F8F8F8" filter="url(#fwdmd6u)" height="31.6094" style="stroke: #383838; stroke-width: 1.5;" width="86" x="642.5" y="68.9609"/><text fill="#000000" font-family="sans-serif" font-size="14" lengthAdjust="spacingAndGlyphs" textLength="72" x="649.5" y="90.4941">ConnectDB</text><rect fill="#F8F8F8" filter="url(#fwdmd6u)" height="31.6094" style="stroke: #383838; stroke-width: 1.5;" width="86" x="642.5" y="1878.5938"/><text fill="#000000" font-family="sans-serif" font-size="14" lengthAdjust="spacingAndGlyphs" textLength="72" x="649.5" y="1900.127">ConnectDB</text><rect fill="#F8F8F8" filter="url(#fwdmd6u)" height="31.6094" style="stroke: #383838; stroke-width: 1.5;" width="95" x="742.5" y="68.9609"/><text fill="#000000" font-family="sans-serif" font-size="14" lengthAdjust="spacingAndGlyphs" textLength="81" x="749.5" y="90.4941">DataValidate</text><rect fill="#F8F8F8" filter="url(#fwdmd6u)" height="31.6094" style="stroke: #383838; stroke-width: 1.5;" width="95" x="742.5" y="1878.5938"/><text fill="#000000" font-family="sans-serif" font-size="14" lengthAdjust="spacingAndGlyphs" textLength="81" x="749.5" y="1900.127">DataValidate</text><rect fill="#F8F8F8" filter="url(#fwdmd6u)" height="31.6094" style="stroke: #383838; stroke-width: 1.5;" width="95" x="851.5" y="68.9609"/><text fill="#000000" font-family="sans-serif" font-size="14" lengthAdjust="spacingAndGlyphs" textLength="81" x="858.5" y="90.4941">SheetBuilder</text><rect fill="#F8F8F8" filter="url(#fwdmd6u)" height="31.6094" style="stroke: #383838; stroke-width: 1.5;" width="95" x="851.5" y="1878.5938"/><text fill="#000000" font-family="sans-serif" font-size="14" lengthAdjust="spacingAndGlyphs" textLength="81" x="858.5" y="1900.127">SheetBuilder</text><text fill="#000000" font-family="sans-serif" font-size="14" lengthAdjust="spacingAndGlyphs" textLength="77" x="1043.5" y="1893.127">Picking_2_3</text><ellipse cx="1085" cy="1912.2031" fill="#F8F8F8" filter="url(#fwdmd6u)" rx="12" ry="12" style="stroke: #383838; stroke-width: 2.0;"/><line style="stroke: #383838; stroke-width: 2.0;" x1="1073" x2="1097" y1="1926.2031" y2="1926.2031"/><text fill="#000000" font-family="sans-serif" font-size="14" lengthAdjust="spacingAndGlyphs" textLength="61" x="1136.5" y="1893.127">Picking_a</text><ellipse cx="1170" cy="1912.2031" fill="#F8F8F8" filter="url(#fwdmd6u)" rx="12" ry="12" style="stroke: #383838; stroke-width: 2.0;"/><line style="stroke: #383838; stroke-width: 2.0;" x1="1158" x2="1182" y1="1926.2031" y2="1926.2031"/><text fill="#000000" font-family="sans-serif" font-size="14" lengthAdjust="spacingAndGlyphs" textLength="61" x="1213.5" y="1893.127">ForSorter</text><ellipse cx="1247" cy="1912.2031" fill="#F8F8F8" filter="url(#fwdmd6u)" rx="12" ry="12" style="stroke: #383838; stroke-width: 2.0;"/><line style="stroke: #383838; stroke-width: 2.0;" x1="1235" x2="1259" y1="1926.2031" y2="1926.2031"/><text fill="#000000" font-family="sans-serif" font-size="14" lengthAdjust="spacingAndGlyphs" textLength="88" x="1290.5" y="1893.127">ForSorter_set</text><ellipse cx="1337.5" cy="1912.2031" fill="#F8F8F8" filter="url(#fwdmd6u)" rx="12" ry="12" style="stroke: #383838; stroke-width: 2.0;"/><line style="stroke: #383838; stroke-width: 2.0;" x1="1325.5" x2="1349.5" y1="1926.2031" y2="1926.2031"/><rect fill="#FFFFFF" filter="url(#fwdmd6u)" height="1716.7852" style="stroke: #383838; stroke-width: 1.0;" width="10" x="240" y="144.457"/><rect fill="#FFFFFF" filter="url(#fwdmd6u)" height="370.2188" style="stroke: #383838; stroke-width: 1.0;" width="10" x="334" y="181.6953"/><rect fill="#FFFFFF" filter="url(#fwdmd6u)" height="116.0547" style="stroke: #383838; stroke-width: 1.0;" width="10" x="587" y="405.5078"/><rect fill="#FFFFFF" filter="url(#fwdmd6u)" height="91.0547" style="stroke: #383838; stroke-width: 1.0;" width="10" x="587" y="551.9141"/><rect fill="#FFFFFF" filter="url(#fwdmd6u)" height="91.0547" style="stroke: #383838; stroke-width: 1.0;" width="10" x="682.5" y="673.3203"/><rect fill="#FFFFFF" filter="url(#fwdmd6u)" height="85.7031" style="stroke: #383838; stroke-width: 1.0;" width="10" x="787" y="794.7266"/><rect fill="#FFFFFF" filter="url(#fwdmd6u)" height="447.0547" style="stroke: #383838; stroke-width: 1.0;" width="10" x="896" y="935.7813"/><rect fill="#FFFFFF" filter="url(#fwdmd6u)" height="365.3516" style="stroke: #383838; stroke-width: 1.0;" width="10" x="896" y="1413.1875"/><polygon fill="#383838" points="228,140.457,238,144.457,228,148.457,232,144.457" style="stroke: #383838; stroke-width: 1.0;"/><line style="stroke: #383838; stroke-width: 1.0;" x1="3" x2="234" y1="144.457" y2="144.457"/><text fill="#000000" font-family="sans-serif" font-size="13" lengthAdjust="spacingAndGlyphs" textLength="65" x="10" y="139.9521">マクロ起動</text><polygon fill="#ECECEC" filter="url(#fwdmd6u)" points="255,120.5703,255,150.5703,468,150.5703,468,130.5703,458,120.5703,255,120.5703" style="stroke: #383838; stroke-width: 1.0;"/><line style="stroke: #383838; stroke-width: 1.0;" x1="458" x2="458" y1="120.5703" y2="130.5703"/><line style="stroke: #383838; stroke-width: 1.0;" x1="468" x2="458" y1="130.5703" y2="130.5703"/><text fill="#000000" font-family="sans-serif" font-size="16" lengthAdjust="spacingAndGlyphs" textLength="192" x="261" y="142.1797">進捗表示ダイアログを実装</text><polygon fill="#383838" points="322,177.6953,332,181.6953,322,185.6953,326,181.6953" style="stroke: #383838; stroke-width: 1.0;"/><line style="stroke: #383838; stroke-width: 1.0;" x1="250" x2="328" y1="181.6953" y2="181.6953"/><text fill="#000000" font-family="sans-serif" font-size="13" lengthAdjust="spacingAndGlyphs" textLength="65" x="257" y="177.1904">マクロ起動</text><line style="stroke: #383838; stroke-width: 1.0;" x1="344" x2="386" y1="228.75" y2="228.75"/><line style="stroke: #383838; stroke-width: 1.0;" x1="386" x2="386" y1="228.75" y2="241.75"/><line style="stroke: #383838; stroke-width: 1.0;" x1="345" x2="386" y1="241.75" y2="241.75"/><polygon fill="#383838" points="355,237.75,345,241.75,355,245.75,351,241.75" style="stroke: #383838; stroke-width: 1.0;"/><text fill="#000000" font-family="sans-serif" font-size="13" lengthAdjust="spacingAndGlyphs" textLength="53" x="351" y="207.542">CSV指定</text><text fill="#000000" font-family="sans-serif" font-size="13" lengthAdjust="spacingAndGlyphs" textLength="78" x="351" y="223.8936">日付チェック</text><polygon fill="#383838" points="99,267.75,89,271.75,99,275.75,95,271.75" style="stroke: #383838; stroke-width: 1.0;"/><line style="stroke: #383838; stroke-width: 1.0;" x1="93" x2="333" y1="271.75" y2="271.75"/><text fill="#000000" font-family="sans-serif" font-size="13" lengthAdjust="spacingAndGlyphs" textLength="65" x="105" y="267.2451">データ接続</text><polygon fill="#383838" points="460,298.1016,470,302.1016,460,306.1016,464,302.1016" style="stroke: #383838; stroke-width: 1.0;"/><line style="stroke: #383838; stroke-width: 1.0;" x1="344" x2="466" y1="302.1016" y2="302.1016"/><text fill="#000000" font-family="sans-serif" font-size="13" lengthAdjust="spacingAndGlyphs" textLength="91" x="351" y="297.5967">受注データ取込</text><polygon fill="#383838" points="460,349.8047,470,353.8047,460,357.8047,464,353.8047" style="stroke: #383838; stroke-width: 1.0;"/><line style="stroke: #383838; stroke-width: 1.0;" x1="344" x2="466" y1="353.8047" y2="353.8047"/><text fill="#000000" font-family="sans-serif" font-size="13" lengthAdjust="spacingAndGlyphs" textLength="104" x="351" y="349.2998">フォーマット修正</text><polygon fill="#ECECEC" filter="url(#fwdmd6u)" points="477,315.4531,477,374.4531,718,374.4531,718,325.4531,708,315.4531,477,315.4531" style="stroke: #383838; stroke-width: 1.0;"/><line style="stroke: #383838; stroke-width: 1.0;" x1="708" x2="708" y1="315.4531" y2="325.4531"/><line style="stroke: #383838; stroke-width: 1.0;" x1="718" x2="708" y1="325.4531" y2="325.4531"/><text fill="#000000" font-family="sans-serif" font-size="13" lengthAdjust="spacingAndGlyphs" textLength="182" x="483" y="333.9482">商品名変更が必要な可能性アリ</text><text fill="#000000" font-family="sans-serif" font-size="13" lengthAdjust="spacingAndGlyphs" textLength="161" x="487" y="350.2998">≪SS≫を中身ごと削除する</text><text fill="#000000" font-family="sans-serif" font-size="13" lengthAdjust="spacingAndGlyphs" textLength="216" x="487" y="366.6514">冒頭○文字以内の[]を削除する、など</text><polygon fill="#383838" points="575,401.5078,585,405.5078,575,409.5078,579,405.5078" style="stroke: #383838; stroke-width: 1.0;"/><line style="stroke: #383838; stroke-width: 1.0;" x1="344" x2="581" y1="405.5078" y2="405.5078"/><text fill="#000000" font-family="sans-serif" font-size="13" lengthAdjust="spacingAndGlyphs" textLength="95" x="351" y="401.0029">セット分解 呼出</text><polygon fill="#383838" points="575,456.8594,585,460.8594,575,464.8594,579,460.8594" style="stroke: #383838; stroke-width: 1.0;"/><line style="stroke: #383838; stroke-width: 1.0;" x1="472" x2="581" y1="460.8594" y2="460.8594"/><text fill="#000000" font-family="sans-serif" font-size="13" lengthAdjust="spacingAndGlyphs" textLength="65" x="479" y="456.3545">○個組分解</text><polygon fill="#383838" points="483,487.2109,473,491.2109,483,495.2109,479,491.2109" style="stroke: #383838; stroke-width: 1.0;"/><line style="stroke: #383838; stroke-width: 1.0;" x1="477" x2="586" y1="491.2109" y2="491.2109"/><text fill="#000000" font-family="sans-serif" font-size="13" lengthAdjust="spacingAndGlyphs" textLength="78" x="489" y="486.7061">単体数量上書</text><polygon fill="#383838" points="483,517.5625,473,521.5625,483,525.5625,479,521.5625" style="stroke: #383838; stroke-width: 1.0;"/><line style="stroke: #383838; stroke-width: 1.0;" x1="477" x2="591" y1="521.5625" y2="521.5625"/><text fill="#000000" font-family="sans-serif" font-size="13" lengthAdjust="spacingAndGlyphs" textLength="91" x="489" y="517.0576">単体コード上書</text><polygon fill="#383838" points="575,547.9141,585,551.9141,575,555.9141,579,551.9141" style="stroke: #383838; stroke-width: 1.0;"/><line style="stroke: #383838; stroke-width: 1.0;" x1="339" x2="581" y1="551.9141" y2="551.9141"/><text fill="#000000" font-family="sans-serif" font-size="13" lengthAdjust="spacingAndGlyphs" textLength="95" x="346" y="547.4092">セット分解 呼出</text><polygon fill="#383838" points="174,578.2656,164,582.2656,174,586.2656,170,582.2656" style="stroke: #383838; stroke-width: 1.0;"/><line style="stroke: #383838; stroke-width: 1.0;" x1="168" x2="586" y1="582.2656" y2="582.2656"/><text fill="#000000" font-family="sans-serif" font-size="13" lengthAdjust="spacingAndGlyphs" textLength="127" x="180" y="577.7607">GetComponentItems()</text><polygon fill="#383838" points="575,608.6172,585,612.6172,575,616.6172,579,612.6172" style="stroke: #383838; stroke-width: 1.0;"/><line style="stroke: #383838; stroke-width: 1.0; stroke-dasharray: 2.0,2.0;" x1="163" x2="581" y1="612.6172" y2="612.6172"/><text fill="#000000" font-family="sans-serif" font-size="13" lengthAdjust="spacingAndGlyphs" textLength="82" x="170" y="608.1123">ItemCollection</text><polygon fill="#383838" points="483,638.9688,473,642.9688,483,646.9688,479,642.9688" style="stroke: #383838; stroke-width: 1.0;"/><line style="stroke: #383838; stroke-width: 1.0;" x1="477" x2="591" y1="642.9688" y2="642.9688"/><text fill="#000000" font-family="sans-serif" font-size="13" lengthAdjust="spacingAndGlyphs" textLength="91" x="489" y="638.4639">アイテム行挿入</text><polygon fill="#383838" points="670.5,669.3203,680.5,673.3203,670.5,677.3203,674.5,673.3203" style="stroke: #383838; stroke-width: 1.0;"/><line style="stroke: #383838; stroke-width: 1.0;" x1="250" x2="676.5" y1="673.3203" y2="673.3203"/><text fill="#000000" font-family="sans-serif" font-size="13" lengthAdjust="spacingAndGlyphs" textLength="26" x="257" y="668.8154">呼出</text><polygon fill="#383838" points="45.5,699.6719,35.5,703.6719,45.5,707.6719,41.5,703.6719" style="stroke: #383838; stroke-width: 1.0;"/><line style="stroke: #383838; stroke-width: 1.0;" x1="39.5" x2="681.5" y1="703.6719" y2="703.6719"/><text fill="#000000" font-family="sans-serif" font-size="13" lengthAdjust="spacingAndGlyphs" textLength="117" x="51.5" y="699.167">ロケーション問合せ</text><polygon fill="#383838" points="670.5,730.0234,680.5,734.0234,670.5,738.0234,674.5,734.0234" style="stroke: #383838; stroke-width: 1.0;"/><line style="stroke: #383838; stroke-width: 1.0;" x1="34.5" x2="676.5" y1="734.0234" y2="734.0234"/><text fill="#000000" font-family="sans-serif" font-size="13" lengthAdjust="spacingAndGlyphs" textLength="104" x="41.5" y="729.5186">ロケーション取得</text><polygon fill="#383838" points="483,760.375,473,764.375,483,768.375,479,764.375" style="stroke: #383838; stroke-width: 1.0;"/><line style="stroke: #383838; stroke-width: 1.0;" x1="477" x2="686.5" y1="764.375" y2="764.375"/><text fill="#000000" font-family="sans-serif" font-size="13" lengthAdjust="spacingAndGlyphs" textLength="104" x="489" y="759.8701">ロケーション書込</text><polygon fill="#383838" points="775,790.7266,785,794.7266,775,798.7266,779,794.7266" style="stroke: #383838; stroke-width: 1.0;"/><line style="stroke: #383838; stroke-width: 1.0;" x1="250" x2="781" y1="794.7266" y2="794.7266"/><text fill="#000000" font-family="sans-serif" font-size="13" lengthAdjust="spacingAndGlyphs" textLength="110" x="257" y="790.2217">呼出LocationCutter</text><polygon fill="#383838" points="775,846.0781,785,850.0781,775,854.0781,779,850.0781" style="stroke: #383838; stroke-width: 1.0;"/><line style="stroke: #383838; stroke-width: 1.0;" x1="472" x2="781" y1="850.0781" y2="850.0781"/><text fill="#000000" font-family="sans-serif" font-size="13" lengthAdjust="spacingAndGlyphs" textLength="91" x="479" y="845.5732">ロケ文字列取得</text><polygon fill="#383838" points="483,876.4297,473,880.4297,483,884.4297,479,880.4297" style="stroke: #383838; stroke-width: 1.0;"/><line style="stroke: #383838; stroke-width: 1.0;" x1="477" x2="791" y1="880.4297" y2="880.4297"/><text fill="#000000" font-family="sans-serif" font-size="13" lengthAdjust="spacingAndGlyphs" textLength="78" x="489" y="875.9248">無効ロケ削除</text><polygon fill="#383838" points="884,931.7813,894,935.7813,884,939.7813,888,935.7813" style="stroke: #383838; stroke-width: 1.0;"/><line style="stroke: #383838; stroke-width: 1.0;" x1="250" x2="890" y1="935.7813" y2="935.7813"/><text fill="#000000" font-family="sans-serif" font-size="13" lengthAdjust="spacingAndGlyphs" textLength="116" x="257" y="931.2764">Sub CreatePicking()</text><rect fill="none" height="820.4063" style="stroke: #000000; stroke-width: 2.0;" width="1193.5" x="211" y="951.1328"/><polygon fill="#EEEEEE" points="211,951.1328,284,951.1328,284,959.1328,274,969.1328,211,969.1328,211,951.1328" style="stroke: #000000; stroke-width: 2.0;"/><text fill="#000000" font-family="sans-serif" font-size="13" font-weight="bold" lengthAdjust="spacingAndGlyphs" textLength="28" x="226" y="965.6279">loop</text><text fill="#000000" font-family="sans-serif" font-size="11" font-weight="bold" lengthAdjust="spacingAndGlyphs" textLength="86" x="299" y="964.5518">[3モール分実行]</text><line style="stroke: #383838; stroke-width: 1.0;" x1="906" x2="948" y1="991.8359" y2="991.8359"/><line style="stroke: #383838; stroke-width: 1.0;" x1="948" x2="948" y1="991.8359" y2="1004.8359"/><line style="stroke: #383838; stroke-width: 1.0;" x1="907" x2="948" y1="1004.8359" y2="1004.8359"/><polygon fill="#383838" points="917,1000.8359,907,1004.8359,917,1008.8359,913,1004.8359" style="stroke: #383838; stroke-width: 1.0;"/><text fill="#000000" font-family="sans-serif" font-size="13" lengthAdjust="spacingAndGlyphs" textLength="160" x="913" y="986.9795">モール別 受注件数チェック</text><rect fill="none" height="303.6484" style="stroke: #000000; stroke-width: 2.0;" width="791.5" x="422" y="1019.8359"/><polygon fill="#EEEEEE" points="422,1019.8359,607,1019.8359,607,1027.8359,597,1037.8359,422,1037.8359,422,1019.8359" style="stroke: #000000; stroke-width: 2.0;"/><text fill="#000000" font-family="sans-serif" font-size="13" font-weight="bold" lengthAdjust="spacingAndGlyphs" textLength="140" x="437" y="1034.3311">ピッキングデータ作成</text><polygon fill="#383838" points="1031.5,1056.1875,1041.5,1060.1875,1031.5,1064.1875,1035.5,1060.1875" style="stroke: #383838; stroke-width: 1.0;"/><line style="stroke: #383838; stroke-width: 1.0;" x1="906" x2="1037.5" y1="1060.1875" y2="1060.1875"/><text fill="#000000" font-family="sans-serif" font-size="13" lengthAdjust="spacingAndGlyphs" textLength="65" x="913" y="1055.6826">ブック作成</text><text fill="#000000" font-family="sans-serif" font-size="14" lengthAdjust="spacingAndGlyphs" textLength="77" x="1043.5" y="1084.7207">Picking_2_3</text><ellipse cx="1085" cy="1054.1875" fill="#F8F8F8" filter="url(#fwdmd6u)" rx="12" ry="12" style="stroke: #383838; stroke-width: 2.0;"/><line style="stroke: #383838; stroke-width: 2.0;" x1="1073" x2="1097" y1="1068.1875" y2="1068.1875"/><polygon fill="#383838" points="1124.5,1115.7969,1134.5,1119.7969,1124.5,1123.7969,1128.5,1119.7969" style="stroke: #383838; stroke-width: 1.0;"/><line style="stroke: #383838; stroke-width: 1.0;" x1="906" x2="1130.5" y1="1119.7969" y2="1119.7969"/><text fill="#000000" font-family="sans-serif" font-size="13" lengthAdjust="spacingAndGlyphs" textLength="65" x="913" y="1115.292">ブック作成</text><text fill="#000000" font-family="sans-serif" font-size="14" lengthAdjust="spacingAndGlyphs" textLength="61" x="1136.5" y="1144.3301">Picking_a</text><ellipse cx="1170" cy="1113.7969" fill="#F8F8F8" filter="url(#fwdmd6u)" rx="12" ry="12" style="stroke: #383838; stroke-width: 2.0;"/><line style="stroke: #383838; stroke-width: 2.0;" x1="1158" x2="1182" y1="1127.7969" y2="1127.7969"/><polygon fill="#383838" points="483,1175.4063,473,1179.4063,483,1183.4063,479,1179.4063" style="stroke: #383838; stroke-width: 1.0;"/><line style="stroke: #383838; stroke-width: 1.0;" x1="477" x2="895" y1="1179.4063" y2="1179.4063"/><text fill="#000000" font-family="sans-serif" font-size="13" lengthAdjust="spacingAndGlyphs" textLength="91" x="489" y="1174.9014">受注データ取得</text><line style="stroke: #383838; stroke-width: 1.0;" x1="906" x2="948" y1="1210.1094" y2="1210.1094"/><line style="stroke: #383838; stroke-width: 1.0;" x1="948" x2="948" y1="1210.1094" y2="1223.1094"/><line style="stroke: #383838; stroke-width: 1.0;" x1="907" x2="948" y1="1223.1094" y2="1223.1094"/><polygon fill="#383838" points="917,1219.1094,907,1223.1094,917,1227.1094,913,1223.1094" style="stroke: #383838; stroke-width: 1.0;"/><text fill="#000000" font-family="sans-serif" font-size="13" lengthAdjust="spacingAndGlyphs" textLength="91" x="913" y="1205.2529">受注モール判定</text><line style="stroke: #000000; stroke-width: 1.0; stroke-dasharray: 2.0,2.0;" x1="422" x2="1213.5" y1="1232.1094" y2="1232.1094"/><text fill="#000000" font-family="sans-serif" font-size="11" font-weight="bold" lengthAdjust="spacingAndGlyphs" textLength="44" x="427" y="1243.5283">[棚有り]</text><polygon fill="#383838" points="1073,1264.9453,1083,1268.9453,1073,1272.9453,1077,1268.9453" style="stroke: #383838; stroke-width: 1.0;"/><line style="stroke: #383838; stroke-width: 1.0;" x1="906" x2="1079" y1="1268.9453" y2="1268.9453"/><text fill="#000000" font-family="sans-serif" font-size="13" lengthAdjust="spacingAndGlyphs" textLength="128" x="913" y="1264.4404">6ケタ振替 データ転記</text><line style="stroke: #000000; stroke-width: 1.0; stroke-dasharray: 2.0,2.0;" x1="422" x2="1213.5" y1="1278.2969" y2="1278.2969"/><text fill="#000000" font-family="sans-serif" font-size="11" font-weight="bold" lengthAdjust="spacingAndGlyphs" textLength="44" x="427" y="1289.7158">[棚無し]</text><polygon fill="#383838" points="1158,1311.1328,1168,1315.1328,1158,1319.1328,1162,1315.1328" style="stroke: #383838; stroke-width: 1.0;"/><line style="stroke: #383838; stroke-width: 1.0;" x1="906" x2="1164" y1="1315.1328" y2="1315.1328"/><text fill="#000000" font-family="sans-serif" font-size="13" lengthAdjust="spacingAndGlyphs" textLength="65" x="913" y="1310.6279">データ転記</text><polygon fill="#383838" points="1073,1348.4844,1083,1352.4844,1073,1356.4844,1077,1352.4844" style="stroke: #383838; stroke-width: 1.0;"/><line style="stroke: #383838; stroke-width: 1.0;" x1="906" x2="1079" y1="1352.4844" y2="1352.4844"/><text fill="#000000" font-family="sans-serif" font-size="13" lengthAdjust="spacingAndGlyphs" textLength="78" x="913" y="1347.9795">ファイル保存</text><line style="stroke: #383838; stroke-width: 2.0;" x1="1076" x2="1094" y1="1343.4844" y2="1361.4844"/><line style="stroke: #383838; stroke-width: 2.0;" x1="1076" x2="1094" y1="1361.4844" y2="1343.4844"/><polygon fill="#383838" points="1158,1378.8359,1168,1382.8359,1158,1386.8359,1162,1382.8359" style="stroke: #383838; stroke-width: 1.0;"/><line style="stroke: #383838; stroke-width: 1.0;" x1="901" x2="1164" y1="1382.8359" y2="1382.8359"/><text fill="#000000" font-family="sans-serif" font-size="13" lengthAdjust="spacingAndGlyphs" textLength="78" x="908" y="1378.3311">ファイル保存</text><line style="stroke: #383838; stroke-width: 2.0;" x1="1161" x2="1179" y1="1373.8359" y2="1391.8359"/><line style="stroke: #383838; stroke-width: 2.0;" x1="1161" x2="1179" y1="1391.8359" y2="1373.8359"/><polygon fill="#383838" points="884,1409.1875,894,1413.1875,884,1417.1875,888,1413.1875" style="stroke: #383838; stroke-width: 1.0;"/><line style="stroke: #383838; stroke-width: 1.0;" x1="250" x2="890" y1="1413.1875" y2="1413.1875"/><text fill="#000000" font-family="sans-serif" font-size="13" lengthAdjust="spacingAndGlyphs" textLength="161" x="257" y="1408.6826">Sub CreateForSorterSheet()</text><rect fill="none" height="336" style="stroke: #000000; stroke-width: 2.0;" width="972.5" x="422" y="1428.5391"/><polygon fill="#EEEEEE" points="422,1428.5391,565,1428.5391,565,1436.5391,555,1446.5391,422,1446.5391,422,1428.5391" style="stroke: #000000; stroke-width: 2.0;"/><text fill="#000000" font-family="sans-serif" font-size="13" font-weight="bold" lengthAdjust="spacingAndGlyphs" textLength="98" x="437" y="1443.0342">振分シート作成</text><polygon fill="#383838" points="1201.5,1464.8906,1211.5,1468.8906,1201.5,1472.8906,1205.5,1468.8906" style="stroke: #383838; stroke-width: 1.0;"/><line style="stroke: #383838; stroke-width: 1.0;" x1="906" x2="1207.5" y1="1468.8906" y2="1468.8906"/><text fill="#000000" font-family="sans-serif" font-size="13" lengthAdjust="spacingAndGlyphs" textLength="65" x="913" y="1464.3857">シート作成</text><text fill="#000000" font-family="sans-serif" font-size="14" lengthAdjust="spacingAndGlyphs" textLength="61" x="1213.5" y="1493.4238">ForSorter</text><ellipse cx="1247" cy="1462.8906" fill="#F8F8F8" filter="url(#fwdmd6u)" rx="12" ry="12" style="stroke: #383838; stroke-width: 2.0;"/><line style="stroke: #383838; stroke-width: 2.0;" x1="1235" x2="1259" y1="1476.8906" y2="1476.8906"/><polygon fill="#383838" points="1278.5,1524.5,1288.5,1528.5,1278.5,1532.5,1282.5,1528.5" style="stroke: #383838; stroke-width: 1.0;"/><line style="stroke: #383838; stroke-width: 1.0;" x1="906" x2="1284.5" y1="1528.5" y2="1528.5"/><text fill="#000000" font-family="sans-serif" font-size="13" lengthAdjust="spacingAndGlyphs" textLength="65" x="913" y="1523.9951">シート作成</text><text fill="#000000" font-family="sans-serif" font-size="14" lengthAdjust="spacingAndGlyphs" textLength="88" x="1290.5" y="1553.0332">ForSorter_set</text><ellipse cx="1337.5" cy="1522.5" fill="#F8F8F8" filter="url(#fwdmd6u)" rx="12" ry="12" style="stroke: #383838; stroke-width: 2.0;"/><line style="stroke: #383838; stroke-width: 2.0;" x1="1325.5" x2="1349.5" y1="1536.5" y2="1536.5"/><polygon fill="#383838" points="483,1584.1094,473,1588.1094,483,1592.1094,479,1588.1094" style="stroke: #383838; stroke-width: 1.0;"/><line style="stroke: #383838; stroke-width: 1.0;" x1="477" x2="895" y1="1588.1094" y2="1588.1094"/><text fill="#000000" font-family="sans-serif" font-size="13" lengthAdjust="spacingAndGlyphs" textLength="91" x="489" y="1583.6045">受注データ取得</text><line style="stroke: #383838; stroke-width: 1.0;" x1="906" x2="948" y1="1618.8125" y2="1618.8125"/><line style="stroke: #383838; stroke-width: 1.0;" x1="948" x2="948" y1="1618.8125" y2="1631.8125"/><line style="stroke: #383838; stroke-width: 1.0;" x1="907" x2="948" y1="1631.8125" y2="1631.8125"/><polygon fill="#383838" points="917,1627.8125,907,1631.8125,917,1635.8125,913,1631.8125" style="stroke: #383838; stroke-width: 1.0;"/><text fill="#000000" font-family="sans-serif" font-size="13" lengthAdjust="spacingAndGlyphs" textLength="91" x="913" y="1613.9561">受注モール判定</text><line style="stroke: #000000; stroke-width: 1.0; stroke-dasharray: 2.0,2.0;" x1="422" x2="1394.5" y1="1640.8125" y2="1640.8125"/><text fill="#000000" font-family="sans-serif" font-size="11" font-weight="bold" lengthAdjust="spacingAndGlyphs" textLength="68" x="427" y="1652.2314">[単体受注品]</text><polygon fill="#383838" points="1235,1673.6484,1245,1677.6484,1235,1681.6484,1239,1677.6484" style="stroke: #383838; stroke-width: 1.0;"/><line style="stroke: #383838; stroke-width: 1.0;" x1="906" x2="1241" y1="1677.6484" y2="1677.6484"/><text fill="#000000" font-family="sans-serif" font-size="13" lengthAdjust="spacingAndGlyphs" textLength="91" x="913" y="1673.1436">受注データ転記</text><line style="stroke: #000000; stroke-width: 1.0; stroke-dasharray: 2.0,2.0;" x1="422" x2="1394.5" y1="1687" y2="1687"/><text fill="#000000" font-family="sans-serif" font-size="11" font-weight="bold" lengthAdjust="spacingAndGlyphs" textLength="68" x="427" y="1698.4189">[セット商品]</text><polygon fill="#383838" points="1325.5,1719.8359,1335.5,1723.8359,1325.5,1727.8359,1329.5,1723.8359" style="stroke: #383838; stroke-width: 1.0;"/><line style="stroke: #383838; stroke-width: 1.0;" x1="906" x2="1331.5" y1="1723.8359" y2="1723.8359"/><text fill="#000000" font-family="sans-serif" font-size="13" lengthAdjust="spacingAndGlyphs" textLength="91" x="913" y="1719.3311">受注データ転記</text><line style="stroke: #000000; stroke-width: 1.0; stroke-dasharray: 2.0,2.0;" x1="422" x2="1394.5" y1="1733.1875" y2="1733.1875"/><polygon fill="#383838" points="1235,1752.1875,1245,1756.1875,1235,1760.1875,1239,1756.1875" style="stroke: #383838; stroke-width: 1.0;"/><line style="stroke: #383838; stroke-width: 1.0;" x1="906" x2="1241" y1="1756.1875" y2="1756.1875"/><text fill="#000000" font-family="sans-serif" font-size="13" lengthAdjust="spacingAndGlyphs" textLength="117" x="913" y="1751.6826">商品コードでソート</text><polygon fill="#383838" points="1235,1796.5391,1245,1800.5391,1235,1804.5391,1239,1800.5391" style="stroke: #383838; stroke-width: 1.0;"/><line style="stroke: #383838; stroke-width: 1.0; stroke-dasharray: 2.0,2.0;" x1="250" x2="1241" y1="1800.5391" y2="1800.5391"/><text fill="#000000" font-family="sans-serif" font-size="13" lengthAdjust="spacingAndGlyphs" textLength="79" x="257" y="1796.0342">VBA:PrintOut</text><polygon fill="#383838" points="1325.5,1826.8906,1335.5,1830.8906,1325.5,1834.8906,1329.5,1830.8906" style="stroke: #383838; stroke-width: 1.0;"/><line style="stroke: #383838; stroke-width: 1.0; stroke-dasharray: 2.0,2.0;" x1="250" x2="1331.5" y1="1830.8906" y2="1830.8906"/><text fill="#000000" font-family="sans-serif" font-size="13" lengthAdjust="spacingAndGlyphs" textLength="79" x="257" y="1826.3857">VBA:PrintOut</text><polygon fill="#383838" points="14,1857.2422,4,1861.2422,14,1865.2422,10,1861.2422" style="stroke: #383838; stroke-width: 1.0;"/><line style="stroke: #383838; stroke-width: 1.0;" x1="8" x2="244" y1="1861.2422" y2="1861.2422"/><text fill="#000000" font-family="sans-serif" font-size="13" lengthAdjust="spacingAndGlyphs" textLength="91" x="20" y="1856.7373">終了メッセージ</text></g></svg>