<?xml version="1.0" encoding="UTF-8" standalone="no"?><svg xmlns="http://www.w3.org/2000/svg" xmlns:xlink="http://www.w3.org/1999/xlink" contentScriptType="application/ecmascript" contentStyleType="text/css" height="1584px" preserveAspectRatio="none" style="width:1167px;height:1584px;" version="1.1" viewBox="0 0 1167 1584" width="1167px" zoomAndPan="magnify"><defs><filter height="300%" id="fpc2d2u" width="300%" x="-1" y="-1"><feGaussianBlur result="blurOut" stdDeviation="2.0"/><feColorMatrix in="blurOut" result="blurOut2" type="matrix" values="0 0 0 0 0 0 0 0 0 0 0 0 0 0 0 0 0 0 .4 0"/><feOffset dx="4.0" dy="4.0" in="blurOut2" result="blurOut3"/><feBlend in="SourceGraphic" in2="blurOut3" mode="normal"/></filter></defs><g><text fill="#000000" font-family="sans-serif" font-size="14" font-weight="bold" lengthAdjust="spacingAndGlyphs" textLength="193" x="489.25" y="24.5332">ピッキングテンプレートVBA</text><rect fill="#FFFFFF" filter="url(#fpc2d2u)" height="399.5703" style="stroke: #FFFFFF; stroke-width: 1.0;" width="10" x="192" y="137.5703"/><line style="stroke: #383838; stroke-width: 1.0;" x1="192" x2="192" y1="137.5703" y2="537.1406"/><line style="stroke: #383838; stroke-width: 1.0;" x1="202" x2="202" y1="137.5703" y2="537.1406"/><line style="stroke: #383838; stroke-width: 1.0;" x1="192" x2="202" y1="137.5703" y2="137.5703"/><rect fill="#FFFFFF" filter="url(#fpc2d2u)" height="911.7578" style="stroke: #FFFFFF; stroke-width: 1.0;" width="10" x="192" y="600.3594"/><line style="stroke: #383838; stroke-width: 1.0;" x1="192" x2="192" y1="600.3594" y2="1512.1172"/><line style="stroke: #383838; stroke-width: 1.0;" x1="202" x2="202" y1="600.3594" y2="1512.1172"/><line style="stroke: #383838; stroke-width: 1.0;" x1="192" x2="202" y1="1512.1172" y2="1512.1172"/><rect fill="#FFFFFF" filter="url(#fpc2d2u)" height="360.8672" style="stroke: #383838; stroke-width: 1.0;" width="10" x="265" y="167.9219"/><rect fill="#FFFFFF" filter="url(#fpc2d2u)" height="91.0547" style="stroke: #383838; stroke-width: 1.0;" width="10" x="354.5" y="314.6797"/><rect fill="#FFFFFF" filter="url(#fpc2d2u)" height="30.3516" style="stroke: #383838; stroke-width: 1.0;" width="10" x="354.5" y="436.0859"/><rect fill="#FFFFFF" filter="url(#fpc2d2u)" height="151.0547" style="stroke: #383838; stroke-width: 1.0;" width="10" x="594.5" y="606.3594"/><rect fill="#FFFFFF" filter="url(#fpc2d2u)" height="650" style="stroke: #383838; stroke-width: 1.0;" width="10" x="709.5" y="779.4141"/><rect fill="#FFFFFF" filter="url(#fpc2d2u)" height="286.1641" style="stroke: #000000; stroke-width: 2.0;" width="520" x="13" y="213.625"/><rect fill="#FFFFFF" filter="url(#fpc2d2u)" height="129.0547" style="stroke: #000000; stroke-width: 2.0;" width="239" x="426" y="621.3594"/><rect fill="#FFFFFF" filter="url(#fpc2d2u)" height="627.6484" style="stroke: #000000; stroke-width: 2.0;" width="742.5" x="416" y="794.7656"/><rect fill="#FFFFFF" filter="url(#fpc2d2u)" height="260.2969" style="stroke: #000000; stroke-width: 2.0;" width="552.5" x="426" y="820.1172"/><text fill="#000000" font-family="sans-serif" font-size="14" lengthAdjust="spacingAndGlyphs" textLength="77" x="808.5" y="885.002">Picking_2_3</text><ellipse cx="850" cy="854.4688" fill="#F8F8F8" filter="url(#fpc2d2u)" rx="12" ry="12" style="stroke: #383838; stroke-width: 2.0;"/><line style="stroke: #383838; stroke-width: 2.0;" x1="838" x2="862" y1="868.4688" y2="868.4688"/><text fill="#000000" font-family="sans-serif" font-size="14" lengthAdjust="spacingAndGlyphs" textLength="61" x="901.5" y="944.6113">Picking_a</text><ellipse cx="935" cy="914.0781" fill="#F8F8F8" filter="url(#fpc2d2u)" rx="12" ry="12" style="stroke: #383838; stroke-width: 2.0;"/><line style="stroke: #383838; stroke-width: 2.0;" x1="923" x2="947" y1="928.0781" y2="928.0781"/><rect fill="#FFFFFF" height="46.1875" style="stroke: none; stroke-width: 1.0;" width="552.5" x="426" y="988.0391"/><rect fill="#FFFFFF" height="46.1875" style="stroke: none; stroke-width: 1.0;" width="552.5" x="426" y="1034.2266"/><rect fill="#FFFFFF" filter="url(#fpc2d2u)" height="260.2969" style="stroke: #000000; stroke-width: 2.0;" width="722.5" x="426" y="1155.1172"/><text fill="#000000" font-family="sans-serif" font-size="14" lengthAdjust="spacingAndGlyphs" textLength="69" x="978.5" y="1220.002">ForSorter1</text><ellipse cx="1016" cy="1189.4688" fill="#F8F8F8" filter="url(#fpc2d2u)" rx="12" ry="12" style="stroke: #383838; stroke-width: 2.0;"/><line style="stroke: #383838; stroke-width: 2.0;" x1="1004" x2="1028" y1="1203.4688" y2="1203.4688"/><text fill="#000000" font-family="sans-serif" font-size="14" lengthAdjust="spacingAndGlyphs" textLength="69" x="1063.5" y="1279.6113">ForSorter2</text><ellipse cx="1101" cy="1249.0781" fill="#F8F8F8" filter="url(#fpc2d2u)" rx="12" ry="12" style="stroke: #383838; stroke-width: 2.0;"/><line style="stroke: #383838; stroke-width: 2.0;" x1="1089" x2="1113" y1="1263.0781" y2="1263.0781"/><rect fill="#FFFFFF" height="46.1875" style="stroke: none; stroke-width: 1.0;" width="722.5" x="426" y="1323.0391"/><rect fill="#FFFFFF" height="46.1875" style="stroke: none; stroke-width: 1.0;" width="722.5" x="426" y="1369.2266"/><rect fill="#FFFFFF" height="1547.4688" style="stroke: #383838; stroke-width: 1.0;" width="148" x="19" y="35.6094"/><text fill="#000000" font-family="sans-serif" font-size="13" font-weight="bold" lengthAdjust="spacingAndGlyphs" textLength="84" x="51" y="49.1045">外部ファイル</text><line style="stroke: #383838; stroke-width: 1.0;" x1="40" x2="40" y1="105.5703" y2="537.1406"/><line style="stroke: #383838; stroke-width: 1.0; stroke-dasharray: 1.0,4.0;" x1="40" x2="40" y1="537.1406" y2="600.3594"/><line style="stroke: #383838; stroke-width: 1.0;" x1="40" x2="40" y1="600.3594" y2="1530.4688"/><line style="stroke: #383838; stroke-width: 1.0;" x1="115" x2="115" y1="105.5703" y2="537.1406"/><line style="stroke: #383838; stroke-width: 1.0; stroke-dasharray: 1.0,4.0;" x1="115" x2="115" y1="537.1406" y2="600.3594"/><line style="stroke: #383838; stroke-width: 1.0;" x1="115" x2="115" y1="600.3594" y2="1530.4688"/><line style="stroke: #383838; stroke-width: 1.0;" x1="197" x2="197" y1="105.5703" y2="537.1406"/><line style="stroke: #383838; stroke-width: 1.0; stroke-dasharray: 1.0,4.0;" x1="197" x2="197" y1="537.1406" y2="600.3594"/><line style="stroke: #383838; stroke-width: 1.0;" x1="197" x2="197" y1="600.3594" y2="1530.4688"/><line style="stroke: #383838; stroke-width: 1.0;" x1="270" x2="270" y1="105.5703" y2="537.1406"/><line style="stroke: #383838; stroke-width: 1.0; stroke-dasharray: 1.0,4.0;" x1="270" x2="270" y1="537.1406" y2="600.3594"/><line style="stroke: #383838; stroke-width: 1.0;" x1="270" x2="270" y1="600.3594" y2="1530.4688"/><line style="stroke: #383838; stroke-width: 1.0;" x1="359" x2="359" y1="105.5703" y2="537.1406"/><line style="stroke: #383838; stroke-width: 1.0; stroke-dasharray: 1.0,4.0;" x1="359" x2="359" y1="537.1406" y2="600.3594"/><line style="stroke: #383838; stroke-width: 1.0;" x1="359" x2="359" y1="600.3594" y2="1530.4688"/><line style="stroke: #383838; stroke-width: 1.0;" x1="479" x2="479" y1="105.5703" y2="537.1406"/><line style="stroke: #383838; stroke-width: 1.0; stroke-dasharray: 1.0,4.0;" x1="479" x2="479" y1="537.1406" y2="600.3594"/><line style="stroke: #383838; stroke-width: 1.0;" x1="479" x2="479" y1="600.3594" y2="1530.4688"/><line style="stroke: #383838; stroke-width: 1.0;" x1="599" x2="599" y1="105.5703" y2="537.1406"/><line style="stroke: #383838; stroke-width: 1.0; stroke-dasharray: 1.0,4.0;" x1="599" x2="599" y1="537.1406" y2="600.3594"/><line style="stroke: #383838; stroke-width: 1.0;" x1="599" x2="599" y1="600.3594" y2="1530.4688"/><line style="stroke: #383838; stroke-width: 1.0;" x1="714" x2="714" y1="105.5703" y2="537.1406"/><line style="stroke: #383838; stroke-width: 1.0; stroke-dasharray: 1.0,4.0;" x1="714" x2="714" y1="537.1406" y2="600.3594"/><line style="stroke: #383838; stroke-width: 1.0;" x1="714" x2="714" y1="600.3594" y2="1530.4688"/><line style="stroke: #383838; stroke-width: 1.0;" x1="849.5" x2="849.5" y1="878.2734" y2="1530.4688"/><line style="stroke: #383838; stroke-width: 1.0;" x1="934.5" x2="934.5" y1="937.8828" y2="1530.4688"/><line style="stroke: #383838; stroke-width: 1.0;" x1="1015.5" x2="1015.5" y1="1213.2734" y2="1530.4688"/><line style="stroke: #383838; stroke-width: 1.0;" x1="1100.5" x2="1100.5" y1="1272.8828" y2="1530.4688"/><text fill="#000000" font-family="sans-serif" font-size="14" lengthAdjust="spacingAndGlyphs" textLength="28" x="23" y="102.4941">CSV</text><ellipse cx="40" cy="71.9609" fill="#F8F8F8" filter="url(#fpc2d2u)" rx="12" ry="12" style="stroke: #383838; stroke-width: 2.0;"/><line style="stroke: #383838; stroke-width: 2.0;" x1="28" x2="52" y1="85.9609" y2="85.9609"/><text fill="#000000" font-family="sans-serif" font-size="14" lengthAdjust="spacingAndGlyphs" textLength="28" x="23" y="1544.002">CSV</text><ellipse cx="40" cy="1563.0781" fill="#F8F8F8" filter="url(#fpc2d2u)" rx="12" ry="12" style="stroke: #383838; stroke-width: 2.0;"/><line style="stroke: #383838; stroke-width: 2.0;" x1="28" x2="52" y1="1577.0781" y2="1577.0781"/><text fill="#000000" font-family="sans-serif" font-size="14" lengthAdjust="spacingAndGlyphs" textLength="90" x="67" y="102.4941">ｾｯﾄ商品ﾘｽﾄ.xls</text><ellipse cx="115" cy="71.9609" fill="#F8F8F8" filter="url(#fpc2d2u)" rx="12" ry="12" style="stroke: #383838; stroke-width: 2.0;"/><line style="stroke: #383838; stroke-width: 2.0;" x1="103" x2="127" y1="85.9609" y2="85.9609"/><text fill="#000000" font-family="sans-serif" font-size="14" lengthAdjust="spacingAndGlyphs" textLength="90" x="67" y="1544.002">ｾｯﾄ商品ﾘｽﾄ.xls</text><ellipse cx="115" cy="1563.0781" fill="#F8F8F8" filter="url(#fpc2d2u)" rx="12" ry="12" style="stroke: #383838; stroke-width: 2.0;"/><line style="stroke: #383838; stroke-width: 2.0;" x1="103" x2="127" y1="1577.0781" y2="1577.0781"/><rect fill="#F8F8F8" filter="url(#fpc2d2u)" height="31.6094" style="stroke: #383838; stroke-width: 1.5;" width="44" x="173" y="68.9609"/><text fill="#000000" font-family="sans-serif" font-size="14" lengthAdjust="spacingAndGlyphs" textLength="30" x="180" y="90.4941">Main</text><rect fill="#F8F8F8" filter="url(#fpc2d2u)" height="31.6094" style="stroke: #383838; stroke-width: 1.5;" width="44" x="173" y="1529.4688"/><text fill="#000000" font-family="sans-serif" font-size="14" lengthAdjust="spacingAndGlyphs" textLength="30" x="180" y="1551.002">Main</text><rect fill="#F8F8F8" filter="url(#fpc2d2u)" height="31.6094" style="stroke: #383838; stroke-width: 1.5;" width="74" x="231" y="68.9609"/><text fill="#000000" font-family="sans-serif" font-size="14" lengthAdjust="spacingAndGlyphs" textLength="60" x="238" y="90.4941">FetchCsv</text><rect fill="#F8F8F8" filter="url(#fpc2d2u)" height="31.6094" style="stroke: #383838; stroke-width: 1.5;" width="74" x="231" y="1529.4688"/><text fill="#000000" font-family="sans-serif" font-size="14" lengthAdjust="spacingAndGlyphs" textLength="60" x="238" y="1551.002">FetchCsv</text><rect fill="#F8F8F8" filter="url(#fpc2d2u)" height="31.6094" style="stroke: #383838; stroke-width: 1.5;" width="77" x="319" y="68.9609"/><text fill="#000000" font-family="sans-serif" font-size="14" lengthAdjust="spacingAndGlyphs" textLength="63" x="326" y="90.4941">SetParser</text><rect fill="#F8F8F8" filter="url(#fpc2d2u)" height="31.6094" style="stroke: #383838; stroke-width: 1.5;" width="77" x="319" y="1529.4688"/><text fill="#000000" font-family="sans-serif" font-size="14" lengthAdjust="spacingAndGlyphs" textLength="63" x="326" y="1551.002">SetParser</text><text fill="#000000" font-family="sans-serif" font-size="14" lengthAdjust="spacingAndGlyphs" textLength="81" x="436" y="102.4941">OrdersSheet</text><ellipse cx="479.5" cy="71.9609" fill="#F8F8F8" filter="url(#fpc2d2u)" rx="12" ry="12" style="stroke: #383838; stroke-width: 2.0;"/><line style="stroke: #383838; stroke-width: 2.0;" x1="467.5" x2="491.5" y1="85.9609" y2="85.9609"/><text fill="#000000" font-family="sans-serif" font-size="14" lengthAdjust="spacingAndGlyphs" textLength="81" x="436" y="1544.002">OrdersSheet</text><ellipse cx="479.5" cy="1563.0781" fill="#F8F8F8" filter="url(#fpc2d2u)" rx="12" ry="12" style="stroke: #383838; stroke-width: 2.0;"/><line style="stroke: #383838; stroke-width: 2.0;" x1="467.5" x2="491.5" y1="1577.0781" y2="1577.0781"/><rect fill="#F8F8F8" filter="url(#fpc2d2u)" height="31.6094" style="stroke: #383838; stroke-width: 1.5;" width="107" x="544" y="68.9609"/><text fill="#000000" font-family="sans-serif" font-size="14" lengthAdjust="spacingAndGlyphs" textLength="93" x="551" y="90.4941">LocationCutter</text><rect fill="#F8F8F8" filter="url(#fpc2d2u)" height="31.6094" style="stroke: #383838; stroke-width: 1.5;" width="107" x="544" y="1529.4688"/><text fill="#000000" font-family="sans-serif" font-size="14" lengthAdjust="spacingAndGlyphs" textLength="93" x="551" y="1551.002">LocationCutter</text><rect fill="#F8F8F8" filter="url(#fpc2d2u)" height="31.6094" style="stroke: #383838; stroke-width: 1.5;" width="95" x="665" y="68.9609"/><text fill="#000000" font-family="sans-serif" font-size="14" lengthAdjust="spacingAndGlyphs" textLength="81" x="672" y="90.4941">SheetBuilder</text><rect fill="#F8F8F8" filter="url(#fpc2d2u)" height="31.6094" style="stroke: #383838; stroke-width: 1.5;" width="95" x="665" y="1529.4688"/><text fill="#000000" font-family="sans-serif" font-size="14" lengthAdjust="spacingAndGlyphs" textLength="81" x="672" y="1551.002">SheetBuilder</text><text fill="#000000" font-family="sans-serif" font-size="14" lengthAdjust="spacingAndGlyphs" textLength="77" x="808.5" y="1544.002">Picking_2_3</text><ellipse cx="850" cy="1563.0781" fill="#F8F8F8" filter="url(#fpc2d2u)" rx="12" ry="12" style="stroke: #383838; stroke-width: 2.0;"/><line style="stroke: #383838; stroke-width: 2.0;" x1="838" x2="862" y1="1577.0781" y2="1577.0781"/><text fill="#000000" font-family="sans-serif" font-size="14" lengthAdjust="spacingAndGlyphs" textLength="61" x="901.5" y="1544.002">Picking_a</text><ellipse cx="935" cy="1563.0781" fill="#F8F8F8" filter="url(#fpc2d2u)" rx="12" ry="12" style="stroke: #383838; stroke-width: 2.0;"/><line style="stroke: #383838; stroke-width: 2.0;" x1="923" x2="947" y1="1577.0781" y2="1577.0781"/><text fill="#000000" font-family="sans-serif" font-size="14" lengthAdjust="spacingAndGlyphs" textLength="69" x="978.5" y="1544.002">ForSorter1</text><ellipse cx="1016" cy="1563.0781" fill="#F8F8F8" filter="url(#fpc2d2u)" rx="12" ry="12" style="stroke: #383838; stroke-width: 2.0;"/><line style="stroke: #383838; stroke-width: 2.0;" x1="1004" x2="1028" y1="1577.0781" y2="1577.0781"/><text fill="#000000" font-family="sans-serif" font-size="14" lengthAdjust="spacingAndGlyphs" textLength="69" x="1063.5" y="1544.002">ForSorter2</text><ellipse cx="1101" cy="1563.0781" fill="#F8F8F8" filter="url(#fpc2d2u)" rx="12" ry="12" style="stroke: #383838; stroke-width: 2.0;"/><line style="stroke: #383838; stroke-width: 2.0;" x1="1089" x2="1113" y1="1577.0781" y2="1577.0781"/><rect fill="#FFFFFF" filter="url(#fpc2d2u)" height="399.5703" style="stroke: #FFFFFF; stroke-width: 1.0;" width="10" x="192" y="137.5703"/><line style="stroke: #383838; stroke-width: 1.0;" x1="192" x2="192" y1="137.5703" y2="537.1406"/><line style="stroke: #383838; stroke-width: 1.0;" x1="202" x2="202" y1="137.5703" y2="537.1406"/><line style="stroke: #383838; stroke-width: 1.0;" x1="192" x2="202" y1="137.5703" y2="137.5703"/><rect fill="#FFFFFF" filter="url(#fpc2d2u)" height="911.7578" style="stroke: #FFFFFF; stroke-width: 1.0;" width="10" x="192" y="600.3594"/><line style="stroke: #383838; stroke-width: 1.0;" x1="192" x2="192" y1="600.3594" y2="1512.1172"/><line style="stroke: #383838; stroke-width: 1.0;" x1="202" x2="202" y1="600.3594" y2="1512.1172"/><line style="stroke: #383838; stroke-width: 1.0;" x1="192" x2="202" y1="1512.1172" y2="1512.1172"/><rect fill="#FFFFFF" filter="url(#fpc2d2u)" height="360.8672" style="stroke: #383838; stroke-width: 1.0;" width="10" x="265" y="167.9219"/><rect fill="#FFFFFF" filter="url(#fpc2d2u)" height="91.0547" style="stroke: #383838; stroke-width: 1.0;" width="10" x="354.5" y="314.6797"/><rect fill="#FFFFFF" filter="url(#fpc2d2u)" height="30.3516" style="stroke: #383838; stroke-width: 1.0;" width="10" x="354.5" y="436.0859"/><rect fill="#FFFFFF" filter="url(#fpc2d2u)" height="151.0547" style="stroke: #383838; stroke-width: 1.0;" width="10" x="594.5" y="606.3594"/><rect fill="#FFFFFF" filter="url(#fpc2d2u)" height="650" style="stroke: #383838; stroke-width: 1.0;" width="10" x="709.5" y="779.4141"/><polygon fill="#383838" points="180,133.5703,190,137.5703,180,141.5703,184,137.5703" style="stroke: #383838; stroke-width: 1.0;"/><line style="stroke: #383838; stroke-width: 1.0;" x1="3" x2="186" y1="137.5703" y2="137.5703"/><text fill="#000000" font-family="sans-serif" font-size="13" lengthAdjust="spacingAndGlyphs" textLength="65" x="10" y="133.0654">マクロ起動</text><polygon fill="#383838" points="253,163.9219,263,167.9219,253,171.9219,257,167.9219" style="stroke: #383838; stroke-width: 1.0;"/><line style="stroke: #383838; stroke-width: 1.0;" x1="202" x2="259" y1="167.9219" y2="167.9219"/><text fill="#000000" font-family="sans-serif" font-size="13" lengthAdjust="spacingAndGlyphs" textLength="26" x="209" y="163.417">呼出</text><polygon fill="#383838" points="51,194.2734,41,198.2734,51,202.2734,47,198.2734" style="stroke: #383838; stroke-width: 1.0;"/><line style="stroke: #383838; stroke-width: 1.0;" x1="45" x2="264" y1="198.2734" y2="198.2734"/><text fill="#000000" font-family="sans-serif" font-size="13" lengthAdjust="spacingAndGlyphs" textLength="115" x="57" y="193.7686">TextStreamingOpen</text><rect fill="none" height="286.1641" style="stroke: #000000; stroke-width: 2.0;" width="520" x="13" y="213.625"/><polygon fill="#EEEEEE" points="13,213.625,86,213.625,86,221.625,76,231.625,13,231.625,13,213.625" style="stroke: #000000; stroke-width: 2.0;"/><text fill="#000000" font-family="sans-serif" font-size="13" font-weight="bold" lengthAdjust="spacingAndGlyphs" textLength="28" x="28" y="228.1201">loop</text><text fill="#000000" font-family="sans-serif" font-size="11" font-weight="bold" lengthAdjust="spacingAndGlyphs" textLength="98" x="101" y="227.0439">[1行ずつ読み出し]</text><polygon fill="#383838" points="253,249.9766,263,253.9766,253,257.9766,257,253.9766" style="stroke: #383838; stroke-width: 1.0;"/><line style="stroke: #383838; stroke-width: 1.0;" x1="40" x2="259" y1="253.9766" y2="253.9766"/><text fill="#000000" font-family="sans-serif" font-size="13" lengthAdjust="spacingAndGlyphs" textLength="31" x="47" y="249.4717">1Line</text><polygon fill="#383838" points="467.5,280.3281,477.5,284.3281,467.5,288.3281,471.5,284.3281" style="stroke: #383838; stroke-width: 1.0;"/><line style="stroke: #383838; stroke-width: 1.0;" x1="275" x2="473.5" y1="284.3281" y2="284.3281"/><text fill="#000000" font-family="sans-serif" font-size="13" lengthAdjust="spacingAndGlyphs" textLength="91" x="282" y="279.8232">受注データ書込</text><polygon fill="#383838" points="375.5,310.6797,365.5,314.6797,375.5,318.6797,371.5,314.6797" style="stroke: #383838; stroke-width: 1.0;"/><line style="stroke: #383838; stroke-width: 1.0;" x1="369.5" x2="478.5" y1="314.6797" y2="314.6797"/><text fill="#000000" font-family="sans-serif" font-size="13" lengthAdjust="spacingAndGlyphs" textLength="65" x="381.5" y="310.1748">セット分解</text><polygon fill="#383838" points="126,341.0313,116,345.0313,126,349.0313,122,345.0313" style="stroke: #383838; stroke-width: 1.0;"/><line style="stroke: #383838; stroke-width: 1.0;" x1="120" x2="353.5" y1="345.0313" y2="345.0313"/><text fill="#000000" font-family="sans-serif" font-size="13" lengthAdjust="spacingAndGlyphs" textLength="127" x="132" y="340.5264">GetComponentItems()</text><polygon fill="#383838" points="342.5,371.3828,352.5,375.3828,342.5,379.3828,346.5,375.3828" style="stroke: #383838; stroke-width: 1.0;"/><line style="stroke: #383838; stroke-width: 1.0; stroke-dasharray: 2.0,2.0;" x1="115" x2="348.5" y1="375.3828" y2="375.3828"/><text fill="#000000" font-family="sans-serif" font-size="13" lengthAdjust="spacingAndGlyphs" textLength="82" x="122" y="370.8779">ItemCollection</text><polygon fill="#383838" points="467.5,401.7344,477.5,405.7344,467.5,409.7344,471.5,405.7344" style="stroke: #383838; stroke-width: 1.0;"/><line style="stroke: #383838; stroke-width: 1.0;" x1="359.5" x2="473.5" y1="405.7344" y2="405.7344"/><text fill="#000000" font-family="sans-serif" font-size="13" lengthAdjust="spacingAndGlyphs" textLength="91" x="366.5" y="401.2295">アイテム行挿入</text><polygon fill="#383838" points="375.5,432.0859,365.5,436.0859,375.5,440.0859,371.5,436.0859" style="stroke: #383838; stroke-width: 1.0;"/><line style="stroke: #383838; stroke-width: 1.0;" x1="369.5" x2="478.5" y1="436.0859" y2="436.0859"/><text fill="#000000" font-family="sans-serif" font-size="13" lengthAdjust="spacingAndGlyphs" textLength="65" x="381.5" y="431.5811">○個組分解</text><polygon fill="#383838" points="467.5,462.4375,477.5,466.4375,467.5,470.4375,471.5,466.4375" style="stroke: #383838; stroke-width: 1.0;"/><line style="stroke: #383838; stroke-width: 1.0;" x1="359.5" x2="473.5" y1="466.4375" y2="466.4375"/><text fill="#000000" font-family="sans-serif" font-size="13" lengthAdjust="spacingAndGlyphs" textLength="78" x="366.5" y="461.9326">単体数量上書</text><polygon fill="#383838" points="51,524.7891,41,528.7891,51,532.7891,47,528.7891" style="stroke: #383838; stroke-width: 1.0;"/><line style="stroke: #383838; stroke-width: 1.0;" x1="45" x2="269" y1="528.7891" y2="528.7891"/><text fill="#000000" font-family="sans-serif" font-size="13" lengthAdjust="spacingAndGlyphs" textLength="117" x="57" y="524.2842">TextStreamingClose</text><text fill="#000000" font-family="sans-serif" font-size="11" lengthAdjust="spacingAndGlyphs" textLength="0" x="370.5" y="583.9424"/><text fill="#000000" font-family="sans-serif" font-size="28" lengthAdjust="spacingAndGlyphs" textLength="400" x="370.5" y="580.207">アドインでデータ取得 手動実行</text><text fill="#000000" font-family="sans-serif" font-size="11" lengthAdjust="spacingAndGlyphs" textLength="0" x="773.5" y="583.9424"/><polygon fill="#383838" points="582.5,602.3594,592.5,606.3594,582.5,610.3594,586.5,606.3594" style="stroke: #383838; stroke-width: 1.0;"/><line style="stroke: #383838; stroke-width: 1.0;" x1="202" x2="588.5" y1="606.3594" y2="606.3594"/><rect fill="none" height="129.0547" style="stroke: #000000; stroke-width: 2.0;" width="239" x="426" y="621.3594"/><polygon fill="#EEEEEE" points="426,621.3594,499,621.3594,499,629.3594,489,639.3594,426,639.3594,426,621.3594" style="stroke: #000000; stroke-width: 2.0;"/><text fill="#000000" font-family="sans-serif" font-size="13" font-weight="bold" lengthAdjust="spacingAndGlyphs" textLength="28" x="441" y="635.8545">loop</text><text fill="#000000" font-family="sans-serif" font-size="11" font-weight="bold" lengthAdjust="spacingAndGlyphs" textLength="140" x="514" y="634.7783">[ロケーション文字列修正]</text><polygon fill="#383838" points="582.5,682.7109,592.5,686.7109,582.5,690.7109,586.5,686.7109" style="stroke: #383838; stroke-width: 1.0;"/><line style="stroke: #383838; stroke-width: 1.0;" x1="479.5" x2="588.5" y1="686.7109" y2="686.7109"/><text fill="#000000" font-family="sans-serif" font-size="13" lengthAdjust="spacingAndGlyphs" textLength="91" x="486.5" y="682.2061">ロケ文字列取得</text><polygon fill="#383838" points="490.5,713.0625,480.5,717.0625,490.5,721.0625,486.5,717.0625" style="stroke: #383838; stroke-width: 1.0;"/><line style="stroke: #383838; stroke-width: 1.0;" x1="484.5" x2="593.5" y1="717.0625" y2="717.0625"/><text fill="#000000" font-family="sans-serif" font-size="13" lengthAdjust="spacingAndGlyphs" textLength="78" x="496.5" y="712.5576">無効ロケ削除</text><polygon fill="#383838" points="697.5,775.4141,707.5,779.4141,697.5,783.4141,701.5,779.4141" style="stroke: #383838; stroke-width: 1.0;"/><line style="stroke: #383838; stroke-width: 1.0;" x1="202" x2="703.5" y1="779.4141" y2="779.4141"/><text fill="#000000" font-family="sans-serif" font-size="13" lengthAdjust="spacingAndGlyphs" textLength="156" x="209" y="774.9092">シート作成モジュール実行</text><rect fill="none" height="627.6484" style="stroke: #000000; stroke-width: 2.0;" width="742.5" x="416" y="794.7656"/><polygon fill="#EEEEEE" points="416,794.7656,489,794.7656,489,802.7656,479,812.7656,416,812.7656,416,794.7656" style="stroke: #000000; stroke-width: 2.0;"/><text fill="#000000" font-family="sans-serif" font-size="13" font-weight="bold" lengthAdjust="spacingAndGlyphs" textLength="28" x="431" y="809.2607">loop</text><text fill="#000000" font-family="sans-serif" font-size="11" font-weight="bold" lengthAdjust="spacingAndGlyphs" textLength="86" x="504" y="808.1846">[3モール分実行]</text><rect fill="none" height="260.2969" style="stroke: #000000; stroke-width: 2.0;" width="552.5" x="426" y="820.1172"/><polygon fill="#EEEEEE" points="426,820.1172,611,820.1172,611,828.1172,601,838.1172,426,838.1172,426,820.1172" style="stroke: #000000; stroke-width: 2.0;"/><text fill="#000000" font-family="sans-serif" font-size="13" font-weight="bold" lengthAdjust="spacingAndGlyphs" textLength="140" x="441" y="834.6123">ピッキングデータ作成</text><polygon fill="#383838" points="796.5,856.4688,806.5,860.4688,796.5,864.4688,800.5,860.4688" style="stroke: #383838; stroke-width: 1.0;"/><line style="stroke: #383838; stroke-width: 1.0;" x1="719.5" x2="802.5" y1="860.4688" y2="860.4688"/><text fill="#000000" font-family="sans-serif" font-size="13" lengthAdjust="spacingAndGlyphs" textLength="65" x="726.5" y="855.9639">ブック作成</text><text fill="#000000" font-family="sans-serif" font-size="14" lengthAdjust="spacingAndGlyphs" textLength="77" x="808.5" y="885.002">Picking_2_3</text><ellipse cx="850" cy="854.4688" fill="#F8F8F8" filter="url(#fpc2d2u)" rx="12" ry="12" style="stroke: #383838; stroke-width: 2.0;"/><line style="stroke: #383838; stroke-width: 2.0;" x1="838" x2="862" y1="868.4688" y2="868.4688"/><polygon fill="#383838" points="889.5,916.0781,899.5,920.0781,889.5,924.0781,893.5,920.0781" style="stroke: #383838; stroke-width: 1.0;"/><line style="stroke: #383838; stroke-width: 1.0;" x1="719.5" x2="895.5" y1="920.0781" y2="920.0781"/><text fill="#000000" font-family="sans-serif" font-size="13" lengthAdjust="spacingAndGlyphs" textLength="65" x="726.5" y="915.5732">ブック作成</text><text fill="#000000" font-family="sans-serif" font-size="14" lengthAdjust="spacingAndGlyphs" textLength="61" x="901.5" y="944.6113">Picking_a</text><ellipse cx="935" cy="914.0781" fill="#F8F8F8" filter="url(#fpc2d2u)" rx="12" ry="12" style="stroke: #383838; stroke-width: 2.0;"/><line style="stroke: #383838; stroke-width: 2.0;" x1="923" x2="947" y1="928.0781" y2="928.0781"/><polygon fill="#383838" points="490.5,975.6875,480.5,979.6875,490.5,983.6875,486.5,979.6875" style="stroke: #383838; stroke-width: 1.0;"/><line style="stroke: #383838; stroke-width: 1.0;" x1="484.5" x2="708.5" y1="979.6875" y2="979.6875"/><text fill="#000000" font-family="sans-serif" font-size="13" lengthAdjust="spacingAndGlyphs" textLength="91" x="496.5" y="975.1826">受注データ取得</text><line style="stroke: #000000; stroke-width: 1.0; stroke-dasharray: 2.0,2.0;" x1="426" x2="978.5" y1="989.0391" y2="989.0391"/><text fill="#000000" font-family="sans-serif" font-size="11" font-weight="bold" lengthAdjust="spacingAndGlyphs" textLength="44" x="431" y="1000.458">[棚有り]</text><polygon fill="#383838" points="838,1021.875,848,1025.875,838,1029.875,842,1025.875" style="stroke: #383838; stroke-width: 1.0;"/><line style="stroke: #383838; stroke-width: 1.0;" x1="719.5" x2="844" y1="1025.875" y2="1025.875"/><text fill="#000000" font-family="sans-serif" font-size="13" lengthAdjust="spacingAndGlyphs" textLength="65" x="726.5" y="1021.3701">データ転記</text><line style="stroke: #000000; stroke-width: 1.0; stroke-dasharray: 2.0,2.0;" x1="426" x2="978.5" y1="1035.2266" y2="1035.2266"/><text fill="#000000" font-family="sans-serif" font-size="11" font-weight="bold" lengthAdjust="spacingAndGlyphs" textLength="44" x="431" y="1046.6455">[棚無し]</text><polygon fill="#383838" points="923,1068.0625,933,1072.0625,923,1076.0625,927,1072.0625" style="stroke: #383838; stroke-width: 1.0;"/><line style="stroke: #383838; stroke-width: 1.0;" x1="719.5" x2="929" y1="1072.0625" y2="1072.0625"/><text fill="#000000" font-family="sans-serif" font-size="13" lengthAdjust="spacingAndGlyphs" textLength="65" x="726.5" y="1067.5576">データ転記</text><polygon fill="#383838" points="838,1105.4141,848,1109.4141,838,1113.4141,842,1109.4141" style="stroke: #383838; stroke-width: 1.0;"/><line style="stroke: #383838; stroke-width: 1.0;" x1="719.5" x2="844" y1="1109.4141" y2="1109.4141"/><text fill="#000000" font-family="sans-serif" font-size="13" lengthAdjust="spacingAndGlyphs" textLength="78" x="726.5" y="1104.9092">ファイル保存</text><line style="stroke: #383838; stroke-width: 2.0;" x1="841" x2="859" y1="1100.4141" y2="1118.4141"/><line style="stroke: #383838; stroke-width: 2.0;" x1="841" x2="859" y1="1118.4141" y2="1100.4141"/><polygon fill="#383838" points="923,1135.7656,933,1139.7656,923,1143.7656,927,1139.7656" style="stroke: #383838; stroke-width: 1.0;"/><line style="stroke: #383838; stroke-width: 1.0;" x1="719.5" x2="929" y1="1139.7656" y2="1139.7656"/><text fill="#000000" font-family="sans-serif" font-size="13" lengthAdjust="spacingAndGlyphs" textLength="78" x="726.5" y="1135.2607">ファイル保存</text><line style="stroke: #383838; stroke-width: 2.0;" x1="926" x2="944" y1="1130.7656" y2="1148.7656"/><line style="stroke: #383838; stroke-width: 2.0;" x1="926" x2="944" y1="1148.7656" y2="1130.7656"/><rect fill="none" height="260.2969" style="stroke: #000000; stroke-width: 2.0;" width="722.5" x="426" y="1155.1172"/><polygon fill="#EEEEEE" points="426,1155.1172,569,1155.1172,569,1163.1172,559,1173.1172,426,1173.1172,426,1155.1172" style="stroke: #000000; stroke-width: 2.0;"/><text fill="#000000" font-family="sans-serif" font-size="13" font-weight="bold" lengthAdjust="spacingAndGlyphs" textLength="98" x="441" y="1169.6123">振分シート作成</text><polygon fill="#383838" points="966.5,1191.4688,976.5,1195.4688,966.5,1199.4688,970.5,1195.4688" style="stroke: #383838; stroke-width: 1.0;"/><line style="stroke: #383838; stroke-width: 1.0;" x1="719.5" x2="972.5" y1="1195.4688" y2="1195.4688"/><text fill="#000000" font-family="sans-serif" font-size="13" lengthAdjust="spacingAndGlyphs" textLength="65" x="726.5" y="1190.9639">シート作成</text><text fill="#000000" font-family="sans-serif" font-size="14" lengthAdjust="spacingAndGlyphs" textLength="69" x="978.5" y="1220.002">ForSorter1</text><ellipse cx="1016" cy="1189.4688" fill="#F8F8F8" filter="url(#fpc2d2u)" rx="12" ry="12" style="stroke: #383838; stroke-width: 2.0;"/><line style="stroke: #383838; stroke-width: 2.0;" x1="1004" x2="1028" y1="1203.4688" y2="1203.4688"/><polygon fill="#383838" points="1051.5,1251.0781,1061.5,1255.0781,1051.5,1259.0781,1055.5,1255.0781" style="stroke: #383838; stroke-width: 1.0;"/><line style="stroke: #383838; stroke-width: 1.0;" x1="719.5" x2="1057.5" y1="1255.0781" y2="1255.0781"/><text fill="#000000" font-family="sans-serif" font-size="13" lengthAdjust="spacingAndGlyphs" textLength="65" x="726.5" y="1250.5732">シート作成</text><text fill="#000000" font-family="sans-serif" font-size="14" lengthAdjust="spacingAndGlyphs" textLength="69" x="1063.5" y="1279.6113">ForSorter2</text><ellipse cx="1101" cy="1249.0781" fill="#F8F8F8" filter="url(#fpc2d2u)" rx="12" ry="12" style="stroke: #383838; stroke-width: 2.0;"/><line style="stroke: #383838; stroke-width: 2.0;" x1="1089" x2="1113" y1="1263.0781" y2="1263.0781"/><polygon fill="#383838" points="490.5,1310.6875,480.5,1314.6875,490.5,1318.6875,486.5,1314.6875" style="stroke: #383838; stroke-width: 1.0;"/><line style="stroke: #383838; stroke-width: 1.0;" x1="484.5" x2="708.5" y1="1314.6875" y2="1314.6875"/><text fill="#000000" font-family="sans-serif" font-size="13" lengthAdjust="spacingAndGlyphs" textLength="91" x="496.5" y="1310.1826">受注データ取得</text><line style="stroke: #000000; stroke-width: 1.0; stroke-dasharray: 2.0,2.0;" x1="426" x2="1148.5" y1="1324.0391" y2="1324.0391"/><text fill="#000000" font-family="sans-serif" font-size="11" font-weight="bold" lengthAdjust="spacingAndGlyphs" textLength="68" x="431" y="1335.458">[単体受注品]</text><polygon fill="#383838" points="1004,1356.875,1014,1360.875,1004,1364.875,1008,1360.875" style="stroke: #383838; stroke-width: 1.0;"/><line style="stroke: #383838; stroke-width: 1.0;" x1="719.5" x2="1010" y1="1360.875" y2="1360.875"/><text fill="#000000" font-family="sans-serif" font-size="13" lengthAdjust="spacingAndGlyphs" textLength="91" x="726.5" y="1356.3701">受注データ転記</text><line style="stroke: #000000; stroke-width: 1.0; stroke-dasharray: 2.0,2.0;" x1="426" x2="1148.5" y1="1370.2266" y2="1370.2266"/><text fill="#000000" font-family="sans-serif" font-size="11" font-weight="bold" lengthAdjust="spacingAndGlyphs" textLength="68" x="431" y="1381.6455">[セット商品]</text><polygon fill="#383838" points="1089,1403.0625,1099,1407.0625,1089,1411.0625,1093,1407.0625" style="stroke: #383838; stroke-width: 1.0;"/><line style="stroke: #383838; stroke-width: 1.0;" x1="719.5" x2="1095" y1="1407.0625" y2="1407.0625"/><text fill="#000000" font-family="sans-serif" font-size="13" lengthAdjust="spacingAndGlyphs" textLength="91" x="726.5" y="1402.5576">受注データ転記</text><polygon fill="#383838" points="1004,1447.4141,1014,1451.4141,1004,1455.4141,1008,1451.4141" style="stroke: #383838; stroke-width: 1.0;"/><line style="stroke: #383838; stroke-width: 1.0; stroke-dasharray: 2.0,2.0;" x1="202" x2="1010" y1="1451.4141" y2="1451.4141"/><text fill="#000000" font-family="sans-serif" font-size="13" lengthAdjust="spacingAndGlyphs" textLength="79" x="209" y="1446.9092">VBA:PrintOut</text><polygon fill="#383838" points="1089,1477.7656,1099,1481.7656,1089,1485.7656,1093,1481.7656" style="stroke: #383838; stroke-width: 1.0;"/><line style="stroke: #383838; stroke-width: 1.0; stroke-dasharray: 2.0,2.0;" x1="202" x2="1095" y1="1481.7656" y2="1481.7656"/><text fill="#000000" font-family="sans-serif" font-size="13" lengthAdjust="spacingAndGlyphs" textLength="79" x="209" y="1477.2607">VBA:PrintOut</text><polygon fill="#383838" points="14,1508.1172,4,1512.1172,14,1516.1172,10,1512.1172" style="stroke: #383838; stroke-width: 1.0;"/><line style="stroke: #383838; stroke-width: 1.0;" x1="8" x2="196" y1="1512.1172" y2="1512.1172"/><text fill="#000000" font-family="sans-serif" font-size="13" lengthAdjust="spacingAndGlyphs" textLength="91" x="20" y="1507.6123">終了メッセージ</text></g></svg>