<?xml version="1.0" encoding="UTF-8" standalone="no"?><svg xmlns="http://www.w3.org/2000/svg" xmlns:xlink="http://www.w3.org/1999/xlink" contentScriptType="application/ecmascript" contentStyleType="text/css" height="1079px" preserveAspectRatio="none" style="width:1233px;height:1079px;" version="1.1" viewBox="0 0 1233 1079" width="1233px" zoomAndPan="magnify"><defs><filter height="300%" id="fos2w1o" width="300%" x="-1" y="-1"><feGaussianBlur result="blurOut" stdDeviation="2.0"/><feColorMatrix in="blurOut" result="blurOut2" type="matrix" values="0 0 0 0 0 0 0 0 0 0 0 0 0 0 0 0 0 0 .4 0"/><feOffset dx="4.0" dy="4.0" in="blurOut2" result="blurOut3"/><feBlend in="SourceGraphic" in2="blurOut3" mode="normal"/></filter></defs><g><text fill="#000000" font-family="sans-serif" font-size="14" font-weight="bold" lengthAdjust="spacingAndGlyphs" textLength="105" x="563" y="24.5332">フェーズ遷移図</text><rect fill="#FFFFFF" filter="url(#fos2w1o)" height="141.4063" style="stroke: #383838; stroke-width: 1.0;" width="10" x="186" y="129.5703"/><rect fill="#FFFFFF" filter="url(#fos2w1o)" height="149.7578" style="stroke: #383838; stroke-width: 1.0;" width="10" x="186" y="345.3281"/><rect fill="#FFFFFF" filter="url(#fos2w1o)" height="44.3516" style="stroke: #383838; stroke-width: 1.0;" width="10" x="291" y="270.9766"/><rect fill="#FFFFFF" filter="url(#fos2w1o)" height="90.7031" style="stroke: #383838; stroke-width: 1.0;" width="10" x="291" y="495.0859"/><rect fill="#FFFFFF" filter="url(#fos2w1o)" height="329.1641" style="stroke: #383838; stroke-width: 1.0;" width="10" x="524" y="315.3281"/><rect fill="#FFFFFF" filter="url(#fos2w1o)" height="181.7578" style="stroke: #383838; stroke-width: 1.0;" width="10" x="601" y="644.4922"/><rect fill="#FFFFFF" height="1041.3594" style="stroke: #383838; stroke-width: 1.0;" width="651" x="150" y="35.6094"/><text fill="#000000" font-family="sans-serif" font-size="13" font-weight="bold" lengthAdjust="spacingAndGlyphs" textLength="86" x="432.5" y="49.1045">CROSS MALL</text><rect fill="#FFFFFF" height="1041.3594" style="stroke: #383838; stroke-width: 1.0;" width="165" x="1062" y="35.6094"/><text fill="#000000" font-family="sans-serif" font-size="13" font-weight="bold" lengthAdjust="spacingAndGlyphs" textLength="159" x="1065" y="49.1045">運送会社 Web照会サーバ</text><line style="stroke: #383838; stroke-width: 1.0; stroke-dasharray: 5.0,5.0;" x1="191" x2="191" y1="119.5703" y2="1010.3594"/><line style="stroke: #383838; stroke-width: 1.0; stroke-dasharray: 5.0,5.0;" x1="296" x2="296" y1="119.5703" y2="1010.3594"/><line style="stroke: #383838; stroke-width: 1.0; stroke-dasharray: 5.0,5.0;" x1="529" x2="529" y1="119.5703" y2="1010.3594"/><line style="stroke: #383838; stroke-width: 1.0; stroke-dasharray: 5.0,5.0;" x1="606" x2="606" y1="119.5703" y2="1010.3594"/><line style="stroke: #383838; stroke-width: 1.0; stroke-dasharray: 5.0,5.0;" x1="718" x2="718" y1="119.5703" y2="1010.3594"/><line style="stroke: #383838; stroke-width: 1.0; stroke-dasharray: 5.0,5.0;" x1="774" x2="774" y1="119.5703" y2="1010.3594"/><line style="stroke: #383838; stroke-width: 1.0; stroke-dasharray: 5.0,5.0;" x1="853" x2="853" y1="119.5703" y2="1010.3594"/><line style="stroke: #383838; stroke-width: 1.0; stroke-dasharray: 5.0,5.0;" x1="1011" x2="1011" y1="119.5703" y2="1010.3594"/><line style="stroke: #383838; stroke-width: 1.0; stroke-dasharray: 5.0,5.0;" x1="1108.5" x2="1108.5" y1="119.5703" y2="1010.3594"/><line style="stroke: #383838; stroke-width: 1.0; stroke-dasharray: 5.0,5.0;" x1="1187.5" x2="1187.5" y1="119.5703" y2="1010.3594"/><rect fill="#F8F8F8" filter="url(#fos2w1o)" height="31.6094" style="stroke: #383838; stroke-width: 1.5;" width="70" x="154" y="82.9609"/><text fill="#000000" font-family="sans-serif" font-size="14" lengthAdjust="spacingAndGlyphs" textLength="56" x="161" y="104.4941">注文確認</text><rect fill="#F8F8F8" filter="url(#fos2w1o)" height="31.6094" style="stroke: #383838; stroke-width: 1.5;" width="70" x="154" y="1009.3594"/><text fill="#000000" font-family="sans-serif" font-size="14" lengthAdjust="spacingAndGlyphs" textLength="56" x="161" y="1030.8926">注文確認</text><rect fill="#F8F8F8" filter="url(#fos2w1o)" height="31.6094" style="stroke: #383838; stroke-width: 1.5;" width="112" x="238" y="82.9609"/><text fill="#000000" font-family="sans-serif" font-size="14" lengthAdjust="spacingAndGlyphs" textLength="98" x="245" y="104.4941">リスト出力待ち</text><rect fill="#F8F8F8" filter="url(#fos2w1o)" height="31.6094" style="stroke: #383838; stroke-width: 1.5;" width="112" x="238" y="1009.3594"/><text fill="#000000" font-family="sans-serif" font-size="14" lengthAdjust="spacingAndGlyphs" textLength="98" x="245" y="1030.8926">リスト出力待ち</text><rect fill="#F8F8F8" filter="url(#fos2w1o)" height="31.6094" style="stroke: #383838; stroke-width: 1.5;" width="70" x="492" y="82.9609"/><text fill="#000000" font-family="sans-serif" font-size="14" lengthAdjust="spacingAndGlyphs" textLength="56" x="499" y="104.4941">発送待ち</text><rect fill="#F8F8F8" filter="url(#fos2w1o)" height="31.6094" style="stroke: #383838; stroke-width: 1.5;" width="70" x="492" y="1009.3594"/><text fill="#000000" font-family="sans-serif" font-size="14" lengthAdjust="spacingAndGlyphs" textLength="56" x="499" y="1030.8926">発送待ち</text><rect fill="#F8F8F8" filter="url(#fos2w1o)" height="31.6094" style="stroke: #383838; stroke-width: 1.5;" width="56" x="576" y="82.9609"/><text fill="#000000" font-family="sans-serif" font-size="14" lengthAdjust="spacingAndGlyphs" textLength="42" x="583" y="104.4941">発送済</text><rect fill="#F8F8F8" filter="url(#fos2w1o)" height="31.6094" style="stroke: #383838; stroke-width: 1.5;" width="56" x="576" y="1009.3594"/><text fill="#000000" font-family="sans-serif" font-size="14" lengthAdjust="spacingAndGlyphs" textLength="42" x="583" y="1030.8926">発送済</text><rect fill="#F8F8F8" filter="url(#fos2w1o)" height="31.6094" style="stroke: #383838; stroke-width: 1.5;" width="42" x="695" y="82.9609"/><text fill="#000000" font-family="sans-serif" font-size="14" lengthAdjust="spacingAndGlyphs" textLength="28" x="702" y="104.4941">削除</text><rect fill="#F8F8F8" filter="url(#fos2w1o)" height="31.6094" style="stroke: #383838; stroke-width: 1.5;" width="42" x="695" y="1009.3594"/><text fill="#000000" font-family="sans-serif" font-size="14" lengthAdjust="spacingAndGlyphs" textLength="28" x="702" y="1030.8926">削除</text><rect fill="#F8F8F8" filter="url(#fos2w1o)" height="31.6094" style="stroke: #383838; stroke-width: 1.5;" width="42" x="751" y="82.9609"/><text fill="#000000" font-family="sans-serif" font-size="14" lengthAdjust="spacingAndGlyphs" textLength="28" x="758" y="104.4941">完了</text><rect fill="#F8F8F8" filter="url(#fos2w1o)" height="31.6094" style="stroke: #383838; stroke-width: 1.5;" width="42" x="751" y="1009.3594"/><text fill="#000000" font-family="sans-serif" font-size="14" lengthAdjust="spacingAndGlyphs" textLength="28" x="758" y="1030.8926">完了</text><text fill="#000000" font-family="sans-serif" font-size="14" lengthAdjust="spacingAndGlyphs" textLength="87" x="807" y="116.4941">出荷確認.xlsm</text><path d="M833,73.9609 L833,97.9609 M833,85.9609 L850,85.9609 " fill="#F8F8F8" filter="url(#fos2w1o)" style="stroke: #383838; stroke-width: 2.0;"/><ellipse cx="862" cy="85.9609" fill="#F8F8F8" filter="url(#fos2w1o)" rx="12" ry="12" style="stroke: #383838; stroke-width: 2.0;"/><text fill="#000000" font-family="sans-serif" font-size="14" lengthAdjust="spacingAndGlyphs" textLength="87" x="807" y="1023.8926">出荷確認.xlsm</text><path d="M833,1030.9688 L833,1054.9688 M833,1042.9688 L850,1042.9688 " fill="#F8F8F8" filter="url(#fos2w1o)" style="stroke: #383838; stroke-width: 2.0;"/><ellipse cx="862" cy="1042.9688" fill="#F8F8F8" filter="url(#fos2w1o)" rx="12" ry="12" style="stroke: #383838; stroke-width: 2.0;"/><rect fill="#F8F8F8" filter="url(#fos2w1o)" height="31.6094" style="stroke: #383838; stroke-width: 1.5;" width="85" x="967" y="82.9609"/><text fill="#000000" font-family="sans-serif" font-size="14" lengthAdjust="spacingAndGlyphs" textLength="71" x="974" y="104.4941">配送でPON</text><rect fill="#F8F8F8" filter="url(#fos2w1o)" height="31.6094" style="stroke: #383838; stroke-width: 1.5;" width="85" x="967" y="1009.3594"/><text fill="#000000" font-family="sans-serif" font-size="14" lengthAdjust="spacingAndGlyphs" textLength="71" x="974" y="1030.8926">配送でPON</text><text fill="#000000" font-family="sans-serif" font-size="14" lengthAdjust="spacingAndGlyphs" textLength="70" x="1070.5" y="116.4941">ヤマト運輸</text><path d="M1090.5,65.9609 C1090.5,55.9609 1108.5,55.9609 1108.5,55.9609 C1108.5,55.9609 1126.5,55.9609 1126.5,65.9609 L1126.5,91.9609 C1126.5,101.9609 1108.5,101.9609 1108.5,101.9609 C1108.5,101.9609 1090.5,101.9609 1090.5,91.9609 L1090.5,65.9609 " fill="#F8F8F8" filter="url(#fos2w1o)" style="stroke: #000000; stroke-width: 1.5;"/><path d="M1090.5,65.9609 C1090.5,75.9609 1108.5,75.9609 1108.5,75.9609 C1108.5,75.9609 1126.5,75.9609 1126.5,65.9609 " fill="none" style="stroke: #000000; stroke-width: 1.5;"/><text fill="#000000" font-family="sans-serif" font-size="14" lengthAdjust="spacingAndGlyphs" textLength="70" x="1070.5" y="1023.8926">ヤマト運輸</text><path d="M1090.5,1036.9688 C1090.5,1026.9688 1108.5,1026.9688 1108.5,1026.9688 C1108.5,1026.9688 1126.5,1026.9688 1126.5,1036.9688 L1126.5,1062.9688 C1126.5,1072.9688 1108.5,1072.9688 1108.5,1072.9688 C1108.5,1072.9688 1090.5,1072.9688 1090.5,1062.9688 L1090.5,1036.9688 " fill="#F8F8F8" filter="url(#fos2w1o)" style="stroke: #000000; stroke-width: 1.5;"/><path d="M1090.5,1036.9688 C1090.5,1046.9688 1108.5,1046.9688 1108.5,1046.9688 C1108.5,1046.9688 1126.5,1046.9688 1126.5,1036.9688 " fill="none" style="stroke: #000000; stroke-width: 1.5;"/><text fill="#000000" font-family="sans-serif" font-size="14" lengthAdjust="spacingAndGlyphs" textLength="56" x="1156.5" y="116.4941">佐川急便</text><path d="M1169.5,65.9609 C1169.5,55.9609 1187.5,55.9609 1187.5,55.9609 C1187.5,55.9609 1205.5,55.9609 1205.5,65.9609 L1205.5,91.9609 C1205.5,101.9609 1187.5,101.9609 1187.5,101.9609 C1187.5,101.9609 1169.5,101.9609 1169.5,91.9609 L1169.5,65.9609 " fill="#F8F8F8" filter="url(#fos2w1o)" style="stroke: #000000; stroke-width: 1.5;"/><path d="M1169.5,65.9609 C1169.5,75.9609 1187.5,75.9609 1187.5,75.9609 C1187.5,75.9609 1205.5,75.9609 1205.5,65.9609 " fill="none" style="stroke: #000000; stroke-width: 1.5;"/><text fill="#000000" font-family="sans-serif" font-size="14" lengthAdjust="spacingAndGlyphs" textLength="56" x="1156.5" y="1023.8926">佐川急便</text><path d="M1169.5,1036.9688 C1169.5,1026.9688 1187.5,1026.9688 1187.5,1026.9688 C1187.5,1026.9688 1205.5,1026.9688 1205.5,1036.9688 L1205.5,1062.9688 C1205.5,1072.9688 1187.5,1072.9688 1187.5,1072.9688 C1187.5,1072.9688 1169.5,1072.9688 1169.5,1062.9688 L1169.5,1036.9688 " fill="#F8F8F8" filter="url(#fos2w1o)" style="stroke: #000000; stroke-width: 1.5;"/><path d="M1169.5,1036.9688 C1169.5,1046.9688 1187.5,1046.9688 1187.5,1046.9688 C1187.5,1046.9688 1205.5,1046.9688 1205.5,1036.9688 " fill="none" style="stroke: #000000; stroke-width: 1.5;"/><rect fill="#FFFFFF" filter="url(#fos2w1o)" height="141.4063" style="stroke: #383838; stroke-width: 1.0;" width="10" x="186" y="129.5703"/><rect fill="#FFFFFF" filter="url(#fos2w1o)" height="149.7578" style="stroke: #383838; stroke-width: 1.0;" width="10" x="186" y="345.3281"/><rect fill="#FFFFFF" filter="url(#fos2w1o)" height="44.3516" style="stroke: #383838; stroke-width: 1.0;" width="10" x="291" y="270.9766"/><rect fill="#FFFFFF" filter="url(#fos2w1o)" height="90.7031" style="stroke: #383838; stroke-width: 1.0;" width="10" x="291" y="495.0859"/><rect fill="#FFFFFF" filter="url(#fos2w1o)" height="329.1641" style="stroke: #383838; stroke-width: 1.0;" width="10" x="524" y="315.3281"/><rect fill="#FFFFFF" filter="url(#fos2w1o)" height="181.7578" style="stroke: #383838; stroke-width: 1.0;" width="10" x="601" y="644.4922"/><rect fill="#EEEEEE" filter="url(#fos2w1o)" height="3" style="stroke: #EEEEEE; stroke-width: 1.0;" width="1225" x="3" y="150.7461"/><line style="stroke: #000000; stroke-width: 1.0;" x1="3" x2="1228" y1="150.7461" y2="150.7461"/><line style="stroke: #000000; stroke-width: 1.0;" x1="3" x2="1228" y1="153.7461" y2="153.7461"/><rect fill="#EEEEEE" filter="url(#fos2w1o)" height="24.3516" style="stroke: #000000; stroke-width: 2.0;" width="145" x="543" y="139.5703"/><text fill="#000000" font-family="sans-serif" font-size="13" font-weight="bold" lengthAdjust="spacingAndGlyphs" textLength="127" x="549" y="157.0654">8:00～ 朝の受注取込</text><polygon fill="#383838" points="14,191.9219,4,195.9219,14,199.9219,10,195.9219" style="stroke: #383838; stroke-width: 1.0;"/><line style="stroke: #383838; stroke-width: 1.0;" x1="8" x2="185" y1="195.9219" y2="195.9219"/><text fill="#000000" font-family="sans-serif" font-size="13" lengthAdjust="spacingAndGlyphs" textLength="65" x="20" y="191.417">納品書出力</text><polygon fill="#383838" points="14,222.2734,4,226.2734,14,230.2734,10,226.2734" style="stroke: #383838; stroke-width: 1.0;"/><line style="stroke: #383838; stroke-width: 1.0;" x1="8" x2="185" y1="226.2734" y2="226.2734"/><text fill="#000000" font-family="sans-serif" font-size="13" lengthAdjust="spacingAndGlyphs" textLength="164" x="20" y="221.7686">ヤマトB2 CSVダウンロード</text><polygon fill="#383838" points="14,252.625,4,256.625,14,260.625,10,256.625" style="stroke: #383838; stroke-width: 1.0;"/><line style="stroke: #383838; stroke-width: 1.0;" x1="8" x2="185" y1="256.625" y2="256.625"/><text fill="#000000" font-family="sans-serif" font-size="13" lengthAdjust="spacingAndGlyphs" textLength="151" x="20" y="252.1201">e飛伝用CSVダウンロード</text><polygon fill="#383838" points="279,266.9766,289,270.9766,279,274.9766,283,270.9766" style="stroke: #383838; stroke-width: 1.0;"/><line style="stroke: #383838; stroke-width: 1.0;" x1="191" x2="285" y1="270.9766" y2="270.9766"/><polygon fill="#383838" points="14,296.9766,4,300.9766,14,304.9766,10,300.9766" style="stroke: #383838; stroke-width: 1.0;"/><line style="stroke: #383838; stroke-width: 1.0;" x1="8" x2="290" y1="300.9766" y2="300.9766"/><text fill="#000000" font-family="sans-serif" font-size="13" lengthAdjust="spacingAndGlyphs" textLength="170" x="20" y="296.4717">ピッキングCSVダウンロード</text><polygon fill="#383838" points="512,311.3281,522,315.3281,512,319.3281,516,315.3281" style="stroke: #383838; stroke-width: 1.0;"/><line style="stroke: #383838; stroke-width: 1.0;" x1="296" x2="518" y1="315.3281" y2="315.3281"/><polygon fill="#383838" points="706,341.3281,716,345.3281,706,349.3281,710,345.3281" style="stroke: #383838; stroke-width: 1.0;"/><line style="stroke: #383838; stroke-width: 1.0;" x1="534" x2="712" y1="345.3281" y2="345.3281"/><text fill="#000000" font-family="sans-serif" font-size="13" lengthAdjust="spacingAndGlyphs" textLength="160" x="541" y="340.8232">注文キャンセル時 随時移動</text><rect fill="#EEEEEE" filter="url(#fos2w1o)" height="3" style="stroke: #EEEEEE; stroke-width: 1.0;" width="1225" x="3" y="374.8555"/><line style="stroke: #000000; stroke-width: 1.0;" x1="3" x2="1228" y1="374.8555" y2="374.8555"/><line style="stroke: #000000; stroke-width: 1.0;" x1="3" x2="1228" y1="377.8555" y2="377.8555"/><rect fill="#EEEEEE" filter="url(#fos2w1o)" height="24.3516" style="stroke: #000000; stroke-width: 2.0;" width="208" x="511.5" y="363.6797"/><text fill="#000000" font-family="sans-serif" font-size="13" font-weight="bold" lengthAdjust="spacingAndGlyphs" textLength="190" x="517.5" y="381.1748">13:30～ あす楽・プライム取込</text><polygon fill="#383838" points="14,416.0313,4,420.0313,14,424.0313,10,420.0313" style="stroke: #383838; stroke-width: 1.0;"/><line style="stroke: #383838; stroke-width: 1.0;" x1="8" x2="185" y1="420.0313" y2="420.0313"/><text fill="#000000" font-family="sans-serif" font-size="13" lengthAdjust="spacingAndGlyphs" textLength="65" x="20" y="415.5264">納品書出力</text><polygon fill="#383838" points="14,446.3828,4,450.3828,14,454.3828,10,450.3828" style="stroke: #383838; stroke-width: 1.0;"/><line style="stroke: #383838; stroke-width: 1.0;" x1="8" x2="185" y1="450.3828" y2="450.3828"/><text fill="#000000" font-family="sans-serif" font-size="13" lengthAdjust="spacingAndGlyphs" textLength="164" x="20" y="445.8779">ヤマトB2 CSVダウンロード</text><polygon fill="#383838" points="14,476.7344,4,480.7344,14,484.7344,10,480.7344" style="stroke: #383838; stroke-width: 1.0;"/><line style="stroke: #383838; stroke-width: 1.0;" x1="8" x2="185" y1="480.7344" y2="480.7344"/><text fill="#000000" font-family="sans-serif" font-size="13" lengthAdjust="spacingAndGlyphs" textLength="151" x="20" y="476.2295">e飛伝用CSVダウンロード</text><polygon fill="#383838" points="279,491.0859,289,495.0859,279,499.0859,283,495.0859" style="stroke: #383838; stroke-width: 1.0;"/><line style="stroke: #383838; stroke-width: 1.0;" x1="191" x2="285" y1="495.0859" y2="495.0859"/><polygon fill="#383838" points="14,521.0859,4,525.0859,14,529.0859,10,525.0859" style="stroke: #383838; stroke-width: 1.0;"/><line style="stroke: #383838; stroke-width: 1.0;" x1="8" x2="290" y1="525.0859" y2="525.0859"/><text fill="#000000" font-family="sans-serif" font-size="13" lengthAdjust="spacingAndGlyphs" textLength="170" x="20" y="520.5811">ピッキングCSVダウンロード</text><polygon fill="#383838" points="14,551.4375,4,555.4375,14,559.4375,10,555.4375" style="stroke: #383838; stroke-width: 1.0;"/><line style="stroke: #383838; stroke-width: 1.0;" x1="8" x2="290" y1="555.4375" y2="555.4375"/><text fill="#000000" font-family="sans-serif" font-size="13" lengthAdjust="spacingAndGlyphs" textLength="107" x="20" y="550.9326">Thanksメール送信</text><polygon fill="#383838" points="512,581.7891,522,585.7891,512,589.7891,516,585.7891" style="stroke: #383838; stroke-width: 1.0;"/><line style="stroke: #383838; stroke-width: 1.0;" x1="296" x2="518" y1="585.7891" y2="585.7891"/><text fill="#000000" font-family="sans-serif" font-size="13" lengthAdjust="spacingAndGlyphs" textLength="199" x="303" y="581.2842">あす楽・プライム 付箋フィルター</text><rect fill="#EEEEEE" filter="url(#fos2w1o)" height="3" style="stroke: #EEEEEE; stroke-width: 1.0;" width="1225" x="3" y="615.3164"/><line style="stroke: #000000; stroke-width: 1.0;" x1="3" x2="1228" y1="615.3164" y2="615.3164"/><line style="stroke: #000000; stroke-width: 1.0;" x1="3" x2="1228" y1="618.3164" y2="618.3164"/><rect fill="#EEEEEE" filter="url(#fos2w1o)" height="24.3516" style="stroke: #000000; stroke-width: 2.0;" width="124" x="553.5" y="604.1406"/><text fill="#000000" font-family="sans-serif" font-size="13" font-weight="bold" lengthAdjust="spacingAndGlyphs" textLength="106" x="559.5" y="621.6357">16:30～ 出荷処理</text><polygon fill="#383838" points="589,640.4922,599,644.4922,589,648.4922,593,644.4922" style="stroke: #383838; stroke-width: 1.0;"/><line style="stroke: #383838; stroke-width: 1.0;" x1="529" x2="595" y1="644.4922" y2="644.4922"/><polygon fill="#383838" points="589,670.4922,599,674.4922,589,678.4922,593,674.4922" style="stroke: #383838; stroke-width: 1.0;"/><line style="stroke: #383838; stroke-width: 1.0;" x1="3" x2="595" y1="674.4922" y2="674.4922"/><text fill="#000000" font-family="sans-serif" font-size="13" lengthAdjust="spacingAndGlyphs" textLength="102" x="10" y="669.9873">e飛伝 送り状番号</text><polygon fill="#383838" points="589,700.8438,599,704.8438,589,708.8438,593,704.8438" style="stroke: #383838; stroke-width: 1.0;"/><line style="stroke: #383838; stroke-width: 1.0;" x1="3" x2="595" y1="704.8438" y2="704.8438"/><text fill="#000000" font-family="sans-serif" font-size="13" lengthAdjust="spacingAndGlyphs" textLength="124" x="10" y="700.3389">ヤマトB2 送り状番号</text><polygon fill="#383838" points="14,731.1953,4,735.1953,14,739.1953,10,735.1953" style="stroke: #383838; stroke-width: 1.0;"/><line style="stroke: #383838; stroke-width: 1.0;" x1="8" x2="600" y1="735.1953" y2="735.1953"/><text fill="#000000" font-family="sans-serif" font-size="13" lengthAdjust="spacingAndGlyphs" textLength="186" x="20" y="730.6904">○件中△件 処理件数通知メール</text><polygon fill="#383838" points="841.5,761.5469,851.5,765.5469,841.5,769.5469,845.5,765.5469" style="stroke: #383838; stroke-width: 1.0;"/><line style="stroke: #383838; stroke-width: 1.0;" x1="611" x2="847.5" y1="765.5469" y2="765.5469"/><text fill="#000000" font-family="sans-serif" font-size="13" lengthAdjust="spacingAndGlyphs" textLength="139" x="618" y="761.042">Amazonアップロード用</text><polygon fill="#383838" points="841.5,791.8984,851.5,795.8984,841.5,799.8984,845.5,795.8984" style="stroke: #383838; stroke-width: 1.0;"/><line style="stroke: #383838; stroke-width: 1.0;" x1="611" x2="847.5" y1="795.8984" y2="795.8984"/><text fill="#000000" font-family="sans-serif" font-size="13" lengthAdjust="spacingAndGlyphs" textLength="117" x="618" y="791.3936">楽天アップロード用</text><polygon fill="#383838" points="841.5,822.25,851.5,826.25,841.5,830.25,845.5,826.25" style="stroke: #383838; stroke-width: 1.0;"/><line style="stroke: #383838; stroke-width: 1.0;" x1="606" x2="847.5" y1="826.25" y2="826.25"/><text fill="#000000" font-family="sans-serif" font-size="13" lengthAdjust="spacingAndGlyphs" textLength="131" x="613" y="821.7451">Yahoo!アップロード用</text><polygon fill="#383838" points="999.5,852.6016,1009.5,856.6016,999.5,860.6016,1003.5,856.6016" style="stroke: #383838; stroke-width: 1.0;"/><line style="stroke: #383838; stroke-width: 1.0;" x1="853.5" x2="1005.5" y1="856.6016" y2="856.6016"/><text fill="#000000" font-family="sans-serif" font-size="13" lengthAdjust="spacingAndGlyphs" textLength="134" x="860.5" y="852.0967">ヤマト運輸 送り状番号</text><polygon fill="#383838" points="999.5,882.9531,1009.5,886.9531,999.5,890.9531,1003.5,886.9531" style="stroke: #383838; stroke-width: 1.0;"/><line style="stroke: #383838; stroke-width: 1.0;" x1="853.5" x2="1005.5" y1="886.9531" y2="886.9531"/><text fill="#000000" font-family="sans-serif" font-size="13" lengthAdjust="spacingAndGlyphs" textLength="121" x="860.5" y="882.4482">佐川急便 送り状番号</text><polygon fill="#383838" points="1096.5,913.3047,1106.5,917.3047,1096.5,921.3047,1100.5,917.3047" style="stroke: #383838; stroke-width: 1.0;"/><line style="stroke: #383838; stroke-width: 1.0;" x1="1011.5" x2="1102.5" y1="917.3047" y2="917.3047"/><text fill="#000000" font-family="sans-serif" font-size="13" lengthAdjust="spacingAndGlyphs" textLength="52" x="1018.5" y="912.7998">集荷確認</text><polygon fill="#383838" points="1175.5,943.6563,1185.5,947.6563,1175.5,951.6563,1179.5,947.6563" style="stroke: #383838; stroke-width: 1.0;"/><line style="stroke: #383838; stroke-width: 1.0;" x1="1011.5" x2="1181.5" y1="947.6563" y2="947.6563"/><text fill="#000000" font-family="sans-serif" font-size="13" lengthAdjust="spacingAndGlyphs" textLength="52" x="1018.5" y="943.1514">集荷確認</text><polygon fill="#383838" points="617,974.0078,607,978.0078,617,982.0078,613,978.0078" style="stroke: #383838; stroke-width: 1.0;"/><line style="stroke: #383838; stroke-width: 1.0;" x1="611" x2="852.5" y1="978.0078" y2="978.0078"/><text fill="#000000" font-family="sans-serif" font-size="13" lengthAdjust="spacingAndGlyphs" textLength="65" x="623" y="973.5029">未集荷削除</text><polygon fill="#383838" points="762,988.3594,772,992.3594,762,996.3594,766,992.3594" style="stroke: #383838; stroke-width: 1.0;"/><line style="stroke: #383838; stroke-width: 1.0;" x1="606" x2="768" y1="992.3594" y2="992.3594"/></g></svg>