<?xml version="1.0" encoding="UTF-8" standalone="no"?><svg xmlns="http://www.w3.org/2000/svg" xmlns:xlink="http://www.w3.org/1999/xlink" contentScriptType="application/ecmascript" contentStyleType="text/css" height="1110px" preserveAspectRatio="none" style="width:1389px;height:1110px;" version="1.1" viewBox="0 0 1389 1110" width="1389px" zoomAndPan="magnify"><defs><filter height="300%" id="fd0t777" width="300%" x="-1" y="-1"><feGaussianBlur result="blurOut" stdDeviation="2.0"/><feColorMatrix in="blurOut" result="blurOut2" type="matrix" values="0 0 0 0 0 0 0 0 0 0 0 0 0 0 0 0 0 0 .4 0"/><feOffset dx="4.0" dy="4.0" in="blurOut2" result="blurOut3"/><feBlend in="SourceGraphic" in2="blurOut3" mode="normal"/></filter></defs><g><text fill="#000000" font-family="sans-serif" font-size="14" font-weight="bold" lengthAdjust="spacingAndGlyphs" textLength="105" x="641" y="24.5332">フェーズ遷移図</text><rect fill="#FFFFFF" filter="url(#fd0t777)" height="141.4063" style="stroke: #383838; stroke-width: 1.0;" width="10" x="342" y="129.5703"/><rect fill="#FFFFFF" filter="url(#fd0t777)" height="149.7578" style="stroke: #383838; stroke-width: 1.0;" width="10" x="342" y="375.6797"/><rect fill="#FFFFFF" filter="url(#fd0t777)" height="74.7031" style="stroke: #383838; stroke-width: 1.0;" width="10" x="447" y="270.9766"/><rect fill="#FFFFFF" filter="url(#fd0t777)" height="90.7031" style="stroke: #383838; stroke-width: 1.0;" width="10" x="447" y="525.4375"/><rect fill="#FFFFFF" filter="url(#fd0t777)" height="329.1641" style="stroke: #383838; stroke-width: 1.0;" width="10" x="680" y="345.6797"/><rect fill="#FFFFFF" filter="url(#fd0t777)" height="347.8672" style="stroke: #383838; stroke-width: 1.0;" width="10" x="757" y="674.8438"/><rect fill="#FFFFFF" filter="url(#fd0t777)" height="9" style="stroke: #383838; stroke-width: 1.0;" width="10" x="925" y="1022.7109"/><rect fill="#FFFFFF" height="1071.7109" style="stroke: #383838; stroke-width: 1.0;" width="209" x="4" y="35.6094"/><text fill="#000000" font-family="sans-serif" font-size="13" font-weight="bold" lengthAdjust="spacingAndGlyphs" textLength="74" x="71.5" y="49.1045">梱包室PC内</text><rect fill="#FFFFFF" height="1071.7109" style="stroke: #383838; stroke-width: 1.0;" width="651" x="306" y="35.6094"/><text fill="#000000" font-family="sans-serif" font-size="13" font-weight="bold" lengthAdjust="spacingAndGlyphs" textLength="86" x="588.5" y="49.1045">CROSS MALL</text><rect fill="#FFFFFF" height="1071.7109" style="stroke: #383838; stroke-width: 1.0;" width="165" x="1218" y="35.6094"/><text fill="#000000" font-family="sans-serif" font-size="13" font-weight="bold" lengthAdjust="spacingAndGlyphs" textLength="159" x="1221" y="49.1045">運送会社 Web照会サーバ</text><line style="stroke: #383838; stroke-width: 1.0; stroke-dasharray: 5.0,5.0;" x1="61" x2="61" y1="119.5703" y2="1040.7109"/><line style="stroke: #383838; stroke-width: 1.0; stroke-dasharray: 5.0,5.0;" x1="167" x2="167" y1="119.5703" y2="1040.7109"/><line style="stroke: #383838; stroke-width: 1.0; stroke-dasharray: 5.0,5.0;" x1="347" x2="347" y1="119.5703" y2="1040.7109"/><line style="stroke: #383838; stroke-width: 1.0; stroke-dasharray: 5.0,5.0;" x1="452" x2="452" y1="119.5703" y2="1040.7109"/><line style="stroke: #383838; stroke-width: 1.0; stroke-dasharray: 5.0,5.0;" x1="685" x2="685" y1="119.5703" y2="1040.7109"/><line style="stroke: #383838; stroke-width: 1.0; stroke-dasharray: 5.0,5.0;" x1="762" x2="762" y1="119.5703" y2="1040.7109"/><line style="stroke: #383838; stroke-width: 1.0; stroke-dasharray: 5.0,5.0;" x1="874" x2="874" y1="119.5703" y2="1040.7109"/><line style="stroke: #383838; stroke-width: 1.0; stroke-dasharray: 5.0,5.0;" x1="930" x2="930" y1="119.5703" y2="1040.7109"/><line style="stroke: #383838; stroke-width: 1.0; stroke-dasharray: 5.0,5.0;" x1="1009" x2="1009" y1="119.5703" y2="1040.7109"/><line style="stroke: #383838; stroke-width: 1.0; stroke-dasharray: 5.0,5.0;" x1="1167" x2="1167" y1="119.5703" y2="1040.7109"/><line style="stroke: #383838; stroke-width: 1.0; stroke-dasharray: 5.0,5.0;" x1="1264.5" x2="1264.5" y1="119.5703" y2="1040.7109"/><line style="stroke: #383838; stroke-width: 1.0; stroke-dasharray: 5.0,5.0;" x1="1343.5" x2="1343.5" y1="119.5703" y2="1040.7109"/><text fill="#000000" font-family="sans-serif" font-size="14" lengthAdjust="spacingAndGlyphs" textLength="101" x="8" y="116.4941">ヤマトB2アプリ</text><ellipse cx="61.5" cy="85.9609" fill="#F8F8F8" filter="url(#fd0t777)" rx="12" ry="12" style="stroke: #383838; stroke-width: 2.0;"/><line style="stroke: #383838; stroke-width: 2.0;" x1="49.5" x2="73.5" y1="99.9609" y2="99.9609"/><text fill="#000000" font-family="sans-serif" font-size="14" lengthAdjust="spacingAndGlyphs" textLength="101" x="8" y="1054.2441">ヤマトB2アプリ</text><ellipse cx="61.5" cy="1073.3203" fill="#F8F8F8" filter="url(#fd0t777)" rx="12" ry="12" style="stroke: #383838; stroke-width: 2.0;"/><line style="stroke: #383838; stroke-width: 2.0;" x1="49.5" x2="73.5" y1="1087.3203" y2="1087.3203"/><text fill="#000000" font-family="sans-serif" font-size="14" lengthAdjust="spacingAndGlyphs" textLength="78" x="125" y="116.4941">e飛伝アプリ</text><ellipse cx="167" cy="85.9609" fill="#F8F8F8" filter="url(#fd0t777)" rx="12" ry="12" style="stroke: #383838; stroke-width: 2.0;"/><line style="stroke: #383838; stroke-width: 2.0;" x1="155" x2="179" y1="99.9609" y2="99.9609"/><text fill="#000000" font-family="sans-serif" font-size="14" lengthAdjust="spacingAndGlyphs" textLength="78" x="125" y="1054.2441">e飛伝アプリ</text><ellipse cx="167" cy="1073.3203" fill="#F8F8F8" filter="url(#fd0t777)" rx="12" ry="12" style="stroke: #383838; stroke-width: 2.0;"/><line style="stroke: #383838; stroke-width: 2.0;" x1="155" x2="179" y1="1087.3203" y2="1087.3203"/><rect fill="#F8F8F8" filter="url(#fd0t777)" height="31.6094" style="stroke: #383838; stroke-width: 1.5;" width="70" x="310" y="82.9609"/><text fill="#000000" font-family="sans-serif" font-size="14" lengthAdjust="spacingAndGlyphs" textLength="56" x="317" y="104.4941">注文確認</text><rect fill="#F8F8F8" filter="url(#fd0t777)" height="31.6094" style="stroke: #383838; stroke-width: 1.5;" width="70" x="310" y="1039.7109"/><text fill="#000000" font-family="sans-serif" font-size="14" lengthAdjust="spacingAndGlyphs" textLength="56" x="317" y="1061.2441">注文確認</text><rect fill="#F8F8F8" filter="url(#fd0t777)" height="31.6094" style="stroke: #383838; stroke-width: 1.5;" width="112" x="394" y="82.9609"/><text fill="#000000" font-family="sans-serif" font-size="14" lengthAdjust="spacingAndGlyphs" textLength="98" x="401" y="104.4941">リスト出力待ち</text><rect fill="#F8F8F8" filter="url(#fd0t777)" height="31.6094" style="stroke: #383838; stroke-width: 1.5;" width="112" x="394" y="1039.7109"/><text fill="#000000" font-family="sans-serif" font-size="14" lengthAdjust="spacingAndGlyphs" textLength="98" x="401" y="1061.2441">リスト出力待ち</text><rect fill="#F8F8F8" filter="url(#fd0t777)" height="31.6094" style="stroke: #383838; stroke-width: 1.5;" width="70" x="648" y="82.9609"/><text fill="#000000" font-family="sans-serif" font-size="14" lengthAdjust="spacingAndGlyphs" textLength="56" x="655" y="104.4941">発送待ち</text><rect fill="#F8F8F8" filter="url(#fd0t777)" height="31.6094" style="stroke: #383838; stroke-width: 1.5;" width="70" x="648" y="1039.7109"/><text fill="#000000" font-family="sans-serif" font-size="14" lengthAdjust="spacingAndGlyphs" textLength="56" x="655" y="1061.2441">発送待ち</text><rect fill="#F8F8F8" filter="url(#fd0t777)" height="31.6094" style="stroke: #383838; stroke-width: 1.5;" width="56" x="732" y="82.9609"/><text fill="#000000" font-family="sans-serif" font-size="14" lengthAdjust="spacingAndGlyphs" textLength="42" x="739" y="104.4941">発送済</text><rect fill="#F8F8F8" filter="url(#fd0t777)" height="31.6094" style="stroke: #383838; stroke-width: 1.5;" width="56" x="732" y="1039.7109"/><text fill="#000000" font-family="sans-serif" font-size="14" lengthAdjust="spacingAndGlyphs" textLength="42" x="739" y="1061.2441">発送済</text><rect fill="#F8F8F8" filter="url(#fd0t777)" height="31.6094" style="stroke: #383838; stroke-width: 1.5;" width="42" x="851" y="82.9609"/><text fill="#000000" font-family="sans-serif" font-size="14" lengthAdjust="spacingAndGlyphs" textLength="28" x="858" y="104.4941">削除</text><rect fill="#F8F8F8" filter="url(#fd0t777)" height="31.6094" style="stroke: #383838; stroke-width: 1.5;" width="42" x="851" y="1039.7109"/><text fill="#000000" font-family="sans-serif" font-size="14" lengthAdjust="spacingAndGlyphs" textLength="28" x="858" y="1061.2441">削除</text><rect fill="#F8F8F8" filter="url(#fd0t777)" height="31.6094" style="stroke: #383838; stroke-width: 1.5;" width="42" x="907" y="82.9609"/><text fill="#000000" font-family="sans-serif" font-size="14" lengthAdjust="spacingAndGlyphs" textLength="28" x="914" y="104.4941">完了</text><rect fill="#F8F8F8" filter="url(#fd0t777)" height="31.6094" style="stroke: #383838; stroke-width: 1.5;" width="42" x="907" y="1039.7109"/><text fill="#000000" font-family="sans-serif" font-size="14" lengthAdjust="spacingAndGlyphs" textLength="28" x="914" y="1061.2441">完了</text><text fill="#000000" font-family="sans-serif" font-size="14" lengthAdjust="spacingAndGlyphs" textLength="87" x="963" y="116.4941">出荷確認.xlsm</text><path d="M989,73.9609 L989,97.9609 M989,85.9609 L1006,85.9609 " fill="#F8F8F8" filter="url(#fd0t777)" style="stroke: #383838; stroke-width: 2.0;"/><ellipse cx="1018" cy="85.9609" fill="#F8F8F8" filter="url(#fd0t777)" rx="12" ry="12" style="stroke: #383838; stroke-width: 2.0;"/><text fill="#000000" font-family="sans-serif" font-size="14" lengthAdjust="spacingAndGlyphs" textLength="87" x="963" y="1054.2441">出荷確認.xlsm</text><path d="M989,1061.3203 L989,1085.3203 M989,1073.3203 L1006,1073.3203 " fill="#F8F8F8" filter="url(#fd0t777)" style="stroke: #383838; stroke-width: 2.0;"/><ellipse cx="1018" cy="1073.3203" fill="#F8F8F8" filter="url(#fd0t777)" rx="12" ry="12" style="stroke: #383838; stroke-width: 2.0;"/><rect fill="#F8F8F8" filter="url(#fd0t777)" height="31.6094" style="stroke: #383838; stroke-width: 1.5;" width="85" x="1123" y="82.9609"/><text fill="#000000" font-family="sans-serif" font-size="14" lengthAdjust="spacingAndGlyphs" textLength="71" x="1130" y="104.4941">配送でPON</text><rect fill="#F8F8F8" filter="url(#fd0t777)" height="31.6094" style="stroke: #383838; stroke-width: 1.5;" width="85" x="1123" y="1039.7109"/><text fill="#000000" font-family="sans-serif" font-size="14" lengthAdjust="spacingAndGlyphs" textLength="71" x="1130" y="1061.2441">配送でPON</text><text fill="#000000" font-family="sans-serif" font-size="14" lengthAdjust="spacingAndGlyphs" textLength="70" x="1226.5" y="116.4941">ヤマト運輸</text><path d="M1246.5,65.9609 C1246.5,55.9609 1264.5,55.9609 1264.5,55.9609 C1264.5,55.9609 1282.5,55.9609 1282.5,65.9609 L1282.5,91.9609 C1282.5,101.9609 1264.5,101.9609 1264.5,101.9609 C1264.5,101.9609 1246.5,101.9609 1246.5,91.9609 L1246.5,65.9609 " fill="#F8F8F8" filter="url(#fd0t777)" style="stroke: #000000; stroke-width: 1.5;"/><path d="M1246.5,65.9609 C1246.5,75.9609 1264.5,75.9609 1264.5,75.9609 C1264.5,75.9609 1282.5,75.9609 1282.5,65.9609 " fill="none" style="stroke: #000000; stroke-width: 1.5;"/><text fill="#000000" font-family="sans-serif" font-size="14" lengthAdjust="spacingAndGlyphs" textLength="70" x="1226.5" y="1054.2441">ヤマト運輸</text><path d="M1246.5,1067.3203 C1246.5,1057.3203 1264.5,1057.3203 1264.5,1057.3203 C1264.5,1057.3203 1282.5,1057.3203 1282.5,1067.3203 L1282.5,1093.3203 C1282.5,1103.3203 1264.5,1103.3203 1264.5,1103.3203 C1264.5,1103.3203 1246.5,1103.3203 1246.5,1093.3203 L1246.5,1067.3203 " fill="#F8F8F8" filter="url(#fd0t777)" style="stroke: #000000; stroke-width: 1.5;"/><path d="M1246.5,1067.3203 C1246.5,1077.3203 1264.5,1077.3203 1264.5,1077.3203 C1264.5,1077.3203 1282.5,1077.3203 1282.5,1067.3203 " fill="none" style="stroke: #000000; stroke-width: 1.5;"/><text fill="#000000" font-family="sans-serif" font-size="14" lengthAdjust="spacingAndGlyphs" textLength="56" x="1312.5" y="116.4941">佐川急便</text><path d="M1325.5,65.9609 C1325.5,55.9609 1343.5,55.9609 1343.5,55.9609 C1343.5,55.9609 1361.5,55.9609 1361.5,65.9609 L1361.5,91.9609 C1361.5,101.9609 1343.5,101.9609 1343.5,101.9609 C1343.5,101.9609 1325.5,101.9609 1325.5,91.9609 L1325.5,65.9609 " fill="#F8F8F8" filter="url(#fd0t777)" style="stroke: #000000; stroke-width: 1.5;"/><path d="M1325.5,65.9609 C1325.5,75.9609 1343.5,75.9609 1343.5,75.9609 C1343.5,75.9609 1361.5,75.9609 1361.5,65.9609 " fill="none" style="stroke: #000000; stroke-width: 1.5;"/><text fill="#000000" font-family="sans-serif" font-size="14" lengthAdjust="spacingAndGlyphs" textLength="56" x="1312.5" y="1054.2441">佐川急便</text><path d="M1325.5,1067.3203 C1325.5,1057.3203 1343.5,1057.3203 1343.5,1057.3203 C1343.5,1057.3203 1361.5,1057.3203 1361.5,1067.3203 L1361.5,1093.3203 C1361.5,1103.3203 1343.5,1103.3203 1343.5,1103.3203 C1343.5,1103.3203 1325.5,1103.3203 1325.5,1093.3203 L1325.5,1067.3203 " fill="#F8F8F8" filter="url(#fd0t777)" style="stroke: #000000; stroke-width: 1.5;"/><path d="M1325.5,1067.3203 C1325.5,1077.3203 1343.5,1077.3203 1343.5,1077.3203 C1343.5,1077.3203 1361.5,1077.3203 1361.5,1067.3203 " fill="none" style="stroke: #000000; stroke-width: 1.5;"/><rect fill="#FFFFFF" filter="url(#fd0t777)" height="141.4063" style="stroke: #383838; stroke-width: 1.0;" width="10" x="342" y="129.5703"/><rect fill="#FFFFFF" filter="url(#fd0t777)" height="149.7578" style="stroke: #383838; stroke-width: 1.0;" width="10" x="342" y="375.6797"/><rect fill="#FFFFFF" filter="url(#fd0t777)" height="74.7031" style="stroke: #383838; stroke-width: 1.0;" width="10" x="447" y="270.9766"/><rect fill="#FFFFFF" filter="url(#fd0t777)" height="90.7031" style="stroke: #383838; stroke-width: 1.0;" width="10" x="447" y="525.4375"/><rect fill="#FFFFFF" filter="url(#fd0t777)" height="329.1641" style="stroke: #383838; stroke-width: 1.0;" width="10" x="680" y="345.6797"/><rect fill="#FFFFFF" filter="url(#fd0t777)" height="347.8672" style="stroke: #383838; stroke-width: 1.0;" width="10" x="757" y="674.8438"/><rect fill="#FFFFFF" filter="url(#fd0t777)" height="9" style="stroke: #383838; stroke-width: 1.0;" width="10" x="925" y="1022.7109"/><rect fill="#EEEEEE" filter="url(#fd0t777)" height="3" style="stroke: #EEEEEE; stroke-width: 1.0;" width="1381" x="3" y="150.7461"/><line style="stroke: #000000; stroke-width: 1.0;" x1="3" x2="1384" y1="150.7461" y2="150.7461"/><line style="stroke: #000000; stroke-width: 1.0;" x1="3" x2="1384" y1="153.7461" y2="153.7461"/><rect fill="#EEEEEE" filter="url(#fd0t777)" height="24.3516" style="stroke: #000000; stroke-width: 2.0;" width="145" x="621" y="139.5703"/><text fill="#000000" font-family="sans-serif" font-size="13" font-weight="bold" lengthAdjust="spacingAndGlyphs" textLength="127" x="627" y="157.0654">8:00～ 朝の受注取込</text><polygon fill="#383838" points="14,191.9219,4,195.9219,14,199.9219,10,195.9219" style="stroke: #383838; stroke-width: 1.0;"/><line style="stroke: #383838; stroke-width: 1.0;" x1="8" x2="341" y1="195.9219" y2="195.9219"/><text fill="#000000" font-family="sans-serif" font-size="13" lengthAdjust="spacingAndGlyphs" textLength="65" x="20" y="191.417">納品書出力</text><polygon fill="#383838" points="72.5,222.2734,62.5,226.2734,72.5,230.2734,68.5,226.2734" style="stroke: #383838; stroke-width: 1.0;"/><line style="stroke: #383838; stroke-width: 1.0;" x1="66.5" x2="341" y1="226.2734" y2="226.2734"/><text fill="#000000" font-family="sans-serif" font-size="13" lengthAdjust="spacingAndGlyphs" textLength="164" x="78.5" y="221.7686">ヤマトB2 CSVダウンロード</text><polygon fill="#383838" points="178,252.625,168,256.625,178,260.625,174,256.625" style="stroke: #383838; stroke-width: 1.0;"/><line style="stroke: #383838; stroke-width: 1.0;" x1="172" x2="341" y1="256.625" y2="256.625"/><text fill="#000000" font-family="sans-serif" font-size="13" lengthAdjust="spacingAndGlyphs" textLength="151" x="184" y="252.1201">e飛伝用CSVダウンロード</text><polygon fill="#383838" points="435,266.9766,445,270.9766,435,274.9766,439,270.9766" style="stroke: #383838; stroke-width: 1.0;"/><line style="stroke: #383838; stroke-width: 1.0;" x1="347" x2="441" y1="270.9766" y2="270.9766"/><polygon fill="#383838" points="14,296.9766,4,300.9766,14,304.9766,10,300.9766" style="stroke: #383838; stroke-width: 1.0;"/><line style="stroke: #383838; stroke-width: 1.0;" x1="8" x2="446" y1="300.9766" y2="300.9766"/><text fill="#000000" font-family="sans-serif" font-size="13" lengthAdjust="spacingAndGlyphs" textLength="170" x="20" y="296.4717">ピッキングCSVダウンロード</text><polygon fill="#383838" points="14,327.3281,4,331.3281,14,335.3281,10,331.3281" style="stroke: #383838; stroke-width: 1.0;"/><line style="stroke: #383838; stroke-width: 1.0;" x1="8" x2="446" y1="331.3281" y2="331.3281"/><text fill="#000000" font-family="sans-serif" font-size="13" lengthAdjust="spacingAndGlyphs" textLength="107" x="20" y="326.8232">Thanksメール送信</text><polygon fill="#383838" points="668,341.6797,678,345.6797,668,349.6797,672,345.6797" style="stroke: #383838; stroke-width: 1.0;"/><line style="stroke: #383838; stroke-width: 1.0;" x1="452" x2="674" y1="345.6797" y2="345.6797"/><polygon fill="#383838" points="862,371.6797,872,375.6797,862,379.6797,866,375.6797" style="stroke: #383838; stroke-width: 1.0;"/><line style="stroke: #383838; stroke-width: 1.0;" x1="690" x2="868" y1="375.6797" y2="375.6797"/><text fill="#000000" font-family="sans-serif" font-size="13" lengthAdjust="spacingAndGlyphs" textLength="160" x="697" y="371.1748">注文キャンセル時 随時移動</text><rect fill="#EEEEEE" filter="url(#fd0t777)" height="3" style="stroke: #EEEEEE; stroke-width: 1.0;" width="1381" x="3" y="405.207"/><line style="stroke: #000000; stroke-width: 1.0;" x1="3" x2="1384" y1="405.207" y2="405.207"/><line style="stroke: #000000; stroke-width: 1.0;" x1="3" x2="1384" y1="408.207" y2="408.207"/><rect fill="#EEEEEE" filter="url(#fd0t777)" height="24.3516" style="stroke: #000000; stroke-width: 2.0;" width="208" x="589.5" y="394.0313"/><text fill="#000000" font-family="sans-serif" font-size="13" font-weight="bold" lengthAdjust="spacingAndGlyphs" textLength="190" x="595.5" y="411.5264">13:30～ あす楽・プライム取込</text><polygon fill="#383838" points="14,446.3828,4,450.3828,14,454.3828,10,450.3828" style="stroke: #383838; stroke-width: 1.0;"/><line style="stroke: #383838; stroke-width: 1.0;" x1="8" x2="341" y1="450.3828" y2="450.3828"/><text fill="#000000" font-family="sans-serif" font-size="13" lengthAdjust="spacingAndGlyphs" textLength="65" x="20" y="445.8779">納品書出力</text><polygon fill="#383838" points="72.5,476.7344,62.5,480.7344,72.5,484.7344,68.5,480.7344" style="stroke: #383838; stroke-width: 1.0;"/><line style="stroke: #383838; stroke-width: 1.0;" x1="66.5" x2="341" y1="480.7344" y2="480.7344"/><text fill="#000000" font-family="sans-serif" font-size="13" lengthAdjust="spacingAndGlyphs" textLength="164" x="78.5" y="476.2295">ヤマトB2 CSVダウンロード</text><polygon fill="#383838" points="178,507.0859,168,511.0859,178,515.0859,174,511.0859" style="stroke: #383838; stroke-width: 1.0;"/><line style="stroke: #383838; stroke-width: 1.0;" x1="172" x2="341" y1="511.0859" y2="511.0859"/><text fill="#000000" font-family="sans-serif" font-size="13" lengthAdjust="spacingAndGlyphs" textLength="151" x="184" y="506.5811">e飛伝用CSVダウンロード</text><polygon fill="#383838" points="435,521.4375,445,525.4375,435,529.4375,439,525.4375" style="stroke: #383838; stroke-width: 1.0;"/><line style="stroke: #383838; stroke-width: 1.0;" x1="347" x2="441" y1="525.4375" y2="525.4375"/><polygon fill="#383838" points="14,551.4375,4,555.4375,14,559.4375,10,555.4375" style="stroke: #383838; stroke-width: 1.0;"/><line style="stroke: #383838; stroke-width: 1.0;" x1="8" x2="446" y1="555.4375" y2="555.4375"/><text fill="#000000" font-family="sans-serif" font-size="13" lengthAdjust="spacingAndGlyphs" textLength="170" x="20" y="550.9326">ピッキングCSVダウンロード</text><polygon fill="#383838" points="14,581.7891,4,585.7891,14,589.7891,10,585.7891" style="stroke: #383838; stroke-width: 1.0;"/><line style="stroke: #383838; stroke-width: 1.0;" x1="8" x2="446" y1="585.7891" y2="585.7891"/><text fill="#000000" font-family="sans-serif" font-size="13" lengthAdjust="spacingAndGlyphs" textLength="107" x="20" y="581.2842">Thanksメール送信</text><polygon fill="#383838" points="668,612.1406,678,616.1406,668,620.1406,672,616.1406" style="stroke: #383838; stroke-width: 1.0;"/><line style="stroke: #383838; stroke-width: 1.0;" x1="452" x2="674" y1="616.1406" y2="616.1406"/><text fill="#000000" font-family="sans-serif" font-size="13" lengthAdjust="spacingAndGlyphs" textLength="199" x="459" y="611.6357">あす楽・プライム 付箋フィルター</text><rect fill="#EEEEEE" filter="url(#fd0t777)" height="3" style="stroke: #EEEEEE; stroke-width: 1.0;" width="1381" x="3" y="645.668"/><line style="stroke: #000000; stroke-width: 1.0;" x1="3" x2="1384" y1="645.668" y2="645.668"/><line style="stroke: #000000; stroke-width: 1.0;" x1="3" x2="1384" y1="648.668" y2="648.668"/><rect fill="#EEEEEE" filter="url(#fd0t777)" height="24.3516" style="stroke: #000000; stroke-width: 2.0;" width="138" x="624.5" y="634.4922"/><text fill="#000000" font-family="sans-serif" font-size="13" font-weight="bold" lengthAdjust="spacingAndGlyphs" textLength="120" x="630.5" y="651.9873">16:30～ 出荷〆処理</text><polygon fill="#383838" points="745,670.8438,755,674.8438,745,678.8438,749,674.8438" style="stroke: #383838; stroke-width: 1.0;"/><line style="stroke: #383838; stroke-width: 1.0;" x1="685" x2="751" y1="674.8438" y2="674.8438"/><polygon fill="#383838" points="745,700.8438,755,704.8438,745,708.8438,749,704.8438" style="stroke: #383838; stroke-width: 1.0;"/><line style="stroke: #383838; stroke-width: 1.0;" x1="61.5" x2="751" y1="704.8438" y2="704.8438"/><text fill="#000000" font-family="sans-serif" font-size="13" lengthAdjust="spacingAndGlyphs" textLength="124" x="68.5" y="700.3389">ヤマトB2 送り状番号</text><polygon fill="#383838" points="745,731.1953,755,735.1953,745,739.1953,749,735.1953" style="stroke: #383838; stroke-width: 1.0;"/><line style="stroke: #383838; stroke-width: 1.0;" x1="167" x2="751" y1="735.1953" y2="735.1953"/><text fill="#000000" font-family="sans-serif" font-size="13" lengthAdjust="spacingAndGlyphs" textLength="102" x="174" y="730.6904">e飛伝 送り状番号</text><polygon fill="#383838" points="14,761.5469,4,765.5469,14,769.5469,10,765.5469" style="stroke: #383838; stroke-width: 1.0;"/><line style="stroke: #383838; stroke-width: 1.0;" x1="8" x2="756" y1="765.5469" y2="765.5469"/><text fill="#000000" font-family="sans-serif" font-size="13" lengthAdjust="spacingAndGlyphs" textLength="186" x="20" y="761.042">○件中△件 処理件数通知メール</text><polygon fill="#383838" points="997.5,791.8984,1007.5,795.8984,997.5,799.8984,1001.5,795.8984" style="stroke: #383838; stroke-width: 1.0;"/><line style="stroke: #383838; stroke-width: 1.0;" x1="767" x2="1003.5" y1="795.8984" y2="795.8984"/><text fill="#000000" font-family="sans-serif" font-size="13" lengthAdjust="spacingAndGlyphs" textLength="166" x="774" y="791.3936">Amazonアップロード用CSV</text><polygon fill="#383838" points="997.5,822.25,1007.5,826.25,997.5,830.25,1001.5,826.25" style="stroke: #383838; stroke-width: 1.0;"/><line style="stroke: #383838; stroke-width: 1.0;" x1="767" x2="1003.5" y1="826.25" y2="826.25"/><text fill="#000000" font-family="sans-serif" font-size="13" lengthAdjust="spacingAndGlyphs" textLength="144" x="774" y="821.7451">楽天アップロード用CSV</text><polygon fill="#383838" points="997.5,852.6016,1007.5,856.6016,997.5,860.6016,1001.5,856.6016" style="stroke: #383838; stroke-width: 1.0;"/><line style="stroke: #383838; stroke-width: 1.0;" x1="767" x2="1003.5" y1="856.6016" y2="856.6016"/><text fill="#000000" font-family="sans-serif" font-size="13" lengthAdjust="spacingAndGlyphs" textLength="158" x="774" y="852.0967">Yahoo!アップロード用CSV</text><polygon fill="#383838" points="1155.5,882.9531,1165.5,886.9531,1155.5,890.9531,1159.5,886.9531" style="stroke: #383838; stroke-width: 1.0;"/><line style="stroke: #383838; stroke-width: 1.0;" x1="1009.5" x2="1161.5" y1="886.9531" y2="886.9531"/><text fill="#000000" font-family="sans-serif" font-size="13" lengthAdjust="spacingAndGlyphs" textLength="134" x="1016.5" y="882.4482">ヤマト運輸 送り状番号</text><polygon fill="#383838" points="1155.5,913.3047,1165.5,917.3047,1155.5,921.3047,1159.5,917.3047" style="stroke: #383838; stroke-width: 1.0;"/><line style="stroke: #383838; stroke-width: 1.0;" x1="1009.5" x2="1161.5" y1="917.3047" y2="917.3047"/><text fill="#000000" font-family="sans-serif" font-size="13" lengthAdjust="spacingAndGlyphs" textLength="121" x="1016.5" y="912.7998">佐川急便 送り状番号</text><polygon fill="#383838" points="1252.5,943.6563,1262.5,947.6563,1252.5,951.6563,1256.5,947.6563" style="stroke: #383838; stroke-width: 1.0;"/><line style="stroke: #383838; stroke-width: 1.0;" x1="1167.5" x2="1258.5" y1="947.6563" y2="947.6563"/><text fill="#000000" font-family="sans-serif" font-size="13" lengthAdjust="spacingAndGlyphs" textLength="52" x="1174.5" y="943.1514">集荷確認</text><polygon fill="#383838" points="1331.5,974.0078,1341.5,978.0078,1331.5,982.0078,1335.5,978.0078" style="stroke: #383838; stroke-width: 1.0;"/><line style="stroke: #383838; stroke-width: 1.0;" x1="1167.5" x2="1337.5" y1="978.0078" y2="978.0078"/><text fill="#000000" font-family="sans-serif" font-size="13" lengthAdjust="spacingAndGlyphs" textLength="52" x="1174.5" y="973.5029">集荷確認</text><polygon fill="#383838" points="778,1004.3594,768,1008.3594,778,1012.3594,774,1008.3594" style="stroke: #383838; stroke-width: 1.0;"/><line style="stroke: #383838; stroke-width: 1.0;" x1="772" x2="1008.5" y1="1008.3594" y2="1008.3594"/><text fill="#000000" font-family="sans-serif" font-size="13" lengthAdjust="spacingAndGlyphs" textLength="65" x="784" y="1003.8545">未集荷削除</text><polygon fill="#383838" points="913,1018.7109,923,1022.7109,913,1026.7109,917,1022.7109" style="stroke: #383838; stroke-width: 1.0;"/><line style="stroke: #383838; stroke-width: 1.0;" x1="762" x2="919" y1="1022.7109" y2="1022.7109"/></g></svg>