<?xml version="1.0" encoding="UTF-8" standalone="no"?><svg xmlns="http://www.w3.org/2000/svg" xmlns:xlink="http://www.w3.org/1999/xlink" contentScriptType="application/ecmascript" contentStyleType="text/css" height="1847px" preserveAspectRatio="none" style="width:1782px;height:1847px;" version="1.1" viewBox="0 0 1782 1847" width="1782px" zoomAndPan="magnify"><defs><filter height="300%" id="f7kx2gc" width="300%" x="-1" y="-1"><feGaussianBlur result="blurOut" stdDeviation="2.0"/><feColorMatrix in="blurOut" result="blurOut2" type="matrix" values="0 0 0 0 0 0 0 0 0 0 0 0 0 0 0 0 0 0 .4 0"/><feOffset dx="4.0" dy="4.0" in="blurOut2" result="blurOut3"/><feBlend in="SourceGraphic" in2="blurOut3" mode="normal"/></filter></defs><g><text fill="#000000" font-family="sans-serif" font-size="14" font-weight="bold" lengthAdjust="spacingAndGlyphs" textLength="199" x="790.5" y="24.5332">ネット販売 受注・発送の流れ</text><rect fill="#FFFFFF" filter="url(#f7kx2gc)" height="30.3516" style="stroke: #383838; stroke-width: 1.0;" width="10" x="74" y="155.5703"/><rect fill="#FFFFFF" filter="url(#f7kx2gc)" height="30.3516" style="stroke: #383838; stroke-width: 1.0;" width="10" x="129" y="216.2734"/><rect fill="#FFFFFF" filter="url(#f7kx2gc)" height="30.3516" style="stroke: #383838; stroke-width: 1.0;" width="10" x="179.5" y="276.9766"/><rect fill="#FFFFFF" filter="url(#f7kx2gc)" height="328.8672" style="stroke: #383838; stroke-width: 1.0;" width="10" x="273.5" y="1332.5781"/><rect fill="#FFFFFF" filter="url(#f7kx2gc)" height="273.1641" style="stroke: #383838; stroke-width: 1.0;" width="10" x="408" y="440.7344"/><rect fill="#FFFFFF" filter="url(#f7kx2gc)" height="30.3516" style="stroke: #383838; stroke-width: 1.0;" width="10" x="669" y="744.25"/><rect fill="#FFFFFF" filter="url(#f7kx2gc)" height="91.0547" style="stroke: #383838; stroke-width: 1.0;" width="10" x="1177" y="970.7109"/><rect fill="#FFFFFF" filter="url(#f7kx2gc)" height="91.0547" style="stroke: #383838; stroke-width: 1.0;" width="10" x="1254" y="940.3594"/><rect fill="#FFFFFF" filter="url(#f7kx2gc)" height="151.7578" style="stroke: #383838; stroke-width: 1.0;" width="10" x="1331" y="1061.7656"/><rect fill="#FFFFFF" filter="url(#f7kx2gc)" height="151.7578" style="stroke: #383838; stroke-width: 1.0;" width="10" x="1523" y="1393.2813"/><rect fill="#FFFFFF" filter="url(#f7kx2gc)" height="200.4609" style="stroke: #000000; stroke-width: 2.0;" width="299" x="41" y="115.2188"/><rect fill="#FFFFFF" filter="url(#f7kx2gc)" height="109.4063" style="stroke: #000000; stroke-width: 2.0;" width="299" x="41" y="1560.3906"/><line style="stroke: #383838; stroke-width: 1.0; stroke-dasharray: 5.0,5.0;" x1="79" x2="79" y1="98.2188" y2="1777.8516"/><line style="stroke: #383838; stroke-width: 1.0; stroke-dasharray: 5.0,5.0;" x1="134" x2="134" y1="98.2188" y2="1777.8516"/><line style="stroke: #383838; stroke-width: 1.0; stroke-dasharray: 5.0,5.0;" x1="184" x2="184" y1="98.2188" y2="1777.8516"/><line style="stroke: #383838; stroke-width: 1.0; stroke-dasharray: 5.0,5.0;" x1="278" x2="278" y1="98.2188" y2="1777.8516"/><line style="stroke: #383838; stroke-width: 1.0; stroke-dasharray: 5.0,5.0;" x1="413" x2="413" y1="98.2188" y2="1777.8516"/><line style="stroke: #383838; stroke-width: 1.0; stroke-dasharray: 5.0,5.0;" x1="546" x2="546" y1="98.2188" y2="1777.8516"/><line style="stroke: #383838; stroke-width: 1.0; stroke-dasharray: 5.0,5.0;" x1="674" x2="674" y1="98.2188" y2="1777.8516"/><line style="stroke: #383838; stroke-width: 1.0; stroke-dasharray: 5.0,5.0;" x1="794" x2="794" y1="98.2188" y2="1777.8516"/><line style="stroke: #383838; stroke-width: 1.0; stroke-dasharray: 5.0,5.0;" x1="863" x2="863" y1="98.2188" y2="1777.8516"/><line style="stroke: #383838; stroke-width: 1.0; stroke-dasharray: 5.0,5.0;" x1="963" x2="963" y1="98.2188" y2="1777.8516"/><line style="stroke: #383838; stroke-width: 1.0; stroke-dasharray: 5.0,5.0;" x1="1056" x2="1056" y1="98.2188" y2="1777.8516"/><line style="stroke: #383838; stroke-width: 1.0; stroke-dasharray: 5.0,5.0;" x1="1118" x2="1118" y1="98.2188" y2="1777.8516"/><line style="stroke: #383838; stroke-width: 1.0; stroke-dasharray: 5.0,5.0;" x1="1182" x2="1182" y1="98.2188" y2="1777.8516"/><line style="stroke: #383838; stroke-width: 1.0; stroke-dasharray: 5.0,5.0;" x1="1259" x2="1259" y1="98.2188" y2="1777.8516"/><line style="stroke: #383838; stroke-width: 1.0; stroke-dasharray: 5.0,5.0;" x1="1336" x2="1336" y1="98.2188" y2="1777.8516"/><line style="stroke: #383838; stroke-width: 1.0; stroke-dasharray: 5.0,5.0;" x1="1437" x2="1437" y1="98.2188" y2="1777.8516"/><line style="stroke: #383838; stroke-width: 1.0; stroke-dasharray: 5.0,5.0;" x1="1528" x2="1528" y1="98.2188" y2="1777.8516"/><line style="stroke: #383838; stroke-width: 1.0; stroke-dasharray: 5.0,5.0;" x1="1641" x2="1641" y1="98.2188" y2="1777.8516"/><line style="stroke: #383838; stroke-width: 1.0; stroke-dasharray: 5.0,5.0;" x1="1734" x2="1734" y1="98.2188" y2="1777.8516"/><text fill="#000000" font-family="sans-serif" font-size="14" lengthAdjust="spacingAndGlyphs" textLength="50" x="51" y="95.1426">Amazon</text><ellipse cx="79" cy="64.6094" fill="#F8F8F8" filter="url(#f7kx2gc)" rx="12" ry="12" style="stroke: #383838; stroke-width: 2.0;"/><line style="stroke: #383838; stroke-width: 2.0;" x1="67" x2="91" y1="78.6094" y2="78.6094"/><text fill="#000000" font-family="sans-serif" font-size="14" lengthAdjust="spacingAndGlyphs" textLength="50" x="51" y="1791.3848">Amazon</text><ellipse cx="79" cy="1810.4609" fill="#F8F8F8" filter="url(#f7kx2gc)" rx="12" ry="12" style="stroke: #383838; stroke-width: 2.0;"/><line style="stroke: #383838; stroke-width: 2.0;" x1="67" x2="91" y1="1824.4609" y2="1824.4609"/><text fill="#000000" font-family="sans-serif" font-size="14" lengthAdjust="spacingAndGlyphs" textLength="28" x="117" y="95.1426">楽天</text><ellipse cx="134" cy="64.6094" fill="#F8F8F8" filter="url(#f7kx2gc)" rx="12" ry="12" style="stroke: #383838; stroke-width: 2.0;"/><line style="stroke: #383838; stroke-width: 2.0;" x1="122" x2="146" y1="78.6094" y2="78.6094"/><text fill="#000000" font-family="sans-serif" font-size="14" lengthAdjust="spacingAndGlyphs" textLength="28" x="117" y="1791.3848">楽天</text><ellipse cx="134" cy="1810.4609" fill="#F8F8F8" filter="url(#f7kx2gc)" rx="12" ry="12" style="stroke: #383838; stroke-width: 2.0;"/><line style="stroke: #383838; stroke-width: 2.0;" x1="122" x2="146" y1="1824.4609" y2="1824.4609"/><text fill="#000000" font-family="sans-serif" font-size="14" lengthAdjust="spacingAndGlyphs" textLength="41" x="161" y="95.1426">Yahoo</text><ellipse cx="184.5" cy="64.6094" fill="#F8F8F8" filter="url(#f7kx2gc)" rx="12" ry="12" style="stroke: #383838; stroke-width: 2.0;"/><line style="stroke: #383838; stroke-width: 2.0;" x1="172.5" x2="196.5" y1="78.6094" y2="78.6094"/><text fill="#000000" font-family="sans-serif" font-size="14" lengthAdjust="spacingAndGlyphs" textLength="41" x="161" y="1791.3848">Yahoo</text><ellipse cx="184.5" cy="1810.4609" fill="#F8F8F8" filter="url(#f7kx2gc)" rx="12" ry="12" style="stroke: #383838; stroke-width: 2.0;"/><line style="stroke: #383838; stroke-width: 2.0;" x1="172.5" x2="196.5" y1="1824.4609" y2="1824.4609"/><rect fill="#F8F8F8" filter="url(#f7kx2gc)" height="31.6094" style="stroke: #383838; stroke-width: 1.5;" width="99" x="227" y="61.6094"/><text fill="#000000" font-family="sans-serif" font-size="14" lengthAdjust="spacingAndGlyphs" textLength="85" x="234" y="83.1426">CROSSMALL</text><rect fill="#F8F8F8" filter="url(#f7kx2gc)" height="31.6094" style="stroke: #383838; stroke-width: 1.5;" width="99" x="227" y="1776.8516"/><text fill="#000000" font-family="sans-serif" font-size="14" lengthAdjust="spacingAndGlyphs" textLength="85" x="234" y="1798.3848">CROSSMALL</text><text fill="#000000" font-family="sans-serif" font-size="14" lengthAdjust="spacingAndGlyphs" textLength="140" x="340" y="95.1426">ピッキングシート生成</text><path d="M392.5,52.6094 L392.5,76.6094 M392.5,64.6094 L409.5,64.6094 " fill="#F8F8F8" filter="url(#f7kx2gc)" style="stroke: #383838; stroke-width: 2.0;"/><ellipse cx="421.5" cy="64.6094" fill="#F8F8F8" filter="url(#f7kx2gc)" rx="12" ry="12" style="stroke: #383838; stroke-width: 2.0;"/><text fill="#000000" font-family="sans-serif" font-size="14" lengthAdjust="spacingAndGlyphs" textLength="140" x="340" y="1791.3848">ピッキングシート生成</text><path d="M392.5,1798.4609 L392.5,1822.4609 M392.5,1810.4609 L409.5,1810.4609 " fill="#F8F8F8" filter="url(#f7kx2gc)" style="stroke: #383838; stroke-width: 2.0;"/><ellipse cx="421.5" cy="1810.4609" fill="#F8F8F8" filter="url(#f7kx2gc)" rx="12" ry="12" style="stroke: #383838; stroke-width: 2.0;"/><text fill="#000000" font-family="sans-serif" font-size="14" lengthAdjust="spacingAndGlyphs" textLength="70" x="508" y="95.1426">商品マスタ</text><path d="M528,44.6094 C528,34.6094 546,34.6094 546,34.6094 C546,34.6094 564,34.6094 564,44.6094 L564,70.6094 C564,80.6094 546,80.6094 546,80.6094 C546,80.6094 528,80.6094 528,70.6094 L528,44.6094 " fill="#F8F8F8" filter="url(#f7kx2gc)" style="stroke: #000000; stroke-width: 1.5;"/><path d="M528,44.6094 C528,54.6094 546,54.6094 546,54.6094 C546,54.6094 564,54.6094 564,44.6094 " fill="none" style="stroke: #000000; stroke-width: 1.5;"/><text fill="#000000" font-family="sans-serif" font-size="14" lengthAdjust="spacingAndGlyphs" textLength="70" x="508" y="1791.3848">商品マスタ</text><path d="M528,1804.4609 C528,1794.4609 546,1794.4609 546,1794.4609 C546,1794.4609 564,1794.4609 564,1804.4609 L564,1830.4609 C564,1840.4609 546,1840.4609 546,1840.4609 C546,1840.4609 528,1840.4609 528,1830.4609 L528,1804.4609 " fill="#F8F8F8" filter="url(#f7kx2gc)" style="stroke: #000000; stroke-width: 1.5;"/><path d="M528,1804.4609 C528,1814.4609 546,1814.4609 546,1814.4609 C546,1814.4609 564,1814.4609 564,1804.4609 " fill="none" style="stroke: #000000; stroke-width: 1.5;"/><text fill="#000000" font-family="sans-serif" font-size="14" lengthAdjust="spacingAndGlyphs" textLength="154" x="594" y="95.1426">受注チェックリスト生成</text><path d="M653.5,52.6094 L653.5,76.6094 M653.5,64.6094 L670.5,64.6094 " fill="#F8F8F8" filter="url(#f7kx2gc)" style="stroke: #383838; stroke-width: 2.0;"/><ellipse cx="682.5" cy="64.6094" fill="#F8F8F8" filter="url(#f7kx2gc)" rx="12" ry="12" style="stroke: #383838; stroke-width: 2.0;"/><text fill="#000000" font-family="sans-serif" font-size="14" lengthAdjust="spacingAndGlyphs" textLength="154" x="594" y="1791.3848">受注チェックリスト生成</text><path d="M653.5,1798.4609 L653.5,1822.4609 M653.5,1810.4609 L670.5,1810.4609 " fill="#F8F8F8" filter="url(#f7kx2gc)" style="stroke: #383838; stroke-width: 2.0;"/><ellipse cx="682.5" cy="1810.4609" fill="#F8F8F8" filter="url(#f7kx2gc)" rx="12" ry="12" style="stroke: #383838; stroke-width: 2.0;"/><rect fill="#F8F8F8" filter="url(#f7kx2gc)" height="31.6094" style="stroke: #383838; stroke-width: 1.5;" width="56" x="764" y="61.6094"/><text fill="#000000" font-family="sans-serif" font-size="14" lengthAdjust="spacingAndGlyphs" textLength="42" x="771" y="83.1426">電算室</text><rect fill="#F8F8F8" filter="url(#f7kx2gc)" height="31.6094" style="stroke: #383838; stroke-width: 1.5;" width="56" x="764" y="1776.8516"/><text fill="#000000" font-family="sans-serif" font-size="14" lengthAdjust="spacingAndGlyphs" textLength="42" x="771" y="1798.3848">電算室</text><rect fill="#F8F8F8" filter="url(#f7kx2gc)" height="31.6094" style="stroke: #383838; stroke-width: 1.5;" width="54" x="834" y="61.6094"/><text fill="#000000" font-family="sans-serif" font-size="14" lengthAdjust="spacingAndGlyphs" textLength="40" x="841" y="83.1426">SLIMS</text><rect fill="#F8F8F8" filter="url(#f7kx2gc)" height="31.6094" style="stroke: #383838; stroke-width: 1.5;" width="54" x="834" y="1776.8516"/><text fill="#000000" font-family="sans-serif" font-size="14" lengthAdjust="spacingAndGlyphs" textLength="40" x="841" y="1798.3848">SLIMS</text><text fill="#000000" font-family="sans-serif" font-size="14" lengthAdjust="spacingAndGlyphs" textLength="117" x="902" y="95.1426">出荷チェック用DB</text><path d="M945.5,44.6094 C945.5,34.6094 963.5,34.6094 963.5,34.6094 C963.5,34.6094 981.5,34.6094 981.5,44.6094 L981.5,70.6094 C981.5,80.6094 963.5,80.6094 963.5,80.6094 C963.5,80.6094 945.5,80.6094 945.5,70.6094 L945.5,44.6094 " fill="#F8F8F8" filter="url(#f7kx2gc)" style="stroke: #000000; stroke-width: 1.5;"/><path d="M945.5,44.6094 C945.5,54.6094 963.5,54.6094 963.5,54.6094 C963.5,54.6094 981.5,54.6094 981.5,44.6094 " fill="none" style="stroke: #000000; stroke-width: 1.5;"/><text fill="#000000" font-family="sans-serif" font-size="14" lengthAdjust="spacingAndGlyphs" textLength="117" x="902" y="1791.3848">出荷チェック用DB</text><path d="M945.5,1804.4609 C945.5,1794.4609 963.5,1794.4609 963.5,1794.4609 C963.5,1794.4609 981.5,1794.4609 981.5,1804.4609 L981.5,1830.4609 C981.5,1840.4609 963.5,1840.4609 963.5,1840.4609 C963.5,1840.4609 945.5,1840.4609 945.5,1830.4609 L945.5,1804.4609 " fill="#F8F8F8" filter="url(#f7kx2gc)" style="stroke: #000000; stroke-width: 1.5;"/><path d="M945.5,1804.4609 C945.5,1814.4609 963.5,1814.4609 963.5,1814.4609 C963.5,1814.4609 981.5,1814.4609 981.5,1804.4609 " fill="none" style="stroke: #000000; stroke-width: 1.5;"/><text fill="#000000" font-family="sans-serif" font-size="14" lengthAdjust="spacingAndGlyphs" textLength="36" x="1035" y="95.1426">e飛伝</text><ellipse cx="1056" cy="64.6094" fill="#F8F8F8" filter="url(#f7kx2gc)" rx="12" ry="12" style="stroke: #383838; stroke-width: 2.0;"/><line style="stroke: #383838; stroke-width: 2.0;" x1="1044" x2="1068" y1="78.6094" y2="78.6094"/><text fill="#000000" font-family="sans-serif" font-size="14" lengthAdjust="spacingAndGlyphs" textLength="36" x="1035" y="1791.3848">e飛伝</text><ellipse cx="1056" cy="1810.4609" fill="#F8F8F8" filter="url(#f7kx2gc)" rx="12" ry="12" style="stroke: #383838; stroke-width: 2.0;"/><line style="stroke: #383838; stroke-width: 2.0;" x1="1044" x2="1068" y1="1824.4609" y2="1824.4609"/><text fill="#000000" font-family="sans-serif" font-size="14" lengthAdjust="spacingAndGlyphs" textLength="56" x="1087" y="95.1426">ネコポス</text><ellipse cx="1118" cy="64.6094" fill="#F8F8F8" filter="url(#f7kx2gc)" rx="12" ry="12" style="stroke: #383838; stroke-width: 2.0;"/><line style="stroke: #383838; stroke-width: 2.0;" x1="1106" x2="1130" y1="78.6094" y2="78.6094"/><text fill="#000000" font-family="sans-serif" font-size="14" lengthAdjust="spacingAndGlyphs" textLength="56" x="1087" y="1791.3848">ネコポス</text><ellipse cx="1118" cy="1810.4609" fill="#F8F8F8" filter="url(#f7kx2gc)" rx="12" ry="12" style="stroke: #383838; stroke-width: 2.0;"/><line style="stroke: #383838; stroke-width: 2.0;" x1="1106" x2="1130" y1="1824.4609" y2="1824.4609"/><rect fill="#F8F8F8" filter="url(#f7kx2gc)" height="31.6094" style="stroke: #383838; stroke-width: 1.5;" width="42" x="1159" y="61.6094"/><text fill="#000000" font-family="sans-serif" font-size="14" lengthAdjust="spacingAndGlyphs" textLength="28" x="1166" y="83.1426">振分</text><rect fill="#F8F8F8" filter="url(#f7kx2gc)" height="31.6094" style="stroke: #383838; stroke-width: 1.5;" width="42" x="1159" y="1776.8516"/><text fill="#000000" font-family="sans-serif" font-size="14" lengthAdjust="spacingAndGlyphs" textLength="28" x="1166" y="1798.3848">振分</text><rect fill="#F8F8F8" filter="url(#f7kx2gc)" height="31.6094" style="stroke: #383838; stroke-width: 1.5;" width="84" x="1215" y="61.6094"/><text fill="#000000" font-family="sans-serif" font-size="14" lengthAdjust="spacingAndGlyphs" textLength="70" x="1222" y="83.1426">ピッキング</text><rect fill="#F8F8F8" filter="url(#f7kx2gc)" height="31.6094" style="stroke: #383838; stroke-width: 1.5;" width="84" x="1215" y="1776.8516"/><text fill="#000000" font-family="sans-serif" font-size="14" lengthAdjust="spacingAndGlyphs" textLength="70" x="1222" y="1798.3848">ピッキング</text><rect fill="#F8F8F8" filter="url(#f7kx2gc)" height="31.6094" style="stroke: #383838; stroke-width: 1.5;" width="42" x="1313" y="61.6094"/><text fill="#000000" font-family="sans-serif" font-size="14" lengthAdjust="spacingAndGlyphs" textLength="28" x="1320" y="83.1426">梱包</text><rect fill="#F8F8F8" filter="url(#f7kx2gc)" height="31.6094" style="stroke: #383838; stroke-width: 1.5;" width="42" x="1313" y="1776.8516"/><text fill="#000000" font-family="sans-serif" font-size="14" lengthAdjust="spacingAndGlyphs" textLength="28" x="1320" y="1798.3848">梱包</text><rect fill="#F8F8F8" filter="url(#f7kx2gc)" height="31.6094" style="stroke: #383838; stroke-width: 1.5;" width="42" x="1414" y="61.6094"/><text fill="#000000" font-family="sans-serif" font-size="14" lengthAdjust="spacingAndGlyphs" textLength="28" x="1421" y="83.1426">出荷</text><rect fill="#F8F8F8" filter="url(#f7kx2gc)" height="31.6094" style="stroke: #383838; stroke-width: 1.5;" width="42" x="1414" y="1776.8516"/><text fill="#000000" font-family="sans-serif" font-size="14" lengthAdjust="spacingAndGlyphs" textLength="28" x="1421" y="1798.3848">出荷</text><rect fill="#F8F8F8" filter="url(#f7kx2gc)" height="31.6094" style="stroke: #383838; stroke-width: 1.5;" width="112" x="1470" y="61.6094"/><text fill="#000000" font-family="sans-serif" font-size="14" lengthAdjust="spacingAndGlyphs" textLength="98" x="1477" y="83.1426">送り状番号確認</text><rect fill="#F8F8F8" filter="url(#f7kx2gc)" height="31.6094" style="stroke: #383838; stroke-width: 1.5;" width="112" x="1470" y="1776.8516"/><text fill="#000000" font-family="sans-serif" font-size="14" lengthAdjust="spacingAndGlyphs" textLength="98" x="1477" y="1798.3848">送り状番号確認</text><text fill="#000000" font-family="sans-serif" font-size="14" lengthAdjust="spacingAndGlyphs" textLength="84" x="1596" y="95.1426">ヤマトサーバ</text><ellipse cx="1641" cy="64.6094" fill="#F8F8F8" filter="url(#f7kx2gc)" rx="12" ry="12" style="stroke: #383838; stroke-width: 2.0;"/><line style="stroke: #383838; stroke-width: 2.0;" x1="1629" x2="1653" y1="78.6094" y2="78.6094"/><text fill="#000000" font-family="sans-serif" font-size="14" lengthAdjust="spacingAndGlyphs" textLength="84" x="1596" y="1791.3848">ヤマトサーバ</text><ellipse cx="1641" cy="1810.4609" fill="#F8F8F8" filter="url(#f7kx2gc)" rx="12" ry="12" style="stroke: #383838; stroke-width: 2.0;"/><line style="stroke: #383838; stroke-width: 2.0;" x1="1629" x2="1653" y1="1824.4609" y2="1824.4609"/><text fill="#000000" font-family="sans-serif" font-size="14" lengthAdjust="spacingAndGlyphs" textLength="70" x="1696" y="95.1426">佐川サーバ</text><ellipse cx="1734" cy="64.6094" fill="#F8F8F8" filter="url(#f7kx2gc)" rx="12" ry="12" style="stroke: #383838; stroke-width: 2.0;"/><line style="stroke: #383838; stroke-width: 2.0;" x1="1722" x2="1746" y1="78.6094" y2="78.6094"/><text fill="#000000" font-family="sans-serif" font-size="14" lengthAdjust="spacingAndGlyphs" textLength="70" x="1696" y="1791.3848">佐川サーバ</text><ellipse cx="1734" cy="1810.4609" fill="#F8F8F8" filter="url(#f7kx2gc)" rx="12" ry="12" style="stroke: #383838; stroke-width: 2.0;"/><line style="stroke: #383838; stroke-width: 2.0;" x1="1722" x2="1746" y1="1824.4609" y2="1824.4609"/><rect fill="#FFFFFF" filter="url(#f7kx2gc)" height="30.3516" style="stroke: #383838; stroke-width: 1.0;" width="10" x="74" y="155.5703"/><rect fill="#FFFFFF" filter="url(#f7kx2gc)" height="30.3516" style="stroke: #383838; stroke-width: 1.0;" width="10" x="129" y="216.2734"/><rect fill="#FFFFFF" filter="url(#f7kx2gc)" height="30.3516" style="stroke: #383838; stroke-width: 1.0;" width="10" x="179.5" y="276.9766"/><rect fill="#FFFFFF" filter="url(#f7kx2gc)" height="328.8672" style="stroke: #383838; stroke-width: 1.0;" width="10" x="273.5" y="1332.5781"/><rect fill="#FFFFFF" filter="url(#f7kx2gc)" height="273.1641" style="stroke: #383838; stroke-width: 1.0;" width="10" x="408" y="440.7344"/><rect fill="#FFFFFF" filter="url(#f7kx2gc)" height="30.3516" style="stroke: #383838; stroke-width: 1.0;" width="10" x="669" y="744.25"/><rect fill="#FFFFFF" filter="url(#f7kx2gc)" height="91.0547" style="stroke: #383838; stroke-width: 1.0;" width="10" x="1177" y="970.7109"/><rect fill="#FFFFFF" filter="url(#f7kx2gc)" height="91.0547" style="stroke: #383838; stroke-width: 1.0;" width="10" x="1254" y="940.3594"/><rect fill="#FFFFFF" filter="url(#f7kx2gc)" height="151.7578" style="stroke: #383838; stroke-width: 1.0;" width="10" x="1331" y="1061.7656"/><rect fill="#FFFFFF" filter="url(#f7kx2gc)" height="151.7578" style="stroke: #383838; stroke-width: 1.0;" width="10" x="1523" y="1393.2813"/><rect fill="none" height="200.4609" style="stroke: #000000; stroke-width: 2.0;" width="299" x="41" y="115.2188"/><polygon fill="#EEEEEE" points="41,115.2188,114,115.2188,114,123.2188,104,133.2188,41,133.2188,41,115.2188" style="stroke: #000000; stroke-width: 2.0;"/><text fill="#000000" font-family="sans-serif" font-size="13" font-weight="bold" lengthAdjust="spacingAndGlyphs" textLength="28" x="56" y="129.7139">loop</text><text fill="#000000" font-family="sans-serif" font-size="11" font-weight="bold" lengthAdjust="spacingAndGlyphs" textLength="56" x="129" y="128.6377">[常時取得]</text><polygon fill="#383838" points="95,151.5703,85,155.5703,95,159.5703,91,155.5703" style="stroke: #383838; stroke-width: 1.0;"/><line style="stroke: #383838; stroke-width: 1.0;" x1="89" x2="277.5" y1="155.5703" y2="155.5703"/><text fill="#000000" font-family="sans-serif" font-size="13" lengthAdjust="spacingAndGlyphs" textLength="21" x="101" y="151.0654">API</text><polygon fill="#383838" points="266.5,181.9219,276.5,185.9219,266.5,189.9219,270.5,185.9219" style="stroke: #383838; stroke-width: 1.0;"/><line style="stroke: #383838; stroke-width: 1.0; stroke-dasharray: 2.0,2.0;" x1="79" x2="272.5" y1="185.9219" y2="185.9219"/><text fill="#000000" font-family="sans-serif" font-size="13" lengthAdjust="spacingAndGlyphs" textLength="65" x="86" y="181.417">受注データ</text><polygon fill="#383838" points="150,212.2734,140,216.2734,150,220.2734,146,216.2734" style="stroke: #383838; stroke-width: 1.0;"/><line style="stroke: #383838; stroke-width: 1.0;" x1="144" x2="277.5" y1="216.2734" y2="216.2734"/><text fill="#000000" font-family="sans-serif" font-size="13" lengthAdjust="spacingAndGlyphs" textLength="21" x="156" y="211.7686">API</text><polygon fill="#383838" points="266.5,242.625,276.5,246.625,266.5,250.625,270.5,246.625" style="stroke: #383838; stroke-width: 1.0;"/><line style="stroke: #383838; stroke-width: 1.0; stroke-dasharray: 2.0,2.0;" x1="134" x2="272.5" y1="246.625" y2="246.625"/><text fill="#000000" font-family="sans-serif" font-size="13" lengthAdjust="spacingAndGlyphs" textLength="65" x="141" y="242.1201">受注データ</text><polygon fill="#383838" points="200.5,272.9766,190.5,276.9766,200.5,280.9766,196.5,276.9766" style="stroke: #383838; stroke-width: 1.0;"/><line style="stroke: #383838; stroke-width: 1.0;" x1="194.5" x2="277.5" y1="276.9766" y2="276.9766"/><text fill="#000000" font-family="sans-serif" font-size="13" lengthAdjust="spacingAndGlyphs" textLength="21" x="206.5" y="272.4717">API</text><polygon fill="#383838" points="266.5,303.3281,276.5,307.3281,266.5,311.3281,270.5,307.3281" style="stroke: #383838; stroke-width: 1.0;"/><line style="stroke: #383838; stroke-width: 1.0; stroke-dasharray: 2.0,2.0;" x1="184.5" x2="272.5" y1="307.3281" y2="307.3281"/><text fill="#000000" font-family="sans-serif" font-size="13" lengthAdjust="spacingAndGlyphs" textLength="65" x="191.5" y="302.8232">受注データ</text><rect fill="#EEEEEE" filter="url(#f7kx2gc)" height="3" style="stroke: #EEEEEE; stroke-width: 1.0;" width="1774" x="3" y="343.8555"/><line style="stroke: #000000; stroke-width: 1.0;" x1="3" x2="1777" y1="343.8555" y2="343.8555"/><line style="stroke: #000000; stroke-width: 1.0;" x1="3" x2="1777" y1="346.8555" y2="346.8555"/><rect fill="#EEEEEE" filter="url(#f7kx2gc)" height="24.3516" style="stroke: #000000; stroke-width: 2.0;" width="121" x="829.5" y="332.6797"/><text fill="#000000" font-family="sans-serif" font-size="13" font-weight="bold" lengthAdjust="spacingAndGlyphs" textLength="103" x="835.5" y="350.1748">8:00 ～ 受注取込</text><polygon fill="#383838" points="662,385.0313,672,389.0313,662,393.0313,666,389.0313" style="stroke: #383838; stroke-width: 1.0;"/><line style="stroke: #383838; stroke-width: 1.0;" x1="278.5" x2="668" y1="389.0313" y2="389.0313"/><text fill="#000000" font-family="sans-serif" font-size="13" lengthAdjust="spacingAndGlyphs" textLength="79" x="285.5" y="384.5264">CSVファイル</text><polygon fill="#383838" points="396,436.7344,406,440.7344,396,444.7344,400,440.7344" style="stroke: #383838; stroke-width: 1.0;"/><line style="stroke: #383838; stroke-width: 1.0;" x1="278.5" x2="402" y1="440.7344" y2="440.7344"/><text fill="#000000" font-family="sans-serif" font-size="13" lengthAdjust="spacingAndGlyphs" textLength="79" x="285.5" y="436.2295">CSVファイル</text><polygon fill="#ECECEC" filter="url(#f7kx2gc)" points="145,402.3828,145,461.3828,269,461.3828,269,412.3828,259,402.3828,145,402.3828" style="stroke: #383838; stroke-width: 1.0;"/><line style="stroke: #383838; stroke-width: 1.0;" x1="259" x2="259" y1="402.3828" y2="412.3828"/><line style="stroke: #383838; stroke-width: 1.0;" x1="269" x2="259" y1="412.3828" y2="412.3828"/><text fill="#000000" font-family="sans-serif" font-size="13" lengthAdjust="spacingAndGlyphs" textLength="66" x="151" y="420.8779">単一CSVで</text><text fill="#000000" font-family="sans-serif" font-size="13" lengthAdjust="spacingAndGlyphs" textLength="65" x="159" y="437.2295">ピッキング</text><text fill="#000000" font-family="sans-serif" font-size="13" lengthAdjust="spacingAndGlyphs" textLength="95" x="159" y="453.5811">チェック用 生成</text><line style="stroke: #383838; stroke-width: 1.0;" x1="418" x2="460" y1="492.7891" y2="492.7891"/><line style="stroke: #383838; stroke-width: 1.0;" x1="460" x2="460" y1="492.7891" y2="505.7891"/><line style="stroke: #383838; stroke-width: 1.0;" x1="419" x2="460" y1="505.7891" y2="505.7891"/><polygon fill="#383838" points="429,501.7891,419,505.7891,429,509.7891,425,505.7891" style="stroke: #383838; stroke-width: 1.0;"/><text fill="#000000" font-family="sans-serif" font-size="13" lengthAdjust="spacingAndGlyphs" textLength="65" x="425" y="487.9326">セット分解</text><polygon fill="#383838" points="534,531.7891,544,535.7891,534,539.7891,538,535.7891" style="stroke: #383838; stroke-width: 1.0;"/><line style="stroke: #383838; stroke-width: 1.0;" x1="418" x2="540" y1="535.7891" y2="535.7891"/><text fill="#000000" font-family="sans-serif" font-size="13" lengthAdjust="spacingAndGlyphs" textLength="104" x="425" y="531.2842">ロケーション取得</text><polygon fill="#383838" points="782,562.1406,792,566.1406,782,570.1406,786,566.1406" style="stroke: #383838; stroke-width: 1.0;"/><line style="stroke: #383838; stroke-width: 1.0;" x1="418" x2="788" y1="566.1406" y2="566.1406"/><text fill="#000000" font-family="sans-serif" font-size="13" lengthAdjust="spacingAndGlyphs" textLength="113" x="425" y="561.6357">Amazonピッキング</text><polygon fill="#383838" points="782,592.4922,792,596.4922,782,600.4922,786,596.4922" style="stroke: #383838; stroke-width: 1.0;"/><line style="stroke: #383838; stroke-width: 1.0;" x1="418" x2="788" y1="596.4922" y2="596.4922"/><text fill="#000000" font-family="sans-serif" font-size="13" lengthAdjust="spacingAndGlyphs" textLength="91" x="425" y="591.9873">楽天ピッキング</text><polygon fill="#383838" points="782,622.8438,792,626.8438,782,630.8438,786,626.8438" style="stroke: #383838; stroke-width: 1.0;"/><line style="stroke: #383838; stroke-width: 1.0;" x1="418" x2="788" y1="626.8438" y2="626.8438"/><text fill="#000000" font-family="sans-serif" font-size="13" lengthAdjust="spacingAndGlyphs" textLength="102" x="425" y="622.3389">Yahooピッキング</text><polygon fill="#ECECEC" filter="url(#f7kx2gc)" points="53,640.1953,53,682.1953,156,682.1953,156,650.1953,146,640.1953,53,640.1953" style="stroke: #383838; stroke-width: 1.0;"/><line style="stroke: #383838; stroke-width: 1.0;" x1="146" x2="146" y1="640.1953" y2="650.1953"/><line style="stroke: #383838; stroke-width: 1.0;" x1="156" x2="146" y1="650.1953" y2="650.1953"/><text fill="#000000" font-family="sans-serif" font-size="13" lengthAdjust="spacingAndGlyphs" textLength="65" x="59" y="658.6904">手配書作成</text><text fill="#000000" font-family="sans-serif" font-size="13" lengthAdjust="spacingAndGlyphs" textLength="82" x="59" y="675.042">B2B CSV作成</text><polygon fill="#383838" points="14,709.8984,4,713.8984,14,717.8984,10,713.8984" style="stroke: #383838; stroke-width: 1.0;"/><line style="stroke: #383838; stroke-width: 1.0;" x1="8" x2="412" y1="713.8984" y2="713.8984"/><text fill="#000000" font-family="sans-serif" font-size="13" lengthAdjust="spacingAndGlyphs" textLength="160" x="20" y="709.3936">発注 -aピッキングシート×3</text><polygon fill="#383838" points="851,740.25,861,744.25,851,748.25,855,744.25" style="stroke: #383838; stroke-width: 1.0;"/><line style="stroke: #383838; stroke-width: 1.0;" x1="794" x2="857" y1="744.25" y2="744.25"/><text fill="#000000" font-family="sans-serif" font-size="13" lengthAdjust="spacingAndGlyphs" textLength="44" x="801" y="739.7451">DB投入</text><polygon fill="#383838" points="951.5,770.6016,961.5,774.6016,951.5,778.6016,955.5,774.6016" style="stroke: #383838; stroke-width: 1.0;"/><line style="stroke: #383838; stroke-width: 1.0;" x1="674" x2="957.5" y1="774.6016" y2="774.6016"/><text fill="#000000" font-family="sans-serif" font-size="13" lengthAdjust="spacingAndGlyphs" textLength="44" x="681" y="770.0967">DB投入</text><polygon fill="#383838" points="1044,800.9531,1054,804.9531,1044,808.9531,1048,804.9531" style="stroke: #383838; stroke-width: 1.0;"/><line style="stroke: #383838; stroke-width: 1.0;" x1="278.5" x2="1050" y1="804.9531" y2="804.9531"/><text fill="#000000" font-family="sans-serif" font-size="13" lengthAdjust="spacingAndGlyphs" textLength="67" x="285.5" y="800.4482">CSV_e飛伝</text><polygon fill="#383838" points="1106,831.3047,1116,835.3047,1106,839.3047,1110,835.3047" style="stroke: #383838; stroke-width: 1.0;"/><line style="stroke: #383838; stroke-width: 1.0;" x1="278.5" x2="1112" y1="835.3047" y2="835.3047"/><text fill="#000000" font-family="sans-serif" font-size="13" lengthAdjust="spacingAndGlyphs" textLength="89" x="285.5" y="830.7998">CSV_ヤマトB2</text><rect fill="#EEEEEE" filter="url(#f7kx2gc)" height="3" style="stroke: #EEEEEE; stroke-width: 1.0;" width="1774" x="3" y="864.832"/><line style="stroke: #000000; stroke-width: 1.0;" x1="3" x2="1777" y1="864.832" y2="864.832"/><line style="stroke: #000000; stroke-width: 1.0;" x1="3" x2="1777" y1="867.832" y2="867.832"/><rect fill="#EEEEEE" filter="url(#f7kx2gc)" height="24.3516" style="stroke: #000000; stroke-width: 2.0;" width="131" x="824.5" y="853.6563"/><text fill="#000000" font-family="sans-serif" font-size="13" font-weight="bold" lengthAdjust="spacingAndGlyphs" textLength="113" x="830.5" y="871.1514">9:30～ 振分・梱包</text><polygon fill="#383838" points="1170,906.0078,1180,910.0078,1170,914.0078,1174,910.0078" style="stroke: #383838; stroke-width: 1.0;"/><line style="stroke: #383838; stroke-width: 1.0;" x1="413" x2="1176" y1="910.0078" y2="910.0078"/><text fill="#000000" font-family="sans-serif" font-size="13" lengthAdjust="spacingAndGlyphs" textLength="117" x="420" y="905.5029">振分け用商品リスト</text><polygon fill="#383838" points="874,936.3594,864,940.3594,874,944.3594,870,940.3594" style="stroke: #383838; stroke-width: 1.0;"/><line style="stroke: #383838; stroke-width: 1.0; stroke-dasharray: 2.0,2.0;" x1="868" x2="1253" y1="940.3594" y2="940.3594"/><text fill="#000000" font-family="sans-serif" font-size="13" lengthAdjust="spacingAndGlyphs" textLength="52" x="880" y="935.8545">ハンディ</text><polygon fill="#383838" points="1165,966.7109,1175,970.7109,1165,974.7109,1169,970.7109" style="stroke: #383838; stroke-width: 1.0;"/><line style="stroke: #383838; stroke-width: 1.0;" x1="278.5" x2="1171" y1="970.7109" y2="970.7109"/><text fill="#000000" font-family="sans-serif" font-size="13" lengthAdjust="spacingAndGlyphs" textLength="39" x="285.5" y="966.2061">納品書</text><polygon fill="#383838" points="1165,997.0625,1175,1001.0625,1165,1005.0625,1169,1001.0625" style="stroke: #383838; stroke-width: 1.0;"/><line style="stroke: #383838; stroke-width: 1.0;" x1="1056" x2="1171" y1="1001.0625" y2="1001.0625"/><text fill="#000000" font-family="sans-serif" font-size="13" lengthAdjust="spacingAndGlyphs" textLength="65" x="1063" y="996.5576">佐川送り状</text><polygon fill="#383838" points="1198,1027.4141,1188,1031.4141,1198,1035.4141,1194,1031.4141" style="stroke: #383838; stroke-width: 1.0;"/><line style="stroke: #383838; stroke-width: 1.0;" x1="1192" x2="1258" y1="1031.4141" y2="1031.4141"/><text fill="#000000" font-family="sans-serif" font-size="13" lengthAdjust="spacingAndGlyphs" textLength="26" x="1204" y="1026.9092">商品</text><polygon fill="#383838" points="1319,1057.7656,1329,1061.7656,1319,1065.7656,1323,1061.7656" style="stroke: #383838; stroke-width: 1.0;"/><line style="stroke: #383838; stroke-width: 1.0;" x1="1182" x2="1325" y1="1061.7656" y2="1061.7656"/><text fill="#000000" font-family="sans-serif" font-size="13" lengthAdjust="spacingAndGlyphs" textLength="78" x="1189" y="1057.2607">商品・納品書</text><polygon fill="#383838" points="1319,1088.1172,1329,1092.1172,1319,1096.1172,1323,1092.1172" style="stroke: #383838; stroke-width: 1.0;"/><line style="stroke: #383838; stroke-width: 1.0;" x1="1118" x2="1325" y1="1092.1172" y2="1092.1172"/><text fill="#000000" font-family="sans-serif" font-size="13" lengthAdjust="spacingAndGlyphs" textLength="91" x="1125" y="1087.6123">ネコポス送り状</text><polygon fill="#383838" points="974.5,1118.4688,964.5,1122.4688,974.5,1126.4688,970.5,1122.4688" style="stroke: #383838; stroke-width: 1.0;"/><line style="stroke: #383838; stroke-width: 1.0; stroke-dasharray: 2.0,2.0;" x1="968.5" x2="1330" y1="1122.4688" y2="1122.4688"/><text fill="#000000" font-family="sans-serif" font-size="13" lengthAdjust="spacingAndGlyphs" textLength="104" x="980.5" y="1117.9639">出荷商品チェック</text><polygon fill="#383838" points="1425,1148.8203,1435,1152.8203,1425,1156.8203,1429,1152.8203" style="stroke: #383838; stroke-width: 1.0;"/><line style="stroke: #383838; stroke-width: 1.0;" x1="1341" x2="1431" y1="1152.8203" y2="1152.8203"/><text fill="#000000" font-family="sans-serif" font-size="13" lengthAdjust="spacingAndGlyphs" textLength="72" x="1348" y="1148.3154">梱包済_商品</text><polygon fill="#383838" points="1067,1179.1719,1057,1183.1719,1067,1187.1719,1063,1183.1719" style="stroke: #383838; stroke-width: 1.0;"/><line style="stroke: #383838; stroke-width: 1.0;" x1="1061" x2="1330" y1="1183.1719" y2="1183.1719"/><text fill="#000000" font-family="sans-serif" font-size="13" lengthAdjust="spacingAndGlyphs" textLength="124" x="1073" y="1178.667">欠品_送り状番号削除</text><polygon fill="#383838" points="1129,1209.5234,1119,1213.5234,1129,1217.5234,1125,1213.5234" style="stroke: #383838; stroke-width: 1.0;"/><line style="stroke: #383838; stroke-width: 1.0;" x1="1123" x2="1335" y1="1213.5234" y2="1213.5234"/><text fill="#000000" font-family="sans-serif" font-size="13" lengthAdjust="spacingAndGlyphs" textLength="124" x="1135" y="1209.0186">欠品_送り状番号削除</text><rect fill="#EEEEEE" filter="url(#f7kx2gc)" height="3" style="stroke: #EEEEEE; stroke-width: 1.0;" width="1774" x="3" y="1243.0508"/><line style="stroke: #000000; stroke-width: 1.0;" x1="3" x2="1777" y1="1243.0508" y2="1243.0508"/><line style="stroke: #000000; stroke-width: 1.0;" x1="3" x2="1777" y1="1246.0508" y2="1246.0508"/><rect fill="#EEEEEE" filter="url(#f7kx2gc)" height="24.3516" style="stroke: #000000; stroke-width: 2.0;" width="226" x="777" y="1231.875"/><text fill="#000000" font-family="sans-serif" font-size="13" font-weight="bold" lengthAdjust="spacingAndGlyphs" textLength="208" x="783" y="1249.3701">13:30～ 当日出荷分 受注発送処理</text><rect fill="#EEEEEE" filter="url(#f7kx2gc)" height="3" style="stroke: #EEEEEE; stroke-width: 1.0;" width="1774" x="3" y="1287.4023"/><line style="stroke: #000000; stroke-width: 1.0;" x1="3" x2="1777" y1="1287.4023" y2="1287.4023"/><line style="stroke: #000000; stroke-width: 1.0;" x1="3" x2="1777" y1="1290.4023" y2="1290.4023"/><rect fill="#EEEEEE" filter="url(#f7kx2gc)" height="24.3516" style="stroke: #000000; stroke-width: 2.0;" width="124" x="828" y="1276.2266"/><text fill="#000000" font-family="sans-serif" font-size="13" font-weight="bold" lengthAdjust="spacingAndGlyphs" textLength="106" x="834" y="1293.7217">16:00～ 出荷通知</text><polygon fill="#383838" points="294.5,1328.5781,284.5,1332.5781,294.5,1336.5781,290.5,1332.5781" style="stroke: #383838; stroke-width: 1.0;"/><line style="stroke: #383838; stroke-width: 1.0;" x1="288.5" x2="1055" y1="1332.5781" y2="1332.5781"/><text fill="#000000" font-family="sans-serif" font-size="13" lengthAdjust="spacingAndGlyphs" textLength="65" x="300.5" y="1328.0732">送り状番号</text><polygon fill="#383838" points="294.5,1358.9297,284.5,1362.9297,294.5,1366.9297,290.5,1362.9297" style="stroke: #383838; stroke-width: 1.0;"/><line style="stroke: #383838; stroke-width: 1.0;" x1="288.5" x2="1117" y1="1362.9297" y2="1362.9297"/><text fill="#000000" font-family="sans-serif" font-size="13" lengthAdjust="spacingAndGlyphs" textLength="65" x="300.5" y="1358.4248">送り状番号</text><polygon fill="#383838" points="1511,1389.2813,1521,1393.2813,1511,1397.2813,1515,1393.2813" style="stroke: #383838; stroke-width: 1.0;"/><line style="stroke: #383838; stroke-width: 1.0;" x1="283.5" x2="1517" y1="1393.2813" y2="1393.2813"/><text fill="#000000" font-family="sans-serif" font-size="13" lengthAdjust="spacingAndGlyphs" textLength="68" x="290.5" y="1388.7764">Amazon.tsv</text><polygon fill="#383838" points="1511,1419.6328,1521,1423.6328,1511,1427.6328,1515,1423.6328" style="stroke: #383838; stroke-width: 1.0;"/><line style="stroke: #383838; stroke-width: 1.0;" x1="283.5" x2="1517" y1="1423.6328" y2="1423.6328"/><text fill="#000000" font-family="sans-serif" font-size="13" lengthAdjust="spacingAndGlyphs" textLength="49" x="290.5" y="1419.1279">楽天.csv</text><polygon fill="#383838" points="1511,1449.9844,1521,1453.9844,1511,1457.9844,1515,1453.9844" style="stroke: #383838; stroke-width: 1.0;"/><line style="stroke: #383838; stroke-width: 1.0;" x1="283.5" x2="1517" y1="1453.9844" y2="1453.9844"/><text fill="#000000" font-family="sans-serif" font-size="13" lengthAdjust="spacingAndGlyphs" textLength="60" x="290.5" y="1449.4795">Yahoo.csv</text><polygon fill="#383838" points="1629,1480.3359,1639,1484.3359,1629,1488.3359,1633,1484.3359" style="stroke: #383838; stroke-width: 1.0;"/><line style="stroke: #383838; stroke-width: 1.0; stroke-dasharray: 2.0,2.0;" x1="1533" x2="1635" y1="1484.3359" y2="1484.3359"/><text fill="#000000" font-family="sans-serif" font-size="13" lengthAdjust="spacingAndGlyphs" textLength="65" x="1540" y="1479.8311">集荷問合せ</text><polygon fill="#383838" points="1722,1510.6875,1732,1514.6875,1722,1518.6875,1726,1514.6875" style="stroke: #383838; stroke-width: 1.0;"/><line style="stroke: #383838; stroke-width: 1.0; stroke-dasharray: 2.0,2.0;" x1="1533" x2="1728" y1="1514.6875" y2="1514.6875"/><text fill="#000000" font-family="sans-serif" font-size="13" lengthAdjust="spacingAndGlyphs" textLength="65" x="1540" y="1510.1826">集荷問合せ</text><polygon fill="#383838" points="294.5,1541.0391,284.5,1545.0391,294.5,1549.0391,290.5,1545.0391" style="stroke: #383838; stroke-width: 1.0;"/><line style="stroke: #383838; stroke-width: 1.0;" x1="288.5" x2="1527" y1="1545.0391" y2="1545.0391"/><text fill="#000000" font-family="sans-serif" font-size="13" lengthAdjust="spacingAndGlyphs" textLength="91" x="300.5" y="1540.5342">送り状番号確定</text><rect fill="none" height="109.4063" style="stroke: #000000; stroke-width: 2.0;" width="299" x="41" y="1560.3906"/><polygon fill="#EEEEEE" points="41,1560.3906,114,1560.3906,114,1568.3906,104,1578.3906,41,1578.3906,41,1560.3906" style="stroke: #000000; stroke-width: 2.0;"/><text fill="#000000" font-family="sans-serif" font-size="13" font-weight="bold" lengthAdjust="spacingAndGlyphs" textLength="28" x="56" y="1574.8857">loop</text><text fill="#000000" font-family="sans-serif" font-size="11" font-weight="bold" lengthAdjust="spacingAndGlyphs" textLength="74" x="129" y="1573.8096">[APIにて実行]</text><polygon fill="#383838" points="90,1596.7422,80,1600.7422,90,1604.7422,86,1600.7422" style="stroke: #383838; stroke-width: 1.0;"/><line style="stroke: #383838; stroke-width: 1.0;" x1="84" x2="272.5" y1="1600.7422" y2="1600.7422"/><text fill="#000000" font-family="sans-serif" font-size="13" lengthAdjust="spacingAndGlyphs" textLength="65" x="96" y="1596.2373">送り状番号</text><polygon fill="#383838" points="145,1627.0938,135,1631.0938,145,1635.0938,141,1631.0938" style="stroke: #383838; stroke-width: 1.0;"/><line style="stroke: #383838; stroke-width: 1.0;" x1="139" x2="272.5" y1="1631.0938" y2="1631.0938"/><text fill="#000000" font-family="sans-serif" font-size="13" lengthAdjust="spacingAndGlyphs" textLength="65" x="151" y="1626.5889">送り状番号</text><polygon fill="#383838" points="195.5,1657.4453,185.5,1661.4453,195.5,1665.4453,191.5,1661.4453" style="stroke: #383838; stroke-width: 1.0;"/><line style="stroke: #383838; stroke-width: 1.0;" x1="189.5" x2="277.5" y1="1661.4453" y2="1661.4453"/><text fill="#000000" font-family="sans-serif" font-size="13" lengthAdjust="spacingAndGlyphs" textLength="65" x="201.5" y="1656.9404">送り状番号</text><polygon fill="#383838" points="14,1694.7969,4,1698.7969,14,1702.7969,10,1698.7969" style="stroke: #383838; stroke-width: 1.0;"/><line style="stroke: #383838; stroke-width: 1.0;" x1="8" x2="78" y1="1698.7969" y2="1698.7969"/><text fill="#000000" font-family="sans-serif" font-size="13" lengthAdjust="spacingAndGlyphs" textLength="52" x="20" y="1694.292">出荷通知</text><polygon fill="#383838" points="14,1725.1484,4,1729.1484,14,1733.1484,10,1729.1484" style="stroke: #383838; stroke-width: 1.0;"/><line style="stroke: #383838; stroke-width: 1.0;" x1="8" x2="133" y1="1729.1484" y2="1729.1484"/><text fill="#000000" font-family="sans-serif" font-size="13" lengthAdjust="spacingAndGlyphs" textLength="52" x="20" y="1724.6436">出荷通知</text><polygon fill="#383838" points="14,1755.5,4,1759.5,14,1763.5,10,1759.5" style="stroke: #383838; stroke-width: 1.0;"/><line style="stroke: #383838; stroke-width: 1.0;" x1="8" x2="183.5" y1="1759.5" y2="1759.5"/><text fill="#000000" font-family="sans-serif" font-size="13" lengthAdjust="spacingAndGlyphs" textLength="52" x="20" y="1754.9951">出荷通知</text></g></svg>