<?xml version="1.0" encoding="UTF-8" standalone="no"?><svg xmlns="http://www.w3.org/2000/svg" xmlns:xlink="http://www.w3.org/1999/xlink" contentScriptType="application/ecmascript" contentStyleType="text/css" height="1319px" preserveAspectRatio="none" style="width:1491px;height:1319px;" version="1.1" viewBox="0 0 1491 1319" width="1491px" zoomAndPan="magnify"><defs><filter height="300%" id="fubbara" width="300%" x="-1" y="-1"><feGaussianBlur result="blurOut" stdDeviation="2.0"/><feColorMatrix in="blurOut" result="blurOut2" type="matrix" values="0 0 0 0 0 0 0 0 0 0 0 0 0 0 0 0 0 0 .4 0"/><feOffset dx="4.0" dy="4.0" in="blurOut2" result="blurOut3"/><feBlend in="SourceGraphic" in2="blurOut3" mode="normal"/></filter></defs><g><text fill="#000000" font-family="sans-serif" font-size="14" font-weight="bold" lengthAdjust="spacingAndGlyphs" textLength="199" x="645.25" y="24.5332">ネット販売 受注・発送の流れ</text><rect fill="#FFFFFF" filter="url(#fubbara)" height="30.3516" style="stroke: #383838; stroke-width: 1.0;" width="10" x="46" y="155.5703"/><rect fill="#FFFFFF" filter="url(#fubbara)" height="30.3516" style="stroke: #383838; stroke-width: 1.0;" width="10" x="101" y="216.2734"/><rect fill="#FFFFFF" filter="url(#fubbara)" height="30.3516" style="stroke: #383838; stroke-width: 1.0;" width="10" x="151.5" y="276.9766"/><rect fill="#FFFFFF" filter="url(#fubbara)" height="146.7578" style="stroke: #383838; stroke-width: 1.0;" width="10" x="245.5" y="1077.4141"/><rect fill="#FFFFFF" filter="url(#fubbara)" height="134.4063" style="stroke: #383838; stroke-width: 1.0;" width="10" x="380" y="389.0313"/><rect fill="#FFFFFF" filter="url(#fubbara)" height="35.3516" style="stroke: #383838; stroke-width: 1.0;" width="10" x="710" y="589.1406"/><rect fill="#FFFFFF" filter="url(#fubbara)" height="91.0547" style="stroke: #383838; stroke-width: 1.0;" width="10" x="1080" y="820.6016"/><rect fill="#FFFFFF" filter="url(#fubbara)" height="91.0547" style="stroke: #383838; stroke-width: 1.0;" width="10" x="1157" y="790.25"/><rect fill="#FFFFFF" filter="url(#fubbara)" height="91.0547" style="stroke: #383838; stroke-width: 1.0;" width="10" x="1234" y="911.6563"/><rect fill="#FFFFFF" filter="url(#fubbara)" height="200.4609" style="stroke: #000000; stroke-width: 2.0;" width="299" x="13" y="115.2188"/><rect fill="#FFFFFF" filter="url(#fubbara)" height="109.4063" style="stroke: #000000; stroke-width: 2.0;" width="299" x="13" y="1123.1172"/><line style="stroke: #383838; stroke-width: 1.0; stroke-dasharray: 5.0,5.0;" x1="51" x2="51" y1="98.2188" y2="1249.5234"/><line style="stroke: #383838; stroke-width: 1.0; stroke-dasharray: 5.0,5.0;" x1="106" x2="106" y1="98.2188" y2="1249.5234"/><line style="stroke: #383838; stroke-width: 1.0; stroke-dasharray: 5.0,5.0;" x1="156" x2="156" y1="98.2188" y2="1249.5234"/><line style="stroke: #383838; stroke-width: 1.0; stroke-dasharray: 5.0,5.0;" x1="250" x2="250" y1="98.2188" y2="1249.5234"/><line style="stroke: #383838; stroke-width: 1.0; stroke-dasharray: 5.0,5.0;" x1="385" x2="385" y1="98.2188" y2="1249.5234"/><line style="stroke: #383838; stroke-width: 1.0; stroke-dasharray: 5.0,5.0;" x1="527" x2="527" y1="98.2188" y2="1249.5234"/><line style="stroke: #383838; stroke-width: 1.0; stroke-dasharray: 5.0,5.0;" x1="596" x2="596" y1="98.2188" y2="1249.5234"/><line style="stroke: #383838; stroke-width: 1.0; stroke-dasharray: 5.0,5.0;" x1="715" x2="715" y1="98.2188" y2="1249.5234"/><line style="stroke: #383838; stroke-width: 1.0; stroke-dasharray: 5.0,5.0;" x1="866" x2="866" y1="98.2188" y2="1249.5234"/><line style="stroke: #383838; stroke-width: 1.0; stroke-dasharray: 5.0,5.0;" x1="959" x2="959" y1="98.2188" y2="1249.5234"/><line style="stroke: #383838; stroke-width: 1.0; stroke-dasharray: 5.0,5.0;" x1="1021" x2="1021" y1="98.2188" y2="1249.5234"/><line style="stroke: #383838; stroke-width: 1.0; stroke-dasharray: 5.0,5.0;" x1="1085" x2="1085" y1="98.2188" y2="1249.5234"/><line style="stroke: #383838; stroke-width: 1.0; stroke-dasharray: 5.0,5.0;" x1="1162" x2="1162" y1="98.2188" y2="1249.5234"/><line style="stroke: #383838; stroke-width: 1.0; stroke-dasharray: 5.0,5.0;" x1="1239" x2="1239" y1="98.2188" y2="1249.5234"/><line style="stroke: #383838; stroke-width: 1.0; stroke-dasharray: 5.0,5.0;" x1="1371.5" x2="1371.5" y1="98.2188" y2="1249.5234"/><line style="stroke: #383838; stroke-width: 1.0; stroke-dasharray: 5.0,5.0;" x1="1458.5" x2="1458.5" y1="98.2188" y2="1249.5234"/><text fill="#000000" font-family="sans-serif" font-size="14" lengthAdjust="spacingAndGlyphs" textLength="50" x="23" y="95.1426">Amazon</text><ellipse cx="51" cy="64.6094" fill="#F8F8F8" filter="url(#fubbara)" rx="12" ry="12" style="stroke: #383838; stroke-width: 2.0;"/><line style="stroke: #383838; stroke-width: 2.0;" x1="39" x2="63" y1="78.6094" y2="78.6094"/><text fill="#000000" font-family="sans-serif" font-size="14" lengthAdjust="spacingAndGlyphs" textLength="50" x="23" y="1263.0566">Amazon</text><ellipse cx="51" cy="1282.1328" fill="#F8F8F8" filter="url(#fubbara)" rx="12" ry="12" style="stroke: #383838; stroke-width: 2.0;"/><line style="stroke: #383838; stroke-width: 2.0;" x1="39" x2="63" y1="1296.1328" y2="1296.1328"/><text fill="#000000" font-family="sans-serif" font-size="14" lengthAdjust="spacingAndGlyphs" textLength="28" x="89" y="95.1426">楽天</text><ellipse cx="106" cy="64.6094" fill="#F8F8F8" filter="url(#fubbara)" rx="12" ry="12" style="stroke: #383838; stroke-width: 2.0;"/><line style="stroke: #383838; stroke-width: 2.0;" x1="94" x2="118" y1="78.6094" y2="78.6094"/><text fill="#000000" font-family="sans-serif" font-size="14" lengthAdjust="spacingAndGlyphs" textLength="28" x="89" y="1263.0566">楽天</text><ellipse cx="106" cy="1282.1328" fill="#F8F8F8" filter="url(#fubbara)" rx="12" ry="12" style="stroke: #383838; stroke-width: 2.0;"/><line style="stroke: #383838; stroke-width: 2.0;" x1="94" x2="118" y1="1296.1328" y2="1296.1328"/><text fill="#000000" font-family="sans-serif" font-size="14" lengthAdjust="spacingAndGlyphs" textLength="41" x="133" y="95.1426">Yahoo</text><ellipse cx="156.5" cy="64.6094" fill="#F8F8F8" filter="url(#fubbara)" rx="12" ry="12" style="stroke: #383838; stroke-width: 2.0;"/><line style="stroke: #383838; stroke-width: 2.0;" x1="144.5" x2="168.5" y1="78.6094" y2="78.6094"/><text fill="#000000" font-family="sans-serif" font-size="14" lengthAdjust="spacingAndGlyphs" textLength="41" x="133" y="1263.0566">Yahoo</text><ellipse cx="156.5" cy="1282.1328" fill="#F8F8F8" filter="url(#fubbara)" rx="12" ry="12" style="stroke: #383838; stroke-width: 2.0;"/><line style="stroke: #383838; stroke-width: 2.0;" x1="144.5" x2="168.5" y1="1296.1328" y2="1296.1328"/><rect fill="#F8F8F8" filter="url(#fubbara)" height="31.6094" style="stroke: #383838; stroke-width: 1.5;" width="99" x="199" y="61.6094"/><text fill="#000000" font-family="sans-serif" font-size="14" lengthAdjust="spacingAndGlyphs" textLength="85" x="206" y="83.1426">CROSSMALL</text><rect fill="#F8F8F8" filter="url(#fubbara)" height="31.6094" style="stroke: #383838; stroke-width: 1.5;" width="99" x="199" y="1248.5234"/><text fill="#000000" font-family="sans-serif" font-size="14" lengthAdjust="spacingAndGlyphs" textLength="85" x="206" y="1270.0566">CROSSMALL</text><text fill="#000000" font-family="sans-serif" font-size="14" lengthAdjust="spacingAndGlyphs" textLength="140" x="312" y="95.1426">ピッキングシート生成</text><path d="M364.5,52.6094 L364.5,76.6094 M364.5,64.6094 L381.5,64.6094 " fill="#F8F8F8" filter="url(#fubbara)" style="stroke: #383838; stroke-width: 2.0;"/><ellipse cx="393.5" cy="64.6094" fill="#F8F8F8" filter="url(#fubbara)" rx="12" ry="12" style="stroke: #383838; stroke-width: 2.0;"/><text fill="#000000" font-family="sans-serif" font-size="14" lengthAdjust="spacingAndGlyphs" textLength="140" x="312" y="1263.0566">ピッキングシート生成</text><path d="M364.5,1270.1328 L364.5,1294.1328 M364.5,1282.1328 L381.5,1282.1328 " fill="#F8F8F8" filter="url(#fubbara)" style="stroke: #383838; stroke-width: 2.0;"/><ellipse cx="393.5" cy="1282.1328" fill="#F8F8F8" filter="url(#fubbara)" rx="12" ry="12" style="stroke: #383838; stroke-width: 2.0;"/><rect fill="#F8F8F8" filter="url(#fubbara)" height="31.6094" style="stroke: #383838; stroke-width: 1.5;" width="56" x="497" y="61.6094"/><text fill="#000000" font-family="sans-serif" font-size="14" lengthAdjust="spacingAndGlyphs" textLength="42" x="504" y="83.1426">電算室</text><rect fill="#F8F8F8" filter="url(#fubbara)" height="31.6094" style="stroke: #383838; stroke-width: 1.5;" width="56" x="497" y="1248.5234"/><text fill="#000000" font-family="sans-serif" font-size="14" lengthAdjust="spacingAndGlyphs" textLength="42" x="504" y="1270.0566">電算室</text><rect fill="#F8F8F8" filter="url(#fubbara)" height="31.6094" style="stroke: #383838; stroke-width: 1.5;" width="54" x="567" y="61.6094"/><text fill="#000000" font-family="sans-serif" font-size="14" lengthAdjust="spacingAndGlyphs" textLength="40" x="574" y="83.1426">SLIMS</text><rect fill="#F8F8F8" filter="url(#fubbara)" height="31.6094" style="stroke: #383838; stroke-width: 1.5;" width="54" x="567" y="1248.5234"/><text fill="#000000" font-family="sans-serif" font-size="14" lengthAdjust="spacingAndGlyphs" textLength="40" x="574" y="1270.0566">SLIMS</text><text fill="#000000" font-family="sans-serif" font-size="14" lengthAdjust="spacingAndGlyphs" textLength="154" x="635" y="95.1426">受注チェックリスト生成</text><path d="M694.5,52.6094 L694.5,76.6094 M694.5,64.6094 L711.5,64.6094 " fill="#F8F8F8" filter="url(#fubbara)" style="stroke: #383838; stroke-width: 2.0;"/><ellipse cx="723.5" cy="64.6094" fill="#F8F8F8" filter="url(#fubbara)" rx="12" ry="12" style="stroke: #383838; stroke-width: 2.0;"/><text fill="#000000" font-family="sans-serif" font-size="14" lengthAdjust="spacingAndGlyphs" textLength="154" x="635" y="1263.0566">受注チェックリスト生成</text><path d="M694.5,1270.1328 L694.5,1294.1328 M694.5,1282.1328 L711.5,1282.1328 " fill="#F8F8F8" filter="url(#fubbara)" style="stroke: #383838; stroke-width: 2.0;"/><ellipse cx="723.5" cy="1282.1328" fill="#F8F8F8" filter="url(#fubbara)" rx="12" ry="12" style="stroke: #383838; stroke-width: 2.0;"/><text fill="#000000" font-family="sans-serif" font-size="14" lengthAdjust="spacingAndGlyphs" textLength="117" x="805" y="95.1426">出荷チェック用DB</text><path d="M848.5,44.6094 C848.5,34.6094 866.5,34.6094 866.5,34.6094 C866.5,34.6094 884.5,34.6094 884.5,44.6094 L884.5,70.6094 C884.5,80.6094 866.5,80.6094 866.5,80.6094 C866.5,80.6094 848.5,80.6094 848.5,70.6094 L848.5,44.6094 " fill="#F8F8F8" filter="url(#fubbara)" style="stroke: #000000; stroke-width: 1.5;"/><path d="M848.5,44.6094 C848.5,54.6094 866.5,54.6094 866.5,54.6094 C866.5,54.6094 884.5,54.6094 884.5,44.6094 " fill="none" style="stroke: #000000; stroke-width: 1.5;"/><text fill="#000000" font-family="sans-serif" font-size="14" lengthAdjust="spacingAndGlyphs" textLength="117" x="805" y="1263.0566">出荷チェック用DB</text><path d="M848.5,1276.1328 C848.5,1266.1328 866.5,1266.1328 866.5,1266.1328 C866.5,1266.1328 884.5,1266.1328 884.5,1276.1328 L884.5,1302.1328 C884.5,1312.1328 866.5,1312.1328 866.5,1312.1328 C866.5,1312.1328 848.5,1312.1328 848.5,1302.1328 L848.5,1276.1328 " fill="#F8F8F8" filter="url(#fubbara)" style="stroke: #000000; stroke-width: 1.5;"/><path d="M848.5,1276.1328 C848.5,1286.1328 866.5,1286.1328 866.5,1286.1328 C866.5,1286.1328 884.5,1286.1328 884.5,1276.1328 " fill="none" style="stroke: #000000; stroke-width: 1.5;"/><text fill="#000000" font-family="sans-serif" font-size="14" lengthAdjust="spacingAndGlyphs" textLength="36" x="938" y="95.1426">e飛伝</text><ellipse cx="959" cy="64.6094" fill="#F8F8F8" filter="url(#fubbara)" rx="12" ry="12" style="stroke: #383838; stroke-width: 2.0;"/><line style="stroke: #383838; stroke-width: 2.0;" x1="947" x2="971" y1="78.6094" y2="78.6094"/><text fill="#000000" font-family="sans-serif" font-size="14" lengthAdjust="spacingAndGlyphs" textLength="36" x="938" y="1263.0566">e飛伝</text><ellipse cx="959" cy="1282.1328" fill="#F8F8F8" filter="url(#fubbara)" rx="12" ry="12" style="stroke: #383838; stroke-width: 2.0;"/><line style="stroke: #383838; stroke-width: 2.0;" x1="947" x2="971" y1="1296.1328" y2="1296.1328"/><text fill="#000000" font-family="sans-serif" font-size="14" lengthAdjust="spacingAndGlyphs" textLength="56" x="990" y="95.1426">ネコポス</text><ellipse cx="1021" cy="64.6094" fill="#F8F8F8" filter="url(#fubbara)" rx="12" ry="12" style="stroke: #383838; stroke-width: 2.0;"/><line style="stroke: #383838; stroke-width: 2.0;" x1="1009" x2="1033" y1="78.6094" y2="78.6094"/><text fill="#000000" font-family="sans-serif" font-size="14" lengthAdjust="spacingAndGlyphs" textLength="56" x="990" y="1263.0566">ネコポス</text><ellipse cx="1021" cy="1282.1328" fill="#F8F8F8" filter="url(#fubbara)" rx="12" ry="12" style="stroke: #383838; stroke-width: 2.0;"/><line style="stroke: #383838; stroke-width: 2.0;" x1="1009" x2="1033" y1="1296.1328" y2="1296.1328"/><rect fill="#F8F8F8" filter="url(#fubbara)" height="31.6094" style="stroke: #383838; stroke-width: 1.5;" width="42" x="1062" y="61.6094"/><text fill="#000000" font-family="sans-serif" font-size="14" lengthAdjust="spacingAndGlyphs" textLength="28" x="1069" y="83.1426">振分</text><rect fill="#F8F8F8" filter="url(#fubbara)" height="31.6094" style="stroke: #383838; stroke-width: 1.5;" width="42" x="1062" y="1248.5234"/><text fill="#000000" font-family="sans-serif" font-size="14" lengthAdjust="spacingAndGlyphs" textLength="28" x="1069" y="1270.0566">振分</text><rect fill="#F8F8F8" filter="url(#fubbara)" height="31.6094" style="stroke: #383838; stroke-width: 1.5;" width="84" x="1118" y="61.6094"/><text fill="#000000" font-family="sans-serif" font-size="14" lengthAdjust="spacingAndGlyphs" textLength="70" x="1125" y="83.1426">ピッキング</text><rect fill="#F8F8F8" filter="url(#fubbara)" height="31.6094" style="stroke: #383838; stroke-width: 1.5;" width="84" x="1118" y="1248.5234"/><text fill="#000000" font-family="sans-serif" font-size="14" lengthAdjust="spacingAndGlyphs" textLength="70" x="1125" y="1270.0566">ピッキング</text><rect fill="#F8F8F8" filter="url(#fubbara)" height="31.6094" style="stroke: #383838; stroke-width: 1.5;" width="42" x="1216" y="61.6094"/><text fill="#000000" font-family="sans-serif" font-size="14" lengthAdjust="spacingAndGlyphs" textLength="28" x="1223" y="83.1426">梱包</text><rect fill="#F8F8F8" filter="url(#fubbara)" height="31.6094" style="stroke: #383838; stroke-width: 1.5;" width="42" x="1216" y="1248.5234"/><text fill="#000000" font-family="sans-serif" font-size="14" lengthAdjust="spacingAndGlyphs" textLength="28" x="1223" y="1270.0566">梱包</text><rect fill="#F8F8F8" filter="url(#fubbara)" height="31.6094" style="stroke: #383838; stroke-width: 1.5;" width="103" x="1318.5" y="61.6094"/><text fill="#000000" font-family="sans-serif" font-size="14" lengthAdjust="spacingAndGlyphs" textLength="89" x="1325.5" y="83.1426">ハンディ用DB</text><rect fill="#F8F8F8" filter="url(#fubbara)" height="31.6094" style="stroke: #383838; stroke-width: 1.5;" width="103" x="1318.5" y="1248.5234"/><text fill="#000000" font-family="sans-serif" font-size="14" lengthAdjust="spacingAndGlyphs" textLength="89" x="1325.5" y="1270.0566">ハンディ用DB</text><rect fill="#F8F8F8" filter="url(#fubbara)" height="31.6094" style="stroke: #383838; stroke-width: 1.5;" width="42" x="1435.5" y="61.6094"/><text fill="#000000" font-family="sans-serif" font-size="14" lengthAdjust="spacingAndGlyphs" textLength="28" x="1442.5" y="83.1426">出荷</text><rect fill="#F8F8F8" filter="url(#fubbara)" height="31.6094" style="stroke: #383838; stroke-width: 1.5;" width="42" x="1435.5" y="1248.5234"/><text fill="#000000" font-family="sans-serif" font-size="14" lengthAdjust="spacingAndGlyphs" textLength="28" x="1442.5" y="1270.0566">出荷</text><rect fill="#FFFFFF" filter="url(#fubbara)" height="30.3516" style="stroke: #383838; stroke-width: 1.0;" width="10" x="46" y="155.5703"/><rect fill="#FFFFFF" filter="url(#fubbara)" height="30.3516" style="stroke: #383838; stroke-width: 1.0;" width="10" x="101" y="216.2734"/><rect fill="#FFFFFF" filter="url(#fubbara)" height="30.3516" style="stroke: #383838; stroke-width: 1.0;" width="10" x="151.5" y="276.9766"/><rect fill="#FFFFFF" filter="url(#fubbara)" height="146.7578" style="stroke: #383838; stroke-width: 1.0;" width="10" x="245.5" y="1077.4141"/><rect fill="#FFFFFF" filter="url(#fubbara)" height="134.4063" style="stroke: #383838; stroke-width: 1.0;" width="10" x="380" y="389.0313"/><rect fill="#FFFFFF" filter="url(#fubbara)" height="35.3516" style="stroke: #383838; stroke-width: 1.0;" width="10" x="710" y="589.1406"/><rect fill="#FFFFFF" filter="url(#fubbara)" height="91.0547" style="stroke: #383838; stroke-width: 1.0;" width="10" x="1080" y="820.6016"/><rect fill="#FFFFFF" filter="url(#fubbara)" height="91.0547" style="stroke: #383838; stroke-width: 1.0;" width="10" x="1157" y="790.25"/><rect fill="#FFFFFF" filter="url(#fubbara)" height="91.0547" style="stroke: #383838; stroke-width: 1.0;" width="10" x="1234" y="911.6563"/><rect fill="none" height="200.4609" style="stroke: #000000; stroke-width: 2.0;" width="299" x="13" y="115.2188"/><polygon fill="#EEEEEE" points="13,115.2188,86,115.2188,86,123.2188,76,133.2188,13,133.2188,13,115.2188" style="stroke: #000000; stroke-width: 2.0;"/><text fill="#000000" font-family="sans-serif" font-size="13" font-weight="bold" lengthAdjust="spacingAndGlyphs" textLength="28" x="28" y="129.7139">loop</text><text fill="#000000" font-family="sans-serif" font-size="11" font-weight="bold" lengthAdjust="spacingAndGlyphs" textLength="56" x="101" y="128.6377">[常時取得]</text><polygon fill="#383838" points="67,151.5703,57,155.5703,67,159.5703,63,155.5703" style="stroke: #383838; stroke-width: 1.0;"/><line style="stroke: #383838; stroke-width: 1.0;" x1="61" x2="249.5" y1="155.5703" y2="155.5703"/><text fill="#000000" font-family="sans-serif" font-size="13" lengthAdjust="spacingAndGlyphs" textLength="21" x="73" y="151.0654">API</text><polygon fill="#383838" points="238.5,181.9219,248.5,185.9219,238.5,189.9219,242.5,185.9219" style="stroke: #383838; stroke-width: 1.0;"/><line style="stroke: #383838; stroke-width: 1.0; stroke-dasharray: 2.0,2.0;" x1="51" x2="244.5" y1="185.9219" y2="185.9219"/><text fill="#000000" font-family="sans-serif" font-size="13" lengthAdjust="spacingAndGlyphs" textLength="65" x="58" y="181.417">受注データ</text><polygon fill="#383838" points="122,212.2734,112,216.2734,122,220.2734,118,216.2734" style="stroke: #383838; stroke-width: 1.0;"/><line style="stroke: #383838; stroke-width: 1.0;" x1="116" x2="249.5" y1="216.2734" y2="216.2734"/><text fill="#000000" font-family="sans-serif" font-size="13" lengthAdjust="spacingAndGlyphs" textLength="21" x="128" y="211.7686">API</text><polygon fill="#383838" points="238.5,242.625,248.5,246.625,238.5,250.625,242.5,246.625" style="stroke: #383838; stroke-width: 1.0;"/><line style="stroke: #383838; stroke-width: 1.0; stroke-dasharray: 2.0,2.0;" x1="106" x2="244.5" y1="246.625" y2="246.625"/><text fill="#000000" font-family="sans-serif" font-size="13" lengthAdjust="spacingAndGlyphs" textLength="65" x="113" y="242.1201">受注データ</text><polygon fill="#383838" points="172.5,272.9766,162.5,276.9766,172.5,280.9766,168.5,276.9766" style="stroke: #383838; stroke-width: 1.0;"/><line style="stroke: #383838; stroke-width: 1.0;" x1="166.5" x2="249.5" y1="276.9766" y2="276.9766"/><text fill="#000000" font-family="sans-serif" font-size="13" lengthAdjust="spacingAndGlyphs" textLength="21" x="178.5" y="272.4717">API</text><polygon fill="#383838" points="238.5,303.3281,248.5,307.3281,238.5,311.3281,242.5,307.3281" style="stroke: #383838; stroke-width: 1.0;"/><line style="stroke: #383838; stroke-width: 1.0; stroke-dasharray: 2.0,2.0;" x1="156.5" x2="244.5" y1="307.3281" y2="307.3281"/><text fill="#000000" font-family="sans-serif" font-size="13" lengthAdjust="spacingAndGlyphs" textLength="65" x="163.5" y="302.8232">受注データ</text><rect fill="#EEEEEE" filter="url(#fubbara)" height="3" style="stroke: #EEEEEE; stroke-width: 1.0;" width="1483.5" x="3" y="343.8555"/><line style="stroke: #000000; stroke-width: 1.0;" x1="3" x2="1486.5" y1="343.8555" y2="343.8555"/><line style="stroke: #000000; stroke-width: 1.0;" x1="3" x2="1486.5" y1="346.8555" y2="346.8555"/><rect fill="#EEEEEE" filter="url(#fubbara)" height="24.3516" style="stroke: #000000; stroke-width: 2.0;" width="121" x="684.25" y="332.6797"/><text fill="#000000" font-family="sans-serif" font-size="13" font-weight="bold" lengthAdjust="spacingAndGlyphs" textLength="103" x="690.25" y="350.1748">8:00 ～ 受注取込</text><polygon fill="#383838" points="368,385.0313,378,389.0313,368,393.0313,372,389.0313" style="stroke: #383838; stroke-width: 1.0;"/><line style="stroke: #383838; stroke-width: 1.0;" x1="250.5" x2="374" y1="389.0313" y2="389.0313"/><text fill="#000000" font-family="sans-serif" font-size="13" lengthAdjust="spacingAndGlyphs" textLength="27" x="257.5" y="384.5264">CSV</text><line style="stroke: #383838; stroke-width: 1.0;" x1="390" x2="432" y1="419.7344" y2="419.7344"/><line style="stroke: #383838; stroke-width: 1.0;" x1="432" x2="432" y1="419.7344" y2="432.7344"/><line style="stroke: #383838; stroke-width: 1.0;" x1="391" x2="432" y1="432.7344" y2="432.7344"/><polygon fill="#383838" points="401,428.7344,391,432.7344,401,436.7344,397,432.7344" style="stroke: #383838; stroke-width: 1.0;"/><text fill="#000000" font-family="sans-serif" font-size="13" lengthAdjust="spacingAndGlyphs" textLength="65" x="397" y="414.8779">セット分解</text><polygon fill="#383838" points="515,458.7344,525,462.7344,515,466.7344,519,462.7344" style="stroke: #383838; stroke-width: 1.0;"/><line style="stroke: #383838; stroke-width: 1.0;" x1="390" x2="521" y1="462.7344" y2="462.7344"/><text fill="#000000" font-family="sans-serif" font-size="13" lengthAdjust="spacingAndGlyphs" textLength="113" x="397" y="458.2295">Amazonピッキング</text><polygon fill="#383838" points="515,489.0859,525,493.0859,515,497.0859,519,493.0859" style="stroke: #383838; stroke-width: 1.0;"/><line style="stroke: #383838; stroke-width: 1.0;" x1="390" x2="521" y1="493.0859" y2="493.0859"/><text fill="#000000" font-family="sans-serif" font-size="13" lengthAdjust="spacingAndGlyphs" textLength="91" x="397" y="488.5811">楽天ピッキング</text><polygon fill="#383838" points="515,519.4375,525,523.4375,515,527.4375,519,523.4375" style="stroke: #383838; stroke-width: 1.0;"/><line style="stroke: #383838; stroke-width: 1.0;" x1="385" x2="521" y1="523.4375" y2="523.4375"/><text fill="#000000" font-family="sans-serif" font-size="13" lengthAdjust="spacingAndGlyphs" textLength="102" x="392" y="518.9326">Yahooピッキング</text><polygon fill="#383838" points="584,549.7891,594,553.7891,584,557.7891,588,553.7891" style="stroke: #383838; stroke-width: 1.0;"/><line style="stroke: #383838; stroke-width: 1.0;" x1="527" x2="590" y1="553.7891" y2="553.7891"/><text fill="#000000" font-family="sans-serif" font-size="13" lengthAdjust="spacingAndGlyphs" textLength="44" x="534" y="549.2842">DB投入</text><polygon fill="#383838" points="261.5,585.1406,251.5,589.1406,261.5,593.1406,257.5,589.1406" style="stroke: #383838; stroke-width: 1.0;"/><line style="stroke: #383838; stroke-width: 1.0;" x1="255.5" x2="709" y1="589.1406" y2="589.1406"/><text fill="#000000" font-family="sans-serif" font-size="13" lengthAdjust="spacingAndGlyphs" textLength="183" x="267.5" y="584.6357">ピッキングシート用と同じCSV</text><polygon fill="#ECECEC" filter="url(#fubbara)" points="725,567.1406,725,593.1406,773,593.1406,773,577.1406,763,567.1406,725,567.1406" style="stroke: #383838; stroke-width: 1.0;"/><line style="stroke: #383838; stroke-width: 1.0;" x1="763" x2="763" y1="567.1406" y2="577.1406"/><line style="stroke: #383838; stroke-width: 1.0;" x1="773" x2="763" y1="577.1406" y2="577.1406"/><text fill="#000000" font-family="sans-serif" font-size="13" lengthAdjust="spacingAndGlyphs" textLength="27" x="731" y="585.6357">CSV</text><polygon fill="#383838" points="854.5,620.4922,864.5,624.4922,854.5,628.4922,858.5,624.4922" style="stroke: #383838; stroke-width: 1.0;"/><line style="stroke: #383838; stroke-width: 1.0;" x1="715" x2="860.5" y1="624.4922" y2="624.4922"/><text fill="#000000" font-family="sans-serif" font-size="13" lengthAdjust="spacingAndGlyphs" textLength="44" x="722" y="619.9873">DB投入</text><polygon fill="#383838" points="947,650.8438,957,654.8438,947,658.8438,951,654.8438" style="stroke: #383838; stroke-width: 1.0;"/><line style="stroke: #383838; stroke-width: 1.0;" x1="250.5" x2="953" y1="654.8438" y2="654.8438"/><text fill="#000000" font-family="sans-serif" font-size="13" lengthAdjust="spacingAndGlyphs" textLength="67" x="257.5" y="650.3389">CSV_e飛伝</text><polygon fill="#383838" points="1009,681.1953,1019,685.1953,1009,689.1953,1013,685.1953" style="stroke: #383838; stroke-width: 1.0;"/><line style="stroke: #383838; stroke-width: 1.0;" x1="250.5" x2="1015" y1="685.1953" y2="685.1953"/><text fill="#000000" font-family="sans-serif" font-size="13" lengthAdjust="spacingAndGlyphs" textLength="89" x="257.5" y="680.6904">CSV_ヤマトB2</text><rect fill="#EEEEEE" filter="url(#fubbara)" height="3" style="stroke: #EEEEEE; stroke-width: 1.0;" width="1483.5" x="3" y="714.7227"/><line style="stroke: #000000; stroke-width: 1.0;" x1="3" x2="1486.5" y1="714.7227" y2="714.7227"/><line style="stroke: #000000; stroke-width: 1.0;" x1="3" x2="1486.5" y1="717.7227" y2="717.7227"/><rect fill="#EEEEEE" filter="url(#fubbara)" height="24.3516" style="stroke: #000000; stroke-width: 2.0;" width="131" x="679.25" y="703.5469"/><text fill="#000000" font-family="sans-serif" font-size="13" font-weight="bold" lengthAdjust="spacingAndGlyphs" textLength="113" x="685.25" y="721.042">9:30～ 振分・梱包</text><polygon fill="#383838" points="1073,755.8984,1083,759.8984,1073,763.8984,1077,759.8984" style="stroke: #383838; stroke-width: 1.0;"/><line style="stroke: #383838; stroke-width: 1.0;" x1="385" x2="1079" y1="759.8984" y2="759.8984"/><text fill="#000000" font-family="sans-serif" font-size="13" lengthAdjust="spacingAndGlyphs" textLength="117" x="392" y="755.3936">振分け用商品リスト</text><polygon fill="#383838" points="607,786.25,597,790.25,607,794.25,603,790.25" style="stroke: #383838; stroke-width: 1.0;"/><line style="stroke: #383838; stroke-width: 1.0; stroke-dasharray: 2.0,2.0;" x1="601" x2="1156" y1="790.25" y2="790.25"/><text fill="#000000" font-family="sans-serif" font-size="13" lengthAdjust="spacingAndGlyphs" textLength="52" x="613" y="785.7451">ハンディ</text><polygon fill="#383838" points="1068,816.6016,1078,820.6016,1068,824.6016,1072,820.6016" style="stroke: #383838; stroke-width: 1.0;"/><line style="stroke: #383838; stroke-width: 1.0;" x1="250.5" x2="1074" y1="820.6016" y2="820.6016"/><text fill="#000000" font-family="sans-serif" font-size="13" lengthAdjust="spacingAndGlyphs" textLength="39" x="257.5" y="816.0967">納品書</text><polygon fill="#383838" points="1068,846.9531,1078,850.9531,1068,854.9531,1072,850.9531" style="stroke: #383838; stroke-width: 1.0;"/><line style="stroke: #383838; stroke-width: 1.0;" x1="959" x2="1074" y1="850.9531" y2="850.9531"/><text fill="#000000" font-family="sans-serif" font-size="13" lengthAdjust="spacingAndGlyphs" textLength="65" x="966" y="846.4482">佐川送り状</text><polygon fill="#383838" points="1101,877.3047,1091,881.3047,1101,885.3047,1097,881.3047" style="stroke: #383838; stroke-width: 1.0;"/><line style="stroke: #383838; stroke-width: 1.0;" x1="1095" x2="1161" y1="881.3047" y2="881.3047"/><text fill="#000000" font-family="sans-serif" font-size="13" lengthAdjust="spacingAndGlyphs" textLength="26" x="1107" y="876.7998">商品</text><polygon fill="#383838" points="1222,907.6563,1232,911.6563,1222,915.6563,1226,911.6563" style="stroke: #383838; stroke-width: 1.0;"/><line style="stroke: #383838; stroke-width: 1.0;" x1="1085" x2="1228" y1="911.6563" y2="911.6563"/><text fill="#000000" font-family="sans-serif" font-size="13" lengthAdjust="spacingAndGlyphs" textLength="78" x="1092" y="907.1514">商品・納品書</text><polygon fill="#383838" points="1222,938.0078,1232,942.0078,1222,946.0078,1226,942.0078" style="stroke: #383838; stroke-width: 1.0;"/><line style="stroke: #383838; stroke-width: 1.0;" x1="1021" x2="1228" y1="942.0078" y2="942.0078"/><text fill="#000000" font-family="sans-serif" font-size="13" lengthAdjust="spacingAndGlyphs" textLength="91" x="1028" y="937.5029">ネコポス送り状</text><polygon fill="#383838" points="1360,968.3594,1370,972.3594,1360,976.3594,1364,972.3594" style="stroke: #383838; stroke-width: 1.0;"/><line style="stroke: #383838; stroke-width: 1.0; stroke-dasharray: 2.0,2.0;" x1="1244" x2="1366" y1="972.3594" y2="972.3594"/><text fill="#000000" font-family="sans-serif" font-size="13" lengthAdjust="spacingAndGlyphs" textLength="104" x="1251" y="967.8545">出荷商品チェック</text><polygon fill="#383838" points="1446.5,998.7109,1456.5,1002.7109,1446.5,1006.7109,1450.5,1002.7109" style="stroke: #383838; stroke-width: 1.0;"/><line style="stroke: #383838; stroke-width: 1.0;" x1="1239" x2="1452.5" y1="1002.7109" y2="1002.7109"/><text fill="#000000" font-family="sans-serif" font-size="13" lengthAdjust="spacingAndGlyphs" textLength="72" x="1246" y="998.2061">梱包済_商品</text><rect fill="#EEEEEE" filter="url(#fubbara)" height="3" style="stroke: #EEEEEE; stroke-width: 1.0;" width="1483.5" x="3" y="1032.2383"/><line style="stroke: #000000; stroke-width: 1.0;" x1="3" x2="1486.5" y1="1032.2383" y2="1032.2383"/><line style="stroke: #000000; stroke-width: 1.0;" x1="3" x2="1486.5" y1="1035.2383" y2="1035.2383"/><rect fill="#EEEEEE" filter="url(#fubbara)" height="24.3516" style="stroke: #000000; stroke-width: 2.0;" width="124" x="682.75" y="1021.0625"/><text fill="#000000" font-family="sans-serif" font-size="13" font-weight="bold" lengthAdjust="spacingAndGlyphs" textLength="106" x="688.75" y="1038.5576">16:00～ 出荷通知</text><polygon fill="#383838" points="266.5,1073.4141,256.5,1077.4141,266.5,1081.4141,262.5,1077.4141" style="stroke: #383838; stroke-width: 1.0;"/><line style="stroke: #383838; stroke-width: 1.0;" x1="260.5" x2="958" y1="1077.4141" y2="1077.4141"/><text fill="#000000" font-family="sans-serif" font-size="13" lengthAdjust="spacingAndGlyphs" textLength="65" x="272.5" y="1072.9092">送り状番号</text><polygon fill="#383838" points="266.5,1103.7656,256.5,1107.7656,266.5,1111.7656,262.5,1107.7656" style="stroke: #383838; stroke-width: 1.0;"/><line style="stroke: #383838; stroke-width: 1.0;" x1="260.5" x2="1020" y1="1107.7656" y2="1107.7656"/><text fill="#000000" font-family="sans-serif" font-size="13" lengthAdjust="spacingAndGlyphs" textLength="65" x="272.5" y="1103.2607">送り状番号</text><rect fill="none" height="109.4063" style="stroke: #000000; stroke-width: 2.0;" width="299" x="13" y="1123.1172"/><polygon fill="#EEEEEE" points="13,1123.1172,86,1123.1172,86,1131.1172,76,1141.1172,13,1141.1172,13,1123.1172" style="stroke: #000000; stroke-width: 2.0;"/><text fill="#000000" font-family="sans-serif" font-size="13" font-weight="bold" lengthAdjust="spacingAndGlyphs" textLength="28" x="28" y="1137.6123">loop</text><text fill="#000000" font-family="sans-serif" font-size="11" font-weight="bold" lengthAdjust="spacingAndGlyphs" textLength="74" x="101" y="1136.5361">[APIにて実行]</text><polygon fill="#383838" points="62,1159.4688,52,1163.4688,62,1167.4688,58,1163.4688" style="stroke: #383838; stroke-width: 1.0;"/><line style="stroke: #383838; stroke-width: 1.0;" x1="56" x2="244.5" y1="1163.4688" y2="1163.4688"/><text fill="#000000" font-family="sans-serif" font-size="13" lengthAdjust="spacingAndGlyphs" textLength="65" x="68" y="1158.9639">送り状番号</text><polygon fill="#383838" points="117,1189.8203,107,1193.8203,117,1197.8203,113,1193.8203" style="stroke: #383838; stroke-width: 1.0;"/><line style="stroke: #383838; stroke-width: 1.0;" x1="111" x2="244.5" y1="1193.8203" y2="1193.8203"/><text fill="#000000" font-family="sans-serif" font-size="13" lengthAdjust="spacingAndGlyphs" textLength="65" x="123" y="1189.3154">送り状番号</text><polygon fill="#383838" points="167.5,1220.1719,157.5,1224.1719,167.5,1228.1719,163.5,1224.1719" style="stroke: #383838; stroke-width: 1.0;"/><line style="stroke: #383838; stroke-width: 1.0;" x1="161.5" x2="249.5" y1="1224.1719" y2="1224.1719"/><text fill="#000000" font-family="sans-serif" font-size="13" lengthAdjust="spacingAndGlyphs" textLength="65" x="173.5" y="1219.667">送り状番号</text></g></svg>