<?xml version="1.0" encoding="UTF-8" standalone="no"?><svg xmlns="http://www.w3.org/2000/svg" xmlns:xlink="http://www.w3.org/1999/xlink" contentScriptType="application/ecmascript" contentStyleType="text/css" height="1265px" preserveAspectRatio="none" style="width:1338px;height:1265px;" version="1.1" viewBox="0 0 1338 1265" width="1338px" zoomAndPan="magnify"><defs><filter height="300%" id="fagn0kd" width="300%" x="-1" y="-1"><feGaussianBlur result="blurOut" stdDeviation="2.0"/><feColorMatrix in="blurOut" result="blurOut2" type="matrix" values="0 0 0 0 0 0 0 0 0 0 0 0 0 0 0 0 0 0 .4 0"/><feOffset dx="4.0" dy="4.0" in="blurOut2" result="blurOut3"/><feBlend in="SourceGraphic" in2="blurOut3" mode="normal"/></filter></defs><g><text fill="#000000" font-family="sans-serif" font-size="14" font-weight="bold" lengthAdjust="spacingAndGlyphs" textLength="248" x="544" y="24.5332">ロジス ネット販売 受注・発送の流れ</text><rect fill="#FFFFFF" filter="url(#fagn0kd)" height="30.3516" style="stroke: #383838; stroke-width: 1.0;" width="10" x="46" y="155.5703"/><rect fill="#FFFFFF" filter="url(#fagn0kd)" height="30.3516" style="stroke: #383838; stroke-width: 1.0;" width="10" x="101" y="216.2734"/><rect fill="#FFFFFF" filter="url(#fagn0kd)" height="30.3516" style="stroke: #383838; stroke-width: 1.0;" width="10" x="151.5" y="276.9766"/><rect fill="#FFFFFF" filter="url(#fagn0kd)" height="146.7578" style="stroke: #383838; stroke-width: 1.0;" width="10" x="245.5" y="1024.0625"/><rect fill="#FFFFFF" filter="url(#fagn0kd)" height="121.4063" style="stroke: #383838; stroke-width: 1.0;" width="10" x="380" y="389.0313"/><rect fill="#FFFFFF" filter="url(#fagn0kd)" height="91.0547" style="stroke: #383838; stroke-width: 1.0;" width="10" x="646" y="767.25"/><rect fill="#FFFFFF" filter="url(#fagn0kd)" height="91.0547" style="stroke: #383838; stroke-width: 1.0;" width="10" x="1122" y="736.8984"/><rect fill="#FFFFFF" filter="url(#fagn0kd)" height="91.0547" style="stroke: #383838; stroke-width: 1.0;" width="10" x="1199" y="858.3047"/><rect fill="#FFFFFF" filter="url(#fagn0kd)" height="200.4609" style="stroke: #000000; stroke-width: 2.0;" width="299" x="13" y="115.2188"/><rect fill="#FFFFFF" filter="url(#fagn0kd)" height="109.4063" style="stroke: #000000; stroke-width: 2.0;" width="299" x="13" y="1069.7656"/><line style="stroke: #383838; stroke-width: 1.0; stroke-dasharray: 5.0,5.0;" x1="51" x2="51" y1="98.2188" y2="1196.1719"/><line style="stroke: #383838; stroke-width: 1.0; stroke-dasharray: 5.0,5.0;" x1="106" x2="106" y1="98.2188" y2="1196.1719"/><line style="stroke: #383838; stroke-width: 1.0; stroke-dasharray: 5.0,5.0;" x1="156" x2="156" y1="98.2188" y2="1196.1719"/><line style="stroke: #383838; stroke-width: 1.0; stroke-dasharray: 5.0,5.0;" x1="250" x2="250" y1="98.2188" y2="1196.1719"/><line style="stroke: #383838; stroke-width: 1.0; stroke-dasharray: 5.0,5.0;" x1="385" x2="385" y1="98.2188" y2="1196.1719"/><line style="stroke: #383838; stroke-width: 1.0; stroke-dasharray: 5.0,5.0;" x1="527" x2="527" y1="98.2188" y2="1196.1719"/><line style="stroke: #383838; stroke-width: 1.0; stroke-dasharray: 5.0,5.0;" x1="595" x2="595" y1="98.2188" y2="1196.1719"/><line style="stroke: #383838; stroke-width: 1.0; stroke-dasharray: 5.0,5.0;" x1="651" x2="651" y1="98.2188" y2="1196.1719"/><line style="stroke: #383838; stroke-width: 1.0; stroke-dasharray: 5.0,5.0;" x1="764" x2="764" y1="98.2188" y2="1196.1719"/><line style="stroke: #383838; stroke-width: 1.0; stroke-dasharray: 5.0,5.0;" x1="901" x2="901" y1="98.2188" y2="1196.1719"/><line style="stroke: #383838; stroke-width: 1.0; stroke-dasharray: 5.0,5.0;" x1="980" x2="980" y1="98.2188" y2="1196.1719"/><line style="stroke: #383838; stroke-width: 1.0; stroke-dasharray: 5.0,5.0;" x1="1042" x2="1042" y1="98.2188" y2="1196.1719"/><line style="stroke: #383838; stroke-width: 1.0; stroke-dasharray: 5.0,5.0;" x1="1127" x2="1127" y1="98.2188" y2="1196.1719"/><line style="stroke: #383838; stroke-width: 1.0; stroke-dasharray: 5.0,5.0;" x1="1204" x2="1204" y1="98.2188" y2="1196.1719"/><line style="stroke: #383838; stroke-width: 1.0; stroke-dasharray: 5.0,5.0;" x1="1305" x2="1305" y1="98.2188" y2="1196.1719"/><text fill="#000000" font-family="sans-serif" font-size="14" lengthAdjust="spacingAndGlyphs" textLength="50" x="23" y="95.1426">Amazon</text><ellipse cx="51" cy="64.6094" fill="#F8F8F8" filter="url(#fagn0kd)" rx="12" ry="12" style="stroke: #383838; stroke-width: 2.0;"/><line style="stroke: #383838; stroke-width: 2.0;" x1="39" x2="63" y1="78.6094" y2="78.6094"/><text fill="#000000" font-family="sans-serif" font-size="14" lengthAdjust="spacingAndGlyphs" textLength="50" x="23" y="1209.7051">Amazon</text><ellipse cx="51" cy="1228.7813" fill="#F8F8F8" filter="url(#fagn0kd)" rx="12" ry="12" style="stroke: #383838; stroke-width: 2.0;"/><line style="stroke: #383838; stroke-width: 2.0;" x1="39" x2="63" y1="1242.7813" y2="1242.7813"/><text fill="#000000" font-family="sans-serif" font-size="14" lengthAdjust="spacingAndGlyphs" textLength="28" x="89" y="95.1426">楽天</text><ellipse cx="106" cy="64.6094" fill="#F8F8F8" filter="url(#fagn0kd)" rx="12" ry="12" style="stroke: #383838; stroke-width: 2.0;"/><line style="stroke: #383838; stroke-width: 2.0;" x1="94" x2="118" y1="78.6094" y2="78.6094"/><text fill="#000000" font-family="sans-serif" font-size="14" lengthAdjust="spacingAndGlyphs" textLength="28" x="89" y="1209.7051">楽天</text><ellipse cx="106" cy="1228.7813" fill="#F8F8F8" filter="url(#fagn0kd)" rx="12" ry="12" style="stroke: #383838; stroke-width: 2.0;"/><line style="stroke: #383838; stroke-width: 2.0;" x1="94" x2="118" y1="1242.7813" y2="1242.7813"/><text fill="#000000" font-family="sans-serif" font-size="14" lengthAdjust="spacingAndGlyphs" textLength="41" x="133" y="95.1426">Yahoo</text><ellipse cx="156.5" cy="64.6094" fill="#F8F8F8" filter="url(#fagn0kd)" rx="12" ry="12" style="stroke: #383838; stroke-width: 2.0;"/><line style="stroke: #383838; stroke-width: 2.0;" x1="144.5" x2="168.5" y1="78.6094" y2="78.6094"/><text fill="#000000" font-family="sans-serif" font-size="14" lengthAdjust="spacingAndGlyphs" textLength="41" x="133" y="1209.7051">Yahoo</text><ellipse cx="156.5" cy="1228.7813" fill="#F8F8F8" filter="url(#fagn0kd)" rx="12" ry="12" style="stroke: #383838; stroke-width: 2.0;"/><line style="stroke: #383838; stroke-width: 2.0;" x1="144.5" x2="168.5" y1="1242.7813" y2="1242.7813"/><rect fill="#F8F8F8" filter="url(#fagn0kd)" height="31.6094" style="stroke: #383838; stroke-width: 1.5;" width="99" x="199" y="61.6094"/><text fill="#000000" font-family="sans-serif" font-size="14" lengthAdjust="spacingAndGlyphs" textLength="85" x="206" y="83.1426">CROSSMALL</text><rect fill="#F8F8F8" filter="url(#fagn0kd)" height="31.6094" style="stroke: #383838; stroke-width: 1.5;" width="99" x="199" y="1195.1719"/><text fill="#000000" font-family="sans-serif" font-size="14" lengthAdjust="spacingAndGlyphs" textLength="85" x="206" y="1216.7051">CROSSMALL</text><text fill="#000000" font-family="sans-serif" font-size="14" lengthAdjust="spacingAndGlyphs" textLength="140" x="312" y="95.1426">ピッキングシート生成</text><path d="M364.5,52.6094 L364.5,76.6094 M364.5,64.6094 L381.5,64.6094 " fill="#F8F8F8" filter="url(#fagn0kd)" style="stroke: #383838; stroke-width: 2.0;"/><ellipse cx="393.5" cy="64.6094" fill="#F8F8F8" filter="url(#fagn0kd)" rx="12" ry="12" style="stroke: #383838; stroke-width: 2.0;"/><text fill="#000000" font-family="sans-serif" font-size="14" lengthAdjust="spacingAndGlyphs" textLength="140" x="312" y="1209.7051">ピッキングシート生成</text><path d="M364.5,1216.7813 L364.5,1240.7813 M364.5,1228.7813 L381.5,1228.7813 " fill="#F8F8F8" filter="url(#fagn0kd)" style="stroke: #383838; stroke-width: 2.0;"/><ellipse cx="393.5" cy="1228.7813" fill="#F8F8F8" filter="url(#fagn0kd)" rx="12" ry="12" style="stroke: #383838; stroke-width: 2.0;"/><rect fill="#F8F8F8" filter="url(#fagn0kd)" height="31.6094" style="stroke: #383838; stroke-width: 1.5;" width="56" x="497" y="61.6094"/><text fill="#000000" font-family="sans-serif" font-size="14" lengthAdjust="spacingAndGlyphs" textLength="42" x="504" y="83.1426">電算室</text><rect fill="#F8F8F8" filter="url(#fagn0kd)" height="31.6094" style="stroke: #383838; stroke-width: 1.5;" width="56" x="497" y="1195.1719"/><text fill="#000000" font-family="sans-serif" font-size="14" lengthAdjust="spacingAndGlyphs" textLength="42" x="504" y="1216.7051">電算室</text><text fill="#000000" font-family="sans-serif" font-size="14" lengthAdjust="spacingAndGlyphs" textLength="40" x="572" y="95.1426">SLIMS</text><path d="M577,44.6094 C577,34.6094 595,34.6094 595,34.6094 C595,34.6094 613,34.6094 613,44.6094 L613,70.6094 C613,80.6094 595,80.6094 595,80.6094 C595,80.6094 577,80.6094 577,70.6094 L577,44.6094 " fill="#F8F8F8" filter="url(#fagn0kd)" style="stroke: #000000; stroke-width: 1.5;"/><path d="M577,44.6094 C577,54.6094 595,54.6094 595,54.6094 C595,54.6094 613,54.6094 613,44.6094 " fill="none" style="stroke: #000000; stroke-width: 1.5;"/><text fill="#000000" font-family="sans-serif" font-size="14" lengthAdjust="spacingAndGlyphs" textLength="40" x="572" y="1209.7051">SLIMS</text><path d="M577,1222.7813 C577,1212.7813 595,1212.7813 595,1212.7813 C595,1212.7813 613,1212.7813 613,1222.7813 L613,1248.7813 C613,1258.7813 595,1258.7813 595,1258.7813 C595,1258.7813 577,1258.7813 577,1248.7813 L577,1222.7813 " fill="#F8F8F8" filter="url(#fagn0kd)" style="stroke: #000000; stroke-width: 1.5;"/><path d="M577,1222.7813 C577,1232.7813 595,1232.7813 595,1232.7813 C595,1232.7813 613,1232.7813 613,1222.7813 " fill="none" style="stroke: #000000; stroke-width: 1.5;"/><rect fill="#F8F8F8" filter="url(#fagn0kd)" height="31.6094" style="stroke: #383838; stroke-width: 1.5;" width="42" x="628" y="61.6094"/><text fill="#000000" font-family="sans-serif" font-size="14" lengthAdjust="spacingAndGlyphs" textLength="28" x="635" y="83.1426">振分</text><rect fill="#F8F8F8" filter="url(#fagn0kd)" height="31.6094" style="stroke: #383838; stroke-width: 1.5;" width="42" x="628" y="1195.1719"/><text fill="#000000" font-family="sans-serif" font-size="14" lengthAdjust="spacingAndGlyphs" textLength="28" x="635" y="1216.7051">振分</text><text fill="#000000" font-family="sans-serif" font-size="14" lengthAdjust="spacingAndGlyphs" textLength="154" x="684" y="95.1426">受注チェックリスト生成</text><path d="M743.5,52.6094 L743.5,76.6094 M743.5,64.6094 L760.5,64.6094 " fill="#F8F8F8" filter="url(#fagn0kd)" style="stroke: #383838; stroke-width: 2.0;"/><ellipse cx="772.5" cy="64.6094" fill="#F8F8F8" filter="url(#fagn0kd)" rx="12" ry="12" style="stroke: #383838; stroke-width: 2.0;"/><text fill="#000000" font-family="sans-serif" font-size="14" lengthAdjust="spacingAndGlyphs" textLength="154" x="684" y="1209.7051">受注チェックリスト生成</text><path d="M743.5,1216.7813 L743.5,1240.7813 M743.5,1228.7813 L760.5,1228.7813 " fill="#F8F8F8" filter="url(#fagn0kd)" style="stroke: #383838; stroke-width: 2.0;"/><ellipse cx="772.5" cy="1228.7813" fill="#F8F8F8" filter="url(#fagn0kd)" rx="12" ry="12" style="stroke: #383838; stroke-width: 2.0;"/><text fill="#000000" font-family="sans-serif" font-size="14" lengthAdjust="spacingAndGlyphs" textLength="89" x="854" y="95.1426">ハンディ用DB</text><path d="M883.5,44.6094 C883.5,34.6094 901.5,34.6094 901.5,34.6094 C901.5,34.6094 919.5,34.6094 919.5,44.6094 L919.5,70.6094 C919.5,80.6094 901.5,80.6094 901.5,80.6094 C901.5,80.6094 883.5,80.6094 883.5,70.6094 L883.5,44.6094 " fill="#F8F8F8" filter="url(#fagn0kd)" style="stroke: #000000; stroke-width: 1.5;"/><path d="M883.5,44.6094 C883.5,54.6094 901.5,54.6094 901.5,54.6094 C901.5,54.6094 919.5,54.6094 919.5,44.6094 " fill="none" style="stroke: #000000; stroke-width: 1.5;"/><text fill="#000000" font-family="sans-serif" font-size="14" lengthAdjust="spacingAndGlyphs" textLength="89" x="854" y="1209.7051">ハンディ用DB</text><path d="M883.5,1222.7813 C883.5,1212.7813 901.5,1212.7813 901.5,1212.7813 C901.5,1212.7813 919.5,1212.7813 919.5,1222.7813 L919.5,1248.7813 C919.5,1258.7813 901.5,1258.7813 901.5,1258.7813 C901.5,1258.7813 883.5,1258.7813 883.5,1248.7813 L883.5,1222.7813 " fill="#F8F8F8" filter="url(#fagn0kd)" style="stroke: #000000; stroke-width: 1.5;"/><path d="M883.5,1222.7813 C883.5,1232.7813 901.5,1232.7813 901.5,1232.7813 C901.5,1232.7813 919.5,1232.7813 919.5,1222.7813 " fill="none" style="stroke: #000000; stroke-width: 1.5;"/><text fill="#000000" font-family="sans-serif" font-size="14" lengthAdjust="spacingAndGlyphs" textLength="36" x="959" y="95.1426">e飛伝</text><ellipse cx="980" cy="64.6094" fill="#F8F8F8" filter="url(#fagn0kd)" rx="12" ry="12" style="stroke: #383838; stroke-width: 2.0;"/><line style="stroke: #383838; stroke-width: 2.0;" x1="968" x2="992" y1="78.6094" y2="78.6094"/><text fill="#000000" font-family="sans-serif" font-size="14" lengthAdjust="spacingAndGlyphs" textLength="36" x="959" y="1209.7051">e飛伝</text><ellipse cx="980" cy="1228.7813" fill="#F8F8F8" filter="url(#fagn0kd)" rx="12" ry="12" style="stroke: #383838; stroke-width: 2.0;"/><line style="stroke: #383838; stroke-width: 2.0;" x1="968" x2="992" y1="1242.7813" y2="1242.7813"/><text fill="#000000" font-family="sans-serif" font-size="14" lengthAdjust="spacingAndGlyphs" textLength="56" x="1011" y="95.1426">ネコポス</text><ellipse cx="1042" cy="64.6094" fill="#F8F8F8" filter="url(#fagn0kd)" rx="12" ry="12" style="stroke: #383838; stroke-width: 2.0;"/><line style="stroke: #383838; stroke-width: 2.0;" x1="1030" x2="1054" y1="78.6094" y2="78.6094"/><text fill="#000000" font-family="sans-serif" font-size="14" lengthAdjust="spacingAndGlyphs" textLength="56" x="1011" y="1209.7051">ネコポス</text><ellipse cx="1042" cy="1228.7813" fill="#F8F8F8" filter="url(#fagn0kd)" rx="12" ry="12" style="stroke: #383838; stroke-width: 2.0;"/><line style="stroke: #383838; stroke-width: 2.0;" x1="1030" x2="1054" y1="1242.7813" y2="1242.7813"/><rect fill="#F8F8F8" filter="url(#fagn0kd)" height="31.6094" style="stroke: #383838; stroke-width: 1.5;" width="84" x="1083" y="61.6094"/><text fill="#000000" font-family="sans-serif" font-size="14" lengthAdjust="spacingAndGlyphs" textLength="70" x="1090" y="83.1426">ピッキング</text><rect fill="#F8F8F8" filter="url(#fagn0kd)" height="31.6094" style="stroke: #383838; stroke-width: 1.5;" width="84" x="1083" y="1195.1719"/><text fill="#000000" font-family="sans-serif" font-size="14" lengthAdjust="spacingAndGlyphs" textLength="70" x="1090" y="1216.7051">ピッキング</text><rect fill="#F8F8F8" filter="url(#fagn0kd)" height="31.6094" style="stroke: #383838; stroke-width: 1.5;" width="42" x="1181" y="61.6094"/><text fill="#000000" font-family="sans-serif" font-size="14" lengthAdjust="spacingAndGlyphs" textLength="28" x="1188" y="83.1426">梱包</text><rect fill="#F8F8F8" filter="url(#fagn0kd)" height="31.6094" style="stroke: #383838; stroke-width: 1.5;" width="42" x="1181" y="1195.1719"/><text fill="#000000" font-family="sans-serif" font-size="14" lengthAdjust="spacingAndGlyphs" textLength="28" x="1188" y="1216.7051">梱包</text><rect fill="#F8F8F8" filter="url(#fagn0kd)" height="31.6094" style="stroke: #383838; stroke-width: 1.5;" width="42" x="1282" y="61.6094"/><text fill="#000000" font-family="sans-serif" font-size="14" lengthAdjust="spacingAndGlyphs" textLength="28" x="1289" y="83.1426">出荷</text><rect fill="#F8F8F8" filter="url(#fagn0kd)" height="31.6094" style="stroke: #383838; stroke-width: 1.5;" width="42" x="1282" y="1195.1719"/><text fill="#000000" font-family="sans-serif" font-size="14" lengthAdjust="spacingAndGlyphs" textLength="28" x="1289" y="1216.7051">出荷</text><rect fill="#FFFFFF" filter="url(#fagn0kd)" height="30.3516" style="stroke: #383838; stroke-width: 1.0;" width="10" x="46" y="155.5703"/><rect fill="#FFFFFF" filter="url(#fagn0kd)" height="30.3516" style="stroke: #383838; stroke-width: 1.0;" width="10" x="101" y="216.2734"/><rect fill="#FFFFFF" filter="url(#fagn0kd)" height="30.3516" style="stroke: #383838; stroke-width: 1.0;" width="10" x="151.5" y="276.9766"/><rect fill="#FFFFFF" filter="url(#fagn0kd)" height="146.7578" style="stroke: #383838; stroke-width: 1.0;" width="10" x="245.5" y="1024.0625"/><rect fill="#FFFFFF" filter="url(#fagn0kd)" height="121.4063" style="stroke: #383838; stroke-width: 1.0;" width="10" x="380" y="389.0313"/><rect fill="#FFFFFF" filter="url(#fagn0kd)" height="91.0547" style="stroke: #383838; stroke-width: 1.0;" width="10" x="646" y="767.25"/><rect fill="#FFFFFF" filter="url(#fagn0kd)" height="91.0547" style="stroke: #383838; stroke-width: 1.0;" width="10" x="1122" y="736.8984"/><rect fill="#FFFFFF" filter="url(#fagn0kd)" height="91.0547" style="stroke: #383838; stroke-width: 1.0;" width="10" x="1199" y="858.3047"/><rect fill="none" height="200.4609" style="stroke: #000000; stroke-width: 2.0;" width="299" x="13" y="115.2188"/><polygon fill="#EEEEEE" points="13,115.2188,86,115.2188,86,123.2188,76,133.2188,13,133.2188,13,115.2188" style="stroke: #000000; stroke-width: 2.0;"/><text fill="#000000" font-family="sans-serif" font-size="13" font-weight="bold" lengthAdjust="spacingAndGlyphs" textLength="28" x="28" y="129.7139">loop</text><text fill="#000000" font-family="sans-serif" font-size="11" font-weight="bold" lengthAdjust="spacingAndGlyphs" textLength="56" x="101" y="128.6377">[常時取得]</text><polygon fill="#383838" points="67,151.5703,57,155.5703,67,159.5703,63,155.5703" style="stroke: #383838; stroke-width: 1.0;"/><line style="stroke: #383838; stroke-width: 1.0;" x1="61" x2="249.5" y1="155.5703" y2="155.5703"/><text fill="#000000" font-family="sans-serif" font-size="13" lengthAdjust="spacingAndGlyphs" textLength="21" x="73" y="151.0654">API</text><polygon fill="#383838" points="238.5,181.9219,248.5,185.9219,238.5,189.9219,242.5,185.9219" style="stroke: #383838; stroke-width: 1.0;"/><line style="stroke: #383838; stroke-width: 1.0; stroke-dasharray: 2.0,2.0;" x1="51" x2="244.5" y1="185.9219" y2="185.9219"/><text fill="#000000" font-family="sans-serif" font-size="13" lengthAdjust="spacingAndGlyphs" textLength="65" x="58" y="181.417">受注データ</text><polygon fill="#383838" points="122,212.2734,112,216.2734,122,220.2734,118,216.2734" style="stroke: #383838; stroke-width: 1.0;"/><line style="stroke: #383838; stroke-width: 1.0;" x1="116" x2="249.5" y1="216.2734" y2="216.2734"/><text fill="#000000" font-family="sans-serif" font-size="13" lengthAdjust="spacingAndGlyphs" textLength="21" x="128" y="211.7686">API</text><polygon fill="#383838" points="238.5,242.625,248.5,246.625,238.5,250.625,242.5,246.625" style="stroke: #383838; stroke-width: 1.0;"/><line style="stroke: #383838; stroke-width: 1.0; stroke-dasharray: 2.0,2.0;" x1="106" x2="244.5" y1="246.625" y2="246.625"/><text fill="#000000" font-family="sans-serif" font-size="13" lengthAdjust="spacingAndGlyphs" textLength="65" x="113" y="242.1201">受注データ</text><polygon fill="#383838" points="172.5,272.9766,162.5,276.9766,172.5,280.9766,168.5,276.9766" style="stroke: #383838; stroke-width: 1.0;"/><line style="stroke: #383838; stroke-width: 1.0;" x1="166.5" x2="249.5" y1="276.9766" y2="276.9766"/><text fill="#000000" font-family="sans-serif" font-size="13" lengthAdjust="spacingAndGlyphs" textLength="21" x="178.5" y="272.4717">API</text><polygon fill="#383838" points="238.5,303.3281,248.5,307.3281,238.5,311.3281,242.5,307.3281" style="stroke: #383838; stroke-width: 1.0;"/><line style="stroke: #383838; stroke-width: 1.0; stroke-dasharray: 2.0,2.0;" x1="156.5" x2="244.5" y1="307.3281" y2="307.3281"/><text fill="#000000" font-family="sans-serif" font-size="13" lengthAdjust="spacingAndGlyphs" textLength="65" x="163.5" y="302.8232">受注データ</text><rect fill="#EEEEEE" filter="url(#fagn0kd)" height="3" style="stroke: #EEEEEE; stroke-width: 1.0;" width="1330" x="3" y="343.8555"/><line style="stroke: #000000; stroke-width: 1.0;" x1="3" x2="1333" y1="343.8555" y2="343.8555"/><line style="stroke: #000000; stroke-width: 1.0;" x1="3" x2="1333" y1="346.8555" y2="346.8555"/><rect fill="#EEEEEE" filter="url(#fagn0kd)" height="24.3516" style="stroke: #000000; stroke-width: 2.0;" width="121" x="607.5" y="332.6797"/><text fill="#000000" font-family="sans-serif" font-size="13" font-weight="bold" lengthAdjust="spacingAndGlyphs" textLength="103" x="613.5" y="350.1748">8:00 ～ 受注取込</text><polygon fill="#383838" points="368,385.0313,378,389.0313,368,393.0313,372,389.0313" style="stroke: #383838; stroke-width: 1.0;"/><line style="stroke: #383838; stroke-width: 1.0;" x1="250.5" x2="374" y1="389.0313" y2="389.0313"/><text fill="#000000" font-family="sans-serif" font-size="13" lengthAdjust="spacingAndGlyphs" textLength="27" x="257.5" y="384.5264">CSV</text><polygon fill="#383838" points="515,415.3828,525,419.3828,515,423.3828,519,419.3828" style="stroke: #383838; stroke-width: 1.0;"/><line style="stroke: #383838; stroke-width: 1.0;" x1="390" x2="521" y1="419.3828" y2="419.3828"/><text fill="#000000" font-family="sans-serif" font-size="13" lengthAdjust="spacingAndGlyphs" textLength="113" x="397" y="414.8779">Amazonピッキング</text><polygon fill="#383838" points="515,445.7344,525,449.7344,515,453.7344,519,449.7344" style="stroke: #383838; stroke-width: 1.0;"/><line style="stroke: #383838; stroke-width: 1.0;" x1="390" x2="521" y1="449.7344" y2="449.7344"/><text fill="#000000" font-family="sans-serif" font-size="13" lengthAdjust="spacingAndGlyphs" textLength="91" x="397" y="445.2295">楽天ピッキング</text><polygon fill="#383838" points="515,476.0859,525,480.0859,515,484.0859,519,480.0859" style="stroke: #383838; stroke-width: 1.0;"/><line style="stroke: #383838; stroke-width: 1.0;" x1="390" x2="521" y1="480.0859" y2="480.0859"/><text fill="#000000" font-family="sans-serif" font-size="13" lengthAdjust="spacingAndGlyphs" textLength="102" x="397" y="475.5811">Yahooピッキング</text><polygon fill="#383838" points="639,506.4375,649,510.4375,639,514.4375,643,510.4375" style="stroke: #383838; stroke-width: 1.0;"/><line style="stroke: #383838; stroke-width: 1.0;" x1="385" x2="645" y1="510.4375" y2="510.4375"/><text fill="#000000" font-family="sans-serif" font-size="13" lengthAdjust="spacingAndGlyphs" textLength="117" x="392" y="505.9326">振分け用商品リスト</text><polygon fill="#383838" points="583,536.7891,593,540.7891,583,544.7891,587,540.7891" style="stroke: #383838; stroke-width: 1.0;"/><line style="stroke: #383838; stroke-width: 1.0;" x1="527" x2="589" y1="540.7891" y2="540.7891"/><text fill="#000000" font-family="sans-serif" font-size="13" lengthAdjust="spacingAndGlyphs" textLength="44" x="534" y="536.2842">DB投入</text><polygon fill="#383838" points="396,567.1406,386,571.1406,396,575.1406,392,571.1406" style="stroke: #383838; stroke-width: 1.0;"/><line style="stroke: #383838; stroke-width: 1.0;" x1="390" x2="763" y1="571.1406" y2="571.1406"/><text fill="#000000" font-family="sans-serif" font-size="13" lengthAdjust="spacingAndGlyphs" textLength="91" x="402" y="566.6357">楽天データ取得</text><polygon fill="#383838" points="889.5,597.4922,899.5,601.4922,889.5,605.4922,893.5,601.4922" style="stroke: #383838; stroke-width: 1.0;"/><line style="stroke: #383838; stroke-width: 1.0;" x1="764" x2="895.5" y1="601.4922" y2="601.4922"/><text fill="#000000" font-family="sans-serif" font-size="13" lengthAdjust="spacingAndGlyphs" textLength="44" x="771" y="596.9873">DB投入</text><polygon fill="#383838" points="968,627.8438,978,631.8438,968,635.8438,972,631.8438" style="stroke: #383838; stroke-width: 1.0;"/><line style="stroke: #383838; stroke-width: 1.0;" x1="250.5" x2="974" y1="631.8438" y2="631.8438"/><text fill="#000000" font-family="sans-serif" font-size="13" lengthAdjust="spacingAndGlyphs" textLength="67" x="257.5" y="627.3389">CSV_e飛伝</text><polygon fill="#383838" points="1030,658.1953,1040,662.1953,1030,666.1953,1034,662.1953" style="stroke: #383838; stroke-width: 1.0;"/><line style="stroke: #383838; stroke-width: 1.0;" x1="250.5" x2="1036" y1="662.1953" y2="662.1953"/><text fill="#000000" font-family="sans-serif" font-size="13" lengthAdjust="spacingAndGlyphs" textLength="89" x="257.5" y="657.6904">CSV_ヤマトB2</text><rect fill="#EEEEEE" filter="url(#fagn0kd)" height="3" style="stroke: #EEEEEE; stroke-width: 1.0;" width="1330" x="3" y="691.7227"/><line style="stroke: #000000; stroke-width: 1.0;" x1="3" x2="1333" y1="691.7227" y2="691.7227"/><line style="stroke: #000000; stroke-width: 1.0;" x1="3" x2="1333" y1="694.7227" y2="694.7227"/><rect fill="#EEEEEE" filter="url(#fagn0kd)" height="24.3516" style="stroke: #000000; stroke-width: 2.0;" width="131" x="602.5" y="680.5469"/><text fill="#000000" font-family="sans-serif" font-size="13" font-weight="bold" lengthAdjust="spacingAndGlyphs" textLength="113" x="608.5" y="698.042">9:30～ 振分・梱包</text><polygon fill="#383838" points="606,732.8984,596,736.8984,606,740.8984,602,736.8984" style="stroke: #383838; stroke-width: 1.0;"/><line style="stroke: #383838; stroke-width: 1.0; stroke-dasharray: 2.0,2.0;" x1="600" x2="1121" y1="736.8984" y2="736.8984"/><text fill="#000000" font-family="sans-serif" font-size="13" lengthAdjust="spacingAndGlyphs" textLength="52" x="612" y="732.3936">ハンディ</text><polygon fill="#383838" points="667,763.25,657,767.25,667,771.25,663,767.25" style="stroke: #383838; stroke-width: 1.0;"/><line style="stroke: #383838; stroke-width: 1.0;" x1="661" x2="979" y1="767.25" y2="767.25"/><text fill="#000000" font-family="sans-serif" font-size="13" lengthAdjust="spacingAndGlyphs" textLength="65" x="673" y="762.7451">佐川送り状</text><polygon fill="#383838" points="634,793.6016,644,797.6016,634,801.6016,638,797.6016" style="stroke: #383838; stroke-width: 1.0;"/><line style="stroke: #383838; stroke-width: 1.0;" x1="250.5" x2="640" y1="797.6016" y2="797.6016"/><text fill="#000000" font-family="sans-serif" font-size="13" lengthAdjust="spacingAndGlyphs" textLength="39" x="257.5" y="793.0967">納品書</text><polygon fill="#383838" points="667,823.9531,657,827.9531,667,831.9531,663,827.9531" style="stroke: #383838; stroke-width: 1.0;"/><line style="stroke: #383838; stroke-width: 1.0;" x1="661" x2="1126" y1="827.9531" y2="827.9531"/><text fill="#000000" font-family="sans-serif" font-size="13" lengthAdjust="spacingAndGlyphs" textLength="26" x="673" y="823.4482">商品</text><polygon fill="#383838" points="1187,854.3047,1197,858.3047,1187,862.3047,1191,858.3047" style="stroke: #383838; stroke-width: 1.0;"/><line style="stroke: #383838; stroke-width: 1.0;" x1="651" x2="1193" y1="858.3047" y2="858.3047"/><text fill="#000000" font-family="sans-serif" font-size="13" lengthAdjust="spacingAndGlyphs" textLength="78" x="658" y="853.7998">商品・納品書</text><polygon fill="#383838" points="1187,884.6563,1197,888.6563,1187,892.6563,1191,888.6563" style="stroke: #383838; stroke-width: 1.0;"/><line style="stroke: #383838; stroke-width: 1.0;" x1="1042" x2="1193" y1="888.6563" y2="888.6563"/><text fill="#000000" font-family="sans-serif" font-size="13" lengthAdjust="spacingAndGlyphs" textLength="91" x="1049" y="884.1514">ネコポス送り状</text><polygon fill="#383838" points="912.5,915.0078,902.5,919.0078,912.5,923.0078,908.5,919.0078" style="stroke: #383838; stroke-width: 1.0;"/><line style="stroke: #383838; stroke-width: 1.0; stroke-dasharray: 2.0,2.0;" x1="906.5" x2="1198" y1="919.0078" y2="919.0078"/><text fill="#000000" font-family="sans-serif" font-size="13" lengthAdjust="spacingAndGlyphs" textLength="169" x="918.5" y="914.5029">注文内容・出荷商品チェック</text><polygon fill="#383838" points="1293,945.3594,1303,949.3594,1293,953.3594,1297,949.3594" style="stroke: #383838; stroke-width: 1.0;"/><line style="stroke: #383838; stroke-width: 1.0;" x1="1204" x2="1299" y1="949.3594" y2="949.3594"/><text fill="#000000" font-family="sans-serif" font-size="13" lengthAdjust="spacingAndGlyphs" textLength="72" x="1211" y="944.8545">梱包済_商品</text><rect fill="#EEEEEE" filter="url(#fagn0kd)" height="3" style="stroke: #EEEEEE; stroke-width: 1.0;" width="1330" x="3" y="978.8867"/><line style="stroke: #000000; stroke-width: 1.0;" x1="3" x2="1333" y1="978.8867" y2="978.8867"/><line style="stroke: #000000; stroke-width: 1.0;" x1="3" x2="1333" y1="981.8867" y2="981.8867"/><rect fill="#EEEEEE" filter="url(#fagn0kd)" height="24.3516" style="stroke: #000000; stroke-width: 2.0;" width="124" x="606" y="967.7109"/><text fill="#000000" font-family="sans-serif" font-size="13" font-weight="bold" lengthAdjust="spacingAndGlyphs" textLength="106" x="612" y="985.2061">16:00～ 出荷通知</text><polygon fill="#383838" points="266.5,1020.0625,256.5,1024.0625,266.5,1028.0625,262.5,1024.0625" style="stroke: #383838; stroke-width: 1.0;"/><line style="stroke: #383838; stroke-width: 1.0;" x1="260.5" x2="979" y1="1024.0625" y2="1024.0625"/><text fill="#000000" font-family="sans-serif" font-size="13" lengthAdjust="spacingAndGlyphs" textLength="99" x="272.5" y="1019.5576">CSV_送り状番号</text><polygon fill="#383838" points="266.5,1050.4141,256.5,1054.4141,266.5,1058.4141,262.5,1054.4141" style="stroke: #383838; stroke-width: 1.0;"/><line style="stroke: #383838; stroke-width: 1.0;" x1="260.5" x2="1041" y1="1054.4141" y2="1054.4141"/><text fill="#000000" font-family="sans-serif" font-size="13" lengthAdjust="spacingAndGlyphs" textLength="99" x="272.5" y="1049.9092">CSV_送り状番号</text><rect fill="none" height="109.4063" style="stroke: #000000; stroke-width: 2.0;" width="299" x="13" y="1069.7656"/><polygon fill="#EEEEEE" points="13,1069.7656,86,1069.7656,86,1077.7656,76,1087.7656,13,1087.7656,13,1069.7656" style="stroke: #000000; stroke-width: 2.0;"/><text fill="#000000" font-family="sans-serif" font-size="13" font-weight="bold" lengthAdjust="spacingAndGlyphs" textLength="28" x="28" y="1084.2607">loop</text><text fill="#000000" font-family="sans-serif" font-size="11" font-weight="bold" lengthAdjust="spacingAndGlyphs" textLength="74" x="101" y="1083.1846">[APIにて実行]</text><polygon fill="#383838" points="62,1106.1172,52,1110.1172,62,1114.1172,58,1110.1172" style="stroke: #383838; stroke-width: 1.0;"/><line style="stroke: #383838; stroke-width: 1.0;" x1="56" x2="244.5" y1="1110.1172" y2="1110.1172"/><text fill="#000000" font-family="sans-serif" font-size="13" lengthAdjust="spacingAndGlyphs" textLength="65" x="68" y="1105.6123">送り状番号</text><polygon fill="#383838" points="117,1136.4688,107,1140.4688,117,1144.4688,113,1140.4688" style="stroke: #383838; stroke-width: 1.0;"/><line style="stroke: #383838; stroke-width: 1.0;" x1="111" x2="244.5" y1="1140.4688" y2="1140.4688"/><text fill="#000000" font-family="sans-serif" font-size="13" lengthAdjust="spacingAndGlyphs" textLength="65" x="123" y="1135.9639">送り状番号</text><polygon fill="#383838" points="167.5,1166.8203,157.5,1170.8203,167.5,1174.8203,163.5,1170.8203" style="stroke: #383838; stroke-width: 1.0;"/><line style="stroke: #383838; stroke-width: 1.0;" x1="161.5" x2="249.5" y1="1170.8203" y2="1170.8203"/><text fill="#000000" font-family="sans-serif" font-size="13" lengthAdjust="spacingAndGlyphs" textLength="65" x="173.5" y="1166.3154">送り状番号</text></g></svg>