<?xml version="1.0" encoding="UTF-8" standalone="no"?><svg xmlns="http://www.w3.org/2000/svg" xmlns:xlink="http://www.w3.org/1999/xlink" contentScriptType="application/ecmascript" contentStyleType="text/css" height="1253px" preserveAspectRatio="none" style="width:1093px;height:1253px;" version="1.1" viewBox="0 0 1093 1253" width="1093px" zoomAndPan="magnify"><defs><filter height="300%" id="fdqkjg2x90vyc" width="300%" x="-1" y="-1"><feGaussianBlur result="blurOut" stdDeviation="2.0"/><feColorMatrix in="blurOut" result="blurOut2" type="matrix" values="0 0 0 0 0 0 0 0 0 0 0 0 0 0 0 0 0 0 .4 0"/><feOffset dx="4.0" dy="4.0" in="blurOut2" result="blurOut3"/><feBlend in="SourceGraphic" in2="blurOut3" mode="normal"/></filter></defs><g><text fill="#000000" font-family="sans-serif" font-size="18" lengthAdjust="spacingAndGlyphs" textLength="180" x="470" y="18.6855">手配データ作成フロー</text><!--cluster 手配データ作成excel--><polygon fill="#FFFFFF" filter="url(#fdqkjg2x90vyc)" points="290,116.6406,439,116.6406,446,140.25,582,140.25,582,647.6406,290,647.6406,290,116.6406" style="stroke: #000000; stroke-width: 2.0;"/><line style="stroke: #000000; stroke-width: 2.0;" x1="290" x2="446" y1="140.25" y2="140.25"/><text fill="#000000" font-family="sans-serif" font-size="14" font-weight="bold" lengthAdjust="spacingAndGlyphs" textLength="143" x="294" y="133.1738">手配データ作成excel</text><!--cluster 新 Magic--><polygon fill="#FFFFFF" filter="url(#fdqkjg2x90vyc)" points="143,680.6406,210,680.6406,217,704.25,992,704.25,992,916.6406,143,916.6406,143,680.6406" style="stroke: #000000; stroke-width: 2.0;"/><line style="stroke: #000000; stroke-width: 2.0;" x1="143" x2="217" y1="704.25" y2="704.25"/><text fill="#000000" font-family="sans-serif" font-size="14" font-weight="bold" lengthAdjust="spacingAndGlyphs" textLength="61" x="147" y="697.1738">新 Magic</text><!--cluster 起案サブシステム--><polygon fill="#FFFFFF" filter="url(#fdqkjg2x90vyc)" points="842,560.6406,968,560.6406,975,584.25,978,584.25,978,647.6406,842,647.6406,842,560.6406" style="stroke: #000000; stroke-width: 2.0;"/><line style="stroke: #000000; stroke-width: 2.0;" x1="842" x2="975" y1="584.25" y2="584.25"/><text fill="#000000" font-family="sans-serif" font-size="14" font-weight="bold" lengthAdjust="spacingAndGlyphs" textLength="120" x="846" y="577.1738">起案サブシステム</text><!--cluster 商魂--><polygon fill="#FFFFFF" filter="url(#fdqkjg2x90vyc)" points="22,116.6406,58,116.6406,65,140.25,266,140.25,266,203.6406,22,203.6406,22,116.6406" style="stroke: #000000; stroke-width: 2.0;"/><line style="stroke: #000000; stroke-width: 2.0;" x1="22" x2="65" y1="140.25" y2="140.25"/><text fill="#000000" font-family="sans-serif" font-size="14" font-weight="bold" lengthAdjust="spacingAndGlyphs" textLength="30" x="26" y="133.1738">商魂</text><!--cluster 発注用商品情報--><polygon fill="#FFFFFF" filter="url(#fdqkjg2x90vyc)" points="636,326.6406,747,326.6406,754,350.25,1086,350.25,1086,437.6406,636,437.6406,636,326.6406" style="stroke: #000000; stroke-width: 2.0;"/><line style="stroke: #000000; stroke-width: 2.0;" x1="636" x2="754" y1="350.25" y2="350.25"/><text fill="#000000" font-family="sans-serif" font-size="14" font-weight="bold" lengthAdjust="spacingAndGlyphs" textLength="105" x="640" y="343.1738">発注用商品情報</text><!--cluster Faxサーバ--><polygon fill="#FFFFFF" filter="url(#fdqkjg2x90vyc)" points="252,949.6406,328,949.6406,335,973.25,386,973.25,386,1126.6406,252,1126.6406,252,949.6406" style="stroke: #000000; stroke-width: 2.0;"/><line style="stroke: #000000; stroke-width: 2.0;" x1="252" x2="335" y1="973.25" y2="973.25"/><text fill="#000000" font-family="sans-serif" font-size="14" font-weight="bold" lengthAdjust="spacingAndGlyphs" textLength="70" x="256" y="966.1738">Faxサーバ</text><!--cluster 仕入先 企業--><polygon fill="#FFFFFF" filter="url(#fdqkjg2x90vyc)" points="351,1159.6406,436,1159.6406,443,1183.25,446,1183.25,446,1246.6406,351,1246.6406,351,1159.6406" style="stroke: #000000; stroke-width: 2.0;"/><line style="stroke: #000000; stroke-width: 2.0;" x1="351" x2="443" y1="1183.25" y2="1183.25"/><text fill="#000000" font-family="sans-serif" font-size="14" font-weight="bold" lengthAdjust="spacingAndGlyphs" textLength="79" x="355" y="1176.1738">仕入先 企業</text><rect fill="#F8F8F8" filter="url(#fdqkjg2x90vyc)" height="35.0938" rx="12.5" ry="12.5" style="stroke: #383838; stroke-width: 1.5;" width="80" x="464" y="152.6406"/><text fill="#000000" font-family="sans-serif" font-size="12" lengthAdjust="spacingAndGlyphs" textLength="60" x="474" y="175.0977">データ読込</text><rect fill="#F8F8F8" filter="url(#fdqkjg2x90vyc)" height="35.0938" rx="12.5" ry="12.5" style="stroke: #383838; stroke-width: 1.5;" width="122" x="443" y="254.6406"/><text fill="#000000" font-family="sans-serif" font-size="12" lengthAdjust="spacingAndGlyphs" textLength="102" x="453" y="277.0977">商品別 不足数 集計</text><rect fill="#F8F8F8" filter="url(#fdqkjg2x90vyc)" height="35.0938" rx="12.5" ry="12.5" style="stroke: #383838; stroke-width: 1.5;" width="128" x="436" y="374.6406"/><text fill="#000000" font-family="sans-serif" font-size="12" lengthAdjust="spacingAndGlyphs" textLength="108" x="446" y="397.0977">発注数量決定シート</text><polygon fill="#F8F8F8" filter="url(#fdqkjg2x90vyc)" points="498,480.1406,510,492.1406,498,504.1406,486,492.1406,498,480.1406" style="stroke: #383838; stroke-width: 1.5;"/><rect fill="#F8F8F8" filter="url(#fdqkjg2x90vyc)" height="35.0938" rx="12.5" ry="12.5" style="stroke: #383838; stroke-width: 1.5;" width="136" x="430" y="596.6406"/><text fill="#000000" font-family="sans-serif" font-size="12" lengthAdjust="spacingAndGlyphs" textLength="116" x="440" y="619.0977">Magic読込用ファイル</text><rect fill="#F8F8F8" filter="url(#fdqkjg2x90vyc)" height="35.0938" rx="12.5" ry="12.5" style="stroke: #383838; stroke-width: 1.5;" width="104" x="306" y="596.6406"/><text fill="#000000" font-family="sans-serif" font-size="12" lengthAdjust="spacingAndGlyphs" textLength="84" x="316" y="619.0977">手入力用リスト</text><rect fill="#F8F8F8" filter="url(#fdqkjg2x90vyc)" height="35.0938" rx="12.5" ry="12.5" style="stroke: #383838; stroke-width: 1.5;" width="76" x="454" y="753.1406"/><text fill="#000000" font-family="sans-serif" font-size="12" lengthAdjust="spacingAndGlyphs" textLength="56" x="464" y="775.5977">Magic読込</text><polygon fill="#ECECEC" filter="url(#fdqkjg2x90vyc)" points="569.5,716.6406,569.5,824.75,824.5,824.75,824.5,726.6406,814.5,716.6406,569.5,716.6406" style="stroke: #383838; stroke-width: 1.0;"/><polygon fill="#ECECEC" points="569.5,716.6406,569.5,766.6406,530.037,770.6406,569.5,774.6406,569.5,824.75,824.5,824.75,824.5,726.6406,814.5,716.6406,569.5,716.6406" style="stroke: #383838; stroke-width: 1.0;"/><line style="stroke: #383838; stroke-width: 1.0;" x1="814.5" x2="814.5" y1="716.6406" y2="726.6406"/><line style="stroke: #383838; stroke-width: 1.0;" x1="824.5" x2="814.5" y1="726.6406" y2="726.6406"/><text fill="#000000" font-family="sans-serif" font-size="13" lengthAdjust="spacingAndGlyphs" textLength="52" x="575.5" y="735.1357">必要項目</text><text fill="#000000" font-family="sans-serif" font-size="13" lengthAdjust="spacingAndGlyphs" textLength="102" x="591.5" y="751.4873">倉庫番号 180/187</text><text fill="#000000" font-family="sans-serif" font-size="13" lengthAdjust="spacingAndGlyphs" textLength="33" x="591.5" y="767.8389">6ケタ</text><text fill="#000000" font-family="sans-serif" font-size="13" lengthAdjust="spacingAndGlyphs" textLength="26" x="591.5" y="784.1904">数量</text><text fill="#000000" font-family="sans-serif" font-size="13" lengthAdjust="spacingAndGlyphs" textLength="182" x="575.5" y="800.542">※ 他に必要なデータはMagicが</text><text fill="#000000" font-family="sans-serif" font-size="13" lengthAdjust="spacingAndGlyphs" textLength="234" x="575.5" y="816.8936">商品マスタ・仕入先マスタから引っ張る</text><rect fill="#F8F8F8" filter="url(#fdqkjg2x90vyc)" height="35.0938" rx="12.5" ry="12.5" style="stroke: #383838; stroke-width: 1.5;" width="104" x="338" y="865.6406"/><text fill="#000000" font-family="sans-serif" font-size="12" lengthAdjust="spacingAndGlyphs" textLength="84" x="348" y="888.0977">発注データ作成</text><rect fill="#F8F8F8" filter="url(#fdqkjg2x90vyc)" height="35.0938" rx="12.5" ry="12.5" style="stroke: #383838; stroke-width: 1.5;" width="88" x="346" y="753.1406"/><text fill="#000000" font-family="sans-serif" font-size="12" lengthAdjust="spacingAndGlyphs" textLength="68" x="356" y="775.5977">Magic手入力</text><polygon fill="#ECECEC" filter="url(#fdqkjg2x90vyc)" points="159.5,716.6406,159.5,824.75,306.5,824.75,306.5,726.6406,296.5,716.6406,159.5,716.6406" style="stroke: #383838; stroke-width: 1.0;"/><polygon fill="#ECECEC" points="159.5,716.6406,159.5,824.75,306.5,824.75,306.5,774.6406,345.69,770.6406,306.5,766.6406,306.5,726.6406,296.5,716.6406,159.5,716.6406" style="stroke: #383838; stroke-width: 1.0;"/><line style="stroke: #383838; stroke-width: 1.0;" x1="296.5" x2="296.5" y1="716.6406" y2="726.6406"/><line style="stroke: #383838; stroke-width: 1.0;" x1="306.5" x2="296.5" y1="726.6406" y2="726.6406"/><text fill="#000000" font-family="sans-serif" font-size="13" lengthAdjust="spacingAndGlyphs" textLength="126" x="165.5" y="735.1357">手入力でMagicへ入力</text><text fill="#000000" font-family="sans-serif" font-size="13" lengthAdjust="spacingAndGlyphs" textLength="39" x="181.5" y="751.4873">仕入先</text><text fill="#000000" font-family="sans-serif" font-size="13" lengthAdjust="spacingAndGlyphs" textLength="39" x="181.5" y="767.8389">商品名</text><text fill="#000000" font-family="sans-serif" font-size="13" lengthAdjust="spacingAndGlyphs" textLength="24" x="181.5" y="784.1904">JAN</text><text fill="#000000" font-family="sans-serif" font-size="13" lengthAdjust="spacingAndGlyphs" textLength="26" x="181.5" y="800.542">数量</text><text fill="#000000" font-family="sans-serif" font-size="13" lengthAdjust="spacingAndGlyphs" textLength="26" x="181.5" y="816.8936">原価</text><rect fill="#F8F8F8" filter="url(#fdqkjg2x90vyc)" height="35.0938" rx="12.5" ry="12.5" style="stroke: #383838; stroke-width: 1.5;" width="131" x="844.5" y="753.1406"/><text fill="#000000" font-family="sans-serif" font-size="12" lengthAdjust="spacingAndGlyphs" textLength="111" x="854.5" y="775.5977">定期発注 データ読込</text><rect fill="#F8F8F8" filter="url(#fdqkjg2x90vyc)" height="35.0938" rx="12.5" ry="12.5" style="stroke: #383838; stroke-width: 1.5;" width="44" x="888" y="596.6406"/><text fill="#000000" font-family="sans-serif" font-size="12" lengthAdjust="spacingAndGlyphs" textLength="24" x="898" y="619.0977">起案</text><rect fill="#F8F8F8" filter="url(#fdqkjg2x90vyc)" height="35.0938" rx="12.5" ry="12.5" style="stroke: #383838; stroke-width: 1.5;" width="80" x="170" y="152.6406"/><text fill="#000000" font-family="sans-serif" font-size="12" lengthAdjust="spacingAndGlyphs" textLength="60" x="180" y="175.0977">商品マスタ</text><rect fill="#F8F8F8" filter="url(#fdqkjg2x90vyc)" height="35.0938" rx="12.5" ry="12.5" style="stroke: #383838; stroke-width: 1.5;" width="92" x="38" y="152.6406"/><text fill="#000000" font-family="sans-serif" font-size="12" lengthAdjust="spacingAndGlyphs" textLength="72" x="48" y="175.0977">仕入先マスタ</text><rect fill="#F8F8F8" filter="url(#fdqkjg2x90vyc)" height="35.0938" rx="12.5" ry="12.5" style="stroke: #383838; stroke-width: 1.5;" width="68" x="652" y="374.6406"/><text fill="#000000" font-family="sans-serif" font-size="12" lengthAdjust="spacingAndGlyphs" textLength="48" x="662" y="397.0977">商品情報</text><polygon fill="#ECECEC" filter="url(#fdqkjg2x90vyc)" points="760,362.6406,760,421.6953,1070,421.6953,1070,372.6406,1060,362.6406,760,362.6406" style="stroke: #383838; stroke-width: 1.0;"/><polygon fill="#ECECEC" points="760,362.6406,760,388.1406,720.439,392.1406,760,396.1406,760,421.6953,1070,421.6953,1070,372.6406,1060,362.6406,760,362.6406" style="stroke: #383838; stroke-width: 1.0;"/><line style="stroke: #383838; stroke-width: 1.0;" x1="1060" x2="1060" y1="362.6406" y2="372.6406"/><line style="stroke: #383838; stroke-width: 1.0;" x1="1070" x2="1060" y1="372.6406" y2="372.6406"/><text fill="#000000" font-family="sans-serif" font-size="13" lengthAdjust="spacingAndGlyphs" textLength="91" x="766" y="381.1357">発注用商品情報</text><text fill="#000000" font-family="sans-serif" font-size="13" lengthAdjust="spacingAndGlyphs" textLength="273" x="782" y="397.4873">廃番や手配不可の情報が商魂と一致していない</text><text fill="#000000" font-family="sans-serif" font-size="13" lengthAdjust="spacingAndGlyphs" textLength="143" x="782" y="413.8389">仕入先コード入ってない</text><rect fill="#F8F8F8" filter="url(#fdqkjg2x90vyc)" height="35.0938" rx="12.5" ry="12.5" style="stroke: #383838; stroke-width: 1.5;" width="101" x="268.5" y="985.6406"/><text fill="#000000" font-family="sans-serif" font-size="12" lengthAdjust="spacingAndGlyphs" textLength="81" x="278.5" y="1008.0977">FAX手配書作成</text><rect fill="#F8F8F8" filter="url(#fdqkjg2x90vyc)" height="35.0938" rx="12.5" ry="12.5" style="stroke: #383838; stroke-width: 1.5;" width="77" x="289.5" y="1075.6406"/><text fill="#000000" font-family="sans-serif" font-size="12" lengthAdjust="spacingAndGlyphs" textLength="57" x="299.5" y="1098.0977">仕入先FAX</text><rect fill="#F8F8F8" filter="url(#fdqkjg2x90vyc)" height="35.0938" rx="12.5" ry="12.5" style="stroke: #383838; stroke-width: 1.5;" width="44" x="376" y="1195.6406"/><text fill="#000000" font-family="sans-serif" font-size="12" lengthAdjust="spacingAndGlyphs" textLength="24" x="386" y="1218.0977">受注</text><rect fill="#F8F8F8" filter="url(#fdqkjg2x90vyc)" height="35.0938" rx="12.5" ry="12.5" style="stroke: #383838; stroke-width: 1.5;" width="104" x="598" y="474.6406"/><text fill="#000000" font-family="sans-serif" font-size="12" lengthAdjust="spacingAndGlyphs" textLength="84" x="608" y="497.0977">手配保留リスト</text><rect fill="#F8F8F8" filter="url(#fdqkjg2x90vyc)" height="35.0938" rx="12.5" ry="12.5" style="stroke: #383838; stroke-width: 1.5;" width="203" x="85.5" y="30.6406"/><text fill="#000000" font-family="sans-serif" font-size="12" lengthAdjust="spacingAndGlyphs" textLength="183" x="95.5" y="53.0977">Amazon_棚なしピッキングシート</text><rect fill="#F8F8F8" filter="url(#fdqkjg2x90vyc)" height="35.0938" rx="12.5" ry="12.5" style="stroke: #383838; stroke-width: 1.5;" width="183" x="308.5" y="30.6406"/><text fill="#000000" font-family="sans-serif" font-size="12" lengthAdjust="spacingAndGlyphs" textLength="163" x="318.5" y="53.0977">楽天_棚なしピッキングシート</text><rect fill="#F8F8F8" filter="url(#fdqkjg2x90vyc)" height="35.0938" rx="12.5" ry="12.5" style="stroke: #383838; stroke-width: 1.5;" width="194" x="512" y="30.6406"/><text fill="#000000" font-family="sans-serif" font-size="12" lengthAdjust="spacingAndGlyphs" textLength="174" x="522" y="53.0977">Yahoo_棚なしピッキングシート</text><rect fill="#F8F8F8" filter="url(#fdqkjg2x90vyc)" height="35.0938" rx="12.5" ry="12.5" style="stroke: #383838; stroke-width: 1.5;" width="172" x="726" y="30.6406"/><text fill="#000000" font-family="sans-serif" font-size="12" lengthAdjust="spacingAndGlyphs" textLength="152" x="736" y="53.0977">Amazon卸ピッキングシート</text><polygon fill="#ECECEC" filter="url(#fdqkjg2x90vyc)" points="598.5,140.6406,598.5,199.6953,855.5,199.6953,855.5,150.6406,845.5,140.6406,598.5,140.6406" style="stroke: #383838; stroke-width: 1.0;"/><polygon fill="#ECECEC" points="598.5,140.6406,598.5,199.6953,659.396,199.6953,540.865,254.6106,667.396,199.6953,855.5,199.6953,855.5,150.6406,845.5,140.6406,598.5,140.6406" style="stroke: #383838; stroke-width: 1.0;"/><line style="stroke: #383838; stroke-width: 1.0;" x1="845.5" x2="845.5" y1="140.6406" y2="150.6406"/><line style="stroke: #383838; stroke-width: 1.0;" x1="855.5" x2="845.5" y1="150.6406" y2="150.6406"/><text fill="#000000" font-family="sans-serif" font-size="13" lengthAdjust="spacingAndGlyphs" textLength="156" x="604.5" y="159.1357">ロット数は商魂合わせる？</text><text fill="#000000" font-family="sans-serif" font-size="13" lengthAdjust="spacingAndGlyphs" textLength="232" x="608.5" y="175.4873">-&gt; 180番手配は基本ロット手配ではない</text><text fill="#000000" font-family="sans-serif" font-size="13" lengthAdjust="spacingAndGlyphs" textLength="167" x="608.5" y="191.8389">JAN分の仕入先データが要る</text><path d="M504,187.6506 C504,204.5906 504,231.0106 504,249.5906 " fill="none" style="stroke: #383838; stroke-width: 1.0;"/><polygon fill="#383838" points="504,254.6006,508,245.6006,504,249.6006,500,245.6006,504,254.6006" style="stroke: #383838; stroke-width: 1.0;"/><path d="M503.435,289.7966 C502.73,310.6166 501.52,346.3056 500.74,369.2986 " fill="none" style="stroke: #383838; stroke-width: 1.0;"/><polygon fill="#383838" points="500.562,374.5686,504.8657,365.7098,500.732,369.5715,496.8703,365.4378,500.562,374.5686" style="stroke: #383838; stroke-width: 1.0;"/><path d="M499.661,409.7646 C499.289,427.9766 498.697,456.9896 498.329,475.0056 " fill="none" style="stroke: #383838; stroke-width: 1.0;"/><polygon fill="#383838" points="498.223,480.2196,502.4073,471.3038,498.3258,475.2207,494.4089,471.1393,498.223,480.2196" style="stroke: #383838; stroke-width: 1.0;"/><text fill="#000000" font-family="sans-serif" font-size="11" lengthAdjust="spacingAndGlyphs" textLength="75" x="405.0505" y="469.8621">6ケタ 登録有無</text><path d="M498,504.2146 C498,523.9326 498,565.4606 498,591.1616 " fill="none" style="stroke: #383838; stroke-width: 1.0;"/><polygon fill="#383838" points="498,596.3916,502,587.3916,498,591.3916,494,587.3916,498,596.3916" style="stroke: #383838; stroke-width: 1.0;"/><text fill="#000000" font-family="sans-serif" font-size="11" lengthAdjust="spacingAndGlyphs" textLength="44" x="499" y="542.0596">登録有り</text><path d="M491.267,497.6906 C481.382,504.4296 462.442,517.5726 447,529.6406 C421.702,549.4116 395.169,575.0346 377.727,592.6536 " fill="none" style="stroke: #383838; stroke-width: 1.0;"/><polygon fill="#383838" points="373.93,596.5076,383.0957,592.9035,377.439,592.9458,377.3967,587.2891,373.93,596.5076" style="stroke: #383838; stroke-width: 1.0;"/><text fill="#000000" font-family="sans-serif" font-size="11" lengthAdjust="spacingAndGlyphs" textLength="44" x="448" y="542.0596">登録なし</text><path d="M525.445,409.7646 C551.707,426.9226 592.641,453.6666 620.351,471.7696 " fill="none" style="stroke: #383838; stroke-width: 1.0;"/><polygon fill="#383838" points="624.68,474.5986,619.3347,466.3265,620.4946,471.8631,614.958,473.023,624.68,474.5986" style="stroke: #383838; stroke-width: 1.0;"/><path d="M230.745,65.7006 C290.713,88.4006 397.919,128.9806 458.694,151.9906 " fill="none" style="stroke: #383838; stroke-width: 1.0;"/><polygon fill="#383838" points="463.708,153.8906,456.7091,146.9613,459.0324,152.119,453.8746,154.4423,463.708,153.8906" style="stroke: #383838; stroke-width: 1.0;"/><text fill="#000000" font-family="sans-serif" font-size="11" lengthAdjust="spacingAndGlyphs" textLength="66" x="319" y="98.0596">ファイル読込</text><path d="M414.461,65.8306 C433.244,87.5006 466.018,125.3206 486.277,148.6906 " fill="none" style="stroke: #383838; stroke-width: 1.0;"/><polygon fill="#383838" points="489.662,152.6006,486.7951,143.1783,486.3893,148.8205,480.747,148.4147,489.662,152.6006" style="stroke: #383838; stroke-width: 1.0;"/><text fill="#000000" font-family="sans-serif" font-size="11" lengthAdjust="spacingAndGlyphs" textLength="66" x="444" y="98.0596">ファイル読込</text><path d="M594.4,65.8306 C575.437,87.5006 542.347,125.3206 521.893,148.6906 " fill="none" style="stroke: #383838; stroke-width: 1.0;"/><polygon fill="#383838" points="518.476,152.6006,527.4175,148.4715,521.7728,148.8415,521.4028,143.1967,518.476,152.6006" style="stroke: #383838; stroke-width: 1.0;"/><text fill="#000000" font-family="sans-serif" font-size="11" lengthAdjust="spacingAndGlyphs" textLength="66" x="577" y="98.0596">ファイル読込</text><path d="M766.913,65.7406 C734.509,77.0906 689.563,91.6506 649,100.6406 C622.305,106.5606 613.42,98.5706 588,108.6406 C564.434,117.9806 541.337,135.3906 525.346,149.1506 " fill="none" style="stroke: #383838; stroke-width: 1.0;"/><polygon fill="#383838" points="521.437,152.5606,530.8492,149.6606,525.2055,149.2746,525.5915,143.6309,521.437,152.5606" style="stroke: #383838; stroke-width: 1.0;"/><text fill="#000000" font-family="sans-serif" font-size="11" lengthAdjust="spacingAndGlyphs" textLength="66" x="704" y="98.0596">ファイル読込</text><path d="M497.358,631.6746 C496.272,659.6386 494.072,716.2756 492.856,747.5876 " fill="none" style="stroke: #383838; stroke-width: 1.0;"/><polygon fill="#383838" points="492.656,752.7566,497.0027,743.9189,492.8503,747.7604,489.0088,743.608,492.656,752.7566" style="stroke: #383838; stroke-width: 1.0;"/><path d="M476.944,788.4206 C467.524,798.8796 455.109,812.5946 444,824.6406 C432.589,837.0136 419.688,850.7596 409.358,861.7086 " fill="none" style="stroke: #383838; stroke-width: 1.0;"/><polygon fill="#383838" points="405.676,865.6076,414.7632,861.8098,409.1087,861.9721,408.9464,856.3176,405.676,865.6076" style="stroke: #383838; stroke-width: 1.0;"/><path d="M361.425,631.6746 C367.216,659.6386 378.947,716.2756 385.432,747.5876 " fill="none" style="stroke: #383838; stroke-width: 1.0;"/><polygon fill="#383838" points="386.503,752.7566,388.5945,743.1324,385.4889,747.8605,380.7608,744.7549,386.503,752.7566" style="stroke: #383838; stroke-width: 1.0;"/><path d="M390,788.4236 C390,807.6806 390,839.3166 390,860.4336 " fill="none" style="stroke: #383838; stroke-width: 1.0;"/><polygon fill="#383838" points="390,865.5626,394,856.5626,390,860.5626,386,856.5626,390,865.5626" style="stroke: #383838; stroke-width: 1.0;"/><path d="M892.075,788.1546 C877.739,800.3536 856.539,816.2406 835,824.6406 C765.503,851.7436 550.935,870.4756 447.25,878.1926 " fill="none" style="stroke: #383838; stroke-width: 1.0;"/><polygon fill="#383838" points="442.095,878.5736,451.3663,881.8968,447.0813,878.2037,450.7744,873.9187,442.095,878.5736" style="stroke: #383838; stroke-width: 1.0;"/><path d="M910,631.6746 C910,659.6386 910,716.2756 910,747.5876 " fill="none" style="stroke: #383838; stroke-width: 1.0;"/><polygon fill="#383838" points="910,752.7566,914,743.7566,910,747.7566,906,743.7566,910,752.7566" style="stroke: #383838; stroke-width: 1.0;"/><path d="M183.603,187.9606 C159.632,205.5106 128,235.4406 128,271.1406 C128,271.1406 128,271.1406 128,771.6406 C128,859.9186 255.841,878.7846 332.922,882.1366 " fill="none" style="stroke: #383838; stroke-width: 1.0;"/><polygon fill="#383838" points="337.924,882.3356,329.0912,877.9788,332.928,882.1356,328.7712,885.9724,337.924,882.3356" style="stroke: #383838; stroke-width: 1.0;"/><path d="M84.268,187.7706 C84.5642,207.6206 85,241.8006 85,271.1406 C85,271.1406 85,271.1406 85,771.6406 C85,798.0766 92.2356,807.0836 112,824.6406 C144.07,853.1286 261.063,869.4606 332.66,876.9956 " fill="none" style="stroke: #383838; stroke-width: 1.0;"/><polygon fill="#383838" points="337.735,877.5236,329.197,872.6142,332.7618,877.0064,328.3695,880.5713,337.735,877.5236" style="stroke: #383838; stroke-width: 1.0;"/><path d="M130.266,170.1406 C141.7,170.1406 153.134,170.1406 164.568,170.1406 " fill="none" style="stroke: #383838; stroke-width: 1.0;"/><polygon fill="#383838" points="169.821,170.1406,160.821,166.1406,164.821,170.1406,160.821,174.1406,169.821,170.1406" style="stroke: #383838; stroke-width: 1.0;"/><path d="M240.553,187.6806 C255.985,195.6106 275.173,204.8406 293,211.6406 C340.328,229.6906 395.475,245.0606 437.519,255.6506 " fill="none" style="stroke: #383838; stroke-width: 1.0;"/><polygon fill="#383838" points="442.58,256.9206,434.8205,250.8551,437.7296,255.7066,432.8781,258.6157,442.58,256.9206" style="stroke: #383838; stroke-width: 1.0;"/><text fill="#000000" font-family="sans-serif" font-size="11" lengthAdjust="spacingAndGlyphs" textLength="44" x="357" y="232.0596">ロット数</text><path d="M531.987,289.6656 C546.177,298.1576 563.618,308.7726 579,318.6406 C606.09,336.0206 636.415,356.6846 657.844,371.4966 " fill="none" style="stroke: #383838; stroke-width: 1.0;"/><polygon fill="#383838" points="662.008,374.3786,656.8842,365.9675,657.8967,371.533,652.3312,372.5456,662.008,374.3786" style="stroke: #383838; stroke-width: 1.0;"/><path d="M651.805,407.5996 C648.541,408.6266 645.239,409.5036 642,410.1406 C618.538,414.7546 592.652,413.3566 569.478,409.8146 " fill="none" style="stroke: #383838; stroke-width: 1.0;"/><polygon fill="#383838" points="564.269,408.9756,572.5191,414.3548,569.2055,409.77,573.7902,406.4564,564.269,408.9756" style="stroke: #383838; stroke-width: 1.0;"/><text fill="#000000" font-family="sans-serif" font-size="11" lengthAdjust="spacingAndGlyphs" textLength="66" x="575" y="407.5596">登なし仕入先</text><path d="M379.978,900.7966 C367.292,921.8806 345.432,958.2116 331.621,981.1656 " fill="none" style="stroke: #383838; stroke-width: 1.0;"/><polygon fill="#383838" points="328.971,985.5686,337.0378,979.9183,331.5483,981.2841,330.1825,975.7946,328.971,985.5686" style="stroke: #383838; stroke-width: 1.0;"/><path d="M320.693,1020.6926 C322.129,1034.7386 324.201,1054.9976 325.772,1070.3576 " fill="none" style="stroke: #383838; stroke-width: 1.0;"/><polygon fill="#383838" points="326.284,1075.3636,329.3479,1066.0035,325.7755,1070.3896,321.3894,1066.8171,326.284,1075.3636" style="stroke: #383838; stroke-width: 1.0;"/><path d="M337.881,1110.7966 C350.388,1131.8806 371.94,1168.2116 385.557,1191.1652 " fill="none" style="stroke: #383838; stroke-width: 1.0;"/><polygon fill="#383838" points="388.169,1195.5691,387.0169,1185.7879,385.6178,1191.269,380.1367,1189.8698,388.169,1195.5691" style="stroke: #383838; stroke-width: 1.0;"/><path d="M390.408,900.8576 C391.74,955.4746 395.964,1128.6796 397.465,1190.1991 " fill="none" style="stroke: #383838; stroke-width: 1.0;"/><polygon fill="#383838" points="397.593,1195.4578,401.3722,1186.3629,397.471,1190.4593,393.3746,1186.5581,397.593,1195.4578" style="stroke: #383838; stroke-width: 1.0;"/><text fill="#000000" font-family="sans-serif" font-size="11" lengthAdjust="spacingAndGlyphs" textLength="81" x="396" y="1053.0596">EDIでデータ発注</text><!--
@startuml 手配データ作成フロー

title 手配データ作成フロー
skinparam monochrome true

partition 手配データ作成excel {
    "データ読込" - -> "商品別 不足数 集計"

    "商品別 不足数 集計" - -> "発注数量決定シート"
    
    if "6ケタ 登録有無"
        - -> [登録有り] "Magic読込用ファイル"
    else 
        - -> [登録なし] "手入力用リスト"
    end if 
}

"発注数量決定シート" - -> "手配保留リスト"

"Amazon_棚なしピッキングシート" - -> [ファイル読込]"データ読込"
"楽天_棚なしピッキングシート" - -> [ファイル読込]"データ読込"
"Yahoo_棚なしピッキングシート" - -> [ファイル読込]"データ読込"
"Amazon卸ピッキングシート"- -> [ファイル読込]"データ読込"

Partition "新 Magic" {

    "Magic読込用ファイル" -down-> "Magic読込"
    note right
        必要項目
            倉庫番号 180/187
            6ケタ
            数量
        ※ 他に必要なデータはMagicが
        商品マスタ・仕入先マスタから引っ張る
    end note

    "Magic読込" -down-> "発注データ作成"
        
    "手入力用リスト" - -> "Magic手入力"
    note left
            手入力でMagicへ入力
                仕入先
                商品名
                JAN
                数量
                原価
    end note


    "Magic手入力" - -> "発注データ作成"

    "定期発注 データ読込" - -> "発注データ作成"

}

Partition "起案サブシステム" {
    "起案" - -> "定期発注 データ読込"
}

partition 商魂 {

    "商品マスタ" - -> "発注データ作成"
    "仕入先マスタ" - -> "発注データ作成"

}

"仕入先マスタ" -right-> "商品マスタ"
- -> [ロット数]"商品別 不足数 集計"

note left
    ロット数は商魂合わせる？
     -> 180番手配は基本ロット手配ではない
     JAN分の仕入先データが要る
end note

partition 発注用商品情報 {
    
    "商品別 不足数 集計"  - -> "商品情報"

    note right
        発注用商品情報
            廃番や手配不可の情報が商魂と一致していない
            仕入先コード入ってない
    end note


    "商品情報" - -> [登なし仕入先]"発注数量決定シート"   
}


    
Partition "Faxサーバ" {

    "発注データ作成" - -> "FAX手配書作成"
    - -> 仕入先FAX
}

Partition "仕入先 企業" {

    "仕入先FAX" - ->  "受注"
    "発注データ作成" - -> [EDIでデータ発注]"受注"
}

@enduml

PlantUML version 2017.11(Thu Apr 20 01:18:59 JST 2017)
(GPL source distribution)
Java Runtime: Java(TM) SE Runtime Environment
JVM: Java HotSpot(TM) Client VM
Java Version: 1.8.0_121-b13
Operating System: Windows 7
OS Version: 6.1
Default Encoding: MS932
Language: ja
Country: JP
--></g></svg>