<?xml version="1.0" encoding="UTF-8" standalone="no"?><svg xmlns="http://www.w3.org/2000/svg" xmlns:xlink="http://www.w3.org/1999/xlink" contentScriptType="application/ecmascript" contentStyleType="text/css" height="1318px" preserveAspectRatio="none" style="width:1321px;height:1318px;" version="1.1" viewBox="0 0 1321 1318" width="1321px" zoomAndPan="magnify"><defs><filter height="300%" id="fg03ykc8jgceb" width="300%" x="-1" y="-1"><feGaussianBlur result="blurOut" stdDeviation="2.0"/><feColorMatrix in="blurOut" result="blurOut2" type="matrix" values="0 0 0 0 0 0 0 0 0 0 0 0 0 0 0 0 0 0 .4 0"/><feOffset dx="4.0" dy="4.0" in="blurOut2" result="blurOut3"/><feBlend in="SourceGraphic" in2="blurOut3" mode="normal"/></filter></defs><g><text fill="#000000" font-family="sans-serif" font-size="18" lengthAdjust="spacingAndGlyphs" textLength="144" x="593.5" y="18.6855">手配書作成フロー</text><!--cluster 手配書作成Excelファイル--><polygon fill="#FFFFFF" filter="url(#fg03ykc8jgceb)" points="431,386.6406,610,386.6406,617,410.25,723,410.25,723,787.6406,431,787.6406,431,386.6406" style="stroke: #000000; stroke-width: 2.0;"/><line style="stroke: #000000; stroke-width: 2.0;" x1="431" x2="617" y1="410.25" y2="410.25"/><text fill="#000000" font-family="sans-serif" font-size="14" font-weight="bold" lengthAdjust="spacingAndGlyphs" textLength="173" x="435" y="403.1738">手配書作成Excelファイル</text><!--cluster 発注用商品情報Excelファイル--><polygon fill="#FFFFFF" filter="url(#fg03ykc8jgceb)" points="747,386.6406,956,386.6406,963,410.25,966,410.25,966,473.6406,747,473.6406,747,386.6406" style="stroke: #000000; stroke-width: 2.0;"/><line style="stroke: #000000; stroke-width: 2.0;" x1="747" x2="963" y1="410.25" y2="410.25"/><text fill="#000000" font-family="sans-serif" font-size="14" font-weight="bold" lengthAdjust="spacingAndGlyphs" textLength="203" x="751" y="403.1738">発注用商品情報Excelファイル</text><!--cluster 商魂--><polygon fill="#FFFFFF" filter="url(#fg03ykc8jgceb)" points="151,700.6406,187,700.6406,194,724.25,407,724.25,407,787.6406,151,787.6406,151,700.6406" style="stroke: #000000; stroke-width: 2.0;"/><line style="stroke: #000000; stroke-width: 2.0;" x1="151" x2="194" y1="724.25" y2="724.25"/><text fill="#000000" font-family="sans-serif" font-size="14" font-weight="bold" lengthAdjust="spacingAndGlyphs" textLength="30" x="155" y="717.1738">商魂</text><!--cluster 管理部--><polygon fill="#FFFFFF" filter="url(#fg03ykc8jgceb)" points="426,1148.6406,477,1148.6406,484,1172.25,566,1172.25,566,1311.6406,426,1311.6406,426,1148.6406" style="stroke: #000000; stroke-width: 2.0;"/><line style="stroke: #000000; stroke-width: 2.0;" x1="426" x2="484" y1="1172.25" y2="1172.25"/><text fill="#000000" font-family="sans-serif" font-size="14" font-weight="bold" lengthAdjust="spacingAndGlyphs" textLength="45" x="430" y="1165.1738">管理部</text><!--cluster 仕入先--><polygon fill="#FFFFFF" filter="url(#fg03ykc8jgceb)" points="532,924.6406,583,924.6406,590,948.25,654,948.25,654,1101.6406,532,1101.6406,532,924.6406" style="stroke: #000000; stroke-width: 2.0;"/><line style="stroke: #000000; stroke-width: 2.0;" x1="532" x2="590" y1="948.25" y2="948.25"/><text fill="#000000" font-family="sans-serif" font-size="14" font-weight="bold" lengthAdjust="spacingAndGlyphs" textLength="45" x="536" y="941.1738">仕入先</text><rect fill="#F8F8F8" filter="url(#fg03ykc8jgceb)" height="35.0938" rx="12.5" ry="12.5" style="stroke: #383838; stroke-width: 1.5;" width="80" x="485" y="422.6406"/><text fill="#000000" font-family="sans-serif" font-size="12" lengthAdjust="spacingAndGlyphs" textLength="60" x="495" y="445.0977">データ読込</text><rect fill="#F8F8F8" filter="url(#fg03ykc8jgceb)" height="35.0938" rx="12.5" ry="12.5" style="stroke: #383838; stroke-width: 1.5;" width="116" x="467" y="524.6406"/><text fill="#000000" font-family="sans-serif" font-size="12" lengthAdjust="spacingAndGlyphs" textLength="96" x="477" y="547.0977">商品情報チェック</text><rect fill="#F8F8F8" filter="url(#fg03ykc8jgceb)" height="35.0938" rx="12.5" ry="12.5" style="stroke: #383838; stroke-width: 1.5;" width="128" x="449" y="614.6406"/><text fill="#000000" font-family="sans-serif" font-size="12" lengthAdjust="spacingAndGlyphs" textLength="108" x="459" y="637.0977">アドイン実行シート</text><rect fill="#F8F8F8" filter="url(#fg03ykc8jgceb)" height="35.0938" rx="12.5" ry="12.5" style="stroke: #383838; stroke-width: 1.5;" width="128" x="579" y="736.6406"/><text fill="#000000" font-family="sans-serif" font-size="12" lengthAdjust="spacingAndGlyphs" textLength="108" x="589" y="759.0977">発注数量決定シート</text><rect fill="#F8F8F8" filter="url(#fg03ykc8jgceb)" height="35.0938" rx="12.5" ry="12.5" style="stroke: #383838; stroke-width: 1.5;" width="92" x="447" y="736.6406"/><text fill="#000000" font-family="sans-serif" font-size="12" lengthAdjust="spacingAndGlyphs" textLength="72" x="457" y="759.0977">仕入先シート</text><rect fill="#F8F8F8" filter="url(#fg03ykc8jgceb)" height="35.0938" rx="12.5" ry="12.5" style="stroke: #383838; stroke-width: 1.5;" width="104" x="763" y="422.6406"/><text fill="#000000" font-family="sans-serif" font-size="12" lengthAdjust="spacingAndGlyphs" textLength="84" x="773" y="445.0977">商品情報シート</text><rect fill="#F8F8F8" filter="url(#fg03ykc8jgceb)" height="35.0938" rx="12.5" ry="12.5" style="stroke: #383838; stroke-width: 1.5;" width="92" x="299" y="736.6406"/><text fill="#000000" font-family="sans-serif" font-size="12" lengthAdjust="spacingAndGlyphs" textLength="72" x="309" y="759.0977">商品マスター</text><rect fill="#F8F8F8" filter="url(#fg03ykc8jgceb)" height="35.0938" rx="12.5" ry="12.5" style="stroke: #383838; stroke-width: 1.5;" width="92" x="167" y="736.6406"/><text fill="#000000" font-family="sans-serif" font-size="12" lengthAdjust="spacingAndGlyphs" textLength="72" x="177" y="759.0977">在庫マスター</text><rect fill="#F8F8F8" filter="url(#fg03ykc8jgceb)" height="35.0938" rx="12.5" ry="12.5" style="stroke: #383838; stroke-width: 1.5;" width="44" x="442" y="1184.6406"/><text fill="#000000" font-family="sans-serif" font-size="12" lengthAdjust="spacingAndGlyphs" textLength="24" x="452" y="1207.0977">引取</text><rect fill="#F8F8F8" filter="url(#fg03ykc8jgceb)" height="35.0938" rx="12.5" ry="12.5" style="stroke: #383838; stroke-width: 1.5;" width="44" x="442" y="1260.6406"/><text fill="#000000" font-family="sans-serif" font-size="12" lengthAdjust="spacingAndGlyphs" textLength="24" x="452" y="1283.0977">検品</text><rect fill="#F8F8F8" filter="url(#fg03ykc8jgceb)" height="35.0938" rx="12.5" ry="12.5" style="stroke: #383838; stroke-width: 1.5;" width="44" x="506" y="1184.6406"/><text fill="#000000" font-family="sans-serif" font-size="12" lengthAdjust="spacingAndGlyphs" textLength="24" x="516" y="1207.0977">荷受</text><rect fill="#F8F8F8" filter="url(#fg03ykc8jgceb)" height="35.0938" rx="12.5" ry="12.5" style="stroke: #383838; stroke-width: 1.5;" width="89" x="548.5" y="960.6406"/><text fill="#000000" font-family="sans-serif" font-size="12" lengthAdjust="spacingAndGlyphs" textLength="69" x="558.5" y="983.0977">仕入先へFAX</text><rect fill="#F8F8F8" filter="url(#fg03ykc8jgceb)" height="35.0938" rx="12.5" ry="12.5" style="stroke: #383838; stroke-width: 1.5;" width="44" x="554" y="1050.6406"/><text fill="#000000" font-family="sans-serif" font-size="12" lengthAdjust="spacingAndGlyphs" textLength="24" x="564" y="1073.0977">出荷</text><rect fill="#F8F8F8" filter="url(#fg03ykc8jgceb)" height="35.0938" rx="12.5" ry="12.5" style="stroke: #383838; stroke-width: 1.5;" width="93" x="688.5" y="30.6406"/><text fill="#000000" font-family="sans-serif" font-size="12" lengthAdjust="spacingAndGlyphs" textLength="73" x="698.5" y="53.0977">CROSSMALL</text><rect fill="#F8F8F8" filter="url(#fg03ykc8jgceb)" height="35.0938" rx="12.5" ry="12.5" style="stroke: #383838; stroke-width: 1.5;" width="177" x="646.5" y="120.6406"/><text fill="#000000" font-family="sans-serif" font-size="12" lengthAdjust="spacingAndGlyphs" textLength="157" x="656.5" y="143.0977">CROSSMALL受注データCSV</text><rect fill="#F8F8F8" filter="url(#fg03ykc8jgceb)" height="35.0938" rx="12.5" ry="12.5" style="stroke: #383838; stroke-width: 1.5;" width="212" x="419" y="210.6406"/><text fill="#000000" font-family="sans-serif" font-size="12" lengthAdjust="spacingAndGlyphs" textLength="192" x="429" y="233.0977">ピッキングデータ作成テンプレート</text><rect fill="#F8F8F8" filter="url(#fg03ykc8jgceb)" height="35.0938" rx="12.5" ry="12.5" style="stroke: #383838; stroke-width: 1.5;" width="194" x="6" y="120.6406"/><text fill="#000000" font-family="sans-serif" font-size="12" lengthAdjust="spacingAndGlyphs" textLength="174" x="16" y="143.0977">Yahoo_棚ありピッキングシート</text><rect fill="#F8F8F8" filter="url(#fg03ykc8jgceb)" height="35.0938" rx="12.5" ry="12.5" style="stroke: #383838; stroke-width: 1.5;" width="80" x="272" y="30.6406"/><text fill="#000000" font-family="sans-serif" font-size="12" lengthAdjust="spacingAndGlyphs" textLength="60" x="282" y="53.0977">電算室提出</text><rect fill="#F8F8F8" filter="url(#fg03ykc8jgceb)" height="35.0938" rx="12.5" ry="12.5" style="stroke: #383838; stroke-width: 1.5;" width="203" x="423.5" y="120.6406"/><text fill="#000000" font-family="sans-serif" font-size="12" lengthAdjust="spacingAndGlyphs" textLength="183" x="433.5" y="143.0977">Amazon_棚ありピッキングシート</text><rect fill="#F8F8F8" filter="url(#fg03ykc8jgceb)" height="35.0938" rx="12.5" ry="12.5" style="stroke: #383838; stroke-width: 1.5;" width="183" x="220.5" y="120.6406"/><text fill="#000000" font-family="sans-serif" font-size="12" lengthAdjust="spacingAndGlyphs" textLength="163" x="230.5" y="143.0977">楽天_棚ありピッキングシート</text><rect fill="#F8F8F8" filter="url(#fg03ykc8jgceb)" height="35.0938" rx="12.5" ry="12.5" style="stroke: #383838; stroke-width: 1.5;" width="194" x="637" y="300.6406"/><text fill="#000000" font-family="sans-serif" font-size="12" lengthAdjust="spacingAndGlyphs" textLength="174" x="647" y="323.0977">Yahoo_棚なしピッキングシート</text><rect fill="#F8F8F8" filter="url(#fg03ykc8jgceb)" height="35.0938" rx="12.5" ry="12.5" style="stroke: #383838; stroke-width: 1.5;" width="203" x="210.5" y="300.6406"/><text fill="#000000" font-family="sans-serif" font-size="12" lengthAdjust="spacingAndGlyphs" textLength="183" x="220.5" y="323.0977">Amazon_棚なしピッキングシート</text><polygon fill="#ECECEC" filter="url(#fg03ykc8jgceb)" points="183,215.1406,183,241.4922,399,241.4922,399,225.1406,389,215.1406,183,215.1406" style="stroke: #383838; stroke-width: 1.0;"/><polygon fill="#ECECEC" points="183,215.1406,183,241.4922,289.92,241.4922,308.03,300.5006,297.92,241.4922,399,241.4922,399,225.1406,389,215.1406,183,215.1406" style="stroke: #383838; stroke-width: 1.0;"/><line style="stroke: #383838; stroke-width: 1.0;" x1="389" x2="389" y1="215.1406" y2="225.1406"/><line style="stroke: #383838; stroke-width: 1.0;" x1="399" x2="389" y1="225.1406" y2="225.1406"/><text fill="#000000" font-family="sans-serif" font-size="13" lengthAdjust="spacingAndGlyphs" textLength="195" x="189" y="233.6357">物流部で手配依頼商品をチェック</text><rect fill="#F8F8F8" filter="url(#fg03ykc8jgceb)" height="35.0938" rx="12.5" ry="12.5" style="stroke: #383838; stroke-width: 1.5;" width="183" x="433.5" y="300.6406"/><text fill="#000000" font-family="sans-serif" font-size="12" lengthAdjust="spacingAndGlyphs" textLength="163" x="443.5" y="323.0977">楽天_棚なしピッキングシート</text><rect fill="#F8F8F8" filter="url(#fg03ykc8jgceb)" height="35.0938" rx="12.5" ry="12.5" style="stroke: #383838; stroke-width: 1.5;" width="160" x="987" y="30.6406"/><text fill="#000000" font-family="sans-serif" font-size="12" lengthAdjust="spacingAndGlyphs" textLength="140" x="997" y="53.0977">Amazonセラーセントラル</text><rect fill="#F8F8F8" filter="url(#fg03ykc8jgceb)" height="35.0938" rx="12.5" ry="12.5" style="stroke: #383838; stroke-width: 1.5;" width="140" x="1164" y="120.6406"/><text fill="#000000" font-family="sans-serif" font-size="12" lengthAdjust="spacingAndGlyphs" textLength="120" x="1174" y="143.0977">POエクセルファイル1</text><polygon fill="#ECECEC" filter="url(#fg03ykc8jgceb)" points="1167.5,35.1406,1167.5,61.4922,1312.5,61.4922,1312.5,45.1406,1302.5,35.1406,1167.5,35.1406" style="stroke: #383838; stroke-width: 1.0;"/><polygon fill="#ECECEC" points="1167.5,35.1406,1167.5,61.4922,1235.17,61.4922,1235.13,120.5006,1243.17,61.4922,1312.5,61.4922,1312.5,45.1406,1302.5,35.1406,1167.5,35.1406" style="stroke: #383838; stroke-width: 1.0;"/><line style="stroke: #383838; stroke-width: 1.0;" x1="1302.5" x2="1302.5" y1="35.1406" y2="45.1406"/><line style="stroke: #383838; stroke-width: 1.0;" x1="1312.5" x2="1302.5" y1="45.1406" y2="45.1406"/><text fill="#000000" font-family="sans-serif" font-size="13" lengthAdjust="spacingAndGlyphs" textLength="124" x="1173.5" y="53.6357">1POにつき1ファイル</text><rect fill="#F8F8F8" filter="url(#fg03ykc8jgceb)" height="35.0938" rx="12.5" ry="12.5" style="stroke: #383838; stroke-width: 1.5;" width="140" x="1004" y="120.6406"/><text fill="#000000" font-family="sans-serif" font-size="12" lengthAdjust="spacingAndGlyphs" textLength="120" x="1014" y="143.0977">POエクセルファイル2</text><rect fill="#F8F8F8" filter="url(#fg03ykc8jgceb)" height="35.0938" rx="12.5" ry="12.5" style="stroke: #383838; stroke-width: 1.5;" width="140" x="844" y="120.6406"/><text fill="#000000" font-family="sans-serif" font-size="12" lengthAdjust="spacingAndGlyphs" textLength="120" x="854" y="143.0977">POエクセルファイル3</text><rect fill="#F8F8F8" filter="url(#fg03ykc8jgceb)" height="35.0938" rx="12.5" ry="12.5" style="stroke: #383838; stroke-width: 1.5;" width="157" x="919.5" y="210.6406"/><text fill="#000000" font-family="sans-serif" font-size="12" lengthAdjust="spacingAndGlyphs" textLength="137" x="929.5" y="233.0977">卸用ピッキング作成Excel</text><rect fill="#F8F8F8" filter="url(#fg03ykc8jgceb)" height="35.0938" rx="12.5" ry="12.5" style="stroke: #383838; stroke-width: 1.5;" width="172" x="886" y="300.6406"/><text fill="#000000" font-family="sans-serif" font-size="12" lengthAdjust="spacingAndGlyphs" textLength="152" x="896" y="323.0977">Amazon卸ピッキングシート</text><rect fill="#F8F8F8" filter="url(#fg03ykc8jgceb)" height="35.0938" rx="12.5" ry="12.5" style="stroke: #383838; stroke-width: 1.5;" width="155" x="35.5" y="300.6406"/><text fill="#000000" font-family="sans-serif" font-size="12" lengthAdjust="spacingAndGlyphs" textLength="135" x="45.5" y="323.0977">ネット用在庫品 手配依頼</text><rect fill="#F8F8F8" filter="url(#fg03ykc8jgceb)" height="35.0938" rx="12.5" ry="12.5" style="stroke: #383838; stroke-width: 1.5;" width="116" x="402" y="838.6406"/><text fill="#000000" font-family="sans-serif" font-size="12" lengthAdjust="spacingAndGlyphs" textLength="96" x="412" y="861.0977">商魂入力用手配書</text><rect fill="#F8F8F8" filter="url(#fg03ykc8jgceb)" height="35.0938" rx="12.5" ry="12.5" style="stroke: #383838; stroke-width: 1.5;" width="116" x="400" y="960.6406"/><text fill="#000000" font-family="sans-serif" font-size="12" lengthAdjust="spacingAndGlyphs" textLength="96" x="410" y="983.0977">在庫マスター確認</text><rect fill="#F8F8F8" filter="url(#fg03ykc8jgceb)" height="35.0938" rx="12.5" ry="12.5" style="stroke: #383838; stroke-width: 1.5;" width="92" x="418" y="1050.6406"/><text fill="#000000" font-family="sans-serif" font-size="12" lengthAdjust="spacingAndGlyphs" textLength="72" x="428" y="1073.0977">商魂発注入力</text><rect fill="#F8F8F8" filter="url(#fg03ykc8jgceb)" height="35.0938" rx="12.5" ry="12.5" style="stroke: #383838; stroke-width: 1.5;" width="80" x="239" y="1050.6406"/><text fill="#000000" font-family="sans-serif" font-size="12" lengthAdjust="spacingAndGlyphs" textLength="60" x="249" y="1073.0977">入庫データ</text><rect fill="#F8F8F8" filter="url(#fg03ykc8jgceb)" height="35.0938" rx="12.5" ry="12.5" style="stroke: #383838; stroke-width: 1.5;" width="89" x="539.5" y="838.6406"/><text fill="#000000" font-family="sans-serif" font-size="12" lengthAdjust="spacingAndGlyphs" textLength="69" x="549.5" y="861.0977">FAX用手配書</text><rect fill="#F8F8F8" filter="url(#fg03ykc8jgceb)" height="35.0938" rx="12.5" ry="12.5" style="stroke: #383838; stroke-width: 1.5;" width="104" x="649" y="838.6406"/><text fill="#000000" font-family="sans-serif" font-size="12" lengthAdjust="spacingAndGlyphs" textLength="84" x="659" y="861.0977">発注商品リスト</text><rect fill="#F8F8F8" filter="url(#fg03ykc8jgceb)" height="35.0938" rx="12.5" ry="12.5" style="stroke: #383838; stroke-width: 1.5;" width="128" x="773" y="838.6406"/><text fill="#000000" font-family="sans-serif" font-size="12" lengthAdjust="spacingAndGlyphs" textLength="108" x="783" y="861.0977">発注保留商品リスト</text><rect fill="#F8F8F8" filter="url(#fg03ykc8jgceb)" height="35.0938" rx="12.5" ry="12.5" style="stroke: #383838; stroke-width: 1.5;" width="188" x="743" y="960.6406"/><text fill="#000000" font-family="sans-serif" font-size="12" lengthAdjust="spacingAndGlyphs" textLength="168" x="753" y="983.0977">在庫再確認・ショップ在庫確認</text><path d="M735,65.6906 C735,79.7406 735,100.0006 735,115.3606 " fill="none" style="stroke: #383838; stroke-width: 1.0;"/><polygon fill="#383838" points="735,120.3606,739,111.3606,735,115.3606,731,111.3606,735,120.3606" style="stroke: #383838; stroke-width: 1.0;"/><text fill="#000000" font-family="sans-serif" font-size="11" lengthAdjust="spacingAndGlyphs" textLength="152" x="736" y="98.0596">CROSSMALLからダウンロード</text><path d="M695.501,155.6906 C659.683,170.7006 606.934,192.8106 569.61,208.4506 " fill="none" style="stroke: #383838; stroke-width: 1.0;"/><polygon fill="#383838" points="564.679,210.5106,574.5258,210.7119,569.2886,208.5737,571.4268,203.3365,564.679,210.5106" style="stroke: #383838; stroke-width: 1.0;"/><text fill="#000000" font-family="sans-serif" font-size="11" lengthAdjust="spacingAndGlyphs" textLength="44" x="644" y="188.0596">CSV読込</text><path d="M179.213,156.8606 C223.936,167.0906 281.588,180.0006 333,190.6406 C366.06,197.4806 402.426,204.5206 434.533,210.5706 " fill="none" style="stroke: #383838; stroke-width: 1.0;"/><polygon fill="#383838" points="174.101,155.6906,181.9792,161.6011,178.9745,156.8082,183.7674,153.8035,174.101,155.6906" style="stroke: #383838; stroke-width: 1.0;"/><text fill="#000000" font-family="sans-serif" font-size="11" lengthAdjust="spacingAndGlyphs" textLength="66" x="334" y="188.0596">ファイル作成</text><path d="M267.788,67.7606 C230.693,83.3706 178.193,105.4806 142.49,120.5106 " fill="none" style="stroke: #383838; stroke-width: 1.0;"/><polygon fill="#383838" points="272.689,65.6906,262.8421,65.494,268.0803,67.6297,265.9446,72.8679,272.689,65.6906" style="stroke: #383838; stroke-width: 1.0;"/><path d="M525,161.0806 C525,176.3406 525,196.3706 525,210.3606 " fill="none" style="stroke: #383838; stroke-width: 1.0;"/><polygon fill="#383838" points="525,155.6906,521,164.6906,525,160.6906,529,164.6906,525,155.6906" style="stroke: #383838; stroke-width: 1.0;"/><text fill="#000000" font-family="sans-serif" font-size="11" lengthAdjust="spacingAndGlyphs" textLength="66" x="526" y="188.0596">ファイル作成</text><path d="M357.058,67.7606 C394.863,83.3706 448.368,105.4806 484.754,120.5106 " fill="none" style="stroke: #383838; stroke-width: 1.0;"/><polygon fill="#383838" points="352.064,65.6906,358.8596,72.8195,356.6864,67.5967,361.9092,65.4236,352.064,65.6906" style="stroke: #383838; stroke-width: 1.0;"/><path d="M357.058,157.7606 C394.863,173.3706 448.368,195.4806 484.754,210.5106 " fill="none" style="stroke: #383838; stroke-width: 1.0;"/><polygon fill="#383838" points="352.064,155.6906,358.8596,162.8195,356.6864,157.5967,361.9092,155.4236,352.064,155.6906" style="stroke: #383838; stroke-width: 1.0;"/><text fill="#000000" font-family="sans-serif" font-size="11" lengthAdjust="spacingAndGlyphs" textLength="66" x="433" y="188.0596">ファイル作成</text><path d="M312,71.0806 C312,86.3406 312,106.3706 312,120.3606 " fill="none" style="stroke: #383838; stroke-width: 1.0;"/><polygon fill="#383838" points="312,65.6906,308,74.6906,312,70.6906,316,74.6906,312,65.6906" style="stroke: #383838; stroke-width: 1.0;"/><path d="M564.311,245.6906 C599.958,260.7006 652.456,282.8106 689.603,298.4506 " fill="none" style="stroke: #383838; stroke-width: 1.0;"/><polygon fill="#383838" points="694.51,300.5106,687.7637,293.3351,689.9008,298.5728,684.6632,300.7098,694.51,300.5106" style="stroke: #383838; stroke-width: 1.0;"/><text fill="#000000" font-family="sans-serif" font-size="11" lengthAdjust="spacingAndGlyphs" textLength="66" x="644" y="278.0596">ファイル作成</text><path d="M484.936,245.6906 C448.607,260.7006 395.105,282.8106 357.247,298.4506 " fill="none" style="stroke: #383838; stroke-width: 1.0;"/><polygon fill="#383838" points="352.246,300.5106,362.0916,300.7644,356.8659,298.5983,359.0319,293.3726,352.246,300.5106" style="stroke: #383838; stroke-width: 1.0;"/><text fill="#000000" font-family="sans-serif" font-size="11" lengthAdjust="spacingAndGlyphs" textLength="66" x="433" y="278.0596">ファイル作成</text><path d="M525,245.6906 C525,259.7406 525,280.0006 525,295.3606 " fill="none" style="stroke: #383838; stroke-width: 1.0;"/><polygon fill="#383838" points="525,300.3606,529,291.3606,525,295.3606,521,291.3606,525,300.3606" style="stroke: #383838; stroke-width: 1.0;"/><text fill="#000000" font-family="sans-serif" font-size="11" lengthAdjust="spacingAndGlyphs" textLength="66" x="526" y="278.0596">ファイル作成</text><path d="M1096.48,65.6606 C1114.93,75.9106 1139.24,89.2406 1161,100.6406 C1172.09,106.4506 1184.23,112.6006 1195.36,118.1606 " fill="none" style="stroke: #383838; stroke-width: 1.0;"/><polygon fill="#383838" points="1200.07,120.5006,1193.7993,112.906,1195.595,118.2703,1190.2307,120.066,1200.07,120.5006" style="stroke: #383838; stroke-width: 1.0;"/><text fill="#000000" font-family="sans-serif" font-size="11" lengthAdjust="spacingAndGlyphs" textLength="69" x="1162" y="98.0596">卸 受注データ</text><path d="M1068.32,65.6906 C1069.43,79.7406 1071.05,100.0006 1072.27,115.3606 " fill="none" style="stroke: #383838; stroke-width: 1.0;"/><polygon fill="#383838" points="1072.67,120.3606,1075.9374,111.0696,1072.2701,115.3766,1067.9631,111.7093,1072.67,120.3606" style="stroke: #383838; stroke-width: 1.0;"/><path d="M1038.22,65.6906 C1012.45,80.5206 974.634,102.2706 947.505,117.8706 " fill="none" style="stroke: #383838; stroke-width: 1.0;"/><polygon fill="#383838" points="942.909,120.5106,952.7055,119.4969,947.2448,118.0204,948.7212,112.5596,942.909,120.5106" style="stroke: #383838; stroke-width: 1.0;"/><path d="M1198.15,155.6506 C1174.5,166.2606 1142.7,180.0006 1114,190.6406 C1096.45,197.1506 1077.14,203.5306 1059.4,209.0806 " fill="none" style="stroke: #383838; stroke-width: 1.0;"/><polygon fill="#383838" points="1054.44,210.6306,1064.2223,211.7741,1059.2139,209.1441,1061.8439,204.1358,1054.44,210.6306" style="stroke: #383838; stroke-width: 1.0;"/><text fill="#000000" font-family="sans-serif" font-size="11" lengthAdjust="spacingAndGlyphs" textLength="66" x="1152" y="188.0596">ファイル読込</text><path d="M1059.7,155.6906 C1047.26,170.1006 1029.16,191.0606 1015.78,206.5506 " fill="none" style="stroke: #383838; stroke-width: 1.0;"/><polygon fill="#383838" points="1012.49,210.3606,1021.4011,206.1663,1015.7592,206.5775,1015.3481,200.9356,1012.49,210.3606" style="stroke: #383838; stroke-width: 1.0;"/><text fill="#000000" font-family="sans-serif" font-size="11" lengthAdjust="spacingAndGlyphs" textLength="66" x="1042" y="188.0596">ファイル読込</text><path d="M927.78,155.7506 C936.485,166.0306 948.109,179.3706 959,190.6406 C964.236,196.0606 970.077,201.7106 975.612,206.9106 " fill="none" style="stroke: #383838; stroke-width: 1.0;"/><polygon fill="#383838" points="979.383,210.4306,975.5284,201.3674,975.7261,207.0208,970.0727,207.2185,979.383,210.4306" style="stroke: #383838; stroke-width: 1.0;"/><text fill="#000000" font-family="sans-serif" font-size="11" lengthAdjust="spacingAndGlyphs" textLength="66" x="960" y="188.0596">ファイル読込</text><path d="M993.11,245.6906 C988.96,259.7406 982.974,280.0006 978.436,295.3606 " fill="none" style="stroke: #383838; stroke-width: 1.0;"/><polygon fill="#383838" points="976.957,300.3606,983.3394,292.8596,978.3713,295.5648,975.6661,290.5967,976.957,300.3606" style="stroke: #383838; stroke-width: 1.0;"/><text fill="#000000" font-family="sans-serif" font-size="11" lengthAdjust="spacingAndGlyphs" textLength="66" x="988" y="278.0596">ファイル作成</text><path d="M341.617,335.8256 C380.88,357.9466 449.997,396.8856 491.24,420.1206 " fill="none" style="stroke: #383838; stroke-width: 1.0;"/><polygon fill="#383838" points="495.635,422.5966,489.7565,414.6945,491.2786,420.1427,485.8303,421.6648,495.635,422.5966" style="stroke: #383838; stroke-width: 1.0;"/><text fill="#000000" font-family="sans-serif" font-size="11" lengthAdjust="spacingAndGlyphs" textLength="66" x="401" y="368.0596">ファイル読込</text><path d="M525,335.8256 C525,357.1406 525,394.0696 525,417.5196 " fill="none" style="stroke: #383838; stroke-width: 1.0;"/><polygon fill="#383838" points="525,422.5966,529,413.5966,525,417.5966,521,413.5966,525,422.5966" style="stroke: #383838; stroke-width: 1.0;"/><text fill="#000000" font-family="sans-serif" font-size="11" lengthAdjust="spacingAndGlyphs" textLength="66" x="526" y="368.0596">ファイル読込</text><path d="M704.939,335.8256 C666.569,357.8566 599.143,396.5706 558.619,419.8376 " fill="none" style="stroke: #383838; stroke-width: 1.0;"/><polygon fill="#383838" points="553.814,422.5966,563.6106,421.5832,558.1498,420.1066,559.6265,414.6458,553.814,422.5966" style="stroke: #383838; stroke-width: 1.0;"/><text fill="#000000" font-family="sans-serif" font-size="11" lengthAdjust="spacingAndGlyphs" textLength="66" x="668" y="368.0596">ファイル読込</text><path d="M910.273,335.6706 C865.727,347.6026 804.145,364.1056 750,378.6406 C687.618,395.3876 615.517,414.7816 570.093,427.0046 " fill="none" style="stroke: #383838; stroke-width: 1.0;"/><polygon fill="#383838" points="565.235,428.3116,574.965,429.837,570.0634,427.0131,572.8874,422.1115,565.235,428.3116" style="stroke: #383838; stroke-width: 1.0;"/><text fill="#000000" font-family="sans-serif" font-size="11" lengthAdjust="spacingAndGlyphs" textLength="66" x="837" y="368.0596">ファイル読込</text><path d="M525,457.6536 C525,474.5896 525,501.0126 525,519.5866 " fill="none" style="stroke: #383838; stroke-width: 1.0;"/><polygon fill="#383838" points="525,524.6036,529,515.6036,525,519.6036,521,515.6036,525,524.6036" style="stroke: #383838; stroke-width: 1.0;"/><path d="M522.743,559.6926 C520.828,573.7386 518.065,593.9976 515.97,609.3576 " fill="none" style="stroke: #383838; stroke-width: 1.0;"/><polygon fill="#383838" points="515.288,614.3636,520.4676,605.9867,515.9637,609.4095,512.5409,604.9056,515.288,614.3636" style="stroke: #383838; stroke-width: 1.0;"/><path d="M548.41,649.6956 C558.515,655.2766 569.17,662.0436 578,669.6406 C599.183,687.8656 618.141,713.9126 630.04,732.0516 " fill="none" style="stroke: #383838; stroke-width: 1.0;"/><polygon fill="#383838" points="632.91,736.4836,631.3753,726.7551,630.1921,732.2868,624.6604,731.1036,632.91,736.4836" style="stroke: #383838; stroke-width: 1.0;"/><path d="M539.289,754.1406 C550.765,754.1406 562.242,754.1406 573.718,754.1406 " fill="none" style="stroke: #383838; stroke-width: 1.0;"/><polygon fill="#383838" points="578.991,754.1406,569.991,750.1406,573.991,754.1406,569.991,758.1406,578.991,754.1406" style="stroke: #383838; stroke-width: 1.0;"/><path d="M805.753,457.9146 C776.704,510.6076 687.298,672.7866 654.889,731.5746 " fill="none" style="stroke: #383838; stroke-width: 1.0;"/><polygon fill="#383838" points="652.293,736.2836,660.1415,730.3337,654.7073,731.9051,653.1358,726.4709,652.293,736.2836" style="stroke: #383838; stroke-width: 1.0;"/><text fill="#000000" font-family="sans-serif" font-size="11" lengthAdjust="spacingAndGlyphs" textLength="66" x="738" y="592.0596">データコピー</text><path d="M777.655,459.9196 C760.488,467.7986 739.619,476.3446 720,481.6406 C692.325,489.1116 683.778,482.5636 656,489.6406 C622.491,498.1776 586.003,513.0116 560.066,524.5726 " fill="none" style="stroke: #383838; stroke-width: 1.0;"/><polygon fill="#383838" points="782.394,457.7176,772.5465,457.8831,777.8597,459.8248,775.918,465.1379,782.394,457.7176" style="stroke: #383838; stroke-width: 1.0;"/><text fill="#000000" font-family="sans-serif" font-size="11" lengthAdjust="spacingAndGlyphs" textLength="55" x="657" y="502.0596">データ照合</text><path d="M264.404,754.1406 C275.843,754.1406 287.282,754.1406 298.721,754.1406 " fill="none" style="stroke: #383838; stroke-width: 1.0;"/><polygon fill="#383838" points="259.148,754.1406,268.148,758.1406,264.148,754.1406,268.148,750.1406,259.148,754.1406" style="stroke: #383838; stroke-width: 1.0;"/><path d="M348.399,736.4976 C353.127,717.5736 363.524,687.0556 384,669.6406 C400.742,655.4016 422.685,646.7006 443.714,641.3896 " fill="none" style="stroke: #383838; stroke-width: 1.0;"/><polygon fill="#383838" points="448.751,640.1766,439.0644,638.3963,443.8901,641.3479,440.9385,646.1737,448.751,640.1766" style="stroke: #383838; stroke-width: 1.0;"/><text fill="#000000" font-family="sans-serif" font-size="11" lengthAdjust="spacingAndGlyphs" textLength="72" x="385" y="682.0596">6ケタ・在庫数</text><path d="M498.956,650.0626 C488.864,661.2626 474.373,675.5146 459,684.6406 C448.968,690.5956 444.488,687.5306 434,692.6406 C411.084,703.8056 387.315,720.2546 370.111,733.1836 " fill="none" style="stroke: #383838; stroke-width: 1.0;"/><polygon fill="#383838" points="365.883,736.3896,375.4712,734.1386,369.867,733.3684,370.6372,727.7642,365.883,736.3896" style="stroke: #383838; stroke-width: 1.0;"/><text fill="#000000" font-family="sans-serif" font-size="11" lengthAdjust="spacingAndGlyphs" textLength="88" x="480" y="682.0596">台帳作成アドイン</text><path d="M169.854,335.6996 C252.584,359.7966 404.484,404.0386 479.967,426.0246 " fill="none" style="stroke: #383838; stroke-width: 1.0;"/><polygon fill="#383838" points="484.827,427.4396,477.3053,421.0817,480.0266,426.0409,475.0674,428.7623,484.827,427.4396" style="stroke: #383838; stroke-width: 1.0;"/><text fill="#000000" font-family="sans-serif" font-size="11" lengthAdjust="spacingAndGlyphs" textLength="33" x="284" y="368.0596">手入力</text><path d="M605.143,771.7996 C585.686,780.6966 561.763,792.1596 541,803.6406 C523.138,813.5176 503.826,825.7316 488.54,835.7866 " fill="none" style="stroke: #383838; stroke-width: 1.0;"/><polygon fill="#383838" points="484.34,838.5616,494.0542,836.9383,488.5119,835.8056,489.6446,830.2633,484.34,838.5616" style="stroke: #383838; stroke-width: 1.0;"/><text fill="#000000" font-family="sans-serif" font-size="11" lengthAdjust="spacingAndGlyphs" textLength="55" x="542" y="816.0596">手配書印字</text><path d="M459.722,873.8256 C459.367,895.1406 458.751,932.0696 458.36,955.5196 " fill="none" style="stroke: #383838; stroke-width: 1.0;"/><polygon fill="#383838" points="458.276,960.5966,462.4246,951.6641,458.3588,955.5973,454.4257,951.5316,458.276,960.5966" style="stroke: #383838; stroke-width: 1.0;"/><text fill="#000000" font-family="sans-serif" font-size="11" lengthAdjust="spacingAndGlyphs" textLength="55" x="461" y="906.0596">電算室提出</text><path d="M459.129,995.6926 C460.086,1009.7386 461.467,1029.9976 462.515,1045.3576 " fill="none" style="stroke: #383838; stroke-width: 1.0;"/><polygon fill="#383838" points="462.856,1050.3636,466.2321,1041.1115,462.5146,1045.3753,458.2508,1041.6578,462.856,1050.3636" style="stroke: #383838; stroke-width: 1.0;"/><text fill="#000000" font-family="sans-serif" font-size="11" lengthAdjust="spacingAndGlyphs" textLength="55" x="463" y="1028.0596">商品部提出</text><path d="M324.344,1068.1406 C352.724,1068.1406 389.188,1068.1406 417.74,1068.1406 " fill="none" style="stroke: #383838; stroke-width: 1.0;"/><polygon fill="#383838" points="319.142,1068.1406,328.142,1072.1406,324.142,1068.1406,328.142,1064.1406,319.142,1068.1406" style="stroke: #383838; stroke-width: 1.0;"/><text fill="#000000" font-family="sans-serif" font-size="11" lengthAdjust="spacingAndGlyphs" textLength="77" x="330" y="1062.5596">入庫データ作成</text><path d="M464,1085.8586 C464,1109.6626 464,1153.3366 464,1179.5576 " fill="none" style="stroke: #383838; stroke-width: 1.0;"/><polygon fill="#383838" points="464,1184.5586,468,1175.5586,464,1179.5586,460,1175.5586,464,1184.5586" style="stroke: #383838; stroke-width: 1.0;"/><text fill="#000000" font-family="sans-serif" font-size="11" lengthAdjust="spacingAndGlyphs" textLength="44" x="465" y="1130.0596">引取依頼</text><path d="M464,1219.9326 C464,1230.4345 464,1244.0699 464,1255.3944 " fill="none" style="stroke: #383838; stroke-width: 1.0;"/><polygon fill="#383838" points="464,1260.4153,468,1251.4153,464,1255.4153,460,1251.4153,464,1260.4153" style="stroke: #383838; stroke-width: 1.0;"/><path d="M284.942,1090.9706 C294.559,1122.7716 316.26,1182.1216 353,1219.6406 C378.206,1245.3812 417.395,1261.9166 441.835,1270.3616 " fill="none" style="stroke: #383838; stroke-width: 1.0;"/><polygon fill="#383838" points="283.502,1086.1116,282.2261,1095.8775,284.9237,1090.9053,289.8959,1093.6028,283.502,1086.1116" style="stroke: #383838; stroke-width: 1.0;"/><text fill="#000000" font-family="sans-serif" font-size="11" lengthAdjust="spacingAndGlyphs" textLength="77" x="354" y="1207.0596">入庫データ照会</text><path d="M513.477,1219.9326 C504.067,1230.8129 491.748,1245.0567 481.757,1256.6094 " fill="none" style="stroke: #383838; stroke-width: 1.0;"/><polygon fill="#383838" points="478.465,1260.4153,487.3772,1256.2234,481.7352,1256.633,481.3256,1250.991,478.465,1260.4153" style="stroke: #383838; stroke-width: 1.0;"/><path d="M630.841,771.8486 C624.354,781.0416 616.411,792.7606 610,803.6406 C604.284,813.3406 598.575,824.4506 593.969,833.8636 " fill="none" style="stroke: #383838; stroke-width: 1.0;"/><polygon fill="#383838" points="591.667,838.6146,599.1923,832.2609,593.8481,834.1154,591.9935,828.7712,591.667,838.6146" style="stroke: #383838; stroke-width: 1.0;"/><text fill="#000000" font-family="sans-serif" font-size="11" lengthAdjust="spacingAndGlyphs" textLength="55" x="611" y="816.0596">手配書印字</text><path d="M589.802,995.6926 C587.089,1009.7386 583.175,1029.9976 580.208,1045.3576 " fill="none" style="stroke: #383838; stroke-width: 1.0;"/><polygon fill="#383838" points="579.241,1050.3636,584.8755,1042.2858,580.1894,1045.4544,577.0208,1040.7683,579.241,1050.3636" style="stroke: #383838; stroke-width: 1.0;"/><path d="M569.921,1085.8586 C561.265,1109.6626 545.383,1153.3366 535.848,1179.5576 " fill="none" style="stroke: #383838; stroke-width: 1.0;"/><polygon fill="#383838" points="534.03,1184.5586,540.8649,1177.4675,535.7387,1179.8597,533.3465,1174.7335,534.03,1184.5586" style="stroke: #383838; stroke-width: 1.0;"/><path d="M585.251,873.8256 C586.85,895.1406 589.62,932.0696 591.378,955.5196 " fill="none" style="stroke: #383838; stroke-width: 1.0;"/><polygon fill="#383838" points="591.759,960.5966,595.074,951.3224,591.3847,955.6107,587.0965,951.9213,591.759,960.5966" style="stroke: #383838; stroke-width: 1.0;"/><text fill="#000000" font-family="sans-serif" font-size="11" lengthAdjust="spacingAndGlyphs" textLength="44" x="589" y="906.0596">第三倉庫</text><path d="M652.578,771.6536 C662.484,788.7346 677.988,815.4646 688.774,834.0616 " fill="none" style="stroke: #383838; stroke-width: 1.0;"/><polygon fill="#383838" points="691.408,838.6036,690.3518,828.8116,688.899,834.2787,683.4319,832.8259,691.408,838.6036" style="stroke: #383838; stroke-width: 1.0;"/><path d="M675.035,771.6536 C709.436,789.3856 764.011,817.5176 800.163,836.1526 " fill="none" style="stroke: #383838; stroke-width: 1.0;"/><polygon fill="#383838" points="804.917,838.6036,798.7507,830.924,800.4729,836.3123,795.0846,838.0345,804.917,838.6036" style="stroke: #383838; stroke-width: 1.0;"/><path d="M837,873.8256 C837,895.1406 837,932.0696 837,955.5196 " fill="none" style="stroke: #383838; stroke-width: 1.0;"/><polygon fill="#383838" points="837,960.5966,841,951.5966,837,955.5966,833,951.5966,837,960.5966" style="stroke: #383838; stroke-width: 1.0;"/><text fill="#000000" font-family="sans-serif" font-size="11" lengthAdjust="spacingAndGlyphs" textLength="66" x="838" y="906.0596">梱包室へ送信</text><!--
@startuml 手配書作成フロー

title 手配書作成フロー

skinparam monochrome true

"CROSSMALL" -down-> [CROSSMALLからダウンロード] "CROSSMALL受注データCSV"
"CROSSMALL受注データCSV" -down-> [CSV読込] "ピッキングデータ作成テンプレート" 

"ピッキングデータ作成テンプレート" -up-> [ファイル作成] "Yahoo_棚ありピッキングシート"
-up-> "電算室提出"
"ピッキングデータ作成テンプレート" -up-> [ファイル作成] "Amazon_棚ありピッキングシート"
-up-> "電算室提出"
"ピッキングデータ作成テンプレート" -up-> [ファイル作成] "楽天_棚ありピッキングシート"
-up-> "電算室提出"

"ピッキングデータ作成テンプレート" - -> [ファイル作成] "Yahoo_棚なしピッキングシート"

"ピッキングデータ作成テンプレート" - -> [ファイル作成] "Amazon_棚なしピッキングシート"
note top
    物流部で手配依頼商品をチェック
end note

"ピッキングデータ作成テンプレート" - -> [ファイル作成] "楽天_棚なしピッキングシート"



"Amazonセラーセントラル" - -> [卸 受注データ]"POエクセルファイル1"  
note top
1POにつき1ファイル
end note

"Amazonセラーセントラル" - -> "POエクセルファイル2"
"Amazonセラーセントラル" - -> "POエクセルファイル3"

"POエクセルファイル1" - -> [ファイル読込] "卸用ピッキング作成Excel"
"POエクセルファイル2" - -> [ファイル読込] "卸用ピッキング作成Excel"
"POエクセルファイル3" - -> [ファイル読込] "卸用ピッキング作成Excel"

"卸用ピッキング作成Excel" - -> [ファイル作成] "Amazon卸ピッキングシート"


Partition 手配書作成Excelファイル {

    "Amazon_棚なしピッキングシート" - -> [ファイル読込]"データ読込"
    "楽天_棚なしピッキングシート" - -> [ファイル読込]"データ読込"
    "Yahoo_棚なしピッキングシート" - -> [ファイル読込]"データ読込"
    "Amazon卸ピッキングシート"- -> [ファイル読込]"データ読込"

"データ読込" - -> "商品情報チェック"
- -> "アドイン実行シート"



"アドイン実行シート" - -> "発注数量決定シート"
"仕入先シート" -right-> "発注数量決定シート"

}


Partition 発注用商品情報Excelファイル {
    "商品情報シート"-right-> [データコピー] "発注数量決定シート" 
    "商品情報チェック" -left-> [データ照合] "商品情報シート"
}

Partition 商魂 {
    "商品マスター" -left-> "在庫マスター"
    "商品マスター" -> [6ケタ・在庫数]"アドイン実行シート"
    "アドイン実行シート" -> [台帳作成アドイン] "商品マスター"
}

"ネット用在庫品 手配依頼" -right-> [手入力] "データ読込"

"発注数量決定シート" - -> [手配書印字]"商魂入力用手配書"
- -> [電算室提出]"在庫マスター確認"
- -> [商品部提出]"商魂発注入力"
"商魂発注入力" -left-> [入庫データ作成]"入庫データ"

Partition 管理部 {
    "商魂発注入力" -> [引取依頼] "引取"
    -down-> "検品"
    -up-> [入庫データ照会]"入庫データ"

    "荷受" -down->"検品"
}

"発注数量決定シート" - -> [手配書印字]"FAX用手配書"
Partition 仕入先 {
    "仕入先へFAX" - -> "出荷"
}

"出荷" -down-> "荷受"

"FAX用手配書" - -> [第三倉庫]"仕入先へFAX"

"発注数量決定シート" -down-> "発注商品リスト"
"発注数量決定シート" -down-> "発注保留商品リスト"
-down-> [梱包室へ送信]"在庫再確認・ショップ在庫確認"

@enduml

PlantUML version 2017.11(Thu Apr 20 01:18:59 JST 2017)
(GPL source distribution)
Java Runtime: Java(TM) SE Runtime Environment
JVM: Java HotSpot(TM) Client VM
Java Version: 1.8.0_121-b13
Operating System: Windows 7
OS Version: 6.1
Default Encoding: MS932
Language: ja
Country: JP
--></g></svg>