<?xml version="1.0" encoding="UTF-8" standalone="no"?><svg xmlns="http://www.w3.org/2000/svg" xmlns:xlink="http://www.w3.org/1999/xlink" contentScriptType="application/ecmascript" contentStyleType="text/css" height="1775px" preserveAspectRatio="none" style="width:1189px;height:1775px;" version="1.1" viewBox="0 0 1189 1775" width="1189px" zoomAndPan="magnify"><defs><filter height="300%" id="fl5r4x4" width="300%" x="-1" y="-1"><feGaussianBlur result="blurOut" stdDeviation="2.0"/><feColorMatrix in="blurOut" result="blurOut2" type="matrix" values="0 0 0 0 0 0 0 0 0 0 0 0 0 0 0 0 0 0 .4 0"/><feOffset dx="4.0" dy="4.0" in="blurOut2" result="blurOut3"/><feBlend in="SourceGraphic" in2="blurOut3" mode="normal"/></filter></defs><g><text fill="#000000" font-family="sans-serif" font-size="14" font-weight="bold" lengthAdjust="spacingAndGlyphs" textLength="193" x="500" y="24.5332">ピッキングテンプレートVBA</text><rect fill="#FFFFFF" filter="url(#fl5r4x4)" height="465.5117" style="stroke: #FFFFFF; stroke-width: 1.0;" width="10" x="192" y="144.457"/><line style="stroke: #383838; stroke-width: 1.0;" x1="192" x2="192" y1="144.457" y2="609.9688"/><line style="stroke: #383838; stroke-width: 1.0;" x1="202" x2="202" y1="144.457" y2="609.9688"/><line style="stroke: #383838; stroke-width: 1.0;" x1="192" x2="202" y1="144.457" y2="144.457"/><rect fill="#FFFFFF" filter="url(#fl5r4x4)" height="1030.8125" style="stroke: #FFFFFF; stroke-width: 1.0;" width="10" x="192" y="673.1875"/><line style="stroke: #383838; stroke-width: 1.0;" x1="192" x2="192" y1="673.1875" y2="1704"/><line style="stroke: #383838; stroke-width: 1.0;" x1="202" x2="202" y1="673.1875" y2="1704"/><line style="stroke: #383838; stroke-width: 1.0;" x1="192" x2="202" y1="1704" y2="1704"/><rect fill="#FFFFFF" filter="url(#fl5r4x4)" height="419.9219" style="stroke: #383838; stroke-width: 1.0;" width="10" x="265" y="181.6953"/><rect fill="#FFFFFF" filter="url(#fl5r4x4)" height="91.0547" style="stroke: #383838; stroke-width: 1.0;" width="10" x="354.5" y="387.5078"/><rect fill="#FFFFFF" filter="url(#fl5r4x4)" height="30.3516" style="stroke: #383838; stroke-width: 1.0;" width="10" x="354.5" y="508.9141"/><rect fill="#FFFFFF" filter="url(#fl5r4x4)" height="151.0547" style="stroke: #383838; stroke-width: 1.0;" width="10" x="594.5" y="679.1875"/><rect fill="#FFFFFF" filter="url(#fl5r4x4)" height="769.0547" style="stroke: #383838; stroke-width: 1.0;" width="10" x="709.5" y="852.2422"/><rect fill="#FFFFFF" filter="url(#fl5r4x4)" height="345.2188" style="stroke: #000000; stroke-width: 2.0;" width="760.5" x="13" y="227.3984"/><rect fill="#FFFFFF" filter="url(#fl5r4x4)" height="129.0547" style="stroke: #000000; stroke-width: 2.0;" width="239" x="426" y="694.1875"/><rect fill="#FFFFFF" filter="url(#fl5r4x4)" height="746.7031" style="stroke: #000000; stroke-width: 2.0;" width="764" x="416" y="867.5938"/><rect fill="#FFFFFF" filter="url(#fl5r4x4)" height="303.6484" style="stroke: #000000; stroke-width: 2.0;" width="574" x="426" y="892.9453"/><text fill="#000000" font-family="sans-serif" font-size="14" lengthAdjust="spacingAndGlyphs" textLength="77" x="830" y="957.8301">Picking_2_3</text><ellipse cx="871.5" cy="927.2969" fill="#F8F8F8" filter="url(#fl5r4x4)" rx="12" ry="12" style="stroke: #383838; stroke-width: 2.0;"/><line style="stroke: #383838; stroke-width: 2.0;" x1="859.5" x2="883.5" y1="941.2969" y2="941.2969"/><text fill="#000000" font-family="sans-serif" font-size="14" lengthAdjust="spacingAndGlyphs" textLength="61" x="923" y="1017.4395">Picking_a</text><ellipse cx="956.5" cy="986.9063" fill="#F8F8F8" filter="url(#fl5r4x4)" rx="12" ry="12" style="stroke: #383838; stroke-width: 2.0;"/><line style="stroke: #383838; stroke-width: 2.0;" x1="944.5" x2="968.5" y1="1000.9063" y2="1000.9063"/><rect fill="#FFFFFF" height="46.1875" style="stroke: none; stroke-width: 1.0;" width="574" x="426" y="1104.2188"/><rect fill="#FFFFFF" height="46.1875" style="stroke: none; stroke-width: 1.0;" width="574" x="426" y="1150.4063"/><rect fill="#FFFFFF" filter="url(#fl5r4x4)" height="336" style="stroke: #000000; stroke-width: 2.0;" width="744" x="426" y="1271.2969"/><text fill="#000000" font-family="sans-serif" font-size="14" lengthAdjust="spacingAndGlyphs" textLength="69" x="1000" y="1336.1816">ForSorter1</text><ellipse cx="1037.5" cy="1305.6484" fill="#F8F8F8" filter="url(#fl5r4x4)" rx="12" ry="12" style="stroke: #383838; stroke-width: 2.0;"/><line style="stroke: #383838; stroke-width: 2.0;" x1="1025.5" x2="1049.5" y1="1319.6484" y2="1319.6484"/><text fill="#000000" font-family="sans-serif" font-size="14" lengthAdjust="spacingAndGlyphs" textLength="69" x="1085" y="1395.791">ForSorter2</text><ellipse cx="1122.5" cy="1365.2578" fill="#F8F8F8" filter="url(#fl5r4x4)" rx="12" ry="12" style="stroke: #383838; stroke-width: 2.0;"/><line style="stroke: #383838; stroke-width: 2.0;" x1="1110.5" x2="1134.5" y1="1379.2578" y2="1379.2578"/><rect fill="#FFFFFF" height="46.1875" style="stroke: none; stroke-width: 1.0;" width="744" x="426" y="1482.5703"/><rect fill="#FFFFFF" height="46.1875" style="stroke: none; stroke-width: 1.0;" width="744" x="426" y="1528.7578"/><rect fill="#FFFFFF" height="32.3516" style="stroke: none; stroke-width: 1.0;" width="744" x="426" y="1574.9453"/><rect fill="#FFFFFF" height="1739.3516" style="stroke: #383838; stroke-width: 1.0;" width="148" x="19" y="35.6094"/><text fill="#000000" font-family="sans-serif" font-size="13" font-weight="bold" lengthAdjust="spacingAndGlyphs" textLength="84" x="51" y="49.1045">外部ファイル</text><line style="stroke: #383838; stroke-width: 1.0;" x1="40" x2="40" y1="105.5703" y2="609.9688"/><line style="stroke: #383838; stroke-width: 1.0; stroke-dasharray: 1.0,4.0;" x1="40" x2="40" y1="609.9688" y2="673.1875"/><line style="stroke: #383838; stroke-width: 1.0;" x1="40" x2="40" y1="673.1875" y2="1722.3516"/><line style="stroke: #383838; stroke-width: 1.0;" x1="115" x2="115" y1="105.5703" y2="609.9688"/><line style="stroke: #383838; stroke-width: 1.0; stroke-dasharray: 1.0,4.0;" x1="115" x2="115" y1="609.9688" y2="673.1875"/><line style="stroke: #383838; stroke-width: 1.0;" x1="115" x2="115" y1="673.1875" y2="1722.3516"/><line style="stroke: #383838; stroke-width: 1.0;" x1="197" x2="197" y1="105.5703" y2="609.9688"/><line style="stroke: #383838; stroke-width: 1.0; stroke-dasharray: 1.0,4.0;" x1="197" x2="197" y1="609.9688" y2="673.1875"/><line style="stroke: #383838; stroke-width: 1.0;" x1="197" x2="197" y1="673.1875" y2="1722.3516"/><line style="stroke: #383838; stroke-width: 1.0;" x1="270" x2="270" y1="105.5703" y2="609.9688"/><line style="stroke: #383838; stroke-width: 1.0; stroke-dasharray: 1.0,4.0;" x1="270" x2="270" y1="609.9688" y2="673.1875"/><line style="stroke: #383838; stroke-width: 1.0;" x1="270" x2="270" y1="673.1875" y2="1722.3516"/><line style="stroke: #383838; stroke-width: 1.0;" x1="359" x2="359" y1="105.5703" y2="609.9688"/><line style="stroke: #383838; stroke-width: 1.0; stroke-dasharray: 1.0,4.0;" x1="359" x2="359" y1="609.9688" y2="673.1875"/><line style="stroke: #383838; stroke-width: 1.0;" x1="359" x2="359" y1="673.1875" y2="1722.3516"/><line style="stroke: #383838; stroke-width: 1.0;" x1="479" x2="479" y1="105.5703" y2="609.9688"/><line style="stroke: #383838; stroke-width: 1.0; stroke-dasharray: 1.0,4.0;" x1="479" x2="479" y1="609.9688" y2="673.1875"/><line style="stroke: #383838; stroke-width: 1.0;" x1="479" x2="479" y1="673.1875" y2="1722.3516"/><line style="stroke: #383838; stroke-width: 1.0;" x1="599" x2="599" y1="105.5703" y2="609.9688"/><line style="stroke: #383838; stroke-width: 1.0; stroke-dasharray: 1.0,4.0;" x1="599" x2="599" y1="609.9688" y2="673.1875"/><line style="stroke: #383838; stroke-width: 1.0;" x1="599" x2="599" y1="673.1875" y2="1722.3516"/><line style="stroke: #383838; stroke-width: 1.0;" x1="714" x2="714" y1="105.5703" y2="609.9688"/><line style="stroke: #383838; stroke-width: 1.0; stroke-dasharray: 1.0,4.0;" x1="714" x2="714" y1="609.9688" y2="673.1875"/><line style="stroke: #383838; stroke-width: 1.0;" x1="714" x2="714" y1="673.1875" y2="1722.3516"/><line style="stroke: #383838; stroke-width: 1.0;" x1="871" x2="871" y1="951.1016" y2="1722.3516"/><line style="stroke: #383838; stroke-width: 1.0;" x1="956" x2="956" y1="1010.7109" y2="1722.3516"/><line style="stroke: #383838; stroke-width: 1.0;" x1="1037" x2="1037" y1="1329.4531" y2="1722.3516"/><line style="stroke: #383838; stroke-width: 1.0;" x1="1122" x2="1122" y1="1389.0625" y2="1722.3516"/><text fill="#000000" font-family="sans-serif" font-size="14" lengthAdjust="spacingAndGlyphs" textLength="28" x="23" y="102.4941">CSV</text><ellipse cx="40" cy="71.9609" fill="#F8F8F8" filter="url(#fl5r4x4)" rx="12" ry="12" style="stroke: #383838; stroke-width: 2.0;"/><line style="stroke: #383838; stroke-width: 2.0;" x1="28" x2="52" y1="85.9609" y2="85.9609"/><text fill="#000000" font-family="sans-serif" font-size="14" lengthAdjust="spacingAndGlyphs" textLength="28" x="23" y="1735.8848">CSV</text><ellipse cx="40" cy="1754.9609" fill="#F8F8F8" filter="url(#fl5r4x4)" rx="12" ry="12" style="stroke: #383838; stroke-width: 2.0;"/><line style="stroke: #383838; stroke-width: 2.0;" x1="28" x2="52" y1="1768.9609" y2="1768.9609"/><text fill="#000000" font-family="sans-serif" font-size="14" lengthAdjust="spacingAndGlyphs" textLength="90" x="67" y="102.4941">ｾｯﾄ商品ﾘｽﾄ.xls</text><ellipse cx="115" cy="71.9609" fill="#F8F8F8" filter="url(#fl5r4x4)" rx="12" ry="12" style="stroke: #383838; stroke-width: 2.0;"/><line style="stroke: #383838; stroke-width: 2.0;" x1="103" x2="127" y1="85.9609" y2="85.9609"/><text fill="#000000" font-family="sans-serif" font-size="14" lengthAdjust="spacingAndGlyphs" textLength="90" x="67" y="1735.8848">ｾｯﾄ商品ﾘｽﾄ.xls</text><ellipse cx="115" cy="1754.9609" fill="#F8F8F8" filter="url(#fl5r4x4)" rx="12" ry="12" style="stroke: #383838; stroke-width: 2.0;"/><line style="stroke: #383838; stroke-width: 2.0;" x1="103" x2="127" y1="1768.9609" y2="1768.9609"/><rect fill="#F8F8F8" filter="url(#fl5r4x4)" height="31.6094" style="stroke: #383838; stroke-width: 1.5;" width="44" x="173" y="68.9609"/><text fill="#000000" font-family="sans-serif" font-size="14" lengthAdjust="spacingAndGlyphs" textLength="30" x="180" y="90.4941">Main</text><rect fill="#F8F8F8" filter="url(#fl5r4x4)" height="31.6094" style="stroke: #383838; stroke-width: 1.5;" width="44" x="173" y="1721.3516"/><text fill="#000000" font-family="sans-serif" font-size="14" lengthAdjust="spacingAndGlyphs" textLength="30" x="180" y="1742.8848">Main</text><rect fill="#F8F8F8" filter="url(#fl5r4x4)" height="31.6094" style="stroke: #383838; stroke-width: 1.5;" width="74" x="231" y="68.9609"/><text fill="#000000" font-family="sans-serif" font-size="14" lengthAdjust="spacingAndGlyphs" textLength="60" x="238" y="90.4941">FetchCsv</text><rect fill="#F8F8F8" filter="url(#fl5r4x4)" height="31.6094" style="stroke: #383838; stroke-width: 1.5;" width="74" x="231" y="1721.3516"/><text fill="#000000" font-family="sans-serif" font-size="14" lengthAdjust="spacingAndGlyphs" textLength="60" x="238" y="1742.8848">FetchCsv</text><rect fill="#F8F8F8" filter="url(#fl5r4x4)" height="31.6094" style="stroke: #383838; stroke-width: 1.5;" width="77" x="319" y="68.9609"/><text fill="#000000" font-family="sans-serif" font-size="14" lengthAdjust="spacingAndGlyphs" textLength="63" x="326" y="90.4941">SetParser</text><rect fill="#F8F8F8" filter="url(#fl5r4x4)" height="31.6094" style="stroke: #383838; stroke-width: 1.5;" width="77" x="319" y="1721.3516"/><text fill="#000000" font-family="sans-serif" font-size="14" lengthAdjust="spacingAndGlyphs" textLength="63" x="326" y="1742.8848">SetParser</text><text fill="#000000" font-family="sans-serif" font-size="14" lengthAdjust="spacingAndGlyphs" textLength="81" x="436" y="102.4941">OrdersSheet</text><ellipse cx="479.5" cy="71.9609" fill="#F8F8F8" filter="url(#fl5r4x4)" rx="12" ry="12" style="stroke: #383838; stroke-width: 2.0;"/><line style="stroke: #383838; stroke-width: 2.0;" x1="467.5" x2="491.5" y1="85.9609" y2="85.9609"/><text fill="#000000" font-family="sans-serif" font-size="14" lengthAdjust="spacingAndGlyphs" textLength="81" x="436" y="1735.8848">OrdersSheet</text><ellipse cx="479.5" cy="1754.9609" fill="#F8F8F8" filter="url(#fl5r4x4)" rx="12" ry="12" style="stroke: #383838; stroke-width: 2.0;"/><line style="stroke: #383838; stroke-width: 2.0;" x1="467.5" x2="491.5" y1="1768.9609" y2="1768.9609"/><rect fill="#F8F8F8" filter="url(#fl5r4x4)" height="31.6094" style="stroke: #383838; stroke-width: 1.5;" width="107" x="544" y="68.9609"/><text fill="#000000" font-family="sans-serif" font-size="14" lengthAdjust="spacingAndGlyphs" textLength="93" x="551" y="90.4941">LocationCutter</text><rect fill="#F8F8F8" filter="url(#fl5r4x4)" height="31.6094" style="stroke: #383838; stroke-width: 1.5;" width="107" x="544" y="1721.3516"/><text fill="#000000" font-family="sans-serif" font-size="14" lengthAdjust="spacingAndGlyphs" textLength="93" x="551" y="1742.8848">LocationCutter</text><rect fill="#F8F8F8" filter="url(#fl5r4x4)" height="31.6094" style="stroke: #383838; stroke-width: 1.5;" width="95" x="665" y="68.9609"/><text fill="#000000" font-family="sans-serif" font-size="14" lengthAdjust="spacingAndGlyphs" textLength="81" x="672" y="90.4941">SheetBuilder</text><rect fill="#F8F8F8" filter="url(#fl5r4x4)" height="31.6094" style="stroke: #383838; stroke-width: 1.5;" width="95" x="665" y="1721.3516"/><text fill="#000000" font-family="sans-serif" font-size="14" lengthAdjust="spacingAndGlyphs" textLength="81" x="672" y="1742.8848">SheetBuilder</text><text fill="#000000" font-family="sans-serif" font-size="14" lengthAdjust="spacingAndGlyphs" textLength="77" x="830" y="1735.8848">Picking_2_3</text><ellipse cx="871.5" cy="1754.9609" fill="#F8F8F8" filter="url(#fl5r4x4)" rx="12" ry="12" style="stroke: #383838; stroke-width: 2.0;"/><line style="stroke: #383838; stroke-width: 2.0;" x1="859.5" x2="883.5" y1="1768.9609" y2="1768.9609"/><text fill="#000000" font-family="sans-serif" font-size="14" lengthAdjust="spacingAndGlyphs" textLength="61" x="923" y="1735.8848">Picking_a</text><ellipse cx="956.5" cy="1754.9609" fill="#F8F8F8" filter="url(#fl5r4x4)" rx="12" ry="12" style="stroke: #383838; stroke-width: 2.0;"/><line style="stroke: #383838; stroke-width: 2.0;" x1="944.5" x2="968.5" y1="1768.9609" y2="1768.9609"/><text fill="#000000" font-family="sans-serif" font-size="14" lengthAdjust="spacingAndGlyphs" textLength="69" x="1000" y="1735.8848">ForSorter1</text><ellipse cx="1037.5" cy="1754.9609" fill="#F8F8F8" filter="url(#fl5r4x4)" rx="12" ry="12" style="stroke: #383838; stroke-width: 2.0;"/><line style="stroke: #383838; stroke-width: 2.0;" x1="1025.5" x2="1049.5" y1="1768.9609" y2="1768.9609"/><text fill="#000000" font-family="sans-serif" font-size="14" lengthAdjust="spacingAndGlyphs" textLength="69" x="1085" y="1735.8848">ForSorter2</text><ellipse cx="1122.5" cy="1754.9609" fill="#F8F8F8" filter="url(#fl5r4x4)" rx="12" ry="12" style="stroke: #383838; stroke-width: 2.0;"/><line style="stroke: #383838; stroke-width: 2.0;" x1="1110.5" x2="1134.5" y1="1768.9609" y2="1768.9609"/><rect fill="#FFFFFF" filter="url(#fl5r4x4)" height="465.5117" style="stroke: #FFFFFF; stroke-width: 1.0;" width="10" x="192" y="144.457"/><line style="stroke: #383838; stroke-width: 1.0;" x1="192" x2="192" y1="144.457" y2="609.9688"/><line style="stroke: #383838; stroke-width: 1.0;" x1="202" x2="202" y1="144.457" y2="609.9688"/><line style="stroke: #383838; stroke-width: 1.0;" x1="192" x2="202" y1="144.457" y2="144.457"/><rect fill="#FFFFFF" filter="url(#fl5r4x4)" height="1030.8125" style="stroke: #FFFFFF; stroke-width: 1.0;" width="10" x="192" y="673.1875"/><line style="stroke: #383838; stroke-width: 1.0;" x1="192" x2="192" y1="673.1875" y2="1704"/><line style="stroke: #383838; stroke-width: 1.0;" x1="202" x2="202" y1="673.1875" y2="1704"/><line style="stroke: #383838; stroke-width: 1.0;" x1="192" x2="202" y1="1704" y2="1704"/><rect fill="#FFFFFF" filter="url(#fl5r4x4)" height="419.9219" style="stroke: #383838; stroke-width: 1.0;" width="10" x="265" y="181.6953"/><rect fill="#FFFFFF" filter="url(#fl5r4x4)" height="91.0547" style="stroke: #383838; stroke-width: 1.0;" width="10" x="354.5" y="387.5078"/><rect fill="#FFFFFF" filter="url(#fl5r4x4)" height="30.3516" style="stroke: #383838; stroke-width: 1.0;" width="10" x="354.5" y="508.9141"/><rect fill="#FFFFFF" filter="url(#fl5r4x4)" height="151.0547" style="stroke: #383838; stroke-width: 1.0;" width="10" x="594.5" y="679.1875"/><rect fill="#FFFFFF" filter="url(#fl5r4x4)" height="769.0547" style="stroke: #383838; stroke-width: 1.0;" width="10" x="709.5" y="852.2422"/><polygon fill="#383838" points="180,140.457,190,144.457,180,148.457,184,144.457" style="stroke: #383838; stroke-width: 1.0;"/><line style="stroke: #383838; stroke-width: 1.0;" x1="3" x2="186" y1="144.457" y2="144.457"/><text fill="#000000" font-family="sans-serif" font-size="13" lengthAdjust="spacingAndGlyphs" textLength="65" x="10" y="139.9521">マクロ起動</text><polygon fill="#ECECEC" filter="url(#fl5r4x4)" points="207,120.5703,207,150.5703,484,150.5703,484,130.5703,474,120.5703,207,120.5703" style="stroke: #383838; stroke-width: 1.0;"/><line style="stroke: #383838; stroke-width: 1.0;" x1="474" x2="474" y1="120.5703" y2="130.5703"/><line style="stroke: #383838; stroke-width: 1.0;" x1="484" x2="474" y1="130.5703" y2="130.5703"/><text fill="#000000" font-family="sans-serif" font-size="16" lengthAdjust="spacingAndGlyphs" textLength="256" x="213" y="142.1797">進捗表示ダイアログを実装すること</text><polygon fill="#383838" points="253,177.6953,263,181.6953,253,185.6953,257,181.6953" style="stroke: #383838; stroke-width: 1.0;"/><line style="stroke: #383838; stroke-width: 1.0;" x1="202" x2="259" y1="181.6953" y2="181.6953"/><text fill="#000000" font-family="sans-serif" font-size="13" lengthAdjust="spacingAndGlyphs" textLength="26" x="209" y="177.1904">呼出</text><polygon fill="#383838" points="51,208.0469,41,212.0469,51,216.0469,47,212.0469" style="stroke: #383838; stroke-width: 1.0;"/><line style="stroke: #383838; stroke-width: 1.0;" x1="45" x2="264" y1="212.0469" y2="212.0469"/><text fill="#000000" font-family="sans-serif" font-size="13" lengthAdjust="spacingAndGlyphs" textLength="115" x="57" y="207.542">TextStreamingOpen</text><rect fill="none" height="345.2188" style="stroke: #000000; stroke-width: 2.0;" width="760.5" x="13" y="227.3984"/><polygon fill="#EEEEEE" points="13,227.3984,86,227.3984,86,235.3984,76,245.3984,13,245.3984,13,227.3984" style="stroke: #000000; stroke-width: 2.0;"/><text fill="#000000" font-family="sans-serif" font-size="13" font-weight="bold" lengthAdjust="spacingAndGlyphs" textLength="28" x="28" y="241.8936">loop</text><text fill="#000000" font-family="sans-serif" font-size="11" font-weight="bold" lengthAdjust="spacingAndGlyphs" textLength="98" x="101" y="240.8174">[1行ずつ読み出し]</text><polygon fill="#383838" points="253,263.75,263,267.75,253,271.75,257,267.75" style="stroke: #383838; stroke-width: 1.0;"/><line style="stroke: #383838; stroke-width: 1.0;" x1="40" x2="259" y1="267.75" y2="267.75"/><text fill="#000000" font-family="sans-serif" font-size="13" lengthAdjust="spacingAndGlyphs" textLength="31" x="47" y="263.2451">1Line</text><polygon fill="#383838" points="467.5,323.6289,477.5,327.6289,467.5,331.6289,471.5,327.6289" style="stroke: #383838; stroke-width: 1.0;"/><line style="stroke: #383838; stroke-width: 1.0;" x1="275" x2="473.5" y1="327.6289" y2="327.6289"/><text fill="#000000" font-family="sans-serif" font-size="13" lengthAdjust="spacingAndGlyphs" textLength="91" x="282" y="323.124">受注データ書込</text><polygon fill="#ECECEC" filter="url(#fl5r4x4)" points="484,281.1016,484,356.1016,754,356.1016,754,291.1016,744,281.1016,484,281.1016" style="stroke: #383838; stroke-width: 1.0;"/><line style="stroke: #383838; stroke-width: 1.0;" x1="744" x2="744" y1="281.1016" y2="291.1016"/><line style="stroke: #383838; stroke-width: 1.0;" x1="754" x2="744" y1="291.1016" y2="291.1016"/><text fill="#000000" font-family="sans-serif" font-size="13" lengthAdjust="spacingAndGlyphs" textLength="182" x="490" y="299.5967">商品名変更が必要な可能性アリ</text><text fill="#000000" font-family="sans-serif" font-size="13" lengthAdjust="spacingAndGlyphs" textLength="211" x="490" y="315.9482">1. 20万行のマッピングリストを使う</text><text fill="#000000" font-family="sans-serif" font-size="13" lengthAdjust="spacingAndGlyphs" textLength="145" x="490" y="332.2998">2. アドインデータを使う</text><text fill="#000000" font-family="sans-serif" font-size="13" lengthAdjust="spacingAndGlyphs" textLength="249" x="490" y="348.6514">3. 正規表現で【】≪≫を中身ごと削除する</text><polygon fill="#383838" points="375.5,383.5078,365.5,387.5078,375.5,391.5078,371.5,387.5078" style="stroke: #383838; stroke-width: 1.0;"/><line style="stroke: #383838; stroke-width: 1.0;" x1="369.5" x2="478.5" y1="387.5078" y2="387.5078"/><text fill="#000000" font-family="sans-serif" font-size="13" lengthAdjust="spacingAndGlyphs" textLength="65" x="381.5" y="383.0029">セット分解</text><polygon fill="#383838" points="126,413.8594,116,417.8594,126,421.8594,122,417.8594" style="stroke: #383838; stroke-width: 1.0;"/><line style="stroke: #383838; stroke-width: 1.0;" x1="120" x2="353.5" y1="417.8594" y2="417.8594"/><text fill="#000000" font-family="sans-serif" font-size="13" lengthAdjust="spacingAndGlyphs" textLength="127" x="132" y="413.3545">GetComponentItems()</text><polygon fill="#383838" points="342.5,444.2109,352.5,448.2109,342.5,452.2109,346.5,448.2109" style="stroke: #383838; stroke-width: 1.0;"/><line style="stroke: #383838; stroke-width: 1.0; stroke-dasharray: 2.0,2.0;" x1="115" x2="348.5" y1="448.2109" y2="448.2109"/><text fill="#000000" font-family="sans-serif" font-size="13" lengthAdjust="spacingAndGlyphs" textLength="82" x="122" y="443.7061">ItemCollection</text><polygon fill="#383838" points="467.5,474.5625,477.5,478.5625,467.5,482.5625,471.5,478.5625" style="stroke: #383838; stroke-width: 1.0;"/><line style="stroke: #383838; stroke-width: 1.0;" x1="359.5" x2="473.5" y1="478.5625" y2="478.5625"/><text fill="#000000" font-family="sans-serif" font-size="13" lengthAdjust="spacingAndGlyphs" textLength="91" x="366.5" y="474.0576">アイテム行挿入</text><polygon fill="#383838" points="375.5,504.9141,365.5,508.9141,375.5,512.9141,371.5,508.9141" style="stroke: #383838; stroke-width: 1.0;"/><line style="stroke: #383838; stroke-width: 1.0;" x1="369.5" x2="478.5" y1="508.9141" y2="508.9141"/><text fill="#000000" font-family="sans-serif" font-size="13" lengthAdjust="spacingAndGlyphs" textLength="65" x="381.5" y="504.4092">○個組分解</text><polygon fill="#383838" points="467.5,535.2656,477.5,539.2656,467.5,543.2656,471.5,539.2656" style="stroke: #383838; stroke-width: 1.0;"/><line style="stroke: #383838; stroke-width: 1.0;" x1="359.5" x2="473.5" y1="539.2656" y2="539.2656"/><text fill="#000000" font-family="sans-serif" font-size="13" lengthAdjust="spacingAndGlyphs" textLength="78" x="366.5" y="534.7607">単体数量上書</text><polygon fill="#383838" points="51,597.6172,41,601.6172,51,605.6172,47,601.6172" style="stroke: #383838; stroke-width: 1.0;"/><line style="stroke: #383838; stroke-width: 1.0;" x1="45" x2="269" y1="601.6172" y2="601.6172"/><text fill="#000000" font-family="sans-serif" font-size="13" lengthAdjust="spacingAndGlyphs" textLength="117" x="57" y="597.1123">TextStreamingClose</text><text fill="#000000" font-family="sans-serif" font-size="11" lengthAdjust="spacingAndGlyphs" textLength="0" x="381.25" y="656.7705"/><text fill="#000000" font-family="sans-serif" font-size="28" lengthAdjust="spacingAndGlyphs" textLength="400" x="381.25" y="653.0352">アドインでデータ取得 手動実行</text><text fill="#000000" font-family="sans-serif" font-size="11" lengthAdjust="spacingAndGlyphs" textLength="0" x="784.25" y="656.7705"/><polygon fill="#383838" points="582.5,675.1875,592.5,679.1875,582.5,683.1875,586.5,679.1875" style="stroke: #383838; stroke-width: 1.0;"/><line style="stroke: #383838; stroke-width: 1.0;" x1="202" x2="588.5" y1="679.1875" y2="679.1875"/><rect fill="none" height="129.0547" style="stroke: #000000; stroke-width: 2.0;" width="239" x="426" y="694.1875"/><polygon fill="#EEEEEE" points="426,694.1875,499,694.1875,499,702.1875,489,712.1875,426,712.1875,426,694.1875" style="stroke: #000000; stroke-width: 2.0;"/><text fill="#000000" font-family="sans-serif" font-size="13" font-weight="bold" lengthAdjust="spacingAndGlyphs" textLength="28" x="441" y="708.6826">loop</text><text fill="#000000" font-family="sans-serif" font-size="11" font-weight="bold" lengthAdjust="spacingAndGlyphs" textLength="83" x="514" y="707.6064">[受注データFix]</text><polygon fill="#383838" points="582.5,755.5391,592.5,759.5391,582.5,763.5391,586.5,759.5391" style="stroke: #383838; stroke-width: 1.0;"/><line style="stroke: #383838; stroke-width: 1.0;" x1="479.5" x2="588.5" y1="759.5391" y2="759.5391"/><text fill="#000000" font-family="sans-serif" font-size="13" lengthAdjust="spacingAndGlyphs" textLength="91" x="486.5" y="755.0342">ロケ文字列取得</text><polygon fill="#383838" points="490.5,785.8906,480.5,789.8906,490.5,793.8906,486.5,789.8906" style="stroke: #383838; stroke-width: 1.0;"/><line style="stroke: #383838; stroke-width: 1.0;" x1="484.5" x2="593.5" y1="789.8906" y2="789.8906"/><text fill="#000000" font-family="sans-serif" font-size="13" lengthAdjust="spacingAndGlyphs" textLength="78" x="496.5" y="785.3857">無効ロケ削除</text><polygon fill="#383838" points="697.5,848.2422,707.5,852.2422,697.5,856.2422,701.5,852.2422" style="stroke: #383838; stroke-width: 1.0;"/><line style="stroke: #383838; stroke-width: 1.0;" x1="202" x2="703.5" y1="852.2422" y2="852.2422"/><text fill="#000000" font-family="sans-serif" font-size="13" lengthAdjust="spacingAndGlyphs" textLength="156" x="209" y="847.7373">シート作成モジュール実行</text><rect fill="none" height="746.7031" style="stroke: #000000; stroke-width: 2.0;" width="764" x="416" y="867.5938"/><polygon fill="#EEEEEE" points="416,867.5938,489,867.5938,489,875.5938,479,885.5938,416,885.5938,416,867.5938" style="stroke: #000000; stroke-width: 2.0;"/><text fill="#000000" font-family="sans-serif" font-size="13" font-weight="bold" lengthAdjust="spacingAndGlyphs" textLength="28" x="431" y="882.0889">loop</text><text fill="#000000" font-family="sans-serif" font-size="11" font-weight="bold" lengthAdjust="spacingAndGlyphs" textLength="86" x="504" y="881.0127">[3モール分実行]</text><rect fill="none" height="303.6484" style="stroke: #000000; stroke-width: 2.0;" width="574" x="426" y="892.9453"/><polygon fill="#EEEEEE" points="426,892.9453,611,892.9453,611,900.9453,601,910.9453,426,910.9453,426,892.9453" style="stroke: #000000; stroke-width: 2.0;"/><text fill="#000000" font-family="sans-serif" font-size="13" font-weight="bold" lengthAdjust="spacingAndGlyphs" textLength="140" x="441" y="907.4404">ピッキングデータ作成</text><polygon fill="#383838" points="818,929.2969,828,933.2969,818,937.2969,822,933.2969" style="stroke: #383838; stroke-width: 1.0;"/><line style="stroke: #383838; stroke-width: 1.0;" x1="719.5" x2="824" y1="933.2969" y2="933.2969"/><text fill="#000000" font-family="sans-serif" font-size="13" lengthAdjust="spacingAndGlyphs" textLength="65" x="726.5" y="928.792">ブック作成</text><text fill="#000000" font-family="sans-serif" font-size="14" lengthAdjust="spacingAndGlyphs" textLength="77" x="830" y="957.8301">Picking_2_3</text><ellipse cx="871.5" cy="927.2969" fill="#F8F8F8" filter="url(#fl5r4x4)" rx="12" ry="12" style="stroke: #383838; stroke-width: 2.0;"/><line style="stroke: #383838; stroke-width: 2.0;" x1="859.5" x2="883.5" y1="941.2969" y2="941.2969"/><polygon fill="#383838" points="911,988.9063,921,992.9063,911,996.9063,915,992.9063" style="stroke: #383838; stroke-width: 1.0;"/><line style="stroke: #383838; stroke-width: 1.0;" x1="719.5" x2="917" y1="992.9063" y2="992.9063"/><text fill="#000000" font-family="sans-serif" font-size="13" lengthAdjust="spacingAndGlyphs" textLength="65" x="726.5" y="988.4014">ブック作成</text><text fill="#000000" font-family="sans-serif" font-size="14" lengthAdjust="spacingAndGlyphs" textLength="61" x="923" y="1017.4395">Picking_a</text><ellipse cx="956.5" cy="986.9063" fill="#F8F8F8" filter="url(#fl5r4x4)" rx="12" ry="12" style="stroke: #383838; stroke-width: 2.0;"/><line style="stroke: #383838; stroke-width: 2.0;" x1="944.5" x2="968.5" y1="1000.9063" y2="1000.9063"/><polygon fill="#383838" points="490.5,1048.5156,480.5,1052.5156,490.5,1056.5156,486.5,1052.5156" style="stroke: #383838; stroke-width: 1.0;"/><line style="stroke: #383838; stroke-width: 1.0;" x1="484.5" x2="708.5" y1="1052.5156" y2="1052.5156"/><text fill="#000000" font-family="sans-serif" font-size="13" lengthAdjust="spacingAndGlyphs" textLength="91" x="496.5" y="1048.0107">受注データ取得</text><line style="stroke: #383838; stroke-width: 1.0;" x1="719.5" x2="761.5" y1="1083.2188" y2="1083.2188"/><line style="stroke: #383838; stroke-width: 1.0;" x1="761.5" x2="761.5" y1="1083.2188" y2="1096.2188"/><line style="stroke: #383838; stroke-width: 1.0;" x1="720.5" x2="761.5" y1="1096.2188" y2="1096.2188"/><polygon fill="#383838" points="730.5,1092.2188,720.5,1096.2188,730.5,1100.2188,726.5,1096.2188" style="stroke: #383838; stroke-width: 1.0;"/><text fill="#000000" font-family="sans-serif" font-size="13" lengthAdjust="spacingAndGlyphs" textLength="91" x="726.5" y="1078.3623">受注モール判定</text><line style="stroke: #000000; stroke-width: 1.0; stroke-dasharray: 2.0,2.0;" x1="426" x2="1000" y1="1105.2188" y2="1105.2188"/><text fill="#000000" font-family="sans-serif" font-size="11" font-weight="bold" lengthAdjust="spacingAndGlyphs" textLength="44" x="431" y="1116.6377">[棚有り]</text><polygon fill="#383838" points="859.5,1138.0547,869.5,1142.0547,859.5,1146.0547,863.5,1142.0547" style="stroke: #383838; stroke-width: 1.0;"/><line style="stroke: #383838; stroke-width: 1.0;" x1="719.5" x2="865.5" y1="1142.0547" y2="1142.0547"/><text fill="#000000" font-family="sans-serif" font-size="13" lengthAdjust="spacingAndGlyphs" textLength="128" x="726.5" y="1137.5498">6ケタ振替 データ転記</text><line style="stroke: #000000; stroke-width: 1.0; stroke-dasharray: 2.0,2.0;" x1="426" x2="1000" y1="1151.4063" y2="1151.4063"/><text fill="#000000" font-family="sans-serif" font-size="11" font-weight="bold" lengthAdjust="spacingAndGlyphs" textLength="44" x="431" y="1162.8252">[棚無し]</text><polygon fill="#383838" points="944.5,1184.2422,954.5,1188.2422,944.5,1192.2422,948.5,1188.2422" style="stroke: #383838; stroke-width: 1.0;"/><line style="stroke: #383838; stroke-width: 1.0;" x1="719.5" x2="950.5" y1="1188.2422" y2="1188.2422"/><text fill="#000000" font-family="sans-serif" font-size="13" lengthAdjust="spacingAndGlyphs" textLength="65" x="726.5" y="1183.7373">データ転記</text><polygon fill="#383838" points="859.5,1221.5938,869.5,1225.5938,859.5,1229.5938,863.5,1225.5938" style="stroke: #383838; stroke-width: 1.0;"/><line style="stroke: #383838; stroke-width: 1.0;" x1="719.5" x2="865.5" y1="1225.5938" y2="1225.5938"/><text fill="#000000" font-family="sans-serif" font-size="13" lengthAdjust="spacingAndGlyphs" textLength="78" x="726.5" y="1221.0889">ファイル保存</text><line style="stroke: #383838; stroke-width: 2.0;" x1="862.5" x2="880.5" y1="1216.5938" y2="1234.5938"/><line style="stroke: #383838; stroke-width: 2.0;" x1="862.5" x2="880.5" y1="1234.5938" y2="1216.5938"/><polygon fill="#383838" points="944.5,1251.9453,954.5,1255.9453,944.5,1259.9453,948.5,1255.9453" style="stroke: #383838; stroke-width: 1.0;"/><line style="stroke: #383838; stroke-width: 1.0;" x1="719.5" x2="950.5" y1="1255.9453" y2="1255.9453"/><text fill="#000000" font-family="sans-serif" font-size="13" lengthAdjust="spacingAndGlyphs" textLength="78" x="726.5" y="1251.4404">ファイル保存</text><line style="stroke: #383838; stroke-width: 2.0;" x1="947.5" x2="965.5" y1="1246.9453" y2="1264.9453"/><line style="stroke: #383838; stroke-width: 2.0;" x1="947.5" x2="965.5" y1="1264.9453" y2="1246.9453"/><rect fill="none" height="336" style="stroke: #000000; stroke-width: 2.0;" width="744" x="426" y="1271.2969"/><polygon fill="#EEEEEE" points="426,1271.2969,569,1271.2969,569,1279.2969,559,1289.2969,426,1289.2969,426,1271.2969" style="stroke: #000000; stroke-width: 2.0;"/><text fill="#000000" font-family="sans-serif" font-size="13" font-weight="bold" lengthAdjust="spacingAndGlyphs" textLength="98" x="441" y="1285.792">振分シート作成</text><polygon fill="#383838" points="988,1307.6484,998,1311.6484,988,1315.6484,992,1311.6484" style="stroke: #383838; stroke-width: 1.0;"/><line style="stroke: #383838; stroke-width: 1.0;" x1="719.5" x2="994" y1="1311.6484" y2="1311.6484"/><text fill="#000000" font-family="sans-serif" font-size="13" lengthAdjust="spacingAndGlyphs" textLength="65" x="726.5" y="1307.1436">シート作成</text><text fill="#000000" font-family="sans-serif" font-size="14" lengthAdjust="spacingAndGlyphs" textLength="69" x="1000" y="1336.1816">ForSorter1</text><ellipse cx="1037.5" cy="1305.6484" fill="#F8F8F8" filter="url(#fl5r4x4)" rx="12" ry="12" style="stroke: #383838; stroke-width: 2.0;"/><line style="stroke: #383838; stroke-width: 2.0;" x1="1025.5" x2="1049.5" y1="1319.6484" y2="1319.6484"/><polygon fill="#383838" points="1073,1367.2578,1083,1371.2578,1073,1375.2578,1077,1371.2578" style="stroke: #383838; stroke-width: 1.0;"/><line style="stroke: #383838; stroke-width: 1.0;" x1="719.5" x2="1079" y1="1371.2578" y2="1371.2578"/><text fill="#000000" font-family="sans-serif" font-size="13" lengthAdjust="spacingAndGlyphs" textLength="65" x="726.5" y="1366.7529">シート作成</text><text fill="#000000" font-family="sans-serif" font-size="14" lengthAdjust="spacingAndGlyphs" textLength="69" x="1085" y="1395.791">ForSorter2</text><ellipse cx="1122.5" cy="1365.2578" fill="#F8F8F8" filter="url(#fl5r4x4)" rx="12" ry="12" style="stroke: #383838; stroke-width: 2.0;"/><line style="stroke: #383838; stroke-width: 2.0;" x1="1110.5" x2="1134.5" y1="1379.2578" y2="1379.2578"/><polygon fill="#383838" points="490.5,1426.8672,480.5,1430.8672,490.5,1434.8672,486.5,1430.8672" style="stroke: #383838; stroke-width: 1.0;"/><line style="stroke: #383838; stroke-width: 1.0;" x1="484.5" x2="708.5" y1="1430.8672" y2="1430.8672"/><text fill="#000000" font-family="sans-serif" font-size="13" lengthAdjust="spacingAndGlyphs" textLength="91" x="496.5" y="1426.3623">受注データ取得</text><line style="stroke: #383838; stroke-width: 1.0;" x1="719.5" x2="761.5" y1="1461.5703" y2="1461.5703"/><line style="stroke: #383838; stroke-width: 1.0;" x1="761.5" x2="761.5" y1="1461.5703" y2="1474.5703"/><line style="stroke: #383838; stroke-width: 1.0;" x1="720.5" x2="761.5" y1="1474.5703" y2="1474.5703"/><polygon fill="#383838" points="730.5,1470.5703,720.5,1474.5703,730.5,1478.5703,726.5,1474.5703" style="stroke: #383838; stroke-width: 1.0;"/><text fill="#000000" font-family="sans-serif" font-size="13" lengthAdjust="spacingAndGlyphs" textLength="91" x="726.5" y="1456.7139">受注モール判定</text><line style="stroke: #000000; stroke-width: 1.0; stroke-dasharray: 2.0,2.0;" x1="426" x2="1170" y1="1483.5703" y2="1483.5703"/><text fill="#000000" font-family="sans-serif" font-size="11" font-weight="bold" lengthAdjust="spacingAndGlyphs" textLength="68" x="431" y="1494.9893">[単体受注品]</text><polygon fill="#383838" points="1025.5,1516.4063,1035.5,1520.4063,1025.5,1524.4063,1029.5,1520.4063" style="stroke: #383838; stroke-width: 1.0;"/><line style="stroke: #383838; stroke-width: 1.0;" x1="719.5" x2="1031.5" y1="1520.4063" y2="1520.4063"/><text fill="#000000" font-family="sans-serif" font-size="13" lengthAdjust="spacingAndGlyphs" textLength="91" x="726.5" y="1515.9014">受注データ転記</text><line style="stroke: #000000; stroke-width: 1.0; stroke-dasharray: 2.0,2.0;" x1="426" x2="1170" y1="1529.7578" y2="1529.7578"/><text fill="#000000" font-family="sans-serif" font-size="11" font-weight="bold" lengthAdjust="spacingAndGlyphs" textLength="68" x="431" y="1541.1768">[セット商品]</text><polygon fill="#383838" points="1110.5,1562.5938,1120.5,1566.5938,1110.5,1570.5938,1114.5,1566.5938" style="stroke: #383838; stroke-width: 1.0;"/><line style="stroke: #383838; stroke-width: 1.0;" x1="719.5" x2="1116.5" y1="1566.5938" y2="1566.5938"/><text fill="#000000" font-family="sans-serif" font-size="13" lengthAdjust="spacingAndGlyphs" textLength="91" x="726.5" y="1562.0889">受注データ転記</text><line style="stroke: #000000; stroke-width: 1.0; stroke-dasharray: 2.0,2.0;" x1="426" x2="1170" y1="1575.9453" y2="1575.9453"/><polygon fill="#383838" points="1025.5,1594.9453,1035.5,1598.9453,1025.5,1602.9453,1029.5,1598.9453" style="stroke: #383838; stroke-width: 1.0;"/><line style="stroke: #383838; stroke-width: 1.0;" x1="719.5" x2="1031.5" y1="1598.9453" y2="1598.9453"/><text fill="#000000" font-family="sans-serif" font-size="13" lengthAdjust="spacingAndGlyphs" textLength="117" x="726.5" y="1594.4404">商品コードでソート</text><polygon fill="#383838" points="1025.5,1639.2969,1035.5,1643.2969,1025.5,1647.2969,1029.5,1643.2969" style="stroke: #383838; stroke-width: 1.0;"/><line style="stroke: #383838; stroke-width: 1.0; stroke-dasharray: 2.0,2.0;" x1="202" x2="1031.5" y1="1643.2969" y2="1643.2969"/><text fill="#000000" font-family="sans-serif" font-size="13" lengthAdjust="spacingAndGlyphs" textLength="79" x="209" y="1638.792">VBA:PrintOut</text><polygon fill="#383838" points="1110.5,1669.6484,1120.5,1673.6484,1110.5,1677.6484,1114.5,1673.6484" style="stroke: #383838; stroke-width: 1.0;"/><line style="stroke: #383838; stroke-width: 1.0; stroke-dasharray: 2.0,2.0;" x1="202" x2="1116.5" y1="1673.6484" y2="1673.6484"/><text fill="#000000" font-family="sans-serif" font-size="13" lengthAdjust="spacingAndGlyphs" textLength="79" x="209" y="1669.1436">VBA:PrintOut</text><polygon fill="#383838" points="14,1700,4,1704,14,1708,10,1704" style="stroke: #383838; stroke-width: 1.0;"/><line style="stroke: #383838; stroke-width: 1.0;" x1="8" x2="196" y1="1704" y2="1704"/><text fill="#000000" font-family="sans-serif" font-size="13" lengthAdjust="spacingAndGlyphs" textLength="91" x="20" y="1699.4951">終了メッセージ</text></g></svg>