<?xml version="1.0" encoding="UTF-8" standalone="no"?><svg xmlns="http://www.w3.org/2000/svg" xmlns:xlink="http://www.w3.org/1999/xlink" contentScriptType="application/ecmascript" contentStyleType="text/css" height="1124px" preserveAspectRatio="none" style="width:1188px;height:1124px;" version="1.1" viewBox="0 0 1188 1124" width="1188px" zoomAndPan="magnify"><defs><filter height="300%" id="fu9v74t" width="300%" x="-1" y="-1"><feGaussianBlur result="blurOut" stdDeviation="2.0"/><feColorMatrix in="blurOut" result="blurOut2" type="matrix" values="0 0 0 0 0 0 0 0 0 0 0 0 0 0 0 0 0 0 .4 0"/><feOffset dx="4.0" dy="4.0" in="blurOut2" result="blurOut3"/><feBlend in="SourceGraphic" in2="blurOut3" mode="normal"/></filter></defs><g><text fill="#000000" font-family="sans-serif" font-size="14" font-weight="bold" lengthAdjust="spacingAndGlyphs" textLength="193" x="499.5" y="24.5332">ピッキングテンプレートVBA</text><rect fill="#FFFFFF" filter="url(#fu9v74t)" height="305.1641" style="stroke: #383838; stroke-width: 1.0;" width="10" x="207" y="130.5703"/><rect fill="#FFFFFF" filter="url(#fu9v74t)" height="91.0547" style="stroke: #383838; stroke-width: 1.0;" width="10" x="296.5" y="246.625"/><rect fill="#FFFFFF" filter="url(#fu9v74t)" height="30.3516" style="stroke: #383838; stroke-width: 1.0;" width="10" x="296.5" y="368.0313"/><rect fill="#FFFFFF" filter="url(#fu9v74t)" height="384.5703" style="stroke: #FFFFFF; stroke-width: 1.0;" width="10" x="371" y="116.2188"/><line style="stroke: #383838; stroke-width: 1.0;" x1="371" x2="371" y1="116.2188" y2="500.7891"/><line style="stroke: #383838; stroke-width: 1.0;" x1="381" x2="381" y1="116.2188" y2="500.7891"/><line style="stroke: #383838; stroke-width: 1.0;" x1="371" x2="381" y1="116.2188" y2="116.2188"/><rect fill="#FFFFFF" filter="url(#fu9v74t)" height="518.4063" style="stroke: #FFFFFF; stroke-width: 1.0;" width="10" x="371" y="542.625"/><line style="stroke: #383838; stroke-width: 1.0;" x1="371" x2="371" y1="542.625" y2="1061.0313"/><line style="stroke: #383838; stroke-width: 1.0;" x1="381" x2="381" y1="542.625" y2="1061.0313"/><line style="stroke: #383838; stroke-width: 1.0;" x1="371" x2="381" y1="1061.0313" y2="1061.0313"/><rect fill="#FFFFFF" filter="url(#fu9v74t)" height="30.3516" style="stroke: #383838; stroke-width: 1.0;" width="10" x="659.5" y="589.9766"/><rect fill="#FFFFFF" filter="url(#fu9v74t)" height="419.3516" style="stroke: #383838; stroke-width: 1.0;" width="10" x="774.5" y="641.6797"/><rect fill="#FFFFFF" filter="url(#fu9v74t)" height="261.1641" style="stroke: #000000; stroke-width: 2.0;" width="494" x="13" y="145.5703"/><rect fill="#FFFFFF" filter="url(#fu9v74t)" height="79.0547" style="stroke: #000000; stroke-width: 2.0;" width="330" x="400" y="549.625"/><rect fill="#FFFFFF" filter="url(#fu9v74t)" height="169.2422" style="stroke: #000000; stroke-width: 2.0;" width="289" x="720" y="656.6797"/><rect fill="#FFFFFF" height="75.4453" style="stroke: none; stroke-width: 1.0;" width="289" x="720" y="675.0313"/><text fill="#000000" font-family="sans-serif" font-size="14" lengthAdjust="spacingAndGlyphs" textLength="77" x="839" y="737.4004">Picking_2_3</text><ellipse cx="880.5" cy="706.8672" fill="#F8F8F8" filter="url(#fu9v74t)" rx="12" ry="12" style="stroke: #383838; stroke-width: 2.0;"/><line style="stroke: #383838; stroke-width: 2.0;" x1="868.5" x2="892.5" y1="720.8672" y2="720.8672"/><rect fill="#FFFFFF" height="75.4453" style="stroke: none; stroke-width: 1.0;" width="289" x="720" y="750.4766"/><text fill="#000000" font-family="sans-serif" font-size="14" lengthAdjust="spacingAndGlyphs" textLength="61" x="932" y="812.8457">Picking_a</text><ellipse cx="965.5" cy="782.3125" fill="#F8F8F8" filter="url(#fu9v74t)" rx="12" ry="12" style="stroke: #383838; stroke-width: 2.0;"/><line style="stroke: #383838; stroke-width: 2.0;" x1="953.5" x2="977.5" y1="796.3125" y2="796.3125"/><rect fill="#FFFFFF" filter="url(#fu9v74t)" height="153.4063" style="stroke: #000000; stroke-width: 2.0;" width="459" x="720" y="900.625"/><text fill="#000000" font-family="sans-serif" font-size="14" lengthAdjust="spacingAndGlyphs" textLength="69" x="1009" y="965.5098">ForSorter1</text><ellipse cx="1046.5" cy="934.9766" fill="#F8F8F8" filter="url(#fu9v74t)" rx="12" ry="12" style="stroke: #383838; stroke-width: 2.0;"/><line style="stroke: #383838; stroke-width: 2.0;" x1="1034.5" x2="1058.5" y1="948.9766" y2="948.9766"/><rect fill="#FFFFFF" height="75.4453" style="stroke: none; stroke-width: 1.0;" width="459" x="720" y="978.5859"/><text fill="#000000" font-family="sans-serif" font-size="14" lengthAdjust="spacingAndGlyphs" textLength="69" x="1094" y="1040.9551">ForSorter2</text><ellipse cx="1131.5" cy="1010.4219" fill="#F8F8F8" filter="url(#fu9v74t)" rx="12" ry="12" style="stroke: #383838; stroke-width: 2.0;"/><line style="stroke: #383838; stroke-width: 2.0;" x1="1119.5" x2="1143.5" y1="1024.4219" y2="1024.4219"/><line style="stroke: #383838; stroke-width: 1.0;" x1="40" x2="40" y1="84.2188" y2="500.7891"/><line style="stroke: #383838; stroke-width: 1.0; stroke-dasharray: 1.0,4.0;" x1="40" x2="40" y1="500.7891" y2="542.625"/><line style="stroke: #383838; stroke-width: 1.0;" x1="40" x2="40" y1="542.625" y2="1071.0313"/><line style="stroke: #383838; stroke-width: 1.0;" x1="115" x2="115" y1="84.2188" y2="500.7891"/><line style="stroke: #383838; stroke-width: 1.0; stroke-dasharray: 1.0,4.0;" x1="115" x2="115" y1="500.7891" y2="542.625"/><line style="stroke: #383838; stroke-width: 1.0;" x1="115" x2="115" y1="542.625" y2="1071.0313"/><line style="stroke: #383838; stroke-width: 1.0;" x1="212" x2="212" y1="84.2188" y2="500.7891"/><line style="stroke: #383838; stroke-width: 1.0; stroke-dasharray: 1.0,4.0;" x1="212" x2="212" y1="500.7891" y2="542.625"/><line style="stroke: #383838; stroke-width: 1.0;" x1="212" x2="212" y1="542.625" y2="1071.0313"/><line style="stroke: #383838; stroke-width: 1.0;" x1="301" x2="301" y1="84.2188" y2="500.7891"/><line style="stroke: #383838; stroke-width: 1.0; stroke-dasharray: 1.0,4.0;" x1="301" x2="301" y1="500.7891" y2="542.625"/><line style="stroke: #383838; stroke-width: 1.0;" x1="301" x2="301" y1="542.625" y2="1071.0313"/><line style="stroke: #383838; stroke-width: 1.0;" x1="376" x2="376" y1="84.2188" y2="500.7891"/><line style="stroke: #383838; stroke-width: 1.0; stroke-dasharray: 1.0,4.0;" x1="376" x2="376" y1="500.7891" y2="542.625"/><line style="stroke: #383838; stroke-width: 1.0;" x1="376" x2="376" y1="542.625" y2="1071.0313"/><line style="stroke: #383838; stroke-width: 1.0;" x1="453" x2="453" y1="84.2188" y2="500.7891"/><line style="stroke: #383838; stroke-width: 1.0; stroke-dasharray: 1.0,4.0;" x1="453" x2="453" y1="500.7891" y2="542.625"/><line style="stroke: #383838; stroke-width: 1.0;" x1="453" x2="453" y1="542.625" y2="1071.0313"/><line style="stroke: #383838; stroke-width: 1.0;" x1="553" x2="553" y1="84.2188" y2="500.7891"/><line style="stroke: #383838; stroke-width: 1.0; stroke-dasharray: 1.0,4.0;" x1="553" x2="553" y1="500.7891" y2="542.625"/><line style="stroke: #383838; stroke-width: 1.0;" x1="553" x2="553" y1="542.625" y2="1071.0313"/><line style="stroke: #383838; stroke-width: 1.0;" x1="664" x2="664" y1="84.2188" y2="500.7891"/><line style="stroke: #383838; stroke-width: 1.0; stroke-dasharray: 1.0,4.0;" x1="664" x2="664" y1="500.7891" y2="542.625"/><line style="stroke: #383838; stroke-width: 1.0;" x1="664" x2="664" y1="542.625" y2="1071.0313"/><line style="stroke: #383838; stroke-width: 1.0;" x1="779" x2="779" y1="84.2188" y2="500.7891"/><line style="stroke: #383838; stroke-width: 1.0; stroke-dasharray: 1.0,4.0;" x1="779" x2="779" y1="500.7891" y2="542.625"/><line style="stroke: #383838; stroke-width: 1.0;" x1="779" x2="779" y1="542.625" y2="1071.0313"/><line style="stroke: #383838; stroke-width: 1.0;" x1="880" x2="880" y1="730.6719" y2="1071.0313"/><line style="stroke: #383838; stroke-width: 1.0;" x1="965" x2="965" y1="806.1172" y2="1071.0313"/><line style="stroke: #383838; stroke-width: 1.0;" x1="1046" x2="1046" y1="958.7813" y2="1071.0313"/><line style="stroke: #383838; stroke-width: 1.0;" x1="1131" x2="1131" y1="1034.2266" y2="1071.0313"/><text fill="#000000" font-family="sans-serif" font-size="14" lengthAdjust="spacingAndGlyphs" textLength="28" x="23" y="81.1426">CSV</text><ellipse cx="40" cy="50.6094" fill="#F8F8F8" filter="url(#fu9v74t)" rx="12" ry="12" style="stroke: #383838; stroke-width: 2.0;"/><line style="stroke: #383838; stroke-width: 2.0;" x1="28" x2="52" y1="64.6094" y2="64.6094"/><text fill="#000000" font-family="sans-serif" font-size="14" lengthAdjust="spacingAndGlyphs" textLength="28" x="23" y="1084.5645">CSV</text><ellipse cx="40" cy="1103.6406" fill="#F8F8F8" filter="url(#fu9v74t)" rx="12" ry="12" style="stroke: #383838; stroke-width: 2.0;"/><line style="stroke: #383838; stroke-width: 2.0;" x1="28" x2="52" y1="1117.6406" y2="1117.6406"/><text fill="#000000" font-family="sans-serif" font-size="14" lengthAdjust="spacingAndGlyphs" textLength="90" x="67" y="81.1426">ｾｯﾄ商品ﾘｽﾄ.xls</text><ellipse cx="115" cy="50.6094" fill="#F8F8F8" filter="url(#fu9v74t)" rx="12" ry="12" style="stroke: #383838; stroke-width: 2.0;"/><line style="stroke: #383838; stroke-width: 2.0;" x1="103" x2="127" y1="64.6094" y2="64.6094"/><text fill="#000000" font-family="sans-serif" font-size="14" lengthAdjust="spacingAndGlyphs" textLength="90" x="67" y="1084.5645">ｾｯﾄ商品ﾘｽﾄ.xls</text><ellipse cx="115" cy="1103.6406" fill="#F8F8F8" filter="url(#fu9v74t)" rx="12" ry="12" style="stroke: #383838; stroke-width: 2.0;"/><line style="stroke: #383838; stroke-width: 2.0;" x1="103" x2="127" y1="1117.6406" y2="1117.6406"/><rect fill="#F8F8F8" filter="url(#fu9v74t)" height="31.6094" style="stroke: #383838; stroke-width: 1.5;" width="74" x="173" y="47.6094"/><text fill="#000000" font-family="sans-serif" font-size="14" lengthAdjust="spacingAndGlyphs" textLength="60" x="180" y="69.1426">FetchCsv</text><rect fill="#F8F8F8" filter="url(#fu9v74t)" height="31.6094" style="stroke: #383838; stroke-width: 1.5;" width="74" x="173" y="1070.0313"/><text fill="#000000" font-family="sans-serif" font-size="14" lengthAdjust="spacingAndGlyphs" textLength="60" x="180" y="1091.5645">FetchCsv</text><rect fill="#F8F8F8" filter="url(#fu9v74t)" height="31.6094" style="stroke: #383838; stroke-width: 1.5;" width="77" x="261" y="47.6094"/><text fill="#000000" font-family="sans-serif" font-size="14" lengthAdjust="spacingAndGlyphs" textLength="63" x="268" y="69.1426">SetParser</text><rect fill="#F8F8F8" filter="url(#fu9v74t)" height="31.6094" style="stroke: #383838; stroke-width: 1.5;" width="77" x="261" y="1070.0313"/><text fill="#000000" font-family="sans-serif" font-size="14" lengthAdjust="spacingAndGlyphs" textLength="63" x="268" y="1091.5645">SetParser</text><rect fill="#F8F8F8" filter="url(#fu9v74t)" height="31.6094" style="stroke: #383838; stroke-width: 1.5;" width="44" x="352" y="47.6094"/><text fill="#000000" font-family="sans-serif" font-size="14" lengthAdjust="spacingAndGlyphs" textLength="30" x="359" y="69.1426">Main</text><rect fill="#F8F8F8" filter="url(#fu9v74t)" height="31.6094" style="stroke: #383838; stroke-width: 1.5;" width="44" x="352" y="1070.0313"/><text fill="#000000" font-family="sans-serif" font-size="14" lengthAdjust="spacingAndGlyphs" textLength="30" x="359" y="1091.5645">Main</text><text fill="#000000" font-family="sans-serif" font-size="14" lengthAdjust="spacingAndGlyphs" textLength="81" x="410" y="81.1426">OrdersSheet</text><ellipse cx="453.5" cy="50.6094" fill="#F8F8F8" filter="url(#fu9v74t)" rx="12" ry="12" style="stroke: #383838; stroke-width: 2.0;"/><line style="stroke: #383838; stroke-width: 2.0;" x1="441.5" x2="465.5" y1="64.6094" y2="64.6094"/><text fill="#000000" font-family="sans-serif" font-size="14" lengthAdjust="spacingAndGlyphs" textLength="81" x="410" y="1084.5645">OrdersSheet</text><ellipse cx="453.5" cy="1103.6406" fill="#F8F8F8" filter="url(#fu9v74t)" rx="12" ry="12" style="stroke: #383838; stroke-width: 2.0;"/><line style="stroke: #383838; stroke-width: 2.0;" x1="441.5" x2="465.5" y1="1117.6406" y2="1117.6406"/><rect fill="#F8F8F8" filter="url(#fu9v74t)" height="31.6094" style="stroke: #383838; stroke-width: 1.5;" width="88" x="507" y="47.6094"/><text fill="#000000" font-family="sans-serif" font-size="14" lengthAdjust="spacingAndGlyphs" textLength="74" x="514" y="69.1426">OrderSheet</text><rect fill="#F8F8F8" filter="url(#fu9v74t)" height="31.6094" style="stroke: #383838; stroke-width: 1.5;" width="88" x="507" y="1070.0313"/><text fill="#000000" font-family="sans-serif" font-size="14" lengthAdjust="spacingAndGlyphs" textLength="74" x="514" y="1091.5645">OrderSheet</text><rect fill="#F8F8F8" filter="url(#fu9v74t)" height="31.6094" style="stroke: #383838; stroke-width: 1.5;" width="107" x="609" y="47.6094"/><text fill="#000000" font-family="sans-serif" font-size="14" lengthAdjust="spacingAndGlyphs" textLength="93" x="616" y="69.1426">LocationCutter</text><rect fill="#F8F8F8" filter="url(#fu9v74t)" height="31.6094" style="stroke: #383838; stroke-width: 1.5;" width="107" x="609" y="1070.0313"/><text fill="#000000" font-family="sans-serif" font-size="14" lengthAdjust="spacingAndGlyphs" textLength="93" x="616" y="1091.5645">LocationCutter</text><rect fill="#F8F8F8" filter="url(#fu9v74t)" height="31.6094" style="stroke: #383838; stroke-width: 1.5;" width="95" x="730" y="47.6094"/><text fill="#000000" font-family="sans-serif" font-size="14" lengthAdjust="spacingAndGlyphs" textLength="81" x="737" y="69.1426">SheetBuilder</text><rect fill="#F8F8F8" filter="url(#fu9v74t)" height="31.6094" style="stroke: #383838; stroke-width: 1.5;" width="95" x="730" y="1070.0313"/><text fill="#000000" font-family="sans-serif" font-size="14" lengthAdjust="spacingAndGlyphs" textLength="81" x="737" y="1091.5645">SheetBuilder</text><text fill="#000000" font-family="sans-serif" font-size="14" lengthAdjust="spacingAndGlyphs" textLength="77" x="839" y="1084.5645">Picking_2_3</text><ellipse cx="880.5" cy="1103.6406" fill="#F8F8F8" filter="url(#fu9v74t)" rx="12" ry="12" style="stroke: #383838; stroke-width: 2.0;"/><line style="stroke: #383838; stroke-width: 2.0;" x1="868.5" x2="892.5" y1="1117.6406" y2="1117.6406"/><text fill="#000000" font-family="sans-serif" font-size="14" lengthAdjust="spacingAndGlyphs" textLength="61" x="932" y="1084.5645">Picking_a</text><ellipse cx="965.5" cy="1103.6406" fill="#F8F8F8" filter="url(#fu9v74t)" rx="12" ry="12" style="stroke: #383838; stroke-width: 2.0;"/><line style="stroke: #383838; stroke-width: 2.0;" x1="953.5" x2="977.5" y1="1117.6406" y2="1117.6406"/><text fill="#000000" font-family="sans-serif" font-size="14" lengthAdjust="spacingAndGlyphs" textLength="69" x="1009" y="1084.5645">ForSorter1</text><ellipse cx="1046.5" cy="1103.6406" fill="#F8F8F8" filter="url(#fu9v74t)" rx="12" ry="12" style="stroke: #383838; stroke-width: 2.0;"/><line style="stroke: #383838; stroke-width: 2.0;" x1="1034.5" x2="1058.5" y1="1117.6406" y2="1117.6406"/><text fill="#000000" font-family="sans-serif" font-size="14" lengthAdjust="spacingAndGlyphs" textLength="69" x="1094" y="1084.5645">ForSorter2</text><ellipse cx="1131.5" cy="1103.6406" fill="#F8F8F8" filter="url(#fu9v74t)" rx="12" ry="12" style="stroke: #383838; stroke-width: 2.0;"/><line style="stroke: #383838; stroke-width: 2.0;" x1="1119.5" x2="1143.5" y1="1117.6406" y2="1117.6406"/><rect fill="#FFFFFF" filter="url(#fu9v74t)" height="305.1641" style="stroke: #383838; stroke-width: 1.0;" width="10" x="207" y="130.5703"/><rect fill="#FFFFFF" filter="url(#fu9v74t)" height="91.0547" style="stroke: #383838; stroke-width: 1.0;" width="10" x="296.5" y="246.625"/><rect fill="#FFFFFF" filter="url(#fu9v74t)" height="30.3516" style="stroke: #383838; stroke-width: 1.0;" width="10" x="296.5" y="368.0313"/><rect fill="#FFFFFF" filter="url(#fu9v74t)" height="384.5703" style="stroke: #FFFFFF; stroke-width: 1.0;" width="10" x="371" y="116.2188"/><line style="stroke: #383838; stroke-width: 1.0;" x1="371" x2="371" y1="116.2188" y2="500.7891"/><line style="stroke: #383838; stroke-width: 1.0;" x1="381" x2="381" y1="116.2188" y2="500.7891"/><line style="stroke: #383838; stroke-width: 1.0;" x1="371" x2="381" y1="116.2188" y2="116.2188"/><rect fill="#FFFFFF" filter="url(#fu9v74t)" height="518.4063" style="stroke: #FFFFFF; stroke-width: 1.0;" width="10" x="371" y="542.625"/><line style="stroke: #383838; stroke-width: 1.0;" x1="371" x2="371" y1="542.625" y2="1061.0313"/><line style="stroke: #383838; stroke-width: 1.0;" x1="381" x2="381" y1="542.625" y2="1061.0313"/><line style="stroke: #383838; stroke-width: 1.0;" x1="371" x2="381" y1="1061.0313" y2="1061.0313"/><rect fill="#FFFFFF" filter="url(#fu9v74t)" height="30.3516" style="stroke: #383838; stroke-width: 1.0;" width="10" x="659.5" y="589.9766"/><rect fill="#FFFFFF" filter="url(#fu9v74t)" height="419.3516" style="stroke: #383838; stroke-width: 1.0;" width="10" x="774.5" y="641.6797"/><polygon fill="#383838" points="51,112.2188,41,116.2188,51,120.2188,47,116.2188" style="stroke: #383838; stroke-width: 1.0;"/><line style="stroke: #383838; stroke-width: 1.0;" x1="45" x2="211" y1="116.2188" y2="116.2188"/><text fill="#000000" font-family="sans-serif" font-size="13" lengthAdjust="spacingAndGlyphs" textLength="115" x="57" y="111.7139">TextStreamingOpen</text><polygon fill="#383838" points="228,126.5703,218,130.5703,228,134.5703,224,130.5703" style="stroke: #383838; stroke-width: 1.0;"/><line style="stroke: #383838; stroke-width: 1.0;" x1="222" x2="370" y1="130.5703" y2="130.5703"/><rect fill="none" height="261.1641" style="stroke: #000000; stroke-width: 2.0;" width="494" x="13" y="145.5703"/><polygon fill="#EEEEEE" points="13,145.5703,86,145.5703,86,153.5703,76,163.5703,13,163.5703,13,145.5703" style="stroke: #000000; stroke-width: 2.0;"/><text fill="#000000" font-family="sans-serif" font-size="13" font-weight="bold" lengthAdjust="spacingAndGlyphs" textLength="28" x="28" y="160.0654">loop</text><text fill="#000000" font-family="sans-serif" font-size="11" font-weight="bold" lengthAdjust="spacingAndGlyphs" textLength="98" x="101" y="158.9893">[1行ずつ読み出し]</text><polygon fill="#383838" points="195,181.9219,205,185.9219,195,189.9219,199,185.9219" style="stroke: #383838; stroke-width: 1.0;"/><line style="stroke: #383838; stroke-width: 1.0;" x1="40" x2="201" y1="185.9219" y2="185.9219"/><text fill="#000000" font-family="sans-serif" font-size="13" lengthAdjust="spacingAndGlyphs" textLength="31" x="47" y="181.417">1Line</text><polygon fill="#383838" points="441.5,212.2734,451.5,216.2734,441.5,220.2734,445.5,216.2734" style="stroke: #383838; stroke-width: 1.0;"/><line style="stroke: #383838; stroke-width: 1.0;" x1="217" x2="447.5" y1="216.2734" y2="216.2734"/><text fill="#000000" font-family="sans-serif" font-size="13" lengthAdjust="spacingAndGlyphs" textLength="91" x="224" y="211.7686">受注データ書込</text><polygon fill="#383838" points="317.5,242.625,307.5,246.625,317.5,250.625,313.5,246.625" style="stroke: #383838; stroke-width: 1.0;"/><line style="stroke: #383838; stroke-width: 1.0;" x1="311.5" x2="452.5" y1="246.625" y2="246.625"/><text fill="#000000" font-family="sans-serif" font-size="13" lengthAdjust="spacingAndGlyphs" textLength="65" x="323.5" y="242.1201">セット分解</text><polygon fill="#383838" points="126,272.9766,116,276.9766,126,280.9766,122,276.9766" style="stroke: #383838; stroke-width: 1.0;"/><line style="stroke: #383838; stroke-width: 1.0;" x1="120" x2="295.5" y1="276.9766" y2="276.9766"/><text fill="#000000" font-family="sans-serif" font-size="13" lengthAdjust="spacingAndGlyphs" textLength="127" x="132" y="272.4717">GetComponentItems()</text><polygon fill="#383838" points="284.5,303.3281,294.5,307.3281,284.5,311.3281,288.5,307.3281" style="stroke: #383838; stroke-width: 1.0;"/><line style="stroke: #383838; stroke-width: 1.0; stroke-dasharray: 2.0,2.0;" x1="115" x2="290.5" y1="307.3281" y2="307.3281"/><text fill="#000000" font-family="sans-serif" font-size="13" lengthAdjust="spacingAndGlyphs" textLength="82" x="122" y="302.8232">ItemCollection</text><polygon fill="#383838" points="441.5,333.6797,451.5,337.6797,441.5,341.6797,445.5,337.6797" style="stroke: #383838; stroke-width: 1.0;"/><line style="stroke: #383838; stroke-width: 1.0;" x1="301.5" x2="447.5" y1="337.6797" y2="337.6797"/><text fill="#000000" font-family="sans-serif" font-size="13" lengthAdjust="spacingAndGlyphs" textLength="91" x="308.5" y="333.1748">アイテム行挿入</text><polygon fill="#383838" points="317.5,364.0313,307.5,368.0313,317.5,372.0313,313.5,368.0313" style="stroke: #383838; stroke-width: 1.0;"/><line style="stroke: #383838; stroke-width: 1.0;" x1="311.5" x2="452.5" y1="368.0313" y2="368.0313"/><text fill="#000000" font-family="sans-serif" font-size="13" lengthAdjust="spacingAndGlyphs" textLength="65" x="323.5" y="363.5264">○個組分解</text><polygon fill="#383838" points="441.5,394.3828,451.5,398.3828,441.5,402.3828,445.5,398.3828" style="stroke: #383838; stroke-width: 1.0;"/><line style="stroke: #383838; stroke-width: 1.0;" x1="301.5" x2="447.5" y1="398.3828" y2="398.3828"/><text fill="#000000" font-family="sans-serif" font-size="13" lengthAdjust="spacingAndGlyphs" textLength="78" x="308.5" y="393.8779">単体数量上書</text><polygon fill="#383838" points="51,431.7344,41,435.7344,51,439.7344,47,435.7344" style="stroke: #383838; stroke-width: 1.0;"/><line style="stroke: #383838; stroke-width: 1.0;" x1="45" x2="211" y1="435.7344" y2="435.7344"/><text fill="#000000" font-family="sans-serif" font-size="13" lengthAdjust="spacingAndGlyphs" textLength="117" x="57" y="431.2295">TextStreamingClose</text><line style="stroke: #383838; stroke-width: 2.0;" x1="203" x2="221" y1="426.7344" y2="444.7344"/><line style="stroke: #383838; stroke-width: 2.0;" x1="203" x2="221" y1="444.7344" y2="426.7344"/><polygon fill="#ECECEC" filter="url(#fu9v74t)" points="499,449.0859,499,491.0859,602,491.0859,602,459.0859,592,449.0859,499,449.0859" style="stroke: #383838; stroke-width: 1.0;"/><line style="stroke: #383838; stroke-width: 1.0;" x1="592" x2="592" y1="449.0859" y2="459.0859"/><line style="stroke: #383838; stroke-width: 1.0;" x1="602" x2="592" y1="459.0859" y2="459.0859"/><text fill="#000000" font-family="sans-serif" font-size="13" lengthAdjust="spacingAndGlyphs" textLength="78" x="505" y="467.5811">商魂アドイン</text><text fill="#000000" font-family="sans-serif" font-size="13" lengthAdjust="spacingAndGlyphs" textLength="52" x="505" y="483.9326">台帳出力</text><text fill="#000000" font-family="sans-serif" font-size="11" lengthAdjust="spacingAndGlyphs" textLength="66" x="552.75" y="526.208">アドイン実行</text><rect fill="none" height="79.0547" style="stroke: #000000; stroke-width: 2.0;" width="330" x="400" y="549.625"/><polygon fill="#EEEEEE" points="400,549.625,473,549.625,473,557.625,463,567.625,400,567.625,400,549.625" style="stroke: #000000; stroke-width: 2.0;"/><text fill="#000000" font-family="sans-serif" font-size="13" font-weight="bold" lengthAdjust="spacingAndGlyphs" textLength="28" x="415" y="564.1201">loop</text><text fill="#000000" font-family="sans-serif" font-size="11" font-weight="bold" lengthAdjust="spacingAndGlyphs" textLength="140" x="488" y="563.0439">[ロケーション文字列修正]</text><polygon fill="#383838" points="647.5,585.9766,657.5,589.9766,647.5,593.9766,651.5,589.9766" style="stroke: #383838; stroke-width: 1.0;"/><line style="stroke: #383838; stroke-width: 1.0;" x1="453.5" x2="653.5" y1="589.9766" y2="589.9766"/><text fill="#000000" font-family="sans-serif" font-size="13" lengthAdjust="spacingAndGlyphs" textLength="91" x="460.5" y="585.4717">ロケ文字列取得</text><polygon fill="#383838" points="464.5,616.3281,454.5,620.3281,464.5,624.3281,460.5,620.3281" style="stroke: #383838; stroke-width: 1.0;"/><line style="stroke: #383838; stroke-width: 1.0;" x1="458.5" x2="663.5" y1="620.3281" y2="620.3281"/><text fill="#000000" font-family="sans-serif" font-size="13" lengthAdjust="spacingAndGlyphs" textLength="78" x="470.5" y="615.8232">無効ロケ削除</text><polygon fill="#383838" points="762.5,637.6797,772.5,641.6797,762.5,645.6797,766.5,641.6797" style="stroke: #383838; stroke-width: 1.0;"/><line style="stroke: #383838; stroke-width: 1.0;" x1="453.5" x2="768.5" y1="641.6797" y2="641.6797"/><rect fill="none" height="169.2422" style="stroke: #000000; stroke-width: 2.0;" width="289" x="720" y="656.6797"/><polygon fill="#EEEEEE" points="720,656.6797,905,656.6797,905,664.6797,895,674.6797,720,674.6797,720,656.6797" style="stroke: #000000; stroke-width: 2.0;"/><text fill="#000000" font-family="sans-serif" font-size="13" font-weight="bold" lengthAdjust="spacingAndGlyphs" textLength="140" x="735" y="671.1748">ピッキングデータ作成</text><line style="stroke: #000000; stroke-width: 1.0; stroke-dasharray: 2.0,2.0;" x1="720" x2="1009" y1="676.0313" y2="676.0313"/><text fill="#000000" font-family="sans-serif" font-size="11" font-weight="bold" lengthAdjust="spacingAndGlyphs" textLength="44" x="725" y="687.4502">[棚有り]</text><polygon fill="#383838" points="827,692.8672,837,696.8672,827,700.8672,831,696.8672" style="stroke: #383838; stroke-width: 1.0;"/><line style="stroke: #383838; stroke-width: 1.0;" x1="784.5" x2="833" y1="696.8672" y2="696.8672"/><text fill="#000000" font-family="sans-serif" font-size="14" lengthAdjust="spacingAndGlyphs" textLength="77" x="839" y="737.4004">Picking_2_3</text><ellipse cx="880.5" cy="706.8672" fill="#F8F8F8" filter="url(#fu9v74t)" rx="12" ry="12" style="stroke: #383838; stroke-width: 2.0;"/><line style="stroke: #383838; stroke-width: 2.0;" x1="868.5" x2="892.5" y1="720.8672" y2="720.8672"/><line style="stroke: #000000; stroke-width: 1.0; stroke-dasharray: 2.0,2.0;" x1="720" x2="1009" y1="751.4766" y2="751.4766"/><text fill="#000000" font-family="sans-serif" font-size="11" font-weight="bold" lengthAdjust="spacingAndGlyphs" textLength="44" x="725" y="762.8955">[棚無し]</text><polygon fill="#383838" points="920,768.3125,930,772.3125,920,776.3125,924,772.3125" style="stroke: #383838; stroke-width: 1.0;"/><line style="stroke: #383838; stroke-width: 1.0;" x1="784.5" x2="926" y1="772.3125" y2="772.3125"/><text fill="#000000" font-family="sans-serif" font-size="14" lengthAdjust="spacingAndGlyphs" textLength="61" x="932" y="812.8457">Picking_a</text><ellipse cx="965.5" cy="782.3125" fill="#F8F8F8" filter="url(#fu9v74t)" rx="12" ry="12" style="stroke: #383838; stroke-width: 2.0;"/><line style="stroke: #383838; stroke-width: 2.0;" x1="953.5" x2="977.5" y1="796.3125" y2="796.3125"/><polygon fill="#383838" points="868.5,850.9219,878.5,854.9219,868.5,858.9219,872.5,854.9219" style="stroke: #383838; stroke-width: 1.0;"/><line style="stroke: #383838; stroke-width: 1.0;" x1="381" x2="874.5" y1="854.9219" y2="854.9219"/><text fill="#000000" font-family="sans-serif" font-size="13" lengthAdjust="spacingAndGlyphs" textLength="78" x="388" y="850.417">ファイル保存</text><line style="stroke: #383838; stroke-width: 2.0;" x1="871.5" x2="889.5" y1="845.9219" y2="863.9219"/><line style="stroke: #383838; stroke-width: 2.0;" x1="871.5" x2="889.5" y1="863.9219" y2="845.9219"/><polygon fill="#383838" points="953.5,881.2734,963.5,885.2734,953.5,889.2734,957.5,885.2734" style="stroke: #383838; stroke-width: 1.0;"/><line style="stroke: #383838; stroke-width: 1.0;" x1="381" x2="959.5" y1="885.2734" y2="885.2734"/><text fill="#000000" font-family="sans-serif" font-size="13" lengthAdjust="spacingAndGlyphs" textLength="78" x="388" y="880.7686">ファイル保存</text><line style="stroke: #383838; stroke-width: 2.0;" x1="956.5" x2="974.5" y1="876.2734" y2="894.2734"/><line style="stroke: #383838; stroke-width: 2.0;" x1="956.5" x2="974.5" y1="894.2734" y2="876.2734"/><rect fill="none" height="153.4063" style="stroke: #000000; stroke-width: 2.0;" width="459" x="720" y="900.625"/><polygon fill="#EEEEEE" points="720,900.625,781,900.625,781,908.625,771,918.625,720,918.625,720,900.625" style="stroke: #000000; stroke-width: 2.0;"/><text fill="#000000" font-family="sans-serif" font-size="13" font-weight="bold" lengthAdjust="spacingAndGlyphs" textLength="16" x="735" y="915.1201">alt</text><text fill="#000000" font-family="sans-serif" font-size="11" font-weight="bold" lengthAdjust="spacingAndGlyphs" textLength="68" x="796" y="914.0439">[単体受注品]</text><polygon fill="#383838" points="997,920.9766,1007,924.9766,997,928.9766,1001,924.9766" style="stroke: #383838; stroke-width: 1.0;"/><line style="stroke: #383838; stroke-width: 1.0;" x1="784.5" x2="1003" y1="924.9766" y2="924.9766"/><text fill="#000000" font-family="sans-serif" font-size="14" lengthAdjust="spacingAndGlyphs" textLength="69" x="1009" y="965.5098">ForSorter1</text><ellipse cx="1046.5" cy="934.9766" fill="#F8F8F8" filter="url(#fu9v74t)" rx="12" ry="12" style="stroke: #383838; stroke-width: 2.0;"/><line style="stroke: #383838; stroke-width: 2.0;" x1="1034.5" x2="1058.5" y1="948.9766" y2="948.9766"/><line style="stroke: #000000; stroke-width: 1.0; stroke-dasharray: 2.0,2.0;" x1="720" x2="1179" y1="979.5859" y2="979.5859"/><text fill="#000000" font-family="sans-serif" font-size="11" font-weight="bold" lengthAdjust="spacingAndGlyphs" textLength="68" x="725" y="991.0049">[セット商品]</text><polygon fill="#383838" points="1082,996.4219,1092,1000.4219,1082,1004.4219,1086,1000.4219" style="stroke: #383838; stroke-width: 1.0;"/><line style="stroke: #383838; stroke-width: 1.0;" x1="784.5" x2="1088" y1="1000.4219" y2="1000.4219"/><text fill="#000000" font-family="sans-serif" font-size="14" lengthAdjust="spacingAndGlyphs" textLength="69" x="1094" y="1040.9551">ForSorter2</text><ellipse cx="1131.5" cy="1010.4219" fill="#F8F8F8" filter="url(#fu9v74t)" rx="12" ry="12" style="stroke: #383838; stroke-width: 2.0;"/><line style="stroke: #383838; stroke-width: 2.0;" x1="1119.5" x2="1143.5" y1="1024.4219" y2="1024.4219"/></g></svg>