<?xml version="1.0" encoding="UTF-8" standalone="no"?><svg xmlns="http://www.w3.org/2000/svg" xmlns:xlink="http://www.w3.org/1999/xlink" contentScriptType="application/ecmascript" contentStyleType="text/css" height="1968px" preserveAspectRatio="none" style="width:1431px;height:1968px;" version="1.1" viewBox="0 0 1431 1968" width="1431px" zoomAndPan="magnify"><defs><filter height="300%" id="fo3xs6g" width="300%" x="-1" y="-1"><feGaussianBlur result="blurOut" stdDeviation="2.0"/><feColorMatrix in="blurOut" result="blurOut2" type="matrix" values="0 0 0 0 0 0 0 0 0 0 0 0 0 0 0 0 0 0 .4 0"/><feOffset dx="4.0" dy="4.0" in="blurOut2" result="blurOut3"/><feBlend in="SourceGraphic" in2="blurOut3" mode="normal"/></filter></defs><g><text fill="#000000" font-family="sans-serif" font-size="14" font-weight="bold" lengthAdjust="spacingAndGlyphs" textLength="193" x="621.25" y="24.5332">ピッキングテンプレートVBA</text><rect fill="#FFFFFF" filter="url(#fo3xs6g)" height="1736.1367" style="stroke: #383838; stroke-width: 1.0;" width="10" x="240" y="144.457"/><rect fill="#FFFFFF" filter="url(#fo3xs6g)" height="370.2188" style="stroke: #383838; stroke-width: 1.0;" width="10" x="353" y="181.6953"/><rect fill="#FFFFFF" filter="url(#fo3xs6g)" height="116.0547" style="stroke: #383838; stroke-width: 1.0;" width="10" x="632" y="405.5078"/><rect fill="#FFFFFF" filter="url(#fo3xs6g)" height="131.7578" style="stroke: #383838; stroke-width: 1.0;" width="10" x="632" y="551.9141"/><rect fill="#FFFFFF" filter="url(#fo3xs6g)" height="91.0547" style="stroke: #383838; stroke-width: 1.0;" width="10" x="727.5" y="705.6719"/><rect fill="#FFFFFF" filter="url(#fo3xs6g)" height="85.7031" style="stroke: #383838; stroke-width: 1.0;" width="10" x="832" y="827.0781"/><rect fill="#FFFFFF" filter="url(#fo3xs6g)" height="434.0547" style="stroke: #383838; stroke-width: 1.0;" width="10" x="941" y="968.1328"/><rect fill="#FFFFFF" filter="url(#fo3xs6g)" height="365.3516" style="stroke: #383838; stroke-width: 1.0;" width="10" x="941" y="1432.5391"/><rect fill="#FFFFFF" filter="url(#fo3xs6g)" height="48.7031" style="stroke: #000000; stroke-width: 2.0;" width="248" x="441" y="627.9688"/><rect fill="#FFFFFF" filter="url(#fo3xs6g)" height="807.4063" style="stroke: #000000; stroke-width: 2.0;" width="1211.5" x="211" y="983.4844"/><rect fill="#FFFFFF" filter="url(#fo3xs6g)" height="303.6484" style="stroke: #000000; stroke-width: 2.0;" width="790.5" x="441" y="1039.1875"/><text fill="#000000" font-family="sans-serif" font-size="14" lengthAdjust="spacingAndGlyphs" textLength="77" x="1061.5" y="1104.0723">Picking_2_3</text><ellipse cx="1103" cy="1073.5391" fill="#F8F8F8" filter="url(#fo3xs6g)" rx="12" ry="12" style="stroke: #383838; stroke-width: 2.0;"/><line style="stroke: #383838; stroke-width: 2.0;" x1="1091" x2="1115" y1="1087.5391" y2="1087.5391"/><text fill="#000000" font-family="sans-serif" font-size="14" lengthAdjust="spacingAndGlyphs" textLength="61" x="1154.5" y="1163.6816">Picking_a</text><ellipse cx="1188" cy="1133.1484" fill="#F8F8F8" filter="url(#fo3xs6g)" rx="12" ry="12" style="stroke: #383838; stroke-width: 2.0;"/><line style="stroke: #383838; stroke-width: 2.0;" x1="1176" x2="1200" y1="1147.1484" y2="1147.1484"/><rect fill="#FFFFFF" height="46.1875" style="stroke: none; stroke-width: 1.0;" width="790.5" x="441" y="1250.4609"/><rect fill="#FFFFFF" height="46.1875" style="stroke: none; stroke-width: 1.0;" width="790.5" x="441" y="1296.6484"/><rect fill="#FFFFFF" filter="url(#fo3xs6g)" height="336" style="stroke: #000000; stroke-width: 2.0;" width="971.5" x="441" y="1447.8906"/><text fill="#000000" font-family="sans-serif" font-size="14" lengthAdjust="spacingAndGlyphs" textLength="61" x="1231.5" y="1512.7754">ForSorter</text><ellipse cx="1265" cy="1482.2422" fill="#F8F8F8" filter="url(#fo3xs6g)" rx="12" ry="12" style="stroke: #383838; stroke-width: 2.0;"/><line style="stroke: #383838; stroke-width: 2.0;" x1="1253" x2="1277" y1="1496.2422" y2="1496.2422"/><text fill="#000000" font-family="sans-serif" font-size="14" lengthAdjust="spacingAndGlyphs" textLength="88" x="1308.5" y="1572.3848">ForSorter_set</text><ellipse cx="1355.5" cy="1541.8516" fill="#F8F8F8" filter="url(#fo3xs6g)" rx="12" ry="12" style="stroke: #383838; stroke-width: 2.0;"/><line style="stroke: #383838; stroke-width: 2.0;" x1="1343.5" x2="1367.5" y1="1555.8516" y2="1555.8516"/><rect fill="#FFFFFF" height="46.1875" style="stroke: none; stroke-width: 1.0;" width="971.5" x="441" y="1659.1641"/><rect fill="#FFFFFF" height="46.1875" style="stroke: none; stroke-width: 1.0;" width="971.5" x="441" y="1705.3516"/><rect fill="#FFFFFF" height="32.3516" style="stroke: none; stroke-width: 1.0;" width="971.5" x="441" y="1751.5391"/><rect fill="#FFFFFF" height="1929.9453" style="stroke: #383838; stroke-width: 1.0;" width="148" x="67" y="35.6094"/><text fill="#000000" font-family="sans-serif" font-size="13" font-weight="bold" lengthAdjust="spacingAndGlyphs" textLength="84" x="99" y="49.1045">外部ファイル</text><line style="stroke: #383838; stroke-width: 1.0; stroke-dasharray: 5.0,5.0;" x1="34" x2="34" y1="105.5703" y2="1898.9453"/><line style="stroke: #383838; stroke-width: 1.0; stroke-dasharray: 5.0,5.0;" x1="88" x2="88" y1="105.5703" y2="1898.9453"/><line style="stroke: #383838; stroke-width: 1.0; stroke-dasharray: 5.0,5.0;" x1="163" x2="163" y1="105.5703" y2="1898.9453"/><line style="stroke: #383838; stroke-width: 1.0; stroke-dasharray: 5.0,5.0;" x1="245" x2="245" y1="105.5703" y2="1898.9453"/><line style="stroke: #383838; stroke-width: 1.0; stroke-dasharray: 5.0,5.0;" x1="358" x2="358" y1="105.5703" y2="1898.9453"/><line style="stroke: #383838; stroke-width: 1.0; stroke-dasharray: 5.0,5.0;" x1="491" x2="491" y1="105.5703" y2="1898.9453"/><line style="stroke: #383838; stroke-width: 1.0; stroke-dasharray: 5.0,5.0;" x1="636.5" x2="636.5" y1="105.5703" y2="1898.9453"/><line style="stroke: #383838; stroke-width: 1.0; stroke-dasharray: 5.0,5.0;" x1="732.5" x2="732.5" y1="105.5703" y2="1898.9453"/><line style="stroke: #383838; stroke-width: 1.0; stroke-dasharray: 5.0,5.0;" x1="836.5" x2="836.5" y1="105.5703" y2="1898.9453"/><line style="stroke: #383838; stroke-width: 1.0; stroke-dasharray: 5.0,5.0;" x1="945.5" x2="945.5" y1="105.5703" y2="1898.9453"/><line style="stroke: #383838; stroke-width: 1.0; stroke-dasharray: 5.0,5.0;" x1="1102.5" x2="1102.5" y1="1097.3438" y2="1898.9453"/><line style="stroke: #383838; stroke-width: 1.0; stroke-dasharray: 5.0,5.0;" x1="1187.5" x2="1187.5" y1="1156.9531" y2="1898.9453"/><line style="stroke: #383838; stroke-width: 1.0; stroke-dasharray: 5.0,5.0;" x1="1264.5" x2="1264.5" y1="1506.0469" y2="1898.9453"/><line style="stroke: #383838; stroke-width: 1.0; stroke-dasharray: 5.0,5.0;" x1="1355.5" x2="1355.5" y1="1565.6563" y2="1898.9453"/><text fill="#000000" font-family="sans-serif" font-size="14" lengthAdjust="spacingAndGlyphs" textLength="47" x="8" y="102.4941">社内DB</text><path d="M16.5,51.9609 C16.5,41.9609 34.5,41.9609 34.5,41.9609 C34.5,41.9609 52.5,41.9609 52.5,51.9609 L52.5,77.9609 C52.5,87.9609 34.5,87.9609 34.5,87.9609 C34.5,87.9609 16.5,87.9609 16.5,77.9609 L16.5,51.9609 " fill="#F8F8F8" filter="url(#fo3xs6g)" style="stroke: #000000; stroke-width: 1.5;"/><path d="M16.5,51.9609 C16.5,61.9609 34.5,61.9609 34.5,61.9609 C34.5,61.9609 52.5,61.9609 52.5,51.9609 " fill="none" style="stroke: #000000; stroke-width: 1.5;"/><text fill="#000000" font-family="sans-serif" font-size="14" lengthAdjust="spacingAndGlyphs" textLength="47" x="8" y="1912.4785">社内DB</text><path d="M16.5,1925.5547 C16.5,1915.5547 34.5,1915.5547 34.5,1915.5547 C34.5,1915.5547 52.5,1915.5547 52.5,1925.5547 L52.5,1951.5547 C52.5,1961.5547 34.5,1961.5547 34.5,1961.5547 C34.5,1961.5547 16.5,1961.5547 16.5,1951.5547 L16.5,1925.5547 " fill="#F8F8F8" filter="url(#fo3xs6g)" style="stroke: #000000; stroke-width: 1.5;"/><path d="M16.5,1925.5547 C16.5,1935.5547 34.5,1935.5547 34.5,1935.5547 C34.5,1935.5547 52.5,1935.5547 52.5,1925.5547 " fill="none" style="stroke: #000000; stroke-width: 1.5;"/><text fill="#000000" font-family="sans-serif" font-size="14" lengthAdjust="spacingAndGlyphs" textLength="28" x="71" y="102.4941">CSV</text><ellipse cx="88" cy="71.9609" fill="#F8F8F8" filter="url(#fo3xs6g)" rx="12" ry="12" style="stroke: #383838; stroke-width: 2.0;"/><line style="stroke: #383838; stroke-width: 2.0;" x1="76" x2="100" y1="85.9609" y2="85.9609"/><text fill="#000000" font-family="sans-serif" font-size="14" lengthAdjust="spacingAndGlyphs" textLength="28" x="71" y="1912.4785">CSV</text><ellipse cx="88" cy="1931.5547" fill="#F8F8F8" filter="url(#fo3xs6g)" rx="12" ry="12" style="stroke: #383838; stroke-width: 2.0;"/><line style="stroke: #383838; stroke-width: 2.0;" x1="76" x2="100" y1="1945.5547" y2="1945.5547"/><text fill="#000000" font-family="sans-serif" font-size="14" lengthAdjust="spacingAndGlyphs" textLength="90" x="115" y="102.4941">ｾｯﾄ商品ﾘｽﾄ.xls</text><ellipse cx="163" cy="71.9609" fill="#F8F8F8" filter="url(#fo3xs6g)" rx="12" ry="12" style="stroke: #383838; stroke-width: 2.0;"/><line style="stroke: #383838; stroke-width: 2.0;" x1="151" x2="175" y1="85.9609" y2="85.9609"/><text fill="#000000" font-family="sans-serif" font-size="14" lengthAdjust="spacingAndGlyphs" textLength="90" x="115" y="1912.4785">ｾｯﾄ商品ﾘｽﾄ.xls</text><ellipse cx="163" cy="1931.5547" fill="#F8F8F8" filter="url(#fo3xs6g)" rx="12" ry="12" style="stroke: #383838; stroke-width: 2.0;"/><line style="stroke: #383838; stroke-width: 2.0;" x1="151" x2="175" y1="1945.5547" y2="1945.5547"/><rect fill="#F8F8F8" filter="url(#fo3xs6g)" height="31.6094" style="stroke: #383838; stroke-width: 1.5;" width="44" x="221" y="68.9609"/><text fill="#000000" font-family="sans-serif" font-size="14" lengthAdjust="spacingAndGlyphs" textLength="30" x="228" y="90.4941">Main</text><rect fill="#F8F8F8" filter="url(#fo3xs6g)" height="31.6094" style="stroke: #383838; stroke-width: 1.5;" width="44" x="221" y="1897.9453"/><text fill="#000000" font-family="sans-serif" font-size="14" lengthAdjust="spacingAndGlyphs" textLength="30" x="228" y="1919.4785">Main</text><rect fill="#F8F8F8" filter="url(#fo3xs6g)" height="31.6094" style="stroke: #383838; stroke-width: 1.5;" width="70" x="321" y="68.9609"/><text fill="#000000" font-family="sans-serif" font-size="14" lengthAdjust="spacingAndGlyphs" textLength="56" x="328" y="90.4941">LoadCsv</text><rect fill="#F8F8F8" filter="url(#fo3xs6g)" height="31.6094" style="stroke: #383838; stroke-width: 1.5;" width="70" x="321" y="1897.9453"/><text fill="#000000" font-family="sans-serif" font-size="14" lengthAdjust="spacingAndGlyphs" textLength="56" x="328" y="1919.4785">LoadCsv</text><text fill="#000000" font-family="sans-serif" font-size="14" lengthAdjust="spacingAndGlyphs" textLength="74" x="451" y="102.4941">OrderSheet</text><ellipse cx="491" cy="71.9609" fill="#F8F8F8" filter="url(#fo3xs6g)" rx="12" ry="12" style="stroke: #383838; stroke-width: 2.0;"/><line style="stroke: #383838; stroke-width: 2.0;" x1="479" x2="503" y1="85.9609" y2="85.9609"/><text fill="#000000" font-family="sans-serif" font-size="14" lengthAdjust="spacingAndGlyphs" textLength="74" x="451" y="1912.4785">OrderSheet</text><ellipse cx="491" cy="1931.5547" fill="#F8F8F8" filter="url(#fo3xs6g)" rx="12" ry="12" style="stroke: #383838; stroke-width: 2.0;"/><line style="stroke: #383838; stroke-width: 2.0;" x1="479" x2="503" y1="1945.5547" y2="1945.5547"/><rect fill="#F8F8F8" filter="url(#fo3xs6g)" height="31.6094" style="stroke: #383838; stroke-width: 1.5;" width="77" x="596.5" y="68.9609"/><text fill="#000000" font-family="sans-serif" font-size="14" lengthAdjust="spacingAndGlyphs" textLength="63" x="603.5" y="90.4941">SetParser</text><rect fill="#F8F8F8" filter="url(#fo3xs6g)" height="31.6094" style="stroke: #383838; stroke-width: 1.5;" width="77" x="596.5" y="1897.9453"/><text fill="#000000" font-family="sans-serif" font-size="14" lengthAdjust="spacingAndGlyphs" textLength="63" x="603.5" y="1919.4785">SetParser</text><rect fill="#F8F8F8" filter="url(#fo3xs6g)" height="31.6094" style="stroke: #383838; stroke-width: 1.5;" width="86" x="687.5" y="68.9609"/><text fill="#000000" font-family="sans-serif" font-size="14" lengthAdjust="spacingAndGlyphs" textLength="72" x="694.5" y="90.4941">ConnectDB</text><rect fill="#F8F8F8" filter="url(#fo3xs6g)" height="31.6094" style="stroke: #383838; stroke-width: 1.5;" width="86" x="687.5" y="1897.9453"/><text fill="#000000" font-family="sans-serif" font-size="14" lengthAdjust="spacingAndGlyphs" textLength="72" x="694.5" y="1919.4785">ConnectDB</text><rect fill="#F8F8F8" filter="url(#fo3xs6g)" height="31.6094" style="stroke: #383838; stroke-width: 1.5;" width="95" x="787.5" y="68.9609"/><text fill="#000000" font-family="sans-serif" font-size="14" lengthAdjust="spacingAndGlyphs" textLength="81" x="794.5" y="90.4941">DataValidate</text><rect fill="#F8F8F8" filter="url(#fo3xs6g)" height="31.6094" style="stroke: #383838; stroke-width: 1.5;" width="95" x="787.5" y="1897.9453"/><text fill="#000000" font-family="sans-serif" font-size="14" lengthAdjust="spacingAndGlyphs" textLength="81" x="794.5" y="1919.4785">DataValidate</text><rect fill="#F8F8F8" filter="url(#fo3xs6g)" height="31.6094" style="stroke: #383838; stroke-width: 1.5;" width="95" x="896.5" y="68.9609"/><text fill="#000000" font-family="sans-serif" font-size="14" lengthAdjust="spacingAndGlyphs" textLength="81" x="903.5" y="90.4941">SheetBuilder</text><rect fill="#F8F8F8" filter="url(#fo3xs6g)" height="31.6094" style="stroke: #383838; stroke-width: 1.5;" width="95" x="896.5" y="1897.9453"/><text fill="#000000" font-family="sans-serif" font-size="14" lengthAdjust="spacingAndGlyphs" textLength="81" x="903.5" y="1919.4785">SheetBuilder</text><text fill="#000000" font-family="sans-serif" font-size="14" lengthAdjust="spacingAndGlyphs" textLength="77" x="1061.5" y="1912.4785">Picking_2_3</text><ellipse cx="1103" cy="1931.5547" fill="#F8F8F8" filter="url(#fo3xs6g)" rx="12" ry="12" style="stroke: #383838; stroke-width: 2.0;"/><line style="stroke: #383838; stroke-width: 2.0;" x1="1091" x2="1115" y1="1945.5547" y2="1945.5547"/><text fill="#000000" font-family="sans-serif" font-size="14" lengthAdjust="spacingAndGlyphs" textLength="61" x="1154.5" y="1912.4785">Picking_a</text><ellipse cx="1188" cy="1931.5547" fill="#F8F8F8" filter="url(#fo3xs6g)" rx="12" ry="12" style="stroke: #383838; stroke-width: 2.0;"/><line style="stroke: #383838; stroke-width: 2.0;" x1="1176" x2="1200" y1="1945.5547" y2="1945.5547"/><text fill="#000000" font-family="sans-serif" font-size="14" lengthAdjust="spacingAndGlyphs" textLength="61" x="1231.5" y="1912.4785">ForSorter</text><ellipse cx="1265" cy="1931.5547" fill="#F8F8F8" filter="url(#fo3xs6g)" rx="12" ry="12" style="stroke: #383838; stroke-width: 2.0;"/><line style="stroke: #383838; stroke-width: 2.0;" x1="1253" x2="1277" y1="1945.5547" y2="1945.5547"/><text fill="#000000" font-family="sans-serif" font-size="14" lengthAdjust="spacingAndGlyphs" textLength="88" x="1308.5" y="1912.4785">ForSorter_set</text><ellipse cx="1355.5" cy="1931.5547" fill="#F8F8F8" filter="url(#fo3xs6g)" rx="12" ry="12" style="stroke: #383838; stroke-width: 2.0;"/><line style="stroke: #383838; stroke-width: 2.0;" x1="1343.5" x2="1367.5" y1="1945.5547" y2="1945.5547"/><rect fill="#FFFFFF" filter="url(#fo3xs6g)" height="1736.1367" style="stroke: #383838; stroke-width: 1.0;" width="10" x="240" y="144.457"/><rect fill="#FFFFFF" filter="url(#fo3xs6g)" height="370.2188" style="stroke: #383838; stroke-width: 1.0;" width="10" x="353" y="181.6953"/><rect fill="#FFFFFF" filter="url(#fo3xs6g)" height="116.0547" style="stroke: #383838; stroke-width: 1.0;" width="10" x="632" y="405.5078"/><rect fill="#FFFFFF" filter="url(#fo3xs6g)" height="131.7578" style="stroke: #383838; stroke-width: 1.0;" width="10" x="632" y="551.9141"/><rect fill="#FFFFFF" filter="url(#fo3xs6g)" height="91.0547" style="stroke: #383838; stroke-width: 1.0;" width="10" x="727.5" y="705.6719"/><rect fill="#FFFFFF" filter="url(#fo3xs6g)" height="85.7031" style="stroke: #383838; stroke-width: 1.0;" width="10" x="832" y="827.0781"/><rect fill="#FFFFFF" filter="url(#fo3xs6g)" height="434.0547" style="stroke: #383838; stroke-width: 1.0;" width="10" x="941" y="968.1328"/><rect fill="#FFFFFF" filter="url(#fo3xs6g)" height="365.3516" style="stroke: #383838; stroke-width: 1.0;" width="10" x="941" y="1432.5391"/><polygon fill="#383838" points="228,140.457,238,144.457,228,148.457,232,144.457" style="stroke: #383838; stroke-width: 1.0;"/><line style="stroke: #383838; stroke-width: 1.0;" x1="3" x2="234" y1="144.457" y2="144.457"/><text fill="#000000" font-family="sans-serif" font-size="13" lengthAdjust="spacingAndGlyphs" textLength="65" x="10" y="139.9521">マクロ起動</text><polygon fill="#ECECEC" filter="url(#fo3xs6g)" points="255,120.5703,255,150.5703,468,150.5703,468,130.5703,458,120.5703,255,120.5703" style="stroke: #383838; stroke-width: 1.0;"/><line style="stroke: #383838; stroke-width: 1.0;" x1="458" x2="458" y1="120.5703" y2="130.5703"/><line style="stroke: #383838; stroke-width: 1.0;" x1="468" x2="458" y1="130.5703" y2="130.5703"/><text fill="#000000" font-family="sans-serif" font-size="16" lengthAdjust="spacingAndGlyphs" textLength="192" x="261" y="142.1797">進捗表示ダイアログを実装</text><polygon fill="#383838" points="341,177.6953,351,181.6953,341,185.6953,345,181.6953" style="stroke: #383838; stroke-width: 1.0;"/><line style="stroke: #383838; stroke-width: 1.0;" x1="250" x2="347" y1="181.6953" y2="181.6953"/><text fill="#000000" font-family="sans-serif" font-size="13" lengthAdjust="spacingAndGlyphs" textLength="84" x="257" y="177.1904">Sub LoadCsv()</text><line style="stroke: #383838; stroke-width: 1.0;" x1="363" x2="405" y1="228.75" y2="228.75"/><line style="stroke: #383838; stroke-width: 1.0;" x1="405" x2="405" y1="228.75" y2="241.75"/><line style="stroke: #383838; stroke-width: 1.0;" x1="364" x2="405" y1="241.75" y2="241.75"/><polygon fill="#383838" points="374,237.75,364,241.75,374,245.75,370,241.75" style="stroke: #383838; stroke-width: 1.0;"/><text fill="#000000" font-family="sans-serif" font-size="13" lengthAdjust="spacingAndGlyphs" textLength="53" x="370" y="207.542">CSV指定</text><text fill="#000000" font-family="sans-serif" font-size="13" lengthAdjust="spacingAndGlyphs" textLength="78" x="370" y="223.8936">日付チェック</text><polygon fill="#383838" points="99,267.75,89,271.75,99,275.75,95,271.75" style="stroke: #383838; stroke-width: 1.0;"/><line style="stroke: #383838; stroke-width: 1.0;" x1="93" x2="352" y1="271.75" y2="271.75"/><text fill="#000000" font-family="sans-serif" font-size="13" lengthAdjust="spacingAndGlyphs" textLength="65" x="105" y="267.2451">データ接続</text><polygon fill="#383838" points="479,298.1016,489,302.1016,479,306.1016,483,302.1016" style="stroke: #383838; stroke-width: 1.0;"/><line style="stroke: #383838; stroke-width: 1.0;" x1="363" x2="485" y1="302.1016" y2="302.1016"/><text fill="#000000" font-family="sans-serif" font-size="13" lengthAdjust="spacingAndGlyphs" textLength="91" x="370" y="297.5967">受注データ取込</text><polygon fill="#383838" points="479,349.8047,489,353.8047,479,357.8047,483,353.8047" style="stroke: #383838; stroke-width: 1.0;"/><line style="stroke: #383838; stroke-width: 1.0;" x1="363" x2="485" y1="353.8047" y2="353.8047"/><text fill="#000000" font-family="sans-serif" font-size="13" lengthAdjust="spacingAndGlyphs" textLength="104" x="370" y="349.2998">フォーマット修正</text><polygon fill="#ECECEC" filter="url(#fo3xs6g)" points="496,315.4531,496,374.4531,737,374.4531,737,325.4531,727,315.4531,496,315.4531" style="stroke: #383838; stroke-width: 1.0;"/><line style="stroke: #383838; stroke-width: 1.0;" x1="727" x2="727" y1="315.4531" y2="325.4531"/><line style="stroke: #383838; stroke-width: 1.0;" x1="737" x2="727" y1="325.4531" y2="325.4531"/><text fill="#000000" font-family="sans-serif" font-size="13" lengthAdjust="spacingAndGlyphs" textLength="182" x="502" y="333.9482">商品名変更が必要な可能性アリ</text><text fill="#000000" font-family="sans-serif" font-size="13" lengthAdjust="spacingAndGlyphs" textLength="161" x="506" y="350.2998">≪SS≫を中身ごと削除する</text><text fill="#000000" font-family="sans-serif" font-size="13" lengthAdjust="spacingAndGlyphs" textLength="216" x="506" y="366.6514">冒頭○文字以内の[]を削除する、など</text><polygon fill="#383838" points="620,401.5078,630,405.5078,620,409.5078,624,405.5078" style="stroke: #383838; stroke-width: 1.0;"/><line style="stroke: #383838; stroke-width: 1.0;" x1="363" x2="626" y1="405.5078" y2="405.5078"/><text fill="#000000" font-family="sans-serif" font-size="13" lengthAdjust="spacingAndGlyphs" textLength="206" x="370" y="401.0029">○個組分解 Sub ParseScalingItem()</text><polygon fill="#383838" points="620,456.8594,630,460.8594,620,464.8594,624,460.8594" style="stroke: #383838; stroke-width: 1.0;"/><line style="stroke: #383838; stroke-width: 1.0;" x1="491" x2="626" y1="460.8594" y2="460.8594"/><text fill="#000000" font-family="sans-serif" font-size="13" lengthAdjust="spacingAndGlyphs" textLength="117" x="498" y="456.3545">ハイフン入りコード</text><polygon fill="#383838" points="502,487.2109,492,491.2109,502,495.2109,498,491.2109" style="stroke: #383838; stroke-width: 1.0;"/><line style="stroke: #383838; stroke-width: 1.0;" x1="496" x2="631" y1="491.2109" y2="491.2109"/><text fill="#000000" font-family="sans-serif" font-size="13" lengthAdjust="spacingAndGlyphs" textLength="78" x="508" y="486.7061">単体数量上書</text><polygon fill="#383838" points="502,517.5625,492,521.5625,502,525.5625,498,521.5625" style="stroke: #383838; stroke-width: 1.0;"/><line style="stroke: #383838; stroke-width: 1.0;" x1="496" x2="636" y1="521.5625" y2="521.5625"/><text fill="#000000" font-family="sans-serif" font-size="13" lengthAdjust="spacingAndGlyphs" textLength="91" x="508" y="517.0576">単体コード上書</text><polygon fill="#383838" points="620,547.9141,630,551.9141,620,555.9141,624,551.9141" style="stroke: #383838; stroke-width: 1.0;"/><line style="stroke: #383838; stroke-width: 1.0;" x1="358" x2="626" y1="551.9141" y2="551.9141"/><text fill="#000000" font-family="sans-serif" font-size="13" lengthAdjust="spacingAndGlyphs" textLength="202" x="365" y="547.4092">7777 セット分解 Sub ParseItems()</text><polygon fill="#383838" points="174,578.2656,164,582.2656,174,586.2656,170,582.2656" style="stroke: #383838; stroke-width: 1.0;"/><line style="stroke: #383838; stroke-width: 1.0; stroke-dasharray: 2.0,2.0;" x1="168" x2="631" y1="582.2656" y2="582.2656"/><text fill="#000000" font-family="sans-serif" font-size="13" lengthAdjust="spacingAndGlyphs" textLength="139" x="180" y="577.7607">77777xxxxxコード 検索</text><polygon fill="#383838" points="620,608.6172,630,612.6172,620,616.6172,624,612.6172" style="stroke: #383838; stroke-width: 1.0;"/><line style="stroke: #383838; stroke-width: 1.0; stroke-dasharray: 2.0,2.0;" x1="163" x2="626" y1="612.6172" y2="612.6172"/><text fill="#000000" font-family="sans-serif" font-size="13" lengthAdjust="spacingAndGlyphs" textLength="130" x="170" y="608.1123">構成商品コレクション</text><rect fill="none" height="48.7031" style="stroke: #000000; stroke-width: 2.0;" width="248" x="441" y="627.9688"/><polygon fill="#EEEEEE" points="441,627.9688,514,627.9688,514,635.9688,504,645.9688,441,645.9688,441,627.9688" style="stroke: #000000; stroke-width: 2.0;"/><text fill="#000000" font-family="sans-serif" font-size="13" font-weight="bold" lengthAdjust="spacingAndGlyphs" textLength="28" x="456" y="642.4639">loop</text><text fill="#000000" font-family="sans-serif" font-size="11" font-weight="bold" lengthAdjust="spacingAndGlyphs" textLength="155" x="529" y="641.3877">[構成商品 1つにつき1行挿入]</text><polygon fill="#383838" points="502,664.3203,492,668.3203,502,672.3203,498,668.3203" style="stroke: #383838; stroke-width: 1.0;"/><line style="stroke: #383838; stroke-width: 1.0;" x1="496" x2="631" y1="668.3203" y2="668.3203"/><text fill="#000000" font-family="sans-serif" font-size="13" lengthAdjust="spacingAndGlyphs" textLength="91" x="508" y="663.8154">アイテム行挿入</text><polygon fill="#383838" points="715.5,701.6719,725.5,705.6719,715.5,709.6719,719.5,705.6719" style="stroke: #383838; stroke-width: 1.0;"/><line style="stroke: #383838; stroke-width: 1.0;" x1="250" x2="721.5" y1="705.6719" y2="705.6719"/><text fill="#000000" font-family="sans-serif" font-size="13" lengthAdjust="spacingAndGlyphs" textLength="95" x="257" y="701.167">Sub Make_List()</text><polygon fill="#383838" points="45.5,732.0234,35.5,736.0234,45.5,740.0234,41.5,736.0234" style="stroke: #383838; stroke-width: 1.0;"/><line style="stroke: #383838; stroke-width: 1.0;" x1="39.5" x2="726.5" y1="736.0234" y2="736.0234"/><text fill="#000000" font-family="sans-serif" font-size="13" lengthAdjust="spacingAndGlyphs" textLength="117" x="51.5" y="731.5186">ロケーション問合せ</text><polygon fill="#383838" points="715.5,762.375,725.5,766.375,715.5,770.375,719.5,766.375" style="stroke: #383838; stroke-width: 1.0;"/><line style="stroke: #383838; stroke-width: 1.0;" x1="34.5" x2="721.5" y1="766.375" y2="766.375"/><text fill="#000000" font-family="sans-serif" font-size="13" lengthAdjust="spacingAndGlyphs" textLength="104" x="41.5" y="761.8701">ロケーション取得</text><polygon fill="#383838" points="502,792.7266,492,796.7266,502,800.7266,498,796.7266" style="stroke: #383838; stroke-width: 1.0;"/><line style="stroke: #383838; stroke-width: 1.0;" x1="496" x2="731.5" y1="796.7266" y2="796.7266"/><text fill="#000000" font-family="sans-serif" font-size="13" lengthAdjust="spacingAndGlyphs" textLength="104" x="508" y="792.2217">ロケーション書込</text><polygon fill="#383838" points="820,823.0781,830,827.0781,820,831.0781,824,827.0781" style="stroke: #383838; stroke-width: 1.0;"/><line style="stroke: #383838; stroke-width: 1.0;" x1="250" x2="826" y1="827.0781" y2="827.0781"/><text fill="#000000" font-family="sans-serif" font-size="13" lengthAdjust="spacingAndGlyphs" textLength="119" x="257" y="822.5732">Sub LocationCutter()</text><polygon fill="#383838" points="820,878.4297,830,882.4297,820,886.4297,824,882.4297" style="stroke: #383838; stroke-width: 1.0;"/><line style="stroke: #383838; stroke-width: 1.0;" x1="491" x2="826" y1="882.4297" y2="882.4297"/><text fill="#000000" font-family="sans-serif" font-size="13" lengthAdjust="spacingAndGlyphs" textLength="91" x="498" y="877.9248">ロケ文字列取得</text><polygon fill="#383838" points="502,908.7813,492,912.7813,502,916.7813,498,912.7813" style="stroke: #383838; stroke-width: 1.0;"/><line style="stroke: #383838; stroke-width: 1.0;" x1="496" x2="836" y1="912.7813" y2="912.7813"/><text fill="#000000" font-family="sans-serif" font-size="13" lengthAdjust="spacingAndGlyphs" textLength="78" x="508" y="908.2764">無効ロケ削除</text><polygon fill="#383838" points="929,964.1328,939,968.1328,929,972.1328,933,968.1328" style="stroke: #383838; stroke-width: 1.0;"/><line style="stroke: #383838; stroke-width: 1.0;" x1="250" x2="935" y1="968.1328" y2="968.1328"/><text fill="#000000" font-family="sans-serif" font-size="13" lengthAdjust="spacingAndGlyphs" textLength="116" x="257" y="963.6279">Sub CreatePicking()</text><rect fill="none" height="807.4063" style="stroke: #000000; stroke-width: 2.0;" width="1211.5" x="211" y="983.4844"/><polygon fill="#EEEEEE" points="211,983.4844,284,983.4844,284,991.4844,274,1001.4844,211,1001.4844,211,983.4844" style="stroke: #000000; stroke-width: 2.0;"/><text fill="#000000" font-family="sans-serif" font-size="13" font-weight="bold" lengthAdjust="spacingAndGlyphs" textLength="28" x="226" y="997.9795">loop</text><text fill="#000000" font-family="sans-serif" font-size="11" font-weight="bold" lengthAdjust="spacingAndGlyphs" textLength="86" x="299" y="996.9033">[3モール分実行]</text><polygon fill="#383838" points="502,1019.8359,492,1023.8359,502,1027.8359,498,1023.8359" style="stroke: #383838; stroke-width: 1.0;"/><line style="stroke: #383838; stroke-width: 1.0; stroke-dasharray: 2.0,2.0;" x1="496" x2="940" y1="1023.8359" y2="1023.8359"/><text fill="#000000" font-family="sans-serif" font-size="13" lengthAdjust="spacingAndGlyphs" textLength="160" x="508" y="1019.3311">モール別 受注件数チェック</text><rect fill="none" height="303.6484" style="stroke: #000000; stroke-width: 2.0;" width="790.5" x="441" y="1039.1875"/><polygon fill="#EEEEEE" points="441,1039.1875,626,1039.1875,626,1047.1875,616,1057.1875,441,1057.1875,441,1039.1875" style="stroke: #000000; stroke-width: 2.0;"/><text fill="#000000" font-family="sans-serif" font-size="13" font-weight="bold" lengthAdjust="spacingAndGlyphs" textLength="140" x="456" y="1053.6826">ピッキングデータ作成</text><polygon fill="#383838" points="1049.5,1075.5391,1059.5,1079.5391,1049.5,1083.5391,1053.5,1079.5391" style="stroke: #383838; stroke-width: 1.0;"/><line style="stroke: #383838; stroke-width: 1.0;" x1="951" x2="1055.5" y1="1079.5391" y2="1079.5391"/><text fill="#000000" font-family="sans-serif" font-size="13" lengthAdjust="spacingAndGlyphs" textLength="65" x="958" y="1075.0342">ブック作成</text><text fill="#000000" font-family="sans-serif" font-size="14" lengthAdjust="spacingAndGlyphs" textLength="77" x="1061.5" y="1104.0723">Picking_2_3</text><ellipse cx="1103" cy="1073.5391" fill="#F8F8F8" filter="url(#fo3xs6g)" rx="12" ry="12" style="stroke: #383838; stroke-width: 2.0;"/><line style="stroke: #383838; stroke-width: 2.0;" x1="1091" x2="1115" y1="1087.5391" y2="1087.5391"/><polygon fill="#383838" points="1142.5,1135.1484,1152.5,1139.1484,1142.5,1143.1484,1146.5,1139.1484" style="stroke: #383838; stroke-width: 1.0;"/><line style="stroke: #383838; stroke-width: 1.0;" x1="951" x2="1148.5" y1="1139.1484" y2="1139.1484"/><text fill="#000000" font-family="sans-serif" font-size="13" lengthAdjust="spacingAndGlyphs" textLength="65" x="958" y="1134.6436">ブック作成</text><text fill="#000000" font-family="sans-serif" font-size="14" lengthAdjust="spacingAndGlyphs" textLength="61" x="1154.5" y="1163.6816">Picking_a</text><ellipse cx="1188" cy="1133.1484" fill="#F8F8F8" filter="url(#fo3xs6g)" rx="12" ry="12" style="stroke: #383838; stroke-width: 2.0;"/><line style="stroke: #383838; stroke-width: 2.0;" x1="1176" x2="1200" y1="1147.1484" y2="1147.1484"/><polygon fill="#383838" points="502,1194.7578,492,1198.7578,502,1202.7578,498,1198.7578" style="stroke: #383838; stroke-width: 1.0;"/><line style="stroke: #383838; stroke-width: 1.0;" x1="496" x2="940" y1="1198.7578" y2="1198.7578"/><text fill="#000000" font-family="sans-serif" font-size="13" lengthAdjust="spacingAndGlyphs" textLength="91" x="508" y="1194.2529">受注データ取得</text><line style="stroke: #383838; stroke-width: 1.0; stroke-dasharray: 2.0,2.0;" x1="951" x2="993" y1="1229.4609" y2="1229.4609"/><line style="stroke: #383838; stroke-width: 1.0; stroke-dasharray: 2.0,2.0;" x1="993" x2="993" y1="1229.4609" y2="1242.4609"/><line style="stroke: #383838; stroke-width: 1.0; stroke-dasharray: 2.0,2.0;" x1="952" x2="993" y1="1242.4609" y2="1242.4609"/><polygon fill="#383838" points="962,1238.4609,952,1242.4609,962,1246.4609,958,1242.4609" style="stroke: #383838; stroke-width: 1.0;"/><text fill="#000000" font-family="sans-serif" font-size="13" lengthAdjust="spacingAndGlyphs" textLength="91" x="958" y="1224.6045">受注モール判定</text><line style="stroke: #000000; stroke-width: 1.0; stroke-dasharray: 2.0,2.0;" x1="441" x2="1231.5" y1="1251.4609" y2="1251.4609"/><text fill="#000000" font-family="sans-serif" font-size="11" font-weight="bold" lengthAdjust="spacingAndGlyphs" textLength="44" x="446" y="1262.8799">[棚有り]</text><polygon fill="#383838" points="1091,1284.2969,1101,1288.2969,1091,1292.2969,1095,1288.2969" style="stroke: #383838; stroke-width: 1.0;"/><line style="stroke: #383838; stroke-width: 1.0;" x1="951" x2="1097" y1="1288.2969" y2="1288.2969"/><text fill="#000000" font-family="sans-serif" font-size="13" lengthAdjust="spacingAndGlyphs" textLength="128" x="958" y="1283.792">6ケタ振替 データ転記</text><line style="stroke: #000000; stroke-width: 1.0; stroke-dasharray: 2.0,2.0;" x1="441" x2="1231.5" y1="1297.6484" y2="1297.6484"/><text fill="#000000" font-family="sans-serif" font-size="11" font-weight="bold" lengthAdjust="spacingAndGlyphs" textLength="44" x="446" y="1309.0674">[棚無し]</text><polygon fill="#383838" points="1176,1330.4844,1186,1334.4844,1176,1338.4844,1180,1334.4844" style="stroke: #383838; stroke-width: 1.0;"/><line style="stroke: #383838; stroke-width: 1.0;" x1="951" x2="1182" y1="1334.4844" y2="1334.4844"/><text fill="#000000" font-family="sans-serif" font-size="13" lengthAdjust="spacingAndGlyphs" textLength="65" x="958" y="1329.9795">データ転記</text><polygon fill="#383838" points="1091,1367.8359,1101,1371.8359,1091,1375.8359,1095,1371.8359" style="stroke: #383838; stroke-width: 1.0;"/><line style="stroke: #383838; stroke-width: 1.0;" x1="951" x2="1097" y1="1371.8359" y2="1371.8359"/><text fill="#000000" font-family="sans-serif" font-size="13" lengthAdjust="spacingAndGlyphs" textLength="78" x="958" y="1367.3311">ファイル保存</text><line style="stroke: #383838; stroke-width: 2.0;" x1="1094" x2="1112" y1="1362.8359" y2="1380.8359"/><line style="stroke: #383838; stroke-width: 2.0;" x1="1094" x2="1112" y1="1380.8359" y2="1362.8359"/><polygon fill="#383838" points="1176,1398.1875,1186,1402.1875,1176,1406.1875,1180,1402.1875" style="stroke: #383838; stroke-width: 1.0;"/><line style="stroke: #383838; stroke-width: 1.0;" x1="946" x2="1182" y1="1402.1875" y2="1402.1875"/><text fill="#000000" font-family="sans-serif" font-size="13" lengthAdjust="spacingAndGlyphs" textLength="78" x="953" y="1397.6826">ファイル保存</text><line style="stroke: #383838; stroke-width: 2.0;" x1="1179" x2="1197" y1="1393.1875" y2="1411.1875"/><line style="stroke: #383838; stroke-width: 2.0;" x1="1179" x2="1197" y1="1411.1875" y2="1393.1875"/><polygon fill="#383838" points="929,1428.5391,939,1432.5391,929,1436.5391,933,1432.5391" style="stroke: #383838; stroke-width: 1.0;"/><line style="stroke: #383838; stroke-width: 1.0;" x1="250" x2="935" y1="1432.5391" y2="1432.5391"/><text fill="#000000" font-family="sans-serif" font-size="13" lengthAdjust="spacingAndGlyphs" textLength="161" x="257" y="1428.0342">Sub CreateForSorterSheet()</text><rect fill="none" height="336" style="stroke: #000000; stroke-width: 2.0;" width="971.5" x="441" y="1447.8906"/><polygon fill="#EEEEEE" points="441,1447.8906,584,1447.8906,584,1455.8906,574,1465.8906,441,1465.8906,441,1447.8906" style="stroke: #000000; stroke-width: 2.0;"/><text fill="#000000" font-family="sans-serif" font-size="13" font-weight="bold" lengthAdjust="spacingAndGlyphs" textLength="98" x="456" y="1462.3857">振分シート作成</text><polygon fill="#383838" points="1219.5,1484.2422,1229.5,1488.2422,1219.5,1492.2422,1223.5,1488.2422" style="stroke: #383838; stroke-width: 1.0;"/><line style="stroke: #383838; stroke-width: 1.0;" x1="951" x2="1225.5" y1="1488.2422" y2="1488.2422"/><text fill="#000000" font-family="sans-serif" font-size="13" lengthAdjust="spacingAndGlyphs" textLength="65" x="958" y="1483.7373">シート作成</text><text fill="#000000" font-family="sans-serif" font-size="14" lengthAdjust="spacingAndGlyphs" textLength="61" x="1231.5" y="1512.7754">ForSorter</text><ellipse cx="1265" cy="1482.2422" fill="#F8F8F8" filter="url(#fo3xs6g)" rx="12" ry="12" style="stroke: #383838; stroke-width: 2.0;"/><line style="stroke: #383838; stroke-width: 2.0;" x1="1253" x2="1277" y1="1496.2422" y2="1496.2422"/><polygon fill="#383838" points="1296.5,1543.8516,1306.5,1547.8516,1296.5,1551.8516,1300.5,1547.8516" style="stroke: #383838; stroke-width: 1.0;"/><line style="stroke: #383838; stroke-width: 1.0;" x1="951" x2="1302.5" y1="1547.8516" y2="1547.8516"/><text fill="#000000" font-family="sans-serif" font-size="13" lengthAdjust="spacingAndGlyphs" textLength="65" x="958" y="1543.3467">シート作成</text><text fill="#000000" font-family="sans-serif" font-size="14" lengthAdjust="spacingAndGlyphs" textLength="88" x="1308.5" y="1572.3848">ForSorter_set</text><ellipse cx="1355.5" cy="1541.8516" fill="#F8F8F8" filter="url(#fo3xs6g)" rx="12" ry="12" style="stroke: #383838; stroke-width: 2.0;"/><line style="stroke: #383838; stroke-width: 2.0;" x1="1343.5" x2="1367.5" y1="1555.8516" y2="1555.8516"/><polygon fill="#383838" points="502,1603.4609,492,1607.4609,502,1611.4609,498,1607.4609" style="stroke: #383838; stroke-width: 1.0;"/><line style="stroke: #383838; stroke-width: 1.0; stroke-dasharray: 2.0,2.0;" x1="496" x2="940" y1="1607.4609" y2="1607.4609"/><text fill="#000000" font-family="sans-serif" font-size="13" lengthAdjust="spacingAndGlyphs" textLength="91" x="508" y="1602.9561">受注データ取得</text><line style="stroke: #383838; stroke-width: 1.0;" x1="951" x2="993" y1="1638.1641" y2="1638.1641"/><line style="stroke: #383838; stroke-width: 1.0;" x1="993" x2="993" y1="1638.1641" y2="1651.1641"/><line style="stroke: #383838; stroke-width: 1.0;" x1="952" x2="993" y1="1651.1641" y2="1651.1641"/><polygon fill="#383838" points="962,1647.1641,952,1651.1641,962,1655.1641,958,1651.1641" style="stroke: #383838; stroke-width: 1.0;"/><text fill="#000000" font-family="sans-serif" font-size="13" lengthAdjust="spacingAndGlyphs" textLength="91" x="958" y="1633.3076">受注モール判定</text><line style="stroke: #000000; stroke-width: 1.0; stroke-dasharray: 2.0,2.0;" x1="441" x2="1412.5" y1="1660.1641" y2="1660.1641"/><text fill="#000000" font-family="sans-serif" font-size="11" font-weight="bold" lengthAdjust="spacingAndGlyphs" textLength="68" x="446" y="1671.583">[単体受注品]</text><polygon fill="#383838" points="1253,1693,1263,1697,1253,1701,1257,1697" style="stroke: #383838; stroke-width: 1.0;"/><line style="stroke: #383838; stroke-width: 1.0;" x1="951" x2="1259" y1="1697" y2="1697"/><text fill="#000000" font-family="sans-serif" font-size="13" lengthAdjust="spacingAndGlyphs" textLength="91" x="958" y="1692.4951">受注データ転記</text><line style="stroke: #000000; stroke-width: 1.0; stroke-dasharray: 2.0,2.0;" x1="441" x2="1412.5" y1="1706.3516" y2="1706.3516"/><text fill="#000000" font-family="sans-serif" font-size="11" font-weight="bold" lengthAdjust="spacingAndGlyphs" textLength="68" x="446" y="1717.7705">[セット商品]</text><polygon fill="#383838" points="1343.5,1739.1875,1353.5,1743.1875,1343.5,1747.1875,1347.5,1743.1875" style="stroke: #383838; stroke-width: 1.0;"/><line style="stroke: #383838; stroke-width: 1.0;" x1="951" x2="1349.5" y1="1743.1875" y2="1743.1875"/><text fill="#000000" font-family="sans-serif" font-size="13" lengthAdjust="spacingAndGlyphs" textLength="91" x="958" y="1738.6826">受注データ転記</text><line style="stroke: #000000; stroke-width: 1.0; stroke-dasharray: 2.0,2.0;" x1="441" x2="1412.5" y1="1752.5391" y2="1752.5391"/><polygon fill="#383838" points="1253,1771.5391,1263,1775.5391,1253,1779.5391,1257,1775.5391" style="stroke: #383838; stroke-width: 1.0;"/><line style="stroke: #383838; stroke-width: 1.0;" x1="951" x2="1259" y1="1775.5391" y2="1775.5391"/><text fill="#000000" font-family="sans-serif" font-size="13" lengthAdjust="spacingAndGlyphs" textLength="117" x="958" y="1771.0342">商品コードでソート</text><polygon fill="#383838" points="1253,1815.8906,1263,1819.8906,1253,1823.8906,1257,1819.8906" style="stroke: #383838; stroke-width: 1.0;"/><line style="stroke: #383838; stroke-width: 1.0; stroke-dasharray: 2.0,2.0;" x1="250" x2="1259" y1="1819.8906" y2="1819.8906"/><text fill="#000000" font-family="sans-serif" font-size="13" lengthAdjust="spacingAndGlyphs" textLength="79" x="257" y="1815.3857">VBA:PrintOut</text><polygon fill="#383838" points="1343.5,1846.2422,1353.5,1850.2422,1343.5,1854.2422,1347.5,1850.2422" style="stroke: #383838; stroke-width: 1.0;"/><line style="stroke: #383838; stroke-width: 1.0; stroke-dasharray: 2.0,2.0;" x1="250" x2="1349.5" y1="1850.2422" y2="1850.2422"/><text fill="#000000" font-family="sans-serif" font-size="13" lengthAdjust="spacingAndGlyphs" textLength="79" x="257" y="1845.7373">VBA:PrintOut</text><polygon fill="#383838" points="14,1876.5938,4,1880.5938,14,1884.5938,10,1880.5938" style="stroke: #383838; stroke-width: 1.0;"/><line style="stroke: #383838; stroke-width: 1.0;" x1="8" x2="244" y1="1880.5938" y2="1880.5938"/><text fill="#000000" font-family="sans-serif" font-size="13" lengthAdjust="spacingAndGlyphs" textLength="91" x="20" y="1876.0889">終了メッセージ</text></g></svg>