<?xml version="1.0" encoding="UTF-8" standalone="no"?><svg xmlns="http://www.w3.org/2000/svg" xmlns:xlink="http://www.w3.org/1999/xlink" contentScriptType="application/ecmascript" contentStyleType="text/css" height="1822px" preserveAspectRatio="none" style="width:1194px;height:1822px;" version="1.1" viewBox="0 0 1194 1822" width="1194px" zoomAndPan="magnify"><defs><filter height="300%" id="f5u24as" width="300%" x="-1" y="-1"><feGaussianBlur result="blurOut" stdDeviation="2.0"/><feColorMatrix in="blurOut" result="blurOut2" type="matrix" values="0 0 0 0 0 0 0 0 0 0 0 0 0 0 0 0 0 0 .4 0"/><feOffset dx="4.0" dy="4.0" in="blurOut2" result="blurOut3"/><feBlend in="SourceGraphic" in2="blurOut3" mode="normal"/></filter></defs><g><text fill="#000000" font-family="sans-serif" font-size="14" font-weight="bold" lengthAdjust="spacingAndGlyphs" textLength="193" x="502.5" y="24.5332">ピッキングテンプレートVBA</text><rect fill="#FFFFFF" filter="url(#f5u24as)" height="465.5117" style="stroke: #FFFFFF; stroke-width: 1.0;" width="10" x="192" y="144.457"/><line style="stroke: #383838; stroke-width: 1.0;" x1="192" x2="192" y1="144.457" y2="609.9688"/><line style="stroke: #383838; stroke-width: 1.0;" x1="202" x2="202" y1="144.457" y2="609.9688"/><line style="stroke: #383838; stroke-width: 1.0;" x1="192" x2="202" y1="144.457" y2="144.457"/><rect fill="#FFFFFF" filter="url(#f5u24as)" height="1077.5156" style="stroke: #FFFFFF; stroke-width: 1.0;" width="10" x="192" y="673.1875"/><line style="stroke: #383838; stroke-width: 1.0;" x1="192" x2="192" y1="673.1875" y2="1750.7031"/><line style="stroke: #383838; stroke-width: 1.0;" x1="202" x2="202" y1="673.1875" y2="1750.7031"/><line style="stroke: #383838; stroke-width: 1.0;" x1="192" x2="202" y1="1750.7031" y2="1750.7031"/><rect fill="#FFFFFF" filter="url(#f5u24as)" height="419.9219" style="stroke: #383838; stroke-width: 1.0;" width="10" x="265" y="181.6953"/><rect fill="#FFFFFF" filter="url(#f5u24as)" height="91.0547" style="stroke: #383838; stroke-width: 1.0;" width="10" x="354.5" y="387.5078"/><rect fill="#FFFFFF" filter="url(#f5u24as)" height="30.3516" style="stroke: #383838; stroke-width: 1.0;" width="10" x="354.5" y="508.9141"/><rect fill="#FFFFFF" filter="url(#f5u24as)" height="151.4063" style="stroke: #383838; stroke-width: 1.0;" width="10" x="594.5" y="695.1875"/><rect fill="#FFFFFF" filter="url(#f5u24as)" height="403.7031" style="stroke: #383838; stroke-width: 1.0;" width="10" x="703.5" y="868.5938"/><rect fill="#FFFFFF" filter="url(#f5u24as)" height="365.3516" style="stroke: #383838; stroke-width: 1.0;" width="10" x="703.5" y="1302.6484"/><rect fill="#FFFFFF" filter="url(#f5u24as)" height="345.2188" style="stroke: #000000; stroke-width: 2.0;" width="760.5" x="13" y="227.3984"/><rect fill="#FFFFFF" filter="url(#f5u24as)" height="129.0547" style="stroke: #000000; stroke-width: 2.0;" width="233" x="426" y="710.5391"/><rect fill="#FFFFFF" filter="url(#f5u24as)" height="777.0547" style="stroke: #000000; stroke-width: 2.0;" width="1022" x="163" y="883.9453"/><rect fill="#FFFFFF" filter="url(#f5u24as)" height="303.6484" style="stroke: #000000; stroke-width: 2.0;" width="568" x="426" y="909.2969"/><text fill="#000000" font-family="sans-serif" font-size="14" lengthAdjust="spacingAndGlyphs" textLength="77" x="824" y="974.1816">Picking_2_3</text><ellipse cx="865.5" cy="943.6484" fill="#F8F8F8" filter="url(#f5u24as)" rx="12" ry="12" style="stroke: #383838; stroke-width: 2.0;"/><line style="stroke: #383838; stroke-width: 2.0;" x1="853.5" x2="877.5" y1="957.6484" y2="957.6484"/><text fill="#000000" font-family="sans-serif" font-size="14" lengthAdjust="spacingAndGlyphs" textLength="61" x="917" y="1033.791">Picking_a</text><ellipse cx="950.5" cy="1003.2578" fill="#F8F8F8" filter="url(#f5u24as)" rx="12" ry="12" style="stroke: #383838; stroke-width: 2.0;"/><line style="stroke: #383838; stroke-width: 2.0;" x1="938.5" x2="962.5" y1="1017.2578" y2="1017.2578"/><rect fill="#FFFFFF" height="46.1875" style="stroke: none; stroke-width: 1.0;" width="568" x="426" y="1120.5703"/><rect fill="#FFFFFF" height="46.1875" style="stroke: none; stroke-width: 1.0;" width="568" x="426" y="1166.7578"/><rect fill="#FFFFFF" filter="url(#f5u24as)" height="336" style="stroke: #000000; stroke-width: 2.0;" width="749" x="426" y="1318"/><text fill="#000000" font-family="sans-serif" font-size="14" lengthAdjust="spacingAndGlyphs" textLength="61" x="994" y="1382.8848">ForSorter</text><ellipse cx="1027.5" cy="1352.3516" fill="#F8F8F8" filter="url(#f5u24as)" rx="12" ry="12" style="stroke: #383838; stroke-width: 2.0;"/><line style="stroke: #383838; stroke-width: 2.0;" x1="1015.5" x2="1039.5" y1="1366.3516" y2="1366.3516"/><text fill="#000000" font-family="sans-serif" font-size="14" lengthAdjust="spacingAndGlyphs" textLength="88" x="1071" y="1442.4941">ForSorter_set</text><ellipse cx="1118" cy="1411.9609" fill="#F8F8F8" filter="url(#f5u24as)" rx="12" ry="12" style="stroke: #383838; stroke-width: 2.0;"/><line style="stroke: #383838; stroke-width: 2.0;" x1="1106" x2="1130" y1="1425.9609" y2="1425.9609"/><rect fill="#FFFFFF" height="46.1875" style="stroke: none; stroke-width: 1.0;" width="749" x="426" y="1529.2734"/><rect fill="#FFFFFF" height="46.1875" style="stroke: none; stroke-width: 1.0;" width="749" x="426" y="1575.4609"/><rect fill="#FFFFFF" height="32.3516" style="stroke: none; stroke-width: 1.0;" width="749" x="426" y="1621.6484"/><rect fill="#FFFFFF" height="1786.0547" style="stroke: #383838; stroke-width: 1.0;" width="148" x="19" y="35.6094"/><text fill="#000000" font-family="sans-serif" font-size="13" font-weight="bold" lengthAdjust="spacingAndGlyphs" textLength="84" x="51" y="49.1045">外部ファイル</text><line style="stroke: #383838; stroke-width: 1.0;" x1="40" x2="40" y1="105.5703" y2="609.9688"/><line style="stroke: #383838; stroke-width: 1.0; stroke-dasharray: 1.0,4.0;" x1="40" x2="40" y1="609.9688" y2="673.1875"/><line style="stroke: #383838; stroke-width: 1.0;" x1="40" x2="40" y1="673.1875" y2="1769.0547"/><line style="stroke: #383838; stroke-width: 1.0;" x1="115" x2="115" y1="105.5703" y2="609.9688"/><line style="stroke: #383838; stroke-width: 1.0; stroke-dasharray: 1.0,4.0;" x1="115" x2="115" y1="609.9688" y2="673.1875"/><line style="stroke: #383838; stroke-width: 1.0;" x1="115" x2="115" y1="673.1875" y2="1769.0547"/><line style="stroke: #383838; stroke-width: 1.0;" x1="197" x2="197" y1="105.5703" y2="609.9688"/><line style="stroke: #383838; stroke-width: 1.0; stroke-dasharray: 1.0,4.0;" x1="197" x2="197" y1="609.9688" y2="673.1875"/><line style="stroke: #383838; stroke-width: 1.0;" x1="197" x2="197" y1="673.1875" y2="1769.0547"/><line style="stroke: #383838; stroke-width: 1.0;" x1="270" x2="270" y1="105.5703" y2="609.9688"/><line style="stroke: #383838; stroke-width: 1.0; stroke-dasharray: 1.0,4.0;" x1="270" x2="270" y1="609.9688" y2="673.1875"/><line style="stroke: #383838; stroke-width: 1.0;" x1="270" x2="270" y1="673.1875" y2="1769.0547"/><line style="stroke: #383838; stroke-width: 1.0;" x1="359" x2="359" y1="105.5703" y2="609.9688"/><line style="stroke: #383838; stroke-width: 1.0; stroke-dasharray: 1.0,4.0;" x1="359" x2="359" y1="609.9688" y2="673.1875"/><line style="stroke: #383838; stroke-width: 1.0;" x1="359" x2="359" y1="673.1875" y2="1769.0547"/><line style="stroke: #383838; stroke-width: 1.0;" x1="479" x2="479" y1="105.5703" y2="609.9688"/><line style="stroke: #383838; stroke-width: 1.0; stroke-dasharray: 1.0,4.0;" x1="479" x2="479" y1="609.9688" y2="673.1875"/><line style="stroke: #383838; stroke-width: 1.0;" x1="479" x2="479" y1="673.1875" y2="1769.0547"/><line style="stroke: #383838; stroke-width: 1.0;" x1="599" x2="599" y1="105.5703" y2="609.9688"/><line style="stroke: #383838; stroke-width: 1.0; stroke-dasharray: 1.0,4.0;" x1="599" x2="599" y1="609.9688" y2="673.1875"/><line style="stroke: #383838; stroke-width: 1.0;" x1="599" x2="599" y1="673.1875" y2="1769.0547"/><line style="stroke: #383838; stroke-width: 1.0;" x1="708" x2="708" y1="105.5703" y2="609.9688"/><line style="stroke: #383838; stroke-width: 1.0; stroke-dasharray: 1.0,4.0;" x1="708" x2="708" y1="609.9688" y2="673.1875"/><line style="stroke: #383838; stroke-width: 1.0;" x1="708" x2="708" y1="673.1875" y2="1769.0547"/><line style="stroke: #383838; stroke-width: 1.0;" x1="865" x2="865" y1="967.4531" y2="1769.0547"/><line style="stroke: #383838; stroke-width: 1.0;" x1="950" x2="950" y1="1027.0625" y2="1769.0547"/><line style="stroke: #383838; stroke-width: 1.0;" x1="1027" x2="1027" y1="1376.1563" y2="1769.0547"/><line style="stroke: #383838; stroke-width: 1.0;" x1="1118" x2="1118" y1="1435.7656" y2="1769.0547"/><text fill="#000000" font-family="sans-serif" font-size="14" lengthAdjust="spacingAndGlyphs" textLength="28" x="23" y="102.4941">CSV</text><ellipse cx="40" cy="71.9609" fill="#F8F8F8" filter="url(#f5u24as)" rx="12" ry="12" style="stroke: #383838; stroke-width: 2.0;"/><line style="stroke: #383838; stroke-width: 2.0;" x1="28" x2="52" y1="85.9609" y2="85.9609"/><text fill="#000000" font-family="sans-serif" font-size="14" lengthAdjust="spacingAndGlyphs" textLength="28" x="23" y="1782.5879">CSV</text><ellipse cx="40" cy="1801.6641" fill="#F8F8F8" filter="url(#f5u24as)" rx="12" ry="12" style="stroke: #383838; stroke-width: 2.0;"/><line style="stroke: #383838; stroke-width: 2.0;" x1="28" x2="52" y1="1815.6641" y2="1815.6641"/><text fill="#000000" font-family="sans-serif" font-size="14" lengthAdjust="spacingAndGlyphs" textLength="90" x="67" y="102.4941">ｾｯﾄ商品ﾘｽﾄ.xls</text><ellipse cx="115" cy="71.9609" fill="#F8F8F8" filter="url(#f5u24as)" rx="12" ry="12" style="stroke: #383838; stroke-width: 2.0;"/><line style="stroke: #383838; stroke-width: 2.0;" x1="103" x2="127" y1="85.9609" y2="85.9609"/><text fill="#000000" font-family="sans-serif" font-size="14" lengthAdjust="spacingAndGlyphs" textLength="90" x="67" y="1782.5879">ｾｯﾄ商品ﾘｽﾄ.xls</text><ellipse cx="115" cy="1801.6641" fill="#F8F8F8" filter="url(#f5u24as)" rx="12" ry="12" style="stroke: #383838; stroke-width: 2.0;"/><line style="stroke: #383838; stroke-width: 2.0;" x1="103" x2="127" y1="1815.6641" y2="1815.6641"/><rect fill="#F8F8F8" filter="url(#f5u24as)" height="31.6094" style="stroke: #383838; stroke-width: 1.5;" width="44" x="173" y="68.9609"/><text fill="#000000" font-family="sans-serif" font-size="14" lengthAdjust="spacingAndGlyphs" textLength="30" x="180" y="90.4941">Main</text><rect fill="#F8F8F8" filter="url(#f5u24as)" height="31.6094" style="stroke: #383838; stroke-width: 1.5;" width="44" x="173" y="1768.0547"/><text fill="#000000" font-family="sans-serif" font-size="14" lengthAdjust="spacingAndGlyphs" textLength="30" x="180" y="1789.5879">Main</text><rect fill="#F8F8F8" filter="url(#f5u24as)" height="31.6094" style="stroke: #383838; stroke-width: 1.5;" width="74" x="231" y="68.9609"/><text fill="#000000" font-family="sans-serif" font-size="14" lengthAdjust="spacingAndGlyphs" textLength="60" x="238" y="90.4941">FetchCsv</text><rect fill="#F8F8F8" filter="url(#f5u24as)" height="31.6094" style="stroke: #383838; stroke-width: 1.5;" width="74" x="231" y="1768.0547"/><text fill="#000000" font-family="sans-serif" font-size="14" lengthAdjust="spacingAndGlyphs" textLength="60" x="238" y="1789.5879">FetchCsv</text><rect fill="#F8F8F8" filter="url(#f5u24as)" height="31.6094" style="stroke: #383838; stroke-width: 1.5;" width="77" x="319" y="68.9609"/><text fill="#000000" font-family="sans-serif" font-size="14" lengthAdjust="spacingAndGlyphs" textLength="63" x="326" y="90.4941">SetParser</text><rect fill="#F8F8F8" filter="url(#f5u24as)" height="31.6094" style="stroke: #383838; stroke-width: 1.5;" width="77" x="319" y="1768.0547"/><text fill="#000000" font-family="sans-serif" font-size="14" lengthAdjust="spacingAndGlyphs" textLength="63" x="326" y="1789.5879">SetParser</text><text fill="#000000" font-family="sans-serif" font-size="14" lengthAdjust="spacingAndGlyphs" textLength="81" x="436" y="102.4941">OrdersSheet</text><ellipse cx="479.5" cy="71.9609" fill="#F8F8F8" filter="url(#f5u24as)" rx="12" ry="12" style="stroke: #383838; stroke-width: 2.0;"/><line style="stroke: #383838; stroke-width: 2.0;" x1="467.5" x2="491.5" y1="85.9609" y2="85.9609"/><text fill="#000000" font-family="sans-serif" font-size="14" lengthAdjust="spacingAndGlyphs" textLength="81" x="436" y="1782.5879">OrdersSheet</text><ellipse cx="479.5" cy="1801.6641" fill="#F8F8F8" filter="url(#f5u24as)" rx="12" ry="12" style="stroke: #383838; stroke-width: 2.0;"/><line style="stroke: #383838; stroke-width: 2.0;" x1="467.5" x2="491.5" y1="1815.6641" y2="1815.6641"/><rect fill="#F8F8F8" filter="url(#f5u24as)" height="31.6094" style="stroke: #383838; stroke-width: 1.5;" width="95" x="550" y="68.9609"/><text fill="#000000" font-family="sans-serif" font-size="14" lengthAdjust="spacingAndGlyphs" textLength="81" x="557" y="90.4941">DataValidate</text><rect fill="#F8F8F8" filter="url(#f5u24as)" height="31.6094" style="stroke: #383838; stroke-width: 1.5;" width="95" x="550" y="1768.0547"/><text fill="#000000" font-family="sans-serif" font-size="14" lengthAdjust="spacingAndGlyphs" textLength="81" x="557" y="1789.5879">DataValidate</text><rect fill="#F8F8F8" filter="url(#f5u24as)" height="31.6094" style="stroke: #383838; stroke-width: 1.5;" width="95" x="659" y="68.9609"/><text fill="#000000" font-family="sans-serif" font-size="14" lengthAdjust="spacingAndGlyphs" textLength="81" x="666" y="90.4941">SheetBuilder</text><rect fill="#F8F8F8" filter="url(#f5u24as)" height="31.6094" style="stroke: #383838; stroke-width: 1.5;" width="95" x="659" y="1768.0547"/><text fill="#000000" font-family="sans-serif" font-size="14" lengthAdjust="spacingAndGlyphs" textLength="81" x="666" y="1789.5879">SheetBuilder</text><text fill="#000000" font-family="sans-serif" font-size="14" lengthAdjust="spacingAndGlyphs" textLength="77" x="824" y="1782.5879">Picking_2_3</text><ellipse cx="865.5" cy="1801.6641" fill="#F8F8F8" filter="url(#f5u24as)" rx="12" ry="12" style="stroke: #383838; stroke-width: 2.0;"/><line style="stroke: #383838; stroke-width: 2.0;" x1="853.5" x2="877.5" y1="1815.6641" y2="1815.6641"/><text fill="#000000" font-family="sans-serif" font-size="14" lengthAdjust="spacingAndGlyphs" textLength="61" x="917" y="1782.5879">Picking_a</text><ellipse cx="950.5" cy="1801.6641" fill="#F8F8F8" filter="url(#f5u24as)" rx="12" ry="12" style="stroke: #383838; stroke-width: 2.0;"/><line style="stroke: #383838; stroke-width: 2.0;" x1="938.5" x2="962.5" y1="1815.6641" y2="1815.6641"/><text fill="#000000" font-family="sans-serif" font-size="14" lengthAdjust="spacingAndGlyphs" textLength="61" x="994" y="1782.5879">ForSorter</text><ellipse cx="1027.5" cy="1801.6641" fill="#F8F8F8" filter="url(#f5u24as)" rx="12" ry="12" style="stroke: #383838; stroke-width: 2.0;"/><line style="stroke: #383838; stroke-width: 2.0;" x1="1015.5" x2="1039.5" y1="1815.6641" y2="1815.6641"/><text fill="#000000" font-family="sans-serif" font-size="14" lengthAdjust="spacingAndGlyphs" textLength="88" x="1071" y="1782.5879">ForSorter_set</text><ellipse cx="1118" cy="1801.6641" fill="#F8F8F8" filter="url(#f5u24as)" rx="12" ry="12" style="stroke: #383838; stroke-width: 2.0;"/><line style="stroke: #383838; stroke-width: 2.0;" x1="1106" x2="1130" y1="1815.6641" y2="1815.6641"/><rect fill="#FFFFFF" filter="url(#f5u24as)" height="465.5117" style="stroke: #FFFFFF; stroke-width: 1.0;" width="10" x="192" y="144.457"/><line style="stroke: #383838; stroke-width: 1.0;" x1="192" x2="192" y1="144.457" y2="609.9688"/><line style="stroke: #383838; stroke-width: 1.0;" x1="202" x2="202" y1="144.457" y2="609.9688"/><line style="stroke: #383838; stroke-width: 1.0;" x1="192" x2="202" y1="144.457" y2="144.457"/><rect fill="#FFFFFF" filter="url(#f5u24as)" height="1077.5156" style="stroke: #FFFFFF; stroke-width: 1.0;" width="10" x="192" y="673.1875"/><line style="stroke: #383838; stroke-width: 1.0;" x1="192" x2="192" y1="673.1875" y2="1750.7031"/><line style="stroke: #383838; stroke-width: 1.0;" x1="202" x2="202" y1="673.1875" y2="1750.7031"/><line style="stroke: #383838; stroke-width: 1.0;" x1="192" x2="202" y1="1750.7031" y2="1750.7031"/><rect fill="#FFFFFF" filter="url(#f5u24as)" height="419.9219" style="stroke: #383838; stroke-width: 1.0;" width="10" x="265" y="181.6953"/><rect fill="#FFFFFF" filter="url(#f5u24as)" height="91.0547" style="stroke: #383838; stroke-width: 1.0;" width="10" x="354.5" y="387.5078"/><rect fill="#FFFFFF" filter="url(#f5u24as)" height="30.3516" style="stroke: #383838; stroke-width: 1.0;" width="10" x="354.5" y="508.9141"/><rect fill="#FFFFFF" filter="url(#f5u24as)" height="151.4063" style="stroke: #383838; stroke-width: 1.0;" width="10" x="594.5" y="695.1875"/><rect fill="#FFFFFF" filter="url(#f5u24as)" height="403.7031" style="stroke: #383838; stroke-width: 1.0;" width="10" x="703.5" y="868.5938"/><rect fill="#FFFFFF" filter="url(#f5u24as)" height="365.3516" style="stroke: #383838; stroke-width: 1.0;" width="10" x="703.5" y="1302.6484"/><polygon fill="#383838" points="180,140.457,190,144.457,180,148.457,184,144.457" style="stroke: #383838; stroke-width: 1.0;"/><line style="stroke: #383838; stroke-width: 1.0;" x1="3" x2="186" y1="144.457" y2="144.457"/><text fill="#000000" font-family="sans-serif" font-size="13" lengthAdjust="spacingAndGlyphs" textLength="65" x="10" y="139.9521">マクロ起動</text><polygon fill="#ECECEC" filter="url(#f5u24as)" points="207,120.5703,207,150.5703,484,150.5703,484,130.5703,474,120.5703,207,120.5703" style="stroke: #383838; stroke-width: 1.0;"/><line style="stroke: #383838; stroke-width: 1.0;" x1="474" x2="474" y1="120.5703" y2="130.5703"/><line style="stroke: #383838; stroke-width: 1.0;" x1="484" x2="474" y1="130.5703" y2="130.5703"/><text fill="#000000" font-family="sans-serif" font-size="16" lengthAdjust="spacingAndGlyphs" textLength="256" x="213" y="142.1797">進捗表示ダイアログを実装すること</text><polygon fill="#383838" points="253,177.6953,263,181.6953,253,185.6953,257,181.6953" style="stroke: #383838; stroke-width: 1.0;"/><line style="stroke: #383838; stroke-width: 1.0;" x1="202" x2="259" y1="181.6953" y2="181.6953"/><text fill="#000000" font-family="sans-serif" font-size="13" lengthAdjust="spacingAndGlyphs" textLength="26" x="209" y="177.1904">呼出</text><polygon fill="#383838" points="51,208.0469,41,212.0469,51,216.0469,47,212.0469" style="stroke: #383838; stroke-width: 1.0;"/><line style="stroke: #383838; stroke-width: 1.0;" x1="45" x2="264" y1="212.0469" y2="212.0469"/><text fill="#000000" font-family="sans-serif" font-size="13" lengthAdjust="spacingAndGlyphs" textLength="115" x="57" y="207.542">TextStreamingOpen</text><rect fill="none" height="345.2188" style="stroke: #000000; stroke-width: 2.0;" width="760.5" x="13" y="227.3984"/><polygon fill="#EEEEEE" points="13,227.3984,86,227.3984,86,235.3984,76,245.3984,13,245.3984,13,227.3984" style="stroke: #000000; stroke-width: 2.0;"/><text fill="#000000" font-family="sans-serif" font-size="13" font-weight="bold" lengthAdjust="spacingAndGlyphs" textLength="28" x="28" y="241.8936">loop</text><text fill="#000000" font-family="sans-serif" font-size="11" font-weight="bold" lengthAdjust="spacingAndGlyphs" textLength="98" x="101" y="240.8174">[1行ずつ読み出し]</text><polygon fill="#383838" points="253,263.75,263,267.75,253,271.75,257,267.75" style="stroke: #383838; stroke-width: 1.0;"/><line style="stroke: #383838; stroke-width: 1.0;" x1="40" x2="259" y1="267.75" y2="267.75"/><text fill="#000000" font-family="sans-serif" font-size="13" lengthAdjust="spacingAndGlyphs" textLength="31" x="47" y="263.2451">1Line</text><polygon fill="#383838" points="467.5,323.6289,477.5,327.6289,467.5,331.6289,471.5,327.6289" style="stroke: #383838; stroke-width: 1.0;"/><line style="stroke: #383838; stroke-width: 1.0;" x1="275" x2="473.5" y1="327.6289" y2="327.6289"/><text fill="#000000" font-family="sans-serif" font-size="13" lengthAdjust="spacingAndGlyphs" textLength="91" x="282" y="323.124">受注データ書込</text><polygon fill="#ECECEC" filter="url(#f5u24as)" points="484,281.1016,484,356.1016,754,356.1016,754,291.1016,744,281.1016,484,281.1016" style="stroke: #383838; stroke-width: 1.0;"/><line style="stroke: #383838; stroke-width: 1.0;" x1="744" x2="744" y1="281.1016" y2="291.1016"/><line style="stroke: #383838; stroke-width: 1.0;" x1="754" x2="744" y1="291.1016" y2="291.1016"/><text fill="#000000" font-family="sans-serif" font-size="13" lengthAdjust="spacingAndGlyphs" textLength="182" x="490" y="299.5967">商品名変更が必要な可能性アリ</text><text fill="#000000" font-family="sans-serif" font-size="13" lengthAdjust="spacingAndGlyphs" textLength="211" x="490" y="315.9482">1. 20万行のマッピングリストを使う</text><text fill="#000000" font-family="sans-serif" font-size="13" lengthAdjust="spacingAndGlyphs" textLength="145" x="490" y="332.2998">2. アドインデータを使う</text><text fill="#000000" font-family="sans-serif" font-size="13" lengthAdjust="spacingAndGlyphs" textLength="249" x="490" y="348.6514">3. 正規表現で【】≪≫を中身ごと削除する</text><polygon fill="#383838" points="375.5,383.5078,365.5,387.5078,375.5,391.5078,371.5,387.5078" style="stroke: #383838; stroke-width: 1.0;"/><line style="stroke: #383838; stroke-width: 1.0;" x1="369.5" x2="478.5" y1="387.5078" y2="387.5078"/><text fill="#000000" font-family="sans-serif" font-size="13" lengthAdjust="spacingAndGlyphs" textLength="65" x="381.5" y="383.0029">セット分解</text><polygon fill="#383838" points="126,413.8594,116,417.8594,126,421.8594,122,417.8594" style="stroke: #383838; stroke-width: 1.0;"/><line style="stroke: #383838; stroke-width: 1.0;" x1="120" x2="353.5" y1="417.8594" y2="417.8594"/><text fill="#000000" font-family="sans-serif" font-size="13" lengthAdjust="spacingAndGlyphs" textLength="127" x="132" y="413.3545">GetComponentItems()</text><polygon fill="#383838" points="342.5,444.2109,352.5,448.2109,342.5,452.2109,346.5,448.2109" style="stroke: #383838; stroke-width: 1.0;"/><line style="stroke: #383838; stroke-width: 1.0; stroke-dasharray: 2.0,2.0;" x1="115" x2="348.5" y1="448.2109" y2="448.2109"/><text fill="#000000" font-family="sans-serif" font-size="13" lengthAdjust="spacingAndGlyphs" textLength="82" x="122" y="443.7061">ItemCollection</text><polygon fill="#383838" points="467.5,474.5625,477.5,478.5625,467.5,482.5625,471.5,478.5625" style="stroke: #383838; stroke-width: 1.0;"/><line style="stroke: #383838; stroke-width: 1.0;" x1="359.5" x2="473.5" y1="478.5625" y2="478.5625"/><text fill="#000000" font-family="sans-serif" font-size="13" lengthAdjust="spacingAndGlyphs" textLength="91" x="366.5" y="474.0576">アイテム行挿入</text><polygon fill="#383838" points="375.5,504.9141,365.5,508.9141,375.5,512.9141,371.5,508.9141" style="stroke: #383838; stroke-width: 1.0;"/><line style="stroke: #383838; stroke-width: 1.0;" x1="369.5" x2="478.5" y1="508.9141" y2="508.9141"/><text fill="#000000" font-family="sans-serif" font-size="13" lengthAdjust="spacingAndGlyphs" textLength="65" x="381.5" y="504.4092">○個組分解</text><polygon fill="#383838" points="467.5,535.2656,477.5,539.2656,467.5,543.2656,471.5,539.2656" style="stroke: #383838; stroke-width: 1.0;"/><line style="stroke: #383838; stroke-width: 1.0;" x1="359.5" x2="473.5" y1="539.2656" y2="539.2656"/><text fill="#000000" font-family="sans-serif" font-size="13" lengthAdjust="spacingAndGlyphs" textLength="78" x="366.5" y="534.7607">単体数量上書</text><polygon fill="#383838" points="51,597.6172,41,601.6172,51,605.6172,47,601.6172" style="stroke: #383838; stroke-width: 1.0;"/><line style="stroke: #383838; stroke-width: 1.0;" x1="45" x2="269" y1="601.6172" y2="601.6172"/><text fill="#000000" font-family="sans-serif" font-size="13" lengthAdjust="spacingAndGlyphs" textLength="117" x="57" y="597.1123">TextStreamingClose</text><text fill="#000000" font-family="sans-serif" font-size="11" lengthAdjust="spacingAndGlyphs" textLength="0" x="379" y="656.7705"/><text fill="#000000" font-family="sans-serif" font-size="28" lengthAdjust="spacingAndGlyphs" textLength="400" x="379" y="653.0352">アドインでデータ取得 手動実行</text><text fill="#000000" font-family="sans-serif" font-size="11" lengthAdjust="spacingAndGlyphs" textLength="0" x="782" y="656.7705"/><polygon fill="#383838" points="582.5,691.1875,592.5,695.1875,582.5,699.1875,586.5,695.1875" style="stroke: #383838; stroke-width: 1.0;"/><line style="stroke: #383838; stroke-width: 1.0;" x1="202" x2="588.5" y1="695.1875" y2="695.1875"/><text fill="#000000" font-family="sans-serif" font-size="13" lengthAdjust="spacingAndGlyphs" textLength="84" x="209" y="690.6826">LocationCutter</text><rect fill="none" height="129.0547" style="stroke: #000000; stroke-width: 2.0;" width="233" x="426" y="710.5391"/><polygon fill="#EEEEEE" points="426,710.5391,499,710.5391,499,718.5391,489,728.5391,426,728.5391,426,710.5391" style="stroke: #000000; stroke-width: 2.0;"/><text fill="#000000" font-family="sans-serif" font-size="13" font-weight="bold" lengthAdjust="spacingAndGlyphs" textLength="28" x="441" y="725.0342">loop</text><text fill="#000000" font-family="sans-serif" font-size="11" font-weight="bold" lengthAdjust="spacingAndGlyphs" textLength="83" x="514" y="723.958">[受注データFix]</text><polygon fill="#383838" points="582.5,771.8906,592.5,775.8906,582.5,779.8906,586.5,775.8906" style="stroke: #383838; stroke-width: 1.0;"/><line style="stroke: #383838; stroke-width: 1.0;" x1="479.5" x2="588.5" y1="775.8906" y2="775.8906"/><text fill="#000000" font-family="sans-serif" font-size="13" lengthAdjust="spacingAndGlyphs" textLength="91" x="486.5" y="771.3857">ロケ文字列取得</text><polygon fill="#383838" points="490.5,802.2422,480.5,806.2422,490.5,810.2422,486.5,806.2422" style="stroke: #383838; stroke-width: 1.0;"/><line style="stroke: #383838; stroke-width: 1.0;" x1="484.5" x2="593.5" y1="806.2422" y2="806.2422"/><text fill="#000000" font-family="sans-serif" font-size="13" lengthAdjust="spacingAndGlyphs" textLength="78" x="496.5" y="801.7373">無効ロケ削除</text><polygon fill="#383838" points="691.5,864.5938,701.5,868.5938,691.5,872.5938,695.5,868.5938" style="stroke: #383838; stroke-width: 1.0;"/><line style="stroke: #383838; stroke-width: 1.0;" x1="202" x2="697.5" y1="868.5938" y2="868.5938"/><text fill="#000000" font-family="sans-serif" font-size="13" lengthAdjust="spacingAndGlyphs" textLength="116" x="209" y="864.0889">Sub CreatePicking()</text><rect fill="none" height="777.0547" style="stroke: #000000; stroke-width: 2.0;" width="1022" x="163" y="883.9453"/><polygon fill="#EEEEEE" points="163,883.9453,236,883.9453,236,891.9453,226,901.9453,163,901.9453,163,883.9453" style="stroke: #000000; stroke-width: 2.0;"/><text fill="#000000" font-family="sans-serif" font-size="13" font-weight="bold" lengthAdjust="spacingAndGlyphs" textLength="28" x="178" y="898.4404">loop</text><text fill="#000000" font-family="sans-serif" font-size="11" font-weight="bold" lengthAdjust="spacingAndGlyphs" textLength="86" x="251" y="897.3643">[3モール分実行]</text><rect fill="none" height="303.6484" style="stroke: #000000; stroke-width: 2.0;" width="568" x="426" y="909.2969"/><polygon fill="#EEEEEE" points="426,909.2969,611,909.2969,611,917.2969,601,927.2969,426,927.2969,426,909.2969" style="stroke: #000000; stroke-width: 2.0;"/><text fill="#000000" font-family="sans-serif" font-size="13" font-weight="bold" lengthAdjust="spacingAndGlyphs" textLength="140" x="441" y="923.792">ピッキングデータ作成</text><polygon fill="#383838" points="812,945.6484,822,949.6484,812,953.6484,816,949.6484" style="stroke: #383838; stroke-width: 1.0;"/><line style="stroke: #383838; stroke-width: 1.0;" x1="713.5" x2="818" y1="949.6484" y2="949.6484"/><text fill="#000000" font-family="sans-serif" font-size="13" lengthAdjust="spacingAndGlyphs" textLength="65" x="720.5" y="945.1436">ブック作成</text><text fill="#000000" font-family="sans-serif" font-size="14" lengthAdjust="spacingAndGlyphs" textLength="77" x="824" y="974.1816">Picking_2_3</text><ellipse cx="865.5" cy="943.6484" fill="#F8F8F8" filter="url(#f5u24as)" rx="12" ry="12" style="stroke: #383838; stroke-width: 2.0;"/><line style="stroke: #383838; stroke-width: 2.0;" x1="853.5" x2="877.5" y1="957.6484" y2="957.6484"/><polygon fill="#383838" points="905,1005.2578,915,1009.2578,905,1013.2578,909,1009.2578" style="stroke: #383838; stroke-width: 1.0;"/><line style="stroke: #383838; stroke-width: 1.0;" x1="713.5" x2="911" y1="1009.2578" y2="1009.2578"/><text fill="#000000" font-family="sans-serif" font-size="13" lengthAdjust="spacingAndGlyphs" textLength="65" x="720.5" y="1004.7529">ブック作成</text><text fill="#000000" font-family="sans-serif" font-size="14" lengthAdjust="spacingAndGlyphs" textLength="61" x="917" y="1033.791">Picking_a</text><ellipse cx="950.5" cy="1003.2578" fill="#F8F8F8" filter="url(#f5u24as)" rx="12" ry="12" style="stroke: #383838; stroke-width: 2.0;"/><line style="stroke: #383838; stroke-width: 2.0;" x1="938.5" x2="962.5" y1="1017.2578" y2="1017.2578"/><polygon fill="#383838" points="490.5,1064.8672,480.5,1068.8672,490.5,1072.8672,486.5,1068.8672" style="stroke: #383838; stroke-width: 1.0;"/><line style="stroke: #383838; stroke-width: 1.0;" x1="484.5" x2="702.5" y1="1068.8672" y2="1068.8672"/><text fill="#000000" font-family="sans-serif" font-size="13" lengthAdjust="spacingAndGlyphs" textLength="91" x="496.5" y="1064.3623">受注データ取得</text><line style="stroke: #383838; stroke-width: 1.0;" x1="713.5" x2="755.5" y1="1099.5703" y2="1099.5703"/><line style="stroke: #383838; stroke-width: 1.0;" x1="755.5" x2="755.5" y1="1099.5703" y2="1112.5703"/><line style="stroke: #383838; stroke-width: 1.0;" x1="714.5" x2="755.5" y1="1112.5703" y2="1112.5703"/><polygon fill="#383838" points="724.5,1108.5703,714.5,1112.5703,724.5,1116.5703,720.5,1112.5703" style="stroke: #383838; stroke-width: 1.0;"/><text fill="#000000" font-family="sans-serif" font-size="13" lengthAdjust="spacingAndGlyphs" textLength="91" x="720.5" y="1094.7139">受注モール判定</text><line style="stroke: #000000; stroke-width: 1.0; stroke-dasharray: 2.0,2.0;" x1="426" x2="994" y1="1121.5703" y2="1121.5703"/><text fill="#000000" font-family="sans-serif" font-size="11" font-weight="bold" lengthAdjust="spacingAndGlyphs" textLength="44" x="431" y="1132.9893">[棚有り]</text><polygon fill="#383838" points="853.5,1154.4063,863.5,1158.4063,853.5,1162.4063,857.5,1158.4063" style="stroke: #383838; stroke-width: 1.0;"/><line style="stroke: #383838; stroke-width: 1.0;" x1="713.5" x2="859.5" y1="1158.4063" y2="1158.4063"/><text fill="#000000" font-family="sans-serif" font-size="13" lengthAdjust="spacingAndGlyphs" textLength="128" x="720.5" y="1153.9014">6ケタ振替 データ転記</text><line style="stroke: #000000; stroke-width: 1.0; stroke-dasharray: 2.0,2.0;" x1="426" x2="994" y1="1167.7578" y2="1167.7578"/><text fill="#000000" font-family="sans-serif" font-size="11" font-weight="bold" lengthAdjust="spacingAndGlyphs" textLength="44" x="431" y="1179.1768">[棚無し]</text><polygon fill="#383838" points="938.5,1200.5938,948.5,1204.5938,938.5,1208.5938,942.5,1204.5938" style="stroke: #383838; stroke-width: 1.0;"/><line style="stroke: #383838; stroke-width: 1.0;" x1="713.5" x2="944.5" y1="1204.5938" y2="1204.5938"/><text fill="#000000" font-family="sans-serif" font-size="13" lengthAdjust="spacingAndGlyphs" textLength="65" x="720.5" y="1200.0889">データ転記</text><polygon fill="#383838" points="853.5,1237.9453,863.5,1241.9453,853.5,1245.9453,857.5,1241.9453" style="stroke: #383838; stroke-width: 1.0;"/><line style="stroke: #383838; stroke-width: 1.0;" x1="713.5" x2="859.5" y1="1241.9453" y2="1241.9453"/><text fill="#000000" font-family="sans-serif" font-size="13" lengthAdjust="spacingAndGlyphs" textLength="78" x="720.5" y="1237.4404">ファイル保存</text><line style="stroke: #383838; stroke-width: 2.0;" x1="856.5" x2="874.5" y1="1232.9453" y2="1250.9453"/><line style="stroke: #383838; stroke-width: 2.0;" x1="856.5" x2="874.5" y1="1250.9453" y2="1232.9453"/><polygon fill="#383838" points="938.5,1268.2969,948.5,1272.2969,938.5,1276.2969,942.5,1272.2969" style="stroke: #383838; stroke-width: 1.0;"/><line style="stroke: #383838; stroke-width: 1.0;" x1="708.5" x2="944.5" y1="1272.2969" y2="1272.2969"/><text fill="#000000" font-family="sans-serif" font-size="13" lengthAdjust="spacingAndGlyphs" textLength="78" x="715.5" y="1267.792">ファイル保存</text><line style="stroke: #383838; stroke-width: 2.0;" x1="941.5" x2="959.5" y1="1263.2969" y2="1281.2969"/><line style="stroke: #383838; stroke-width: 2.0;" x1="941.5" x2="959.5" y1="1281.2969" y2="1263.2969"/><polygon fill="#383838" points="691.5,1298.6484,701.5,1302.6484,691.5,1306.6484,695.5,1302.6484" style="stroke: #383838; stroke-width: 1.0;"/><line style="stroke: #383838; stroke-width: 1.0;" x1="202" x2="697.5" y1="1302.6484" y2="1302.6484"/><text fill="#000000" font-family="sans-serif" font-size="13" lengthAdjust="spacingAndGlyphs" textLength="161" x="209" y="1298.1436">Sub CreateForSorterSheet()</text><rect fill="none" height="336" style="stroke: #000000; stroke-width: 2.0;" width="749" x="426" y="1318"/><polygon fill="#EEEEEE" points="426,1318,569,1318,569,1326,559,1336,426,1336,426,1318" style="stroke: #000000; stroke-width: 2.0;"/><text fill="#000000" font-family="sans-serif" font-size="13" font-weight="bold" lengthAdjust="spacingAndGlyphs" textLength="98" x="441" y="1332.4951">振分シート作成</text><polygon fill="#383838" points="982,1354.3516,992,1358.3516,982,1362.3516,986,1358.3516" style="stroke: #383838; stroke-width: 1.0;"/><line style="stroke: #383838; stroke-width: 1.0;" x1="713.5" x2="988" y1="1358.3516" y2="1358.3516"/><text fill="#000000" font-family="sans-serif" font-size="13" lengthAdjust="spacingAndGlyphs" textLength="65" x="720.5" y="1353.8467">シート作成</text><text fill="#000000" font-family="sans-serif" font-size="14" lengthAdjust="spacingAndGlyphs" textLength="61" x="994" y="1382.8848">ForSorter</text><ellipse cx="1027.5" cy="1352.3516" fill="#F8F8F8" filter="url(#f5u24as)" rx="12" ry="12" style="stroke: #383838; stroke-width: 2.0;"/><line style="stroke: #383838; stroke-width: 2.0;" x1="1015.5" x2="1039.5" y1="1366.3516" y2="1366.3516"/><polygon fill="#383838" points="1059,1413.9609,1069,1417.9609,1059,1421.9609,1063,1417.9609" style="stroke: #383838; stroke-width: 1.0;"/><line style="stroke: #383838; stroke-width: 1.0;" x1="713.5" x2="1065" y1="1417.9609" y2="1417.9609"/><text fill="#000000" font-family="sans-serif" font-size="13" lengthAdjust="spacingAndGlyphs" textLength="65" x="720.5" y="1413.4561">シート作成</text><text fill="#000000" font-family="sans-serif" font-size="14" lengthAdjust="spacingAndGlyphs" textLength="88" x="1071" y="1442.4941">ForSorter_set</text><ellipse cx="1118" cy="1411.9609" fill="#F8F8F8" filter="url(#f5u24as)" rx="12" ry="12" style="stroke: #383838; stroke-width: 2.0;"/><line style="stroke: #383838; stroke-width: 2.0;" x1="1106" x2="1130" y1="1425.9609" y2="1425.9609"/><polygon fill="#383838" points="490.5,1473.5703,480.5,1477.5703,490.5,1481.5703,486.5,1477.5703" style="stroke: #383838; stroke-width: 1.0;"/><line style="stroke: #383838; stroke-width: 1.0;" x1="484.5" x2="702.5" y1="1477.5703" y2="1477.5703"/><text fill="#000000" font-family="sans-serif" font-size="13" lengthAdjust="spacingAndGlyphs" textLength="91" x="496.5" y="1473.0654">受注データ取得</text><line style="stroke: #383838; stroke-width: 1.0;" x1="713.5" x2="755.5" y1="1508.2734" y2="1508.2734"/><line style="stroke: #383838; stroke-width: 1.0;" x1="755.5" x2="755.5" y1="1508.2734" y2="1521.2734"/><line style="stroke: #383838; stroke-width: 1.0;" x1="714.5" x2="755.5" y1="1521.2734" y2="1521.2734"/><polygon fill="#383838" points="724.5,1517.2734,714.5,1521.2734,724.5,1525.2734,720.5,1521.2734" style="stroke: #383838; stroke-width: 1.0;"/><text fill="#000000" font-family="sans-serif" font-size="13" lengthAdjust="spacingAndGlyphs" textLength="91" x="720.5" y="1503.417">受注モール判定</text><line style="stroke: #000000; stroke-width: 1.0; stroke-dasharray: 2.0,2.0;" x1="426" x2="1175" y1="1530.2734" y2="1530.2734"/><text fill="#000000" font-family="sans-serif" font-size="11" font-weight="bold" lengthAdjust="spacingAndGlyphs" textLength="68" x="431" y="1541.6924">[単体受注品]</text><polygon fill="#383838" points="1015.5,1563.1094,1025.5,1567.1094,1015.5,1571.1094,1019.5,1567.1094" style="stroke: #383838; stroke-width: 1.0;"/><line style="stroke: #383838; stroke-width: 1.0;" x1="713.5" x2="1021.5" y1="1567.1094" y2="1567.1094"/><text fill="#000000" font-family="sans-serif" font-size="13" lengthAdjust="spacingAndGlyphs" textLength="91" x="720.5" y="1562.6045">受注データ転記</text><line style="stroke: #000000; stroke-width: 1.0; stroke-dasharray: 2.0,2.0;" x1="426" x2="1175" y1="1576.4609" y2="1576.4609"/><text fill="#000000" font-family="sans-serif" font-size="11" font-weight="bold" lengthAdjust="spacingAndGlyphs" textLength="68" x="431" y="1587.8799">[セット商品]</text><polygon fill="#383838" points="1106,1609.2969,1116,1613.2969,1106,1617.2969,1110,1613.2969" style="stroke: #383838; stroke-width: 1.0;"/><line style="stroke: #383838; stroke-width: 1.0;" x1="713.5" x2="1112" y1="1613.2969" y2="1613.2969"/><text fill="#000000" font-family="sans-serif" font-size="13" lengthAdjust="spacingAndGlyphs" textLength="91" x="720.5" y="1608.792">受注データ転記</text><line style="stroke: #000000; stroke-width: 1.0; stroke-dasharray: 2.0,2.0;" x1="426" x2="1175" y1="1622.6484" y2="1622.6484"/><polygon fill="#383838" points="1015.5,1641.6484,1025.5,1645.6484,1015.5,1649.6484,1019.5,1645.6484" style="stroke: #383838; stroke-width: 1.0;"/><line style="stroke: #383838; stroke-width: 1.0;" x1="713.5" x2="1021.5" y1="1645.6484" y2="1645.6484"/><text fill="#000000" font-family="sans-serif" font-size="13" lengthAdjust="spacingAndGlyphs" textLength="117" x="720.5" y="1641.1436">商品コードでソート</text><polygon fill="#383838" points="1015.5,1686,1025.5,1690,1015.5,1694,1019.5,1690" style="stroke: #383838; stroke-width: 1.0;"/><line style="stroke: #383838; stroke-width: 1.0; stroke-dasharray: 2.0,2.0;" x1="202" x2="1021.5" y1="1690" y2="1690"/><text fill="#000000" font-family="sans-serif" font-size="13" lengthAdjust="spacingAndGlyphs" textLength="79" x="209" y="1685.4951">VBA:PrintOut</text><polygon fill="#383838" points="1106,1716.3516,1116,1720.3516,1106,1724.3516,1110,1720.3516" style="stroke: #383838; stroke-width: 1.0;"/><line style="stroke: #383838; stroke-width: 1.0; stroke-dasharray: 2.0,2.0;" x1="202" x2="1112" y1="1720.3516" y2="1720.3516"/><text fill="#000000" font-family="sans-serif" font-size="13" lengthAdjust="spacingAndGlyphs" textLength="79" x="209" y="1715.8467">VBA:PrintOut</text><polygon fill="#383838" points="14,1746.7031,4,1750.7031,14,1754.7031,10,1750.7031" style="stroke: #383838; stroke-width: 1.0;"/><line style="stroke: #383838; stroke-width: 1.0;" x1="8" x2="196" y1="1750.7031" y2="1750.7031"/><text fill="#000000" font-family="sans-serif" font-size="13" lengthAdjust="spacingAndGlyphs" textLength="91" x="20" y="1746.1982">終了メッセージ</text></g></svg>