<?xml version="1.0" encoding="UTF-8" standalone="no"?><svg xmlns="http://www.w3.org/2000/svg" xmlns:xlink="http://www.w3.org/1999/xlink" contentScriptType="application/ecmascript" contentStyleType="text/css" height="1523px" preserveAspectRatio="none" style="width:1183px;height:1523px;" version="1.1" viewBox="0 0 1183 1523" width="1183px" zoomAndPan="magnify"><defs><filter height="300%" id="fvh8ha1" width="300%" x="-1" y="-1"><feGaussianBlur result="blurOut" stdDeviation="2.0"/><feColorMatrix in="blurOut" result="blurOut2" type="matrix" values="0 0 0 0 0 0 0 0 0 0 0 0 0 0 0 0 0 0 .4 0"/><feOffset dx="4.0" dy="4.0" in="blurOut2" result="blurOut3"/><feBlend in="SourceGraphic" in2="blurOut3" mode="normal"/></filter></defs><g><text fill="#000000" font-family="sans-serif" font-size="14" font-weight="bold" lengthAdjust="spacingAndGlyphs" textLength="193" x="497.25" y="24.5332">ピッキングテンプレートVBA</text><rect fill="#FFFFFF" filter="url(#fvh8ha1)" height="369.2188" style="stroke: #FFFFFF; stroke-width: 1.0;" width="10" x="192" y="137.5703"/><line style="stroke: #383838; stroke-width: 1.0;" x1="192" x2="192" y1="137.5703" y2="506.7891"/><line style="stroke: #383838; stroke-width: 1.0;" x1="202" x2="202" y1="137.5703" y2="506.7891"/><line style="stroke: #383838; stroke-width: 1.0;" x1="192" x2="202" y1="137.5703" y2="137.5703"/><rect fill="#FFFFFF" filter="url(#fvh8ha1)" height="881.4063" style="stroke: #FFFFFF; stroke-width: 1.0;" width="10" x="192" y="570.0078"/><line style="stroke: #383838; stroke-width: 1.0;" x1="192" x2="192" y1="570.0078" y2="1451.4141"/><line style="stroke: #383838; stroke-width: 1.0;" x1="202" x2="202" y1="570.0078" y2="1451.4141"/><line style="stroke: #383838; stroke-width: 1.0;" x1="192" x2="202" y1="1451.4141" y2="1451.4141"/><rect fill="#FFFFFF" filter="url(#fvh8ha1)" height="360.8672" style="stroke: #383838; stroke-width: 1.0;" width="10" x="281" y="137.5703"/><rect fill="#FFFFFF" filter="url(#fvh8ha1)" height="91.0547" style="stroke: #383838; stroke-width: 1.0;" width="10" x="370.5" y="284.3281"/><rect fill="#FFFFFF" filter="url(#fvh8ha1)" height="30.3516" style="stroke: #383838; stroke-width: 1.0;" width="10" x="370.5" y="405.7344"/><rect fill="#FFFFFF" filter="url(#fvh8ha1)" height="151.0547" style="stroke: #383838; stroke-width: 1.0;" width="10" x="610.5" y="576.0078"/><rect fill="#FFFFFF" filter="url(#fvh8ha1)" height="650" style="stroke: #383838; stroke-width: 1.0;" width="10" x="725.5" y="749.0625"/><rect fill="#FFFFFF" filter="url(#fvh8ha1)" height="286.1641" style="stroke: #000000; stroke-width: 2.0;" width="536" x="13" y="183.2734"/><rect fill="#FFFFFF" filter="url(#fvh8ha1)" height="129.0547" style="stroke: #000000; stroke-width: 2.0;" width="239" x="442" y="591.0078"/><rect fill="#FFFFFF" filter="url(#fvh8ha1)" height="627.6484" style="stroke: #000000; stroke-width: 2.0;" width="742.5" x="432" y="764.4141"/><rect fill="#FFFFFF" filter="url(#fvh8ha1)" height="260.2969" style="stroke: #000000; stroke-width: 2.0;" width="552.5" x="442" y="789.7656"/><text fill="#000000" font-family="sans-serif" font-size="14" lengthAdjust="spacingAndGlyphs" textLength="77" x="824.5" y="854.6504">Picking_2_3</text><ellipse cx="866" cy="824.1172" fill="#F8F8F8" filter="url(#fvh8ha1)" rx="12" ry="12" style="stroke: #383838; stroke-width: 2.0;"/><line style="stroke: #383838; stroke-width: 2.0;" x1="854" x2="878" y1="838.1172" y2="838.1172"/><text fill="#000000" font-family="sans-serif" font-size="14" lengthAdjust="spacingAndGlyphs" textLength="61" x="917.5" y="914.2598">Picking_a</text><ellipse cx="951" cy="883.7266" fill="#F8F8F8" filter="url(#fvh8ha1)" rx="12" ry="12" style="stroke: #383838; stroke-width: 2.0;"/><line style="stroke: #383838; stroke-width: 2.0;" x1="939" x2="963" y1="897.7266" y2="897.7266"/><rect fill="#FFFFFF" height="46.1875" style="stroke: none; stroke-width: 1.0;" width="552.5" x="442" y="957.6875"/><rect fill="#FFFFFF" height="46.1875" style="stroke: none; stroke-width: 1.0;" width="552.5" x="442" y="1003.875"/><rect fill="#FFFFFF" filter="url(#fvh8ha1)" height="260.2969" style="stroke: #000000; stroke-width: 2.0;" width="722.5" x="442" y="1124.7656"/><text fill="#000000" font-family="sans-serif" font-size="14" lengthAdjust="spacingAndGlyphs" textLength="69" x="994.5" y="1189.6504">ForSorter1</text><ellipse cx="1032" cy="1159.1172" fill="#F8F8F8" filter="url(#fvh8ha1)" rx="12" ry="12" style="stroke: #383838; stroke-width: 2.0;"/><line style="stroke: #383838; stroke-width: 2.0;" x1="1020" x2="1044" y1="1173.1172" y2="1173.1172"/><text fill="#000000" font-family="sans-serif" font-size="14" lengthAdjust="spacingAndGlyphs" textLength="69" x="1079.5" y="1249.2598">ForSorter2</text><ellipse cx="1117" cy="1218.7266" fill="#F8F8F8" filter="url(#fvh8ha1)" rx="12" ry="12" style="stroke: #383838; stroke-width: 2.0;"/><line style="stroke: #383838; stroke-width: 2.0;" x1="1105" x2="1129" y1="1232.7266" y2="1232.7266"/><rect fill="#FFFFFF" height="46.1875" style="stroke: none; stroke-width: 1.0;" width="722.5" x="442" y="1292.6875"/><rect fill="#FFFFFF" height="46.1875" style="stroke: none; stroke-width: 1.0;" width="722.5" x="442" y="1338.875"/><rect fill="#FFFFFF" height="1486.7656" style="stroke: #383838; stroke-width: 1.0;" width="148" x="19" y="35.6094"/><text fill="#000000" font-family="sans-serif" font-size="13" font-weight="bold" lengthAdjust="spacingAndGlyphs" textLength="84" x="51" y="49.1045">外部ファイル</text><line style="stroke: #383838; stroke-width: 1.0;" x1="40" x2="40" y1="105.5703" y2="506.7891"/><line style="stroke: #383838; stroke-width: 1.0; stroke-dasharray: 1.0,4.0;" x1="40" x2="40" y1="506.7891" y2="570.0078"/><line style="stroke: #383838; stroke-width: 1.0;" x1="40" x2="40" y1="570.0078" y2="1469.7656"/><line style="stroke: #383838; stroke-width: 1.0;" x1="115" x2="115" y1="105.5703" y2="506.7891"/><line style="stroke: #383838; stroke-width: 1.0; stroke-dasharray: 1.0,4.0;" x1="115" x2="115" y1="506.7891" y2="570.0078"/><line style="stroke: #383838; stroke-width: 1.0;" x1="115" x2="115" y1="570.0078" y2="1469.7656"/><line style="stroke: #383838; stroke-width: 1.0;" x1="197" x2="197" y1="105.5703" y2="506.7891"/><line style="stroke: #383838; stroke-width: 1.0; stroke-dasharray: 1.0,4.0;" x1="197" x2="197" y1="506.7891" y2="570.0078"/><line style="stroke: #383838; stroke-width: 1.0;" x1="197" x2="197" y1="570.0078" y2="1469.7656"/><line style="stroke: #383838; stroke-width: 1.0;" x1="286" x2="286" y1="105.5703" y2="506.7891"/><line style="stroke: #383838; stroke-width: 1.0; stroke-dasharray: 1.0,4.0;" x1="286" x2="286" y1="506.7891" y2="570.0078"/><line style="stroke: #383838; stroke-width: 1.0;" x1="286" x2="286" y1="570.0078" y2="1469.7656"/><line style="stroke: #383838; stroke-width: 1.0;" x1="375" x2="375" y1="105.5703" y2="506.7891"/><line style="stroke: #383838; stroke-width: 1.0; stroke-dasharray: 1.0,4.0;" x1="375" x2="375" y1="506.7891" y2="570.0078"/><line style="stroke: #383838; stroke-width: 1.0;" x1="375" x2="375" y1="570.0078" y2="1469.7656"/><line style="stroke: #383838; stroke-width: 1.0;" x1="495" x2="495" y1="105.5703" y2="506.7891"/><line style="stroke: #383838; stroke-width: 1.0; stroke-dasharray: 1.0,4.0;" x1="495" x2="495" y1="506.7891" y2="570.0078"/><line style="stroke: #383838; stroke-width: 1.0;" x1="495" x2="495" y1="570.0078" y2="1469.7656"/><line style="stroke: #383838; stroke-width: 1.0;" x1="615" x2="615" y1="105.5703" y2="506.7891"/><line style="stroke: #383838; stroke-width: 1.0; stroke-dasharray: 1.0,4.0;" x1="615" x2="615" y1="506.7891" y2="570.0078"/><line style="stroke: #383838; stroke-width: 1.0;" x1="615" x2="615" y1="570.0078" y2="1469.7656"/><line style="stroke: #383838; stroke-width: 1.0;" x1="730" x2="730" y1="105.5703" y2="506.7891"/><line style="stroke: #383838; stroke-width: 1.0; stroke-dasharray: 1.0,4.0;" x1="730" x2="730" y1="506.7891" y2="570.0078"/><line style="stroke: #383838; stroke-width: 1.0;" x1="730" x2="730" y1="570.0078" y2="1469.7656"/><line style="stroke: #383838; stroke-width: 1.0;" x1="865.5" x2="865.5" y1="847.9219" y2="1469.7656"/><line style="stroke: #383838; stroke-width: 1.0;" x1="950.5" x2="950.5" y1="907.5313" y2="1469.7656"/><line style="stroke: #383838; stroke-width: 1.0;" x1="1031.5" x2="1031.5" y1="1182.9219" y2="1469.7656"/><line style="stroke: #383838; stroke-width: 1.0;" x1="1116.5" x2="1116.5" y1="1242.5313" y2="1469.7656"/><text fill="#000000" font-family="sans-serif" font-size="14" lengthAdjust="spacingAndGlyphs" textLength="28" x="23" y="102.4941">CSV</text><ellipse cx="40" cy="71.9609" fill="#F8F8F8" filter="url(#fvh8ha1)" rx="12" ry="12" style="stroke: #383838; stroke-width: 2.0;"/><line style="stroke: #383838; stroke-width: 2.0;" x1="28" x2="52" y1="85.9609" y2="85.9609"/><text fill="#000000" font-family="sans-serif" font-size="14" lengthAdjust="spacingAndGlyphs" textLength="28" x="23" y="1483.2988">CSV</text><ellipse cx="40" cy="1502.375" fill="#F8F8F8" filter="url(#fvh8ha1)" rx="12" ry="12" style="stroke: #383838; stroke-width: 2.0;"/><line style="stroke: #383838; stroke-width: 2.0;" x1="28" x2="52" y1="1516.375" y2="1516.375"/><text fill="#000000" font-family="sans-serif" font-size="14" lengthAdjust="spacingAndGlyphs" textLength="90" x="67" y="102.4941">ｾｯﾄ商品ﾘｽﾄ.xls</text><ellipse cx="115" cy="71.9609" fill="#F8F8F8" filter="url(#fvh8ha1)" rx="12" ry="12" style="stroke: #383838; stroke-width: 2.0;"/><line style="stroke: #383838; stroke-width: 2.0;" x1="103" x2="127" y1="85.9609" y2="85.9609"/><text fill="#000000" font-family="sans-serif" font-size="14" lengthAdjust="spacingAndGlyphs" textLength="90" x="67" y="1483.2988">ｾｯﾄ商品ﾘｽﾄ.xls</text><ellipse cx="115" cy="1502.375" fill="#F8F8F8" filter="url(#fvh8ha1)" rx="12" ry="12" style="stroke: #383838; stroke-width: 2.0;"/><line style="stroke: #383838; stroke-width: 2.0;" x1="103" x2="127" y1="1516.375" y2="1516.375"/><rect fill="#F8F8F8" filter="url(#fvh8ha1)" height="31.6094" style="stroke: #383838; stroke-width: 1.5;" width="44" x="173" y="68.9609"/><text fill="#000000" font-family="sans-serif" font-size="14" lengthAdjust="spacingAndGlyphs" textLength="30" x="180" y="90.4941">Main</text><rect fill="#F8F8F8" filter="url(#fvh8ha1)" height="31.6094" style="stroke: #383838; stroke-width: 1.5;" width="44" x="173" y="1468.7656"/><text fill="#000000" font-family="sans-serif" font-size="14" lengthAdjust="spacingAndGlyphs" textLength="30" x="180" y="1490.2988">Main</text><rect fill="#F8F8F8" filter="url(#fvh8ha1)" height="31.6094" style="stroke: #383838; stroke-width: 1.5;" width="74" x="247" y="68.9609"/><text fill="#000000" font-family="sans-serif" font-size="14" lengthAdjust="spacingAndGlyphs" textLength="60" x="254" y="90.4941">FetchCsv</text><rect fill="#F8F8F8" filter="url(#fvh8ha1)" height="31.6094" style="stroke: #383838; stroke-width: 1.5;" width="74" x="247" y="1468.7656"/><text fill="#000000" font-family="sans-serif" font-size="14" lengthAdjust="spacingAndGlyphs" textLength="60" x="254" y="1490.2988">FetchCsv</text><rect fill="#F8F8F8" filter="url(#fvh8ha1)" height="31.6094" style="stroke: #383838; stroke-width: 1.5;" width="77" x="335" y="68.9609"/><text fill="#000000" font-family="sans-serif" font-size="14" lengthAdjust="spacingAndGlyphs" textLength="63" x="342" y="90.4941">SetParser</text><rect fill="#F8F8F8" filter="url(#fvh8ha1)" height="31.6094" style="stroke: #383838; stroke-width: 1.5;" width="77" x="335" y="1468.7656"/><text fill="#000000" font-family="sans-serif" font-size="14" lengthAdjust="spacingAndGlyphs" textLength="63" x="342" y="1490.2988">SetParser</text><text fill="#000000" font-family="sans-serif" font-size="14" lengthAdjust="spacingAndGlyphs" textLength="81" x="452" y="102.4941">OrdersSheet</text><ellipse cx="495.5" cy="71.9609" fill="#F8F8F8" filter="url(#fvh8ha1)" rx="12" ry="12" style="stroke: #383838; stroke-width: 2.0;"/><line style="stroke: #383838; stroke-width: 2.0;" x1="483.5" x2="507.5" y1="85.9609" y2="85.9609"/><text fill="#000000" font-family="sans-serif" font-size="14" lengthAdjust="spacingAndGlyphs" textLength="81" x="452" y="1483.2988">OrdersSheet</text><ellipse cx="495.5" cy="1502.375" fill="#F8F8F8" filter="url(#fvh8ha1)" rx="12" ry="12" style="stroke: #383838; stroke-width: 2.0;"/><line style="stroke: #383838; stroke-width: 2.0;" x1="483.5" x2="507.5" y1="1516.375" y2="1516.375"/><rect fill="#F8F8F8" filter="url(#fvh8ha1)" height="31.6094" style="stroke: #383838; stroke-width: 1.5;" width="107" x="560" y="68.9609"/><text fill="#000000" font-family="sans-serif" font-size="14" lengthAdjust="spacingAndGlyphs" textLength="93" x="567" y="90.4941">LocationCutter</text><rect fill="#F8F8F8" filter="url(#fvh8ha1)" height="31.6094" style="stroke: #383838; stroke-width: 1.5;" width="107" x="560" y="1468.7656"/><text fill="#000000" font-family="sans-serif" font-size="14" lengthAdjust="spacingAndGlyphs" textLength="93" x="567" y="1490.2988">LocationCutter</text><rect fill="#F8F8F8" filter="url(#fvh8ha1)" height="31.6094" style="stroke: #383838; stroke-width: 1.5;" width="95" x="681" y="68.9609"/><text fill="#000000" font-family="sans-serif" font-size="14" lengthAdjust="spacingAndGlyphs" textLength="81" x="688" y="90.4941">SheetBuilder</text><rect fill="#F8F8F8" filter="url(#fvh8ha1)" height="31.6094" style="stroke: #383838; stroke-width: 1.5;" width="95" x="681" y="1468.7656"/><text fill="#000000" font-family="sans-serif" font-size="14" lengthAdjust="spacingAndGlyphs" textLength="81" x="688" y="1490.2988">SheetBuilder</text><text fill="#000000" font-family="sans-serif" font-size="14" lengthAdjust="spacingAndGlyphs" textLength="77" x="824.5" y="1483.2988">Picking_2_3</text><ellipse cx="866" cy="1502.375" fill="#F8F8F8" filter="url(#fvh8ha1)" rx="12" ry="12" style="stroke: #383838; stroke-width: 2.0;"/><line style="stroke: #383838; stroke-width: 2.0;" x1="854" x2="878" y1="1516.375" y2="1516.375"/><text fill="#000000" font-family="sans-serif" font-size="14" lengthAdjust="spacingAndGlyphs" textLength="61" x="917.5" y="1483.2988">Picking_a</text><ellipse cx="951" cy="1502.375" fill="#F8F8F8" filter="url(#fvh8ha1)" rx="12" ry="12" style="stroke: #383838; stroke-width: 2.0;"/><line style="stroke: #383838; stroke-width: 2.0;" x1="939" x2="963" y1="1516.375" y2="1516.375"/><text fill="#000000" font-family="sans-serif" font-size="14" lengthAdjust="spacingAndGlyphs" textLength="69" x="994.5" y="1483.2988">ForSorter1</text><ellipse cx="1032" cy="1502.375" fill="#F8F8F8" filter="url(#fvh8ha1)" rx="12" ry="12" style="stroke: #383838; stroke-width: 2.0;"/><line style="stroke: #383838; stroke-width: 2.0;" x1="1020" x2="1044" y1="1516.375" y2="1516.375"/><text fill="#000000" font-family="sans-serif" font-size="14" lengthAdjust="spacingAndGlyphs" textLength="69" x="1079.5" y="1483.2988">ForSorter2</text><ellipse cx="1117" cy="1502.375" fill="#F8F8F8" filter="url(#fvh8ha1)" rx="12" ry="12" style="stroke: #383838; stroke-width: 2.0;"/><line style="stroke: #383838; stroke-width: 2.0;" x1="1105" x2="1129" y1="1516.375" y2="1516.375"/><rect fill="#FFFFFF" filter="url(#fvh8ha1)" height="369.2188" style="stroke: #FFFFFF; stroke-width: 1.0;" width="10" x="192" y="137.5703"/><line style="stroke: #383838; stroke-width: 1.0;" x1="192" x2="192" y1="137.5703" y2="506.7891"/><line style="stroke: #383838; stroke-width: 1.0;" x1="202" x2="202" y1="137.5703" y2="506.7891"/><line style="stroke: #383838; stroke-width: 1.0;" x1="192" x2="202" y1="137.5703" y2="137.5703"/><rect fill="#FFFFFF" filter="url(#fvh8ha1)" height="881.4063" style="stroke: #FFFFFF; stroke-width: 1.0;" width="10" x="192" y="570.0078"/><line style="stroke: #383838; stroke-width: 1.0;" x1="192" x2="192" y1="570.0078" y2="1451.4141"/><line style="stroke: #383838; stroke-width: 1.0;" x1="202" x2="202" y1="570.0078" y2="1451.4141"/><line style="stroke: #383838; stroke-width: 1.0;" x1="192" x2="202" y1="1451.4141" y2="1451.4141"/><rect fill="#FFFFFF" filter="url(#fvh8ha1)" height="360.8672" style="stroke: #383838; stroke-width: 1.0;" width="10" x="281" y="137.5703"/><rect fill="#FFFFFF" filter="url(#fvh8ha1)" height="91.0547" style="stroke: #383838; stroke-width: 1.0;" width="10" x="370.5" y="284.3281"/><rect fill="#FFFFFF" filter="url(#fvh8ha1)" height="30.3516" style="stroke: #383838; stroke-width: 1.0;" width="10" x="370.5" y="405.7344"/><rect fill="#FFFFFF" filter="url(#fvh8ha1)" height="151.0547" style="stroke: #383838; stroke-width: 1.0;" width="10" x="610.5" y="576.0078"/><rect fill="#FFFFFF" filter="url(#fvh8ha1)" height="650" style="stroke: #383838; stroke-width: 1.0;" width="10" x="725.5" y="749.0625"/><polygon fill="#383838" points="269,133.5703,279,137.5703,269,141.5703,273,137.5703" style="stroke: #383838; stroke-width: 1.0;"/><line style="stroke: #383838; stroke-width: 1.0;" x1="202" x2="275" y1="137.5703" y2="137.5703"/><text fill="#000000" font-family="sans-serif" font-size="13" lengthAdjust="spacingAndGlyphs" textLength="65" x="209" y="133.0654">マクロ起動</text><polygon fill="#383838" points="51,163.9219,41,167.9219,51,171.9219,47,167.9219" style="stroke: #383838; stroke-width: 1.0;"/><line style="stroke: #383838; stroke-width: 1.0;" x1="45" x2="280" y1="167.9219" y2="167.9219"/><text fill="#000000" font-family="sans-serif" font-size="13" lengthAdjust="spacingAndGlyphs" textLength="115" x="57" y="163.417">TextStreamingOpen</text><rect fill="none" height="286.1641" style="stroke: #000000; stroke-width: 2.0;" width="536" x="13" y="183.2734"/><polygon fill="#EEEEEE" points="13,183.2734,86,183.2734,86,191.2734,76,201.2734,13,201.2734,13,183.2734" style="stroke: #000000; stroke-width: 2.0;"/><text fill="#000000" font-family="sans-serif" font-size="13" font-weight="bold" lengthAdjust="spacingAndGlyphs" textLength="28" x="28" y="197.7686">loop</text><text fill="#000000" font-family="sans-serif" font-size="11" font-weight="bold" lengthAdjust="spacingAndGlyphs" textLength="98" x="101" y="196.6924">[1行ずつ読み出し]</text><polygon fill="#383838" points="269,219.625,279,223.625,269,227.625,273,223.625" style="stroke: #383838; stroke-width: 1.0;"/><line style="stroke: #383838; stroke-width: 1.0;" x1="40" x2="275" y1="223.625" y2="223.625"/><text fill="#000000" font-family="sans-serif" font-size="13" lengthAdjust="spacingAndGlyphs" textLength="31" x="47" y="219.1201">1Line</text><polygon fill="#383838" points="483.5,249.9766,493.5,253.9766,483.5,257.9766,487.5,253.9766" style="stroke: #383838; stroke-width: 1.0;"/><line style="stroke: #383838; stroke-width: 1.0;" x1="291" x2="489.5" y1="253.9766" y2="253.9766"/><text fill="#000000" font-family="sans-serif" font-size="13" lengthAdjust="spacingAndGlyphs" textLength="91" x="298" y="249.4717">受注データ書込</text><polygon fill="#383838" points="391.5,280.3281,381.5,284.3281,391.5,288.3281,387.5,284.3281" style="stroke: #383838; stroke-width: 1.0;"/><line style="stroke: #383838; stroke-width: 1.0;" x1="385.5" x2="494.5" y1="284.3281" y2="284.3281"/><text fill="#000000" font-family="sans-serif" font-size="13" lengthAdjust="spacingAndGlyphs" textLength="65" x="397.5" y="279.8232">セット分解</text><polygon fill="#383838" points="126,310.6797,116,314.6797,126,318.6797,122,314.6797" style="stroke: #383838; stroke-width: 1.0;"/><line style="stroke: #383838; stroke-width: 1.0;" x1="120" x2="369.5" y1="314.6797" y2="314.6797"/><text fill="#000000" font-family="sans-serif" font-size="13" lengthAdjust="spacingAndGlyphs" textLength="127" x="132" y="310.1748">GetComponentItems()</text><polygon fill="#383838" points="358.5,341.0313,368.5,345.0313,358.5,349.0313,362.5,345.0313" style="stroke: #383838; stroke-width: 1.0;"/><line style="stroke: #383838; stroke-width: 1.0; stroke-dasharray: 2.0,2.0;" x1="115" x2="364.5" y1="345.0313" y2="345.0313"/><text fill="#000000" font-family="sans-serif" font-size="13" lengthAdjust="spacingAndGlyphs" textLength="82" x="122" y="340.5264">ItemCollection</text><polygon fill="#383838" points="483.5,371.3828,493.5,375.3828,483.5,379.3828,487.5,375.3828" style="stroke: #383838; stroke-width: 1.0;"/><line style="stroke: #383838; stroke-width: 1.0;" x1="375.5" x2="489.5" y1="375.3828" y2="375.3828"/><text fill="#000000" font-family="sans-serif" font-size="13" lengthAdjust="spacingAndGlyphs" textLength="91" x="382.5" y="370.8779">アイテム行挿入</text><polygon fill="#383838" points="391.5,401.7344,381.5,405.7344,391.5,409.7344,387.5,405.7344" style="stroke: #383838; stroke-width: 1.0;"/><line style="stroke: #383838; stroke-width: 1.0;" x1="385.5" x2="494.5" y1="405.7344" y2="405.7344"/><text fill="#000000" font-family="sans-serif" font-size="13" lengthAdjust="spacingAndGlyphs" textLength="65" x="397.5" y="401.2295">○個組分解</text><polygon fill="#383838" points="483.5,432.0859,493.5,436.0859,483.5,440.0859,487.5,436.0859" style="stroke: #383838; stroke-width: 1.0;"/><line style="stroke: #383838; stroke-width: 1.0;" x1="375.5" x2="489.5" y1="436.0859" y2="436.0859"/><text fill="#000000" font-family="sans-serif" font-size="13" lengthAdjust="spacingAndGlyphs" textLength="78" x="382.5" y="431.5811">単体数量上書</text><polygon fill="#383838" points="51,494.4375,41,498.4375,51,502.4375,47,498.4375" style="stroke: #383838; stroke-width: 1.0;"/><line style="stroke: #383838; stroke-width: 1.0;" x1="45" x2="285" y1="498.4375" y2="498.4375"/><text fill="#000000" font-family="sans-serif" font-size="13" lengthAdjust="spacingAndGlyphs" textLength="117" x="57" y="493.9326">TextStreamingClose</text><text fill="#000000" font-family="sans-serif" font-size="11" lengthAdjust="spacingAndGlyphs" textLength="0" x="430.5" y="553.5908"/><text fill="#000000" font-family="sans-serif" font-size="28" lengthAdjust="spacingAndGlyphs" textLength="296" x="430.5" y="549.8555">アドイン 台帳作成 実行</text><text fill="#000000" font-family="sans-serif" font-size="11" lengthAdjust="spacingAndGlyphs" textLength="0" x="729.5" y="553.5908"/><polygon fill="#383838" points="598.5,572.0078,608.5,576.0078,598.5,580.0078,602.5,576.0078" style="stroke: #383838; stroke-width: 1.0;"/><line style="stroke: #383838; stroke-width: 1.0;" x1="202" x2="604.5" y1="576.0078" y2="576.0078"/><rect fill="none" height="129.0547" style="stroke: #000000; stroke-width: 2.0;" width="239" x="442" y="591.0078"/><polygon fill="#EEEEEE" points="442,591.0078,515,591.0078,515,599.0078,505,609.0078,442,609.0078,442,591.0078" style="stroke: #000000; stroke-width: 2.0;"/><text fill="#000000" font-family="sans-serif" font-size="13" font-weight="bold" lengthAdjust="spacingAndGlyphs" textLength="28" x="457" y="605.5029">loop</text><text fill="#000000" font-family="sans-serif" font-size="11" font-weight="bold" lengthAdjust="spacingAndGlyphs" textLength="140" x="530" y="604.4268">[ロケーション文字列修正]</text><polygon fill="#383838" points="598.5,652.3594,608.5,656.3594,598.5,660.3594,602.5,656.3594" style="stroke: #383838; stroke-width: 1.0;"/><line style="stroke: #383838; stroke-width: 1.0;" x1="495.5" x2="604.5" y1="656.3594" y2="656.3594"/><text fill="#000000" font-family="sans-serif" font-size="13" lengthAdjust="spacingAndGlyphs" textLength="91" x="502.5" y="651.8545">ロケ文字列取得</text><polygon fill="#383838" points="506.5,682.7109,496.5,686.7109,506.5,690.7109,502.5,686.7109" style="stroke: #383838; stroke-width: 1.0;"/><line style="stroke: #383838; stroke-width: 1.0;" x1="500.5" x2="609.5" y1="686.7109" y2="686.7109"/><text fill="#000000" font-family="sans-serif" font-size="13" lengthAdjust="spacingAndGlyphs" textLength="78" x="512.5" y="682.2061">無効ロケ削除</text><polygon fill="#383838" points="713.5,745.0625,723.5,749.0625,713.5,753.0625,717.5,749.0625" style="stroke: #383838; stroke-width: 1.0;"/><line style="stroke: #383838; stroke-width: 1.0;" x1="202" x2="719.5" y1="749.0625" y2="749.0625"/><text fill="#000000" font-family="sans-serif" font-size="13" lengthAdjust="spacingAndGlyphs" textLength="156" x="209" y="744.5576">シート作成モジュール実行</text><rect fill="none" height="627.6484" style="stroke: #000000; stroke-width: 2.0;" width="742.5" x="432" y="764.4141"/><polygon fill="#EEEEEE" points="432,764.4141,505,764.4141,505,772.4141,495,782.4141,432,782.4141,432,764.4141" style="stroke: #000000; stroke-width: 2.0;"/><text fill="#000000" font-family="sans-serif" font-size="13" font-weight="bold" lengthAdjust="spacingAndGlyphs" textLength="28" x="447" y="778.9092">loop</text><text fill="#000000" font-family="sans-serif" font-size="11" font-weight="bold" lengthAdjust="spacingAndGlyphs" textLength="86" x="520" y="777.833">[3モール分実行]</text><rect fill="none" height="260.2969" style="stroke: #000000; stroke-width: 2.0;" width="552.5" x="442" y="789.7656"/><polygon fill="#EEEEEE" points="442,789.7656,627,789.7656,627,797.7656,617,807.7656,442,807.7656,442,789.7656" style="stroke: #000000; stroke-width: 2.0;"/><text fill="#000000" font-family="sans-serif" font-size="13" font-weight="bold" lengthAdjust="spacingAndGlyphs" textLength="140" x="457" y="804.2607">ピッキングデータ作成</text><polygon fill="#383838" points="812.5,826.1172,822.5,830.1172,812.5,834.1172,816.5,830.1172" style="stroke: #383838; stroke-width: 1.0;"/><line style="stroke: #383838; stroke-width: 1.0;" x1="735.5" x2="818.5" y1="830.1172" y2="830.1172"/><text fill="#000000" font-family="sans-serif" font-size="13" lengthAdjust="spacingAndGlyphs" textLength="65" x="742.5" y="825.6123">ブック作成</text><text fill="#000000" font-family="sans-serif" font-size="14" lengthAdjust="spacingAndGlyphs" textLength="77" x="824.5" y="854.6504">Picking_2_3</text><ellipse cx="866" cy="824.1172" fill="#F8F8F8" filter="url(#fvh8ha1)" rx="12" ry="12" style="stroke: #383838; stroke-width: 2.0;"/><line style="stroke: #383838; stroke-width: 2.0;" x1="854" x2="878" y1="838.1172" y2="838.1172"/><polygon fill="#383838" points="905.5,885.7266,915.5,889.7266,905.5,893.7266,909.5,889.7266" style="stroke: #383838; stroke-width: 1.0;"/><line style="stroke: #383838; stroke-width: 1.0;" x1="735.5" x2="911.5" y1="889.7266" y2="889.7266"/><text fill="#000000" font-family="sans-serif" font-size="13" lengthAdjust="spacingAndGlyphs" textLength="65" x="742.5" y="885.2217">ブック作成</text><text fill="#000000" font-family="sans-serif" font-size="14" lengthAdjust="spacingAndGlyphs" textLength="61" x="917.5" y="914.2598">Picking_a</text><ellipse cx="951" cy="883.7266" fill="#F8F8F8" filter="url(#fvh8ha1)" rx="12" ry="12" style="stroke: #383838; stroke-width: 2.0;"/><line style="stroke: #383838; stroke-width: 2.0;" x1="939" x2="963" y1="897.7266" y2="897.7266"/><polygon fill="#383838" points="506.5,945.3359,496.5,949.3359,506.5,953.3359,502.5,949.3359" style="stroke: #383838; stroke-width: 1.0;"/><line style="stroke: #383838; stroke-width: 1.0;" x1="500.5" x2="724.5" y1="949.3359" y2="949.3359"/><text fill="#000000" font-family="sans-serif" font-size="13" lengthAdjust="spacingAndGlyphs" textLength="91" x="512.5" y="944.8311">受注データ取得</text><line style="stroke: #000000; stroke-width: 1.0; stroke-dasharray: 2.0,2.0;" x1="442" x2="994.5" y1="958.6875" y2="958.6875"/><text fill="#000000" font-family="sans-serif" font-size="11" font-weight="bold" lengthAdjust="spacingAndGlyphs" textLength="44" x="447" y="970.1064">[棚有り]</text><polygon fill="#383838" points="854,991.5234,864,995.5234,854,999.5234,858,995.5234" style="stroke: #383838; stroke-width: 1.0;"/><line style="stroke: #383838; stroke-width: 1.0;" x1="735.5" x2="860" y1="995.5234" y2="995.5234"/><text fill="#000000" font-family="sans-serif" font-size="13" lengthAdjust="spacingAndGlyphs" textLength="65" x="742.5" y="991.0186">データ転記</text><line style="stroke: #000000; stroke-width: 1.0; stroke-dasharray: 2.0,2.0;" x1="442" x2="994.5" y1="1004.875" y2="1004.875"/><text fill="#000000" font-family="sans-serif" font-size="11" font-weight="bold" lengthAdjust="spacingAndGlyphs" textLength="44" x="447" y="1016.2939">[棚無し]</text><polygon fill="#383838" points="939,1037.7109,949,1041.7109,939,1045.7109,943,1041.7109" style="stroke: #383838; stroke-width: 1.0;"/><line style="stroke: #383838; stroke-width: 1.0;" x1="735.5" x2="945" y1="1041.7109" y2="1041.7109"/><text fill="#000000" font-family="sans-serif" font-size="13" lengthAdjust="spacingAndGlyphs" textLength="65" x="742.5" y="1037.2061">データ転記</text><polygon fill="#383838" points="854,1075.0625,864,1079.0625,854,1083.0625,858,1079.0625" style="stroke: #383838; stroke-width: 1.0;"/><line style="stroke: #383838; stroke-width: 1.0;" x1="735.5" x2="860" y1="1079.0625" y2="1079.0625"/><text fill="#000000" font-family="sans-serif" font-size="13" lengthAdjust="spacingAndGlyphs" textLength="78" x="742.5" y="1074.5576">ファイル保存</text><line style="stroke: #383838; stroke-width: 2.0;" x1="857" x2="875" y1="1070.0625" y2="1088.0625"/><line style="stroke: #383838; stroke-width: 2.0;" x1="857" x2="875" y1="1088.0625" y2="1070.0625"/><polygon fill="#383838" points="939,1105.4141,949,1109.4141,939,1113.4141,943,1109.4141" style="stroke: #383838; stroke-width: 1.0;"/><line style="stroke: #383838; stroke-width: 1.0;" x1="735.5" x2="945" y1="1109.4141" y2="1109.4141"/><text fill="#000000" font-family="sans-serif" font-size="13" lengthAdjust="spacingAndGlyphs" textLength="78" x="742.5" y="1104.9092">ファイル保存</text><line style="stroke: #383838; stroke-width: 2.0;" x1="942" x2="960" y1="1100.4141" y2="1118.4141"/><line style="stroke: #383838; stroke-width: 2.0;" x1="942" x2="960" y1="1118.4141" y2="1100.4141"/><rect fill="none" height="260.2969" style="stroke: #000000; stroke-width: 2.0;" width="722.5" x="442" y="1124.7656"/><polygon fill="#EEEEEE" points="442,1124.7656,585,1124.7656,585,1132.7656,575,1142.7656,442,1142.7656,442,1124.7656" style="stroke: #000000; stroke-width: 2.0;"/><text fill="#000000" font-family="sans-serif" font-size="13" font-weight="bold" lengthAdjust="spacingAndGlyphs" textLength="98" x="457" y="1139.2607">振分シート作成</text><polygon fill="#383838" points="982.5,1161.1172,992.5,1165.1172,982.5,1169.1172,986.5,1165.1172" style="stroke: #383838; stroke-width: 1.0;"/><line style="stroke: #383838; stroke-width: 1.0;" x1="735.5" x2="988.5" y1="1165.1172" y2="1165.1172"/><text fill="#000000" font-family="sans-serif" font-size="13" lengthAdjust="spacingAndGlyphs" textLength="65" x="742.5" y="1160.6123">シート作成</text><text fill="#000000" font-family="sans-serif" font-size="14" lengthAdjust="spacingAndGlyphs" textLength="69" x="994.5" y="1189.6504">ForSorter1</text><ellipse cx="1032" cy="1159.1172" fill="#F8F8F8" filter="url(#fvh8ha1)" rx="12" ry="12" style="stroke: #383838; stroke-width: 2.0;"/><line style="stroke: #383838; stroke-width: 2.0;" x1="1020" x2="1044" y1="1173.1172" y2="1173.1172"/><polygon fill="#383838" points="1067.5,1220.7266,1077.5,1224.7266,1067.5,1228.7266,1071.5,1224.7266" style="stroke: #383838; stroke-width: 1.0;"/><line style="stroke: #383838; stroke-width: 1.0;" x1="735.5" x2="1073.5" y1="1224.7266" y2="1224.7266"/><text fill="#000000" font-family="sans-serif" font-size="13" lengthAdjust="spacingAndGlyphs" textLength="65" x="742.5" y="1220.2217">シート作成</text><text fill="#000000" font-family="sans-serif" font-size="14" lengthAdjust="spacingAndGlyphs" textLength="69" x="1079.5" y="1249.2598">ForSorter2</text><ellipse cx="1117" cy="1218.7266" fill="#F8F8F8" filter="url(#fvh8ha1)" rx="12" ry="12" style="stroke: #383838; stroke-width: 2.0;"/><line style="stroke: #383838; stroke-width: 2.0;" x1="1105" x2="1129" y1="1232.7266" y2="1232.7266"/><polygon fill="#383838" points="506.5,1280.3359,496.5,1284.3359,506.5,1288.3359,502.5,1284.3359" style="stroke: #383838; stroke-width: 1.0;"/><line style="stroke: #383838; stroke-width: 1.0;" x1="500.5" x2="724.5" y1="1284.3359" y2="1284.3359"/><text fill="#000000" font-family="sans-serif" font-size="13" lengthAdjust="spacingAndGlyphs" textLength="91" x="512.5" y="1279.8311">受注データ取得</text><line style="stroke: #000000; stroke-width: 1.0; stroke-dasharray: 2.0,2.0;" x1="442" x2="1164.5" y1="1293.6875" y2="1293.6875"/><text fill="#000000" font-family="sans-serif" font-size="11" font-weight="bold" lengthAdjust="spacingAndGlyphs" textLength="68" x="447" y="1305.1064">[単体受注品]</text><polygon fill="#383838" points="1020,1326.5234,1030,1330.5234,1020,1334.5234,1024,1330.5234" style="stroke: #383838; stroke-width: 1.0;"/><line style="stroke: #383838; stroke-width: 1.0;" x1="735.5" x2="1026" y1="1330.5234" y2="1330.5234"/><text fill="#000000" font-family="sans-serif" font-size="13" lengthAdjust="spacingAndGlyphs" textLength="91" x="742.5" y="1326.0186">受注データ転記</text><line style="stroke: #000000; stroke-width: 1.0; stroke-dasharray: 2.0,2.0;" x1="442" x2="1164.5" y1="1339.875" y2="1339.875"/><text fill="#000000" font-family="sans-serif" font-size="11" font-weight="bold" lengthAdjust="spacingAndGlyphs" textLength="68" x="447" y="1351.2939">[セット商品]</text><polygon fill="#383838" points="1105,1372.7109,1115,1376.7109,1105,1380.7109,1109,1376.7109" style="stroke: #383838; stroke-width: 1.0;"/><line style="stroke: #383838; stroke-width: 1.0;" x1="735.5" x2="1111" y1="1376.7109" y2="1376.7109"/><text fill="#000000" font-family="sans-serif" font-size="13" lengthAdjust="spacingAndGlyphs" textLength="91" x="742.5" y="1372.2061">受注データ転記</text><polygon fill="#383838" points="1020,1417.0625,1030,1421.0625,1020,1425.0625,1024,1421.0625" style="stroke: #383838; stroke-width: 1.0;"/><line style="stroke: #383838; stroke-width: 1.0; stroke-dasharray: 2.0,2.0;" x1="202" x2="1026" y1="1421.0625" y2="1421.0625"/><text fill="#000000" font-family="sans-serif" font-size="13" lengthAdjust="spacingAndGlyphs" textLength="79" x="209" y="1416.5576">VBA:PrintOut</text><polygon fill="#383838" points="1105,1447.4141,1115,1451.4141,1105,1455.4141,1109,1451.4141" style="stroke: #383838; stroke-width: 1.0;"/><line style="stroke: #383838; stroke-width: 1.0; stroke-dasharray: 2.0,2.0;" x1="197" x2="1111" y1="1451.4141" y2="1451.4141"/><text fill="#000000" font-family="sans-serif" font-size="13" lengthAdjust="spacingAndGlyphs" textLength="79" x="204" y="1446.9092">VBA:PrintOut</text></g></svg>