<?xml version="1.0" encoding="UTF-8" standalone="no"?><svg xmlns="http://www.w3.org/2000/svg" xmlns:xlink="http://www.w3.org/1999/xlink" contentScriptType="application/ecmascript" contentStyleType="text/css" height="750px" preserveAspectRatio="none" style="width:1557px;height:750px;" version="1.1" viewBox="0 0 1557 750" width="1557px" zoomAndPan="magnify"><defs><filter height="300%" id="fb81au6" width="300%" x="-1" y="-1"><feGaussianBlur result="blurOut" stdDeviation="2.0"/><feColorMatrix in="blurOut" result="blurOut2" type="matrix" values="0 0 0 0 0 0 0 0 0 0 0 0 0 0 0 0 0 0 .4 0"/><feOffset dx="4.0" dy="4.0" in="blurOut2" result="blurOut3"/><feBlend in="SourceGraphic" in2="blurOut3" mode="normal"/></filter></defs><g><text fill="#000000" font-family="sans-serif" font-size="14" font-weight="bold" lengthAdjust="spacingAndGlyphs" textLength="135" x="713.25" y="24.5332">商品発注、入荷検品</text><rect fill="#FFFFFF" height="712.1953" style="stroke: #383838; stroke-width: 1.0;" width="138" x="675.5" y="35.6094"/><text fill="#000000" font-family="sans-serif" font-size="13" font-weight="bold" lengthAdjust="spacingAndGlyphs" textLength="42" x="723.5" y="49.1045">電算室</text><rect fill="#FFFFFF" height="712.1953" style="stroke: #383838; stroke-width: 1.0;" width="223" x="962.5" y="35.6094"/><text fill="#000000" font-family="sans-serif" font-size="13" font-weight="bold" lengthAdjust="spacingAndGlyphs" textLength="42" x="1053" y="49.1045">商品部</text><rect fill="#FFFFFF" height="712.1953" style="stroke: #383838; stroke-width: 1.0;" width="186" x="1297.5" y="35.6094"/><text fill="#000000" font-family="sans-serif" font-size="13" font-weight="bold" lengthAdjust="spacingAndGlyphs" textLength="42" x="1369.5" y="49.1045">管理部</text><line style="stroke: #383838; stroke-width: 1.0; stroke-dasharray: 5.0,5.0;" x1="61" x2="61" y1="119.5703" y2="681.1953"/><line style="stroke: #383838; stroke-width: 1.0; stroke-dasharray: 5.0,5.0;" x1="167" x2="167" y1="119.5703" y2="681.1953"/><line style="stroke: #383838; stroke-width: 1.0; stroke-dasharray: 5.0,5.0;" x1="269" x2="269" y1="119.5703" y2="681.1953"/><line style="stroke: #383838; stroke-width: 1.0; stroke-dasharray: 5.0,5.0;" x1="382" x2="382" y1="119.5703" y2="681.1953"/><line style="stroke: #383838; stroke-width: 1.0; stroke-dasharray: 5.0,5.0;" x1="497.5" x2="497.5" y1="119.5703" y2="681.1953"/><line style="stroke: #383838; stroke-width: 1.0; stroke-dasharray: 5.0,5.0;" x1="610.5" x2="610.5" y1="119.5703" y2="681.1953"/><line style="stroke: #383838; stroke-width: 1.0; stroke-dasharray: 5.0,5.0;" x1="744.5" x2="744.5" y1="119.5703" y2="681.1953"/><line style="stroke: #383838; stroke-width: 1.0; stroke-dasharray: 5.0,5.0;" x1="911.5" x2="911.5" y1="119.5703" y2="681.1953"/><line style="stroke: #383838; stroke-width: 1.0; stroke-dasharray: 5.0,5.0;" x1="1003.5" x2="1003.5" y1="119.5703" y2="681.1953"/><line style="stroke: #383838; stroke-width: 1.0; stroke-dasharray: 5.0,5.0;" x1="1105.5" x2="1105.5" y1="119.5703" y2="681.1953"/><line style="stroke: #383838; stroke-width: 1.0; stroke-dasharray: 5.0,5.0;" x1="1157.5" x2="1157.5" y1="119.5703" y2="681.1953"/><line style="stroke: #383838; stroke-width: 1.0; stroke-dasharray: 5.0,5.0;" x1="1246.5" x2="1246.5" y1="119.5703" y2="681.1953"/><line style="stroke: #383838; stroke-width: 1.0; stroke-dasharray: 5.0,5.0;" x1="1324.5" x2="1324.5" y1="119.5703" y2="681.1953"/><line style="stroke: #383838; stroke-width: 1.0; stroke-dasharray: 5.0,5.0;" x1="1400.5" x2="1400.5" y1="119.5703" y2="681.1953"/><line style="stroke: #383838; stroke-width: 1.0; stroke-dasharray: 5.0,5.0;" x1="1456.5" x2="1456.5" y1="119.5703" y2="681.1953"/><line style="stroke: #383838; stroke-width: 1.0; stroke-dasharray: 5.0,5.0;" x1="1519.5" x2="1519.5" y1="119.5703" y2="681.1953"/><text fill="#000000" font-family="sans-serif" font-size="14" lengthAdjust="spacingAndGlyphs" textLength="101" x="8" y="116.4941">AmazonPシート</text><ellipse cx="61.5" cy="85.9609" fill="#F8F8F8" filter="url(#fb81au6)" rx="12" ry="12" style="stroke: #383838; stroke-width: 2.0;"/><line style="stroke: #383838; stroke-width: 2.0;" x1="49.5" x2="73.5" y1="99.9609" y2="99.9609"/><text fill="#000000" font-family="sans-serif" font-size="14" lengthAdjust="spacingAndGlyphs" textLength="101" x="8" y="694.7285">AmazonPシート</text><ellipse cx="61.5" cy="713.8047" fill="#F8F8F8" filter="url(#fb81au6)" rx="12" ry="12" style="stroke: #383838; stroke-width: 2.0;"/><line style="stroke: #383838; stroke-width: 2.0;" x1="49.5" x2="73.5" y1="727.8047" y2="727.8047"/><text fill="#000000" font-family="sans-serif" font-size="14" lengthAdjust="spacingAndGlyphs" textLength="79" x="125" y="116.4941">楽天Pシート</text><ellipse cx="167.5" cy="85.9609" fill="#F8F8F8" filter="url(#fb81au6)" rx="12" ry="12" style="stroke: #383838; stroke-width: 2.0;"/><line style="stroke: #383838; stroke-width: 2.0;" x1="155.5" x2="179.5" y1="99.9609" y2="99.9609"/><text fill="#000000" font-family="sans-serif" font-size="14" lengthAdjust="spacingAndGlyphs" textLength="79" x="125" y="694.7285">楽天Pシート</text><ellipse cx="167.5" cy="713.8047" fill="#F8F8F8" filter="url(#fb81au6)" rx="12" ry="12" style="stroke: #383838; stroke-width: 2.0;"/><line style="stroke: #383838; stroke-width: 2.0;" x1="155.5" x2="179.5" y1="727.8047" y2="727.8047"/><text fill="#000000" font-family="sans-serif" font-size="14" lengthAdjust="spacingAndGlyphs" textLength="93" x="220" y="116.4941">ヤフーPシート</text><ellipse cx="269.5" cy="85.9609" fill="#F8F8F8" filter="url(#fb81au6)" rx="12" ry="12" style="stroke: #383838; stroke-width: 2.0;"/><line style="stroke: #383838; stroke-width: 2.0;" x1="257.5" x2="281.5" y1="99.9609" y2="99.9609"/><text fill="#000000" font-family="sans-serif" font-size="14" lengthAdjust="spacingAndGlyphs" textLength="93" x="220" y="694.7285">ヤフーPシート</text><ellipse cx="269.5" cy="713.8047" fill="#F8F8F8" filter="url(#fb81au6)" rx="12" ry="12" style="stroke: #383838; stroke-width: 2.0;"/><line style="stroke: #383838; stroke-width: 2.0;" x1="257.5" x2="281.5" y1="727.8047" y2="727.8047"/><text fill="#000000" font-family="sans-serif" font-size="14" lengthAdjust="spacingAndGlyphs" textLength="101" x="329" y="116.4941">手配書作成.xlsm</text><path d="M362,73.9609 L362,97.9609 M362,85.9609 L379,85.9609 " fill="#F8F8F8" filter="url(#fb81au6)" style="stroke: #383838; stroke-width: 2.0;"/><ellipse cx="391" cy="85.9609" fill="#F8F8F8" filter="url(#fb81au6)" rx="12" ry="12" style="stroke: #383838; stroke-width: 2.0;"/><text fill="#000000" font-family="sans-serif" font-size="14" lengthAdjust="spacingAndGlyphs" textLength="101" x="329" y="694.7285">手配書作成.xlsm</text><path d="M362,701.8047 L362,725.8047 M362,713.8047 L379,713.8047 " fill="#F8F8F8" filter="url(#fb81au6)" style="stroke: #383838; stroke-width: 2.0;"/><ellipse cx="391" cy="713.8047" fill="#F8F8F8" filter="url(#fb81au6)" rx="12" ry="12" style="stroke: #383838; stroke-width: 2.0;"/><text fill="#000000" font-family="sans-serif" font-size="14" lengthAdjust="spacingAndGlyphs" textLength="82" x="453.5" y="116.4941">FAX用手配書</text><ellipse cx="497.5" cy="85.9609" fill="#F8F8F8" filter="url(#fb81au6)" rx="12" ry="12" style="stroke: #383838; stroke-width: 2.0;"/><line style="stroke: #383838; stroke-width: 2.0;" x1="485.5" x2="509.5" y1="99.9609" y2="99.9609"/><text fill="#000000" font-family="sans-serif" font-size="14" lengthAdjust="spacingAndGlyphs" textLength="82" x="453.5" y="694.7285">FAX用手配書</text><ellipse cx="497.5" cy="713.8047" fill="#F8F8F8" filter="url(#fb81au6)" rx="12" ry="12" style="stroke: #383838; stroke-width: 2.0;"/><line style="stroke: #383838; stroke-width: 2.0;" x1="485.5" x2="509.5" y1="727.8047" y2="727.8047"/><text fill="#000000" font-family="sans-serif" font-size="14" lengthAdjust="spacingAndGlyphs" textLength="112" x="551.5" y="116.4941">センター用手配書</text><ellipse cx="610.5" cy="85.9609" fill="#F8F8F8" filter="url(#fb81au6)" rx="12" ry="12" style="stroke: #383838; stroke-width: 2.0;"/><line style="stroke: #383838; stroke-width: 2.0;" x1="598.5" x2="622.5" y1="99.9609" y2="99.9609"/><text fill="#000000" font-family="sans-serif" font-size="14" lengthAdjust="spacingAndGlyphs" textLength="112" x="551.5" y="694.7285">センター用手配書</text><ellipse cx="610.5" cy="713.8047" fill="#F8F8F8" filter="url(#fb81au6)" rx="12" ry="12" style="stroke: #383838; stroke-width: 2.0;"/><line style="stroke: #383838; stroke-width: 2.0;" x1="598.5" x2="622.5" y1="727.8047" y2="727.8047"/><rect fill="#F8F8F8" filter="url(#fb81au6)" height="31.6094" style="stroke: #383838; stroke-width: 1.5;" width="126" x="679.5" y="82.9609"/><text fill="#000000" font-family="sans-serif" font-size="14" lengthAdjust="spacingAndGlyphs" textLength="112" x="686.5" y="104.4941">在庫マスター確認</text><rect fill="#F8F8F8" filter="url(#fb81au6)" height="31.6094" style="stroke: #383838; stroke-width: 1.5;" width="126" x="679.5" y="680.1953"/><text fill="#000000" font-family="sans-serif" font-size="14" lengthAdjust="spacingAndGlyphs" textLength="112" x="686.5" y="701.7285">在庫マスター確認</text><text fill="#000000" font-family="sans-serif" font-size="14" lengthAdjust="spacingAndGlyphs" textLength="84" x="866.5" y="116.4941">在庫マスター</text><path d="M893.5,65.9609 C893.5,55.9609 911.5,55.9609 911.5,55.9609 C911.5,55.9609 929.5,55.9609 929.5,65.9609 L929.5,91.9609 C929.5,101.9609 911.5,101.9609 911.5,101.9609 C911.5,101.9609 893.5,101.9609 893.5,91.9609 L893.5,65.9609 " fill="#F8F8F8" filter="url(#fb81au6)" style="stroke: #000000; stroke-width: 1.5;"/><path d="M893.5,65.9609 C893.5,75.9609 911.5,75.9609 911.5,75.9609 C911.5,75.9609 929.5,75.9609 929.5,65.9609 " fill="none" style="stroke: #000000; stroke-width: 1.5;"/><text fill="#000000" font-family="sans-serif" font-size="14" lengthAdjust="spacingAndGlyphs" textLength="84" x="866.5" y="694.7285">在庫マスター</text><path d="M893.5,707.8047 C893.5,697.8047 911.5,697.8047 911.5,697.8047 C911.5,697.8047 929.5,697.8047 929.5,707.8047 L929.5,733.8047 C929.5,743.8047 911.5,743.8047 911.5,743.8047 C911.5,743.8047 893.5,743.8047 893.5,733.8047 L893.5,707.8047 " fill="#F8F8F8" filter="url(#fb81au6)" style="stroke: #000000; stroke-width: 1.5;"/><path d="M893.5,707.8047 C893.5,717.8047 911.5,717.8047 911.5,717.8047 C911.5,717.8047 929.5,717.8047 929.5,707.8047 " fill="none" style="stroke: #000000; stroke-width: 1.5;"/><rect fill="#F8F8F8" filter="url(#fb81au6)" height="31.6094" style="stroke: #383838; stroke-width: 1.5;" width="70" x="966.5" y="82.9609"/><text fill="#000000" font-family="sans-serif" font-size="14" lengthAdjust="spacingAndGlyphs" textLength="56" x="973.5" y="104.4941">発注入力</text><rect fill="#F8F8F8" filter="url(#fb81au6)" height="31.6094" style="stroke: #383838; stroke-width: 1.5;" width="70" x="966.5" y="680.1953"/><text fill="#000000" font-family="sans-serif" font-size="14" lengthAdjust="spacingAndGlyphs" textLength="56" x="973.5" y="701.7285">発注入力</text><text fill="#000000" font-family="sans-serif" font-size="14" lengthAdjust="spacingAndGlyphs" textLength="28" x="1088.5" y="116.4941">商魂</text><path d="M1087.5,65.9609 C1087.5,55.9609 1105.5,55.9609 1105.5,55.9609 C1105.5,55.9609 1123.5,55.9609 1123.5,65.9609 L1123.5,91.9609 C1123.5,101.9609 1105.5,101.9609 1105.5,101.9609 C1105.5,101.9609 1087.5,101.9609 1087.5,91.9609 L1087.5,65.9609 " fill="#F8F8F8" filter="url(#fb81au6)" style="stroke: #000000; stroke-width: 1.5;"/><path d="M1087.5,65.9609 C1087.5,75.9609 1105.5,75.9609 1105.5,75.9609 C1105.5,75.9609 1123.5,75.9609 1123.5,65.9609 " fill="none" style="stroke: #000000; stroke-width: 1.5;"/><text fill="#000000" font-family="sans-serif" font-size="14" lengthAdjust="spacingAndGlyphs" textLength="28" x="1088.5" y="694.7285">商魂</text><path d="M1087.5,707.8047 C1087.5,697.8047 1105.5,697.8047 1105.5,697.8047 C1105.5,697.8047 1123.5,697.8047 1123.5,707.8047 L1123.5,733.8047 C1123.5,743.8047 1105.5,743.8047 1105.5,743.8047 C1105.5,743.8047 1087.5,743.8047 1087.5,733.8047 L1087.5,707.8047 " fill="#F8F8F8" filter="url(#fb81au6)" style="stroke: #000000; stroke-width: 1.5;"/><path d="M1087.5,707.8047 C1087.5,717.8047 1105.5,717.8047 1105.5,717.8047 C1105.5,717.8047 1123.5,717.8047 1123.5,707.8047 " fill="none" style="stroke: #000000; stroke-width: 1.5;"/><text fill="#000000" font-family="sans-serif" font-size="14" lengthAdjust="spacingAndGlyphs" textLength="42" x="1133.5" y="116.4941">当社伝</text><ellipse cx="1157.5" cy="85.9609" fill="#F8F8F8" filter="url(#fb81au6)" rx="12" ry="12" style="stroke: #383838; stroke-width: 2.0;"/><line style="stroke: #383838; stroke-width: 2.0;" x1="1145.5" x2="1169.5" y1="99.9609" y2="99.9609"/><text fill="#000000" font-family="sans-serif" font-size="14" lengthAdjust="spacingAndGlyphs" textLength="42" x="1133.5" y="694.7285">当社伝</text><ellipse cx="1157.5" cy="713.8047" fill="#F8F8F8" filter="url(#fb81au6)" rx="12" ry="12" style="stroke: #383838; stroke-width: 2.0;"/><line style="stroke: #383838; stroke-width: 2.0;" x1="1145.5" x2="1169.5" y1="727.8047" y2="727.8047"/><text fill="#000000" font-family="sans-serif" font-size="14" lengthAdjust="spacingAndGlyphs" textLength="84" x="1201.5" y="116.4941">入庫マスター</text><path d="M1228.5,65.9609 C1228.5,55.9609 1246.5,55.9609 1246.5,55.9609 C1246.5,55.9609 1264.5,55.9609 1264.5,65.9609 L1264.5,91.9609 C1264.5,101.9609 1246.5,101.9609 1246.5,101.9609 C1246.5,101.9609 1228.5,101.9609 1228.5,91.9609 L1228.5,65.9609 " fill="#F8F8F8" filter="url(#fb81au6)" style="stroke: #000000; stroke-width: 1.5;"/><path d="M1228.5,65.9609 C1228.5,75.9609 1246.5,75.9609 1246.5,75.9609 C1246.5,75.9609 1264.5,75.9609 1264.5,65.9609 " fill="none" style="stroke: #000000; stroke-width: 1.5;"/><text fill="#000000" font-family="sans-serif" font-size="14" lengthAdjust="spacingAndGlyphs" textLength="84" x="1201.5" y="694.7285">入庫マスター</text><path d="M1228.5,707.8047 C1228.5,697.8047 1246.5,697.8047 1246.5,697.8047 C1246.5,697.8047 1264.5,697.8047 1264.5,707.8047 L1264.5,733.8047 C1264.5,743.8047 1246.5,743.8047 1246.5,743.8047 C1246.5,743.8047 1228.5,743.8047 1228.5,733.8047 L1228.5,707.8047 " fill="#F8F8F8" filter="url(#fb81au6)" style="stroke: #000000; stroke-width: 1.5;"/><path d="M1228.5,707.8047 C1228.5,717.8047 1246.5,717.8047 1246.5,717.8047 C1246.5,717.8047 1264.5,717.8047 1264.5,707.8047 " fill="none" style="stroke: #000000; stroke-width: 1.5;"/><rect fill="#F8F8F8" filter="url(#fb81au6)" height="31.6094" style="stroke: #383838; stroke-width: 1.5;" width="42" x="1301.5" y="82.9609"/><text fill="#000000" font-family="sans-serif" font-size="14" lengthAdjust="spacingAndGlyphs" textLength="28" x="1308.5" y="104.4941">引取</text><rect fill="#F8F8F8" filter="url(#fb81au6)" height="31.6094" style="stroke: #383838; stroke-width: 1.5;" width="42" x="1301.5" y="680.1953"/><text fill="#000000" font-family="sans-serif" font-size="14" lengthAdjust="spacingAndGlyphs" textLength="28" x="1308.5" y="701.7285">引取</text><rect fill="#F8F8F8" filter="url(#fb81au6)" height="31.6094" style="stroke: #383838; stroke-width: 1.5;" width="42" x="1377.5" y="82.9609"/><text fill="#000000" font-family="sans-serif" font-size="14" lengthAdjust="spacingAndGlyphs" textLength="28" x="1384.5" y="104.4941">荷受</text><rect fill="#F8F8F8" filter="url(#fb81au6)" height="31.6094" style="stroke: #383838; stroke-width: 1.5;" width="42" x="1377.5" y="680.1953"/><text fill="#000000" font-family="sans-serif" font-size="14" lengthAdjust="spacingAndGlyphs" textLength="28" x="1384.5" y="701.7285">荷受</text><rect fill="#F8F8F8" filter="url(#fb81au6)" height="31.6094" style="stroke: #383838; stroke-width: 1.5;" width="42" x="1433.5" y="82.9609"/><text fill="#000000" font-family="sans-serif" font-size="14" lengthAdjust="spacingAndGlyphs" textLength="28" x="1440.5" y="104.4941">検品</text><rect fill="#F8F8F8" filter="url(#fb81au6)" height="31.6094" style="stroke: #383838; stroke-width: 1.5;" width="42" x="1433.5" y="680.1953"/><text fill="#000000" font-family="sans-serif" font-size="14" lengthAdjust="spacingAndGlyphs" textLength="28" x="1440.5" y="701.7285">検品</text><rect fill="#F8F8F8" filter="url(#fb81au6)" height="31.6094" style="stroke: #383838; stroke-width: 1.5;" width="56" x="1489.5" y="82.9609"/><text fill="#000000" font-family="sans-serif" font-size="14" lengthAdjust="spacingAndGlyphs" textLength="42" x="1496.5" y="104.4941">仕入先</text><rect fill="#F8F8F8" filter="url(#fb81au6)" height="31.6094" style="stroke: #383838; stroke-width: 1.5;" width="56" x="1489.5" y="680.1953"/><text fill="#000000" font-family="sans-serif" font-size="14" lengthAdjust="spacingAndGlyphs" textLength="42" x="1496.5" y="701.7285">仕入先</text><polygon fill="#383838" points="370.5,131.5703,380.5,135.5703,370.5,139.5703,374.5,135.5703" style="stroke: #383838; stroke-width: 1.0;"/><line style="stroke: #383838; stroke-width: 1.0;" x1="61.5" x2="376.5" y1="135.5703" y2="135.5703"/><polygon fill="#383838" points="370.5,145.5703,380.5,149.5703,370.5,153.5703,374.5,149.5703" style="stroke: #383838; stroke-width: 1.0;"/><line style="stroke: #383838; stroke-width: 1.0;" x1="167.5" x2="376.5" y1="149.5703" y2="149.5703"/><polygon fill="#383838" points="370.5,159.5703,380.5,163.5703,370.5,167.5703,374.5,163.5703" style="stroke: #383838; stroke-width: 1.0;"/><line style="stroke: #383838; stroke-width: 1.0;" x1="269.5" x2="376.5" y1="163.5703" y2="163.5703"/><polygon fill="#383838" points="485.5,189.5703,495.5,193.5703,485.5,197.5703,489.5,193.5703" style="stroke: #383838; stroke-width: 1.0;"/><line style="stroke: #383838; stroke-width: 1.0;" x1="382.5" x2="491.5" y1="193.5703" y2="193.5703"/><text fill="#000000" font-family="sans-serif" font-size="13" lengthAdjust="spacingAndGlyphs" textLength="91" x="389.5" y="189.0654">プリントアウト</text><polygon fill="#383838" points="598.5,219.9219,608.5,223.9219,598.5,227.9219,602.5,223.9219" style="stroke: #383838; stroke-width: 1.0;"/><line style="stroke: #383838; stroke-width: 1.0;" x1="382.5" x2="604.5" y1="223.9219" y2="223.9219"/><text fill="#000000" font-family="sans-serif" font-size="13" lengthAdjust="spacingAndGlyphs" textLength="91" x="389.5" y="219.417">プリントアウト</text><polygon fill="#383838" points="1507.5,234.2734,1517.5,238.2734,1507.5,242.2734,1511.5,238.2734" style="stroke: #383838; stroke-width: 1.0;"/><line style="stroke: #383838; stroke-width: 1.0;" x1="497.5" x2="1513.5" y1="238.2734" y2="238.2734"/><polygon fill="#383838" points="732.5,264.2734,742.5,268.2734,732.5,272.2734,736.5,268.2734" style="stroke: #383838; stroke-width: 1.0;"/><line style="stroke: #383838; stroke-width: 1.0;" x1="610.5" x2="738.5" y1="268.2734" y2="268.2734"/><text fill="#000000" font-family="sans-serif" font-size="13" lengthAdjust="spacingAndGlyphs" textLength="69" x="617.5" y="263.7686">電算室 提出</text><polygon fill="#383838" points="899.5,294.625,909.5,298.625,899.5,302.625,903.5,298.625" style="stroke: #383838; stroke-width: 1.0;"/><line style="stroke: #383838; stroke-width: 1.0; stroke-dasharray: 2.0,2.0;" x1="744.5" x2="905.5" y1="298.625" y2="298.625"/><text fill="#000000" font-family="sans-serif" font-size="13" lengthAdjust="spacingAndGlyphs" textLength="104" x="751.5" y="294.1201">在庫マスター確認</text><polygon fill="#383838" points="899.5,324.9766,909.5,328.9766,899.5,332.9766,903.5,328.9766" style="stroke: #383838; stroke-width: 1.0;"/><line style="stroke: #383838; stroke-width: 1.0;" x1="744.5" x2="905.5" y1="328.9766" y2="328.9766"/><text fill="#000000" font-family="sans-serif" font-size="13" lengthAdjust="spacingAndGlyphs" textLength="143" x="751.5" y="324.4717">マスターにない場合登録</text><polygon fill="#383838" points="991.5,355.3281,1001.5,359.3281,991.5,363.3281,995.5,359.3281" style="stroke: #383838; stroke-width: 1.0;"/><line style="stroke: #383838; stroke-width: 1.0;" x1="744.5" x2="997.5" y1="359.3281" y2="359.3281"/><text fill="#000000" font-family="sans-serif" font-size="13" lengthAdjust="spacingAndGlyphs" textLength="130" x="751.5" y="354.8232">発注担当へ手配書渡す</text><polygon fill="#383838" points="1093.5,385.6797,1103.5,389.6797,1093.5,393.6797,1097.5,389.6797" style="stroke: #383838; stroke-width: 1.0;"/><line style="stroke: #383838; stroke-width: 1.0;" x1="1003.5" x2="1099.5" y1="389.6797" y2="389.6797"/><text fill="#000000" font-family="sans-serif" font-size="13" lengthAdjust="spacingAndGlyphs" textLength="78" x="1010.5" y="385.1748">発注履歴登録</text><polygon fill="#383838" points="1145.5,416.0313,1155.5,420.0313,1145.5,424.0313,1149.5,420.0313" style="stroke: #383838; stroke-width: 1.0;"/><line style="stroke: #383838; stroke-width: 1.0;" x1="1003.5" x2="1151.5" y1="420.0313" y2="420.0313"/><text fill="#000000" font-family="sans-serif" font-size="13" lengthAdjust="spacingAndGlyphs" textLength="26" x="1010.5" y="415.5264">起票</text><polygon fill="#383838" points="1234.5,446.3828,1244.5,450.3828,1234.5,454.3828,1238.5,450.3828" style="stroke: #383838; stroke-width: 1.0;"/><line style="stroke: #383838; stroke-width: 1.0;" x1="1105.5" x2="1240.5" y1="450.3828" y2="450.3828"/><text fill="#000000" font-family="sans-serif" font-size="13" lengthAdjust="spacingAndGlyphs" textLength="117" x="1112.5" y="445.8779">入庫待ちデータ作成</text><polygon fill="#383838" points="1312.5,476.7344,1322.5,480.7344,1312.5,484.7344,1316.5,480.7344" style="stroke: #383838; stroke-width: 1.0;"/><line style="stroke: #383838; stroke-width: 1.0;" x1="1003.5" x2="1318.5" y1="480.7344" y2="480.7344"/><text fill="#000000" font-family="sans-serif" font-size="13" lengthAdjust="spacingAndGlyphs" textLength="104" x="1010.5" y="476.2295">引取依頼、当社伝</text><polygon fill="#383838" points="1388.5,507.0859,1398.5,511.0859,1388.5,515.0859,1392.5,511.0859" style="stroke: #383838; stroke-width: 1.0;"/><line style="stroke: #383838; stroke-width: 1.0;" x1="1324.5" x2="1394.5" y1="511.0859" y2="511.0859"/><text fill="#000000" font-family="sans-serif" font-size="13" lengthAdjust="spacingAndGlyphs" textLength="52" x="1331.5" y="506.5811">商品引取</text><polygon fill="#383838" points="1411.5,537.4375,1401.5,541.4375,1411.5,545.4375,1407.5,541.4375" style="stroke: #383838; stroke-width: 1.0;"/><line style="stroke: #383838; stroke-width: 1.0;" x1="1405.5" x2="1518.5" y1="541.4375" y2="541.4375"/><text fill="#000000" font-family="sans-serif" font-size="13" lengthAdjust="spacingAndGlyphs" textLength="52" x="1417.5" y="536.9326">商品出荷</text><polygon fill="#383838" points="1444.5,567.7891,1454.5,571.7891,1444.5,575.7891,1448.5,571.7891" style="stroke: #383838; stroke-width: 1.0;"/><line style="stroke: #383838; stroke-width: 1.0;" x1="1400.5" x2="1450.5" y1="571.7891" y2="571.7891"/><text fill="#000000" font-family="sans-serif" font-size="13" lengthAdjust="spacingAndGlyphs" textLength="26" x="1407.5" y="567.2842">商品</text><polygon fill="#383838" points="1257.5,598.1406,1247.5,602.1406,1257.5,606.1406,1253.5,602.1406" style="stroke: #383838; stroke-width: 1.0;"/><line style="stroke: #383838; stroke-width: 1.0;" x1="1251.5" x2="1455.5" y1="602.1406" y2="602.1406"/><text fill="#000000" font-family="sans-serif" font-size="13" lengthAdjust="spacingAndGlyphs" textLength="91" x="1263.5" y="597.6357">商品、数量確認</text><polygon fill="#383838" points="1546.5,628.4922,1556.5,632.4922,1546.5,636.4922,1550.5,632.4922" style="stroke: #383838; stroke-width: 1.0;"/><line style="stroke: #383838; stroke-width: 1.0;" x1="1456.5" x2="1552.5" y1="632.4922" y2="632.4922"/><text fill="#000000" font-family="sans-serif" font-size="13" lengthAdjust="spacingAndGlyphs" textLength="78" x="1463.5" y="627.9873">格納＆棚積み</text><polygon fill="#383838" points="1116.5,658.8438,1106.5,662.8438,1116.5,666.8438,1112.5,662.8438" style="stroke: #383838; stroke-width: 1.0;"/><line style="stroke: #383838; stroke-width: 1.0;" x1="1110.5" x2="1245.5" y1="662.8438" y2="662.8438"/><text fill="#000000" font-family="sans-serif" font-size="13" lengthAdjust="spacingAndGlyphs" textLength="52" x="1122.5" y="658.3389">仕入計上</text></g></svg>