<?xml version="1.0" encoding="UTF-8" standalone="no"?><svg xmlns="http://www.w3.org/2000/svg" xmlns:xlink="http://www.w3.org/1999/xlink" contentScriptType="application/ecmascript" contentStyleType="text/css" height="553px" preserveAspectRatio="none" style="width:1231px;height:553px;" version="1.1" viewBox="0 0 1231 553" width="1231px" zoomAndPan="magnify"><defs><filter height="300%" id="f5b5znp" width="300%" x="-1" y="-1"><feGaussianBlur result="blurOut" stdDeviation="2.0"/><feColorMatrix in="blurOut" result="blurOut2" type="matrix" values="0 0 0 0 0 0 0 0 0 0 0 0 0 0 0 0 0 0 .4 0"/><feOffset dx="4.0" dy="4.0" in="blurOut2" result="blurOut3"/><feBlend in="SourceGraphic" in2="blurOut3" mode="normal"/></filter></defs><g><text fill="#000000" font-family="sans-serif" font-size="14" font-weight="bold" lengthAdjust="spacingAndGlyphs" textLength="75" x="579.5" y="24.5332">手配の流れ</text><line style="stroke: #383838; stroke-width: 1.0; stroke-dasharray: 5.0,5.0;" x1="127" x2="127" y1="71.2188" y2="513.7891"/><line style="stroke: #383838; stroke-width: 1.0; stroke-dasharray: 5.0,5.0;" x1="261" x2="261" y1="71.2188" y2="513.7891"/><line style="stroke: #383838; stroke-width: 1.0; stroke-dasharray: 5.0,5.0;" x1="381" x2="381" y1="71.2188" y2="513.7891"/><line style="stroke: #383838; stroke-width: 1.0; stroke-dasharray: 5.0,5.0;" x1="506" x2="506" y1="71.2188" y2="513.7891"/><line style="stroke: #383838; stroke-width: 1.0; stroke-dasharray: 5.0,5.0;" x1="611" x2="611" y1="71.2188" y2="513.7891"/><line style="stroke: #383838; stroke-width: 1.0; stroke-dasharray: 5.0,5.0;" x1="716" x2="716" y1="71.2188" y2="513.7891"/><line style="stroke: #383838; stroke-width: 1.0; stroke-dasharray: 5.0,5.0;" x1="835" x2="835" y1="71.2188" y2="513.7891"/><line style="stroke: #383838; stroke-width: 1.0; stroke-dasharray: 5.0,5.0;" x1="937" x2="937" y1="71.2188" y2="513.7891"/><line style="stroke: #383838; stroke-width: 1.0; stroke-dasharray: 5.0,5.0;" x1="1007" x2="1007" y1="71.2188" y2="513.7891"/><line style="stroke: #383838; stroke-width: 1.0; stroke-dasharray: 5.0,5.0;" x1="1105" x2="1105" y1="71.2188" y2="513.7891"/><line style="stroke: #383838; stroke-width: 1.0; stroke-dasharray: 5.0,5.0;" x1="1196" x2="1196" y1="71.2188" y2="513.7891"/><rect fill="#F8F8F8" filter="url(#f5b5znp)" height="31.6094" style="stroke: #383838; stroke-width: 1.5;" width="126" x="62" y="34.6094"/><text fill="#000000" font-family="sans-serif" font-size="14" lengthAdjust="spacingAndGlyphs" textLength="112" x="69" y="56.1426">手配商品チェック</text><rect fill="#F8F8F8" filter="url(#f5b5znp)" height="31.6094" style="stroke: #383838; stroke-width: 1.5;" width="126" x="62" y="512.7891"/><text fill="#000000" font-family="sans-serif" font-size="14" lengthAdjust="spacingAndGlyphs" textLength="112" x="69" y="534.3223">手配商品チェック</text><rect fill="#F8F8F8" filter="url(#f5b5znp)" height="31.6094" style="stroke: #383838; stroke-width: 1.5;" width="115" x="202" y="34.6094"/><text fill="#000000" font-family="sans-serif" font-size="14" lengthAdjust="spacingAndGlyphs" textLength="101" x="209" y="56.1426">手配書作成.xlsm</text><rect fill="#F8F8F8" filter="url(#f5b5znp)" height="31.6094" style="stroke: #383838; stroke-width: 1.5;" width="115" x="202" y="512.7891"/><text fill="#000000" font-family="sans-serif" font-size="14" lengthAdjust="spacingAndGlyphs" textLength="101" x="209" y="534.3223">手配書作成.xlsm</text><rect fill="#F8F8F8" filter="url(#f5b5znp)" height="31.6094" style="stroke: #383838; stroke-width: 1.5;" width="96" x="331" y="34.6094"/><text fill="#000000" font-family="sans-serif" font-size="14" lengthAdjust="spacingAndGlyphs" textLength="82" x="338" y="56.1426">FAX用手配書</text><rect fill="#F8F8F8" filter="url(#f5b5znp)" height="31.6094" style="stroke: #383838; stroke-width: 1.5;" width="96" x="331" y="512.7891"/><text fill="#000000" font-family="sans-serif" font-size="14" lengthAdjust="spacingAndGlyphs" textLength="82" x="338" y="534.3223">FAX用手配書</text><rect fill="#F8F8F8" filter="url(#f5b5znp)" height="31.6094" style="stroke: #383838; stroke-width: 1.5;" width="126" x="441" y="34.6094"/><text fill="#000000" font-family="sans-serif" font-size="14" lengthAdjust="spacingAndGlyphs" textLength="112" x="448" y="56.1426">センター用手配書</text><rect fill="#F8F8F8" filter="url(#f5b5znp)" height="31.6094" style="stroke: #383838; stroke-width: 1.5;" width="126" x="441" y="512.7891"/><text fill="#000000" font-family="sans-serif" font-size="14" lengthAdjust="spacingAndGlyphs" textLength="112" x="448" y="534.3223">センター用手配書</text><rect fill="#F8F8F8" filter="url(#f5b5znp)" height="31.6094" style="stroke: #383838; stroke-width: 1.5;" width="56" x="581" y="34.6094"/><text fill="#000000" font-family="sans-serif" font-size="14" lengthAdjust="spacingAndGlyphs" textLength="42" x="588" y="56.1426">仕入先</text><rect fill="#F8F8F8" filter="url(#f5b5znp)" height="31.6094" style="stroke: #383838; stroke-width: 1.5;" width="56" x="581" y="512.7891"/><text fill="#000000" font-family="sans-serif" font-size="14" lengthAdjust="spacingAndGlyphs" textLength="42" x="588" y="534.3223">仕入先</text><rect fill="#F8F8F8" filter="url(#f5b5znp)" height="31.6094" style="stroke: #383838; stroke-width: 1.5;" width="126" x="651" y="34.6094"/><text fill="#000000" font-family="sans-serif" font-size="14" lengthAdjust="spacingAndGlyphs" textLength="112" x="658" y="56.1426">在庫マスター確認</text><rect fill="#F8F8F8" filter="url(#f5b5znp)" height="31.6094" style="stroke: #383838; stroke-width: 1.5;" width="126" x="651" y="512.7891"/><text fill="#000000" font-family="sans-serif" font-size="14" lengthAdjust="spacingAndGlyphs" textLength="112" x="658" y="534.3223">在庫マスター確認</text><rect fill="#F8F8F8" filter="url(#f5b5znp)" height="31.6094" style="stroke: #383838; stroke-width: 1.5;" width="70" x="798" y="34.6094"/><text fill="#000000" font-family="sans-serif" font-size="14" lengthAdjust="spacingAndGlyphs" textLength="56" x="805" y="56.1426">発注入力</text><rect fill="#F8F8F8" filter="url(#f5b5znp)" height="31.6094" style="stroke: #383838; stroke-width: 1.5;" width="70" x="798" y="512.7891"/><text fill="#000000" font-family="sans-serif" font-size="14" lengthAdjust="spacingAndGlyphs" textLength="56" x="805" y="534.3223">発注入力</text><rect fill="#F8F8F8" filter="url(#f5b5znp)" height="31.6094" style="stroke: #383838; stroke-width: 1.5;" width="42" x="914" y="34.6094"/><text fill="#000000" font-family="sans-serif" font-size="14" lengthAdjust="spacingAndGlyphs" textLength="28" x="921" y="56.1426">商魂</text><rect fill="#F8F8F8" filter="url(#f5b5znp)" height="31.6094" style="stroke: #383838; stroke-width: 1.5;" width="42" x="914" y="512.7891"/><text fill="#000000" font-family="sans-serif" font-size="14" lengthAdjust="spacingAndGlyphs" textLength="28" x="921" y="534.3223">商魂</text><rect fill="#F8F8F8" filter="url(#f5b5znp)" height="31.6094" style="stroke: #383838; stroke-width: 1.5;" width="70" x="970" y="34.6094"/><text fill="#000000" font-family="sans-serif" font-size="14" lengthAdjust="spacingAndGlyphs" textLength="56" x="977" y="56.1426">伝票起票</text><rect fill="#F8F8F8" filter="url(#f5b5znp)" height="31.6094" style="stroke: #383838; stroke-width: 1.5;" width="70" x="970" y="512.7891"/><text fill="#000000" font-family="sans-serif" font-size="14" lengthAdjust="spacingAndGlyphs" textLength="56" x="977" y="534.3223">伝票起票</text><rect fill="#F8F8F8" filter="url(#f5b5znp)" height="31.6094" style="stroke: #383838; stroke-width: 1.5;" width="98" x="1054" y="34.6094"/><text fill="#000000" font-family="sans-serif" font-size="14" lengthAdjust="spacingAndGlyphs" textLength="84" x="1061" y="56.1426">入庫マスター</text><rect fill="#F8F8F8" filter="url(#f5b5znp)" height="31.6094" style="stroke: #383838; stroke-width: 1.5;" width="98" x="1054" y="512.7891"/><text fill="#000000" font-family="sans-serif" font-size="14" lengthAdjust="spacingAndGlyphs" textLength="84" x="1061" y="534.3223">入庫マスター</text><rect fill="#F8F8F8" filter="url(#f5b5znp)" height="31.6094" style="stroke: #383838; stroke-width: 1.5;" width="56" x="1166" y="34.6094"/><text fill="#000000" font-family="sans-serif" font-size="14" lengthAdjust="spacingAndGlyphs" textLength="42" x="1173" y="56.1426">管理部</text><rect fill="#F8F8F8" filter="url(#f5b5znp)" height="31.6094" style="stroke: #383838; stroke-width: 1.5;" width="56" x="1166" y="512.7891"/><text fill="#000000" font-family="sans-serif" font-size="14" lengthAdjust="spacingAndGlyphs" textLength="42" x="1173" y="534.3223">管理部</text><polygon fill="#383838" points="115,99.2188,125,103.2188,115,107.2188,119,103.2188" style="stroke: #383838; stroke-width: 1.0;"/><line style="stroke: #383838; stroke-width: 1.0; stroke-dasharray: 2.0,2.0;" x1="3" x2="121" y1="103.2188" y2="103.2188"/><text fill="#000000" font-family="sans-serif" font-size="13" lengthAdjust="spacingAndGlyphs" textLength="100" x="10" y="98.7139">Amazonファイル</text><polygon fill="#383838" points="115,129.5703,125,133.5703,115,137.5703,119,133.5703" style="stroke: #383838; stroke-width: 1.0;"/><line style="stroke: #383838; stroke-width: 1.0; stroke-dasharray: 2.0,2.0;" x1="3" x2="121" y1="133.5703" y2="133.5703"/><text fill="#000000" font-family="sans-serif" font-size="13" lengthAdjust="spacingAndGlyphs" textLength="78" x="10" y="129.0654">楽天ファイル</text><polygon fill="#383838" points="115,159.9219,125,163.9219,115,167.9219,119,163.9219" style="stroke: #383838; stroke-width: 1.0;"/><line style="stroke: #383838; stroke-width: 1.0; stroke-dasharray: 2.0,2.0;" x1="3" x2="121" y1="163.9219" y2="163.9219"/><text fill="#000000" font-family="sans-serif" font-size="13" lengthAdjust="spacingAndGlyphs" textLength="91" x="10" y="159.417">ヤフーファイル</text><polygon fill="#383838" points="249.5,190.2734,259.5,194.2734,249.5,198.2734,253.5,194.2734" style="stroke: #383838; stroke-width: 1.0;"/><line style="stroke: #383838; stroke-width: 1.0; stroke-dasharray: 2.0,2.0;" x1="127" x2="255.5" y1="194.2734" y2="194.2734"/><text fill="#000000" font-family="sans-serif" font-size="13" lengthAdjust="spacingAndGlyphs" textLength="74" x="134" y="189.7686">Amazon読込</text><polygon fill="#383838" points="249.5,220.625,259.5,224.625,249.5,228.625,253.5,224.625" style="stroke: #383838; stroke-width: 1.0;"/><line style="stroke: #383838; stroke-width: 1.0; stroke-dasharray: 2.0,2.0;" x1="127" x2="255.5" y1="224.625" y2="224.625"/><text fill="#000000" font-family="sans-serif" font-size="13" lengthAdjust="spacingAndGlyphs" textLength="52" x="134" y="220.1201">楽天読込</text><polygon fill="#383838" points="249.5,250.9766,259.5,254.9766,249.5,258.9766,253.5,254.9766" style="stroke: #383838; stroke-width: 1.0;"/><line style="stroke: #383838; stroke-width: 1.0; stroke-dasharray: 2.0,2.0;" x1="127" x2="255.5" y1="254.9766" y2="254.9766"/><text fill="#000000" font-family="sans-serif" font-size="13" lengthAdjust="spacingAndGlyphs" textLength="65" x="134" y="250.4717">ヤフー読込</text><polygon fill="#383838" points="369,265.3281,379,269.3281,369,273.3281,373,269.3281" style="stroke: #383838; stroke-width: 1.0;"/><line style="stroke: #383838; stroke-width: 1.0;" x1="261.5" x2="375" y1="269.3281" y2="269.3281"/><polygon fill="#383838" points="494,279.3281,504,283.3281,494,287.3281,498,283.3281" style="stroke: #383838; stroke-width: 1.0;"/><line style="stroke: #383838; stroke-width: 1.0;" x1="261.5" x2="500" y1="283.3281" y2="283.3281"/><polygon fill="#383838" points="599,309.3281,609,313.3281,599,317.3281,603,313.3281" style="stroke: #383838; stroke-width: 1.0;"/><line style="stroke: #383838; stroke-width: 1.0;" x1="381" x2="605" y1="313.3281" y2="313.3281"/><text fill="#000000" font-family="sans-serif" font-size="13" lengthAdjust="spacingAndGlyphs" textLength="24" x="388" y="308.8232">FAX</text><polygon fill="#383838" points="704,339.6797,714,343.6797,704,347.6797,708,343.6797" style="stroke: #383838; stroke-width: 1.0;"/><line style="stroke: #383838; stroke-width: 1.0;" x1="506" x2="710" y1="343.6797" y2="343.6797"/><text fill="#000000" font-family="sans-serif" font-size="13" lengthAdjust="spacingAndGlyphs" textLength="69" x="513" y="339.1748">電算室 提出</text><polygon fill="#383838" points="823,370.0313,833,374.0313,823,378.0313,827,374.0313" style="stroke: #383838; stroke-width: 1.0;"/><line style="stroke: #383838; stroke-width: 1.0;" x1="716" x2="829" y1="374.0313" y2="374.0313"/><text fill="#000000" font-family="sans-serif" font-size="13" lengthAdjust="spacingAndGlyphs" textLength="95" x="723" y="369.5264">手配書 商品部へ</text><polygon fill="#383838" points="925,400.3828,935,404.3828,925,408.3828,929,404.3828" style="stroke: #383838; stroke-width: 1.0;"/><line style="stroke: #383838; stroke-width: 1.0;" x1="835" x2="931" y1="404.3828" y2="404.3828"/><text fill="#000000" font-family="sans-serif" font-size="13" lengthAdjust="spacingAndGlyphs" textLength="78" x="842" y="399.8779">手配履歴作成</text><polygon fill="#383838" points="995,430.7344,1005,434.7344,995,438.7344,999,434.7344" style="stroke: #383838; stroke-width: 1.0;"/><line style="stroke: #383838; stroke-width: 1.0;" x1="835" x2="1001" y1="434.7344" y2="434.7344"/><text fill="#000000" font-family="sans-serif" font-size="13" lengthAdjust="spacingAndGlyphs" textLength="104" x="842" y="430.2295">当社伝の伝票起票</text><polygon fill="#383838" points="1093,461.0859,1103,465.0859,1093,469.0859,1097,465.0859" style="stroke: #383838; stroke-width: 1.0;"/><line style="stroke: #383838; stroke-width: 1.0;" x1="835" x2="1099" y1="465.0859" y2="465.0859"/><text fill="#000000" font-family="sans-serif" font-size="13" lengthAdjust="spacingAndGlyphs" textLength="117" x="842" y="460.5811">入庫待ちデータ作成</text><polygon fill="#383838" points="1184,491.4375,1194,495.4375,1184,499.4375,1188,495.4375" style="stroke: #383838; stroke-width: 1.0;"/><line style="stroke: #383838; stroke-width: 1.0;" x1="1007" x2="1190" y1="495.4375" y2="495.4375"/><text fill="#000000" font-family="sans-serif" font-size="13" lengthAdjust="spacingAndGlyphs" textLength="52" x="1014" y="490.9326">引取依頼</text></g></svg>