<?xml version="1.0" encoding="UTF-8" standalone="no"?><svg xmlns="http://www.w3.org/2000/svg" xmlns:xlink="http://www.w3.org/1999/xlink" contentScriptType="application/ecmascript" contentStyleType="text/css" height="1412px" preserveAspectRatio="none" style="width:1454px;height:1412px;" version="1.1" viewBox="0 0 1454 1412" width="1454px" zoomAndPan="magnify"><defs><filter height="300%" id="fxac3pd" width="300%" x="-1" y="-1"><feGaussianBlur result="blurOut" stdDeviation="2.0"/><feColorMatrix in="blurOut" result="blurOut2" type="matrix" values="0 0 0 0 0 0 0 0 0 0 0 0 0 0 0 0 0 0 .4 0"/><feOffset dx="4.0" dy="4.0" in="blurOut2" result="blurOut3"/><feBlend in="SourceGraphic" in2="blurOut3" mode="normal"/></filter></defs><g><text fill="#000000" font-family="sans-serif" font-size="14" font-weight="bold" lengthAdjust="spacingAndGlyphs" textLength="199" x="626.5" y="24.5332">ネット販売 受注・発送の流れ</text><rect fill="#FFFFFF" filter="url(#fxac3pd)" height="30.3516" style="stroke: #383838; stroke-width: 1.0;" width="10" x="46" y="155.5703"/><rect fill="#FFFFFF" filter="url(#fxac3pd)" height="30.3516" style="stroke: #383838; stroke-width: 1.0;" width="10" x="101" y="216.2734"/><rect fill="#FFFFFF" filter="url(#fxac3pd)" height="30.3516" style="stroke: #383838; stroke-width: 1.0;" width="10" x="151.5" y="276.9766"/><rect fill="#FFFFFF" filter="url(#fxac3pd)" height="146.7578" style="stroke: #383838; stroke-width: 1.0;" width="10" x="245.5" y="1170.8203"/><rect fill="#FFFFFF" filter="url(#fxac3pd)" height="216.4609" style="stroke: #383838; stroke-width: 1.0;" width="10" x="380" y="440.7344"/><rect fill="#FFFFFF" filter="url(#fxac3pd)" height="30.3516" style="stroke: #383838; stroke-width: 1.0;" width="10" x="785" y="687.5469"/><rect fill="#FFFFFF" filter="url(#fxac3pd)" height="91.0547" style="stroke: #383838; stroke-width: 1.0;" width="10" x="1161" y="914.0078"/><rect fill="#FFFFFF" filter="url(#fxac3pd)" height="91.0547" style="stroke: #383838; stroke-width: 1.0;" width="10" x="1238" y="883.6563"/><rect fill="#FFFFFF" filter="url(#fxac3pd)" height="91.0547" style="stroke: #383838; stroke-width: 1.0;" width="10" x="1315" y="1005.0625"/><rect fill="#FFFFFF" filter="url(#fxac3pd)" height="200.4609" style="stroke: #000000; stroke-width: 2.0;" width="299" x="13" y="115.2188"/><rect fill="#FFFFFF" filter="url(#fxac3pd)" height="109.4063" style="stroke: #000000; stroke-width: 2.0;" width="299" x="13" y="1216.5234"/><line style="stroke: #383838; stroke-width: 1.0; stroke-dasharray: 5.0,5.0;" x1="51" x2="51" y1="98.2188" y2="1342.9297"/><line style="stroke: #383838; stroke-width: 1.0; stroke-dasharray: 5.0,5.0;" x1="106" x2="106" y1="98.2188" y2="1342.9297"/><line style="stroke: #383838; stroke-width: 1.0; stroke-dasharray: 5.0,5.0;" x1="156" x2="156" y1="98.2188" y2="1342.9297"/><line style="stroke: #383838; stroke-width: 1.0; stroke-dasharray: 5.0,5.0;" x1="250" x2="250" y1="98.2188" y2="1342.9297"/><line style="stroke: #383838; stroke-width: 1.0; stroke-dasharray: 5.0,5.0;" x1="385" x2="385" y1="98.2188" y2="1342.9297"/><line style="stroke: #383838; stroke-width: 1.0; stroke-dasharray: 5.0,5.0;" x1="518" x2="518" y1="98.2188" y2="1342.9297"/><line style="stroke: #383838; stroke-width: 1.0; stroke-dasharray: 5.0,5.0;" x1="596" x2="596" y1="98.2188" y2="1342.9297"/><line style="stroke: #383838; stroke-width: 1.0; stroke-dasharray: 5.0,5.0;" x1="665" x2="665" y1="98.2188" y2="1342.9297"/><line style="stroke: #383838; stroke-width: 1.0; stroke-dasharray: 5.0,5.0;" x1="790" x2="790" y1="98.2188" y2="1342.9297"/><line style="stroke: #383838; stroke-width: 1.0; stroke-dasharray: 5.0,5.0;" x1="947" x2="947" y1="98.2188" y2="1342.9297"/><line style="stroke: #383838; stroke-width: 1.0; stroke-dasharray: 5.0,5.0;" x1="1040" x2="1040" y1="98.2188" y2="1342.9297"/><line style="stroke: #383838; stroke-width: 1.0; stroke-dasharray: 5.0,5.0;" x1="1102" x2="1102" y1="98.2188" y2="1342.9297"/><line style="stroke: #383838; stroke-width: 1.0; stroke-dasharray: 5.0,5.0;" x1="1166" x2="1166" y1="98.2188" y2="1342.9297"/><line style="stroke: #383838; stroke-width: 1.0; stroke-dasharray: 5.0,5.0;" x1="1243" x2="1243" y1="98.2188" y2="1342.9297"/><line style="stroke: #383838; stroke-width: 1.0; stroke-dasharray: 5.0,5.0;" x1="1320" x2="1320" y1="98.2188" y2="1342.9297"/><line style="stroke: #383838; stroke-width: 1.0; stroke-dasharray: 5.0,5.0;" x1="1421" x2="1421" y1="98.2188" y2="1342.9297"/><text fill="#000000" font-family="sans-serif" font-size="14" lengthAdjust="spacingAndGlyphs" textLength="50" x="23" y="95.1426">Amazon</text><ellipse cx="51" cy="64.6094" fill="#F8F8F8" filter="url(#fxac3pd)" rx="12" ry="12" style="stroke: #383838; stroke-width: 2.0;"/><line style="stroke: #383838; stroke-width: 2.0;" x1="39" x2="63" y1="78.6094" y2="78.6094"/><text fill="#000000" font-family="sans-serif" font-size="14" lengthAdjust="spacingAndGlyphs" textLength="50" x="23" y="1356.4629">Amazon</text><ellipse cx="51" cy="1375.5391" fill="#F8F8F8" filter="url(#fxac3pd)" rx="12" ry="12" style="stroke: #383838; stroke-width: 2.0;"/><line style="stroke: #383838; stroke-width: 2.0;" x1="39" x2="63" y1="1389.5391" y2="1389.5391"/><text fill="#000000" font-family="sans-serif" font-size="14" lengthAdjust="spacingAndGlyphs" textLength="28" x="89" y="95.1426">楽天</text><ellipse cx="106" cy="64.6094" fill="#F8F8F8" filter="url(#fxac3pd)" rx="12" ry="12" style="stroke: #383838; stroke-width: 2.0;"/><line style="stroke: #383838; stroke-width: 2.0;" x1="94" x2="118" y1="78.6094" y2="78.6094"/><text fill="#000000" font-family="sans-serif" font-size="14" lengthAdjust="spacingAndGlyphs" textLength="28" x="89" y="1356.4629">楽天</text><ellipse cx="106" cy="1375.5391" fill="#F8F8F8" filter="url(#fxac3pd)" rx="12" ry="12" style="stroke: #383838; stroke-width: 2.0;"/><line style="stroke: #383838; stroke-width: 2.0;" x1="94" x2="118" y1="1389.5391" y2="1389.5391"/><text fill="#000000" font-family="sans-serif" font-size="14" lengthAdjust="spacingAndGlyphs" textLength="41" x="133" y="95.1426">Yahoo</text><ellipse cx="156.5" cy="64.6094" fill="#F8F8F8" filter="url(#fxac3pd)" rx="12" ry="12" style="stroke: #383838; stroke-width: 2.0;"/><line style="stroke: #383838; stroke-width: 2.0;" x1="144.5" x2="168.5" y1="78.6094" y2="78.6094"/><text fill="#000000" font-family="sans-serif" font-size="14" lengthAdjust="spacingAndGlyphs" textLength="41" x="133" y="1356.4629">Yahoo</text><ellipse cx="156.5" cy="1375.5391" fill="#F8F8F8" filter="url(#fxac3pd)" rx="12" ry="12" style="stroke: #383838; stroke-width: 2.0;"/><line style="stroke: #383838; stroke-width: 2.0;" x1="144.5" x2="168.5" y1="1389.5391" y2="1389.5391"/><rect fill="#F8F8F8" filter="url(#fxac3pd)" height="31.6094" style="stroke: #383838; stroke-width: 1.5;" width="99" x="199" y="61.6094"/><text fill="#000000" font-family="sans-serif" font-size="14" lengthAdjust="spacingAndGlyphs" textLength="85" x="206" y="83.1426">CROSSMALL</text><rect fill="#F8F8F8" filter="url(#fxac3pd)" height="31.6094" style="stroke: #383838; stroke-width: 1.5;" width="99" x="199" y="1341.9297"/><text fill="#000000" font-family="sans-serif" font-size="14" lengthAdjust="spacingAndGlyphs" textLength="85" x="206" y="1363.4629">CROSSMALL</text><text fill="#000000" font-family="sans-serif" font-size="14" lengthAdjust="spacingAndGlyphs" textLength="140" x="312" y="95.1426">ピッキングシート生成</text><path d="M364.5,52.6094 L364.5,76.6094 M364.5,64.6094 L381.5,64.6094 " fill="#F8F8F8" filter="url(#fxac3pd)" style="stroke: #383838; stroke-width: 2.0;"/><ellipse cx="393.5" cy="64.6094" fill="#F8F8F8" filter="url(#fxac3pd)" rx="12" ry="12" style="stroke: #383838; stroke-width: 2.0;"/><text fill="#000000" font-family="sans-serif" font-size="14" lengthAdjust="spacingAndGlyphs" textLength="140" x="312" y="1356.4629">ピッキングシート生成</text><path d="M364.5,1363.5391 L364.5,1387.5391 M364.5,1375.5391 L381.5,1375.5391 " fill="#F8F8F8" filter="url(#fxac3pd)" style="stroke: #383838; stroke-width: 2.0;"/><ellipse cx="393.5" cy="1375.5391" fill="#F8F8F8" filter="url(#fxac3pd)" rx="12" ry="12" style="stroke: #383838; stroke-width: 2.0;"/><text fill="#000000" font-family="sans-serif" font-size="14" lengthAdjust="spacingAndGlyphs" textLength="70" x="480" y="95.1426">商品マスタ</text><path d="M500,44.6094 C500,34.6094 518,34.6094 518,34.6094 C518,34.6094 536,34.6094 536,44.6094 L536,70.6094 C536,80.6094 518,80.6094 518,80.6094 C518,80.6094 500,80.6094 500,70.6094 L500,44.6094 " fill="#F8F8F8" filter="url(#fxac3pd)" style="stroke: #000000; stroke-width: 1.5;"/><path d="M500,44.6094 C500,54.6094 518,54.6094 518,54.6094 C518,54.6094 536,54.6094 536,44.6094 " fill="none" style="stroke: #000000; stroke-width: 1.5;"/><text fill="#000000" font-family="sans-serif" font-size="14" lengthAdjust="spacingAndGlyphs" textLength="70" x="480" y="1356.4629">商品マスタ</text><path d="M500,1369.5391 C500,1359.5391 518,1359.5391 518,1359.5391 C518,1359.5391 536,1359.5391 536,1369.5391 L536,1395.5391 C536,1405.5391 518,1405.5391 518,1405.5391 C518,1405.5391 500,1405.5391 500,1395.5391 L500,1369.5391 " fill="#F8F8F8" filter="url(#fxac3pd)" style="stroke: #000000; stroke-width: 1.5;"/><path d="M500,1369.5391 C500,1379.5391 518,1379.5391 518,1379.5391 C518,1379.5391 536,1379.5391 536,1369.5391 " fill="none" style="stroke: #000000; stroke-width: 1.5;"/><rect fill="#F8F8F8" filter="url(#fxac3pd)" height="31.6094" style="stroke: #383838; stroke-width: 1.5;" width="56" x="566" y="61.6094"/><text fill="#000000" font-family="sans-serif" font-size="14" lengthAdjust="spacingAndGlyphs" textLength="42" x="573" y="83.1426">電算室</text><rect fill="#F8F8F8" filter="url(#fxac3pd)" height="31.6094" style="stroke: #383838; stroke-width: 1.5;" width="56" x="566" y="1341.9297"/><text fill="#000000" font-family="sans-serif" font-size="14" lengthAdjust="spacingAndGlyphs" textLength="42" x="573" y="1363.4629">電算室</text><rect fill="#F8F8F8" filter="url(#fxac3pd)" height="31.6094" style="stroke: #383838; stroke-width: 1.5;" width="54" x="636" y="61.6094"/><text fill="#000000" font-family="sans-serif" font-size="14" lengthAdjust="spacingAndGlyphs" textLength="40" x="643" y="83.1426">SLIMS</text><rect fill="#F8F8F8" filter="url(#fxac3pd)" height="31.6094" style="stroke: #383838; stroke-width: 1.5;" width="54" x="636" y="1341.9297"/><text fill="#000000" font-family="sans-serif" font-size="14" lengthAdjust="spacingAndGlyphs" textLength="40" x="643" y="1363.4629">SLIMS</text><rect fill="#F8F8F8" filter="url(#fxac3pd)" height="31.6094" style="stroke: #383838; stroke-width: 1.5;" width="168" x="704" y="61.6094"/><text fill="#000000" font-family="sans-serif" font-size="14" lengthAdjust="spacingAndGlyphs" textLength="154" x="711" y="83.1426">受注チェックリスト生成</text><rect fill="#F8F8F8" filter="url(#fxac3pd)" height="31.6094" style="stroke: #383838; stroke-width: 1.5;" width="168" x="704" y="1341.9297"/><text fill="#000000" font-family="sans-serif" font-size="14" lengthAdjust="spacingAndGlyphs" textLength="154" x="711" y="1363.4629">受注チェックリスト生成</text><text fill="#000000" font-family="sans-serif" font-size="14" lengthAdjust="spacingAndGlyphs" textLength="117" x="886" y="95.1426">出荷チェック用DB</text><path d="M929.5,44.6094 C929.5,34.6094 947.5,34.6094 947.5,34.6094 C947.5,34.6094 965.5,34.6094 965.5,44.6094 L965.5,70.6094 C965.5,80.6094 947.5,80.6094 947.5,80.6094 C947.5,80.6094 929.5,80.6094 929.5,70.6094 L929.5,44.6094 " fill="#F8F8F8" filter="url(#fxac3pd)" style="stroke: #000000; stroke-width: 1.5;"/><path d="M929.5,44.6094 C929.5,54.6094 947.5,54.6094 947.5,54.6094 C947.5,54.6094 965.5,54.6094 965.5,44.6094 " fill="none" style="stroke: #000000; stroke-width: 1.5;"/><text fill="#000000" font-family="sans-serif" font-size="14" lengthAdjust="spacingAndGlyphs" textLength="117" x="886" y="1356.4629">出荷チェック用DB</text><path d="M929.5,1369.5391 C929.5,1359.5391 947.5,1359.5391 947.5,1359.5391 C947.5,1359.5391 965.5,1359.5391 965.5,1369.5391 L965.5,1395.5391 C965.5,1405.5391 947.5,1405.5391 947.5,1405.5391 C947.5,1405.5391 929.5,1405.5391 929.5,1395.5391 L929.5,1369.5391 " fill="#F8F8F8" filter="url(#fxac3pd)" style="stroke: #000000; stroke-width: 1.5;"/><path d="M929.5,1369.5391 C929.5,1379.5391 947.5,1379.5391 947.5,1379.5391 C947.5,1379.5391 965.5,1379.5391 965.5,1369.5391 " fill="none" style="stroke: #000000; stroke-width: 1.5;"/><text fill="#000000" font-family="sans-serif" font-size="14" lengthAdjust="spacingAndGlyphs" textLength="36" x="1019" y="95.1426">e飛伝</text><ellipse cx="1040" cy="64.6094" fill="#F8F8F8" filter="url(#fxac3pd)" rx="12" ry="12" style="stroke: #383838; stroke-width: 2.0;"/><line style="stroke: #383838; stroke-width: 2.0;" x1="1028" x2="1052" y1="78.6094" y2="78.6094"/><text fill="#000000" font-family="sans-serif" font-size="14" lengthAdjust="spacingAndGlyphs" textLength="36" x="1019" y="1356.4629">e飛伝</text><ellipse cx="1040" cy="1375.5391" fill="#F8F8F8" filter="url(#fxac3pd)" rx="12" ry="12" style="stroke: #383838; stroke-width: 2.0;"/><line style="stroke: #383838; stroke-width: 2.0;" x1="1028" x2="1052" y1="1389.5391" y2="1389.5391"/><text fill="#000000" font-family="sans-serif" font-size="14" lengthAdjust="spacingAndGlyphs" textLength="56" x="1071" y="95.1426">ネコポス</text><ellipse cx="1102" cy="64.6094" fill="#F8F8F8" filter="url(#fxac3pd)" rx="12" ry="12" style="stroke: #383838; stroke-width: 2.0;"/><line style="stroke: #383838; stroke-width: 2.0;" x1="1090" x2="1114" y1="78.6094" y2="78.6094"/><text fill="#000000" font-family="sans-serif" font-size="14" lengthAdjust="spacingAndGlyphs" textLength="56" x="1071" y="1356.4629">ネコポス</text><ellipse cx="1102" cy="1375.5391" fill="#F8F8F8" filter="url(#fxac3pd)" rx="12" ry="12" style="stroke: #383838; stroke-width: 2.0;"/><line style="stroke: #383838; stroke-width: 2.0;" x1="1090" x2="1114" y1="1389.5391" y2="1389.5391"/><rect fill="#F8F8F8" filter="url(#fxac3pd)" height="31.6094" style="stroke: #383838; stroke-width: 1.5;" width="42" x="1143" y="61.6094"/><text fill="#000000" font-family="sans-serif" font-size="14" lengthAdjust="spacingAndGlyphs" textLength="28" x="1150" y="83.1426">振分</text><rect fill="#F8F8F8" filter="url(#fxac3pd)" height="31.6094" style="stroke: #383838; stroke-width: 1.5;" width="42" x="1143" y="1341.9297"/><text fill="#000000" font-family="sans-serif" font-size="14" lengthAdjust="spacingAndGlyphs" textLength="28" x="1150" y="1363.4629">振分</text><rect fill="#F8F8F8" filter="url(#fxac3pd)" height="31.6094" style="stroke: #383838; stroke-width: 1.5;" width="84" x="1199" y="61.6094"/><text fill="#000000" font-family="sans-serif" font-size="14" lengthAdjust="spacingAndGlyphs" textLength="70" x="1206" y="83.1426">ピッキング</text><rect fill="#F8F8F8" filter="url(#fxac3pd)" height="31.6094" style="stroke: #383838; stroke-width: 1.5;" width="84" x="1199" y="1341.9297"/><text fill="#000000" font-family="sans-serif" font-size="14" lengthAdjust="spacingAndGlyphs" textLength="70" x="1206" y="1363.4629">ピッキング</text><rect fill="#F8F8F8" filter="url(#fxac3pd)" height="31.6094" style="stroke: #383838; stroke-width: 1.5;" width="42" x="1297" y="61.6094"/><text fill="#000000" font-family="sans-serif" font-size="14" lengthAdjust="spacingAndGlyphs" textLength="28" x="1304" y="83.1426">梱包</text><rect fill="#F8F8F8" filter="url(#fxac3pd)" height="31.6094" style="stroke: #383838; stroke-width: 1.5;" width="42" x="1297" y="1341.9297"/><text fill="#000000" font-family="sans-serif" font-size="14" lengthAdjust="spacingAndGlyphs" textLength="28" x="1304" y="1363.4629">梱包</text><rect fill="#F8F8F8" filter="url(#fxac3pd)" height="31.6094" style="stroke: #383838; stroke-width: 1.5;" width="42" x="1398" y="61.6094"/><text fill="#000000" font-family="sans-serif" font-size="14" lengthAdjust="spacingAndGlyphs" textLength="28" x="1405" y="83.1426">出荷</text><rect fill="#F8F8F8" filter="url(#fxac3pd)" height="31.6094" style="stroke: #383838; stroke-width: 1.5;" width="42" x="1398" y="1341.9297"/><text fill="#000000" font-family="sans-serif" font-size="14" lengthAdjust="spacingAndGlyphs" textLength="28" x="1405" y="1363.4629">出荷</text><rect fill="#FFFFFF" filter="url(#fxac3pd)" height="30.3516" style="stroke: #383838; stroke-width: 1.0;" width="10" x="46" y="155.5703"/><rect fill="#FFFFFF" filter="url(#fxac3pd)" height="30.3516" style="stroke: #383838; stroke-width: 1.0;" width="10" x="101" y="216.2734"/><rect fill="#FFFFFF" filter="url(#fxac3pd)" height="30.3516" style="stroke: #383838; stroke-width: 1.0;" width="10" x="151.5" y="276.9766"/><rect fill="#FFFFFF" filter="url(#fxac3pd)" height="146.7578" style="stroke: #383838; stroke-width: 1.0;" width="10" x="245.5" y="1170.8203"/><rect fill="#FFFFFF" filter="url(#fxac3pd)" height="216.4609" style="stroke: #383838; stroke-width: 1.0;" width="10" x="380" y="440.7344"/><rect fill="#FFFFFF" filter="url(#fxac3pd)" height="30.3516" style="stroke: #383838; stroke-width: 1.0;" width="10" x="785" y="687.5469"/><rect fill="#FFFFFF" filter="url(#fxac3pd)" height="91.0547" style="stroke: #383838; stroke-width: 1.0;" width="10" x="1161" y="914.0078"/><rect fill="#FFFFFF" filter="url(#fxac3pd)" height="91.0547" style="stroke: #383838; stroke-width: 1.0;" width="10" x="1238" y="883.6563"/><rect fill="#FFFFFF" filter="url(#fxac3pd)" height="91.0547" style="stroke: #383838; stroke-width: 1.0;" width="10" x="1315" y="1005.0625"/><rect fill="none" height="200.4609" style="stroke: #000000; stroke-width: 2.0;" width="299" x="13" y="115.2188"/><polygon fill="#EEEEEE" points="13,115.2188,86,115.2188,86,123.2188,76,133.2188,13,133.2188,13,115.2188" style="stroke: #000000; stroke-width: 2.0;"/><text fill="#000000" font-family="sans-serif" font-size="13" font-weight="bold" lengthAdjust="spacingAndGlyphs" textLength="28" x="28" y="129.7139">loop</text><text fill="#000000" font-family="sans-serif" font-size="11" font-weight="bold" lengthAdjust="spacingAndGlyphs" textLength="56" x="101" y="128.6377">[常時取得]</text><polygon fill="#383838" points="67,151.5703,57,155.5703,67,159.5703,63,155.5703" style="stroke: #383838; stroke-width: 1.0;"/><line style="stroke: #383838; stroke-width: 1.0;" x1="61" x2="249.5" y1="155.5703" y2="155.5703"/><text fill="#000000" font-family="sans-serif" font-size="13" lengthAdjust="spacingAndGlyphs" textLength="21" x="73" y="151.0654">API</text><polygon fill="#383838" points="238.5,181.9219,248.5,185.9219,238.5,189.9219,242.5,185.9219" style="stroke: #383838; stroke-width: 1.0;"/><line style="stroke: #383838; stroke-width: 1.0; stroke-dasharray: 2.0,2.0;" x1="51" x2="244.5" y1="185.9219" y2="185.9219"/><text fill="#000000" font-family="sans-serif" font-size="13" lengthAdjust="spacingAndGlyphs" textLength="65" x="58" y="181.417">受注データ</text><polygon fill="#383838" points="122,212.2734,112,216.2734,122,220.2734,118,216.2734" style="stroke: #383838; stroke-width: 1.0;"/><line style="stroke: #383838; stroke-width: 1.0;" x1="116" x2="249.5" y1="216.2734" y2="216.2734"/><text fill="#000000" font-family="sans-serif" font-size="13" lengthAdjust="spacingAndGlyphs" textLength="21" x="128" y="211.7686">API</text><polygon fill="#383838" points="238.5,242.625,248.5,246.625,238.5,250.625,242.5,246.625" style="stroke: #383838; stroke-width: 1.0;"/><line style="stroke: #383838; stroke-width: 1.0; stroke-dasharray: 2.0,2.0;" x1="106" x2="244.5" y1="246.625" y2="246.625"/><text fill="#000000" font-family="sans-serif" font-size="13" lengthAdjust="spacingAndGlyphs" textLength="65" x="113" y="242.1201">受注データ</text><polygon fill="#383838" points="172.5,272.9766,162.5,276.9766,172.5,280.9766,168.5,276.9766" style="stroke: #383838; stroke-width: 1.0;"/><line style="stroke: #383838; stroke-width: 1.0;" x1="166.5" x2="249.5" y1="276.9766" y2="276.9766"/><text fill="#000000" font-family="sans-serif" font-size="13" lengthAdjust="spacingAndGlyphs" textLength="21" x="178.5" y="272.4717">API</text><polygon fill="#383838" points="238.5,303.3281,248.5,307.3281,238.5,311.3281,242.5,307.3281" style="stroke: #383838; stroke-width: 1.0;"/><line style="stroke: #383838; stroke-width: 1.0; stroke-dasharray: 2.0,2.0;" x1="156.5" x2="244.5" y1="307.3281" y2="307.3281"/><text fill="#000000" font-family="sans-serif" font-size="13" lengthAdjust="spacingAndGlyphs" textLength="65" x="163.5" y="302.8232">受注データ</text><rect fill="#EEEEEE" filter="url(#fxac3pd)" height="3" style="stroke: #EEEEEE; stroke-width: 1.0;" width="1446" x="3" y="343.8555"/><line style="stroke: #000000; stroke-width: 1.0;" x1="3" x2="1449" y1="343.8555" y2="343.8555"/><line style="stroke: #000000; stroke-width: 1.0;" x1="3" x2="1449" y1="346.8555" y2="346.8555"/><rect fill="#EEEEEE" filter="url(#fxac3pd)" height="24.3516" style="stroke: #000000; stroke-width: 2.0;" width="121" x="665.5" y="332.6797"/><text fill="#000000" font-family="sans-serif" font-size="13" font-weight="bold" lengthAdjust="spacingAndGlyphs" textLength="103" x="671.5" y="350.1748">8:00 ～ 受注取込</text><polygon fill="#383838" points="778,385.0313,788,389.0313,778,393.0313,782,389.0313" style="stroke: #383838; stroke-width: 1.0;"/><line style="stroke: #383838; stroke-width: 1.0;" x1="250.5" x2="784" y1="389.0313" y2="389.0313"/><text fill="#000000" font-family="sans-serif" font-size="13" lengthAdjust="spacingAndGlyphs" textLength="79" x="257.5" y="384.5264">CSVファイル</text><polygon fill="#383838" points="368,436.7344,378,440.7344,368,444.7344,372,440.7344" style="stroke: #383838; stroke-width: 1.0;"/><line style="stroke: #383838; stroke-width: 1.0;" x1="250.5" x2="374" y1="440.7344" y2="440.7344"/><text fill="#000000" font-family="sans-serif" font-size="13" lengthAdjust="spacingAndGlyphs" textLength="79" x="257.5" y="436.2295">CSVファイル</text><polygon fill="#ECECEC" filter="url(#fxac3pd)" points="117,402.3828,117,461.3828,241,461.3828,241,412.3828,231,402.3828,117,402.3828" style="stroke: #383838; stroke-width: 1.0;"/><line style="stroke: #383838; stroke-width: 1.0;" x1="231" x2="231" y1="402.3828" y2="412.3828"/><line style="stroke: #383838; stroke-width: 1.0;" x1="241" x2="231" y1="412.3828" y2="412.3828"/><text fill="#000000" font-family="sans-serif" font-size="13" lengthAdjust="spacingAndGlyphs" textLength="66" x="123" y="420.8779">単一CSVで</text><text fill="#000000" font-family="sans-serif" font-size="13" lengthAdjust="spacingAndGlyphs" textLength="65" x="131" y="437.2295">ピッキング</text><text fill="#000000" font-family="sans-serif" font-size="13" lengthAdjust="spacingAndGlyphs" textLength="95" x="131" y="453.5811">チェック用 生成</text><line style="stroke: #383838; stroke-width: 1.0;" x1="390" x2="432" y1="492.7891" y2="492.7891"/><line style="stroke: #383838; stroke-width: 1.0;" x1="432" x2="432" y1="492.7891" y2="505.7891"/><line style="stroke: #383838; stroke-width: 1.0;" x1="391" x2="432" y1="505.7891" y2="505.7891"/><polygon fill="#383838" points="401,501.7891,391,505.7891,401,509.7891,397,505.7891" style="stroke: #383838; stroke-width: 1.0;"/><text fill="#000000" font-family="sans-serif" font-size="13" lengthAdjust="spacingAndGlyphs" textLength="65" x="397" y="487.9326">セット分解</text><polygon fill="#383838" points="506,531.7891,516,535.7891,506,539.7891,510,535.7891" style="stroke: #383838; stroke-width: 1.0;"/><line style="stroke: #383838; stroke-width: 1.0;" x1="390" x2="512" y1="535.7891" y2="535.7891"/><text fill="#000000" font-family="sans-serif" font-size="13" lengthAdjust="spacingAndGlyphs" textLength="104" x="397" y="531.2842">ロケーション取得</text><polygon fill="#383838" points="584,562.1406,594,566.1406,584,570.1406,588,566.1406" style="stroke: #383838; stroke-width: 1.0;"/><line style="stroke: #383838; stroke-width: 1.0;" x1="390" x2="590" y1="566.1406" y2="566.1406"/><text fill="#000000" font-family="sans-serif" font-size="13" lengthAdjust="spacingAndGlyphs" textLength="113" x="397" y="561.6357">Amazonピッキング</text><polygon fill="#383838" points="584,592.4922,594,596.4922,584,600.4922,588,596.4922" style="stroke: #383838; stroke-width: 1.0;"/><line style="stroke: #383838; stroke-width: 1.0;" x1="390" x2="590" y1="596.4922" y2="596.4922"/><text fill="#000000" font-family="sans-serif" font-size="13" lengthAdjust="spacingAndGlyphs" textLength="91" x="397" y="591.9873">楽天ピッキング</text><polygon fill="#383838" points="584,622.8438,594,626.8438,584,630.8438,588,626.8438" style="stroke: #383838; stroke-width: 1.0;"/><line style="stroke: #383838; stroke-width: 1.0;" x1="390" x2="590" y1="626.8438" y2="626.8438"/><text fill="#000000" font-family="sans-serif" font-size="13" lengthAdjust="spacingAndGlyphs" textLength="102" x="397" y="622.3389">Yahooピッキング</text><polygon fill="#383838" points="14,653.1953,4,657.1953,14,661.1953,10,657.1953" style="stroke: #383838; stroke-width: 1.0;"/><line style="stroke: #383838; stroke-width: 1.0;" x1="8" x2="384" y1="657.1953" y2="657.1953"/><text fill="#000000" font-family="sans-serif" font-size="13" lengthAdjust="spacingAndGlyphs" textLength="160" x="20" y="652.6904">発注 -aピッキングシート×3</text><polygon fill="#383838" points="653,683.5469,663,687.5469,653,691.5469,657,687.5469" style="stroke: #383838; stroke-width: 1.0;"/><line style="stroke: #383838; stroke-width: 1.0;" x1="596" x2="659" y1="687.5469" y2="687.5469"/><text fill="#000000" font-family="sans-serif" font-size="13" lengthAdjust="spacingAndGlyphs" textLength="44" x="603" y="683.042">DB投入</text><polygon fill="#383838" points="935.5,713.8984,945.5,717.8984,935.5,721.8984,939.5,717.8984" style="stroke: #383838; stroke-width: 1.0;"/><line style="stroke: #383838; stroke-width: 1.0;" x1="790" x2="941.5" y1="717.8984" y2="717.8984"/><text fill="#000000" font-family="sans-serif" font-size="13" lengthAdjust="spacingAndGlyphs" textLength="44" x="797" y="713.3936">DB投入</text><polygon fill="#383838" points="1028,744.25,1038,748.25,1028,752.25,1032,748.25" style="stroke: #383838; stroke-width: 1.0;"/><line style="stroke: #383838; stroke-width: 1.0;" x1="250.5" x2="1034" y1="748.25" y2="748.25"/><text fill="#000000" font-family="sans-serif" font-size="13" lengthAdjust="spacingAndGlyphs" textLength="67" x="257.5" y="743.7451">CSV_e飛伝</text><polygon fill="#383838" points="1090,774.6016,1100,778.6016,1090,782.6016,1094,778.6016" style="stroke: #383838; stroke-width: 1.0;"/><line style="stroke: #383838; stroke-width: 1.0;" x1="250.5" x2="1096" y1="778.6016" y2="778.6016"/><text fill="#000000" font-family="sans-serif" font-size="13" lengthAdjust="spacingAndGlyphs" textLength="89" x="257.5" y="774.0967">CSV_ヤマトB2</text><rect fill="#EEEEEE" filter="url(#fxac3pd)" height="3" style="stroke: #EEEEEE; stroke-width: 1.0;" width="1446" x="3" y="808.1289"/><line style="stroke: #000000; stroke-width: 1.0;" x1="3" x2="1449" y1="808.1289" y2="808.1289"/><line style="stroke: #000000; stroke-width: 1.0;" x1="3" x2="1449" y1="811.1289" y2="811.1289"/><rect fill="#EEEEEE" filter="url(#fxac3pd)" height="24.3516" style="stroke: #000000; stroke-width: 2.0;" width="131" x="660.5" y="796.9531"/><text fill="#000000" font-family="sans-serif" font-size="13" font-weight="bold" lengthAdjust="spacingAndGlyphs" textLength="113" x="666.5" y="814.4482">9:30～ 振分・梱包</text><polygon fill="#383838" points="1154,849.3047,1164,853.3047,1154,857.3047,1158,853.3047" style="stroke: #383838; stroke-width: 1.0;"/><line style="stroke: #383838; stroke-width: 1.0;" x1="385" x2="1160" y1="853.3047" y2="853.3047"/><text fill="#000000" font-family="sans-serif" font-size="13" lengthAdjust="spacingAndGlyphs" textLength="117" x="392" y="848.7998">振分け用商品リスト</text><polygon fill="#383838" points="676,879.6563,666,883.6563,676,887.6563,672,883.6563" style="stroke: #383838; stroke-width: 1.0;"/><line style="stroke: #383838; stroke-width: 1.0; stroke-dasharray: 2.0,2.0;" x1="670" x2="1237" y1="883.6563" y2="883.6563"/><text fill="#000000" font-family="sans-serif" font-size="13" lengthAdjust="spacingAndGlyphs" textLength="52" x="682" y="879.1514">ハンディ</text><polygon fill="#383838" points="1149,910.0078,1159,914.0078,1149,918.0078,1153,914.0078" style="stroke: #383838; stroke-width: 1.0;"/><line style="stroke: #383838; stroke-width: 1.0;" x1="250.5" x2="1155" y1="914.0078" y2="914.0078"/><text fill="#000000" font-family="sans-serif" font-size="13" lengthAdjust="spacingAndGlyphs" textLength="39" x="257.5" y="909.5029">納品書</text><polygon fill="#383838" points="1149,940.3594,1159,944.3594,1149,948.3594,1153,944.3594" style="stroke: #383838; stroke-width: 1.0;"/><line style="stroke: #383838; stroke-width: 1.0;" x1="1040" x2="1155" y1="944.3594" y2="944.3594"/><text fill="#000000" font-family="sans-serif" font-size="13" lengthAdjust="spacingAndGlyphs" textLength="65" x="1047" y="939.8545">佐川送り状</text><polygon fill="#383838" points="1182,970.7109,1172,974.7109,1182,978.7109,1178,974.7109" style="stroke: #383838; stroke-width: 1.0;"/><line style="stroke: #383838; stroke-width: 1.0;" x1="1176" x2="1242" y1="974.7109" y2="974.7109"/><text fill="#000000" font-family="sans-serif" font-size="13" lengthAdjust="spacingAndGlyphs" textLength="26" x="1188" y="970.2061">商品</text><polygon fill="#383838" points="1303,1001.0625,1313,1005.0625,1303,1009.0625,1307,1005.0625" style="stroke: #383838; stroke-width: 1.0;"/><line style="stroke: #383838; stroke-width: 1.0;" x1="1166" x2="1309" y1="1005.0625" y2="1005.0625"/><text fill="#000000" font-family="sans-serif" font-size="13" lengthAdjust="spacingAndGlyphs" textLength="78" x="1173" y="1000.5576">商品・納品書</text><polygon fill="#383838" points="1303,1031.4141,1313,1035.4141,1303,1039.4141,1307,1035.4141" style="stroke: #383838; stroke-width: 1.0;"/><line style="stroke: #383838; stroke-width: 1.0;" x1="1102" x2="1309" y1="1035.4141" y2="1035.4141"/><text fill="#000000" font-family="sans-serif" font-size="13" lengthAdjust="spacingAndGlyphs" textLength="91" x="1109" y="1030.9092">ネコポス送り状</text><polygon fill="#383838" points="958.5,1061.7656,948.5,1065.7656,958.5,1069.7656,954.5,1065.7656" style="stroke: #383838; stroke-width: 1.0;"/><line style="stroke: #383838; stroke-width: 1.0; stroke-dasharray: 2.0,2.0;" x1="952.5" x2="1314" y1="1065.7656" y2="1065.7656"/><text fill="#000000" font-family="sans-serif" font-size="13" lengthAdjust="spacingAndGlyphs" textLength="104" x="964.5" y="1061.2607">出荷商品チェック</text><polygon fill="#383838" points="1409,1092.1172,1419,1096.1172,1409,1100.1172,1413,1096.1172" style="stroke: #383838; stroke-width: 1.0;"/><line style="stroke: #383838; stroke-width: 1.0;" x1="1320" x2="1415" y1="1096.1172" y2="1096.1172"/><text fill="#000000" font-family="sans-serif" font-size="13" lengthAdjust="spacingAndGlyphs" textLength="72" x="1327" y="1091.6123">梱包済_商品</text><rect fill="#EEEEEE" filter="url(#fxac3pd)" height="3" style="stroke: #EEEEEE; stroke-width: 1.0;" width="1446" x="3" y="1125.6445"/><line style="stroke: #000000; stroke-width: 1.0;" x1="3" x2="1449" y1="1125.6445" y2="1125.6445"/><line style="stroke: #000000; stroke-width: 1.0;" x1="3" x2="1449" y1="1128.6445" y2="1128.6445"/><rect fill="#EEEEEE" filter="url(#fxac3pd)" height="24.3516" style="stroke: #000000; stroke-width: 2.0;" width="124" x="664" y="1114.4688"/><text fill="#000000" font-family="sans-serif" font-size="13" font-weight="bold" lengthAdjust="spacingAndGlyphs" textLength="106" x="670" y="1131.9639">16:00～ 出荷通知</text><polygon fill="#383838" points="266.5,1166.8203,256.5,1170.8203,266.5,1174.8203,262.5,1170.8203" style="stroke: #383838; stroke-width: 1.0;"/><line style="stroke: #383838; stroke-width: 1.0;" x1="260.5" x2="1039" y1="1170.8203" y2="1170.8203"/><text fill="#000000" font-family="sans-serif" font-size="13" lengthAdjust="spacingAndGlyphs" textLength="65" x="272.5" y="1166.3154">送り状番号</text><polygon fill="#383838" points="266.5,1197.1719,256.5,1201.1719,266.5,1205.1719,262.5,1201.1719" style="stroke: #383838; stroke-width: 1.0;"/><line style="stroke: #383838; stroke-width: 1.0;" x1="260.5" x2="1101" y1="1201.1719" y2="1201.1719"/><text fill="#000000" font-family="sans-serif" font-size="13" lengthAdjust="spacingAndGlyphs" textLength="65" x="272.5" y="1196.667">送り状番号</text><rect fill="none" height="109.4063" style="stroke: #000000; stroke-width: 2.0;" width="299" x="13" y="1216.5234"/><polygon fill="#EEEEEE" points="13,1216.5234,86,1216.5234,86,1224.5234,76,1234.5234,13,1234.5234,13,1216.5234" style="stroke: #000000; stroke-width: 2.0;"/><text fill="#000000" font-family="sans-serif" font-size="13" font-weight="bold" lengthAdjust="spacingAndGlyphs" textLength="28" x="28" y="1231.0186">loop</text><text fill="#000000" font-family="sans-serif" font-size="11" font-weight="bold" lengthAdjust="spacingAndGlyphs" textLength="74" x="101" y="1229.9424">[APIにて実行]</text><polygon fill="#383838" points="62,1252.875,52,1256.875,62,1260.875,58,1256.875" style="stroke: #383838; stroke-width: 1.0;"/><line style="stroke: #383838; stroke-width: 1.0;" x1="56" x2="244.5" y1="1256.875" y2="1256.875"/><text fill="#000000" font-family="sans-serif" font-size="13" lengthAdjust="spacingAndGlyphs" textLength="65" x="68" y="1252.3701">送り状番号</text><polygon fill="#383838" points="117,1283.2266,107,1287.2266,117,1291.2266,113,1287.2266" style="stroke: #383838; stroke-width: 1.0;"/><line style="stroke: #383838; stroke-width: 1.0;" x1="111" x2="244.5" y1="1287.2266" y2="1287.2266"/><text fill="#000000" font-family="sans-serif" font-size="13" lengthAdjust="spacingAndGlyphs" textLength="65" x="123" y="1282.7217">送り状番号</text><polygon fill="#383838" points="167.5,1313.5781,157.5,1317.5781,167.5,1321.5781,163.5,1317.5781" style="stroke: #383838; stroke-width: 1.0;"/><line style="stroke: #383838; stroke-width: 1.0;" x1="161.5" x2="249.5" y1="1317.5781" y2="1317.5781"/><text fill="#000000" font-family="sans-serif" font-size="13" lengthAdjust="spacingAndGlyphs" textLength="65" x="173.5" y="1313.0732">送り状番号</text></g></svg>