<?xml version="1.0" encoding="UTF-8" standalone="no"?><svg xmlns="http://www.w3.org/2000/svg" xmlns:xlink="http://www.w3.org/1999/xlink" contentScriptType="application/ecmascript" contentStyleType="text/css" height="1309px" preserveAspectRatio="none" style="width:1345px;height:1309px;" version="1.1" viewBox="0 0 1345 1309" width="1345px" zoomAndPan="magnify"><defs><filter height="300%" id="fet6vey" width="300%" x="-1" y="-1"><feGaussianBlur result="blurOut" stdDeviation="2.0"/><feColorMatrix in="blurOut" result="blurOut2" type="matrix" values="0 0 0 0 0 0 0 0 0 0 0 0 0 0 0 0 0 0 .4 0"/><feOffset dx="4.0" dy="4.0" in="blurOut2" result="blurOut3"/><feBlend in="SourceGraphic" in2="blurOut3" mode="normal"/></filter></defs><g><text fill="#000000" font-family="sans-serif" font-size="14" font-weight="bold" lengthAdjust="spacingAndGlyphs" textLength="199" x="572" y="24.5332">ネット販売 受注・発送の流れ</text><rect fill="#FFFFFF" filter="url(#fet6vey)" height="30.3516" style="stroke: #383838; stroke-width: 1.0;" width="10" x="46" y="155.5703"/><rect fill="#FFFFFF" filter="url(#fet6vey)" height="30.3516" style="stroke: #383838; stroke-width: 1.0;" width="10" x="101" y="216.2734"/><rect fill="#FFFFFF" filter="url(#fet6vey)" height="30.3516" style="stroke: #383838; stroke-width: 1.0;" width="10" x="151.5" y="276.9766"/><rect fill="#FFFFFF" filter="url(#fet6vey)" height="146.7578" style="stroke: #383838; stroke-width: 1.0;" width="10" x="245.5" y="1067.4141"/><rect fill="#FFFFFF" filter="url(#fet6vey)" height="164.7578" style="stroke: #383838; stroke-width: 1.0;" width="10" x="380" y="389.0313"/><rect fill="#FFFFFF" filter="url(#fet6vey)" height="91.0547" style="stroke: #383838; stroke-width: 1.0;" width="10" x="585" y="810.6016"/><rect fill="#FFFFFF" filter="url(#fet6vey)" height="60.7031" style="stroke: #383838; stroke-width: 1.0;" width="10" x="766" y="584.1406"/><rect fill="#FFFFFF" filter="url(#fet6vey)" height="91.0547" style="stroke: #383838; stroke-width: 1.0;" width="10" x="1129" y="780.25"/><rect fill="#FFFFFF" filter="url(#fet6vey)" height="91.0547" style="stroke: #383838; stroke-width: 1.0;" width="10" x="1206" y="901.6563"/><rect fill="#FFFFFF" filter="url(#fet6vey)" height="200.4609" style="stroke: #000000; stroke-width: 2.0;" width="299" x="13" y="115.2188"/><rect fill="#FFFFFF" filter="url(#fet6vey)" height="109.4063" style="stroke: #000000; stroke-width: 2.0;" width="299" x="13" y="1113.1172"/><line style="stroke: #383838; stroke-width: 1.0; stroke-dasharray: 5.0,5.0;" x1="51" x2="51" y1="98.2188" y2="1239.5234"/><line style="stroke: #383838; stroke-width: 1.0; stroke-dasharray: 5.0,5.0;" x1="106" x2="106" y1="98.2188" y2="1239.5234"/><line style="stroke: #383838; stroke-width: 1.0; stroke-dasharray: 5.0,5.0;" x1="156" x2="156" y1="98.2188" y2="1239.5234"/><line style="stroke: #383838; stroke-width: 1.0; stroke-dasharray: 5.0,5.0;" x1="250" x2="250" y1="98.2188" y2="1239.5234"/><line style="stroke: #383838; stroke-width: 1.0; stroke-dasharray: 5.0,5.0;" x1="385" x2="385" y1="98.2188" y2="1239.5234"/><line style="stroke: #383838; stroke-width: 1.0; stroke-dasharray: 5.0,5.0;" x1="527" x2="527" y1="98.2188" y2="1239.5234"/><line style="stroke: #383838; stroke-width: 1.0; stroke-dasharray: 5.0,5.0;" x1="590" x2="590" y1="98.2188" y2="1239.5234"/><line style="stroke: #383838; stroke-width: 1.0; stroke-dasharray: 5.0,5.0;" x1="652" x2="652" y1="98.2188" y2="1239.5234"/><line style="stroke: #383838; stroke-width: 1.0; stroke-dasharray: 5.0,5.0;" x1="771" x2="771" y1="98.2188" y2="1239.5234"/><line style="stroke: #383838; stroke-width: 1.0; stroke-dasharray: 5.0,5.0;" x1="908" x2="908" y1="98.2188" y2="1239.5234"/><line style="stroke: #383838; stroke-width: 1.0; stroke-dasharray: 5.0,5.0;" x1="987" x2="987" y1="98.2188" y2="1239.5234"/><line style="stroke: #383838; stroke-width: 1.0; stroke-dasharray: 5.0,5.0;" x1="1049" x2="1049" y1="98.2188" y2="1239.5234"/><line style="stroke: #383838; stroke-width: 1.0; stroke-dasharray: 5.0,5.0;" x1="1134" x2="1134" y1="98.2188" y2="1239.5234"/><line style="stroke: #383838; stroke-width: 1.0; stroke-dasharray: 5.0,5.0;" x1="1211" x2="1211" y1="98.2188" y2="1239.5234"/><line style="stroke: #383838; stroke-width: 1.0; stroke-dasharray: 5.0,5.0;" x1="1312" x2="1312" y1="98.2188" y2="1239.5234"/><text fill="#000000" font-family="sans-serif" font-size="14" lengthAdjust="spacingAndGlyphs" textLength="50" x="23" y="95.1426">Amazon</text><ellipse cx="51" cy="64.6094" fill="#F8F8F8" filter="url(#fet6vey)" rx="12" ry="12" style="stroke: #383838; stroke-width: 2.0;"/><line style="stroke: #383838; stroke-width: 2.0;" x1="39" x2="63" y1="78.6094" y2="78.6094"/><text fill="#000000" font-family="sans-serif" font-size="14" lengthAdjust="spacingAndGlyphs" textLength="50" x="23" y="1253.0566">Amazon</text><ellipse cx="51" cy="1272.1328" fill="#F8F8F8" filter="url(#fet6vey)" rx="12" ry="12" style="stroke: #383838; stroke-width: 2.0;"/><line style="stroke: #383838; stroke-width: 2.0;" x1="39" x2="63" y1="1286.1328" y2="1286.1328"/><text fill="#000000" font-family="sans-serif" font-size="14" lengthAdjust="spacingAndGlyphs" textLength="28" x="89" y="95.1426">楽天</text><ellipse cx="106" cy="64.6094" fill="#F8F8F8" filter="url(#fet6vey)" rx="12" ry="12" style="stroke: #383838; stroke-width: 2.0;"/><line style="stroke: #383838; stroke-width: 2.0;" x1="94" x2="118" y1="78.6094" y2="78.6094"/><text fill="#000000" font-family="sans-serif" font-size="14" lengthAdjust="spacingAndGlyphs" textLength="28" x="89" y="1253.0566">楽天</text><ellipse cx="106" cy="1272.1328" fill="#F8F8F8" filter="url(#fet6vey)" rx="12" ry="12" style="stroke: #383838; stroke-width: 2.0;"/><line style="stroke: #383838; stroke-width: 2.0;" x1="94" x2="118" y1="1286.1328" y2="1286.1328"/><text fill="#000000" font-family="sans-serif" font-size="14" lengthAdjust="spacingAndGlyphs" textLength="41" x="133" y="95.1426">Yahoo</text><ellipse cx="156.5" cy="64.6094" fill="#F8F8F8" filter="url(#fet6vey)" rx="12" ry="12" style="stroke: #383838; stroke-width: 2.0;"/><line style="stroke: #383838; stroke-width: 2.0;" x1="144.5" x2="168.5" y1="78.6094" y2="78.6094"/><text fill="#000000" font-family="sans-serif" font-size="14" lengthAdjust="spacingAndGlyphs" textLength="41" x="133" y="1253.0566">Yahoo</text><ellipse cx="156.5" cy="1272.1328" fill="#F8F8F8" filter="url(#fet6vey)" rx="12" ry="12" style="stroke: #383838; stroke-width: 2.0;"/><line style="stroke: #383838; stroke-width: 2.0;" x1="144.5" x2="168.5" y1="1286.1328" y2="1286.1328"/><rect fill="#F8F8F8" filter="url(#fet6vey)" height="31.6094" style="stroke: #383838; stroke-width: 1.5;" width="99" x="199" y="61.6094"/><text fill="#000000" font-family="sans-serif" font-size="14" lengthAdjust="spacingAndGlyphs" textLength="85" x="206" y="83.1426">CROSSMALL</text><rect fill="#F8F8F8" filter="url(#fet6vey)" height="31.6094" style="stroke: #383838; stroke-width: 1.5;" width="99" x="199" y="1238.5234"/><text fill="#000000" font-family="sans-serif" font-size="14" lengthAdjust="spacingAndGlyphs" textLength="85" x="206" y="1260.0566">CROSSMALL</text><text fill="#000000" font-family="sans-serif" font-size="14" lengthAdjust="spacingAndGlyphs" textLength="140" x="312" y="95.1426">ピッキングシート生成</text><path d="M364.5,52.6094 L364.5,76.6094 M364.5,64.6094 L381.5,64.6094 " fill="#F8F8F8" filter="url(#fet6vey)" style="stroke: #383838; stroke-width: 2.0;"/><ellipse cx="393.5" cy="64.6094" fill="#F8F8F8" filter="url(#fet6vey)" rx="12" ry="12" style="stroke: #383838; stroke-width: 2.0;"/><text fill="#000000" font-family="sans-serif" font-size="14" lengthAdjust="spacingAndGlyphs" textLength="140" x="312" y="1253.0566">ピッキングシート生成</text><path d="M364.5,1260.1328 L364.5,1284.1328 M364.5,1272.1328 L381.5,1272.1328 " fill="#F8F8F8" filter="url(#fet6vey)" style="stroke: #383838; stroke-width: 2.0;"/><ellipse cx="393.5" cy="1272.1328" fill="#F8F8F8" filter="url(#fet6vey)" rx="12" ry="12" style="stroke: #383838; stroke-width: 2.0;"/><rect fill="#F8F8F8" filter="url(#fet6vey)" height="31.6094" style="stroke: #383838; stroke-width: 1.5;" width="56" x="497" y="61.6094"/><text fill="#000000" font-family="sans-serif" font-size="14" lengthAdjust="spacingAndGlyphs" textLength="42" x="504" y="83.1426">電算室</text><rect fill="#F8F8F8" filter="url(#fet6vey)" height="31.6094" style="stroke: #383838; stroke-width: 1.5;" width="56" x="497" y="1238.5234"/><text fill="#000000" font-family="sans-serif" font-size="14" lengthAdjust="spacingAndGlyphs" textLength="42" x="504" y="1260.0566">電算室</text><rect fill="#F8F8F8" filter="url(#fet6vey)" height="31.6094" style="stroke: #383838; stroke-width: 1.5;" width="42" x="567" y="61.6094"/><text fill="#000000" font-family="sans-serif" font-size="14" lengthAdjust="spacingAndGlyphs" textLength="28" x="574" y="83.1426">振分</text><rect fill="#F8F8F8" filter="url(#fet6vey)" height="31.6094" style="stroke: #383838; stroke-width: 1.5;" width="42" x="567" y="1238.5234"/><text fill="#000000" font-family="sans-serif" font-size="14" lengthAdjust="spacingAndGlyphs" textLength="28" x="574" y="1260.0566">振分</text><rect fill="#F8F8F8" filter="url(#fet6vey)" height="31.6094" style="stroke: #383838; stroke-width: 1.5;" width="54" x="623" y="61.6094"/><text fill="#000000" font-family="sans-serif" font-size="14" lengthAdjust="spacingAndGlyphs" textLength="40" x="630" y="83.1426">SLIMS</text><rect fill="#F8F8F8" filter="url(#fet6vey)" height="31.6094" style="stroke: #383838; stroke-width: 1.5;" width="54" x="623" y="1238.5234"/><text fill="#000000" font-family="sans-serif" font-size="14" lengthAdjust="spacingAndGlyphs" textLength="40" x="630" y="1260.0566">SLIMS</text><text fill="#000000" font-family="sans-serif" font-size="14" lengthAdjust="spacingAndGlyphs" textLength="154" x="691" y="95.1426">受注チェックリスト生成</text><path d="M750.5,52.6094 L750.5,76.6094 M750.5,64.6094 L767.5,64.6094 " fill="#F8F8F8" filter="url(#fet6vey)" style="stroke: #383838; stroke-width: 2.0;"/><ellipse cx="779.5" cy="64.6094" fill="#F8F8F8" filter="url(#fet6vey)" rx="12" ry="12" style="stroke: #383838; stroke-width: 2.0;"/><text fill="#000000" font-family="sans-serif" font-size="14" lengthAdjust="spacingAndGlyphs" textLength="154" x="691" y="1253.0566">受注チェックリスト生成</text><path d="M750.5,1260.1328 L750.5,1284.1328 M750.5,1272.1328 L767.5,1272.1328 " fill="#F8F8F8" filter="url(#fet6vey)" style="stroke: #383838; stroke-width: 2.0;"/><ellipse cx="779.5" cy="1272.1328" fill="#F8F8F8" filter="url(#fet6vey)" rx="12" ry="12" style="stroke: #383838; stroke-width: 2.0;"/><text fill="#000000" font-family="sans-serif" font-size="14" lengthAdjust="spacingAndGlyphs" textLength="89" x="861" y="95.1426">ハンディ用DB</text><path d="M890.5,44.6094 C890.5,34.6094 908.5,34.6094 908.5,34.6094 C908.5,34.6094 926.5,34.6094 926.5,44.6094 L926.5,70.6094 C926.5,80.6094 908.5,80.6094 908.5,80.6094 C908.5,80.6094 890.5,80.6094 890.5,70.6094 L890.5,44.6094 " fill="#F8F8F8" filter="url(#fet6vey)" style="stroke: #000000; stroke-width: 1.5;"/><path d="M890.5,44.6094 C890.5,54.6094 908.5,54.6094 908.5,54.6094 C908.5,54.6094 926.5,54.6094 926.5,44.6094 " fill="none" style="stroke: #000000; stroke-width: 1.5;"/><text fill="#000000" font-family="sans-serif" font-size="14" lengthAdjust="spacingAndGlyphs" textLength="89" x="861" y="1253.0566">ハンディ用DB</text><path d="M890.5,1266.1328 C890.5,1256.1328 908.5,1256.1328 908.5,1256.1328 C908.5,1256.1328 926.5,1256.1328 926.5,1266.1328 L926.5,1292.1328 C926.5,1302.1328 908.5,1302.1328 908.5,1302.1328 C908.5,1302.1328 890.5,1302.1328 890.5,1292.1328 L890.5,1266.1328 " fill="#F8F8F8" filter="url(#fet6vey)" style="stroke: #000000; stroke-width: 1.5;"/><path d="M890.5,1266.1328 C890.5,1276.1328 908.5,1276.1328 908.5,1276.1328 C908.5,1276.1328 926.5,1276.1328 926.5,1266.1328 " fill="none" style="stroke: #000000; stroke-width: 1.5;"/><text fill="#000000" font-family="sans-serif" font-size="14" lengthAdjust="spacingAndGlyphs" textLength="36" x="966" y="95.1426">e飛伝</text><ellipse cx="987" cy="64.6094" fill="#F8F8F8" filter="url(#fet6vey)" rx="12" ry="12" style="stroke: #383838; stroke-width: 2.0;"/><line style="stroke: #383838; stroke-width: 2.0;" x1="975" x2="999" y1="78.6094" y2="78.6094"/><text fill="#000000" font-family="sans-serif" font-size="14" lengthAdjust="spacingAndGlyphs" textLength="36" x="966" y="1253.0566">e飛伝</text><ellipse cx="987" cy="1272.1328" fill="#F8F8F8" filter="url(#fet6vey)" rx="12" ry="12" style="stroke: #383838; stroke-width: 2.0;"/><line style="stroke: #383838; stroke-width: 2.0;" x1="975" x2="999" y1="1286.1328" y2="1286.1328"/><text fill="#000000" font-family="sans-serif" font-size="14" lengthAdjust="spacingAndGlyphs" textLength="56" x="1018" y="95.1426">ネコポス</text><ellipse cx="1049" cy="64.6094" fill="#F8F8F8" filter="url(#fet6vey)" rx="12" ry="12" style="stroke: #383838; stroke-width: 2.0;"/><line style="stroke: #383838; stroke-width: 2.0;" x1="1037" x2="1061" y1="78.6094" y2="78.6094"/><text fill="#000000" font-family="sans-serif" font-size="14" lengthAdjust="spacingAndGlyphs" textLength="56" x="1018" y="1253.0566">ネコポス</text><ellipse cx="1049" cy="1272.1328" fill="#F8F8F8" filter="url(#fet6vey)" rx="12" ry="12" style="stroke: #383838; stroke-width: 2.0;"/><line style="stroke: #383838; stroke-width: 2.0;" x1="1037" x2="1061" y1="1286.1328" y2="1286.1328"/><rect fill="#F8F8F8" filter="url(#fet6vey)" height="31.6094" style="stroke: #383838; stroke-width: 1.5;" width="84" x="1090" y="61.6094"/><text fill="#000000" font-family="sans-serif" font-size="14" lengthAdjust="spacingAndGlyphs" textLength="70" x="1097" y="83.1426">ピッキング</text><rect fill="#F8F8F8" filter="url(#fet6vey)" height="31.6094" style="stroke: #383838; stroke-width: 1.5;" width="84" x="1090" y="1238.5234"/><text fill="#000000" font-family="sans-serif" font-size="14" lengthAdjust="spacingAndGlyphs" textLength="70" x="1097" y="1260.0566">ピッキング</text><rect fill="#F8F8F8" filter="url(#fet6vey)" height="31.6094" style="stroke: #383838; stroke-width: 1.5;" width="42" x="1188" y="61.6094"/><text fill="#000000" font-family="sans-serif" font-size="14" lengthAdjust="spacingAndGlyphs" textLength="28" x="1195" y="83.1426">梱包</text><rect fill="#F8F8F8" filter="url(#fet6vey)" height="31.6094" style="stroke: #383838; stroke-width: 1.5;" width="42" x="1188" y="1238.5234"/><text fill="#000000" font-family="sans-serif" font-size="14" lengthAdjust="spacingAndGlyphs" textLength="28" x="1195" y="1260.0566">梱包</text><rect fill="#F8F8F8" filter="url(#fet6vey)" height="31.6094" style="stroke: #383838; stroke-width: 1.5;" width="42" x="1289" y="61.6094"/><text fill="#000000" font-family="sans-serif" font-size="14" lengthAdjust="spacingAndGlyphs" textLength="28" x="1296" y="83.1426">出荷</text><rect fill="#F8F8F8" filter="url(#fet6vey)" height="31.6094" style="stroke: #383838; stroke-width: 1.5;" width="42" x="1289" y="1238.5234"/><text fill="#000000" font-family="sans-serif" font-size="14" lengthAdjust="spacingAndGlyphs" textLength="28" x="1296" y="1260.0566">出荷</text><rect fill="#FFFFFF" filter="url(#fet6vey)" height="30.3516" style="stroke: #383838; stroke-width: 1.0;" width="10" x="46" y="155.5703"/><rect fill="#FFFFFF" filter="url(#fet6vey)" height="30.3516" style="stroke: #383838; stroke-width: 1.0;" width="10" x="101" y="216.2734"/><rect fill="#FFFFFF" filter="url(#fet6vey)" height="30.3516" style="stroke: #383838; stroke-width: 1.0;" width="10" x="151.5" y="276.9766"/><rect fill="#FFFFFF" filter="url(#fet6vey)" height="146.7578" style="stroke: #383838; stroke-width: 1.0;" width="10" x="245.5" y="1067.4141"/><rect fill="#FFFFFF" filter="url(#fet6vey)" height="164.7578" style="stroke: #383838; stroke-width: 1.0;" width="10" x="380" y="389.0313"/><rect fill="#FFFFFF" filter="url(#fet6vey)" height="91.0547" style="stroke: #383838; stroke-width: 1.0;" width="10" x="585" y="810.6016"/><rect fill="#FFFFFF" filter="url(#fet6vey)" height="60.7031" style="stroke: #383838; stroke-width: 1.0;" width="10" x="766" y="584.1406"/><rect fill="#FFFFFF" filter="url(#fet6vey)" height="91.0547" style="stroke: #383838; stroke-width: 1.0;" width="10" x="1129" y="780.25"/><rect fill="#FFFFFF" filter="url(#fet6vey)" height="91.0547" style="stroke: #383838; stroke-width: 1.0;" width="10" x="1206" y="901.6563"/><rect fill="none" height="200.4609" style="stroke: #000000; stroke-width: 2.0;" width="299" x="13" y="115.2188"/><polygon fill="#EEEEEE" points="13,115.2188,86,115.2188,86,123.2188,76,133.2188,13,133.2188,13,115.2188" style="stroke: #000000; stroke-width: 2.0;"/><text fill="#000000" font-family="sans-serif" font-size="13" font-weight="bold" lengthAdjust="spacingAndGlyphs" textLength="28" x="28" y="129.7139">loop</text><text fill="#000000" font-family="sans-serif" font-size="11" font-weight="bold" lengthAdjust="spacingAndGlyphs" textLength="56" x="101" y="128.6377">[常時取得]</text><polygon fill="#383838" points="67,151.5703,57,155.5703,67,159.5703,63,155.5703" style="stroke: #383838; stroke-width: 1.0;"/><line style="stroke: #383838; stroke-width: 1.0;" x1="61" x2="249.5" y1="155.5703" y2="155.5703"/><text fill="#000000" font-family="sans-serif" font-size="13" lengthAdjust="spacingAndGlyphs" textLength="21" x="73" y="151.0654">API</text><polygon fill="#383838" points="238.5,181.9219,248.5,185.9219,238.5,189.9219,242.5,185.9219" style="stroke: #383838; stroke-width: 1.0;"/><line style="stroke: #383838; stroke-width: 1.0; stroke-dasharray: 2.0,2.0;" x1="51" x2="244.5" y1="185.9219" y2="185.9219"/><text fill="#000000" font-family="sans-serif" font-size="13" lengthAdjust="spacingAndGlyphs" textLength="65" x="58" y="181.417">受注データ</text><polygon fill="#383838" points="122,212.2734,112,216.2734,122,220.2734,118,216.2734" style="stroke: #383838; stroke-width: 1.0;"/><line style="stroke: #383838; stroke-width: 1.0;" x1="116" x2="249.5" y1="216.2734" y2="216.2734"/><text fill="#000000" font-family="sans-serif" font-size="13" lengthAdjust="spacingAndGlyphs" textLength="21" x="128" y="211.7686">API</text><polygon fill="#383838" points="238.5,242.625,248.5,246.625,238.5,250.625,242.5,246.625" style="stroke: #383838; stroke-width: 1.0;"/><line style="stroke: #383838; stroke-width: 1.0; stroke-dasharray: 2.0,2.0;" x1="106" x2="244.5" y1="246.625" y2="246.625"/><text fill="#000000" font-family="sans-serif" font-size="13" lengthAdjust="spacingAndGlyphs" textLength="65" x="113" y="242.1201">受注データ</text><polygon fill="#383838" points="172.5,272.9766,162.5,276.9766,172.5,280.9766,168.5,276.9766" style="stroke: #383838; stroke-width: 1.0;"/><line style="stroke: #383838; stroke-width: 1.0;" x1="166.5" x2="249.5" y1="276.9766" y2="276.9766"/><text fill="#000000" font-family="sans-serif" font-size="13" lengthAdjust="spacingAndGlyphs" textLength="21" x="178.5" y="272.4717">API</text><polygon fill="#383838" points="238.5,303.3281,248.5,307.3281,238.5,311.3281,242.5,307.3281" style="stroke: #383838; stroke-width: 1.0;"/><line style="stroke: #383838; stroke-width: 1.0; stroke-dasharray: 2.0,2.0;" x1="156.5" x2="244.5" y1="307.3281" y2="307.3281"/><text fill="#000000" font-family="sans-serif" font-size="13" lengthAdjust="spacingAndGlyphs" textLength="65" x="163.5" y="302.8232">受注データ</text><rect fill="#EEEEEE" filter="url(#fet6vey)" height="3" style="stroke: #EEEEEE; stroke-width: 1.0;" width="1337" x="3" y="343.8555"/><line style="stroke: #000000; stroke-width: 1.0;" x1="3" x2="1340" y1="343.8555" y2="343.8555"/><line style="stroke: #000000; stroke-width: 1.0;" x1="3" x2="1340" y1="346.8555" y2="346.8555"/><rect fill="#EEEEEE" filter="url(#fet6vey)" height="24.3516" style="stroke: #000000; stroke-width: 2.0;" width="121" x="611" y="332.6797"/><text fill="#000000" font-family="sans-serif" font-size="13" font-weight="bold" lengthAdjust="spacingAndGlyphs" textLength="103" x="617" y="350.1748">8:00 ～ 受注取込</text><polygon fill="#383838" points="368,385.0313,378,389.0313,368,393.0313,372,389.0313" style="stroke: #383838; stroke-width: 1.0;"/><line style="stroke: #383838; stroke-width: 1.0;" x1="250.5" x2="374" y1="389.0313" y2="389.0313"/><text fill="#000000" font-family="sans-serif" font-size="13" lengthAdjust="spacingAndGlyphs" textLength="27" x="257.5" y="384.5264">CSV</text><line style="stroke: #383838; stroke-width: 1.0;" x1="390" x2="432" y1="419.7344" y2="419.7344"/><line style="stroke: #383838; stroke-width: 1.0;" x1="432" x2="432" y1="419.7344" y2="432.7344"/><line style="stroke: #383838; stroke-width: 1.0;" x1="391" x2="432" y1="432.7344" y2="432.7344"/><polygon fill="#383838" points="401,428.7344,391,432.7344,401,436.7344,397,432.7344" style="stroke: #383838; stroke-width: 1.0;"/><text fill="#000000" font-family="sans-serif" font-size="13" lengthAdjust="spacingAndGlyphs" textLength="65" x="397" y="414.8779">セット分解</text><polygon fill="#383838" points="515,458.7344,525,462.7344,515,466.7344,519,462.7344" style="stroke: #383838; stroke-width: 1.0;"/><line style="stroke: #383838; stroke-width: 1.0;" x1="390" x2="521" y1="462.7344" y2="462.7344"/><text fill="#000000" font-family="sans-serif" font-size="13" lengthAdjust="spacingAndGlyphs" textLength="113" x="397" y="458.2295">Amazonピッキング</text><polygon fill="#383838" points="515,489.0859,525,493.0859,515,497.0859,519,493.0859" style="stroke: #383838; stroke-width: 1.0;"/><line style="stroke: #383838; stroke-width: 1.0;" x1="390" x2="521" y1="493.0859" y2="493.0859"/><text fill="#000000" font-family="sans-serif" font-size="13" lengthAdjust="spacingAndGlyphs" textLength="91" x="397" y="488.5811">楽天ピッキング</text><polygon fill="#383838" points="515,519.4375,525,523.4375,515,527.4375,519,523.4375" style="stroke: #383838; stroke-width: 1.0;"/><line style="stroke: #383838; stroke-width: 1.0;" x1="390" x2="521" y1="523.4375" y2="523.4375"/><text fill="#000000" font-family="sans-serif" font-size="13" lengthAdjust="spacingAndGlyphs" textLength="102" x="397" y="518.9326">Yahooピッキング</text><polygon fill="#383838" points="578,549.7891,588,553.7891,578,557.7891,582,553.7891" style="stroke: #383838; stroke-width: 1.0;"/><line style="stroke: #383838; stroke-width: 1.0;" x1="385" x2="584" y1="553.7891" y2="553.7891"/><text fill="#000000" font-family="sans-serif" font-size="13" lengthAdjust="spacingAndGlyphs" textLength="117" x="392" y="549.2842">振分け用商品リスト</text><polygon fill="#383838" points="640,580.1406,650,584.1406,640,588.1406,644,584.1406" style="stroke: #383838; stroke-width: 1.0;"/><line style="stroke: #383838; stroke-width: 1.0;" x1="527" x2="646" y1="584.1406" y2="584.1406"/><text fill="#000000" font-family="sans-serif" font-size="13" lengthAdjust="spacingAndGlyphs" textLength="44" x="534" y="579.6357">DB投入</text><polygon fill="#383838" points="396,610.4922,386,614.4922,396,618.4922,392,614.4922" style="stroke: #383838; stroke-width: 1.0;"/><line style="stroke: #383838; stroke-width: 1.0;" x1="390" x2="765" y1="614.4922" y2="614.4922"/><text fill="#000000" font-family="sans-serif" font-size="13" lengthAdjust="spacingAndGlyphs" textLength="91" x="402" y="609.9873">楽天データ取得</text><polygon fill="#383838" points="896.5,640.8438,906.5,644.8438,896.5,648.8438,900.5,644.8438" style="stroke: #383838; stroke-width: 1.0;"/><line style="stroke: #383838; stroke-width: 1.0;" x1="771" x2="902.5" y1="644.8438" y2="644.8438"/><text fill="#000000" font-family="sans-serif" font-size="13" lengthAdjust="spacingAndGlyphs" textLength="44" x="778" y="640.3389">DB投入</text><polygon fill="#383838" points="975,671.1953,985,675.1953,975,679.1953,979,675.1953" style="stroke: #383838; stroke-width: 1.0;"/><line style="stroke: #383838; stroke-width: 1.0;" x1="250.5" x2="981" y1="675.1953" y2="675.1953"/><text fill="#000000" font-family="sans-serif" font-size="13" lengthAdjust="spacingAndGlyphs" textLength="67" x="257.5" y="670.6904">CSV_e飛伝</text><polygon fill="#383838" points="1037,701.5469,1047,705.5469,1037,709.5469,1041,705.5469" style="stroke: #383838; stroke-width: 1.0;"/><line style="stroke: #383838; stroke-width: 1.0;" x1="250.5" x2="1043" y1="705.5469" y2="705.5469"/><text fill="#000000" font-family="sans-serif" font-size="13" lengthAdjust="spacingAndGlyphs" textLength="89" x="257.5" y="701.042">CSV_ヤマトB2</text><rect fill="#EEEEEE" filter="url(#fet6vey)" height="3" style="stroke: #EEEEEE; stroke-width: 1.0;" width="1337" x="3" y="735.0742"/><line style="stroke: #000000; stroke-width: 1.0;" x1="3" x2="1340" y1="735.0742" y2="735.0742"/><line style="stroke: #000000; stroke-width: 1.0;" x1="3" x2="1340" y1="738.0742" y2="738.0742"/><rect fill="#EEEEEE" filter="url(#fet6vey)" height="24.3516" style="stroke: #000000; stroke-width: 2.0;" width="131" x="606" y="723.8984"/><text fill="#000000" font-family="sans-serif" font-size="13" font-weight="bold" lengthAdjust="spacingAndGlyphs" textLength="113" x="612" y="741.3936">9:30～ 振分・梱包</text><polygon fill="#383838" points="663,776.25,653,780.25,663,784.25,659,780.25" style="stroke: #383838; stroke-width: 1.0;"/><line style="stroke: #383838; stroke-width: 1.0; stroke-dasharray: 2.0,2.0;" x1="657" x2="1128" y1="780.25" y2="780.25"/><text fill="#000000" font-family="sans-serif" font-size="13" lengthAdjust="spacingAndGlyphs" textLength="52" x="669" y="775.7451">ハンディ</text><polygon fill="#383838" points="606,806.6016,596,810.6016,606,814.6016,602,810.6016" style="stroke: #383838; stroke-width: 1.0;"/><line style="stroke: #383838; stroke-width: 1.0;" x1="600" x2="986" y1="810.6016" y2="810.6016"/><text fill="#000000" font-family="sans-serif" font-size="13" lengthAdjust="spacingAndGlyphs" textLength="65" x="612" y="806.0967">佐川送り状</text><polygon fill="#383838" points="573,836.9531,583,840.9531,573,844.9531,577,840.9531" style="stroke: #383838; stroke-width: 1.0;"/><line style="stroke: #383838; stroke-width: 1.0;" x1="250.5" x2="579" y1="840.9531" y2="840.9531"/><text fill="#000000" font-family="sans-serif" font-size="13" lengthAdjust="spacingAndGlyphs" textLength="39" x="257.5" y="836.4482">納品書</text><polygon fill="#383838" points="606,867.3047,596,871.3047,606,875.3047,602,871.3047" style="stroke: #383838; stroke-width: 1.0;"/><line style="stroke: #383838; stroke-width: 1.0;" x1="600" x2="1133" y1="871.3047" y2="871.3047"/><text fill="#000000" font-family="sans-serif" font-size="13" lengthAdjust="spacingAndGlyphs" textLength="26" x="612" y="866.7998">商品</text><polygon fill="#383838" points="1194,897.6563,1204,901.6563,1194,905.6563,1198,901.6563" style="stroke: #383838; stroke-width: 1.0;"/><line style="stroke: #383838; stroke-width: 1.0;" x1="590" x2="1200" y1="901.6563" y2="901.6563"/><text fill="#000000" font-family="sans-serif" font-size="13" lengthAdjust="spacingAndGlyphs" textLength="78" x="597" y="897.1514">商品・納品書</text><polygon fill="#383838" points="1194,928.0078,1204,932.0078,1194,936.0078,1198,932.0078" style="stroke: #383838; stroke-width: 1.0;"/><line style="stroke: #383838; stroke-width: 1.0;" x1="1049" x2="1200" y1="932.0078" y2="932.0078"/><text fill="#000000" font-family="sans-serif" font-size="13" lengthAdjust="spacingAndGlyphs" textLength="91" x="1056" y="927.5029">ネコポス送り状</text><polygon fill="#383838" points="919.5,958.3594,909.5,962.3594,919.5,966.3594,915.5,962.3594" style="stroke: #383838; stroke-width: 1.0;"/><line style="stroke: #383838; stroke-width: 1.0; stroke-dasharray: 2.0,2.0;" x1="913.5" x2="1205" y1="962.3594" y2="962.3594"/><text fill="#000000" font-family="sans-serif" font-size="13" lengthAdjust="spacingAndGlyphs" textLength="169" x="925.5" y="957.8545">注文内容・出荷商品チェック</text><polygon fill="#383838" points="1300,988.7109,1310,992.7109,1300,996.7109,1304,992.7109" style="stroke: #383838; stroke-width: 1.0;"/><line style="stroke: #383838; stroke-width: 1.0;" x1="1211" x2="1306" y1="992.7109" y2="992.7109"/><text fill="#000000" font-family="sans-serif" font-size="13" lengthAdjust="spacingAndGlyphs" textLength="72" x="1218" y="988.2061">梱包済_商品</text><rect fill="#EEEEEE" filter="url(#fet6vey)" height="3" style="stroke: #EEEEEE; stroke-width: 1.0;" width="1337" x="3" y="1022.2383"/><line style="stroke: #000000; stroke-width: 1.0;" x1="3" x2="1340" y1="1022.2383" y2="1022.2383"/><line style="stroke: #000000; stroke-width: 1.0;" x1="3" x2="1340" y1="1025.2383" y2="1025.2383"/><rect fill="#EEEEEE" filter="url(#fet6vey)" height="24.3516" style="stroke: #000000; stroke-width: 2.0;" width="124" x="609.5" y="1011.0625"/><text fill="#000000" font-family="sans-serif" font-size="13" font-weight="bold" lengthAdjust="spacingAndGlyphs" textLength="106" x="615.5" y="1028.5576">16:00～ 出荷通知</text><polygon fill="#383838" points="266.5,1063.4141,256.5,1067.4141,266.5,1071.4141,262.5,1067.4141" style="stroke: #383838; stroke-width: 1.0;"/><line style="stroke: #383838; stroke-width: 1.0;" x1="260.5" x2="986" y1="1067.4141" y2="1067.4141"/><text fill="#000000" font-family="sans-serif" font-size="13" lengthAdjust="spacingAndGlyphs" textLength="65" x="272.5" y="1062.9092">送り状番号</text><polygon fill="#383838" points="266.5,1093.7656,256.5,1097.7656,266.5,1101.7656,262.5,1097.7656" style="stroke: #383838; stroke-width: 1.0;"/><line style="stroke: #383838; stroke-width: 1.0;" x1="260.5" x2="1048" y1="1097.7656" y2="1097.7656"/><text fill="#000000" font-family="sans-serif" font-size="13" lengthAdjust="spacingAndGlyphs" textLength="65" x="272.5" y="1093.2607">送り状番号</text><rect fill="none" height="109.4063" style="stroke: #000000; stroke-width: 2.0;" width="299" x="13" y="1113.1172"/><polygon fill="#EEEEEE" points="13,1113.1172,86,1113.1172,86,1121.1172,76,1131.1172,13,1131.1172,13,1113.1172" style="stroke: #000000; stroke-width: 2.0;"/><text fill="#000000" font-family="sans-serif" font-size="13" font-weight="bold" lengthAdjust="spacingAndGlyphs" textLength="28" x="28" y="1127.6123">loop</text><text fill="#000000" font-family="sans-serif" font-size="11" font-weight="bold" lengthAdjust="spacingAndGlyphs" textLength="74" x="101" y="1126.5361">[APIにて実行]</text><polygon fill="#383838" points="62,1149.4688,52,1153.4688,62,1157.4688,58,1153.4688" style="stroke: #383838; stroke-width: 1.0;"/><line style="stroke: #383838; stroke-width: 1.0;" x1="56" x2="244.5" y1="1153.4688" y2="1153.4688"/><text fill="#000000" font-family="sans-serif" font-size="13" lengthAdjust="spacingAndGlyphs" textLength="65" x="68" y="1148.9639">送り状番号</text><polygon fill="#383838" points="117,1179.8203,107,1183.8203,117,1187.8203,113,1183.8203" style="stroke: #383838; stroke-width: 1.0;"/><line style="stroke: #383838; stroke-width: 1.0;" x1="111" x2="244.5" y1="1183.8203" y2="1183.8203"/><text fill="#000000" font-family="sans-serif" font-size="13" lengthAdjust="spacingAndGlyphs" textLength="65" x="123" y="1179.3154">送り状番号</text><polygon fill="#383838" points="167.5,1210.1719,157.5,1214.1719,167.5,1218.1719,163.5,1214.1719" style="stroke: #383838; stroke-width: 1.0;"/><line style="stroke: #383838; stroke-width: 1.0;" x1="161.5" x2="249.5" y1="1214.1719" y2="1214.1719"/><text fill="#000000" font-family="sans-serif" font-size="13" lengthAdjust="spacingAndGlyphs" textLength="65" x="173.5" y="1209.667">送り状番号</text></g></svg>