<?xml version="1.0" encoding="UTF-8" standalone="no"?><svg xmlns="http://www.w3.org/2000/svg" xmlns:xlink="http://www.w3.org/1999/xlink" contentScriptType="application/ecmascript" contentStyleType="text/css" height="1469px" preserveAspectRatio="none" style="width:1442px;height:1469px;" version="1.1" viewBox="0 0 1442 1469" width="1442px" zoomAndPan="magnify"><defs><filter height="300%" id="fr6fd8i" width="300%" x="-1" y="-1"><feGaussianBlur result="blurOut" stdDeviation="2.0"/><feColorMatrix in="blurOut" result="blurOut2" type="matrix" values="0 0 0 0 0 0 0 0 0 0 0 0 0 0 0 0 0 0 .4 0"/><feOffset dx="4.0" dy="4.0" in="blurOut2" result="blurOut3"/><feBlend in="SourceGraphic" in2="blurOut3" mode="normal"/></filter></defs><g><text fill="#000000" font-family="sans-serif" font-size="14" font-weight="bold" lengthAdjust="spacingAndGlyphs" textLength="199" x="620.5" y="24.5332">ネット販売 受注・発送の流れ</text><rect fill="#FFFFFF" filter="url(#fr6fd8i)" height="30.3516" style="stroke: #383838; stroke-width: 1.0;" width="10" x="46" y="155.5703"/><rect fill="#FFFFFF" filter="url(#fr6fd8i)" height="30.3516" style="stroke: #383838; stroke-width: 1.0;" width="10" x="101" y="216.2734"/><rect fill="#FFFFFF" filter="url(#fr6fd8i)" height="30.3516" style="stroke: #383838; stroke-width: 1.0;" width="10" x="151.5" y="276.9766"/><rect fill="#FFFFFF" filter="url(#fr6fd8i)" height="146.7578" style="stroke: #383838; stroke-width: 1.0;" width="10" x="245.5" y="1227.5234"/><rect fill="#FFFFFF" filter="url(#fr6fd8i)" height="273.1641" style="stroke: #383838; stroke-width: 1.0;" width="10" x="380" y="440.7344"/><rect fill="#FFFFFF" filter="url(#fr6fd8i)" height="30.3516" style="stroke: #383838; stroke-width: 1.0;" width="10" x="641" y="744.25"/><rect fill="#FFFFFF" filter="url(#fr6fd8i)" height="91.0547" style="stroke: #383838; stroke-width: 1.0;" width="10" x="1149" y="970.7109"/><rect fill="#FFFFFF" filter="url(#fr6fd8i)" height="91.0547" style="stroke: #383838; stroke-width: 1.0;" width="10" x="1226" y="940.3594"/><rect fill="#FFFFFF" filter="url(#fr6fd8i)" height="91.0547" style="stroke: #383838; stroke-width: 1.0;" width="10" x="1303" y="1061.7656"/><rect fill="#FFFFFF" filter="url(#fr6fd8i)" height="200.4609" style="stroke: #000000; stroke-width: 2.0;" width="299" x="13" y="115.2188"/><rect fill="#FFFFFF" filter="url(#fr6fd8i)" height="109.4063" style="stroke: #000000; stroke-width: 2.0;" width="299" x="13" y="1273.2266"/><line style="stroke: #383838; stroke-width: 1.0; stroke-dasharray: 5.0,5.0;" x1="51" x2="51" y1="98.2188" y2="1399.6328"/><line style="stroke: #383838; stroke-width: 1.0; stroke-dasharray: 5.0,5.0;" x1="106" x2="106" y1="98.2188" y2="1399.6328"/><line style="stroke: #383838; stroke-width: 1.0; stroke-dasharray: 5.0,5.0;" x1="156" x2="156" y1="98.2188" y2="1399.6328"/><line style="stroke: #383838; stroke-width: 1.0; stroke-dasharray: 5.0,5.0;" x1="250" x2="250" y1="98.2188" y2="1399.6328"/><line style="stroke: #383838; stroke-width: 1.0; stroke-dasharray: 5.0,5.0;" x1="385" x2="385" y1="98.2188" y2="1399.6328"/><line style="stroke: #383838; stroke-width: 1.0; stroke-dasharray: 5.0,5.0;" x1="518" x2="518" y1="98.2188" y2="1399.6328"/><line style="stroke: #383838; stroke-width: 1.0; stroke-dasharray: 5.0,5.0;" x1="646" x2="646" y1="98.2188" y2="1399.6328"/><line style="stroke: #383838; stroke-width: 1.0; stroke-dasharray: 5.0,5.0;" x1="766" x2="766" y1="98.2188" y2="1399.6328"/><line style="stroke: #383838; stroke-width: 1.0; stroke-dasharray: 5.0,5.0;" x1="835" x2="835" y1="98.2188" y2="1399.6328"/><line style="stroke: #383838; stroke-width: 1.0; stroke-dasharray: 5.0,5.0;" x1="935" x2="935" y1="98.2188" y2="1399.6328"/><line style="stroke: #383838; stroke-width: 1.0; stroke-dasharray: 5.0,5.0;" x1="1028" x2="1028" y1="98.2188" y2="1399.6328"/><line style="stroke: #383838; stroke-width: 1.0; stroke-dasharray: 5.0,5.0;" x1="1090" x2="1090" y1="98.2188" y2="1399.6328"/><line style="stroke: #383838; stroke-width: 1.0; stroke-dasharray: 5.0,5.0;" x1="1154" x2="1154" y1="98.2188" y2="1399.6328"/><line style="stroke: #383838; stroke-width: 1.0; stroke-dasharray: 5.0,5.0;" x1="1231" x2="1231" y1="98.2188" y2="1399.6328"/><line style="stroke: #383838; stroke-width: 1.0; stroke-dasharray: 5.0,5.0;" x1="1308" x2="1308" y1="98.2188" y2="1399.6328"/><line style="stroke: #383838; stroke-width: 1.0; stroke-dasharray: 5.0,5.0;" x1="1409" x2="1409" y1="98.2188" y2="1399.6328"/><text fill="#000000" font-family="sans-serif" font-size="14" lengthAdjust="spacingAndGlyphs" textLength="50" x="23" y="95.1426">Amazon</text><ellipse cx="51" cy="64.6094" fill="#F8F8F8" filter="url(#fr6fd8i)" rx="12" ry="12" style="stroke: #383838; stroke-width: 2.0;"/><line style="stroke: #383838; stroke-width: 2.0;" x1="39" x2="63" y1="78.6094" y2="78.6094"/><text fill="#000000" font-family="sans-serif" font-size="14" lengthAdjust="spacingAndGlyphs" textLength="50" x="23" y="1413.166">Amazon</text><ellipse cx="51" cy="1432.2422" fill="#F8F8F8" filter="url(#fr6fd8i)" rx="12" ry="12" style="stroke: #383838; stroke-width: 2.0;"/><line style="stroke: #383838; stroke-width: 2.0;" x1="39" x2="63" y1="1446.2422" y2="1446.2422"/><text fill="#000000" font-family="sans-serif" font-size="14" lengthAdjust="spacingAndGlyphs" textLength="28" x="89" y="95.1426">楽天</text><ellipse cx="106" cy="64.6094" fill="#F8F8F8" filter="url(#fr6fd8i)" rx="12" ry="12" style="stroke: #383838; stroke-width: 2.0;"/><line style="stroke: #383838; stroke-width: 2.0;" x1="94" x2="118" y1="78.6094" y2="78.6094"/><text fill="#000000" font-family="sans-serif" font-size="14" lengthAdjust="spacingAndGlyphs" textLength="28" x="89" y="1413.166">楽天</text><ellipse cx="106" cy="1432.2422" fill="#F8F8F8" filter="url(#fr6fd8i)" rx="12" ry="12" style="stroke: #383838; stroke-width: 2.0;"/><line style="stroke: #383838; stroke-width: 2.0;" x1="94" x2="118" y1="1446.2422" y2="1446.2422"/><text fill="#000000" font-family="sans-serif" font-size="14" lengthAdjust="spacingAndGlyphs" textLength="41" x="133" y="95.1426">Yahoo</text><ellipse cx="156.5" cy="64.6094" fill="#F8F8F8" filter="url(#fr6fd8i)" rx="12" ry="12" style="stroke: #383838; stroke-width: 2.0;"/><line style="stroke: #383838; stroke-width: 2.0;" x1="144.5" x2="168.5" y1="78.6094" y2="78.6094"/><text fill="#000000" font-family="sans-serif" font-size="14" lengthAdjust="spacingAndGlyphs" textLength="41" x="133" y="1413.166">Yahoo</text><ellipse cx="156.5" cy="1432.2422" fill="#F8F8F8" filter="url(#fr6fd8i)" rx="12" ry="12" style="stroke: #383838; stroke-width: 2.0;"/><line style="stroke: #383838; stroke-width: 2.0;" x1="144.5" x2="168.5" y1="1446.2422" y2="1446.2422"/><rect fill="#F8F8F8" filter="url(#fr6fd8i)" height="31.6094" style="stroke: #383838; stroke-width: 1.5;" width="99" x="199" y="61.6094"/><text fill="#000000" font-family="sans-serif" font-size="14" lengthAdjust="spacingAndGlyphs" textLength="85" x="206" y="83.1426">CROSSMALL</text><rect fill="#F8F8F8" filter="url(#fr6fd8i)" height="31.6094" style="stroke: #383838; stroke-width: 1.5;" width="99" x="199" y="1398.6328"/><text fill="#000000" font-family="sans-serif" font-size="14" lengthAdjust="spacingAndGlyphs" textLength="85" x="206" y="1420.166">CROSSMALL</text><text fill="#000000" font-family="sans-serif" font-size="14" lengthAdjust="spacingAndGlyphs" textLength="140" x="312" y="95.1426">ピッキングシート生成</text><path d="M364.5,52.6094 L364.5,76.6094 M364.5,64.6094 L381.5,64.6094 " fill="#F8F8F8" filter="url(#fr6fd8i)" style="stroke: #383838; stroke-width: 2.0;"/><ellipse cx="393.5" cy="64.6094" fill="#F8F8F8" filter="url(#fr6fd8i)" rx="12" ry="12" style="stroke: #383838; stroke-width: 2.0;"/><text fill="#000000" font-family="sans-serif" font-size="14" lengthAdjust="spacingAndGlyphs" textLength="140" x="312" y="1413.166">ピッキングシート生成</text><path d="M364.5,1420.2422 L364.5,1444.2422 M364.5,1432.2422 L381.5,1432.2422 " fill="#F8F8F8" filter="url(#fr6fd8i)" style="stroke: #383838; stroke-width: 2.0;"/><ellipse cx="393.5" cy="1432.2422" fill="#F8F8F8" filter="url(#fr6fd8i)" rx="12" ry="12" style="stroke: #383838; stroke-width: 2.0;"/><text fill="#000000" font-family="sans-serif" font-size="14" lengthAdjust="spacingAndGlyphs" textLength="70" x="480" y="95.1426">商品マスタ</text><path d="M500,44.6094 C500,34.6094 518,34.6094 518,34.6094 C518,34.6094 536,34.6094 536,44.6094 L536,70.6094 C536,80.6094 518,80.6094 518,80.6094 C518,80.6094 500,80.6094 500,70.6094 L500,44.6094 " fill="#F8F8F8" filter="url(#fr6fd8i)" style="stroke: #000000; stroke-width: 1.5;"/><path d="M500,44.6094 C500,54.6094 518,54.6094 518,54.6094 C518,54.6094 536,54.6094 536,44.6094 " fill="none" style="stroke: #000000; stroke-width: 1.5;"/><text fill="#000000" font-family="sans-serif" font-size="14" lengthAdjust="spacingAndGlyphs" textLength="70" x="480" y="1413.166">商品マスタ</text><path d="M500,1426.2422 C500,1416.2422 518,1416.2422 518,1416.2422 C518,1416.2422 536,1416.2422 536,1426.2422 L536,1452.2422 C536,1462.2422 518,1462.2422 518,1462.2422 C518,1462.2422 500,1462.2422 500,1452.2422 L500,1426.2422 " fill="#F8F8F8" filter="url(#fr6fd8i)" style="stroke: #000000; stroke-width: 1.5;"/><path d="M500,1426.2422 C500,1436.2422 518,1436.2422 518,1436.2422 C518,1436.2422 536,1436.2422 536,1426.2422 " fill="none" style="stroke: #000000; stroke-width: 1.5;"/><text fill="#000000" font-family="sans-serif" font-size="14" lengthAdjust="spacingAndGlyphs" textLength="154" x="566" y="95.1426">受注チェックリスト生成</text><path d="M625.5,52.6094 L625.5,76.6094 M625.5,64.6094 L642.5,64.6094 " fill="#F8F8F8" filter="url(#fr6fd8i)" style="stroke: #383838; stroke-width: 2.0;"/><ellipse cx="654.5" cy="64.6094" fill="#F8F8F8" filter="url(#fr6fd8i)" rx="12" ry="12" style="stroke: #383838; stroke-width: 2.0;"/><text fill="#000000" font-family="sans-serif" font-size="14" lengthAdjust="spacingAndGlyphs" textLength="154" x="566" y="1413.166">受注チェックリスト生成</text><path d="M625.5,1420.2422 L625.5,1444.2422 M625.5,1432.2422 L642.5,1432.2422 " fill="#F8F8F8" filter="url(#fr6fd8i)" style="stroke: #383838; stroke-width: 2.0;"/><ellipse cx="654.5" cy="1432.2422" fill="#F8F8F8" filter="url(#fr6fd8i)" rx="12" ry="12" style="stroke: #383838; stroke-width: 2.0;"/><rect fill="#F8F8F8" filter="url(#fr6fd8i)" height="31.6094" style="stroke: #383838; stroke-width: 1.5;" width="56" x="736" y="61.6094"/><text fill="#000000" font-family="sans-serif" font-size="14" lengthAdjust="spacingAndGlyphs" textLength="42" x="743" y="83.1426">電算室</text><rect fill="#F8F8F8" filter="url(#fr6fd8i)" height="31.6094" style="stroke: #383838; stroke-width: 1.5;" width="56" x="736" y="1398.6328"/><text fill="#000000" font-family="sans-serif" font-size="14" lengthAdjust="spacingAndGlyphs" textLength="42" x="743" y="1420.166">電算室</text><rect fill="#F8F8F8" filter="url(#fr6fd8i)" height="31.6094" style="stroke: #383838; stroke-width: 1.5;" width="54" x="806" y="61.6094"/><text fill="#000000" font-family="sans-serif" font-size="14" lengthAdjust="spacingAndGlyphs" textLength="40" x="813" y="83.1426">SLIMS</text><rect fill="#F8F8F8" filter="url(#fr6fd8i)" height="31.6094" style="stroke: #383838; stroke-width: 1.5;" width="54" x="806" y="1398.6328"/><text fill="#000000" font-family="sans-serif" font-size="14" lengthAdjust="spacingAndGlyphs" textLength="40" x="813" y="1420.166">SLIMS</text><text fill="#000000" font-family="sans-serif" font-size="14" lengthAdjust="spacingAndGlyphs" textLength="117" x="874" y="95.1426">出荷チェック用DB</text><path d="M917.5,44.6094 C917.5,34.6094 935.5,34.6094 935.5,34.6094 C935.5,34.6094 953.5,34.6094 953.5,44.6094 L953.5,70.6094 C953.5,80.6094 935.5,80.6094 935.5,80.6094 C935.5,80.6094 917.5,80.6094 917.5,70.6094 L917.5,44.6094 " fill="#F8F8F8" filter="url(#fr6fd8i)" style="stroke: #000000; stroke-width: 1.5;"/><path d="M917.5,44.6094 C917.5,54.6094 935.5,54.6094 935.5,54.6094 C935.5,54.6094 953.5,54.6094 953.5,44.6094 " fill="none" style="stroke: #000000; stroke-width: 1.5;"/><text fill="#000000" font-family="sans-serif" font-size="14" lengthAdjust="spacingAndGlyphs" textLength="117" x="874" y="1413.166">出荷チェック用DB</text><path d="M917.5,1426.2422 C917.5,1416.2422 935.5,1416.2422 935.5,1416.2422 C935.5,1416.2422 953.5,1416.2422 953.5,1426.2422 L953.5,1452.2422 C953.5,1462.2422 935.5,1462.2422 935.5,1462.2422 C935.5,1462.2422 917.5,1462.2422 917.5,1452.2422 L917.5,1426.2422 " fill="#F8F8F8" filter="url(#fr6fd8i)" style="stroke: #000000; stroke-width: 1.5;"/><path d="M917.5,1426.2422 C917.5,1436.2422 935.5,1436.2422 935.5,1436.2422 C935.5,1436.2422 953.5,1436.2422 953.5,1426.2422 " fill="none" style="stroke: #000000; stroke-width: 1.5;"/><text fill="#000000" font-family="sans-serif" font-size="14" lengthAdjust="spacingAndGlyphs" textLength="36" x="1007" y="95.1426">e飛伝</text><ellipse cx="1028" cy="64.6094" fill="#F8F8F8" filter="url(#fr6fd8i)" rx="12" ry="12" style="stroke: #383838; stroke-width: 2.0;"/><line style="stroke: #383838; stroke-width: 2.0;" x1="1016" x2="1040" y1="78.6094" y2="78.6094"/><text fill="#000000" font-family="sans-serif" font-size="14" lengthAdjust="spacingAndGlyphs" textLength="36" x="1007" y="1413.166">e飛伝</text><ellipse cx="1028" cy="1432.2422" fill="#F8F8F8" filter="url(#fr6fd8i)" rx="12" ry="12" style="stroke: #383838; stroke-width: 2.0;"/><line style="stroke: #383838; stroke-width: 2.0;" x1="1016" x2="1040" y1="1446.2422" y2="1446.2422"/><text fill="#000000" font-family="sans-serif" font-size="14" lengthAdjust="spacingAndGlyphs" textLength="56" x="1059" y="95.1426">ネコポス</text><ellipse cx="1090" cy="64.6094" fill="#F8F8F8" filter="url(#fr6fd8i)" rx="12" ry="12" style="stroke: #383838; stroke-width: 2.0;"/><line style="stroke: #383838; stroke-width: 2.0;" x1="1078" x2="1102" y1="78.6094" y2="78.6094"/><text fill="#000000" font-family="sans-serif" font-size="14" lengthAdjust="spacingAndGlyphs" textLength="56" x="1059" y="1413.166">ネコポス</text><ellipse cx="1090" cy="1432.2422" fill="#F8F8F8" filter="url(#fr6fd8i)" rx="12" ry="12" style="stroke: #383838; stroke-width: 2.0;"/><line style="stroke: #383838; stroke-width: 2.0;" x1="1078" x2="1102" y1="1446.2422" y2="1446.2422"/><rect fill="#F8F8F8" filter="url(#fr6fd8i)" height="31.6094" style="stroke: #383838; stroke-width: 1.5;" width="42" x="1131" y="61.6094"/><text fill="#000000" font-family="sans-serif" font-size="14" lengthAdjust="spacingAndGlyphs" textLength="28" x="1138" y="83.1426">振分</text><rect fill="#F8F8F8" filter="url(#fr6fd8i)" height="31.6094" style="stroke: #383838; stroke-width: 1.5;" width="42" x="1131" y="1398.6328"/><text fill="#000000" font-family="sans-serif" font-size="14" lengthAdjust="spacingAndGlyphs" textLength="28" x="1138" y="1420.166">振分</text><rect fill="#F8F8F8" filter="url(#fr6fd8i)" height="31.6094" style="stroke: #383838; stroke-width: 1.5;" width="84" x="1187" y="61.6094"/><text fill="#000000" font-family="sans-serif" font-size="14" lengthAdjust="spacingAndGlyphs" textLength="70" x="1194" y="83.1426">ピッキング</text><rect fill="#F8F8F8" filter="url(#fr6fd8i)" height="31.6094" style="stroke: #383838; stroke-width: 1.5;" width="84" x="1187" y="1398.6328"/><text fill="#000000" font-family="sans-serif" font-size="14" lengthAdjust="spacingAndGlyphs" textLength="70" x="1194" y="1420.166">ピッキング</text><rect fill="#F8F8F8" filter="url(#fr6fd8i)" height="31.6094" style="stroke: #383838; stroke-width: 1.5;" width="42" x="1285" y="61.6094"/><text fill="#000000" font-family="sans-serif" font-size="14" lengthAdjust="spacingAndGlyphs" textLength="28" x="1292" y="83.1426">梱包</text><rect fill="#F8F8F8" filter="url(#fr6fd8i)" height="31.6094" style="stroke: #383838; stroke-width: 1.5;" width="42" x="1285" y="1398.6328"/><text fill="#000000" font-family="sans-serif" font-size="14" lengthAdjust="spacingAndGlyphs" textLength="28" x="1292" y="1420.166">梱包</text><rect fill="#F8F8F8" filter="url(#fr6fd8i)" height="31.6094" style="stroke: #383838; stroke-width: 1.5;" width="42" x="1386" y="61.6094"/><text fill="#000000" font-family="sans-serif" font-size="14" lengthAdjust="spacingAndGlyphs" textLength="28" x="1393" y="83.1426">出荷</text><rect fill="#F8F8F8" filter="url(#fr6fd8i)" height="31.6094" style="stroke: #383838; stroke-width: 1.5;" width="42" x="1386" y="1398.6328"/><text fill="#000000" font-family="sans-serif" font-size="14" lengthAdjust="spacingAndGlyphs" textLength="28" x="1393" y="1420.166">出荷</text><rect fill="#FFFFFF" filter="url(#fr6fd8i)" height="30.3516" style="stroke: #383838; stroke-width: 1.0;" width="10" x="46" y="155.5703"/><rect fill="#FFFFFF" filter="url(#fr6fd8i)" height="30.3516" style="stroke: #383838; stroke-width: 1.0;" width="10" x="101" y="216.2734"/><rect fill="#FFFFFF" filter="url(#fr6fd8i)" height="30.3516" style="stroke: #383838; stroke-width: 1.0;" width="10" x="151.5" y="276.9766"/><rect fill="#FFFFFF" filter="url(#fr6fd8i)" height="146.7578" style="stroke: #383838; stroke-width: 1.0;" width="10" x="245.5" y="1227.5234"/><rect fill="#FFFFFF" filter="url(#fr6fd8i)" height="273.1641" style="stroke: #383838; stroke-width: 1.0;" width="10" x="380" y="440.7344"/><rect fill="#FFFFFF" filter="url(#fr6fd8i)" height="30.3516" style="stroke: #383838; stroke-width: 1.0;" width="10" x="641" y="744.25"/><rect fill="#FFFFFF" filter="url(#fr6fd8i)" height="91.0547" style="stroke: #383838; stroke-width: 1.0;" width="10" x="1149" y="970.7109"/><rect fill="#FFFFFF" filter="url(#fr6fd8i)" height="91.0547" style="stroke: #383838; stroke-width: 1.0;" width="10" x="1226" y="940.3594"/><rect fill="#FFFFFF" filter="url(#fr6fd8i)" height="91.0547" style="stroke: #383838; stroke-width: 1.0;" width="10" x="1303" y="1061.7656"/><rect fill="none" height="200.4609" style="stroke: #000000; stroke-width: 2.0;" width="299" x="13" y="115.2188"/><polygon fill="#EEEEEE" points="13,115.2188,86,115.2188,86,123.2188,76,133.2188,13,133.2188,13,115.2188" style="stroke: #000000; stroke-width: 2.0;"/><text fill="#000000" font-family="sans-serif" font-size="13" font-weight="bold" lengthAdjust="spacingAndGlyphs" textLength="28" x="28" y="129.7139">loop</text><text fill="#000000" font-family="sans-serif" font-size="11" font-weight="bold" lengthAdjust="spacingAndGlyphs" textLength="56" x="101" y="128.6377">[常時取得]</text><polygon fill="#383838" points="67,151.5703,57,155.5703,67,159.5703,63,155.5703" style="stroke: #383838; stroke-width: 1.0;"/><line style="stroke: #383838; stroke-width: 1.0;" x1="61" x2="249.5" y1="155.5703" y2="155.5703"/><text fill="#000000" font-family="sans-serif" font-size="13" lengthAdjust="spacingAndGlyphs" textLength="21" x="73" y="151.0654">API</text><polygon fill="#383838" points="238.5,181.9219,248.5,185.9219,238.5,189.9219,242.5,185.9219" style="stroke: #383838; stroke-width: 1.0;"/><line style="stroke: #383838; stroke-width: 1.0; stroke-dasharray: 2.0,2.0;" x1="51" x2="244.5" y1="185.9219" y2="185.9219"/><text fill="#000000" font-family="sans-serif" font-size="13" lengthAdjust="spacingAndGlyphs" textLength="65" x="58" y="181.417">受注データ</text><polygon fill="#383838" points="122,212.2734,112,216.2734,122,220.2734,118,216.2734" style="stroke: #383838; stroke-width: 1.0;"/><line style="stroke: #383838; stroke-width: 1.0;" x1="116" x2="249.5" y1="216.2734" y2="216.2734"/><text fill="#000000" font-family="sans-serif" font-size="13" lengthAdjust="spacingAndGlyphs" textLength="21" x="128" y="211.7686">API</text><polygon fill="#383838" points="238.5,242.625,248.5,246.625,238.5,250.625,242.5,246.625" style="stroke: #383838; stroke-width: 1.0;"/><line style="stroke: #383838; stroke-width: 1.0; stroke-dasharray: 2.0,2.0;" x1="106" x2="244.5" y1="246.625" y2="246.625"/><text fill="#000000" font-family="sans-serif" font-size="13" lengthAdjust="spacingAndGlyphs" textLength="65" x="113" y="242.1201">受注データ</text><polygon fill="#383838" points="172.5,272.9766,162.5,276.9766,172.5,280.9766,168.5,276.9766" style="stroke: #383838; stroke-width: 1.0;"/><line style="stroke: #383838; stroke-width: 1.0;" x1="166.5" x2="249.5" y1="276.9766" y2="276.9766"/><text fill="#000000" font-family="sans-serif" font-size="13" lengthAdjust="spacingAndGlyphs" textLength="21" x="178.5" y="272.4717">API</text><polygon fill="#383838" points="238.5,303.3281,248.5,307.3281,238.5,311.3281,242.5,307.3281" style="stroke: #383838; stroke-width: 1.0;"/><line style="stroke: #383838; stroke-width: 1.0; stroke-dasharray: 2.0,2.0;" x1="156.5" x2="244.5" y1="307.3281" y2="307.3281"/><text fill="#000000" font-family="sans-serif" font-size="13" lengthAdjust="spacingAndGlyphs" textLength="65" x="163.5" y="302.8232">受注データ</text><rect fill="#EEEEEE" filter="url(#fr6fd8i)" height="3" style="stroke: #EEEEEE; stroke-width: 1.0;" width="1434" x="3" y="343.8555"/><line style="stroke: #000000; stroke-width: 1.0;" x1="3" x2="1437" y1="343.8555" y2="343.8555"/><line style="stroke: #000000; stroke-width: 1.0;" x1="3" x2="1437" y1="346.8555" y2="346.8555"/><rect fill="#EEEEEE" filter="url(#fr6fd8i)" height="24.3516" style="stroke: #000000; stroke-width: 2.0;" width="121" x="659.5" y="332.6797"/><text fill="#000000" font-family="sans-serif" font-size="13" font-weight="bold" lengthAdjust="spacingAndGlyphs" textLength="103" x="665.5" y="350.1748">8:00 ～ 受注取込</text><polygon fill="#383838" points="634,385.0313,644,389.0313,634,393.0313,638,389.0313" style="stroke: #383838; stroke-width: 1.0;"/><line style="stroke: #383838; stroke-width: 1.0;" x1="250.5" x2="640" y1="389.0313" y2="389.0313"/><text fill="#000000" font-family="sans-serif" font-size="13" lengthAdjust="spacingAndGlyphs" textLength="79" x="257.5" y="384.5264">CSVファイル</text><polygon fill="#383838" points="368,436.7344,378,440.7344,368,444.7344,372,440.7344" style="stroke: #383838; stroke-width: 1.0;"/><line style="stroke: #383838; stroke-width: 1.0;" x1="250.5" x2="374" y1="440.7344" y2="440.7344"/><text fill="#000000" font-family="sans-serif" font-size="13" lengthAdjust="spacingAndGlyphs" textLength="79" x="257.5" y="436.2295">CSVファイル</text><polygon fill="#ECECEC" filter="url(#fr6fd8i)" points="117,402.3828,117,461.3828,241,461.3828,241,412.3828,231,402.3828,117,402.3828" style="stroke: #383838; stroke-width: 1.0;"/><line style="stroke: #383838; stroke-width: 1.0;" x1="231" x2="231" y1="402.3828" y2="412.3828"/><line style="stroke: #383838; stroke-width: 1.0;" x1="241" x2="231" y1="412.3828" y2="412.3828"/><text fill="#000000" font-family="sans-serif" font-size="13" lengthAdjust="spacingAndGlyphs" textLength="66" x="123" y="420.8779">単一CSVで</text><text fill="#000000" font-family="sans-serif" font-size="13" lengthAdjust="spacingAndGlyphs" textLength="65" x="131" y="437.2295">ピッキング</text><text fill="#000000" font-family="sans-serif" font-size="13" lengthAdjust="spacingAndGlyphs" textLength="95" x="131" y="453.5811">チェック用 生成</text><line style="stroke: #383838; stroke-width: 1.0;" x1="390" x2="432" y1="492.7891" y2="492.7891"/><line style="stroke: #383838; stroke-width: 1.0;" x1="432" x2="432" y1="492.7891" y2="505.7891"/><line style="stroke: #383838; stroke-width: 1.0;" x1="391" x2="432" y1="505.7891" y2="505.7891"/><polygon fill="#383838" points="401,501.7891,391,505.7891,401,509.7891,397,505.7891" style="stroke: #383838; stroke-width: 1.0;"/><text fill="#000000" font-family="sans-serif" font-size="13" lengthAdjust="spacingAndGlyphs" textLength="65" x="397" y="487.9326">セット分解</text><polygon fill="#383838" points="506,531.7891,516,535.7891,506,539.7891,510,535.7891" style="stroke: #383838; stroke-width: 1.0;"/><line style="stroke: #383838; stroke-width: 1.0;" x1="390" x2="512" y1="535.7891" y2="535.7891"/><text fill="#000000" font-family="sans-serif" font-size="13" lengthAdjust="spacingAndGlyphs" textLength="104" x="397" y="531.2842">ロケーション取得</text><polygon fill="#383838" points="754,562.1406,764,566.1406,754,570.1406,758,566.1406" style="stroke: #383838; stroke-width: 1.0;"/><line style="stroke: #383838; stroke-width: 1.0;" x1="390" x2="760" y1="566.1406" y2="566.1406"/><text fill="#000000" font-family="sans-serif" font-size="13" lengthAdjust="spacingAndGlyphs" textLength="113" x="397" y="561.6357">Amazonピッキング</text><polygon fill="#383838" points="754,592.4922,764,596.4922,754,600.4922,758,596.4922" style="stroke: #383838; stroke-width: 1.0;"/><line style="stroke: #383838; stroke-width: 1.0;" x1="390" x2="760" y1="596.4922" y2="596.4922"/><text fill="#000000" font-family="sans-serif" font-size="13" lengthAdjust="spacingAndGlyphs" textLength="91" x="397" y="591.9873">楽天ピッキング</text><polygon fill="#383838" points="754,622.8438,764,626.8438,754,630.8438,758,626.8438" style="stroke: #383838; stroke-width: 1.0;"/><line style="stroke: #383838; stroke-width: 1.0;" x1="390" x2="760" y1="626.8438" y2="626.8438"/><text fill="#000000" font-family="sans-serif" font-size="13" lengthAdjust="spacingAndGlyphs" textLength="102" x="397" y="622.3389">Yahooピッキング</text><polygon fill="#ECECEC" filter="url(#fr6fd8i)" points="25,640.1953,25,682.1953,128,682.1953,128,650.1953,118,640.1953,25,640.1953" style="stroke: #383838; stroke-width: 1.0;"/><line style="stroke: #383838; stroke-width: 1.0;" x1="118" x2="118" y1="640.1953" y2="650.1953"/><line style="stroke: #383838; stroke-width: 1.0;" x1="128" x2="118" y1="650.1953" y2="650.1953"/><text fill="#000000" font-family="sans-serif" font-size="13" lengthAdjust="spacingAndGlyphs" textLength="65" x="31" y="658.6904">手配書作成</text><text fill="#000000" font-family="sans-serif" font-size="13" lengthAdjust="spacingAndGlyphs" textLength="82" x="31" y="675.042">B2B CSV作成</text><polygon fill="#383838" points="14,709.8984,4,713.8984,14,717.8984,10,713.8984" style="stroke: #383838; stroke-width: 1.0;"/><line style="stroke: #383838; stroke-width: 1.0;" x1="8" x2="384" y1="713.8984" y2="713.8984"/><text fill="#000000" font-family="sans-serif" font-size="13" lengthAdjust="spacingAndGlyphs" textLength="160" x="20" y="709.3936">発注 -aピッキングシート×3</text><polygon fill="#383838" points="823,740.25,833,744.25,823,748.25,827,744.25" style="stroke: #383838; stroke-width: 1.0;"/><line style="stroke: #383838; stroke-width: 1.0;" x1="766" x2="829" y1="744.25" y2="744.25"/><text fill="#000000" font-family="sans-serif" font-size="13" lengthAdjust="spacingAndGlyphs" textLength="44" x="773" y="739.7451">DB投入</text><polygon fill="#383838" points="923.5,770.6016,933.5,774.6016,923.5,778.6016,927.5,774.6016" style="stroke: #383838; stroke-width: 1.0;"/><line style="stroke: #383838; stroke-width: 1.0;" x1="646" x2="929.5" y1="774.6016" y2="774.6016"/><text fill="#000000" font-family="sans-serif" font-size="13" lengthAdjust="spacingAndGlyphs" textLength="44" x="653" y="770.0967">DB投入</text><polygon fill="#383838" points="1016,800.9531,1026,804.9531,1016,808.9531,1020,804.9531" style="stroke: #383838; stroke-width: 1.0;"/><line style="stroke: #383838; stroke-width: 1.0;" x1="250.5" x2="1022" y1="804.9531" y2="804.9531"/><text fill="#000000" font-family="sans-serif" font-size="13" lengthAdjust="spacingAndGlyphs" textLength="67" x="257.5" y="800.4482">CSV_e飛伝</text><polygon fill="#383838" points="1078,831.3047,1088,835.3047,1078,839.3047,1082,835.3047" style="stroke: #383838; stroke-width: 1.0;"/><line style="stroke: #383838; stroke-width: 1.0;" x1="250.5" x2="1084" y1="835.3047" y2="835.3047"/><text fill="#000000" font-family="sans-serif" font-size="13" lengthAdjust="spacingAndGlyphs" textLength="89" x="257.5" y="830.7998">CSV_ヤマトB2</text><rect fill="#EEEEEE" filter="url(#fr6fd8i)" height="3" style="stroke: #EEEEEE; stroke-width: 1.0;" width="1434" x="3" y="864.832"/><line style="stroke: #000000; stroke-width: 1.0;" x1="3" x2="1437" y1="864.832" y2="864.832"/><line style="stroke: #000000; stroke-width: 1.0;" x1="3" x2="1437" y1="867.832" y2="867.832"/><rect fill="#EEEEEE" filter="url(#fr6fd8i)" height="24.3516" style="stroke: #000000; stroke-width: 2.0;" width="131" x="654.5" y="853.6563"/><text fill="#000000" font-family="sans-serif" font-size="13" font-weight="bold" lengthAdjust="spacingAndGlyphs" textLength="113" x="660.5" y="871.1514">9:30～ 振分・梱包</text><polygon fill="#383838" points="1142,906.0078,1152,910.0078,1142,914.0078,1146,910.0078" style="stroke: #383838; stroke-width: 1.0;"/><line style="stroke: #383838; stroke-width: 1.0;" x1="385" x2="1148" y1="910.0078" y2="910.0078"/><text fill="#000000" font-family="sans-serif" font-size="13" lengthAdjust="spacingAndGlyphs" textLength="117" x="392" y="905.5029">振分け用商品リスト</text><polygon fill="#383838" points="846,936.3594,836,940.3594,846,944.3594,842,940.3594" style="stroke: #383838; stroke-width: 1.0;"/><line style="stroke: #383838; stroke-width: 1.0; stroke-dasharray: 2.0,2.0;" x1="840" x2="1225" y1="940.3594" y2="940.3594"/><text fill="#000000" font-family="sans-serif" font-size="13" lengthAdjust="spacingAndGlyphs" textLength="52" x="852" y="935.8545">ハンディ</text><polygon fill="#383838" points="1137,966.7109,1147,970.7109,1137,974.7109,1141,970.7109" style="stroke: #383838; stroke-width: 1.0;"/><line style="stroke: #383838; stroke-width: 1.0;" x1="250.5" x2="1143" y1="970.7109" y2="970.7109"/><text fill="#000000" font-family="sans-serif" font-size="13" lengthAdjust="spacingAndGlyphs" textLength="39" x="257.5" y="966.2061">納品書</text><polygon fill="#383838" points="1137,997.0625,1147,1001.0625,1137,1005.0625,1141,1001.0625" style="stroke: #383838; stroke-width: 1.0;"/><line style="stroke: #383838; stroke-width: 1.0;" x1="1028" x2="1143" y1="1001.0625" y2="1001.0625"/><text fill="#000000" font-family="sans-serif" font-size="13" lengthAdjust="spacingAndGlyphs" textLength="65" x="1035" y="996.5576">佐川送り状</text><polygon fill="#383838" points="1170,1027.4141,1160,1031.4141,1170,1035.4141,1166,1031.4141" style="stroke: #383838; stroke-width: 1.0;"/><line style="stroke: #383838; stroke-width: 1.0;" x1="1164" x2="1230" y1="1031.4141" y2="1031.4141"/><text fill="#000000" font-family="sans-serif" font-size="13" lengthAdjust="spacingAndGlyphs" textLength="26" x="1176" y="1026.9092">商品</text><polygon fill="#383838" points="1291,1057.7656,1301,1061.7656,1291,1065.7656,1295,1061.7656" style="stroke: #383838; stroke-width: 1.0;"/><line style="stroke: #383838; stroke-width: 1.0;" x1="1154" x2="1297" y1="1061.7656" y2="1061.7656"/><text fill="#000000" font-family="sans-serif" font-size="13" lengthAdjust="spacingAndGlyphs" textLength="78" x="1161" y="1057.2607">商品・納品書</text><polygon fill="#383838" points="1291,1088.1172,1301,1092.1172,1291,1096.1172,1295,1092.1172" style="stroke: #383838; stroke-width: 1.0;"/><line style="stroke: #383838; stroke-width: 1.0;" x1="1090" x2="1297" y1="1092.1172" y2="1092.1172"/><text fill="#000000" font-family="sans-serif" font-size="13" lengthAdjust="spacingAndGlyphs" textLength="91" x="1097" y="1087.6123">ネコポス送り状</text><polygon fill="#383838" points="946.5,1118.4688,936.5,1122.4688,946.5,1126.4688,942.5,1122.4688" style="stroke: #383838; stroke-width: 1.0;"/><line style="stroke: #383838; stroke-width: 1.0; stroke-dasharray: 2.0,2.0;" x1="940.5" x2="1302" y1="1122.4688" y2="1122.4688"/><text fill="#000000" font-family="sans-serif" font-size="13" lengthAdjust="spacingAndGlyphs" textLength="104" x="952.5" y="1117.9639">出荷商品チェック</text><polygon fill="#383838" points="1397,1148.8203,1407,1152.8203,1397,1156.8203,1401,1152.8203" style="stroke: #383838; stroke-width: 1.0;"/><line style="stroke: #383838; stroke-width: 1.0;" x1="1308" x2="1403" y1="1152.8203" y2="1152.8203"/><text fill="#000000" font-family="sans-serif" font-size="13" lengthAdjust="spacingAndGlyphs" textLength="72" x="1315" y="1148.3154">梱包済_商品</text><rect fill="#EEEEEE" filter="url(#fr6fd8i)" height="3" style="stroke: #EEEEEE; stroke-width: 1.0;" width="1434" x="3" y="1182.3477"/><line style="stroke: #000000; stroke-width: 1.0;" x1="3" x2="1437" y1="1182.3477" y2="1182.3477"/><line style="stroke: #000000; stroke-width: 1.0;" x1="3" x2="1437" y1="1185.3477" y2="1185.3477"/><rect fill="#EEEEEE" filter="url(#fr6fd8i)" height="24.3516" style="stroke: #000000; stroke-width: 2.0;" width="124" x="658" y="1171.1719"/><text fill="#000000" font-family="sans-serif" font-size="13" font-weight="bold" lengthAdjust="spacingAndGlyphs" textLength="106" x="664" y="1188.667">16:00～ 出荷通知</text><polygon fill="#383838" points="266.5,1223.5234,256.5,1227.5234,266.5,1231.5234,262.5,1227.5234" style="stroke: #383838; stroke-width: 1.0;"/><line style="stroke: #383838; stroke-width: 1.0;" x1="260.5" x2="1027" y1="1227.5234" y2="1227.5234"/><text fill="#000000" font-family="sans-serif" font-size="13" lengthAdjust="spacingAndGlyphs" textLength="65" x="272.5" y="1223.0186">送り状番号</text><polygon fill="#383838" points="266.5,1253.875,256.5,1257.875,266.5,1261.875,262.5,1257.875" style="stroke: #383838; stroke-width: 1.0;"/><line style="stroke: #383838; stroke-width: 1.0;" x1="260.5" x2="1089" y1="1257.875" y2="1257.875"/><text fill="#000000" font-family="sans-serif" font-size="13" lengthAdjust="spacingAndGlyphs" textLength="65" x="272.5" y="1253.3701">送り状番号</text><rect fill="none" height="109.4063" style="stroke: #000000; stroke-width: 2.0;" width="299" x="13" y="1273.2266"/><polygon fill="#EEEEEE" points="13,1273.2266,86,1273.2266,86,1281.2266,76,1291.2266,13,1291.2266,13,1273.2266" style="stroke: #000000; stroke-width: 2.0;"/><text fill="#000000" font-family="sans-serif" font-size="13" font-weight="bold" lengthAdjust="spacingAndGlyphs" textLength="28" x="28" y="1287.7217">loop</text><text fill="#000000" font-family="sans-serif" font-size="11" font-weight="bold" lengthAdjust="spacingAndGlyphs" textLength="74" x="101" y="1286.6455">[APIにて実行]</text><polygon fill="#383838" points="62,1309.5781,52,1313.5781,62,1317.5781,58,1313.5781" style="stroke: #383838; stroke-width: 1.0;"/><line style="stroke: #383838; stroke-width: 1.0;" x1="56" x2="244.5" y1="1313.5781" y2="1313.5781"/><text fill="#000000" font-family="sans-serif" font-size="13" lengthAdjust="spacingAndGlyphs" textLength="65" x="68" y="1309.0732">送り状番号</text><polygon fill="#383838" points="117,1339.9297,107,1343.9297,117,1347.9297,113,1343.9297" style="stroke: #383838; stroke-width: 1.0;"/><line style="stroke: #383838; stroke-width: 1.0;" x1="111" x2="244.5" y1="1343.9297" y2="1343.9297"/><text fill="#000000" font-family="sans-serif" font-size="13" lengthAdjust="spacingAndGlyphs" textLength="65" x="123" y="1339.4248">送り状番号</text><polygon fill="#383838" points="167.5,1370.2813,157.5,1374.2813,167.5,1378.2813,163.5,1374.2813" style="stroke: #383838; stroke-width: 1.0;"/><line style="stroke: #383838; stroke-width: 1.0;" x1="161.5" x2="249.5" y1="1374.2813" y2="1374.2813"/><text fill="#000000" font-family="sans-serif" font-size="13" lengthAdjust="spacingAndGlyphs" textLength="65" x="173.5" y="1369.7764">送り状番号</text></g></svg>